<svg id="Group_1169406" data-name="Group 1169406" xmlns="http://www.w3.org/2000/svg" width="84.578" height="84.578" viewBox="0 0 84.578 84.578">
  <path id="Path_942427" data-name="Path 942427" d="M167.611,10.8V33.1a3.3,3.3,0,0,1-3.3,3.3H151.184a.661.661,0,0,0-.444.171l-4.531,4.105a.661.661,0,0,1-.891,0l-4.448-4.1a.661.661,0,0,0-.448-.175H127.3a3.3,3.3,0,0,1-3.3-3.3V10.8a3.3,3.3,0,0,1,3.3-3.3h37a3.3,3.3,0,0,1,3.3,3.3Z" transform="translate(-103.516 -6.261)" fill="#40c4ff"/>
  <g id="Group_1169404" data-name="Group 1169404" transform="translate(55.835 1.239)">
    <path id="Path_942428" data-name="Path 942428" d="M342.956,7.5H338a3.3,3.3,0,0,1,3.3,3.3V33.1a3.3,3.3,0,0,1-3.3,3.3h4.956a3.3,3.3,0,0,0,3.3-3.3V10.8A3.3,3.3,0,0,0,342.956,7.5Z" transform="translate(-338 -7.5)" fill="#00b0ff"/>
  </g>
  <circle id="Ellipse_13592" data-name="Ellipse 13592" cx="22.301" cy="22.301" r="22.301" transform="translate(1.239 38.737)" fill="#ffb300"/>
  <circle id="Ellipse_13593" data-name="Ellipse 13593" cx="17.345" cy="17.345" r="17.345" transform="translate(6.195 43.693)" fill="#ffd54f"/>
  <circle id="Ellipse_13594" data-name="Ellipse 13594" cx="22.301" cy="22.301" r="22.301" transform="translate(19.988 38.737)" fill="#ffb300"/>
  <path id="Path_942429" data-name="Path 942429" d="M243.478,234.5a22.523,22.523,0,0,0-2.478.138,22.3,22.3,0,0,1,0,44.326,22.3,22.3,0,1,0,2.478-44.464Z" transform="translate(-201.189 -195.763)" fill="#ffa000"/>
  <circle id="Ellipse_13595" data-name="Ellipse 13595" cx="17.345" cy="17.345" r="17.345" transform="translate(24.944 43.693)" fill="#ffd54f"/>
  <circle id="Ellipse_13596" data-name="Ellipse 13596" cx="22.301" cy="22.301" r="22.301" transform="translate(38.737 38.737)" fill="#ffb300"/>
  <path id="Path_942430" data-name="Path 942430" d="M356.978,234.5a22.522,22.522,0,0,0-2.478.138,22.3,22.3,0,0,1,0,44.326,22.3,22.3,0,1,0,2.478-44.464Z" transform="translate(-295.94 -195.763)" fill="#ffa000"/>
  <circle id="Ellipse_13597" data-name="Ellipse 13597" cx="17.345" cy="17.345" r="17.345" transform="translate(43.693 43.693)" fill="#ffd54f"/>
  <path id="Path_942431" data-name="Path 942431" d="M205.215,37.6l.251-1.285a.8.8,0,0,1,.784-.645h2.663a.8.8,0,0,1,.784.645l.251,1.285a.8.8,0,0,0,.384.538l2.543,1.467a.8.8,0,0,0,.659.063l1.239-.426a.8.8,0,0,1,.951.355l1.332,2.3a.8.8,0,0,1-.167,1l-.989.859a.8.8,0,0,0-.274.6v2.933a.8.8,0,0,0,.274.6l.989.859a.8.8,0,0,1,.167,1l-1.332,2.3a.8.8,0,0,1-.951.355l-1.239-.426a.8.8,0,0,0-.659.063l-2.543,1.467a.8.8,0,0,0-.384.538l-.251,1.285a.8.8,0,0,1-.784.645H206.25a.8.8,0,0,1-.784-.645l-.251-1.285a.8.8,0,0,0-.384-.538l-2.543-1.467a.8.8,0,0,0-.659-.063l-1.239.426a.8.8,0,0,1-.951-.355l-1.332-2.3a.8.8,0,0,1,.167-1l.989-.859a.8.8,0,0,0,.274-.6V44.36a.8.8,0,0,0-.274-.6l-.989-.859a.8.8,0,0,1-.167-1l1.332-2.3a.8.8,0,0,1,.951-.355l1.239.426a.8.8,0,0,0,.659-.063l2.543-1.467A.8.8,0,0,0,205.215,37.6Zm-1.4,8.23a3.763,3.763,0,1,0,3.763-3.759A3.761,3.761,0,0,0,203.818,45.826Z" transform="translate(-165.292 -29.775)" fill="#f5f5f5"/>
  <g id="Group_1169405" data-name="Group 1169405">
    <path id="Path_942432" data-name="Path 942432" d="M78.482,234.732a1.239,1.239,0,1,0-1.836,1.664,21.036,21.036,0,1,1-3.748-3.266,1.239,1.239,0,0,0,1.4-2.047,23.545,23.545,0,0,0-22.623-2.14,23.572,23.572,0,0,0-18.749,0,23.54,23.54,0,1,0,0,43.191,23.572,23.572,0,0,0,18.749,0,23.54,23.54,0,0,0,26.81-37.4ZM43.818,266.573q-.761.072-1.529.072a16.106,16.106,0,1,1,0-32.212q.767,0,1.529.073a23.5,23.5,0,0,0,0,32.067ZM23.54,271.6a21.062,21.062,0,1,1,6.443-41.122,23.692,23.692,0,0,0-2.622,1.872,18.578,18.578,0,0,0-16.874,31.405,1.239,1.239,0,0,0,1.741-1.763A16.1,16.1,0,0,1,23.54,234.434q.767,0,1.529.073a23.5,23.5,0,0,0,0,32.067q-.761.072-1.529.072a15.9,15.9,0,0,1-7.337-1.771,1.239,1.239,0,1,0-1.133,2.2,18.589,18.589,0,0,0,12.292,1.648,23.633,23.633,0,0,0,2.622,1.872,20.963,20.963,0,0,1-6.443,1Zm18.749,0a21.062,21.062,0,1,1,6.443-41.122,23.692,23.692,0,0,0-2.622,1.872,18.584,18.584,0,1,0,0,36.376,23.632,23.632,0,0,0,2.622,1.872,20.963,20.963,0,0,1-6.443,1Z" transform="translate(0 -189.501)"/>
    <path id="Path_942433" data-name="Path 942433" d="M275.584,257a18.584,18.584,0,1,0,18.584,18.584A18.605,18.605,0,0,0,275.584,257Zm0,34.69a16.106,16.106,0,1,1,16.106-16.106A16.124,16.124,0,0,1,275.584,291.69Z" transform="translate(-214.546 -214.546)"/>
    <path id="Path_942434" data-name="Path 942434" d="M344.193,311.978c-.284-.1-.574-.205-.864-.314v-4.829a5.378,5.378,0,0,1,1.546.861,1.239,1.239,0,0,0,1.624-1.872,7.657,7.657,0,0,0-3.17-1.553v-.931a1.239,1.239,0,1,0-2.478,0v.993a5.025,5.025,0,0,0-.479.159,4.919,4.919,0,0,0-3.069,3.862,3.886,3.886,0,0,0,1.35,3.7,10.467,10.467,0,0,0,2.2,1.271V319.6a4.326,4.326,0,0,1-2.151-.856,1.239,1.239,0,1,0-1.357,2.074,6.676,6.676,0,0,0,3.508,1.269v1.039a1.239,1.239,0,1,0,2.478,0v-1.15a5.566,5.566,0,0,0,4.189-4.471A4.832,4.832,0,0,0,344.193,311.978Zm-4.011-1.872a1.488,1.488,0,0,1-.428-1.388,2.518,2.518,0,0,1,1.1-1.7v3.536A5.863,5.863,0,0,1,340.182,310.106Zm4.893,6.992a3.075,3.075,0,0,1-1.745,2.286V314.3l.038.014a2.4,2.4,0,0,1,1.707,2.783Z" transform="translate(-281.149 -252.196)"/>
    <path id="Path_942435" data-name="Path 942435" d="M121.043,31.386h12.894l4.281,3.944a1.89,1.89,0,0,0,2.563.011l4.366-3.955h12.9a4.548,4.548,0,0,0,4.543-4.543V4.543A4.548,4.548,0,0,0,158.046,0H128.959a1.239,1.239,0,0,0,0,2.478h29.086a2.067,2.067,0,0,1,2.065,2.065v22.3a2.067,2.067,0,0,1-2.065,2.065H144.923a1.9,1.9,0,0,0-1.275.492l-4.14,3.75-4.059-3.74a1.9,1.9,0,0,0-1.287-.5H121.043a2.067,2.067,0,0,1-2.065-2.065V4.543a2.067,2.067,0,0,1,2.065-2.065h2.681a1.239,1.239,0,0,0,0-2.478h-2.681A4.548,4.548,0,0,0,116.5,4.543v22.3A4.548,4.548,0,0,0,121.043,31.386Z" transform="translate(-97.255)"/>
    <path id="Path_942436" data-name="Path 942436" d="M230.721,66.911a5,5,0,1,0,5,5A5.006,5.006,0,0,0,230.721,66.911Zm0,7.518a2.52,2.52,0,1,1,2.524-2.52A2.525,2.525,0,0,1,230.721,74.429Z" transform="translate(-188.432 -55.858)"/>
    <path id="Path_942437" data-name="Path 942437" d="M211.444,37.573a2.039,2.039,0,0,0,.427-2.556l-1.332-2.3a2.042,2.042,0,0,0-2.426-.907l-1.05.361-2.2-1.266-.212-1.087a2.041,2.041,0,0,0-2-1.647h-2.663a2.041,2.041,0,0,0-2,1.647l-.212,1.087-2.2,1.266-1.05-.361a2.042,2.042,0,0,0-2.426.907l-1.332,2.3a2.039,2.039,0,0,0,.428,2.555l.837.727v2.53l-.837.727a2.039,2.039,0,0,0-.427,2.556l1.332,2.3a2.042,2.042,0,0,0,2.426.907l1.05-.361,2.2,1.266.212,1.087a2.041,2.041,0,0,0,2,1.647h2.663a2.04,2.04,0,0,0,2-1.647l.212-1.087,2.2-1.266,1.05.361a2.043,2.043,0,0,0,2.426-.907l1.332-2.3a2.04,2.04,0,0,0-.428-2.556l-.837-.727V38.3Zm-2.614,5,.713.62-.968,1.674-.9-.308a2.038,2.038,0,0,0-1.68.162l-2.543,1.467a2.035,2.035,0,0,0-.982,1.374l-.181.928h-1.938l-.181-.928a2.036,2.036,0,0,0-.981-1.374l-2.543-1.467a2.036,2.036,0,0,0-1.68-.162l-.9.308-.968-1.674.714-.62a2.036,2.036,0,0,0,.7-1.537V38.1a2.035,2.035,0,0,0-.7-1.537l-.714-.62.968-1.674.9.308a2.041,2.041,0,0,0,1.68-.162l2.543-1.467a2.035,2.035,0,0,0,.982-1.374h0l.181-.928h1.938l.181.928a2.036,2.036,0,0,0,.981,1.374L206,34.414a2.037,2.037,0,0,0,1.68.162l.9-.308.968,1.674-.713.62a2.034,2.034,0,0,0-.7,1.537v2.933A2.035,2.035,0,0,0,208.83,42.569Z" transform="translate(-159.036 -23.514)"/>
  </g>
</svg>
