<svg xmlns="http://www.w3.org/2000/svg" width="70" height="70" viewBox="0 0 70 70">
  <g id="Group_1169099" data-name="Group 1169099" transform="translate(-704.668 -6155)">
    <rect id="Rectangle_402033" data-name="Rectangle 402033" width="70" height="70" rx="8" transform="translate(704.668 6155)" fill="#6003fe"/>
    <g id="Page-1" transform="translate(714.082 6164.415)">
      <g id="_016---PC-and-Monitor" data-name="016---PC-and-Monitor">
        <path id="Shape" d="M38.526,18.411V39.733H1V18.411A3.411,3.411,0,0,1,4.411,15h30.7A3.411,3.411,0,0,1,38.526,18.411Z" transform="translate(-0.147 -2.207)" fill="#02a9f4"/>
        <path id="Shape-2" data-name="Shape" d="M38.526,18.411V39.733H1V35.741C24.436,37.754,30.586,21.456,32.1,15h3.019A3.411,3.411,0,0,1,38.526,18.411Z" transform="translate(-0.147 -2.207)" fill="#0377bc"/>
        <path id="Shape-3" data-name="Shape" d="M38.526,44v.853a3.411,3.411,0,0,1-3.411,3.411H4.411A3.411,3.411,0,0,1,1,44.853V44Z" transform="translate(-0.147 -6.474)" fill="#607d8b"/>
        <path id="Shape-4" data-name="Shape" d="M41.411,44v.853A3.411,3.411,0,0,1,38,48.264h2.559a3.411,3.411,0,0,0,3.411-3.411V44Z" transform="translate(-5.591 -6.474)" fill="#37474f"/>
        <path id="Rectangle-path" d="M17,49H27.234v5.117H17Z" transform="translate(-2.501 -7.21)" fill="#607d8b"/>
        <path id="Rectangle-path-2" data-name="Rectangle-path" d="M26,49h2.559v5.117H26Z" transform="translate(-3.826 -7.21)" fill="#37474f"/>
        <path id="Shape-5" data-name="Shape" d="M31.469,56.706a1.706,1.706,0,0,1-1.706,1.706H12.706a1.706,1.706,0,1,1,0-3.411H29.763A1.706,1.706,0,0,1,31.469,56.706Z" transform="translate(-1.619 -8.093)" fill="#607d8b"/>
        <path id="Shape-6" data-name="Shape" d="M32.559,55H30a1.706,1.706,0,1,1,0,3.411h2.559a1.706,1.706,0,0,0,0-3.411Z" transform="translate(-4.414 -8.093)" fill="#37474f"/>
        <path id="Shape-7" data-name="Shape" d="M4.852,23.117a.853.853,0,0,1-.606-1.458l3.411-3.411a.856.856,0,1,1,1.211,1.211L5.458,22.869A.853.853,0,0,1,4.852,23.117Z" transform="translate(-0.588 -2.648)" fill="#f5f5f5"/>
        <path id="Shape-8" data-name="Shape" d="M4.852,28.234a.853.853,0,0,1-.606-1.458l8.529-8.529a.856.856,0,1,1,1.211,1.211L5.458,27.986A.853.853,0,0,1,4.852,28.234Z" transform="translate(-0.588 -2.648)" fill="#f5f5f5"/>
        <path id="Shape-9" data-name="Shape" d="M54.586,2.706V48.76a1.706,1.706,0,0,1-1.706,1.706H32.411a1.706,1.706,0,0,0,0-3.411H29V41.937H39.234a3.411,3.411,0,0,0,3.411-3.411V16.351a3.411,3.411,0,0,0-3.411-3.411H29V2.706A1.706,1.706,0,0,1,30.706,1H52.88A1.706,1.706,0,0,1,54.586,2.706Z" transform="translate(-4.267 -0.147)" fill="#3f51b5"/>
        <path id="Shape-10" data-name="Shape" d="M56.559,1H54a1.706,1.706,0,0,1,1.706,1.706V48.76A1.706,1.706,0,0,1,54,50.466h2.559a1.706,1.706,0,0,0,1.706-1.706V2.706A1.706,1.706,0,0,0,56.559,1Z" transform="translate(-7.946 -0.147)" fill="#283593"/>
        <rect id="Rectangle-path-3" data-name="Rectangle-path" width="19" height="3" rx="1" transform="translate(28 5.171)" fill="#283593"/>
        <circle id="Oval" cx="1.5" cy="1.5" r="1.5" transform="translate(43 13.171)" fill="#ffeb3a"/>
        <ellipse id="Oval-2" data-name="Oval" cx="1.5" cy="2" rx="1.5" ry="2" transform="translate(43 19.171)" fill="#ffeb3a"/>
        <g id="Group_1165398" data-name="Group 1165398">
          <path id="Shape-11" data-name="Shape" d="M48.613,0H26.439A2.559,2.559,0,0,0,23.88,2.559V11.94H4.264A4.264,4.264,0,0,0,0,16.2V38.379a4.264,4.264,0,0,0,4.264,4.264h9.381v3.411H11.087a2.559,2.559,0,1,0,0,5.117H48.613a2.559,2.559,0,0,0,2.559-2.559V2.559A2.559,2.559,0,0,0,48.613,0ZM4.264,13.646h30.7A2.559,2.559,0,0,1,37.526,16.2V36.673H1.706V16.2A2.559,2.559,0,0,1,4.264,13.646ZM1.706,38.379h35.82a2.559,2.559,0,0,1-2.559,2.559H4.264A2.559,2.559,0,0,1,1.706,38.379Zm13.646,4.264H23.88v3.411H15.351Zm11.087,6.823H11.087a.853.853,0,0,1,0-1.706H28.144a.853.853,0,1,1,0,1.706Zm23.027-.853a.853.853,0,0,1-.853.853H30.549a2.559,2.559,0,0,0-2.405-3.411H25.586V42.643h9.381a4.264,4.264,0,0,0,4.264-4.264V16.2a4.264,4.264,0,0,0-4.264-4.264H25.586V2.559a.853.853,0,0,1,.853-.853H48.613a.853.853,0,0,1,.853.853Z"/>
          <path id="Shape-12" data-name="Shape" d="M50.763,5H33.706A1.706,1.706,0,0,0,32,6.706V8.411a1.706,1.706,0,0,0,1.706,1.706H50.763a1.706,1.706,0,0,0,1.706-1.706V6.706A1.706,1.706,0,0,0,50.763,5ZM33.706,8.411V6.706H50.763V8.411Z" transform="translate(-4.709 -0.736)"/>
          <path id="Shape-13" data-name="Shape" d="M51.559,19.117A2.559,2.559,0,1,0,49,16.559,2.559,2.559,0,0,0,51.559,19.117Zm0-3.411a.853.853,0,1,1-.853.853A.853.853,0,0,1,51.559,15.706Z" transform="translate(-7.21 -2.06)"/>
          <path id="Shape-14" data-name="Shape" d="M54.117,24.559a2.559,2.559,0,1,0-2.559,2.559A2.559,2.559,0,0,0,54.117,24.559Zm-2.559.853a.853.853,0,1,1,.853-.853A.853.853,0,0,1,51.559,25.411Z" transform="translate(-7.21 -3.237)"/>
          <path id="Shape-15" data-name="Shape" d="M38.853,52a.853.853,0,0,0-.853.853v1.706a.853.853,0,0,0,1.706,0V52.853A.853.853,0,0,0,38.853,52Z" transform="translate(-5.591 -7.651)"/>
          <path id="Shape-16" data-name="Shape" d="M42.853,52a.853.853,0,0,0-.853.853v1.706a.853.853,0,1,0,1.706,0V52.853A.853.853,0,0,0,42.853,52Z" transform="translate(-6.18 -7.651)"/>
          <path id="Shape-17" data-name="Shape" d="M46.853,52a.853.853,0,0,0-.853.853v1.706a.853.853,0,0,0,1.706,0V52.853A.853.853,0,0,0,46.853,52Z" transform="translate(-6.769 -7.651)"/>
          <path id="Shape-18" data-name="Shape" d="M50.853,52a.853.853,0,0,0-.853.853v1.706a.853.853,0,0,0,1.706,0V52.853A.853.853,0,0,0,50.853,52Z" transform="translate(-7.357 -7.651)"/>
          <path id="Shape-19" data-name="Shape" d="M54.853,52a.853.853,0,0,0-.853.853v1.706a.853.853,0,0,0,1.706,0V52.853A.853.853,0,0,0,54.853,52Z" transform="translate(-7.946 -7.651)"/>
        </g>
      </g>
    </g>
  </g>
</svg>
