<svg xmlns="http://www.w3.org/2000/svg" width="70" height="70" viewBox="0 0 70 70">
  <g id="Group_1169104" data-name="Group 1169104" transform="translate(-269 -958)">
    <circle id="Ellipse_5614" data-name="Ellipse 5614" cx="35" cy="35" r="35" transform="translate(269 958)" fill="#fff"/>
    <g id="XMLID_1031_" transform="translate(275.865 964.865)">
      <g id="XMLID_971_" transform="translate(0 0)">
        <g id="XMLID_977_">
          <path id="XMLID_1030_" d="M50.266,10.763H52a1.1,1.1,0,0,0,0-2.2H47.831a1.1,1.1,0,0,0-1.1,1.1v4.174a1.1,1.1,0,1,0,2.2,0V12.63A25.938,25.938,0,1,1,28.135,2.2a26.329,26.329,0,0,1,3.164.191A1.1,1.1,0,0,0,31.564.207,28.534,28.534,0,0,0,28.135,0,28.135,28.135,0,0,0,8.24,48.029,28.134,28.134,0,0,0,50.266,10.763Z" transform="translate(0 0)" fill="#233993"/>
          <path id="XMLID_1029_" d="M69.933,74.607a1.1,1.1,0,0,0-1.516.34A20.971,20.971,0,1,0,74.982,68.4a1.1,1.1,0,1,0,1.171,1.858,18.783,18.783,0,1,1-3.279,29.181,18.9,18.9,0,0,1-2.6-23.314A1.1,1.1,0,0,0,69.933,74.607Z" transform="translate(-58.02 -58.021)" fill="#233993"/>
          <path id="XMLID_1028_" d="M377.267,248.527h1.354a1.1,1.1,0,1,0,0-2.2h-1.354a1.1,1.1,0,0,0,0,2.2Z" transform="translate(-334.855 -219.276)" fill="#233993"/>
          <path id="XMLID_1004_" d="M103.835,247.1a1.1,1.1,0,0,0,1.1,1.1h1.354a1.1,1.1,0,1,0,0-2.2h-1.354A1.1,1.1,0,0,0,103.835,247.1Z" transform="translate(-92.431 -218.987)" fill="#233993"/>
          <path id="XMLID_1001_" d="M248.527,106.288v-1.354a1.1,1.1,0,1,0-2.2,0v1.354a1.1,1.1,0,1,0,2.2,0Z" transform="translate(-219.276 -92.431)" fill="#233993"/>
          <path id="XMLID_1415_" d="M246.006,377.267v1.354a1.1,1.1,0,1,0,2.2,0v-1.354a1.1,1.1,0,0,0-2.2,0Z" transform="translate(-218.987 -334.855)" fill="#233993"/>
          <path id="XMLID_996_" d="M190.847,158.591a1.1,1.1,0,0,0-1.553,1.553l3.722,3.722a3.784,3.784,0,1,0,6.672,0l7.51-7.51a1.1,1.1,0,0,0-1.553-1.553l-7.51,7.51a3.775,3.775,0,0,0-3.566,0Zm7.092,7.058a1.587,1.587,0,1,1-1.587-1.587A1.589,1.589,0,0,1,197.939,165.649Z" transform="translate(-168.218 -137.514)" fill="#233993"/>
          <path id="XMLID_980_" d="M120.053,120.053a1.1,1.1,0,1,0-.776.322A1.1,1.1,0,0,0,120.053,120.053Z" transform="translate(-105.199 -105.199)" fill="#233993"/>
          <path id="XMLID_979_" d="M316.536,12.075a1.1,1.1,0,1,0-.776-.322A1.1,1.1,0,0,0,316.536,12.075Z" transform="translate(-280.794 -8.793)" fill="#233993"/>
        </g>
      </g>
    </g>
  </g>
</svg>
