<svg id="Group_1169407" data-name="Group 1169407" xmlns="http://www.w3.org/2000/svg" width="82.162" height="82.162" viewBox="0 0 82.162 82.162">
  <path id="Path_942438" data-name="Path 942438" d="M84.753,142.851H10a2.5,2.5,0,0,1-2.5-2.5V94A2.5,2.5,0,0,1,10,91.5H84.753a2.5,2.5,0,0,1,2.5,2.5v46.347A2.5,2.5,0,0,1,84.753,142.851Z" transform="translate(-6.296 -76.817)" fill="#685c79"/>
  <path id="Path_942439" data-name="Path 942439" d="M463.723,91.5h-4.814a2.5,2.5,0,0,1,2.5,2.5v46.347a2.5,2.5,0,0,1-2.5,2.5h4.814a2.5,2.5,0,0,0,2.5-2.5V94A2.5,2.5,0,0,0,463.723,91.5Z" transform="translate(-385.267 -76.817)" fill="#594f69"/>
  <rect id="Rectangle_448743" data-name="Rectangle 448743" width="41.723" height="70.127" transform="translate(76.144 19.497) rotate(90)" fill="#ade7ff"/>
  <path id="Path_942440" data-name="Path 942440" d="M155.809,479.314h-41.4A2.407,2.407,0,0,1,112,476.907h0a2.407,2.407,0,0,1,2.407-2.407h41.4a2.407,2.407,0,0,1,2.407,2.407h0A2.407,2.407,0,0,1,155.809,479.314Z" transform="translate(-94.027 -398.356)" fill="#685c79"/>
  <path id="Path_942441" data-name="Path 942441" d="M359.708,474.5h-4.834a2.407,2.407,0,1,1,0,4.814h4.834a2.407,2.407,0,1,0,0-4.814Z" transform="translate(-297.926 -398.356)" fill="#594f69"/>
  <path id="Path_942442" data-name="Path 942442" d="M191.7,421.61H161.3a12.7,12.7,0,0,0,5.182-10.11h20.028A12.7,12.7,0,0,0,191.7,421.61Z" transform="translate(-135.418 -345.465)" fill="#ade7ff"/>
  <path id="Path_942443" data-name="Path 942443" d="M294.616,411.5h-4.547a12.7,12.7,0,0,0,5.182,10.11H299.8A12.7,12.7,0,0,1,294.616,411.5Z" transform="translate(-243.521 -345.465)" fill="#82d2f5"/>
  <path id="Path_942444" data-name="Path 942444" d="M190.132,152.437v19.628L174.566,179.5,159,172.065V152.437L174.566,145Z" transform="translate(-133.485 -121.731)" fill="#ff2c5c"/>
  <path id="Path_942445" data-name="Path 942445" d="M248.193,152.437l-4.814,2.3-15.219-7.6L232.628,145Z" transform="translate(-191.547 -121.731)" fill="#e62753"/>
  <path id="Path_942446" data-name="Path 942446" d="M174.566,198.78v19.628L159,210.971V191.343Z" transform="translate(-133.485 -160.638)" fill="#4fb1f5"/>
  <path id="Path_942447" data-name="Path 942447" d="M256,198.78v19.628l15.566-7.437V191.343Z" transform="translate(-214.919 -160.638)" fill="#ffd659"/>
  <path id="Path_942448" data-name="Path 942448" d="M327.814,191.343l-4.814,2.3.073,19.593,4.742-2.265Z" transform="translate(-271.167 -160.638)" fill="#ffbd54"/>
  <circle id="Ellipse_13598" data-name="Ellipse 13598" cx="2.407" cy="2.407" r="2.407" transform="translate(60.398 1.204)" fill="#ff2c5c"/>
  <circle id="Ellipse_13599" data-name="Ellipse 13599" cx="2.407" cy="2.407" r="2.407" transform="translate(38.674 1.204)" fill="#ff2c5c"/>
  <circle id="Ellipse_13600" data-name="Ellipse 13600" cx="2.407" cy="2.407" r="2.407" transform="translate(16.95 1.204)" fill="#ff2c5c"/>
  <path id="Path_942449" data-name="Path 942449" d="M78.456,13.48H61.622a1.2,1.2,0,0,0,0,2.407H78.456a1.3,1.3,0,0,1,1.3,1.3V63.532a1.3,1.3,0,0,1-1.3,1.3H3.706a1.3,1.3,0,0,1-1.3-1.3V17.185a1.3,1.3,0,0,1,1.3-1.3H30.149v2.407H6.018a1.2,1.2,0,0,0-1.2,1.2V51.3a1.2,1.2,0,1,0,2.407,0V20.7H30.149v6.457L25,29.619a1.211,1.211,0,0,0-.685,1.086V50.333A1.2,1.2,0,0,0,25,51.42l15.566,7.437a1.218,1.218,0,0,0,1.038,0l8.751-4.181A1.2,1.2,0,1,0,49.313,52.5l-7.028,3.358V38.9l13.159-6.287v16.96l-1.788.854A1.2,1.2,0,0,0,54.693,52.6l2.472-1.181a1.2,1.2,0,0,0,.685-1.086V30.705a1.21,1.21,0,0,0-.685-1.086l-5.152-2.462V20.7H74.941V60.017H7.221V56.433a1.2,1.2,0,0,0-2.407,0V61.22a1.2,1.2,0,0,0,1.2,1.2H76.144a1.2,1.2,0,0,0,1.2-1.2V19.5a1.2,1.2,0,0,0-1.2-1.2H52.013V15.887h4.473a1.2,1.2,0,0,0,0-2.407H52.013V11.073H62.805a1.2,1.2,0,0,0,1.2-1.2V7.014a3.611,3.611,0,1,0-2.407,0V8.666H50.81a1.2,1.2,0,0,0-1.2,1.2V13.48H42.285V7.014a3.611,3.611,0,1,0-2.407,0V13.48H32.556V9.869a1.2,1.2,0,0,0-1.2-1.2H20.561V7.014a3.611,3.611,0,1,0-2.407,0V9.869a1.2,1.2,0,0,0,1.2,1.2H30.149V13.48H3.706A3.71,3.71,0,0,0,0,17.185V63.532a3.71,3.71,0,0,0,3.706,3.706H29.8a11.47,11.47,0,0,1-4.3,7.7H20.38a3.611,3.611,0,0,0,0,7.221h41.4a3.611,3.611,0,0,0,0-7.221H56.671a11.586,11.586,0,0,1-4.307-7.7H78.456a3.71,3.71,0,0,0,3.706-3.706V17.185A3.71,3.71,0,0,0,78.456,13.48ZM62.805,2.407a1.2,1.2,0,1,1-1.2,1.2A1.2,1.2,0,0,1,62.805,2.407Zm-21.724,0a1.2,1.2,0,1,1-1.2,1.2A1.2,1.2,0,0,1,41.081,2.407Zm-21.724,0a1.2,1.2,0,1,1-1.2,1.2A1.2,1.2,0,0,1,19.357,2.407ZM32.556,20.7h7.322V22.51l-7.322,3.5Zm21.3,10-12.774,6.1-12.774-6.1,12.774-6.1ZM26.719,32.614,39.878,38.9v16.96L26.719,49.575Zm22.887-6.607-7.322-3.5V20.7h7.322Zm0-10.121v2.407H42.285V15.887Zm-9.729,0v2.407H32.556V15.887ZM62.986,78.551a1.2,1.2,0,0,1-1.2,1.2H20.38a1.2,1.2,0,0,1,0-2.407h41.4A1.2,1.2,0,0,1,62.986,78.551Zm-9.767-3.611H28.943a13.573,13.573,0,0,0,3.276-7.7H49.943A13.574,13.574,0,0,0,53.219,74.941Z"/>
</svg>
