<svg xmlns="http://www.w3.org/2000/svg" width="70" height="70" viewBox="0 0 70 70">
  <g id="Group_1169107" data-name="Group 1169107" transform="translate(-269 -958)">
    <circle id="Ellipse_5614" data-name="Ellipse 5614" cx="35" cy="35" r="35" transform="translate(269 958)" fill="#fff"/>
    <g id="Group_1172047" data-name="Group 1172047" transform="translate(281.38 970.729)">
      <path id="Path_943335" data-name="Path 943335" d="M41.45,19.807V18.412a2.134,2.134,0,0,0-2.232-2.141,51.865,51.865,0,0,0-7.671.781l-.921.181a8.062,8.062,0,0,0-16-.356c0,.126,0,.244,0,.363a51.454,51.454,0,0,0-8.606-.969A2.169,2.169,0,0,0,3.79,18.433v1.395A3.487,3.487,0,0,0,1,23.245V42.773A3.487,3.487,0,0,0,4.487,46.26H40.752a3.487,3.487,0,0,0,3.487-3.487V23.245A3.487,3.487,0,0,0,41.45,19.807ZM16.022,17.073a6.7,6.7,0,0,1,5.837-5.642,6.974,6.974,0,0,1,.76-.042,6.59,6.59,0,0,1,4.436,1.7,6.667,6.667,0,0,1-.391,10.266,4.742,4.742,0,0,0-1.918,3.78,1,1,0,0,1-.99.99h-.439V23.245a.7.7,0,0,0-.16-.446l-2.539-3.041h3.8l-1.248,1.248a.7.7,0,0,0,.983.983l2.441-2.441a.7.7,0,0,0-.488-1.186H19.133a.7.7,0,0,0-.537,1.144L21.922,23.5v4.631h-.439a1,1,0,0,1-1-1,4.763,4.763,0,0,0-1.925-3.773,6.632,6.632,0,0,1-2.539-6.277ZM5.184,18.433a.774.774,0,0,1,.8-.767,49.969,49.969,0,0,1,8.606.99,7.964,7.964,0,0,0,3.145,5.8,3.382,3.382,0,0,1,1.395,2.678,2.392,2.392,0,0,0,2.351,2.392h2.273a2.4,2.4,0,0,0,2.392-2.413,3.355,3.355,0,0,1,1.395-2.65,7.992,7.992,0,0,0,3.124-5.8l1.158-.23a50.479,50.479,0,0,1,7.427-.76.732.732,0,0,1,.565.223.76.76,0,0,1,.23.551V40.611a.767.767,0,0,1-.732.767,46.168,46.168,0,0,0-16,3.09V32.311h.7a.7.7,0,0,0,0-1.395h-2.79a.7.7,0,0,0,0,1.395h.7V44.474a46.029,46.029,0,0,0-16-3.1.767.767,0,0,1-.739-.767ZM2.395,42.773V23.245A2.092,2.092,0,0,1,3.79,21.278V40.611a2.176,2.176,0,0,0,2.092,2.162,47.891,47.891,0,0,1,12.909,2.092H4.487A2.092,2.092,0,0,1,2.395,42.773Zm40.45,0a2.092,2.092,0,0,1-2.092,2.092H26.441a47.891,47.891,0,0,1,12.916-2.092,2.176,2.176,0,0,0,2.092-2.162V21.258a2.092,2.092,0,0,1,1.395,1.988Z" transform="translate(0 -2.718)" fill="#233993" stroke="#22378d" stroke-width="0.4"/>
      <path id="Path_943336" data-name="Path 943336" d="M10.649,26.391c.921.063,1.848.146,2.755.258h.084a.7.7,0,0,0,.084-1.395c-.928-.112-1.883-.2-2.824-.265a.7.7,0,1,0-.091,1.395Z" transform="translate(-2.724 -7.259)" fill="#233993" stroke="#22378d" stroke-width="0.4"/>
      <path id="Path_943337" data-name="Path 943337" d="M10.649,30.515a50.043,50.043,0,0,1,5.077.593h.119a.7.7,0,0,0,.119-1.395,51.56,51.56,0,0,0-5.217-.614.7.7,0,1,0-.091,1.395Z" transform="translate(-2.724 -8.502)" fill="#233993" stroke="#22378d" stroke-width="0.4"/>
      <path id="Path_943338" data-name="Path 943338" d="M10,36.773a.7.7,0,0,0,.649.739,47.075,47.075,0,0,1,10.991,2,.7.7,0,0,0,.418-1.332,48.533,48.533,0,0,0-11.319-2.092.7.7,0,0,0-.739.683Z" transform="translate(-2.723 -10.617)" fill="#233993" stroke="#22378d" stroke-width="0.4"/>
      <path id="Path_943339" data-name="Path 943339" d="M22.066,43.092A48.539,48.539,0,0,0,10.747,41a.7.7,0,1,0-.091,1.395A47.081,47.081,0,0,1,21.648,44.4a.7.7,0,0,0,.418-1.311Z" transform="translate(-2.724 -12.103)" fill="#233993" stroke="#22378d" stroke-width="0.4"/>
      <path id="Path_943340" data-name="Path 943340" d="M22.066,48.092A48.533,48.533,0,0,0,10.747,46a.7.7,0,1,0-.091,1.395,47.075,47.075,0,0,1,10.984,2.092.729.729,0,1,0,.425-1.395Z" transform="translate(-2.724 -13.616)" fill="#233993" stroke="#22378d" stroke-width="0.4"/>
      <path id="Path_943341" data-name="Path 943341" d="M36.649,39.583a.7.7,0,0,0,.209,0,47.075,47.075,0,0,1,10.991-2.009.7.7,0,0,0-.091-1.395,48.533,48.533,0,0,0-11.319,2.092.705.705,0,1,0,.209,1.395Z" transform="translate(-10.542 -10.645)" fill="#233993" stroke="#22378d" stroke-width="0.4"/>
      <path id="Path_943342" data-name="Path 943342" d="M36.649,44.438a.7.7,0,0,0,.209,0,47.082,47.082,0,0,1,10.991-2.043A.7.7,0,1,0,47.758,41a48.539,48.539,0,0,0-11.319,2.092.705.705,0,1,0,.209,1.395Z" transform="translate(-10.542 -12.103)" fill="#233993" stroke="#22378d" stroke-width="0.4"/>
      <path id="Path_943343" data-name="Path 943343" d="M36.649,49.523a.7.7,0,0,0,.209,0,47.075,47.075,0,0,1,10.991-2.009.7.7,0,0,0-.091-1.395,48.532,48.532,0,0,0-11.319,2.009.705.705,0,1,0,.209,1.395Z" transform="translate(-10.542 -13.652)" fill="#233993" stroke="#22378d" stroke-width="0.4"/>
      <path id="Path_943344" data-name="Path 943344" d="M31.7,5.184a.7.7,0,0,0,.7-.7V1.7A.7.7,0,1,0,31,1.7v2.79A.7.7,0,0,0,31.7,5.184Z" transform="translate(-9.078)" fill="#233993" stroke="#22378d" stroke-width="0.4"/>
      <path id="Path_943345" data-name="Path 943345" d="M38.766,8.486a.7.7,0,0,0,.5-.2l1.974-1.974a.7.7,0,0,0-.983-.983L38.27,7.294a.7.7,0,0,0,.5,1.193Z" transform="translate(-11.215 -1.259)" fill="#233993" stroke="#22378d" stroke-width="0.4"/>
      <path id="Path_943346" data-name="Path 943346" d="M23.294,8.281a.7.7,0,0,0,.983-.983L22.311,5.317a.7.7,0,0,0-.983.983Z" transform="translate(-6.1 -1.256)" fill="#233993" stroke="#22378d" stroke-width="0.4"/>
    </g>
  </g>
</svg>
