<svg xmlns="http://www.w3.org/2000/svg" width="50.266" height="46.625" viewBox="0 0 50.266 46.625">
  <g id="Group_1172050" data-name="Group 1172050" transform="translate(0.134 -2.194)">
    <g id="Group_1172049" data-name="Group 1172049" transform="translate(0 2.295)">
      <path id="Path_943375" data-name="Path 943375" d="M49.819,43.782a1.573,1.573,0,0,0-1.437-1H47.5V18.142a3.024,3.024,0,0,0-3.023-3.016H44.4a10.5,10.5,0,0,0,.242-1.484.763.763,0,0,0-.2-.586.744.744,0,0,0-.578-.234l-.656.023a.472.472,0,0,1-.336-.125.445.445,0,0,1-.148-.328.482.482,0,0,1,.453-.492l.656-.023a.756.756,0,0,0,.711-.883,10.4,10.4,0,0,0-2.312-5.008.779.779,0,0,0-.562-.273.8.8,0,0,0-.578.258l-.445.484a.47.47,0,0,1-.664.031.487.487,0,0,1-.031-.672l.445-.484a.747.747,0,0,0,.2-.594.771.771,0,0,0-.312-.539A10.42,10.42,0,0,0,35.1,2.3a.715.715,0,0,0-.586.211.76.76,0,0,0-.234.578l.023.656a.482.482,0,0,1-.453.492.477.477,0,0,1-.492-.453l-.023-.656a.756.756,0,0,0-.883-.711,10.471,10.471,0,0,0-5.008,2.312.779.779,0,0,0-.273.562.767.767,0,0,0,.242.578l.484.445a.484.484,0,0,1,.156.328.452.452,0,0,1-.125.336A.469.469,0,0,1,27.265,7l-.484-.445a.763.763,0,0,0-1.133.117,10.43,10.43,0,0,0-1.906,5.18.741.741,0,0,0,.211.586.8.8,0,0,0,.578.234l.656-.023a.472.472,0,0,1,.336.125.469.469,0,0,1-.3.812l-.656.023a.756.756,0,0,0-.711.883c.039.219.078.437.133.648H5.515A3.017,3.017,0,0,0,2.5,18.158V42.8H1.609a1.56,1.56,0,0,0-1.422.992,2.08,2.08,0,0,0,.3,2.2l1.6,1.8a2.678,2.678,0,0,0,1.977.93H45.936a2.7,2.7,0,0,0,1.977-.937L49.5,45.993a2.085,2.085,0,0,0,.32-2.211Zm-5.344-27.14a1.507,1.507,0,0,1,1.508,1.5v2.016l-4.8-.078a.754.754,0,0,0-.219-.453l-.484-.445a.445.445,0,0,1-.148-.328.452.452,0,0,1,.125-.336.463.463,0,0,1,.664-.023l.484.445a.747.747,0,0,0,.594.2.771.771,0,0,0,.539-.312,10.274,10.274,0,0,0,1.18-2.172h.555Zm-17.8-2.2a2,2,0,0,0-1.3-3.336,8.812,8.812,0,0,1,1.055-2.867,1.986,1.986,0,0,0,2.672-2.9,8.879,8.879,0,0,1,2.773-1.281A1.986,1.986,0,0,0,35.3,5.088,1.988,1.988,0,0,0,35.819,3.9a8.812,8.812,0,0,1,2.867,1.055,1.988,1.988,0,0,0,2.9,2.68,8.879,8.879,0,0,1,1.281,2.773,1.99,1.99,0,0,0,.164,3.945,8.994,8.994,0,0,1-1.055,2.867,2.063,2.063,0,0,0-1.242-.375,1.986,1.986,0,0,0-1.383.641,1.965,1.965,0,0,0-.523,1.422,1.925,1.925,0,0,0,.469,1.2,8.879,8.879,0,0,1-2.773,1.281,1.977,1.977,0,0,0-.609-1.141,1.953,1.953,0,0,0-1.422-.523,2,2,0,0,0-1.906,1.828A8.994,8.994,0,0,1,29.718,20.5a2,2,0,0,0,.375-1.242,1.99,1.99,0,0,0-3.273-1.437,8.879,8.879,0,0,1-1.281-2.773,1.968,1.968,0,0,0,1.141-.6Zm-21.164,2.2H24.468a10.5,10.5,0,0,0,1.7,2.836.779.779,0,0,0,.562.273.8.8,0,0,0,.57-.242l.445-.484a.445.445,0,0,1,.328-.148.452.452,0,0,1,.336.125.441.441,0,0,1,.148.32.452.452,0,0,1-.125.336l-.445.484c-.008.008-.008.023-.016.031H4.015V18.142a1.5,1.5,0,0,1,1.5-1.5Zm-1.5,5.047H28.741a10.4,10.4,0,0,0,4.547,1.492h.063a.761.761,0,0,0,.758-.789l-.023-.656a.467.467,0,0,1,.453-.484.494.494,0,0,1,.336.125.445.445,0,0,1,.148.328l.023.656a.756.756,0,0,0,.883.711,10.368,10.368,0,0,0,3.906-1.5l6.148.1V42.782H30.937a.762.762,0,0,0-.578.266L29.32,44.267h-8.64l-1.031-1.219a.75.75,0,0,0-.578-.266H4.015ZM48.382,44.97h0L46.8,46.759a1.2,1.2,0,0,1-.852.437H4.062a1.173,1.173,0,0,1-.844-.43l-1.6-1.789a.543.543,0,0,1-.094-.414,1.014,1.014,0,0,1,.086-.258H18.718l1.031,1.219a.75.75,0,0,0,.578.266h9.336a.762.762,0,0,0,.578-.266l1.039-1.219L46.71,44.3c.008,0,.016.008.023.008s.016-.008.023-.008H48.35a.42.42,0,0,1,.117.258.511.511,0,0,1-.086.414Z" transform="translate(0 -2.295)" fill="#6003fe" stroke="#6003fe" stroke-width="0.2"/>
      <path id="Path_943376" data-name="Path 943376" d="M40.551,19.191a5.282,5.282,0,0,0,4.055-.234,5.309,5.309,0,1,0-4.055.234Zm-1.844-6.25a3.788,3.788,0,0,1,7.156,2.484,3.783,3.783,0,0,1-4.812,2.336,3.794,3.794,0,0,1-2.344-4.82Z" transform="translate(-8.091 -3.734)" fill="#6003fe" stroke="#6003fe" stroke-width="0.2"/>
      <path id="Path_943377" data-name="Path 943377" d="M9.568,36.361h9.156v1.117a.771.771,0,0,0,.453.7.71.71,0,0,0,.3.063.764.764,0,0,0,.508-.2L23.9,34.5a.758.758,0,0,0,0-1.125l-3.914-3.531a.757.757,0,0,0-1.266.562v1.117H9.568a.754.754,0,0,0-.758.758v3.328a.757.757,0,0,0,.758.75Zm10.679-4.25,2.023,1.828-2.023,1.828Zm-9.922.922h8.406v1.812H10.326Z" transform="translate(-1.927 -8.279)" fill="#6003fe" stroke="#6003fe" stroke-width="0.2"/>
      <path id="Path_943378" data-name="Path 943378" d="M22.888,48.438a.771.771,0,0,0,.453.7.71.71,0,0,0,.3.063.764.764,0,0,0,.508-.2l3.914-3.539a.758.758,0,0,0,0-1.125l-3.914-3.531a.757.757,0,0,0-1.266.562v1.109H9.568a.754.754,0,0,0-.758.758v3.336a.754.754,0,0,0,.758.758h13.32ZM26.435,44.9l-2.023,1.828V43.079Zm-16.109.914v-1.82H22.888v1.82Z" transform="translate(-1.927 -10.677)" fill="#6003fe" stroke="#6003fe" stroke-width="0.2"/>
    </g>
  </g>
</svg>
