<svg xmlns="http://www.w3.org/2000/svg" width="100" height="100" viewBox="0 0 100 100">
  <g id="Group_1169118" data-name="Group 1169118" transform="translate(-637 -6992)">
    <g id="Group_1098742" data-name="Group 1098742" transform="translate(637.242 6992)">
      <rect id="Rectangle_400898" data-name="Rectangle 400898" width="100" height="100" rx="50" transform="translate(-0.242)" fill="#fff" opacity="0.859"/>
      <g id="Rectangle_400907" data-name="Rectangle 400907" transform="translate(-0.242)" fill="none" stroke="#00bdff" stroke-linecap="round" stroke-width="3" stroke-dasharray="0 7">
        <rect width="100" height="100" rx="50" stroke="none"/>
        <rect x="1.5" y="1.5" width="97" height="97" rx="48.5" fill="none"/>
      </g>
    </g>
    <g id="Group_1107006" data-name="Group 1107006" transform="translate(645.109 7000.157)">
      <rect id="Rectangle_400898-2" data-name="Rectangle 400898" width="84" height="84" rx="42" transform="translate(-0.399 -0.157)" fill="#6003fe" opacity="0.859"/>
      <rect id="Rectangle_400907-2" data-name="Rectangle 400907" width="84" height="84" rx="42" transform="translate(-0.398 -0.157)" fill="none"/>
    </g>
    <g id="Group_1172048" data-name="Group 1172048" transform="translate(655.286 7003.061)">
      <path id="Path_943347" data-name="Path 943347" d="M112.268,196.132H100.03l1.582-6.6.368-1.531h8.339l.368,1.531Z" transform="translate(-74.436 -135.935)" fill="#72c2e9"/>
      <path id="Path_943348" data-name="Path 943348" d="M116.334,189.531H107.26l.368-1.531h8.339Z" transform="translate(-80.084 -135.935)" fill="#4ba5c8"/>
      <rect id="Rectangle_448744" data-name="Rectangle 448744" width="52.832" height="37.518" rx="3" transform="translate(5.297 14.547)" fill="#72c2e9"/>
      <path id="Path_943349" data-name="Path 943349" d="M0,0H30.955V46.269H0Z" transform="translate(54.847 17.828) rotate(90)" fill="#efefef"/>
      <path id="Path_943350" data-name="Path 943350" d="M69.359,55.333v10.3l-2.57-.195.394,5.18,1.49-1.49.687.687v4.325a1.094,1.094,0,0,1-1.094,1.094h-24.5a1.094,1.094,0,0,1-1.094-1.094V55.324a1.094,1.094,0,0,1,1.094-1.094h24.5a1.094,1.094,0,0,1,1.094,1.1Z" transform="translate(-29.624 -31.429)" fill="#f0c020"/>
      <path id="Path_943351" data-name="Path 943351" d="M150.022,100.192l-2.57-.195.394,5.18,1.49-1.49.687.687v2.168l-.687-.689-.407.407a1.531,1.531,0,0,1-2.61-.967l-.394-5.176a1.531,1.531,0,0,1,1.643-1.643l2.455.186Z" transform="translate(-110.287 -65.991)" fill="#e8a61e"/>
      <path id="Path_943352" data-name="Path 943352" d="M90.007,54.27H70.5l1.359,3.222a1.094,1.094,0,0,0,1.006.656H91.1V55.364A1.094,1.094,0,0,0,90.007,54.27Z" transform="translate(-51.366 -31.46)" fill="#fb5e3d"/>
      <path id="Path_943353" data-name="Path 943353" d="M71.066,65.549H31.36a.547.547,0,1,1,0-1.094H70.519V37.547a.547.547,0,1,1,1.094,0V65A.547.547,0,0,1,71.066,65.549Zm-41.894,0H28.3a.547.547,0,0,1,0-1.094h.875a.547.547,0,0,1,0,1.094Z" transform="translate(-17.968 -17.968)" fill="#fff"/>
      <rect id="Rectangle_448745" data-name="Rectangle 448745" width="21.037" height="3.135" rx="1.567" transform="translate(21.195 60.197)" fill="#72c2e9"/>
      <rect id="Rectangle_448746" data-name="Rectangle 448746" width="4.916" height="4.916" rx="2.458" transform="translate(45.331 22.81)" fill="#fb5e3d"/>
      <rect id="Rectangle_448747" data-name="Rectangle 448747" width="4.916" height="4.916" rx="2.458" transform="translate(45.331 30.849)" fill="#13bf6d"/>
      <rect id="Rectangle_448748" data-name="Rectangle 448748" width="4.916" height="4.916" rx="2.458" transform="translate(45.331 38.889)" fill="#f0c020"/>
      <path id="Path_943354" data-name="Path 943354" d="M159.065,109.786l-1.809,1.809-1.765-1.768-.687-.687-1.49,1.49-.394-5.18,2.571.195,2.61.2-1.488,1.49Z" transform="translate(-115.755 -71.444)" fill="#efefef"/>
      <rect id="Rectangle_448749" data-name="Rectangle 448749" width="16.189" height="6.34" rx="3" transform="translate(18.296 29.423)" fill="#efefef"/>
      <path id="Path_943355" data-name="Path 943355" d="M58.676,16.735A2.739,2.739,0,0,0,55.941,14H7.485A2.739,2.739,0,0,0,4.75,16.735V49.878a2.739,2.739,0,0,0,2.735,2.735h7.782a.547.547,0,1,0,0-1.094H7.485a1.647,1.647,0,0,1-1.641-1.641V16.735a1.647,1.647,0,0,1,1.641-1.641H55.941a1.647,1.647,0,0,1,1.641,1.641V49.878a1.647,1.647,0,0,1-1.641,1.641h-36.3a.547.547,0,0,0,0,1.094h7.219L25.174,59.65H22.768a2.115,2.115,0,0,0,0,4.229h17.9a2.115,2.115,0,0,0,0-4.229H38.265l-1.687-7.038H55.943a2.739,2.739,0,0,0,2.735-2.735ZM40.665,60.744a1.022,1.022,0,0,1,0,2.041h-17.9a1.022,1.022,0,0,1,0-2.041ZM37.138,59.65H26.288l1.687-7.038h7.477Z" transform="translate(0 0)"/>
      <circle id="Ellipse_13601" data-name="Ellipse 13601" cx="0.547" cy="0.547" r="0.547" transform="translate(16.907 51.518)"/>
      <circle id="Ellipse_13602" data-name="Ellipse 13602" cx="0.547" cy="0.547" r="0.547" transform="translate(54.301 25.376)"/>
      <path id="Path_943356" data-name="Path 943356" d="M67.113,29.547A.545.545,0,0,0,66.566,29H20.3a.549.549,0,0,0-.547.547V60.5a.547.547,0,0,0,.547.547H66.566a.545.545,0,0,0,.547-.547V39.829a.547.547,0,0,0-1.094,0V59.955H20.844V30.094H66.019v5.36a.547.547,0,0,0,1.094,0Z" transform="translate(-11.719 -11.718)"/>
      <path id="Path_943357" data-name="Path 943357" d="M193.76,53.411a1.641,1.641,0,0,0-1.641-1.641h-2.728a1.641,1.641,0,0,0-1.641,1.641v2.726a1.641,1.641,0,0,0,1.641,1.641h2.728a1.641,1.641,0,0,0,1.641-1.641Zm-1.094,2.726a.547.547,0,0,1-.547.547h-2.728a.547.547,0,0,1-.547-.547V53.411a.547.547,0,0,1,.547-.547h2.728a.547.547,0,0,1,.547.547Z" transform="translate(-142.966 -29.507)"/>
      <path id="Path_943358" data-name="Path 943358" d="M193.76,90.141a1.641,1.641,0,0,0-1.641-1.641h-2.728a1.641,1.641,0,0,0-1.641,1.641v2.726a1.641,1.641,0,0,0,1.641,1.641h2.728a1.641,1.641,0,0,0,1.641-1.641Zm-1.094,2.726a.547.547,0,0,1-.547.547h-2.728a.547.547,0,0,1-.547-.547V90.141a.547.547,0,0,1,.547-.547h2.728a.547.547,0,0,1,.547.547Z" transform="translate(-142.966 -58.202)"/>
      <path id="Path_943359" data-name="Path 943359" d="M192.119,125.27h-2.728a1.641,1.641,0,0,0-1.641,1.641v2.726a1.641,1.641,0,0,0,1.641,1.641h2.728a1.641,1.641,0,0,0,1.641-1.641v-2.726A1.641,1.641,0,0,0,192.119,125.27Zm.547,4.375a.547.547,0,0,1-.547.547h-2.728a.547.547,0,0,1-.547-.547v-2.735a.547.547,0,0,1,.547-.547h2.728a.547.547,0,0,1,.547.547Z" transform="translate(-142.966 -86.928)"/>
      <path id="Path_943360" data-name="Path 943360" d="M54.247,64H52.8a.547.547,0,0,0,0,1.094h1.45a.547.547,0,0,0,0-1.094Z" transform="translate(-37.109 -39.062)"/>
      <path id="Path_943361" data-name="Path 943361" d="M66.313,51.77h-24.5a1.641,1.641,0,0,0-1.641,1.641V72.225a1.641,1.641,0,0,0,1.641,1.641h24.5a1.641,1.641,0,0,0,1.641-1.641V69.212l.831.833a.549.549,0,0,0,.774,0l1.809-1.809a.551.551,0,0,0,0-.774L69.3,65.4,70.395,64.3a.547.547,0,0,0-.346-.932l-2.1-.16v-9.8a1.641,1.641,0,0,0-1.632-1.641Zm0,1.094a.547.547,0,0,1,.547.547v2.238H49.17a.547.547,0,0,1-.505-.328l-1.037-2.45Zm.547,19.352a.547.547,0,0,1-.547.547h-24.5a.547.547,0,0,1-.547-.547V53.4a.547.547,0,0,1,.547-.547h4.631l1.219,2.877a1.634,1.634,0,0,0,1.509,1H66.859v6.375l-1.982-.149a.545.545,0,0,0-.586.586l.394,5.18a.547.547,0,0,0,.932.346l1.094-1.094.14.14Zm1.93-7.854-.656.656a.551.551,0,0,0,0,.774L70.2,67.858l-1.026,1.026L67.8,67.508l-.687-.687a.549.549,0,0,0-.774,0l-.656.656-.256-3.358Z" transform="translate(-27.671 -29.507)"/>
      <path id="Path_943362" data-name="Path 943362" d="M80.249,82H65.373a1.205,1.205,0,0,0-1.2,1.2v5.032a1.2,1.2,0,0,0,1.2,1.2H80.249a1.2,1.2,0,0,0,1.2-1.2V83.2A1.205,1.205,0,0,0,80.249,82Zm.109,6.23a.109.109,0,0,1-.109.109H65.373a.109.109,0,0,1-.109-.109V83.2a.109.109,0,0,1,.109-.109H80.249a.109.109,0,0,1,.109.109Z" transform="translate(-46.421 -53.124)"/>
      <path id="Path_943363" data-name="Path 943363" d="M68.044,123.5H64.717a.547.547,0,1,0,0,1.094h3.327a.547.547,0,0,0,0-1.094Z" transform="translate(-46.421 -85.545)"/>
      <path id="Path_943364" data-name="Path 943364" d="M68.044,134.63H64.717a.547.547,0,1,0,0,1.094h3.327a.547.547,0,1,0,0-1.094Z" transform="translate(-46.421 -94.24)"/>
      <path id="Path_943365" data-name="Path 943365" d="M97.442,123.5H94.117a.547.547,0,0,0,0,1.094h3.325a.547.547,0,0,0,0-1.094Z" transform="translate(-69.389 -85.545)"/>
      <path id="Path_943366" data-name="Path 943366" d="M97.442,134.63H94.117a.547.547,0,1,0,0,1.094h3.325a.547.547,0,1,0,0-1.094Z" transform="translate(-69.389 -94.24)"/>
      <path id="Path_943367" data-name="Path 943367" d="M126.834,123.5h-3.327a.547.547,0,1,0,0,1.094h3.327a.547.547,0,1,0,0-1.094Z" transform="translate(-92.35 -85.545)"/>
      <path id="Path_943368" data-name="Path 943368" d="M126.834,134.63h-3.327a.547.547,0,1,0,0,1.094h3.327a.547.547,0,1,0,0-1.094Z" transform="translate(-92.35 -94.24)"/>
      <path id="Path_943369" data-name="Path 943369" d="M91.83,102.1a.547.547,0,1,0,.774,0A.567.567,0,0,0,91.83,102.1Z" transform="translate(-67.905 -68.71)"/>
      <path id="Path_943370" data-name="Path 943370" d="M101.33,102.1a.547.547,0,1,0,.774,0A.567.567,0,0,0,101.33,102.1Z" transform="translate(-75.327 -68.71)"/>
      <path id="Path_943371" data-name="Path 943371" d="M110.83,102.1a.547.547,0,1,0,.774,0A.567.567,0,0,0,110.83,102.1Z" transform="translate(-82.748 -68.71)"/>
      <path id="Path_943372" data-name="Path 943372" d="M151.107,61.724h.109a.547.547,0,1,0,0-1.094h-.109a.547.547,0,1,0,0,1.094Z" transform="translate(-113.912 -36.429)"/>
      <path id="Path_943373" data-name="Path 943373" d="M139.547,61.724h.109a.547.547,0,1,0,0-1.094h-.109a.547.547,0,1,0,0,1.094Z" transform="translate(-104.881 -36.429)"/>
      <path id="Path_943374" data-name="Path 943374" d="M127.987,61.724h.109a.547.547,0,1,0,0-1.094h-.109a.547.547,0,1,0,0,1.094Z" transform="translate(-95.85 -36.429)"/>
    </g>
  </g>
</svg>
