<svg xmlns="http://www.w3.org/2000/svg" width="50.205" height="55.948" viewBox="0 0 50.205 55.948">
  <g id="Group_1172052" data-name="Group 1172052" transform="translate(-0.395 0.101)">
    <path id="Path_943397" data-name="Path 943397" d="M13.935,44.069a19.721,19.721,0,0,1,10.3-35.836V9.981a1.4,1.4,0,0,0,2.185,1.153L32.7,6.842a1.4,1.4,0,0,0,0-2.306L26.422.244A1.4,1.4,0,0,0,24.237,1.4V3.176a24.692,24.692,0,0,0-12.2,3.8.818.818,0,0,0,.874,1.382A23.057,23.057,0,0,1,24.236,4.812V6.593A21.357,21.357,0,0,0,12.994,45.406a.89.89,0,0,1-1.011,1.465,23.149,23.149,0,0,1-1.62-36.645A.818.818,0,1,0,9.31,8.976a24.786,24.786,0,0,0,1.734,39.233,2.525,2.525,0,0,0,2.891-4.141ZM25.872,1.849l5.613,3.84-5.613,3.84Zm0,0" fill="#6003fe" stroke="#6003fe" stroke-width="0.2"/>
    <path id="Path_943398" data-name="Path 943398" d="M180.624,65.517a2.535,2.535,0,0,0-3.966,2.142,2.507,2.507,0,0,0,1.075,2,19.72,19.72,0,0,1-10.3,35.835v-1.748a1.4,1.4,0,0,0-2.185-1.153l-6.274,4.292a1.4,1.4,0,0,0,0,2.306c6.855,4.689,6.474,4.537,7.062,4.537a1.4,1.4,0,0,0,1.4-1.4v-1.78a24.771,24.771,0,0,0,13.193-45.032ZM165.8,111.876l-5.613-3.839,5.613-3.84Zm1.637-2.963v-1.782a21.357,21.357,0,0,0,11.241-38.812.884.884,0,0,1-.381-.706.9.9,0,0,1,1.392-.759,23.137,23.137,0,0,1-12.252,42.059Zm0,0" transform="translate(-140.674 -57.98)" fill="#6003fe" stroke="#6003fe" stroke-width="0.2"/>
    <path id="Path_943399" data-name="Path 943399" d="M124.232,189.321l-2.183-2.91a3.543,3.543,0,1,0-5.669,4.252l4,5.328a4.212,4.212,0,0,0,6.054.714L139.3,186.031a3.543,3.543,0,1,0-4.523-5.455Zm14.276-7.235a1.907,1.907,0,0,1-.251,2.687l-12.871,10.674a2.577,2.577,0,0,1-3.7-.436l-4-5.328a1.908,1.908,0,0,1,3.053-2.29l2.7,3.6a.818.818,0,0,0,1.176.139l11.206-9.293a1.91,1.91,0,0,1,2.687.251Zm0,0" transform="translate(-102.63 -160.19)" fill="#6003fe" stroke="#6003fe" stroke-width="0.2"/>
  </g>
</svg>
