<svg xmlns="http://www.w3.org/2000/svg" width="50.2" height="50.2" viewBox="0 0 50.2 50.2">
  <g id="Group_1172153" data-name="Group 1172153" transform="translate(0.1 0.1)">
    <g id="Group_1172056" data-name="Group 1172056">
      <g id="Group_1172055" data-name="Group 1172055">
        <path id="Path_943414" data-name="Path 943414" d="M47.5,15A2.5,2.5,0,0,0,50,12.5V2.5A2.5,2.5,0,0,0,47.5,0H2.5A2.5,2.5,0,0,0,0,2.5v10A2.5,2.5,0,0,0,2.5,15H5v2.5H2.5A2.5,2.5,0,0,0,0,20V30a2.5,2.5,0,0,0,2.5,2.5H5V35H2.5A2.5,2.5,0,0,0,0,37.5v10A2.5,2.5,0,0,0,2.5,50h45A2.5,2.5,0,0,0,50,47.5v-10A2.5,2.5,0,0,0,47.5,35H45V32.5h2.5A2.5,2.5,0,0,0,50,30V20a2.5,2.5,0,0,0-2.5-2.5H45V15Zm0,21.667a.833.833,0,0,1,.833.833v10a.833.833,0,0,1-.833.833H2.5a.833.833,0,0,1-.833-.833v-10a.833.833,0,0,1,.833-.833ZM6.667,35V32.5H8.333V35ZM10,35V32.5H40V35Zm31.667,0V32.5h1.667V35ZM47.5,19.167a.833.833,0,0,1,.833.833V30a.833.833,0,0,1-.833.833H2.5A.833.833,0,0,1,1.667,30V20a.833.833,0,0,1,.833-.833ZM6.667,17.5V15H8.333v2.5ZM10,17.5V15H40v2.5Zm31.667,0V15h1.667v2.5ZM2.5,13.333a.833.833,0,0,1-.833-.833V2.5A.833.833,0,0,1,2.5,1.667h45a.833.833,0,0,1,.833.833v10a.833.833,0,0,1-.833.833Z" fill="#6003fe" stroke="#6003fe" stroke-width="0.2"/>
      </g>
    </g>
    <g id="Group_1172058" data-name="Group 1172058" transform="translate(4.989 4.999)">
      <g id="Group_1172057" data-name="Group 1172057">
        <path id="Path_943415" data-name="Path 943415" d="M69.572,49.661H52.752a2.5,2.5,0,1,0,0,1.667h16.82a.833.833,0,1,0,0-1.667ZM50.405,51.328a.833.833,0,1,1,.833-.833A.833.833,0,0,1,50.405,51.328Z" transform="translate(-47.894 -47.994)" fill="#6003fe" stroke="#6003fe" stroke-width="0.2"/>
      </g>
    </g>
    <g id="Group_1172060" data-name="Group 1172060" transform="translate(36.667 3.333)">
      <g id="Group_1172059" data-name="Group 1172059">
        <rect id="Rectangle_448751" data-name="Rectangle 448751" width="1.667" height="1.667" fill="#6003fe" stroke="#6003fe" stroke-width="0.2"/>
      </g>
    </g>
    <g id="Group_1172062" data-name="Group 1172062" transform="translate(40 3.333)">
      <g id="Group_1172061" data-name="Group 1172061">
        <rect id="Rectangle_448752" data-name="Rectangle 448752" width="1.667" height="1.667" fill="#6003fe" stroke="#6003fe" stroke-width="0.2"/>
      </g>
    </g>
    <g id="Group_1172064" data-name="Group 1172064" transform="translate(43.333 3.333)">
      <g id="Group_1172063" data-name="Group 1172063">
        <rect id="Rectangle_448753" data-name="Rectangle 448753" width="1.667" height="1.667" fill="#6003fe" stroke="#6003fe" stroke-width="0.2"/>
      </g>
    </g>
    <g id="Group_1172066" data-name="Group 1172066" transform="translate(33.333 3.333)">
      <g id="Group_1172065" data-name="Group 1172065">
        <rect id="Rectangle_448754" data-name="Rectangle 448754" width="1.667" height="1.667" fill="#6003fe" stroke="#6003fe" stroke-width="0.2"/>
      </g>
    </g>
    <g id="Group_1172068" data-name="Group 1172068" transform="translate(30 3.333)">
      <g id="Group_1172067" data-name="Group 1172067">
        <rect id="Rectangle_448755" data-name="Rectangle 448755" width="1.667" height="1.667" fill="#6003fe" stroke="#6003fe" stroke-width="0.2"/>
      </g>
    </g>
    <g id="Group_1172070" data-name="Group 1172070" transform="translate(36.667 6.667)">
      <g id="Group_1172069" data-name="Group 1172069">
        <rect id="Rectangle_448756" data-name="Rectangle 448756" width="1.667" height="1.667" fill="#6003fe" stroke="#6003fe" stroke-width="0.2"/>
      </g>
    </g>
    <g id="Group_1172072" data-name="Group 1172072" transform="translate(40 6.667)">
      <g id="Group_1172071" data-name="Group 1172071">
        <rect id="Rectangle_448757" data-name="Rectangle 448757" width="1.667" height="1.667" fill="#6003fe" stroke="#6003fe" stroke-width="0.2"/>
      </g>
    </g>
    <g id="Group_1172074" data-name="Group 1172074" transform="translate(43.333 6.667)">
      <g id="Group_1172073" data-name="Group 1172073">
        <rect id="Rectangle_448758" data-name="Rectangle 448758" width="1.667" height="1.667" fill="#6003fe" stroke="#6003fe" stroke-width="0.2"/>
      </g>
    </g>
    <g id="Group_1172076" data-name="Group 1172076" transform="translate(33.333 6.667)">
      <g id="Group_1172075" data-name="Group 1172075">
        <rect id="Rectangle_448759" data-name="Rectangle 448759" width="1.667" height="1.667" fill="#6003fe" stroke="#6003fe" stroke-width="0.2"/>
      </g>
    </g>
    <g id="Group_1172078" data-name="Group 1172078" transform="translate(30 6.667)">
      <g id="Group_1172077" data-name="Group 1172077">
        <rect id="Rectangle_448760" data-name="Rectangle 448760" width="1.667" height="1.667" fill="#6003fe" stroke="#6003fe" stroke-width="0.2"/>
      </g>
    </g>
    <g id="Group_1172080" data-name="Group 1172080" transform="translate(36.667 10)">
      <g id="Group_1172079" data-name="Group 1172079">
        <rect id="Rectangle_448761" data-name="Rectangle 448761" width="1.667" height="1.667" fill="#6003fe" stroke="#6003fe" stroke-width="0.2"/>
      </g>
    </g>
    <g id="Group_1172082" data-name="Group 1172082" transform="translate(40 10)">
      <g id="Group_1172081" data-name="Group 1172081">
        <rect id="Rectangle_448762" data-name="Rectangle 448762" width="1.667" height="1.667" fill="#6003fe" stroke="#6003fe" stroke-width="0.2"/>
      </g>
    </g>
    <g id="Group_1172084" data-name="Group 1172084" transform="translate(43.333 10)">
      <g id="Group_1172083" data-name="Group 1172083">
        <rect id="Rectangle_448763" data-name="Rectangle 448763" width="1.667" height="1.667" fill="#6003fe" stroke="#6003fe" stroke-width="0.2"/>
      </g>
    </g>
    <g id="Group_1172086" data-name="Group 1172086" transform="translate(33.333 10)">
      <g id="Group_1172085" data-name="Group 1172085">
        <rect id="Rectangle_448764" data-name="Rectangle 448764" width="1.667" height="1.667" fill="#6003fe" stroke="#6003fe" stroke-width="0.2"/>
      </g>
    </g>
    <g id="Group_1172088" data-name="Group 1172088" transform="translate(30 10)">
      <g id="Group_1172087" data-name="Group 1172087">
        <rect id="Rectangle_448765" data-name="Rectangle 448765" width="1.667" height="1.667" fill="#6003fe" stroke="#6003fe" stroke-width="0.2"/>
      </g>
    </g>
    <g id="Group_1172090" data-name="Group 1172090" transform="translate(4.989 22.499)">
      <g id="Group_1172089" data-name="Group 1172089">
        <path id="Path_943416" data-name="Path 943416" d="M69.572,217.661H52.752a2.5,2.5,0,1,0,0,1.667h16.82a.833.833,0,1,0,0-1.667Zm-19.167,1.667a.833.833,0,1,1,.833-.833A.833.833,0,0,1,50.405,219.328Z" transform="translate(-47.894 -215.994)" fill="#6003fe" stroke="#6003fe" stroke-width="0.2"/>
      </g>
    </g>
    <g id="Group_1172092" data-name="Group 1172092" transform="translate(36.667 20.833)">
      <g id="Group_1172091" data-name="Group 1172091">
        <rect id="Rectangle_448766" data-name="Rectangle 448766" width="1.667" height="1.667" fill="#6003fe" stroke="#6003fe" stroke-width="0.2"/>
      </g>
    </g>
    <g id="Group_1172094" data-name="Group 1172094" transform="translate(40 20.833)">
      <g id="Group_1172093" data-name="Group 1172093">
        <rect id="Rectangle_448767" data-name="Rectangle 448767" width="1.667" height="1.667" fill="#6003fe" stroke="#6003fe" stroke-width="0.2"/>
      </g>
    </g>
    <g id="Group_1172096" data-name="Group 1172096" transform="translate(43.333 20.833)">
      <g id="Group_1172095" data-name="Group 1172095">
        <rect id="Rectangle_448768" data-name="Rectangle 448768" width="1.667" height="1.667" fill="#6003fe" stroke="#6003fe" stroke-width="0.2"/>
      </g>
    </g>
    <g id="Group_1172098" data-name="Group 1172098" transform="translate(33.333 20.833)">
      <g id="Group_1172097" data-name="Group 1172097">
        <rect id="Rectangle_448769" data-name="Rectangle 448769" width="1.667" height="1.667" fill="#6003fe" stroke="#6003fe" stroke-width="0.2"/>
      </g>
    </g>
    <g id="Group_1172100" data-name="Group 1172100" transform="translate(30 20.833)">
      <g id="Group_1172099" data-name="Group 1172099">
        <rect id="Rectangle_448770" data-name="Rectangle 448770" width="1.667" height="1.667" fill="#6003fe" stroke="#6003fe" stroke-width="0.2"/>
      </g>
    </g>
    <g id="Group_1172102" data-name="Group 1172102" transform="translate(36.667 24.167)">
      <g id="Group_1172101" data-name="Group 1172101">
        <rect id="Rectangle_448771" data-name="Rectangle 448771" width="1.667" height="1.667" fill="#6003fe" stroke="#6003fe" stroke-width="0.2"/>
      </g>
    </g>
    <g id="Group_1172104" data-name="Group 1172104" transform="translate(40 24.167)">
      <g id="Group_1172103" data-name="Group 1172103">
        <rect id="Rectangle_448772" data-name="Rectangle 448772" width="1.667" height="1.667" fill="#6003fe" stroke="#6003fe" stroke-width="0.2"/>
      </g>
    </g>
    <g id="Group_1172106" data-name="Group 1172106" transform="translate(43.333 24.167)">
      <g id="Group_1172105" data-name="Group 1172105">
        <rect id="Rectangle_448773" data-name="Rectangle 448773" width="1.667" height="1.667" fill="#6003fe" stroke="#6003fe" stroke-width="0.2"/>
      </g>
    </g>
    <g id="Group_1172108" data-name="Group 1172108" transform="translate(33.333 24.167)">
      <g id="Group_1172107" data-name="Group 1172107">
        <rect id="Rectangle_448774" data-name="Rectangle 448774" width="1.667" height="1.667" fill="#6003fe" stroke="#6003fe" stroke-width="0.2"/>
      </g>
    </g>
    <g id="Group_1172110" data-name="Group 1172110" transform="translate(30 24.167)">
      <g id="Group_1172109" data-name="Group 1172109">
        <rect id="Rectangle_448775" data-name="Rectangle 448775" width="1.667" height="1.667" fill="#6003fe" stroke="#6003fe" stroke-width="0.2"/>
      </g>
    </g>
    <g id="Group_1172112" data-name="Group 1172112" transform="translate(36.667 27.5)">
      <g id="Group_1172111" data-name="Group 1172111">
        <rect id="Rectangle_448776" data-name="Rectangle 448776" width="1.667" height="1.667" fill="#6003fe" stroke="#6003fe" stroke-width="0.2"/>
      </g>
    </g>
    <g id="Group_1172114" data-name="Group 1172114" transform="translate(40 27.5)">
      <g id="Group_1172113" data-name="Group 1172113">
        <rect id="Rectangle_448777" data-name="Rectangle 448777" width="1.667" height="1.667" fill="#6003fe" stroke="#6003fe" stroke-width="0.2"/>
      </g>
    </g>
    <g id="Group_1172116" data-name="Group 1172116" transform="translate(43.333 27.5)">
      <g id="Group_1172115" data-name="Group 1172115">
        <rect id="Rectangle_448778" data-name="Rectangle 448778" width="1.667" height="1.667" fill="#6003fe" stroke="#6003fe" stroke-width="0.2"/>
      </g>
    </g>
    <g id="Group_1172118" data-name="Group 1172118" transform="translate(33.333 27.5)">
      <g id="Group_1172117" data-name="Group 1172117">
        <rect id="Rectangle_448779" data-name="Rectangle 448779" width="1.667" height="1.667" fill="#6003fe" stroke="#6003fe" stroke-width="0.2"/>
      </g>
    </g>
    <g id="Group_1172120" data-name="Group 1172120" transform="translate(30 27.5)">
      <g id="Group_1172119" data-name="Group 1172119">
        <rect id="Rectangle_448780" data-name="Rectangle 448780" width="1.667" height="1.667" fill="#6003fe" stroke="#6003fe" stroke-width="0.2"/>
      </g>
    </g>
    <g id="Group_1172122" data-name="Group 1172122" transform="translate(4.989 39.999)">
      <g id="Group_1172121" data-name="Group 1172121">
        <path id="Path_943417" data-name="Path 943417" d="M69.572,385.661H52.752a2.5,2.5,0,1,0,0,1.667h16.82a.833.833,0,0,0,0-1.667Zm-19.167,1.667a.833.833,0,1,1,.833-.833A.833.833,0,0,1,50.405,387.328Z" transform="translate(-47.894 -383.994)" fill="#6003fe" stroke="#6003fe" stroke-width="0.2"/>
      </g>
    </g>
    <g id="Group_1172124" data-name="Group 1172124" transform="translate(36.667 38.333)">
      <g id="Group_1172123" data-name="Group 1172123">
        <rect id="Rectangle_448781" data-name="Rectangle 448781" width="1.667" height="1.667" fill="#6003fe" stroke="#6003fe" stroke-width="0.2"/>
      </g>
    </g>
    <g id="Group_1172126" data-name="Group 1172126" transform="translate(40 38.333)">
      <g id="Group_1172125" data-name="Group 1172125">
        <rect id="Rectangle_448782" data-name="Rectangle 448782" width="1.667" height="1.667" fill="#6003fe" stroke="#6003fe" stroke-width="0.2"/>
      </g>
    </g>
    <g id="Group_1172128" data-name="Group 1172128" transform="translate(43.333 38.333)">
      <g id="Group_1172127" data-name="Group 1172127">
        <rect id="Rectangle_448783" data-name="Rectangle 448783" width="1.667" height="1.667" fill="#6003fe" stroke="#6003fe" stroke-width="0.2"/>
      </g>
    </g>
    <g id="Group_1172130" data-name="Group 1172130" transform="translate(33.333 38.333)">
      <g id="Group_1172129" data-name="Group 1172129">
        <rect id="Rectangle_448784" data-name="Rectangle 448784" width="1.667" height="1.667" fill="#6003fe" stroke="#6003fe" stroke-width="0.2"/>
      </g>
    </g>
    <g id="Group_1172132" data-name="Group 1172132" transform="translate(30 38.333)">
      <g id="Group_1172131" data-name="Group 1172131">
        <rect id="Rectangle_448785" data-name="Rectangle 448785" width="1.667" height="1.667" fill="#6003fe" stroke="#6003fe" stroke-width="0.2"/>
      </g>
    </g>
    <g id="Group_1172134" data-name="Group 1172134" transform="translate(36.667 41.667)">
      <g id="Group_1172133" data-name="Group 1172133">
        <rect id="Rectangle_448786" data-name="Rectangle 448786" width="1.667" height="1.667" fill="#6003fe" stroke="#6003fe" stroke-width="0.2"/>
      </g>
    </g>
    <g id="Group_1172136" data-name="Group 1172136" transform="translate(40 41.667)">
      <g id="Group_1172135" data-name="Group 1172135">
        <rect id="Rectangle_448787" data-name="Rectangle 448787" width="1.667" height="1.667" fill="#6003fe" stroke="#6003fe" stroke-width="0.2"/>
      </g>
    </g>
    <g id="Group_1172138" data-name="Group 1172138" transform="translate(43.333 41.667)">
      <g id="Group_1172137" data-name="Group 1172137">
        <rect id="Rectangle_448788" data-name="Rectangle 448788" width="1.667" height="1.667" fill="#6003fe" stroke="#6003fe" stroke-width="0.2"/>
      </g>
    </g>
    <g id="Group_1172140" data-name="Group 1172140" transform="translate(33.333 41.667)">
      <g id="Group_1172139" data-name="Group 1172139">
        <rect id="Rectangle_448789" data-name="Rectangle 448789" width="1.667" height="1.667" fill="#6003fe" stroke="#6003fe" stroke-width="0.2"/>
      </g>
    </g>
    <g id="Group_1172142" data-name="Group 1172142" transform="translate(30 41.667)">
      <g id="Group_1172141" data-name="Group 1172141">
        <rect id="Rectangle_448790" data-name="Rectangle 448790" width="1.667" height="1.667" fill="#6003fe" stroke="#6003fe" stroke-width="0.2"/>
      </g>
    </g>
    <g id="Group_1172144" data-name="Group 1172144" transform="translate(36.667 45)">
      <g id="Group_1172143" data-name="Group 1172143">
        <rect id="Rectangle_448791" data-name="Rectangle 448791" width="1.667" height="1.667" fill="#6003fe" stroke="#6003fe" stroke-width="0.2"/>
      </g>
    </g>
    <g id="Group_1172146" data-name="Group 1172146" transform="translate(40 45)">
      <g id="Group_1172145" data-name="Group 1172145">
        <rect id="Rectangle_448792" data-name="Rectangle 448792" width="1.667" height="1.667" fill="#6003fe" stroke="#6003fe" stroke-width="0.2"/>
      </g>
    </g>
    <g id="Group_1172148" data-name="Group 1172148" transform="translate(43.333 45)">
      <g id="Group_1172147" data-name="Group 1172147">
        <rect id="Rectangle_448793" data-name="Rectangle 448793" width="1.667" height="1.667" fill="#6003fe" stroke="#6003fe" stroke-width="0.2"/>
      </g>
    </g>
    <g id="Group_1172150" data-name="Group 1172150" transform="translate(33.333 45)">
      <g id="Group_1172149" data-name="Group 1172149">
        <rect id="Rectangle_448794" data-name="Rectangle 448794" width="1.667" height="1.667" fill="#6003fe" stroke="#6003fe" stroke-width="0.2"/>
      </g>
    </g>
    <g id="Group_1172152" data-name="Group 1172152" transform="translate(30 45)">
      <g id="Group_1172151" data-name="Group 1172151">
        <rect id="Rectangle_448795" data-name="Rectangle 448795" width="1.667" height="1.667" fill="#6003fe" stroke="#6003fe" stroke-width="0.2"/>
      </g>
    </g>
  </g>
</svg>
