<svg xmlns="http://www.w3.org/2000/svg" width="124" height="124" viewBox="0 0 124 124">
  <g id="Group_1158584" data-name="Group 1158584" transform="translate(-1234.5 -458)">
    <g id="Ellipse_12108" data-name="Ellipse 12108" transform="translate(1241.5 465)" fill="#00bdff" stroke="rgba(255,255,255,0.4)" stroke-width="7">
      <circle cx="55" cy="55" r="55" stroke="none"/>
      <circle cx="55" cy="55" r="58.5" fill="none"/>
    </g>
    <path id="Path_943418" data-name="Path 943418" d="M68.864,63.54H2.945A2.949,2.949,0,0,0,0,66.485v41.954a2.949,2.949,0,0,0,2.945,2.945H31.6a16.837,16.837,0,0,1-1.609,4.458H24.745a.842.842,0,1,0,0,1.683H47.064a.842.842,0,1,0,0-1.683H41.823a16.841,16.841,0,0,1-1.609-4.458h28.65a2.949,2.949,0,0,0,2.945-2.945V66.485a2.949,2.949,0,0,0-2.945-2.945Zm-28.931,52.3H31.877a20.3,20.3,0,0,0,1.441-4.458h5.173a20.312,20.312,0,0,0,1.441,4.458Zm30.194-7.4a1.264,1.264,0,0,1-1.262,1.262H2.945a1.264,1.264,0,0,1-1.262-1.262V66.485a1.264,1.264,0,0,1,1.262-1.262H68.864a1.264,1.264,0,0,1,1.262,1.262ZM51.536,71.831a22.106,22.106,0,0,1,0,31.262.842.842,0,1,1-1.19-1.19,20.423,20.423,0,0,0,0-28.882.842.842,0,0,1,1.19-1.19Zm.1,15.631a15.632,15.632,0,0,1-4.609,11.126.841.841,0,1,1-1.19-1.19,14.052,14.052,0,0,0,0-19.872.842.842,0,0,1,1.19-1.19A15.632,15.632,0,0,1,51.639,87.462ZM21.463,101.9a.842.842,0,0,1-1.19,1.19,22.106,22.106,0,0,1,0-31.262.842.842,0,1,1,1.19,1.19,20.423,20.423,0,0,0,0,28.882Zm4.505-24.377a14.052,14.052,0,0,0,0,19.872.842.842,0,1,1-1.19,1.19,15.735,15.735,0,0,1,0-22.253.842.842,0,0,1,1.19,1.19Zm17.766,3.612H28.075a1.343,1.343,0,0,0-1.341,1.341v9.966a1.343,1.343,0,0,0,1.341,1.341H43.734a1.343,1.343,0,0,0,1.341-1.341V82.479A1.343,1.343,0,0,0,43.734,81.138ZM43.392,92.1H28.416V82.821H43.392ZM33.142,90.9a.842.842,0,0,0,.842,0l4.684-2.7a.842.842,0,0,0,0-1.458l-4.684-2.7a.842.842,0,0,0-1.262.729v5.409a.841.841,0,0,0,.421.729Zm1.262-4.68,2.16,1.247L34.4,88.71Z" transform="translate(1260.595 429.467)" fill="#233993"/>
  </g>
</svg>
