<svg xmlns="http://www.w3.org/2000/svg" width="124" height="124" viewBox="0 0 124 124">
  <g id="Group_1113092" data-name="Group 1113092" transform="translate(-1234.5 -458)">
    <g id="Ellipse_12108" data-name="Ellipse 12108" transform="translate(1241.5 465)" fill="#00bdff" stroke="rgba(255,255,255,0.4)" stroke-width="7">
      <circle cx="55" cy="55" r="55" stroke="none"/>
      <circle cx="55" cy="55" r="58.5" fill="none"/>
    </g>
    <g id="migrating" transform="translate(1261.237 484.738)">
      <path id="Path_927236" data-name="Path 927236" d="M41.435,31a4.435,4.435,0,1,0,4.435,4.435A4.435,4.435,0,0,0,41.435,31Zm0,6.653a2.218,2.218,0,1,1,2.218-2.218A2.218,2.218,0,0,1,41.435,37.653Z" transform="translate(3.806 3.154)" fill="#233993"/>
      <path id="Path_927237" data-name="Path 927237" d="M61.873,21.958h-1.2a6.231,6.231,0,0,0,.089-1.109A7.77,7.77,0,0,0,53,13.088a7.65,7.65,0,0,0-4.557,1.486,12.183,12.183,0,0,0-5.455-3.238,7.772,7.772,0,0,0-7.728-7.118A7.65,7.65,0,0,0,30.706,5.7a12.2,12.2,0,0,0-20.9,7.384H8.653a6.653,6.653,0,0,0,0,13.305H20.128a6.635,6.635,0,0,0,6.264,8.87h9.846l-.133.033a1.109,1.109,0,0,0-.843,1.075V37.48H7.544A3.309,3.309,0,0,0,4.583,39.3a3.4,3.4,0,0,0-.366,1.508V61.873H3.242a1.109,1.109,0,0,0-1.087,1.3l.51,2.838a.4.4,0,0,0,.022.122,3.35,3.35,0,0,0,3.193,2.395H44.687a3.35,3.35,0,0,0,3.193-2.395.4.4,0,0,0,.022-.122l.51-2.838a1.109,1.109,0,0,0-1.087-1.3H46.35V48.568h1.109a1.109,1.109,0,0,0,1.075-.843l.188-.743.654.4a1.109,1.109,0,0,0,1.353-.166l3.138-3.138a1.109,1.109,0,0,0,.166-1.353l-.4-.654.743-.188a1.109,1.109,0,0,0,.843-1.076V36.372a1.109,1.109,0,0,0-.843-1.075l-.133-.033h7.628a6.653,6.653,0,1,0,0-13.305ZM21.448,24.175H8.653a4.435,4.435,0,0,1,0-8.87H10.87A1.109,1.109,0,0,0,11.979,14.2,9.979,9.979,0,0,1,29.73,7.943a1.132,1.132,0,0,0,.809.41,1.109,1.109,0,0,0,.832-.322A5.535,5.535,0,0,1,40.7,10.926c-.333-.033-.665-.055-1-.055A12.218,12.218,0,0,0,27.546,21.958H26.393A6.653,6.653,0,0,0,21.448,24.175ZM6.435,40.807a1.18,1.18,0,0,1,.122-.5,1.1,1.1,0,0,1,.987-.61H35.263v1.109a1.109,1.109,0,0,0,.843,1.075l.743.188-.4.654a1.109,1.109,0,0,0,.166,1.353l3.138,3.138a1.109,1.109,0,0,0,1.353.166l.654-.4.188.743a1.109,1.109,0,0,0,1.076.843h1.109V61.873H28.61A1.109,1.109,0,0,0,27.5,62.982H23.066a1.109,1.109,0,0,0-1.109-1.109H6.435ZM45.74,65.554a1.124,1.124,0,0,1-1.053.754H5.881a1.124,1.124,0,0,1-1.053-.754L4.572,64.09H20.849A1.109,1.109,0,0,0,21.958,65.2H28.61a1.109,1.109,0,0,0,1.109-1.109H46ZM53,39.942l-1.353.333a1.117,1.117,0,0,0-.754.654,1.13,1.13,0,0,0,.067,1l.721,1.2-1.907,1.907-1.2-.721a1.13,1.13,0,0,0-1-.067,1.117,1.117,0,0,0-.654.754l-.333,1.353H43.889L43.556,45a1.117,1.117,0,0,0-.654-.754,1.13,1.13,0,0,0-1,.067l-1.2.721L38.8,43.124l.721-1.2a1.13,1.13,0,0,0,.067-1,1.117,1.117,0,0,0-.754-.654l-1.353-.333V37.236l1.353-.333a1.117,1.117,0,0,0,.754-.654,1.13,1.13,0,0,0-.067-1l-.721-1.2,1.907-1.907,1.2.71a1.1,1.1,0,0,0,1,.078,1.117,1.117,0,0,0,.654-.754l.333-1.353h2.705l.333,1.353a1.116,1.116,0,0,0,.654.754,1.1,1.1,0,0,0,1-.078l1.2-.71,1.907,1.907-.721,1.2a1.13,1.13,0,0,0-.067,1,1.116,1.116,0,0,0,.754.654L53,37.236Zm8.87-6.9H53.812L50.73,29.963a1.109,1.109,0,0,0-1.353-.166l-.654.4-.188-.743a1.109,1.109,0,0,0-1.075-.843H43.024a1.109,1.109,0,0,0-1.075.843l-.188.743-.654-.4a1.109,1.109,0,0,0-1.353.166l-3.082,3.082H26.393a4.435,4.435,0,1,1,0-8.87H28.61a1.109,1.109,0,0,0,1.109-1.109A9.979,9.979,0,0,1,47.47,16.813a1.132,1.132,0,0,0,.809.41,1.109,1.109,0,0,0,.832-.322,5.544,5.544,0,0,1,9.436,3.947,5.766,5.766,0,0,1-.322,1.852,1.124,1.124,0,0,0,.133,1.009,1.14,1.14,0,0,0,.909.466h2.606a4.435,4.435,0,1,1,0,8.87Z" transform="translate(0 0)" fill="#233993"/>
      <path id="Path_927238" data-name="Path 927238" d="M56.2,47.305a3.326,3.326,0,0,1-3.326,3.326H44v2.218h8.87a5.55,5.55,0,0,0,5.544-5.544V34H56.2Z" transform="translate(4.568 3.48)" fill="#233993"/>
      <rect id="Rectangle_441859" data-name="Rectangle 441859" width="1.807" height="1.807" transform="translate(24.245 49.893)" fill="#233993"/>
      <rect id="Rectangle_441860" data-name="Rectangle 441860" width="1.807" height="1.807" transform="translate(28.764 49.893)" fill="#233993"/>
      <rect id="Rectangle_441861" data-name="Rectangle 441861" width="1.807" height="1.807" transform="translate(19.727 49.893)" fill="#233993"/>
    </g>
  </g>
</svg>
