<svg xmlns="http://www.w3.org/2000/svg" width="124" height="124" viewBox="0 0 124 124">
  <g id="Group_1158585" data-name="Group 1158585" transform="translate(-1234.5 -458)">
    <g id="Ellipse_12108" data-name="Ellipse 12108" transform="translate(1241.5 465)" fill="#00bdff" stroke="rgba(255,255,255,0.4)" stroke-width="7">
      <circle cx="55" cy="55" r="55" stroke="none"/>
      <circle cx="55" cy="55" r="58.5" fill="none"/>
    </g>
    <g id="Group_1172154" data-name="Group 1172154" transform="translate(1263.968 473.652)">
      <path id="Path_943419" data-name="Path 943419" d="M64.11,147.633H62.53V113.991a6.244,6.244,0,0,0-6.237-6.237h-7.1a.955.955,0,1,0,0,1.909h7.1a4.333,4.333,0,0,1,4.328,4.328v33.642H39.284a1.964,1.964,0,0,0-1.625.86l-.286.421a1.426,1.426,0,0,1-1.18.624H28.744a1.426,1.426,0,0,1-1.18-.624l-.286-.42a1.964,1.964,0,0,0-1.625-.86H4.443V113.991a4.333,4.333,0,0,1,4.328-4.328h6.147a.954.954,0,0,0,0-1.909H8.771a6.244,6.244,0,0,0-6.237,6.237v33.642H.954a.954.954,0,0,0-.954.955v1.987a6.523,6.523,0,0,0,6.516,6.516H58.548a6.523,6.523,0,0,0,6.516-6.516v-1.987A.954.954,0,0,0,64.11,147.633Zm-.954,2.942a4.612,4.612,0,0,1-4.607,4.607H6.516a4.612,4.612,0,0,1-4.607-4.607v-1.033H25.653a.057.057,0,0,1,.047.025l.286.421a3.333,3.333,0,0,0,2.758,1.459h7.449a3.333,3.333,0,0,0,2.758-1.459l.286-.421h0a.057.057,0,0,1,.047-.025H63.155v1.033Z" transform="translate(0 -80.224)" fill="#233993"/>
      <path id="Path_943420" data-name="Path 943420" d="M51.915,172.441a.954.954,0,0,0,.954.954h49.941a.954.954,0,0,0,.954-.954V141.917a2.167,2.167,0,0,0-2.164-2.164H94.5a.954.954,0,0,0,0,1.909h7.1a.256.256,0,0,1,.255.255v29.569H88.01v-3.9a7.709,7.709,0,0,0-2.273-5.487l-1.243-1.243a7.877,7.877,0,0,0,1-2.261.955.955,0,0,0-1.846-.487,5.974,5.974,0,0,1-1.136,2.238l-.011.013a6.006,6.006,0,1,1,1.014-5.76.954.954,0,1,0,1.8-.626,7.914,7.914,0,1,0-14.129,6.879L69.943,162.1a7.708,7.708,0,0,0-2.273,5.487v3.9H53.824v-3.5a.954.954,0,0,0-1.909,0Zm17.664-4.852a5.812,5.812,0,0,1,1.714-4.137l1.122-1.122a7.9,7.9,0,0,0,10.853,0l1.12,1.119a5.812,5.812,0,0,1,1.714,4.137v3.9H69.579Z" transform="translate(-45.308 -108.151)" fill="#233993"/>
      <path id="Path_943421" data-name="Path 943421" d="M52.869,164.873a.954.954,0,0,0,.954-.954v-22a.255.255,0,0,1,.255-.255h6.148a.954.954,0,0,0,0-1.909H54.079a2.167,2.167,0,0,0-2.164,2.164v22A.954.954,0,0,0,52.869,164.873Z" transform="translate(-45.308 -108.151)" fill="#233993"/>
      <path id="Path_943422" data-name="Path 943422" d="M143.874,38.491H164.12a4.154,4.154,0,0,0,4.149-4.149V19.981a4.154,4.154,0,0,0-4.149-4.15H143.874a4.154,4.154,0,0,0-4.149,4.15v2a.954.954,0,0,0,1.909,0v-2a2.243,2.243,0,0,1,2.24-2.241H164.12a2.243,2.243,0,0,1,2.24,2.241V34.341a2.243,2.243,0,0,1-2.24,2.24H143.874a2.243,2.243,0,0,1-2.24-2.24V26.051a.954.954,0,0,0-1.909,0v8.291a4.154,4.154,0,0,0,4.149,4.149Z" transform="translate(-121.943)" fill="#233993"/>
      <path id="Path_943423" data-name="Path 943423" d="M214.953,70.2a2.457,2.457,0,0,0,1.247-.344l5.871-3.449a2.463,2.463,0,0,0,0-4.247L216.2,58.711a2.463,2.463,0,0,0-3.71,2.123v6.9a2.472,2.472,0,0,0,2.463,2.467Zm-.554-9.366a.544.544,0,0,1,.279-.481.571.571,0,0,1,.278-.075.541.541,0,0,1,.277.078l5.871,3.449a.554.554,0,0,1,0,.955l-5.871,3.449a.554.554,0,0,1-.834-.478v-6.9Z" transform="translate(-185.447 -37.123)" fill="#233993"/>
    </g>
  </g>
</svg>
