<svg xmlns="http://www.w3.org/2000/svg" xmlns:xlink="http://www.w3.org/1999/xlink" width="270" height="166.699" viewBox="0 0 270 166.699">
  <defs>
    <clipPath id="clip-path">
      <rect id="Rectangle_448420" data-name="Rectangle 448420" width="143.019" height="143.221" fill="none"/>
    </clipPath>
  </defs>
  <g id="Group_1169208" data-name="Group 1169208" transform="translate(-1019.711 -1651.301)">
    <path id="Rectangle_447435" data-name="Rectangle 447435" d="M10,0H260a10,10,0,0,1,10,10V98a0,0,0,0,1,0,0H0a0,0,0,0,1,0,0V10A10,10,0,0,1,10,0Z" transform="translate(1019.711 1720)" fill="#6003fe"/>
    <g id="Group_1172023" data-name="Group 1172023" transform="translate(1078.479 1651.301)">
      <g id="Group_1169093" data-name="Group 1169093" clip-path="url(#clip-path)">
        <path id="Path_940552" data-name="Path 940552" d="M142.782,89.387a45.065,45.065,0,0,1-3.365,12.865,57.275,57.275,0,0,1-10.178,15.768A77.81,77.81,0,0,1,84.76,142.145c-30.074,4.792-63.645-10.352-77.949-39.893Q6,100.571,5.267,98.828C-3.443,78-.741,55.643,8.9,37.891a70.251,70.251,0,0,1,16.078-19.98C42.328,3.159,71.724-6.07,87.475,4.656c10.237,6.972,5.953,16.408,20.913,31.464,11.86,11.936,19.175,10.661,26.791,21.661,9.214,13.311,7.9,28.748,7.6,31.605" transform="translate(0 0)" fill="#caddff"/>
        <path id="Path_940553" data-name="Path 940553" d="M161.255,899.49a5.773,5.773,0,0,1-3.228-10.559.258.258,0,1,1,.289.428,5.256,5.256,0,1,0,2.938-.9,5.337,5.337,0,0,0-.8.06.258.258,0,1,1-.078-.511,5.839,5.839,0,0,1,.879-.066,5.772,5.772,0,1,1,0,11.545" transform="translate(-143.314 -818.452)" fill="#99b9ff"/>
        <path id="Path_940554" data-name="Path 940554" d="M304.554,963.187h-8.438a.258.258,0,1,1,0-.517h8.438a.258.258,0,0,1,0,.517" transform="translate(-272.702 -887.329)" fill="#99b9ff"/>
        <path id="Path_940555" data-name="Path 940555" d="M43.185,918.742H38.674a.258.258,0,1,1,0-.517h4.253v-3.334a.259.259,0,0,1,.258-.259h3.23a.259.259,0,0,1,.183.076l1.713,1.713a.258.258,0,1,1-.365.366l-1.637-1.637H43.443v3.334a.259.259,0,0,1-.259.259" transform="translate(-35.409 -843.05)" fill="#99b9ff"/>
        <path id="Path_940556" data-name="Path 940556" d="M272.1,860.062a.258.258,0,0,1-.183-.441l3.847-3.846a.259.259,0,0,1,.183-.076h5.03a.258.258,0,1,1,0,.517h-4.923l-3.771,3.771a.258.258,0,0,1-.183.076" transform="translate(-250.565 -788.729)" fill="#99b9ff"/>
        <path id="Path_940557" data-name="Path 940557" d="M335.392,1066.178h-3.871a.258.258,0,0,1,0-.517h3.871a.258.258,0,0,1,0,.517" transform="translate(-305.337 -982.259)" fill="#99b9ff"/>
        <path id="Path_940558" data-name="Path 940558" d="M270.805,1020.272a.258.258,0,0,1-.183-.076l-3.243-3.243a.258.258,0,0,1,.365-.365l3.243,3.243a.259.259,0,0,1-.183.441" transform="translate(-246.384 -936.956)" fill="#99b9ff"/>
        <path id="Path_940559" data-name="Path 940559" d="M169.116,862.162a.258.258,0,0,1-.183-.076l-2.611-2.611a.258.258,0,1,1,.365-.365l2.611,2.611a.259.259,0,0,1-.183.441" transform="translate(-153.236 -791.804)" fill="#99b9ff"/>
        <path id="Path_940560" data-name="Path 940560" d="M58.169,1117.406a.259.259,0,0,1-.114-.027l-38.8-19.184a.259.259,0,0,1-.068-.414l4.467-4.478v-7.214a.258.258,0,0,1,.517,0v7.321a.258.258,0,0,1-.076.183l-4.288,4.3,38.476,19.025a.258.258,0,0,1-.115.49" transform="translate(-17.616 -1000.851)" fill="#99b9ff"/>
        <path id="Path_940561" data-name="Path 940561" d="M134.037,999.553a.259.259,0,0,1-.183-.441l2.562-2.562a.258.258,0,1,1,.365.365l-2.562,2.562a.257.257,0,0,1-.183.076" transform="translate(-123.309 -918.487)" fill="#99b9ff"/>
        <path id="Path_940562" data-name="Path 940562" d="M80.733,1182.8a.257.257,0,0,1-.183-.076l-2.562-2.562a.258.258,0,0,1,.365-.366l2.562,2.562a.258.258,0,0,1-.183.441" transform="translate(-71.815 -1087.397)" fill="#99b9ff"/>
        <path id="Path_940563" data-name="Path 940563" d="M282.215,820.211a.258.258,0,0,1-.183-.076L278.9,817a.258.258,0,1,1,.365-.365l3.137,3.136a.258.258,0,0,1-.183.441" transform="translate(-256.999 -752.651)" fill="#99b9ff"/>
        <path id="Path_940564" data-name="Path 940564" d="M38.934,805.06a.257.257,0,0,1-.183-.076l-2.775-2.774a.258.258,0,0,1,.365-.365l2.775,2.774a.258.258,0,0,1-.183.441" transform="translate(-33.092 -739.02)" fill="#99b9ff"/>
        <path id="Path_940565" data-name="Path 940565" d="M127.674,854.615h-2.889a.258.258,0,1,1,0-.517h2.889a.258.258,0,1,1,0,.517" transform="translate(-114.78 -787.254)" fill="#99b9ff"/>
        <path id="Path_940566" data-name="Path 940566" d="M32.268,752.843a.258.258,0,0,1-.258-.258V748.63a.259.259,0,0,1,.441-.183l3.286,3.286a.258.258,0,0,1-.365.365l-2.845-2.845v3.331a.258.258,0,0,1-.258.258" transform="translate(-29.504 -689.802)" fill="#99b9ff"/>
        <path id="Path_940567" data-name="Path 940567" d="M114.288,1144.867a.258.258,0,0,1-.258-.258v-6.078a.258.258,0,0,1,.517,0v6.078a.259.259,0,0,1-.258.258" transform="translate(-105.106 -1049.187)" fill="#99b9ff"/>
        <path id="Path_940568" data-name="Path 940568" d="M274.855,611.347a.259.259,0,0,1-.232-.371l8.306-17.139a.258.258,0,0,1,.465.226L275.087,611.2a.258.258,0,0,1-.233.146" transform="translate(-253.106 -547.227)" fill="#99b9ff"/>
        <path id="Path_940569" data-name="Path 940569" d="M292.273,959.67a.585.585,0,1,1,.585-.585.585.585,0,0,1-.585.585" transform="translate(-268.86 -883.485)" fill="#5479f7"/>
        <path id="Path_940570" data-name="Path 940570" d="M405.427,959.67a.585.585,0,1,1,.585-.585.585.585,0,0,1-.585.585" transform="translate(-373.158 -883.485)" fill="#5479f7"/>
        <path id="Path_940571" data-name="Path 940571" d="M155.635,933.516a.585.585,0,1,1,.585-.585.585.585,0,0,1-.585.585" transform="translate(-142.915 -859.378)" fill="#5479f7"/>
        <path id="Path_940572" data-name="Path 940572" d="M132.327,911.633a.585.585,0,1,1,.585-.585.585.585,0,0,1-.585.585" transform="translate(-121.431 -839.207)" fill="#5479f7"/>
        <path id="Path_940573" data-name="Path 940573" d="M92.475,911.633a.585.585,0,1,1,.585-.585.585.585,0,0,1-.585.585" transform="translate(-84.698 -839.207)" fill="#5479f7"/>
        <path id="Path_940574" data-name="Path 940574" d="M92.475,957.09a.585.585,0,1,1,.585-.585.585.585,0,0,1-.585.585" transform="translate(-84.698 -881.107)" fill="#5479f7"/>
        <path id="Path_940575" data-name="Path 940575" d="M268.255,901.847a.585.585,0,1,1,.585-.585.585.585,0,0,1-.585.585" transform="translate(-246.721 -830.187)" fill="#5479f7"/>
        <path id="Path_940576" data-name="Path 940576" d="M387.029,845.043a1.3,1.3,0,1,1,1.3-1.3,1.3,1.3,0,0,1-1.3,1.3" transform="translate(-355.538 -776.505)" fill="#5479f7"/>
        <path id="Path_940577" data-name="Path 940577" d="M382.491,1052.232a1.3,1.3,0,1,0,1.3,1.3,1.3,1.3,0,0,0-1.3-1.3" transform="translate(-351.355 -969.881)" fill="#5479f7"/>
        <path id="Path_940578" data-name="Path 940578" d="M262.917,1011.976a.585.585,0,1,1,.585-.585.585.585,0,0,1-.585.585" transform="translate(-241.801 -931.697)" fill="#5479f7"/>
        <path id="Path_940579" data-name="Path 940579" d="M196.021,889.393a.585.585,0,1,1,.585-.585.585.585,0,0,1-.585.585" transform="translate(-180.141 -818.708)" fill="#5479f7"/>
        <path id="Path_940580" data-name="Path 940580" d="M314.868,1063.038a.585.585,0,1,1,.585-.585.585.585,0,0,1-.585.585" transform="translate(-289.686 -978.763)" fill="#5479f7"/>
        <path id="Path_940581" data-name="Path 940581" d="M74.328,1084.121a.585.585,0,1,1,.585-.585.585.585,0,0,1-.585.585" transform="translate(-67.972 -998.196)" fill="#5479f7"/>
        <path id="Path_940582" data-name="Path 940582" d="M101.193,1048.893a.585.585,0,1,1,.585-.585.585.585,0,0,1-.585.585" transform="translate(-92.734 -965.726)" fill="#5479f7"/>
        <path id="Path_940583" data-name="Path 940583" d="M71.464,1173.861a.585.585,0,1,1,.585-.585.585.585,0,0,1-.585.585" transform="translate(-65.332 -1080.913)" fill="#5479f7"/>
        <path id="Path_940584" data-name="Path 940584" d="M315.313,853.633a.585.585,0,1,1,.585-.585.585.585,0,0,1-.585.585" transform="translate(-290.096 -785.747)" fill="#5479f7"/>
        <path id="Path_940585" data-name="Path 940585" d="M271.012,809.688a.585.585,0,1,1,.585-.585.585.585,0,0,1-.585.585" transform="translate(-249.263 -745.241)" fill="#5479f7"/>
        <path id="Path_940586" data-name="Path 940586" d="M156,849.395a.743.743,0,1,1,.743-.743.743.743,0,0,1-.743.743" transform="translate(-143.104 -781.549)" fill="#5479f7"/>
        <path id="Path_940587" data-name="Path 940587" d="M28.426,795.9a.585.585,0,1,1,.585-.585.585.585,0,0,1-.585.585" transform="translate(-25.662 -732.531)" fill="#5479f7"/>
        <path id="Path_940588" data-name="Path 940588" d="M28.426,745.461a.585.585,0,1,1,.585-.585.585.585,0,0,1-.585.585" transform="translate(-25.662 -686.041)" fill="#5479f7"/>
        <path id="Path_940589" data-name="Path 940589" d="M70.859,787.359a.585.585,0,1,1,.585-.585.585.585,0,0,1-.585.585" transform="translate(-64.774 -724.659)" fill="#5479f7"/>
        <path id="Path_940590" data-name="Path 940590" d="M107.58,1210.066a.585.585,0,1,1,.585-.585.585.585,0,0,1-.585.585" transform="translate(-98.621 -1114.284)" fill="#5479f7"/>
        <path id="Path_940591" data-name="Path 940591" d="M107.58,1132.318a.585.585,0,1,1,.585-.585.585.585,0,0,1-.585.585" transform="translate(-98.621 -1042.621)" fill="#5479f7"/>
        <path id="Path_940592" data-name="Path 940592" d="M42.314,894.1a.981.981,0,1,1,.988-.974.981.981,0,0,1-.988.974" transform="translate(-38.104 -822.317)" fill="#5479f7"/>
        <path id="Path_940593" data-name="Path 940593" d="M162.929,993.473a.585.585,0,1,1,.585-.585.585.585,0,0,1-.585.585" transform="translate(-149.638 -914.642)" fill="#5479f7"/>
        <path id="Path_940594" data-name="Path 940594" d="M74.328,1176.192a.585.585,0,1,1,.585-.585.585.585,0,0,1-.585.585" transform="translate(-67.972 -1083.061)" fill="#5479f7"/>
        <path id="Path_940595" data-name="Path 940595" d="M491.714,341.7,468.336,355.08,454.4,346.988l23.5-13.559Z" transform="translate(-418.838 -307.335)" fill="#5479f7"/>
        <path id="Path_940596" data-name="Path 940596" d="M465.291,352.294a.259.259,0,0,1-.13-.035l-13.936-8.091a.258.258,0,0,1,0-.447l23.5-13.559a.258.258,0,0,1,.262,0L488.8,338.43a.258.258,0,0,1,0,.446L465.419,352.26a.259.259,0,0,1-.128.034m-13.42-8.349,13.42,7.792,22.866-13.09-13.3-7.962Z" transform="translate(-415.793 -304.29)"/>
        <path id="Path_940597" data-name="Path 940597" d="M632.5,512.562V452l23.383-13.326v60.261Z" transform="translate(-583.002 -404.343)" fill="#99b9ff"/>
        <path id="Path_940598" data-name="Path 940598" d="M629.459,509.777a.259.259,0,0,1-.258-.259V448.957a.258.258,0,0,1,.13-.225l23.383-13.326a.258.258,0,0,1,.386.225v60.261a.258.258,0,0,1-.128.223l-23.384,13.626a.257.257,0,0,1-.13.035m.258-60.67v59.962l22.866-13.325V436.076Z" transform="translate(-579.958 -401.299)"/>
        <path id="Path_940599" data-name="Path 940599" d="M469.216,574.8V514.238L455.351,506.2v60.382Z" transform="translate(-419.714 -466.581)" fill="#fff"/>
        <path id="Path_940600" data-name="Path 940600" d="M466.171,572.014a.257.257,0,0,1-.132-.036l-13.865-8.22a.258.258,0,0,1-.127-.222V503.153a.258.258,0,0,1,.388-.224L466.3,510.97a.259.259,0,0,1,.129.223v60.562a.259.259,0,0,1-.259.258m-13.606-8.626,13.348,7.914V511.343L452.565,503.6Z" transform="translate(-416.669 -463.536)"/>
        <path id="Path_940601" data-name="Path 940601" d="M481.118,657.636a.255.255,0,0,1-.132-.036l-4.313-2.557a.258.258,0,0,1-.127-.222V639.357a.259.259,0,0,1,.388-.224l10.031,5.817a.259.259,0,0,1,.129.224v9.278a.258.258,0,0,1-.517,0v-9.129l-9.514-5.518v14.868l4.186,2.482a.258.258,0,0,1-.132.481" transform="translate(-439.251 -589.081)"/>
        <path id="Path_940602" data-name="Path 940602" d="M685.17,586.277l-16.522,9.4a.815.815,0,0,1-1.218-.708v0a.815.815,0,0,1,.412-.708l16.522-9.395a.815.815,0,0,1,.806,1.417" transform="translate(-615.195 -538.988)" fill="#caddff"/>
        <path id="Path_940603" data-name="Path 940603" d="M685.17,713.048l-16.522,9.4a.815.815,0,0,1-1.218-.708v0a.815.815,0,0,1,.412-.708l16.522-9.395a.815.815,0,0,1,.806,1.417" transform="translate(-615.195 -655.838)" fill="#caddff"/>
        <path id="Path_940604" data-name="Path 940604" d="M685.17,776.433l-16.522,9.4a.815.815,0,0,1-1.218-.708v0a.814.814,0,0,1,.412-.708l16.522-9.395a.815.815,0,0,1,.806,1.417" transform="translate(-615.195 -714.262)" fill="#caddff"/>
        <path id="Path_940605" data-name="Path 940605" d="M685.17,839.818l-16.522,9.4a.815.815,0,0,1-1.218-.708v0a.814.814,0,0,1,.412-.708l16.522-9.395a.815.815,0,0,1,.806,1.417" transform="translate(-615.195 -772.686)" fill="#caddff"/>
        <path id="Path_940606" data-name="Path 940606" d="M684.391,648.05l-16.549,9.41a.815.815,0,0,0-.412.708v0a.815.815,0,0,0,1.218.708l16.549-9.411a.815.815,0,0,0,.412-.708h0a.815.815,0,0,0-1.218-.708" transform="translate(-615.195 -597.233)" fill="#caddff"/>
        <path id="Path_940607" data-name="Path 940607" d="M1180.569,375.03l-14.062,8.11-14-8.158,14.158-8.246Z" transform="translate(-1062.308 -338.034)" fill="#5479f7"/>
        <path id="Path_940608" data-name="Path 940608" d="M1331.417,540.866V480.479l14.067-8.065v60.154Z" transform="translate(-1227.217 -435.441)" fill="#99b9ff"/>
        <path id="Path_940609" data-name="Path 940609" d="M1167.188,540.234V479.847l-13.944-8.119v60.248Z" transform="translate(-1062.987 -434.809)" fill="#fff"/>
        <path id="Path_940610" data-name="Path 940610" d="M1362.266,620.646a.815.815,0,0,0,1.218.709l7.459-4.242a.815.815,0,1,0-.806-1.417l-7.459,4.241a.815.815,0,0,0-.412.708" transform="translate(-1255.651 -567.411)" fill="#caddff"/>
        <path id="Path_940611" data-name="Path 940611" d="M1362.266,684.031a.815.815,0,0,0,1.218.709l7.459-4.242a.815.815,0,1,0-.806-1.417l-7.459,4.241a.815.815,0,0,0-.412.708" transform="translate(-1255.651 -625.835)" fill="#caddff"/>
        <path id="Path_940612" data-name="Path 940612" d="M807.284,526.917,783.906,540.3l-13.935-8.091,23.5-13.559Z" transform="translate(-709.71 -478.06)" fill="#5479f7"/>
        <path id="Path_940613" data-name="Path 940613" d="M780.861,537.514a.259.259,0,0,1-.13-.035L766.8,529.388a.259.259,0,0,1,0-.447l23.5-13.559a.258.258,0,0,1,.262,0l13.812,8.266a.259.259,0,0,1,0,.446L780.989,537.48a.259.259,0,0,1-.128.034m-13.42-8.349,13.42,7.792,22.866-13.09-13.3-7.961Z" transform="translate(-706.665 -475.015)"/>
        <path id="Path_940614" data-name="Path 940614" d="M948.074,697.783V637.222L971.457,623.9v60.261Z" transform="translate(-873.875 -575.068)" fill="#99b9ff"/>
        <path id="Path_940615" data-name="Path 940615" d="M945.031,695a.259.259,0,0,1-.259-.259V634.178a.258.258,0,0,1,.131-.225l23.383-13.326a.258.258,0,0,1,.386.224v60.261a.258.258,0,0,1-.128.223L945.16,694.963a.256.256,0,0,1-.13.035m.258-60.67V694.29l22.866-13.325V621.3Z" transform="translate(-870.831 -572.025)"/>
        <path id="Path_940616" data-name="Path 940616" d="M784.786,760.021V699.459l-13.865-8.041V751.8Z" transform="translate(-710.586 -637.306)" fill="#fff"/>
        <path id="Path_940617" data-name="Path 940617" d="M781.74,757.235a.257.257,0,0,1-.132-.036l-13.865-8.22a.259.259,0,0,1-.127-.222V688.374a.258.258,0,0,1,.388-.223l13.865,8.041a.259.259,0,0,1,.129.224v60.562a.258.258,0,0,1-.258.258m-13.606-8.626,13.348,7.914V696.564l-13.348-7.741Z" transform="translate(-707.541 -634.261)"/>
        <path id="Path_940618" data-name="Path 940618" d="M799.952,836.274V820.709l-10.608-6.152v15.428Z" transform="translate(-727.567 -750.807)" fill="#5479f7"/>
        <path id="Path_940619" data-name="Path 940619" d="M877.73,893.657v-3.525l-2.267-1.315v3.5Z" transform="translate(-806.947 -819.256)" fill="#caddff"/>
        <path id="Path_940620" data-name="Path 940620" d="M828.778,865.055V861.53l-2.267-1.315v3.5Z" transform="translate(-761.825 -792.892)" fill="#caddff"/>
        <path id="Path_940621" data-name="Path 940621" d="M877.73,960.97v-3.525l-2.267-1.315v3.5Z" transform="translate(-806.947 -881.301)" fill="#caddff"/>
        <path id="Path_940622" data-name="Path 940622" d="M1002.1,764.441l-16.522,9.4a.815.815,0,0,1-1.218-.708v0a.815.815,0,0,1,.412-.708l16.522-9.395a.815.815,0,0,1,.806,1.417" transform="translate(-907.318 -703.209)" fill="#caddff"/>
        <path id="Path_940623" data-name="Path 940623" d="M1002.1,891.212l-16.522,9.4a.815.815,0,0,1-1.218-.708v0a.815.815,0,0,1,.412-.708l16.522-9.395a.815.815,0,0,1,.806,1.417" transform="translate(-907.318 -820.058)" fill="#caddff"/>
        <path id="Path_940624" data-name="Path 940624" d="M1002.1,954.6l-16.522,9.4a.815.815,0,0,1-1.218-.708v0a.815.815,0,0,1,.412-.708l16.522-9.395a.815.815,0,0,1,.806,1.417" transform="translate(-907.318 -878.482)" fill="#caddff"/>
        <path id="Path_940625" data-name="Path 940625" d="M1002.1,1017.982l-16.522,9.4a.815.815,0,0,1-1.218-.708v0a.814.814,0,0,1,.412-.708l16.522-9.395a.815.815,0,0,1,.806,1.417" transform="translate(-907.318 -936.907)" fill="#caddff"/>
        <path id="Path_940626" data-name="Path 940626" d="M1001.318,826.214l-16.549,9.41a.815.815,0,0,0-.412.708v0a.815.815,0,0,0,1.218.708l16.549-9.411a.815.815,0,0,0,.412-.708h0a.815.815,0,0,0-1.218-.708" transform="translate(-907.318 -761.453)" fill="#caddff"/>
        <path id="Path_940627" data-name="Path 940627" d="M1492.694,561.944l-14.063,8.11-14-8.158,14.158-8.246Z" transform="translate(-1350.005 -510.32)" fill="#5479f7"/>
        <path id="Path_940628" data-name="Path 940628" d="M1475.587,567.27a.258.258,0,0,1-.13-.035l-14-8.158a.259.259,0,0,1,0-.447l14.159-8.246a.259.259,0,0,1,.262,0l13.9,8.293a.259.259,0,0,1,0,.446l-14.063,8.11a.258.258,0,0,1-.129.035m-13.486-8.416,13.487,7.859,13.551-7.815-13.394-7.99Z" transform="translate(-1346.961 -507.277)"/>
        <path id="Path_940629" data-name="Path 940629" d="M1643.542,727.78V667.393l14.067-8.065v60.154Z" transform="translate(-1514.914 -607.727)" fill="#99b9ff"/>
        <path id="Path_940630" data-name="Path 940630" d="M1640.5,724.995a.258.258,0,0,1-.259-.259V664.349a.259.259,0,0,1,.13-.224l14.067-8.065a.258.258,0,0,1,.387.224v60.154a.259.259,0,0,1-.127.223l-14.067,8.3a.258.258,0,0,1-.131.036m.258-60.5v59.785l13.549-7.993V656.73Z" transform="translate(-1511.87 -604.683)"/>
        <path id="Path_940631" data-name="Path 940631" d="M1479.313,727.149V666.763l-13.945-8.119v60.248Z" transform="translate(-1350.684 -607.096)" fill="#fff"/>
        <path id="Path_940632" data-name="Path 940632" d="M1476.269,724.364a.26.26,0,0,1-.132-.036l-13.944-8.258a.259.259,0,0,1-.127-.222V655.6a.259.259,0,0,1,.389-.223l13.944,8.119a.259.259,0,0,1,.128.223v60.387a.258.258,0,0,1-.258.259m-13.686-8.664,13.428,7.952V663.867l-13.428-7.818Z" transform="translate(-1347.64 -604.052)"/>
        <path id="Path_940633" data-name="Path 940633" d="M1677.48,791.958a.815.815,0,0,0,1.218.709l7.459-4.242a.815.815,0,0,0-.806-1.417l-7.459,4.241a.815.815,0,0,0-.412.708" transform="translate(-1546.195 -725.315)" fill="#5479f7"/>
        <path id="Path_940634" data-name="Path 940634" d="M1677.48,855.343a.815.815,0,0,0,1.218.709l7.459-4.242a.815.815,0,0,0-.806-1.417l-7.459,4.241a.815.815,0,0,0-.412.708" transform="translate(-1546.195 -783.74)" fill="#5479f7"/>
        <path id="Path_940635" data-name="Path 940635" d="M1677.48,918.728a.815.815,0,0,0,1.218.709l7.459-4.242a.815.815,0,0,0-.806-1.417l-7.459,4.242a.814.814,0,0,0-.412.708" transform="translate(-1546.195 -842.164)" fill="#5479f7"/>
        <path id="Path_940636" data-name="Path 940636" d="M1677.48,982.114a.815.815,0,0,0,1.218.709l7.459-4.242a.815.815,0,0,0-.806-1.417l-7.459,4.241a.815.815,0,0,0-.412.708" transform="translate(-1546.195 -900.589)" fill="#5479f7"/>
        <path id="Path_940637" data-name="Path 940637" d="M1677.48,1045.5a.815.815,0,0,0,1.218.709l7.459-4.242a.815.815,0,0,0-.806-1.417l-7.459,4.241a.815.815,0,0,0-.412.708" transform="translate(-1546.195 -959.013)" fill="#5479f7"/>
        <path id="Path_940638" data-name="Path 940638" d="M1122.854,712.138l-23.379,13.384-13.935-8.091,23.5-13.559Z" transform="translate(-1000.582 -648.785)" fill="#5479f7"/>
        <path id="Path_940639" data-name="Path 940639" d="M1096.432,722.735a.259.259,0,0,1-.13-.035l-13.935-8.091a.259.259,0,0,1,0-.448l23.5-13.558a.258.258,0,0,1,.262,0l13.812,8.266a.258.258,0,0,1,0,.446L1096.56,722.7a.257.257,0,0,1-.128.034m-13.419-8.349,13.42,7.792,22.866-13.09-13.3-7.962Z" transform="translate(-997.539 -645.74)"/>
        <path id="Path_940640" data-name="Path 940640" d="M1263.644,883V822.443l23.383-13.326v60.261Z" transform="translate(-1164.747 -745.793)" fill="#99b9ff"/>
        <path id="Path_940641" data-name="Path 940641" d="M1260.6,880.219a.258.258,0,0,1-.259-.258V819.4a.259.259,0,0,1,.13-.225l23.384-13.326a.259.259,0,0,1,.386.225v60.261a.259.259,0,0,1-.129.223l-23.383,13.626a.257.257,0,0,1-.13.035m.258-60.67v59.962l22.866-13.325V806.518Z" transform="translate(-1161.704 -742.75)"/>
        <path id="Path_940642" data-name="Path 940642" d="M1100.355,945.243V884.681l-13.865-8.041v60.382Z" transform="translate(-1001.459 -808.031)" fill="#fff"/>
        <path id="Path_940643" data-name="Path 940643" d="M1097.312,942.456a.256.256,0,0,1-.132-.036l-13.865-8.22a.259.259,0,0,1-.127-.222V873.595a.259.259,0,0,1,.388-.224l13.865,8.041a.258.258,0,0,1,.129.223V942.2a.259.259,0,0,1-.258.258m-13.606-8.626,13.347,7.914V881.785l-13.347-7.741Z" transform="translate(-998.415 -804.987)"/>
        <path id="Path_940644" data-name="Path 940644" d="M1025.32,1198.527l-8.031,4.551-10.318-6.053,8.066-4.652Z" transform="translate(-928.163 -1099.055)" fill="#fff"/>
        <path id="Path_940645" data-name="Path 940645" d="M1014.245,1200.291a.26.26,0,0,1-.131-.036L1003.8,1194.2a.259.259,0,0,1,0-.447l8.066-4.652a.259.259,0,0,1,.262,0l10.282,6.154a.258.258,0,0,1-.005.447l-8.03,4.551a.259.259,0,0,1-.127.033m-9.8-6.309,9.806,5.752,7.515-4.258-9.771-5.848Z" transform="translate(-925.118 -1096.009)"/>
        <path id="Path_940646" data-name="Path 940646" d="M1138.84,1277.565v-2.335l8.034-4.507v2.111Z" transform="translate(-1049.711 -1171.272)" fill="#99b9ff"/>
        <path id="Path_940647" data-name="Path 940647" d="M1135.8,1274.78a.258.258,0,0,1-.259-.258v-2.335a.259.259,0,0,1,.132-.225l8.034-4.507a.259.259,0,0,1,.385.226v2.111a.259.259,0,0,1-.127.223l-8.034,4.731a.258.258,0,0,1-.131.036m.259-2.442v1.731l7.517-4.427v-1.522Z" transform="translate(-1046.667 -1168.228)"/>
        <path id="Path_940648" data-name="Path 940648" d="M1017.28,1260.149v-2.335l-10.322-5.986v2.2Z" transform="translate(-928.151 -1153.856)" fill="#fff"/>
        <path id="Path_940649" data-name="Path 940649" d="M1014.235,1257.364a.259.259,0,0,1-.132-.036l-10.321-6.12a.258.258,0,0,1-.127-.222v-2.2a.258.258,0,0,1,.388-.223l10.322,5.986a.259.259,0,0,1,.129.223v2.335a.259.259,0,0,1-.258.259m-10.063-6.526,9.8,5.813v-1.732l-9.8-5.686Z" transform="translate(-925.106 -1150.813)"/>
        <path id="Path_940650" data-name="Path 940650" d="M1121.016,1018.993v-15.085a.882.882,0,0,0-.44-.763l-9.229-5.352a.241.241,0,0,0-.362.209v15.045Z" transform="translate(-1024.036 -919.672)" fill="#fff"/>
        <path id="Path_940651" data-name="Path 940651" d="M1117.972,1016.2a.257.257,0,0,1-.132-.036l-10.03-5.947a.258.258,0,0,1-.127-.222V994.95a.5.5,0,0,1,.75-.432l9.229,5.352a1.145,1.145,0,0,1,.568.987v15.085a.258.258,0,0,1-.258.258m-9.772-6.353,9.514,5.641v-14.631a.626.626,0,0,0-.311-.54l-9.2-5.337Z" transform="translate(-1020.992 -916.621)"/>
        <path id="Path_940652" data-name="Path 940652" d="M1317.31,937.466l-16.522,9.4a.815.815,0,0,1-1.218-.708v0a.815.815,0,0,1,.412-.708l16.522-9.395a.815.815,0,1,1,.805,1.417" transform="translate(-1197.862 -862.692)" fill="#5479f7"/>
        <path id="Path_940653" data-name="Path 940653" d="M1317.31,1064.237l-16.522,9.4a.815.815,0,0,1-1.218-.708v0a.815.815,0,0,1,.412-.708l16.522-9.395a.815.815,0,1,1,.805,1.417" transform="translate(-1197.862 -979.542)" fill="#5479f7"/>
        <path id="Path_940654" data-name="Path 940654" d="M1317.31,1127.622l-16.522,9.4a.815.815,0,0,1-1.218-.708v0a.815.815,0,0,1,.412-.708l16.522-9.395a.815.815,0,0,1,.805,1.417" transform="translate(-1197.862 -1037.966)" fill="#5479f7"/>
        <path id="Path_940655" data-name="Path 940655" d="M1317.31,1191.007l-16.522,9.4a.815.815,0,0,1-1.218-.708v0a.814.814,0,0,1,.412-.708l16.522-9.395a.815.815,0,0,1,.805,1.417" transform="translate(-1197.862 -1096.39)" fill="#5479f7"/>
        <path id="Path_940656" data-name="Path 940656" d="M1316.531,999.24l-16.548,9.41a.815.815,0,0,0-.412.708v0a.815.815,0,0,0,1.218.708l16.549-9.411a.815.815,0,0,0,.412-.708h0a.815.815,0,0,0-1.218-.708" transform="translate(-1197.862 -920.937)" fill="#5479f7"/>
        <path id="Path_940657" data-name="Path 940657" d="M732.868,430.187H704.032a.258.258,0,1,1,0-.517h28.837a10.207,10.207,0,0,0,7.092-2.847,9.954,9.954,0,0,0,3.1-6.972q0-.165,0-.332a12.757,12.757,0,0,0-1.873-6.672.259.259,0,0,1,.441-.27,13.272,13.272,0,0,1,1.949,6.942q0,.173,0,.345a10.468,10.468,0,0,1-3.256,7.333,10.721,10.721,0,0,1-7.45,2.991" transform="translate(-648.694 -380.174)"/>
        <path id="Path_940658" data-name="Path 940658" d="M990.575,193.12a.258.258,0,0,1-.152-.049,12.741,12.741,0,0,0-6.107-2.355.259.259,0,0,1-.222-.191,32.192,32.192,0,0,0-6.162-12.08.258.258,0,0,1,.4-.327,32.725,32.725,0,0,1,6.216,12.1,13.26,13.26,0,0,1,6.178,2.431.258.258,0,0,1-.152.468" transform="translate(-901.342 -164.09)"/>
        <path id="Path_940659" data-name="Path 940659" d="M949.568,147.078a.258.258,0,0,1-.193-.086c-.451-.506-.924-1-1.406-1.478a.258.258,0,1,1,.363-.368c.489.483.97.988,1.428,1.5a.258.258,0,0,1-.193.431" transform="translate(-873.707 -133.717)"/>
        <path id="Path_940660" data-name="Path 940660" d="M665.288,29.6a.258.258,0,0,1-.1-.019A31.858,31.858,0,0,0,652.8,27.3h0a.258.258,0,0,1,0-.517,32.382,32.382,0,0,1,12.588,2.323.259.259,0,0,1-.1.5" transform="translate(-601.472 -24.682)"/>
        <path id="Path_940661" data-name="Path 940661" d="M459.08,36.9a.258.258,0,0,1-.126-.484,32.425,32.425,0,0,1,10.295-3.637.258.258,0,1,1,.088.509,31.913,31.913,0,0,0-10.131,3.58.257.257,0,0,1-.126.033" transform="translate(-422.913 -30.206)"/>
        <path id="Path_940662" data-name="Path 940662" d="M437.969,80.379a.258.258,0,0,1-.139-.476c.544-.347,1.1-.682,1.665-.995a.258.258,0,1,1,.252.451c-.553.308-1.1.637-1.639.979a.258.258,0,0,1-.139.041" transform="translate(-403.454 -72.702)"/>
        <path id="Path_940663" data-name="Path 940663" d="M190.924,261.455a.258.258,0,0,1-.145-.472,13.445,13.445,0,0,1,5.089-2.1,32.3,32.3,0,0,1,2.828-7.9.258.258,0,1,1,.46.236,31.782,31.782,0,0,0-2.819,7.943.259.259,0,0,1-.208.2,12.94,12.94,0,0,0-5.06,2.049.257.257,0,0,1-.145.045" transform="translate(-175.744 -231.209)"/>
        <path id="Path_940664" data-name="Path 940664" d="M132.734,419.683H124.8a8.993,8.993,0,0,1-8.99-8.888V410.7a13.561,13.561,0,0,1,3.531-9.14c.131-.144.267-.287.405-.427a.258.258,0,1,1,.367.364c-.133.134-.264.273-.39.411a13.043,13.043,0,0,0-3.4,8.791v.092a8.475,8.475,0,0,0,8.473,8.374h7.938a.258.258,0,1,1,0,.517" transform="translate(-106.743 -369.67)"/>
        <path id="Path_940665" data-name="Path 940665" d="M218.2,82.142a11.774,11.774,0,0,0-11.365-11.767,30.928,30.928,0,0,0-60.56,1.461,12.055,12.055,0,0,0-10.82,11.991c0,.028,0,.056,0,.084a7.438,7.438,0,0,0,7.452,7.36h66.121a9.132,9.132,0,0,0,9.168-8.824q0-.152,0-.306" transform="translate(-124.858 -42.797)" fill="#fff"/>
        <path id="Path_940666" data-name="Path 940666" d="M205.988,88.487H139.867a7.71,7.71,0,0,1-7.71-7.617v-.086a12.269,12.269,0,0,1,10.859-12.227A31.187,31.187,0,0,1,204,67.082,12.033,12.033,0,0,1,215.418,79.1c0,.1,0,.209,0,.313a9.2,9.2,0,0,1-2.862,6.44,9.448,9.448,0,0,1-6.565,2.635M173.665,43.646a30.62,30.62,0,0,0-30.175,25.192.259.259,0,0,1-.228.211,11.754,11.754,0,0,0-10.588,11.734v.083a7.192,7.192,0,0,0,7.193,7.1h66.121A8.914,8.914,0,0,0,214.9,79.4q0-.15,0-.3A11.468,11.468,0,0,0,203.786,67.59a.258.258,0,0,1-.243-.2,30.508,30.508,0,0,0-29.878-23.744" transform="translate(-121.813 -39.754)"/>
        <path id="Path_940667" data-name="Path 940667" d="M428.331,236.79H421.2a.923.923,0,0,0-.923.923v21.03a.923.923,0,0,0,.923.923h7.133a.923.923,0,0,0,.923-.923v-21.03a.923.923,0,0,0-.923-.923" transform="translate(-387.383 -218.258)" fill="#99b9ff"/>
        <path id="Path_940668" data-name="Path 940668" d="M425.286,256.88h-7.133a1.183,1.183,0,0,1-1.181-1.181V234.669a1.183,1.183,0,0,1,1.181-1.181h7.133a1.183,1.183,0,0,1,1.181,1.181V255.7a1.183,1.183,0,0,1-1.181,1.181M418.152,234a.665.665,0,0,0-.664.664V255.7a.665.665,0,0,0,.664.664h7.133a.665.665,0,0,0,.664-.664V234.669a.665.665,0,0,0-.664-.664Z" transform="translate(-384.338 -215.215)"/>
        <path id="Path_940669" data-name="Path 940669" d="M404.777,236.79h-3.16a.923.923,0,0,0-.923.923v21.03a.923.923,0,0,0,.923.923h3.16a.923.923,0,0,0,.923-.923v-21.03a.923.923,0,0,0-.923-.923" transform="translate(-369.335 -218.258)" fill="#caddff"/>
        <path id="Path_940670" data-name="Path 940670" d="M401.734,256.88h-3.16a1.183,1.183,0,0,1-1.181-1.181V234.669a1.183,1.183,0,0,1,1.181-1.181h3.16a1.183,1.183,0,0,1,1.181,1.181V255.7a1.183,1.183,0,0,1-1.181,1.181M398.573,234a.665.665,0,0,0-.664.664V255.7a.665.665,0,0,0,.664.664h3.16a.665.665,0,0,0,.664-.664V234.669a.665.665,0,0,0-.664-.664Z" transform="translate(-366.291 -215.215)"/>
        <path id="Path_940671" data-name="Path 940671" d="M417.984,459.735a1.363,1.363,0,1,1-1.363-1.363,1.363,1.363,0,0,1,1.363,1.363" transform="translate(-382.759 -422.498)" fill="#99b9ff"/>
        <path id="Path_940672" data-name="Path 940672" d="M413.577,458.312a1.622,1.622,0,1,1,1.622-1.622,1.624,1.624,0,0,1-1.622,1.622m0-2.726a1.1,1.1,0,1,0,1.1,1.1,1.106,1.106,0,0,0-1.1-1.1" transform="translate(-379.714 -419.454)"/>
        <path id="Path_940673" data-name="Path 940673" d="M507.676,236.79h-7.133a.923.923,0,0,0-.923.923v21.03a.923.923,0,0,0,.923.923h7.133a.923.923,0,0,0,.923-.923v-21.03a.923.923,0,0,0-.923-.923" transform="translate(-460.518 -218.258)" fill="#99b9ff"/>
        <path id="Path_940674" data-name="Path 940674" d="M504.631,256.88H497.5a1.183,1.183,0,0,1-1.181-1.181V234.669a1.183,1.183,0,0,1,1.181-1.181h7.133a1.182,1.182,0,0,1,1.181,1.181V255.7a1.182,1.182,0,0,1-1.181,1.181M497.5,234a.665.665,0,0,0-.664.664V255.7a.665.665,0,0,0,.664.664h7.133a.665.665,0,0,0,.664-.664V234.669a.665.665,0,0,0-.664-.664Z" transform="translate(-457.473 -215.215)"/>
        <path id="Path_940675" data-name="Path 940675" d="M484.123,236.79h-3.161a.923.923,0,0,0-.923.923v21.03a.923.923,0,0,0,.923.923h3.161a.923.923,0,0,0,.923-.923v-21.03a.923.923,0,0,0-.923-.923" transform="translate(-442.471 -218.258)" fill="#caddff"/>
        <path id="Path_940676" data-name="Path 940676" d="M481.08,256.88h-3.161a1.183,1.183,0,0,1-1.181-1.181V234.669a1.183,1.183,0,0,1,1.181-1.181h3.161a1.183,1.183,0,0,1,1.181,1.181V255.7a1.183,1.183,0,0,1-1.181,1.181M477.919,234a.665.665,0,0,0-.664.664V255.7a.665.665,0,0,0,.664.664h3.161a.665.665,0,0,0,.664-.664V234.669a.665.665,0,0,0-.664-.664Z" transform="translate(-439.427 -215.215)"/>
        <path id="Path_940677" data-name="Path 940677" d="M497.33,459.735a1.363,1.363,0,1,1-1.363-1.363,1.363,1.363,0,0,1,1.363,1.363" transform="translate(-455.894 -422.498)" fill="#99b9ff"/>
        <path id="Path_940678" data-name="Path 940678" d="M492.923,458.312a1.622,1.622,0,1,1,1.622-1.622,1.623,1.623,0,0,1-1.622,1.622m0-2.726a1.1,1.1,0,1,0,1.1,1.1,1.106,1.106,0,0,0-1.1-1.1" transform="translate(-452.85 -419.454)"/>
        <path id="Path_940679" data-name="Path 940679" d="M591.467,236.79h-7.133a.923.923,0,0,0-.923.923v21.03a.923.923,0,0,0,.923.923h7.133a.923.923,0,0,0,.923-.923v-21.03a.923.923,0,0,0-.923-.923" transform="translate(-537.752 -218.258)" fill="#99b9ff"/>
        <path id="Path_940680" data-name="Path 940680" d="M588.422,256.88h-7.133a1.183,1.183,0,0,1-1.181-1.181V234.669a1.183,1.183,0,0,1,1.181-1.181h7.133a1.183,1.183,0,0,1,1.181,1.181V255.7a1.183,1.183,0,0,1-1.181,1.181M581.288,234a.665.665,0,0,0-.664.664V255.7a.665.665,0,0,0,.664.664h7.133a.665.665,0,0,0,.664-.664V234.669a.665.665,0,0,0-.664-.664Z" transform="translate(-534.706 -215.215)"/>
        <path id="Path_940681" data-name="Path 940681" d="M567.914,236.79h-3.16a.923.923,0,0,0-.923.923v21.03a.923.923,0,0,0,.923.923h3.16a.923.923,0,0,0,.923-.923v-21.03a.923.923,0,0,0-.923-.923" transform="translate(-519.704 -218.258)" fill="#caddff"/>
        <path id="Path_940682" data-name="Path 940682" d="M564.871,256.88h-3.16a1.183,1.183,0,0,1-1.181-1.181V234.669a1.183,1.183,0,0,1,1.181-1.181h3.16a1.183,1.183,0,0,1,1.181,1.181V255.7a1.183,1.183,0,0,1-1.181,1.181M561.71,234a.665.665,0,0,0-.664.664V255.7a.665.665,0,0,0,.664.664h3.16a.665.665,0,0,0,.664-.664V234.669a.665.665,0,0,0-.664-.664Z" transform="translate(-516.66 -215.215)"/>
        <path id="Path_940683" data-name="Path 940683" d="M581.12,459.735a1.363,1.363,0,1,1-1.363-1.363,1.363,1.363,0,0,1,1.363,1.363" transform="translate(-533.127 -422.498)" fill="#99b9ff"/>
        <path id="Path_940684" data-name="Path 940684" d="M576.713,458.312a1.622,1.622,0,1,1,1.622-1.622,1.624,1.624,0,0,1-1.622,1.622m0-2.726a1.1,1.1,0,1,0,1.1,1.1,1.106,1.106,0,0,0-1.1-1.1" transform="translate(-530.083 -419.454)"/>
        <path id="Path_940685" data-name="Path 940685" d="M647.546,207.875H634.734a.923.923,0,0,0-.923.923v21.03a.923.923,0,0,0,.923.923h12.812a.923.923,0,0,0,.923-.923V208.8a.923.923,0,0,0-.923-.923" transform="translate(-584.207 -191.606)" fill="#99b9ff"/>
        <path id="Path_940686" data-name="Path 940686" d="M644.5,227.964H631.689a1.183,1.183,0,0,1-1.181-1.181V205.753a1.183,1.183,0,0,1,1.181-1.181H644.5a1.183,1.183,0,0,1,1.181,1.181v21.029a1.183,1.183,0,0,1-1.181,1.181m-12.812-22.875a.665.665,0,0,0-.664.664v21.029a.665.665,0,0,0,.664.664H644.5a.665.665,0,0,0,.664-.664V205.753a.665.665,0,0,0-.664-.664Z" transform="translate(-581.163 -188.562)"/>
        <path id="Path_940687" data-name="Path 940687" d="M618.314,207.875h-3.16a.923.923,0,0,0-.923.923v21.03a.923.923,0,0,0,.923.923h3.16a.923.923,0,0,0,.923-.923V208.8a.923.923,0,0,0-.923-.923" transform="translate(-566.159 -191.606)" fill="#caddff"/>
        <path id="Path_940688" data-name="Path 940688" d="M615.272,227.964h-3.161a1.183,1.183,0,0,1-1.181-1.181V205.753a1.183,1.183,0,0,1,1.181-1.181h3.161a1.183,1.183,0,0,1,1.181,1.181v21.029a1.183,1.183,0,0,1-1.181,1.181m-3.161-22.875a.665.665,0,0,0-.664.664v21.029a.665.665,0,0,0,.664.664h3.161a.665.665,0,0,0,.664-.664V205.753a.665.665,0,0,0-.664-.664Z" transform="translate(-563.117 -188.562)"/>
        <path id="Path_940689" data-name="Path 940689" d="M631.52,430.82a1.363,1.363,0,1,1-1.363-1.363,1.363,1.363,0,0,1,1.363,1.363" transform="translate(-579.583 -395.846)" fill="#99b9ff"/>
        <path id="Path_940690" data-name="Path 940690" d="M627.114,429.4a1.622,1.622,0,1,1,1.622-1.622,1.623,1.623,0,0,1-1.622,1.622m0-2.726a1.1,1.1,0,1,0,1.1,1.1,1.106,1.106,0,0,0-1.1-1.1" transform="translate(-576.539 -392.802)"/>
        <path id="Path_940691" data-name="Path 940691" d="M759.05,236.79h-7.133a.923.923,0,0,0-.923.923v21.03a.923.923,0,0,0,.923.923h7.133a.923.923,0,0,0,.923-.923v-21.03a.923.923,0,0,0-.923-.923" transform="translate(-692.219 -218.258)" fill="#99b9ff"/>
        <path id="Path_940692" data-name="Path 940692" d="M756.008,256.88h-7.133a1.183,1.183,0,0,1-1.181-1.181V234.669a1.183,1.183,0,0,1,1.181-1.181h7.133a1.182,1.182,0,0,1,1.181,1.181V255.7a1.182,1.182,0,0,1-1.181,1.181M748.874,234a.665.665,0,0,0-.664.664V255.7a.665.665,0,0,0,.664.664h7.133a.665.665,0,0,0,.664-.664V234.669a.665.665,0,0,0-.664-.664Z" transform="translate(-689.176 -215.215)"/>
        <path id="Path_940693" data-name="Path 940693" d="M735.5,236.79h-3.16a.923.923,0,0,0-.923.923v21.03a.923.923,0,0,0,.923.923h3.16a.923.923,0,0,0,.923-.923v-21.03a.923.923,0,0,0-.923-.923" transform="translate(-674.171 -218.258)" fill="#caddff"/>
        <path id="Path_940694" data-name="Path 940694" d="M732.453,256.88h-3.16a1.183,1.183,0,0,1-1.181-1.181V234.669a1.183,1.183,0,0,1,1.181-1.181h3.16a1.183,1.183,0,0,1,1.181,1.181V255.7a1.183,1.183,0,0,1-1.181,1.181M729.292,234a.665.665,0,0,0-.664.664V255.7a.665.665,0,0,0,.664.664h3.16a.665.665,0,0,0,.664-.664V234.669a.665.665,0,0,0-.664-.664Z" transform="translate(-671.127 -215.215)"/>
        <path id="Path_940695" data-name="Path 940695" d="M748.7,459.735a1.363,1.363,0,1,1-1.363-1.363,1.363,1.363,0,0,1,1.363,1.363" transform="translate(-687.595 -422.498)" fill="#99b9ff"/>
        <path id="Path_940696" data-name="Path 940696" d="M744.3,458.312a1.622,1.622,0,1,1,1.622-1.622,1.624,1.624,0,0,1-1.622,1.622m0-2.726a1.1,1.1,0,1,0,1.1,1.1,1.106,1.106,0,0,0-1.1-1.1" transform="translate(-684.55 -419.454)"/>
        <path id="Path_940697" data-name="Path 940697" d="M842.842,236.79h-7.133a.923.923,0,0,0-.923.923v21.03a.923.923,0,0,0,.923.923h7.133a.923.923,0,0,0,.923-.923v-21.03a.923.923,0,0,0-.923-.923" transform="translate(-769.453 -218.258)" fill="#99b9ff"/>
        <path id="Path_940698" data-name="Path 940698" d="M839.8,256.88h-7.133a1.183,1.183,0,0,1-1.181-1.181V234.669a1.183,1.183,0,0,1,1.181-1.181H839.8a1.183,1.183,0,0,1,1.181,1.181V255.7a1.183,1.183,0,0,1-1.181,1.181M832.664,234a.665.665,0,0,0-.664.664V255.7a.665.665,0,0,0,.664.664H839.8a.665.665,0,0,0,.664-.664V234.669A.665.665,0,0,0,839.8,234Z" transform="translate(-766.409 -215.215)"/>
        <path id="Path_940699" data-name="Path 940699" d="M819.289,236.79h-3.16a.923.923,0,0,0-.923.923v21.03a.923.923,0,0,0,.923.923h3.16a.923.923,0,0,0,.923-.923v-21.03a.923.923,0,0,0-.923-.923" transform="translate(-751.406 -218.258)" fill="#caddff"/>
        <path id="Path_940700" data-name="Path 940700" d="M816.245,256.88h-3.16A1.183,1.183,0,0,1,811.9,255.7V234.669a1.183,1.183,0,0,1,1.181-1.181h3.16a1.183,1.183,0,0,1,1.181,1.181V255.7a1.183,1.183,0,0,1-1.181,1.181M813.084,234a.665.665,0,0,0-.664.664V255.7a.665.665,0,0,0,.664.664h3.16a.665.665,0,0,0,.664-.664V234.669a.665.665,0,0,0-.664-.664Z" transform="translate(-748.361 -215.215)"/>
        <path id="Path_940701" data-name="Path 940701" d="M832.5,459.735a1.363,1.363,0,1,1-1.363-1.363,1.363,1.363,0,0,1,1.363,1.363" transform="translate(-764.829 -422.498)" fill="#99b9ff"/>
        <path id="Path_940702" data-name="Path 940702" d="M828.087,458.312a1.622,1.622,0,1,1,1.622-1.622,1.624,1.624,0,0,1-1.622,1.622m0-2.726a1.1,1.1,0,1,0,1.1,1.1,1.106,1.106,0,0,0-1.1-1.1" transform="translate(-761.783 -419.454)"/>
        <path id="Path_940703" data-name="Path 940703" d="M232.817,1596.681l-1.6,6.871,1.974.375,3.434-6.833Z" transform="translate(-213.126 -1471.72)" fill="#fff"/>
        <path id="Path_940704" data-name="Path 940704" d="M230.152,1601.142a.259.259,0,0,1-.048,0l-1.974-.375a.259.259,0,0,1-.2-.313l1.6-6.871a.259.259,0,0,1,.28-.2l3.813.413a.258.258,0,0,1,.2.373L230.383,1601a.259.259,0,0,1-.231.142m-1.661-.837,1.518.288,3.179-6.325-3.215-.348Z" transform="translate(-210.082 -1468.677)"/>
        <path id="Path_940705" data-name="Path 940705" d="M132.629,1660.28a43.347,43.347,0,0,0,10.642-4.341,1.2,1.2,0,0,0,.435-1.13,12.276,12.276,0,0,0-.463-3.034.35.35,0,0,0-.537-.176l-.885.633-.071-1.289s-1.084-.795-3.031.386c0,0-3.939,4.369-6.141,6.921-1,1.163-.741,2.245.052,2.03" transform="translate(-121.599 -1521.494)" fill="#fff"/>
        <path id="Path_940706" data-name="Path 940706" d="M129.406,1657.511a.718.718,0,0,1-.628-.34c-.268-.426-.195-1.254.573-2.145,2.179-2.525,6.105-6.882,6.145-6.926a.267.267,0,0,1,.058-.048c2.071-1.255,3.268-.41,3.318-.373a.258.258,0,0,1,.105.194l.045.819.5-.359a.609.609,0,0,1,.934.307,12.6,12.6,0,0,1,.476,3.107,1.457,1.457,0,0,1-.554,1.354,43.2,43.2,0,0,1-10.714,4.372.983.983,0,0,1-.261.037m6.448-9.035c-.345.383-4.029,4.475-6.111,6.888-.628.728-.657,1.325-.527,1.531.022.035.089.142.316.08a42.672,42.672,0,0,0,10.571-4.309c.232-.148.327-.419.315-.906a12,12,0,0,0-.45-2.96.09.09,0,0,0-.058-.059.092.092,0,0,0-.083.013l-.885.633a.259.259,0,0,1-.409-.2l-.063-1.15a2.734,2.734,0,0,0-2.614.434" transform="translate(-118.569 -1518.439)"/>
        <path id="Path_940707" data-name="Path 940707" d="M138.168,1704.253a.258.258,0,0,1-.074-.506c.067-.02,6.768-2.048,10.509-4.3a.258.258,0,0,1,.267.443c-3.8,2.286-10.559,4.332-10.627,4.352a.262.262,0,0,1-.075.011" transform="translate(-127.116 -1566.408)"/>
        <path id="Path_940708" data-name="Path 940708" d="M238.051,1338.3l5.073.731a69.1,69.1,0,0,1,4.3-7.541c2.579-3.933,3.3-4.159,3.708-4.214,3.159-.419,4.231,7.115,9.454,8.921,5.5,1.9,13.649-3.228,13.528-6.947-.087-2.658-4.315-2.025-11.684-8.466-2.838-2.48-5.18-5.17-9.2-5.7a8.9,8.9,0,0,0-3.62.213c-1.372.4-3.553,1.435-6.074,5.479-3.91,6.273-5.09,14.085-5.479,17.524" transform="translate(-219.42 -1212.084)"/>
        <path id="Path_940709" data-name="Path 940709" d="M232.147,1699.763l-5.183,2.717,1.844,2.6s3.833-1.264,5.791-1.993Z" transform="translate(-209.201 -1566.734)" fill="#fff"/>
        <path id="Path_940710" data-name="Path 940710" d="M225.764,1702.3a.258.258,0,0,1-.211-.109l-1.844-2.6a.259.259,0,0,1,.091-.378l5.183-2.717a.259.259,0,0,1,.328.075l2.453,3.328a.259.259,0,0,1-.118.4c-1.94.722-5.762,1.983-5.8,2a.261.261,0,0,1-.081.013m-1.463-2.771,1.563,2.208c.736-.244,3.541-1.178,5.278-1.811l-2.117-2.873Z" transform="translate(-206.157 -1563.691)"/>
        <path id="Path_940711" data-name="Path 940711" d="M117.882,1664.789s.559-1.418,4.815,1.168a25.339,25.339,0,0,0,5.214,2.314,1.059,1.059,0,0,1,.737,1.062l-.092,1.829,1.207.152a.743.743,0,0,1,.58,1.053c-.392.833-1.393,2.67-2.974,3.029Z" transform="translate(-108.656 -1534.14)" fill="#fff"/>
        <path id="Path_940712" data-name="Path 940712" d="M124.323,1672.588a.258.258,0,0,1-.193-.086l-9.485-10.607a.259.259,0,0,1-.048-.267.9.9,0,0,1,.571-.467c.912-.307,2.465.2,4.618,1.509a25.1,25.1,0,0,0,5.158,2.289,1.319,1.319,0,0,1,.916,1.321l-.08,1.589.969.122a1,1,0,0,1,.781,1.42c-.483,1.026-1.536,2.8-3.151,3.17a.24.24,0,0,1-.057.006m-9.139-10.866,9.227,10.318c1.322-.393,2.225-1.94,2.653-2.849a.484.484,0,0,0-.378-.687l-1.207-.152a.258.258,0,0,1-.226-.269l.092-1.829a.8.8,0,0,0-.557-.8,25.648,25.648,0,0,1-5.269-2.34c-2.585-1.571-3.706-1.6-4.143-1.473a.7.7,0,0,0-.191.083" transform="translate(-105.612 -1531.074)"/>
        <path id="Path_940713" data-name="Path 940713" d="M112.681,1667.976s-.81.243-.236,1.538,5.923,7.51,7.9,8.63c2.044,1.16,2.167.143,2.012-.446s-7.94-11.057-9.675-9.723" transform="translate(-103.455 -1537.327)" fill="#fff"/>
        <path id="Path_940714" data-name="Path 940714" d="M118.762,1675.888a3.519,3.519,0,0,1-1.593-.565c-2.1-1.189-7.441-7.472-8.008-8.751a1.713,1.713,0,0,1-.129-1.4.918.918,0,0,1,.477-.468,1.056,1.056,0,0,1,.975-.058c1.432.488,3.772,3.041,5.484,5.1a37.636,37.636,0,0,1,3.59,4.849,1.046,1.046,0,0,1-.253,1.134.865.865,0,0,1-.544.167m-9.05-10.712a.4.4,0,0,0-.214.218,1.292,1.292,0,0,0,.136.97c.588,1.326,5.909,7.443,7.79,8.51,1.14.647,1.487.5,1.566.438.129-.1.127-.369.068-.593a44.7,44.7,0,0,0-3.6-4.783c-2.367-2.826-4.218-4.54-5.212-4.826a.514.514,0,0,0-.458.025.261.261,0,0,1-.079.041m-.079-.246h0Z" transform="translate(-100.408 -1534.28)"/>
        <path id="Path_940715" data-name="Path 940715" d="M307.451,1470.464c-.366.187-12.206,6.3-16.852,8.874s-14.306,9.072-14.306,9.072l2.626,4.133a101.515,101.515,0,0,0,11.326-4.133c3.443-1.736,5.829-3.96,9.537-4.431s17.285-3.012,19.843-7.061.869-5.394.869-5.394Z" transform="translate(-254.67 -1355.381)"/>
        <path id="Path_940716" data-name="Path 940716" d="M508.43,1204.092a1.8,1.8,0,0,1-.856-2.474c1.523-2.9,4.526-8.8,5.2-11.505.91-3.666,3.38-5.7,5.464-5.944a120.8,120.8,0,0,1,14.942.574c.949.1,2.853,1.452,2.811,2.4-.213,4.787-2.149,17.945-3.712,20.549-1.9,3.167-10.647.21-13.679,0-2.188-.152-7.422-2.376-10.168-3.6" transform="translate(-467.659 -1091.423)" fill="#99b9ff"/>
        <path id="Path_940717" data-name="Path 940717" d="M610.229,1328.353h-.024a.258.258,0,0,1-.234-.281,46.351,46.351,0,0,0-.584-10.919.259.259,0,0,1,.51-.082,46.886,46.886,0,0,1,.589,11.048.259.259,0,0,1-.257.235" transform="translate(-561.692 -1213.791)"/>
        <path id="Path_940718" data-name="Path 940718" d="M437.622,1499.286l14.681,2.26a1.616,1.616,0,0,0,1.038-.189l5.783-3.054c.171-.1-.005-.993-.2-1.027l-10.68-1.908Z" transform="translate(-403.372 -1378.336)" fill="#fff"/>
        <path id="Path_940719" data-name="Path 940719" d="M449.5,1498.778a1.909,1.909,0,0,1-.284-.021l-14.681-2.26a.258.258,0,0,1-.05-.5l10.624-3.918a.258.258,0,0,1,.135-.012l10.68,1.908c.279.05.4.434.453.748.068.4.009.656-.174.759l-5.789,3.057a1.871,1.871,0,0,1-.914.238m-13.9-2.64,13.693,2.108a1.365,1.365,0,0,0,.872-.159l5.72-3.021a1.451,1.451,0,0,0-.118-.592l-10.547-1.884Z" transform="translate(-400.329 -1375.291)"/>
        <path id="Path_940720" data-name="Path 940720" d="M427.871,1409.786l-.795-11.244a1.172,1.172,0,0,0-1.023-1.04l-13.623-1.676a1.172,1.172,0,0,0-1.293,1.392l1.9,9.54a1.118,1.118,0,0,0,.927.887Z" transform="translate(-378.94 -1286.576)" fill="#fff"/>
        <path id="Path_940721" data-name="Path 940721" d="M424.824,1407l-.039,0-13.907-2.141a1.381,1.381,0,0,1-1.141-1.092l-1.9-9.54a1.43,1.43,0,0,1,1.578-1.7l13.623,1.675a1.424,1.424,0,0,1,1.248,1.27l.8,11.253a.259.259,0,0,1-.258.277m-15.587-13.969a.914.914,0,0,0-.893,1.092l1.9,9.54a.863.863,0,0,0,.713.682l13.587,2.091-.772-10.921a.908.908,0,0,0-.8-.8l-13.623-1.676a.964.964,0,0,0-.115-.007" transform="translate(-375.893 -1283.533)"/>
        <path id="Path_940722" data-name="Path 940722" d="M669.594,1078.431l-1.644-4.212a.873.873,0,0,0,.52-.9.818.818,0,0,0-.738-.869.576.576,0,0,0-.3.1c-.606-1.69-1.828-2.275-2.96-1.892-1.151.389-2.713,1.245-1.178,3.387a6.016,6.016,0,0,1,.194,1.652.311.311,0,0,0,.338.3l.432-.036c.407.569.41,1.411,1.065,1.6a1.351,1.351,0,0,0,.782-.07l.128.553a1.121,1.121,0,0,1-.782,1.33l-1.439.415.038.032a5.524,5.524,0,0,0,5.545.941l2.267-.87-1.358-.548a1.631,1.631,0,0,1-.909-.92" transform="translate(-610.794 -986.765)" fill="#fff"/>
        <path id="Path_940723" data-name="Path 940723" d="M664.577,1078.288a5.779,5.779,0,0,1-3.735-1.368l-.037-.031a.258.258,0,0,1,.095-.446l1.439-.414a.862.862,0,0,0,.6-1.024l-.067-.29a1.172,1.172,0,0,1-.663,0c-.541-.158-.731-.647-.9-1.078a3.8,3.8,0,0,0-.225-.5l-.277.023a.574.574,0,0,1-.428-.142.563.563,0,0,1-.19-.406,5.968,5.968,0,0,0-.151-1.518,2.561,2.561,0,0,1-.605-2.245,2.685,2.685,0,0,1,1.916-1.53c1.313-.444,2.541.259,3.187,1.8a.821.821,0,0,1,.144-.019,1.076,1.076,0,0,1,1.006,1.118,1.2,1.2,0,0,1-.453,1.027l1.56,4a1.378,1.378,0,0,0,.765.774l1.358.548a.258.258,0,0,1,0,.481l-2.268.87a5.774,5.774,0,0,1-2.069.383m-3.048-1.489a5.263,5.263,0,0,0,4.932.623l1.654-.634-.749-.3a1.9,1.9,0,0,1-1.053-1.065h0l-1.644-4.212a.259.259,0,0,1,.162-.34.631.631,0,0,0,.34-.639c-.013-.346-.232-.63-.47-.621a.323.323,0,0,0-.166.057.258.258,0,0,1-.386-.128c-.51-1.422-1.544-2.1-2.633-1.734-.909.307-1.429.7-1.589,1.2a2.109,2.109,0,0,0,.539,1.793c.058.081.193.27.242,1.795a.05.05,0,0,0,.017.037.055.055,0,0,0,.041.013l.432-.036a.26.26,0,0,1,.232.107,3.26,3.26,0,0,1,.363.736c.165.423.281.687.564.77a.714.714,0,0,0,.479-.03.8.8,0,0,1,.218-.05.258.258,0,0,1,.263.2l.128.553a1.38,1.38,0,0,1-.963,1.637Z" transform="translate(-607.753 -983.661)"/>
        <path id="Path_940724" data-name="Path 940724" d="M625.68,1044.454a2.283,2.283,0,0,1-1.808-.456,2.352,2.352,0,0,1-1.089-2.316c.253-.777,1.177-1.082,1.637-1.235,1.35-.447,1.76.228,3.073-.172,1.167-.355,1.594-1.117,2.182-.861.453.2.432.747.977.919.472.149.691-.2,1.091-.115.911.193,1.613,2.393.89,3.819-.264.521-.715.934-.862.862s.137-.7-.144-1.005c-.2-.221-.62-.183-1.006-.086a1.472,1.472,0,0,1-.592,1.2c-.107,0,0-.912-.551-1.628a1.693,1.693,0,0,0-1.426-.745c-.5.094-.522.576-1.481,1.3a2.449,2.449,0,0,1-.893.515" transform="translate(-573.984 -958.019)"/>
        <path id="Path_940725" data-name="Path 940725" d="M705.392,1133.514a.259.259,0,0,1-.148-.47c1.162-.81,1.119-1.577,1.117-1.609a.26.26,0,0,1,.235-.279.256.256,0,0,1,.28.229c0,.044.095,1.085-1.336,2.083a.258.258,0,0,1-.148.046" transform="translate(-649.948 -1042.627)"/>
        <path id="Path_940726" data-name="Path 940726" d="M716.459,1226.419l.557,2.845s7.08-.4,10.391-4.773,6.55-15.791.238-21.229l-5.408,7.1s1.659,11.715-5.778,16.057" transform="translate(-660.387 -1109.09)" fill="#99b9ff"/>
        <path id="Path_940727" data-name="Path 940727" d="M637.946,1497.758l3.07-1.425,2.961.221.445,2.271s-1.082.706-1.826.435-1.591-.491-1.591-.491a2.348,2.348,0,0,1-2.978.329l1.748-1.118a17.194,17.194,0,0,1-1.732.181.211.211,0,0,1-.1-.4" transform="translate(-587.905 -1379.226)" fill="#fff"/>
        <path id="Path_940728" data-name="Path 940728" d="M636.2,1496.738a2.252,2.252,0,0,1-1.377-.478.258.258,0,0,1,.016-.424l.786-.5c-.21.02-.426.035-.623.042a.472.472,0,0,1-.473-.362.465.465,0,0,1,.259-.533l3.071-1.425a.259.259,0,0,1,.128-.023l2.961.222a.258.258,0,0,1,.234.208l.445,2.27a.258.258,0,0,1-.112.266,2.815,2.815,0,0,1-2.056.461c-.55-.2-1.165-.375-1.432-.448a2.905,2.905,0,0,1-1.826.727m-.737-.688a2.169,2.169,0,0,0,2.311-.51.26.26,0,0,1,.246-.066c.035.009.868.226,1.615.5a2.081,2.081,0,0,0,1.448-.321l-.372-1.9-2.7-.2-2.79,1.294c.667-.042,1.452-.165,1.46-.166a.258.258,0,0,1,.179.473Zm-.567-1.337h0Z" transform="translate(-584.86 -1376.181)"/>
        <path id="Path_940729" data-name="Path 940729" d="M724.675,1361.6a.259.259,0,0,1-.1-.5c.049-.021,4.083-1.892,4.832-10.6a.258.258,0,1,1,.515.044c-.779,9.057-4.964,10.953-5.142,11.029a.258.258,0,0,1-.1.021" transform="translate(-667.722 -1244.595)"/>
        <path id="Path_940730" data-name="Path 940730" d="M1305.094,1768.676s2.871.971,4.538.515c0,0,2.094,1.79,2.075,2.746l-7.273-.078Z" transform="translate(-1202.345 -1630.254)" fill="#fff"/>
        <path id="Path_940731" data-name="Path 940731" d="M1308.228,1768.213l-7.843-.084.782-3.776.277.093c.028.01,2.817.941,4.387.51l.132-.036.1.089c.224.191,2.186,1.9,2.166,2.948Zm-7.209-.594,6.647.071a7.491,7.491,0,0,0-1.834-2.2,9.959,9.959,0,0,1-4.275-.465Z" transform="translate(-1198.613 -1626.27)"/>
        <path id="Path_940732" data-name="Path 940732" d="M1348.519,1741.042s1.453-2.748,2.233-2.905c.657-.132,6.671,3.916,8.6,5.279a.539.539,0,0,1-.089.933c-.947.4-3.428.842-8.764-.132a.759.759,0,0,1-.589-.529l-.086-.285a1.307,1.307,0,0,1,.894-1.632Z" transform="translate(-1242.98 -1602.102)" fill="#fff"/>
        <path id="Path_940733" data-name="Path 940733" d="M1353,1742.058a31.562,31.562,0,0,1-5.6-.59,1.012,1.012,0,0,1-.79-.709l-.086-.286a1.57,1.57,0,0,1,.492-1.65l-1.627-.539a.258.258,0,0,1-.147-.366c.252-.477,1.554-2.865,2.41-3.038.937-.19,8.719,5.266,8.8,5.321a.8.8,0,0,1,.334.742.776.776,0,0,1-.471.64,8.715,8.715,0,0,1-3.315.474m-7.152-4.167,1.9.631a.258.258,0,0,1-.01.494,1.048,1.048,0,0,0-.717,1.309l.086.286a.5.5,0,0,0,.388.349c5.658,1.033,7.911.448,8.616.148a.263.263,0,0,0,.159-.219.283.283,0,0,0-.118-.265c-2.6-1.843-7.776-5.23-8.412-5.234a7.068,7.068,0,0,0-1.895,2.5" transform="translate(-1239.936 -1599.099)"/>
        <path id="Path_940734" data-name="Path 940734" d="M1381.1,1751.422a.257.257,0,0,1-.138-.04l-8.379-5.326a.259.259,0,0,1,.277-.437l8.379,5.326a.259.259,0,0,1-.139.477" transform="translate(-1265.048 -1608.965)"/>
        <path id="Path_940735" data-name="Path 940735" d="M885.458,1760c-.006-.681-.018-1.76-.038-3.145l-2.03.289-1.68-1.543s-4.82,1.763-7.155,3.992a.725.725,0,0,0,.377,1.244,42.38,42.38,0,0,0,9.714.093.923.923,0,0,0,.812-.93" transform="translate(-805.9 -1618.199)" fill="#fff"/>
        <path id="Path_940736" data-name="Path 940736" d="M877.163,1758.376a38.518,38.518,0,0,1-5.315-.331.963.963,0,0,1-.778-.668.988.988,0,0,1,.262-1.018c2.347-2.241,7.046-3.976,7.244-4.048a.258.258,0,0,1,.264.052l1.59,1.46,1.909-.272a.258.258,0,0,1,.295.252c.02,1.385.032,2.465.038,3.146a1.179,1.179,0,0,1-1.042,1.189,39.813,39.813,0,0,1-4.467.237m1.445-5.525c-.821.315-4.876,1.931-6.919,3.882a.469.469,0,0,0-.126.489.445.445,0,0,0,.363.313,41.759,41.759,0,0,0,9.645.092.663.663,0,0,0,.583-.671c-.006-.632-.016-1.607-.034-2.85l-1.739.248a.258.258,0,0,1-.211-.066Z" transform="translate(-802.855 -1615.155)"/>
        <path id="Path_940737" data-name="Path 940737" d="M890.955,1804.6a36.454,36.454,0,0,1-5.955-.444.258.258,0,1,1,.088-.509,40.455,40.455,0,0,0,8.092.379.259.259,0,0,1,.033.516c-.02,0-.922.057-2.258.057" transform="translate(-815.539 -1662.489)"/>
        <path id="Path_940738" data-name="Path 940738" d="M1022.32,1471.755c-.1-.083-8.06-6.134-11.647-4.9-4.193,1.441-3.517,12.958-3.429,16.35.086,3.3,15.589-6.612,16.066-7.481a3.063,3.063,0,0,0-.99-3.969" transform="translate(-928.328 -1351.901)" fill="#5479f7"/>
        <path id="Path_940739" data-name="Path 940739" d="M964.34,1522.258l-.042.038c-2.673,2.415-4.566,4.971-3.583,7.907,2.105,6.285,25.959,4.367,28.468,4.288.52-.017.849-.84.841-1.366l.084-2.985a.966.966,0,0,0-.47-.817,21.294,21.294,0,0,0-12.017-2.841c-.214.008-3.619.393-3.406.379,4.572-.305,11.539.311,13.286-.673,7.316-4.12,4.112-10.045,3.472-12.764-1.87-7.935-13.548.349-13.629.369h0c-.023.014-1.58.928-3.636,2.184Z" transform="translate(-885.284 -1391.809)" fill="#5479f7"/>
        <path id="Path_940740" data-name="Path 940740" d="M997.349,1590.508a.259.259,0,0,1-.158-.463c.108-.084.24-.188.394-.311,1.812-1.442,6.625-5.271,12.686-6.365a.258.258,0,1,1,.092.508c-5.932,1.072-10.672,4.842-12.456,6.262-.156.125-.29.231-.4.316a.259.259,0,0,1-.158.054" transform="translate(-919.055 -1459.445)" fill="#caddff"/>
        <path id="Path_940741" data-name="Path 940741" d="M881.443,1150.8s-8.465,3.2-10.932,2.467c-3.287-.971-5.713-6.81-5.893-7.305a22.336,22.336,0,0,0-1.4-4.035,13.209,13.209,0,0,1-1.206-2.274c-.138-.331-.4-.459-.621-.385a.64.64,0,0,0-.343.872c.229.573.444,1.151.635,1.641.06.155.149.295.019.2-.3-.221-.684-.424-.934-.283-.468.267-.72,2.056.036,3.312s1.587.961,1.839,1.57,2.322,8.84,4.9,10.218c4.092,2.186,12.662.543,13.959.5s-.056-6.5-.056-6.5" transform="translate(-792.988 -1050.081)" fill="#fff"/>
        <path id="Path_940742" data-name="Path 940742" d="M870.739,1155.14a14.145,14.145,0,0,1-6.375-1.169c-2.281-1.219-4.1-7.318-4.789-9.614-.109-.365-.2-.653-.229-.734-.065-.157-.192-.22-.451-.338a2.721,2.721,0,0,1-1.371-1.2,4.02,4.02,0,0,1-.41-2.9,1.247,1.247,0,0,1,.468-.77.753.753,0,0,1,.639-.021l-.058-.153c-.131-.341-.269-.7-.413-1.064a.924.924,0,0,1,0-.753.9.9,0,0,1,.5-.461.777.777,0,0,1,.941.531,12.946,12.946,0,0,0,1.181,2.229,14.8,14.8,0,0,1,1.224,3.378c.093.334.167.6.21.715.022.061,2.429,6.172,5.724,7.145,2.356.7,10.683-2.429,10.767-2.46l.282-.107.062.3c.117.561,1.122,5.509.293,6.561a.628.628,0,0,1-.483.253c-.216.006-.683.064-1.274.138a52.438,52.438,0,0,1-6.439.5M857.9,1138.855a.129.129,0,0,0-.063.013.811.811,0,0,0-.224.451,3.521,3.521,0,0,0,.353,2.5,2.21,2.21,0,0,0,1.142.994,1.187,1.187,0,0,1,.715.611c.042.1.109.325.246.783.605,2.026,2.447,8.189,4.538,9.306,3.3,1.762,9.751.959,12.506.616.629-.078,1.083-.135,1.323-.142.017,0,.048,0,.092-.057.488-.62.074-3.79-.333-5.84-1.526.56-8.524,3.044-10.812,2.367-3.53-1.043-6.04-7.4-6.063-7.465-.049-.135-.122-.394-.222-.752a14.973,14.973,0,0,0-1.154-3.227,13.468,13.468,0,0,1-1.23-2.32c-.074-.178-.2-.273-.3-.239a.378.378,0,0,0-.193.189.421.421,0,0,0,.008.343c.145.362.285.727.416,1.071.076.2.15.392.22.572.013.033.027.065.04.093.046.1.131.3-.035.431a.289.289,0,0,1-.378-.022,1.164,1.164,0,0,0-.59-.279" transform="translate(-789.934 -1047.031)"/>
        <path id="Path_940743" data-name="Path 940743" d="M1022.656,1442.347s-6.748-1.6-8.851-1.514c-1.263.051-3.952,1.281-4.352,2.313-.5,1.3-.252,2.859.168,2.775.352-.07,1.353-1.821,2.163-2.537a.162.162,0,0,1,.259.18c-.212.554-.9,1.388-.733,1.558.252.252.9,0,1.289-.448.25-.285.722-1.486,1.142-1.612s5.886.967,10.175,4.835Z" transform="translate(-930.193 -1328.067)" fill="#fff"/>
        <path id="Path_940744" data-name="Path 940744" d="M1021.277,1445.593l-.606-.547a19.977,19.977,0,0,0-9.94-4.777c-.163.05-.5.66-.656.953a3.629,3.629,0,0,1-.354.579,1.8,1.8,0,0,1-1.173.636.646.646,0,0,1-.494-.175c-.245-.245-.019-.617.293-1.133l.043-.071c-.239.287-.481.616-.706.921-.546.741-.821,1.1-1.086,1.152a.457.457,0,0,1-.443-.174,3.573,3.573,0,0,1-.017-2.947c.448-1.156,3.263-2.425,4.582-2.477,2.114-.082,8.643,1.455,8.92,1.52l.157.037Zm-10.518-5.838a20.162,20.162,0,0,1,9.659,4.391l-1.052-4.626c-1.023-.238-6.755-1.545-8.624-1.47-1.239.05-3.784,1.278-4.121,2.148a3.416,3.416,0,0,0-.093,2.4,8.05,8.05,0,0,0,.741-.923,10.557,10.557,0,0,1,1.271-1.526.421.421,0,0,1,.671.466,5.342,5.342,0,0,1-.421.784,5.538,5.538,0,0,0-.293.523h.034a1.315,1.315,0,0,0,.8-.46,3.827,3.827,0,0,0,.29-.486c.348-.638.621-1.1.973-1.2a.62.62,0,0,1,.164-.016" transform="translate(-927.119 -1325.024)"/>
        <path id="Path_940745" data-name="Path 940745" d="M1099.418,1263.512a26.412,26.412,0,0,0,1.726,9.624c.432,1.056.478,1.321.368,1.6s-1.015.542-1.384.685c-3.378,1.315-10.073,2.713-10.956-1.06-.5-2.142-.458-4.586-2.032-7.367a32.208,32.208,0,0,1-2.6-5.834c-.039-.119-2.116-.076-2.153-.193-1.365-4.351-1.948-6.013-1.948-6.013a64.025,64.025,0,0,1,8.631-3.205c3.9-.93,7.546-.931,9.113,1.93,1.824,3.333,1.233,9.7,1.234,9.832" transform="translate(-995.882 -1153.274)"/>
        <path id="Path_940746" data-name="Path 940746" d="M1168.663,1089.969c2.673-1.356,5.906.69,6.8,3.55a5.427,5.427,0,1,1-10.354,3.255c-.505-1.608-1.088-3.653-.236-4.964.663-1.02,1.317-.589,3.786-1.84" transform="translate(-1073.311 -1004.269)"/>
        <path id="Path_940747" data-name="Path 940747" d="M1234.761,1030.267a1.145,1.145,0,0,0,.911-.54,1.52,1.52,0,0,1,.654-.605c.064-.028.128-.058.191-.089a1.371,1.371,0,0,1,.829-.092,1.146,1.146,0,0,0,1.334-1.093,1.525,1.525,0,0,1,.264-.852q.062-.085.12-.172a1.218,1.218,0,0,1,.628-.48,1.145,1.145,0,0,0,.654-1.628,1.52,1.52,0,0,1-.2-.869q.011-.1.018-.208a1.245,1.245,0,0,1,.307-.738,1.146,1.146,0,0,0-.255-1.732,1.517,1.517,0,0,1-.605-.654q-.043-.1-.089-.191a1.37,1.37,0,0,1-.092-.829,1.146,1.146,0,0,0-1.093-1.334,1.525,1.525,0,0,1-.852-.264q-.085-.062-.172-.121a1.217,1.217,0,0,1-.48-.627,1.145,1.145,0,0,0-1.628-.654,1.52,1.52,0,0,1-.869.2q-.1-.011-.208-.019a1.247,1.247,0,0,1-.738-.307,1.146,1.146,0,0,0-1.732.254,1.516,1.516,0,0,1-.654.605c-.064.029-.128.058-.191.089a1.372,1.372,0,0,1-.829.092,1.146,1.146,0,0,0-1.334,1.094,1.514,1.514,0,0,1-.263.849q-.062.086-.121.173a1.217,1.217,0,0,1-.628.48,1.145,1.145,0,0,0-.677,1.583,2.225,2.225,0,0,1,.2,1.122q-.018.249-.017.5a1.147,1.147,0,0,0,.372,2.125,6.525,6.525,0,0,0,.52,1.128,1.146,1.146,0,0,0,1.381,1.657,6.56,6.56,0,0,0,1.016.715,1.146,1.146,0,0,0,1.686,1.019,1.52,1.52,0,0,1,.869-.2q.1.011.208.018a1.247,1.247,0,0,1,.738.307,1.142,1.142,0,0,0,.821.285" transform="translate(-1130.577 -936.556)"/>
        <path id="Path_940748" data-name="Path 940748" d="M1165.078,1156.74a.426.426,0,0,0-.627.223c-.025.073-.049.141-.067.192a3.846,3.846,0,0,1-.63,1.3.6.6,0,0,0,.017.75l.082.1a.588.588,0,0,1,.133.454c-.053.407-.148,1.174-.143,1.342a.786.786,0,0,0,.241.517,3.037,3.037,0,0,0,1.069.169.418.418,0,0,1,.355.22,5.651,5.651,0,0,1,.428,1.382,2.1,2.1,0,0,1-.822,1.732.424.424,0,0,0,.177.711,9.367,9.367,0,0,0,5.928-.053.277.277,0,0,0,.036-.472,7.752,7.752,0,0,1-2.595-3.21.353.353,0,0,0-.192-.205,1.7,1.7,0,0,1-1.206-2.009.683.683,0,0,1,.116-.335c.285-.419,1.005-1.656-.544-1.467a1.311,1.311,0,0,1-1.537-1.045.49.49,0,0,0-.218-.292" transform="translate(-1072.562 -1066.151)" fill="#fff"/>
        <path id="Path_940749" data-name="Path 940749" d="M1165.383,1163.506a11.7,11.7,0,0,1-3.191-.477.683.683,0,0,1-.284-1.145c.33-.32.867-.94.748-1.492a5.4,5.4,0,0,0-.4-1.316.161.161,0,0,0-.137-.083c-.968-.038-1.146-.171-1.213-.22a1.04,1.04,0,0,1-.345-.715c0-.141.044-.606.145-1.385a.332.332,0,0,0-.075-.255l-.081-.1a.863.863,0,0,1-.024-1.074,3.371,3.371,0,0,0,.556-1.115c.014-.045.026-.082.036-.11.018-.051.042-.118.066-.19a.684.684,0,0,1,1.007-.359.743.743,0,0,1,.332.447,1.046,1.046,0,0,0,1.255.853c.584-.071.972.041,1.152.335.266.435-.05,1.074-.362,1.533a.427.427,0,0,0-.072.208c-.094,1.29.57,1.558.968,1.719l.082.034a.612.612,0,0,1,.334.355,7.561,7.561,0,0,0,2.507,3.092.552.552,0,0,1,.214.51.5.5,0,0,1-.305.407,7.553,7.553,0,0,1-2.909.54m-3.554-9.618a.168.168,0,0,0-.057.01.165.165,0,0,0-.1.1c-.025.074-.049.143-.068.2-.008.023-.018.053-.029.09a3.9,3.9,0,0,1-.64,1.276.344.344,0,0,0,.01.427l.081.1a.85.85,0,0,1,.191.653c-.108.834-.143,1.219-.141,1.3a.56.56,0,0,0,.14.32,3.107,3.107,0,0,0,.922.117.681.681,0,0,1,.573.357,6.087,6.087,0,0,1,.452,1.449,2.32,2.32,0,0,1-.895,1.972.166.166,0,0,0,.069.277,9.065,9.065,0,0,0,5.756-.043c-.009,0-.009-.018-.021-.027a7.915,7.915,0,0,1-2.682-3.329.092.092,0,0,0-.05-.055l-.073-.03a1.928,1.928,0,0,1-1.29-2.236.94.94,0,0,1,.16-.461c.341-.5.42-.857.349-.974-.047-.077-.241-.141-.648-.092a1.577,1.577,0,0,1-1.818-1.237.232.232,0,0,0-.1-.136h0a.162.162,0,0,0-.087-.025" transform="translate(-1069.535 -1063.105)"/>
        <path id="Path_940750" data-name="Path 940750" d="M1197.4,1189.482a.816.816,0,0,1-.125-.01.722.722,0,0,1-.578-.407.258.258,0,0,1,.48-.184.355.355,0,0,0,.243.083.387.387,0,0,0,.279-.213.259.259,0,1,1,.438.276.853.853,0,0,1-.737.455m-.2-.547h0Z" transform="translate(-1103.03 -1095.605)"/>
        <path id="Path_940751" data-name="Path 940751" d="M1152.637,1156.113l-.038,0a.944.944,0,0,1-.714-.458,2.412,2.412,0,0,1,.069-1.776.258.258,0,0,1,.336-.144l3.279,1.308a.258.258,0,1,1-.191.48l-3.024-1.207a1.635,1.635,0,0,0-.021,1.081.42.42,0,0,0,.34.2.259.259,0,0,1-.037.514" transform="translate(-1061.592 -1063.421)"/>
        <path id="Path_940752" data-name="Path 940752" d="M1198.438,1200.739a.277.277,0,0,1,.33-.213.28.28,0,1,1-.33.213" transform="translate(-1104.638 -1106.563)" fill="#5479f7"/>
        <path id="Path_940753" data-name="Path 940753" d="M1167.1,1716.633a.255.255,0,0,1-.114-.027c-4.741-2.329-12.868-2.384-12.949-2.384a.258.258,0,0,1,0-.517h0c.338,0,8.328.056,13.175,2.437a.258.258,0,0,1-.114.49" transform="translate(-1063.484 -1579.585)" fill="#fff"/>
        <path id="Path_940754" data-name="Path 940754" d="M1290,50.6a.2.2,0,0,0-.183-.172l-1.358-.111a.2.2,0,0,1-.172-.135,6.215,6.215,0,0,0-.31-.732.2.2,0,0,1,.023-.217l.861-1.055a.2.2,0,0,0,0-.251l-.735-.939a.2.2,0,0,0-.245-.058l-1.232.584a.2.2,0,0,1-.216-.03A6.376,6.376,0,0,0,1285.8,47a.2.2,0,0,1-.089-.2l.219-1.346a.2.2,0,0,0-.124-.219l-1.105-.446a.2.2,0,0,0-.241.072l-.774,1.12a.2.2,0,0,1-.2.082,6.25,6.25,0,0,0-.789-.095.2.2,0,0,1-.177-.128l-.483-1.275a.2.2,0,0,0-.216-.128l-1.181.167a.2.2,0,0,0-.172.183l-.111,1.359a.2.2,0,0,1-.134.172,6.281,6.281,0,0,0-.732.31.2.2,0,0,1-.217-.023l-1.053-.861a.2.2,0,0,0-.251,0l-.939.736a.2.2,0,0,0-.058.245l.583,1.233a.2.2,0,0,1-.03.216,6.307,6.307,0,0,0-.477.635.2.2,0,0,1-.2.089l-1.345-.219a.2.2,0,0,0-.219.123l-.446,1.107a.2.2,0,0,0,.072.241l1.119.774a.2.2,0,0,1,.082.2,6.308,6.308,0,0,0-.095.79.2.2,0,0,1-.128.177l-1.274.483a.2.2,0,0,0-.128.216l.167,1.182a.2.2,0,0,0,.183.172l1.358.111a.2.2,0,0,1,.172.135,6.264,6.264,0,0,0,.31.732.2.2,0,0,1-.023.216l-.861,1.055a.2.2,0,0,0,0,.251l.735.94a.2.2,0,0,0,.245.058L1278,57.06a.2.2,0,0,1,.216.03,6.352,6.352,0,0,0,.634.477.2.2,0,0,1,.089.2l-.219,1.346a.2.2,0,0,0,.123.219l1.106.446a.2.2,0,0,0,.241-.072l.774-1.12a.2.2,0,0,1,.2-.082,6.244,6.244,0,0,0,.789.095.2.2,0,0,1,.177.128l.483,1.274a.2.2,0,0,0,.216.128l1.18-.167a.2.2,0,0,0,.172-.183l.111-1.359a.2.2,0,0,1,.134-.172,6.264,6.264,0,0,0,.731-.31.2.2,0,0,1,.217.023l1.054.861a.2.2,0,0,0,.251,0l.939-.735a.2.2,0,0,0,.058-.245l-.583-1.233a.2.2,0,0,1,.03-.216,6.322,6.322,0,0,0,.477-.635.2.2,0,0,1,.2-.089l1.345.219a.2.2,0,0,0,.219-.124l.446-1.107a.2.2,0,0,0-.072-.241l-1.119-.774a.2.2,0,0,1-.082-.2,6.239,6.239,0,0,0,.095-.79.2.2,0,0,1,.128-.177l1.274-.483a.2.2,0,0,0,.128-.216Zm-7.672,5.678a3.988,3.988,0,1,1,3.989-3.988,3.988,3.988,0,0,1-3.989,3.988" transform="translate(-1174.742 -40.961)" fill="#fff"/>
        <path id="Path_940755" data-name="Path 940755" d="M1279.759,57.345a.457.457,0,0,1-.428-.3l-.469-1.239a6.507,6.507,0,0,1-.749-.09l-.752,1.088a.457.457,0,0,1-.55.165l-1.105-.446a.457.457,0,0,1-.282-.5l.213-1.309a6.683,6.683,0,0,1-.6-.453l-1.2.567a.457.457,0,0,1-.559-.132l-.735-.939a.457.457,0,0,1,.006-.574l.837-1.025a6.475,6.475,0,0,1-.294-.7l-1.319-.108a.458.458,0,0,1-.418-.394l-.167-1.182a.458.458,0,0,1,.292-.494l1.238-.47a6.469,6.469,0,0,1,.09-.75l-1.087-.752a.457.457,0,0,1-.165-.55l.446-1.107a.458.458,0,0,1,.5-.282l1.307.213a6.612,6.612,0,0,1,.453-.6l-.567-1.2a.458.458,0,0,1,.132-.559l.939-.735a.457.457,0,0,1,.574.006l1.024.837a6.538,6.538,0,0,1,.695-.294l.107-1.32a.458.458,0,0,1,.394-.418l1.18-.167a.458.458,0,0,1,.495.292l.469,1.239a6.512,6.512,0,0,1,.749.09l.752-1.088a.457.457,0,0,1,.55-.165l1.106.446a.457.457,0,0,1,.282.5l-.213,1.309a6.753,6.753,0,0,1,.6.453l1.2-.567a.458.458,0,0,1,.559.132l.734.939a.457.457,0,0,1-.006.574l-.837,1.025a6.633,6.633,0,0,1,.294.7l1.319.108a.458.458,0,0,1,.418.394l.167,1.182a.459.459,0,0,1-.292.494l-1.238.47a6.458,6.458,0,0,1-.09.75l1.087.753a.457.457,0,0,1,.165.55l-.446,1.107a.457.457,0,0,1-.5.282l-1.307-.213a6.681,6.681,0,0,1-.453.6l.567,1.2a.456.456,0,0,1-.132.559l-.939.735a.457.457,0,0,1-.574-.006l-1.024-.837a6.549,6.549,0,0,1-.695.294l-.107,1.32a.458.458,0,0,1-.394.418l-1.18.167a.469.469,0,0,1-.066,0m-1.672-2.148a.472.472,0,0,1,.084.008,6.036,6.036,0,0,0,.756.091.46.46,0,0,1,.4.295l.467,1.232,1.09-.154.107-1.313a.46.46,0,0,1,.306-.4,6.035,6.035,0,0,0,.7-.3.459.459,0,0,1,.5.054l1.018.832.867-.679-.564-1.191a.461.461,0,0,1,.067-.494,6.067,6.067,0,0,0,.458-.609.459.459,0,0,1,.457-.2l1.3.211.411-1.022-1.081-.748a.461.461,0,0,1-.189-.461,5.939,5.939,0,0,0,.091-.758.46.46,0,0,1,.295-.4l1.231-.467-.154-1.091-1.312-.107a.459.459,0,0,1-.4-.307,6.043,6.043,0,0,0-.3-.7.461.461,0,0,1,.054-.5l.832-1.019-.678-.868-1.19.564a.459.459,0,0,1-.5-.067,6.1,6.1,0,0,0-.608-.458.46.46,0,0,1-.2-.456l.212-1.3L1281.6,42l-.748,1.082a.461.461,0,0,1-.462.189,6.032,6.032,0,0,0-.756-.091.46.46,0,0,1-.4-.295l-.466-1.232-1.09.154-.107,1.313a.46.46,0,0,1-.306.4,6.051,6.051,0,0,0-.7.3.46.46,0,0,1-.5-.054l-1.018-.832-.867.679.563,1.191a.459.459,0,0,1-.067.494,6.107,6.107,0,0,0-.458.609.46.46,0,0,1-.457.2l-1.3-.211-.412,1.022,1.082.748a.461.461,0,0,1,.189.461,5.984,5.984,0,0,0-.091.758.46.46,0,0,1-.295.4l-1.231.467.154,1.091,1.312.107a.46.46,0,0,1,.4.307,6,6,0,0,0,.3.7.459.459,0,0,1-.054.5l-.832,1.019.678.867,1.19-.564a.46.46,0,0,1,.5.067,6.149,6.149,0,0,0,.608.458.46.46,0,0,1,.2.456l-.212,1.3,1.021.412.748-1.082a.46.46,0,0,1,.378-.2m1.2-1.71a4.247,4.247,0,1,1,4.247-4.247,4.252,4.252,0,0,1-4.247,4.247m0-7.977a3.73,3.73,0,1,0,3.73,3.73,3.734,3.734,0,0,0-3.73-3.73" transform="translate(-1171.697 -37.916)"/>
        <path id="Path_940756" data-name="Path 940756" d="M1485.747,173.627a.313.313,0,0,0-.284-.268l-2.107-.172a.311.311,0,0,1-.267-.209,9.749,9.749,0,0,0-.481-1.137.309.309,0,0,1,.035-.336l1.336-1.637a.312.312,0,0,0,0-.39l-1.141-1.459a.312.312,0,0,0-.38-.09l-1.912.906a.31.31,0,0,1-.335-.047,9.887,9.887,0,0,0-.985-.741.311.311,0,0,1-.137-.309l.34-2.09a.312.312,0,0,0-.192-.34l-1.717-.692a.312.312,0,0,0-.374.112l-1.2,1.739a.31.31,0,0,1-.313.128,9.74,9.74,0,0,0-1.225-.147.312.312,0,0,1-.275-.2l-.749-1.979a.312.312,0,0,0-.336-.2l-1.833.259a.312.312,0,0,0-.268.284l-.172,2.11a.311.311,0,0,1-.208.267,9.688,9.688,0,0,0-1.136.481.31.31,0,0,1-.337-.036l-1.635-1.337a.312.312,0,0,0-.39,0l-1.458,1.142a.312.312,0,0,0-.09.38l.906,1.914a.31.31,0,0,1-.047.335,9.9,9.9,0,0,0-.741.985.31.31,0,0,1-.309.138l-2.088-.34a.312.312,0,0,0-.34.192l-.692,1.718a.313.313,0,0,0,.112.374l1.737,1.2a.31.31,0,0,1,.127.313,9.7,9.7,0,0,0-.147,1.226.311.311,0,0,1-.2.275l-1.978.75a.313.313,0,0,0-.2.336l.259,1.834a.313.313,0,0,0,.284.268l2.107.172a.311.311,0,0,1,.268.209,9.762,9.762,0,0,0,.481,1.137.31.31,0,0,1-.035.336l-1.336,1.637a.312.312,0,0,0,0,.39l1.141,1.459a.312.312,0,0,0,.38.09l1.912-.906a.31.31,0,0,1,.335.046,9.894,9.894,0,0,0,.984.741.31.31,0,0,1,.138.309l-.34,2.09a.312.312,0,0,0,.192.34l1.717.692a.312.312,0,0,0,.374-.112l1.2-1.739a.31.31,0,0,1,.314-.127,9.719,9.719,0,0,0,1.224.147.311.311,0,0,1,.275.2l.75,1.979a.313.313,0,0,0,.336.2l1.833-.26a.313.313,0,0,0,.268-.284l.172-2.109a.312.312,0,0,1,.209-.267,9.716,9.716,0,0,0,1.136-.481.31.31,0,0,1,.337.035l1.636,1.337a.312.312,0,0,0,.39,0l1.458-1.142a.313.313,0,0,0,.089-.38l-.906-1.914a.31.31,0,0,1,.047-.335,9.875,9.875,0,0,0,.741-.986.31.31,0,0,1,.309-.138l2.088.34a.312.312,0,0,0,.34-.192l.692-1.718a.312.312,0,0,0-.112-.374l-1.738-1.2a.31.31,0,0,1-.127-.313,9.839,9.839,0,0,0,.147-1.226.311.311,0,0,1,.2-.275l1.978-.75a.313.313,0,0,0,.2-.336Zm-11.91,8.814a6.192,6.192,0,1,1,6.192-6.192,6.192,6.192,0,0,1-6.192,6.192" transform="translate(-1347.27 -151.228)" fill="#fff"/>
        <path id="Path_940757" data-name="Path 940757" d="M1471.53,185.642a.567.567,0,0,1-.532-.369l-.749-1.978a.053.053,0,0,0-.048-.033,10.021,10.021,0,0,1-1.257-.151.052.052,0,0,0-.054.021l-1.2,1.738a.567.567,0,0,1-.683.2l-1.717-.692a.568.568,0,0,1-.35-.621l.34-2.09a.053.053,0,0,0-.025-.052,10.2,10.2,0,0,1-1.01-.76.052.052,0,0,0-.057-.009l-1.912.906a.568.568,0,0,1-.694-.164l-1.141-1.459a.568.568,0,0,1,.007-.713l1.337-1.638a.052.052,0,0,0,0-.057,9.963,9.963,0,0,1-.494-1.167.053.053,0,0,0-.045-.037l-2.107-.172a.568.568,0,0,1-.519-.489l-.259-1.834a.568.568,0,0,1,.363-.614l1.977-.75a.053.053,0,0,0,.033-.048,9.982,9.982,0,0,1,.151-1.258.053.053,0,0,0-.021-.054l-1.737-1.2a.568.568,0,0,1-.2-.683l.692-1.718a.567.567,0,0,1,.621-.35l2.088.34a.053.053,0,0,0,.052-.025,10.15,10.15,0,0,1,.76-1.011.053.053,0,0,0,.009-.057l-.906-1.914a.568.568,0,0,1,.164-.694l1.457-1.142a.568.568,0,0,1,.714.007l1.636,1.337a.051.051,0,0,0,.057,0,10.02,10.02,0,0,1,1.166-.494.052.052,0,0,0,.036-.044l.172-2.11a.568.568,0,0,1,.489-.519l1.833-.26a.568.568,0,0,1,.614.363l.75,1.979a.052.052,0,0,0,.048.033,10.031,10.031,0,0,1,1.257.151.053.053,0,0,0,.054-.02l1.2-1.738a.568.568,0,0,1,.683-.2l1.717.692a.568.568,0,0,1,.35.621l-.34,2.09a.052.052,0,0,0,.025.052,10.1,10.1,0,0,1,1.01.76.053.053,0,0,0,.057.009l1.912-.906a.568.568,0,0,1,.694.164l1.141,1.459a.568.568,0,0,1-.007.713l-1.336,1.637a.052.052,0,0,0,0,.057,9.985,9.985,0,0,1,.494,1.167.052.052,0,0,0,.045.037l2.107.172a.568.568,0,0,1,.519.489l.259,1.834a.569.569,0,0,1-.363.614l-1.978.75a.053.053,0,0,0-.033.048,10.028,10.028,0,0,1-.151,1.258.052.052,0,0,0,.02.054l1.737,1.2a.567.567,0,0,1,.2.683l-.692,1.718a.567.567,0,0,1-.621.35l-2.088-.34a.052.052,0,0,0-.052.025,10.194,10.194,0,0,1-.76,1.011.053.053,0,0,0-.01.057l.906,1.914a.568.568,0,0,1-.164.694l-1.458,1.142a.568.568,0,0,1-.713-.007l-1.635-1.337a.051.051,0,0,0-.057,0,10,10,0,0,1-1.166.494.053.053,0,0,0-.037.045l-.172,2.109a.567.567,0,0,1-.489.519l-1.833.26a.6.6,0,0,1-.082.006m-2.6-3.049a.57.57,0,0,1,.1.01,9.513,9.513,0,0,0,1.192.143.571.571,0,0,1,.5.366l.75,1.978a.054.054,0,0,0,.058.034l1.833-.26a.053.053,0,0,0,.046-.049l.172-2.109a.573.573,0,0,1,.381-.49,9.487,9.487,0,0,0,1.106-.468.57.57,0,0,1,.616.067l1.635,1.336a.054.054,0,0,0,.068,0l1.458-1.142a.055.055,0,0,0,.016-.066l-.906-1.914a.57.57,0,0,1,.084-.614,9.686,9.686,0,0,0,.721-.96.571.571,0,0,1,.567-.251l2.088.34a.057.057,0,0,0,.059-.033l.692-1.719a.054.054,0,0,0-.019-.064l-1.737-1.2a.57.57,0,0,1-.234-.573,9.482,9.482,0,0,0,.143-1.194.572.572,0,0,1,.366-.5l1.978-.75a.054.054,0,0,0,.034-.058l-.259-1.834a.053.053,0,0,0-.049-.046l-2.108-.172a.57.57,0,0,1-.49-.381,9.49,9.49,0,0,0-.468-1.107.571.571,0,0,1,.067-.616l1.336-1.637a.054.054,0,0,0,0-.067l-1.141-1.459a.054.054,0,0,0-.066-.016l-1.912.906a.571.571,0,0,1-.614-.083,9.6,9.6,0,0,0-.959-.722.571.571,0,0,1-.25-.567l.34-2.09a.054.054,0,0,0-.033-.059l-1.716-.692a.054.054,0,0,0-.065.019l-1.2,1.738a.572.572,0,0,1-.573.235,9.5,9.5,0,0,0-1.192-.143.571.571,0,0,1-.5-.366l-.75-1.979a.053.053,0,0,0-.058-.034l-1.833.26a.055.055,0,0,0-.046.049l-.172,2.109a.571.571,0,0,1-.38.49,9.5,9.5,0,0,0-1.106.468.57.57,0,0,1-.616-.067l-1.635-1.336a.054.054,0,0,0-.068,0l-1.458,1.142a.054.054,0,0,0-.016.066l.905,1.914a.57.57,0,0,1-.084.614,9.644,9.644,0,0,0-.721.959.572.572,0,0,1-.567.251l-2.088-.34a.053.053,0,0,0-.059.033l-.692,1.718a.054.054,0,0,0,.019.065l1.737,1.2a.571.571,0,0,1,.234.573,9.573,9.573,0,0,0-.143,1.194.571.571,0,0,1-.365.5l-1.978.75a.054.054,0,0,0-.034.058l.259,1.834a.054.054,0,0,0,.049.046l2.108.172a.57.57,0,0,1,.49.381,9.587,9.587,0,0,0,.468,1.107.57.57,0,0,1-.066.615l-1.337,1.637a.054.054,0,0,0,0,.067l1.141,1.459a.054.054,0,0,0,.066.016l1.912-.906a.57.57,0,0,1,.614.084,9.686,9.686,0,0,0,.959.721.57.57,0,0,1,.25.567l-.34,2.09a.054.054,0,0,0,.033.059l1.717.692a.054.054,0,0,0,.064-.019l1.2-1.739a.571.571,0,0,1,.469-.244m1.857-2.94a6.45,6.45,0,1,1,6.45-6.45,6.458,6.458,0,0,1-6.45,6.45m0-12.384a5.933,5.933,0,1,0,5.933,5.933,5.94,5.94,0,0,0-5.933-5.933" transform="translate(-1344.223 -148.181)"/>
        <path id="Path_940758" data-name="Path 940758" d="M994.978,45.3a.259.259,0,0,1-.247-.185,18.655,18.655,0,0,0-9.68-11.192,24.866,24.866,0,0,0-7.069-2.4.258.258,0,0,1,.072-.512,25.451,25.451,0,0,1,7.234,2.453,19.159,19.159,0,0,1,9.938,11.5.259.259,0,0,1-.248.332" transform="translate(-901.237 -28.577)" fill="#fff"/>
        <path id="Path_940759" data-name="Path 940759" d="M1027.352,78.143a.257.257,0,0,1-.214-.114,21.059,21.059,0,0,0-10.11-7.583.258.258,0,1,1,.182-.484,21.569,21.569,0,0,1,10.356,7.777.258.258,0,0,1-.214.4" transform="translate(-937.277 -64.473)" fill="#fff"/>
      </g>
    </g>
  </g>
</svg>
