<svg xmlns="http://www.w3.org/2000/svg" width="100" height="100" viewBox="0 0 100 100">
  <g id="Group_1158586" data-name="Group 1158586" transform="translate(-637 -6992)">
    <g id="Group_1098742" data-name="Group 1098742" transform="translate(637.242 6992)">
      <rect id="Rectangle_400898" data-name="Rectangle 400898" width="100" height="100" rx="50" transform="translate(-0.242)" fill="#fff" opacity="0.859"/>
      <g id="Rectangle_400907" data-name="Rectangle 400907" transform="translate(-0.242)" fill="none" stroke="#00bdff" stroke-linecap="round" stroke-width="3" stroke-dasharray="0 7">
        <rect width="100" height="100" rx="50" stroke="none"/>
        <rect x="1.5" y="1.5" width="97" height="97" rx="48.5" fill="none"/>
      </g>
    </g>
    <g id="Group_1107006" data-name="Group 1107006" transform="translate(645.109 7000.157)">
      <rect id="Rectangle_400898-2" data-name="Rectangle 400898" width="84" height="84" rx="42" transform="translate(-0.399 -0.157)" fill="#6003fe" opacity="0.859"/>
      <rect id="Rectangle_400907-2" data-name="Rectangle 400907" width="84" height="84" rx="42" transform="translate(-0.398 -0.157)" fill="none"/>
    </g>
    <g id="Group_1172458" data-name="Group 1172458" transform="translate(610.835 7006.637)">
      <g id="Group_1172456" data-name="Group 1172456" transform="translate(47.508 0.915)">
        <g id="Group_1172455" data-name="Group 1172455" transform="translate(0)">
          <path id="Path_946976" data-name="Path 946976" d="M98.324,18.689H96.566C97.523,12.752,91.982,7.043,85.2,7.043A11.6,11.6,0,0,0,74.637,13.23c-4.57-1.332-9.634,1.24-10.6,5.459h-1.8c-4.53,0-8.2,3.259-8.2,7.279s3.672,7.279,8.2,7.279h36.09c4.53,0,8.2-3.259,8.2-7.279s-3.672-7.279-8.2-7.279Z" transform="translate(-54.031 -7.043)" fill="#9bd8f9"/>
        </g>
        <path id="Path_946977" data-name="Path 946977" d="M289.249,18.689h-1.758c.957-5.937-4.584-11.646-11.366-11.646a12.908,12.908,0,0,0-2.65.273c4.969,1.076,8.772,5.192,8.92,9.751a1.662,1.662,0,0,0,1.654,1.622c4.53,0,8.2,3.259,8.2,7.279s-3.672,7.279-8.2,7.279h5.2c4.53,0,8.2-3.259,8.2-7.279s-3.672-7.279-8.2-7.279Z" transform="translate(-244.956 -7.043)" fill="#73c3f9"/>
        <path id="Path_946978" data-name="Path 946978" d="M164.016,144.576h-32.3V108.233l8.076-8.076h24.228Z" transform="translate(-121.617 -88.056)" fill="#e9efff"/>
        <path id="Path_946979" data-name="Path 946979" d="M350.279,100.157h3.9v44.419h-3.9Z" transform="translate(-311.779 -88.056)" fill="#d3dcfb"/>
        <path id="Path_946980" data-name="Path 946980" d="M131.712,108.233h8.076v-8.076Z" transform="translate(-121.617 -88.056)" fill="#d3dcfb"/>
        <circle id="Ellipse_13646" data-name="Ellipse 13646" cx="12.619" cy="12.619" r="12.619" transform="translate(22.022 51.968) rotate(-45)" fill="#ffe98d"/>
        <path id="Path_946981" data-name="Path 946981" d="M347.813,309.833a12.712,12.712,0,0,0-1.95.15,12.621,12.621,0,0,1,0,24.938,12.62,12.62,0,1,0,1.95-25.088Z" transform="translate(-307.937 -270.483)" fill="#ffdd40"/>
        <path id="Path_946982" data-name="Path 946982" d="M325.69,357.208a2.035,2.035,0,0,1-2.877,0l-.565-.565v5.9a2.035,2.035,0,0,1-4.069,0v-5.9l-.565.565a2.035,2.035,0,0,1-2.877-2.877l4.038-4.038a2.057,2.057,0,0,1,2.877,0l4.038,4.038A2.035,2.035,0,0,1,325.69,357.208Z" transform="translate(-280.338 -305.174)" fill="#4fabf7"/>
      </g>
      <g id="Group_1172457" data-name="Group 1172457" transform="translate(46.534 0)">
        <path id="Path_946983" data-name="Path 946983" d="M187.329,187.849h16.152a.975.975,0,1,0,0-1.95H187.329a.975.975,0,0,0,0,1.95Z" transform="translate(-168.183 -161.74)"/>
        <path id="Path_946984" data-name="Path 946984" d="M187.329,219.157h16.152a.975.975,0,1,0,0-1.95H187.329a.975.975,0,0,0,0,1.95Z" transform="translate(-168.183 -188.979)"/>
        <path id="Path_946985" data-name="Path 946985" d="M187.329,250.466h16.152a.975.975,0,1,0,0-1.95H187.329a.975.975,0,1,0,0,1.95Z" transform="translate(-168.183 -216.219)"/>
        <path id="Path_946986" data-name="Path 946986" d="M187.329,281.775h16.152a.975.975,0,1,0,0-1.95H187.329a.975.975,0,1,0,0,1.95Z" transform="translate(-168.183 -243.459)"/>
        <path id="Path_946987" data-name="Path 946987" d="M313.7,359.441a3.013,3.013,0,0,0,3.01-3.01v-3.948a3.009,3.009,0,0,0,3.157-4.956l-4.038-4.038a3.014,3.014,0,0,0-4.256,0l-4.038,4.038a3.009,3.009,0,0,0,3.157,4.956v3.948A3.013,3.013,0,0,0,313.7,359.441Zm-3.289-9.036a1.059,1.059,0,0,1-1.5-1.5l4.038-4.038a1.088,1.088,0,0,1,1.5,0l4.038,4.038a1.07,1.07,0,0,1,0,1.5,1.042,1.042,0,0,1-1.5,0l-.565-.565q-1.293-.767-1.665.689v5.9a1.059,1.059,0,1,1-2.119,0v-5.9a.978.978,0,0,0-1.664-.689Z" transform="translate(-272.847 -298.085)"/>
        <path id="Path_946988" data-name="Path 946988" d="M98.862,50.982a.975.975,0,1,0,1.923-.325,13.763,13.763,0,0,0-9.9-10.848V28.154c4.864.284,10.095-2.943,10.095-8.254,0-5.194-5.054-8.486-9.858-8.254C91.392,5.009,84.9,0,78.678,0A12.7,12.7,0,0,0,67.61,6.033c-4.269-.873-9.356,1.317-10.829,5.614h-1.07c-5.06,0-9.177,3.7-9.177,8.254,0,5.319,5.222,8.537,10.095,8.254v7.061a.975.975,0,1,0,1.95,0V22.124l7.1,0a1,1,0,0,0,.972-1V14.052h7.065a.975.975,0,0,0,0-1.95H65.7a1,1,0,0,0-.733.31l-8.052,8.051a.977.977,0,0,0-.286.689V26.2c-3.718.331-8.144-2.151-8.144-6.3,0-3.476,3.242-6.3,7.227-6.3h1.8a.975.975,0,0,0,.95-.757c.906-3.956,5.774-5.791,9.377-4.741a.975.975,0,0,0,1.151-.513A10.615,10.615,0,0,1,78.677,1.95c5.294,0,11.1,4.387,10.453,10.152H77.969a.975.975,0,1,0,0,1.95H88.933V39.439A13.6,13.6,0,0,0,74.268,56.52H58.578V39.465a.975.975,0,1,0-1.95,0V57.495a.975.975,0,0,0,.975.975H74.965a13.593,13.593,0,0,0,25.82-3.238.975.975,0,1,0-1.923-.325A11.644,11.644,0,1,1,87.385,41.3a11.732,11.732,0,0,1,11.477,9.681ZM59.965,20.17l4.74-4.739V20.17ZM91.8,13.6c3.515,0,7.227,2.491,7.227,6.3,0,3.476-3.242,6.3-7.227,6.3h-.918V13.6H91.8Z" transform="translate(-46.534 0)"/>
      </g>
    </g>
  </g>
</svg>
