<svg xmlns="http://www.w3.org/2000/svg" width="662" height="300" viewBox="0 0 662 300">
  <g id="Group_1173305" data-name="Group 1173305" transform="translate(-705.422 -1178)">
    <rect id="Rectangle_448922" data-name="Rectangle 448922" width="662" height="300" transform="translate(705.422 1178)" fill="#bcc3de"/>
    <g id="_1123065_117935-OPOWH4-127-01" data-name="1123065_117935-OPOWH4-127-01" transform="translate(846.035 1108.724)">
      <g id="_x35_00x500" transform="translate(26.548 102.551)">
        <g id="Group_1173357" data-name="Group 1173357">
          <g id="Group_1173356" data-name="Group 1173356">
            <g id="Group_1173355" data-name="Group 1173355">
              <g id="Group_1173311" data-name="Group 1173311" transform="translate(0 76.16)">
                <path id="Path_948421" data-name="Path 948421" d="M347.779,259.027H333.9a3.392,3.392,0,0,1,0-6.784h3.958a3.392,3.392,0,1,0,0-6.784H295.247a3.392,3.392,0,0,0,0,6.784h5.767a3.392,3.392,0,0,1,0,6.784H288.971a3.392,3.392,0,0,0,0,6.784h58.807a3.392,3.392,0,0,0,0-6.784Z" transform="translate(-91.992 -214.817)" fill="#acf1fc"/>
                <path id="Path_948422" data-name="Path 948422" d="M173.779,218.027H159.9a3.392,3.392,0,0,1,0-6.784h3.958a3.392,3.392,0,1,0,0-6.784H121.247a3.392,3.392,0,1,0,0,6.784h5.767a3.392,3.392,0,1,1,0,6.784H114.971a3.392,3.392,0,0,0,0,6.784h58.807a3.392,3.392,0,1,0,0-6.784Z" transform="translate(-48.031 -204.458)" fill="#acf1fc"/>
                <g id="Group_1173308" data-name="Group 1173308" transform="translate(227.868 107.434)">
                  <path id="Path_948423" data-name="Path 948423" d="M345.357,394.737H335.8a4.346,4.346,0,1,0,0,8.692h9.562a4.346,4.346,0,1,0,0-8.692Z" transform="translate(-331.45 -359.966)" fill="#acf1fc"/>
                  <path id="Path_948424" data-name="Path 948424" d="M449.972,348.211h-3.912a4.346,4.346,0,0,0,0,8.692h3.912a4.346,4.346,0,0,0,0-8.692Z" transform="translate(-359.308 -348.211)" fill="#acf1fc"/>
                  <path id="Path_948425" data-name="Path 948425" d="M421.516,365.6H403.733a4.346,4.346,0,1,1,0-8.692H408.8a4.346,4.346,0,0,0,0-8.692h-53a4.346,4.346,0,0,0,0,8.692h7.388a4.346,4.346,0,0,1,0,8.692H347.765a4.346,4.346,0,0,0,0,8.692h15.429a4.346,4.346,0,0,1,0,8.692h-4.013a4.346,4.346,0,1,0,0,8.692h56.251a4.346,4.346,0,0,0,0-8.692h-4.056a4.346,4.346,0,1,1,0-8.692h10.141a4.346,4.346,0,1,0,0-8.692Z" transform="translate(-334.474 -348.211)" fill="#acf1fc"/>
                </g>
                <g id="Group_1173310" data-name="Group 1173310" transform="translate(0 117.282)">
                  <g id="Group_1173309" data-name="Group 1173309" transform="translate(25.413)">
                    <path id="Path_948426" data-name="Path 948426" d="M167.6,407.914h9.562a4.346,4.346,0,1,1,0,8.692H167.6a4.346,4.346,0,1,1,0-8.692Z" transform="translate(-86.501 -373.143)" fill="#acf1fc"/>
                    <path id="Path_948427" data-name="Path 948427" d="M64.9,361.389h3.912a4.346,4.346,0,0,1,0,8.692H64.9a4.346,4.346,0,0,1,0-8.692Z" transform="translate(-60.552 -361.388)" fill="#acf1fc"/>
                    <path id="Path_948428" data-name="Path 948428" d="M69.744,378.774H87.527a4.347,4.347,0,0,0,0-8.693H82.456a4.346,4.346,0,1,1,0-8.692h53a4.346,4.346,0,1,1,0,8.692h-7.388a4.347,4.347,0,0,0,0,8.693h15.429a4.346,4.346,0,1,1,0,8.692H128.065a4.346,4.346,0,1,0,0,8.692l-.017,0h4.03a4.346,4.346,0,1,1,0,8.692H75.829a4.346,4.346,0,1,1,0-8.692h4.066l-.009,0a4.346,4.346,0,0,0,0-8.692H69.744a4.346,4.346,0,1,1,0-8.692Z" transform="translate(-61.776 -361.388)" fill="#acf1fc"/>
                  </g>
                  <path id="Path_948429" data-name="Path 948429" d="M44.616,393.117H30.094a3.546,3.546,0,0,1-3.546-3.546h0a3.546,3.546,0,0,1,3.546-3.546H44.616a3.546,3.546,0,0,1,3.546,3.546h0A3.546,3.546,0,0,1,44.616,393.117Z" transform="translate(-26.548 -367.613)" fill="#acf1fc"/>
                </g>
              </g>
              <g id="Group_1173354" data-name="Group 1173354" transform="translate(4.208)">
                <g id="Group_1173316" data-name="Group 1173316" transform="translate(64.958 94.449)">
                  <g id="Group_1173313" data-name="Group 1173313" transform="translate(0 4.478)">
                    <g id="Group_1173312" data-name="Group 1173312">
                      <line id="Line_27130" data-name="Line 27130" y1="2.242" transform="translate(0 65.168)" fill="none" stroke="#3b568c" stroke-miterlimit="10" stroke-width="2"/>
                      <line id="Line_27131" data-name="Line 27131" y1="40.026" transform="translate(0 20.93)" fill="none" stroke="#3b568c" stroke-miterlimit="10" stroke-width="2" stroke-dasharray="5.638 5.638"/>
                      <path id="Path_948430" data-name="Path 948430" d="M119.1,259.35v-2.242h2.242" transform="translate(-119.097 -240.527)" fill="none" stroke="#3b568c" stroke-miterlimit="10" stroke-width="2"/>
                      <line id="Line_27132" data-name="Line 27132" x2="36.806" transform="translate(7.15 16.581)" fill="none" stroke="#3b568c" stroke-miterlimit="10" stroke-width="2" stroke-dasharray="6.567 6.567"/>
                      <path id="Path_948431" data-name="Path 948431" d="M181.2,256.35h2.242v-2.242" transform="translate(-134.786 -239.769)" fill="none" stroke="#3b568c" stroke-miterlimit="10" stroke-width="2"/>
                      <line id="Line_27133" data-name="Line 27133" y1="6.048" transform="translate(48.652 4.258)" fill="none" stroke="#3b568c" stroke-miterlimit="10" stroke-width="2" stroke-dasharray="5.395 5.395"/>
                      <line id="Line_27134" data-name="Line 27134" y1="2.242" transform="translate(48.652)" fill="none" stroke="#3b568c" stroke-miterlimit="10" stroke-width="2"/>
                    </g>
                  </g>
                  <path id="Path_948432" data-name="Path 948432" d="M187.121,233.227a4.3,4.3,0,1,0-4.3,4.3A4.3,4.3,0,0,0,187.121,233.227Z" transform="translate(-134.112 -228.93)" fill="#3b568c"/>
                  <g id="Group_1173315" data-name="Group 1173315" transform="translate(149.646 4.478)">
                    <g id="Group_1173314" data-name="Group 1173314">
                      <line id="Line_27135" data-name="Line 27135" y1="2.242" transform="translate(47.188 82.596)" fill="none" stroke="#3b568c" stroke-miterlimit="10" stroke-width="2"/>
                      <line id="Line_27136" data-name="Line 27136" y1="57.396" transform="translate(47.188 20.948)" fill="none" stroke="#3b568c" stroke-miterlimit="10" stroke-width="2" stroke-dasharray="5.689 5.689"/>
                      <path id="Path_948433" data-name="Path 948433" d="M381.715,259.35v-2.242h-2.242" transform="translate(-334.527 -240.527)" fill="none" stroke="#3b568c" stroke-miterlimit="10" stroke-width="2"/>
                      <line id="Line_27137" data-name="Line 27137" x1="35.587" transform="translate(4.615 16.581)" fill="none" stroke="#3b568c" stroke-miterlimit="10" stroke-width="2" stroke-dasharray="6.349 6.349"/>
                      <path id="Path_948434" data-name="Path 948434" d="M321.574,256.35h-2.242v-2.242" transform="translate(-319.332 -239.769)" fill="none" stroke="#3b568c" stroke-miterlimit="10" stroke-width="2"/>
                      <line id="Line_27138" data-name="Line 27138" y1="6.048" transform="translate(0 4.258)" fill="none" stroke="#3b568c" stroke-miterlimit="10" stroke-width="2" stroke-dasharray="5.395 5.395"/>
                      <line id="Line_27139" data-name="Line 27139" y1="2.242" fill="none" stroke="#3b568c" stroke-miterlimit="10" stroke-width="2"/>
                    </g>
                  </g>
                  <path id="Path_948435" data-name="Path 948435" d="M313.5,233.227a4.3,4.3,0,1,1,4.3,4.3A4.3,4.3,0,0,1,313.5,233.227Z" transform="translate(-168.214 -228.93)" fill="#3b568c"/>
                  <path id="Path_948436" data-name="Path 948436" d="M257.725,254.6a4.3,4.3,0,1,0-4.3,4.3A4.3,4.3,0,0,0,257.725,254.6Z" transform="translate(-151.95 -234.331)" fill="#3b568c"/>
                  <line id="Line_27140" data-name="Line 27140" y2="26.867" transform="translate(101.418 28.32)" fill="none" stroke="#3b568c" stroke-miterlimit="10" stroke-width="2" stroke-dasharray="6"/>
                </g>
                <g id="Group_1173353" data-name="Group 1173353">
                  <g id="Group_1173338" data-name="Group 1173338">
                    <g id="Group_1173320" data-name="Group 1173320" transform="translate(269.865 122.324)">
                      <g id="Group_1173317" data-name="Group 1173317" transform="translate(0 7.139)">
                        <rect id="Rectangle_449092" data-name="Rectangle 449092" width="14.984" height="38.074" fill="#3b568c"/>
                        <rect id="Rectangle_449093" data-name="Rectangle 449093" width="7.345" height="38.074" transform="translate(7.639)" fill="#1f3255"/>
                      </g>
                      <g id="Group_1173318" data-name="Group 1173318" transform="translate(19.192)">
                        <rect id="Rectangle_449094" data-name="Rectangle 449094" width="14.985" height="45.212" fill="#ffe473"/>
                        <rect id="Rectangle_449095" data-name="Rectangle 449095" width="7" height="45.212" transform="translate(7.985)" fill="#f7b839"/>
                      </g>
                      <g id="Group_1173319" data-name="Group 1173319" transform="translate(38.619 8.454)">
                        <rect id="Rectangle_449096" data-name="Rectangle 449096" width="14.985" height="36.759" fill="#fff"/>
                        <rect id="Rectangle_449097" data-name="Rectangle 449097" width="7.64" height="36.759" transform="translate(7.345)" fill="#eaecef"/>
                      </g>
                    </g>
                    <g id="Group_1173323" data-name="Group 1173323" transform="translate(250.683 59.872)">
                      <path id="Path_948437" data-name="Path 948437" d="M372.393,196.27a162.3,162.3,0,0,0,18.215-8.5l.006,0v-5.112a144.353,144.353,0,0,1-23.006,10.652s1.262,26.236,21.992,35.532l1.01.434h0v-4.832C377.224,217.932,373.428,202.851,372.393,196.27Z" transform="translate(-367.608 -182.664)" fill="#fff"/>
                      <path id="Path_948438" data-name="Path 948438" d="M398.39,182.664v5.112a165.516,165.516,0,0,0,18.22,8.486c-1.057,6.585-4.893,21.7-18.217,28.189h0v4.832c.057-.025.988-.423,1.01-.433,20.734-9.3,22-35.532,22-35.532A143.983,143.983,0,0,1,398.39,182.664Z" transform="translate(-375.385 -182.664)" fill="#eaecef"/>
                      <g id="Group_1173321" data-name="Group 1173321" transform="translate(4.785 5.109)">
                        <path id="Path_948439" data-name="Path 948439" d="M398.394,226.179c13.325-6.486,17.16-21.6,18.217-28.189a165.379,165.379,0,0,1-18.22-8.486v36.672Z" transform="translate(-380.17 -189.501)" fill="#ef5945"/>
                        <path id="Path_948440" data-name="Path 948440" d="M374.01,198c1.036,6.581,4.832,21.663,18.22,28.179V189.5l-.006,0A162.092,162.092,0,0,1,374.01,198Z" transform="translate(-374.01 -189.5)" fill="#ff765f"/>
                      </g>
                      <g id="Group_1173322" data-name="Group 1173322" transform="translate(13.234 13.613)">
                        <path id="Path_948441" data-name="Path 948441" d="M398.393,220.549c7.145-3.478,9.2-11.585,9.769-15.117a88.69,88.69,0,0,1-9.771-4.551v19.667Z" transform="translate(-388.619 -200.88)" fill="#1f3255"/>
                        <path id="Path_948442" data-name="Path 948442" d="M385.316,205.436c.555,3.529,2.591,11.617,9.771,15.111V200.88h0A86.816,86.816,0,0,1,385.316,205.436Z" transform="translate(-385.316 -200.879)" fill="#3b568c"/>
                      </g>
                    </g>
                    <g id="Group_1173324" data-name="Group 1173324" transform="translate(214.35 14.878)">
                      <path id="Path_948443" data-name="Path 948443" d="M318.992,141.519a19.063,19.063,0,0,0,26.3,17.632,86.64,86.64,0,0,0,10.123,3.536l-5.7-6.1a19.059,19.059,0,1,0-30.73-15.065Z" transform="translate(-318.992 -122.459)" fill="#f7b839"/>
                      <path id="Path_948444" data-name="Path 948444" d="M337.473,122.479v38.092a19.055,19.055,0,0,1,0-38.092Z" transform="translate(-318.992 -122.464)" fill="#ffe473"/>
                      <path id="Path_948445" data-name="Path 948445" d="M353.641,147.467a2.192,2.192,0,1,1,2.192,2.192A2.192,2.192,0,0,1,353.641,147.467Z" transform="translate(-327.746 -128.223)" fill="#1f3255"/>
                      <path id="Path_948446" data-name="Path 948446" d="M340.828,147.467a2.192,2.192,0,1,1,2.192,2.192A2.192,2.192,0,0,1,340.828,147.467Z" transform="translate(-324.509 -128.223)" fill="#1f3255"/>
                      <path id="Path_948447" data-name="Path 948447" d="M342.943,145.286v4.368a2.185,2.185,0,0,1,0-4.368Z" transform="translate(-324.509 -128.226)" fill="#3b568c"/>
                      <path id="Path_948448" data-name="Path 948448" d="M328.2,147.467a2.192,2.192,0,1,1,2.192,2.192A2.192,2.192,0,0,1,328.2,147.467Z" transform="translate(-321.318 -128.223)" fill="#3b568c"/>
                    </g>
                    <g id="Group_1173325" data-name="Group 1173325" transform="translate(0 144.754)">
                      <path id="Path_948449" data-name="Path 948449" d="M76.591,325.531H34.114A1.934,1.934,0,0,1,32.18,323.6V298.175a1.934,1.934,0,0,1,1.934-1.934H76.591a1.934,1.934,0,0,1,1.934,1.934V323.6A1.934,1.934,0,0,1,76.591,325.531Z" transform="translate(-32.179 -296.241)" fill="#ff765f"/>
                      <rect id="Rectangle_449098" data-name="Rectangle 449098" width="46.345" height="4.495" transform="translate(0 5.469)" fill="#3b568c"/>
                      <rect id="Rectangle_449099" data-name="Rectangle 449099" width="9.455" height="5.145" transform="translate(33.323 20.856)" fill="#3b568c"/>
                      <rect id="Rectangle_449100" data-name="Rectangle 449100" width="17.704" height="1.482" transform="translate(3.059 15.016)" fill="#ffa89c"/>
                      <rect id="Rectangle_449101" data-name="Rectangle 449101" width="4.472" height="1.482" transform="translate(22.038 15.016)" fill="#ffa89c"/>
                      <rect id="Rectangle_449102" data-name="Rectangle 449102" width="7.392" height="1.482" transform="translate(3.059 18.978)" fill="#ffa89c"/>
                      <rect id="Rectangle_449103" data-name="Rectangle 449103" width="5.585" height="1.482" transform="translate(18.77 18.978)" fill="#ffa89c"/>
                      <rect id="Rectangle_449104" data-name="Rectangle 449104" width="6.158" height="1.482" transform="translate(11.419 18.978)" fill="#ffa89c"/>
                      <rect id="Rectangle_449105" data-name="Rectangle 449105" width="11.772" height="1.482" transform="translate(3.059 22.941)" fill="#ffa89c"/>
                    </g>
                    <g id="Group_1173326" data-name="Group 1173326" transform="translate(12.412 63.471)">
                      <rect id="Rectangle_449106" data-name="Rectangle 449106" width="41.329" height="48.53" fill="#3b568c"/>
                      <rect id="Rectangle_449107" data-name="Rectangle 449107" width="19.566" height="48.53" transform="translate(21.764)" fill="#1f3255"/>
                      <rect id="Rectangle_449108" data-name="Rectangle 449108" width="29.493" height="31.47" transform="translate(5.918 5.92)" fill="#fff"/>
                      <rect id="Rectangle_449109" data-name="Rectangle 449109" width="13.648" height="31.47" transform="translate(21.764 5.92)" fill="#f5f6f7"/>
                      <path id="Path_948450" data-name="Path 948450" d="M86.2,218.71v12.831H56.706V220.255L65.7,214.5a3.862,3.862,0,0,1,4.814.522l2.649,2.649a3.862,3.862,0,0,0,5.04.365l1.47-1.1a3.862,3.862,0,0,1,4.968.294Z" transform="translate(-50.788 -194.151)" fill="#a9e1f7"/>
                      <circle id="Ellipse_13727" data-name="Ellipse 13727" cx="5.45" cy="5.45" r="5.45" transform="translate(10.435 7.396)" fill="#ffd351"/>
                      <path id="Path_948451" data-name="Path 948451" d="M90,218a3.862,3.862,0,0,0-4.968-.294l-1.47,1.1a3.862,3.862,0,0,1-5.04-.365l-.611-.611v14.486H91.556V219.482Z" transform="translate(-56.144 -194.922)" fill="#69ceed"/>
                    </g>
                    <g id="Group_1173328" data-name="Group 1173328" transform="translate(63.31 3.823)">
                      <g id="Group_1173327" data-name="Group 1173327">
                        <path id="Path_948452" data-name="Path 948452" d="M163.229,135.374H116.892l23.169,16.294Z" transform="translate(-116.892 -114.667)" fill="#babdbf"/>
                        <rect id="Rectangle_449110" data-name="Rectangle 449110" width="35.389" height="40.907" transform="translate(5.601)" fill="#fff"/>
                        <path id="Path_948453" data-name="Path 948453" d="M159.776,136.09v19.665H124.387V136.273l17.567,12.353Z" transform="translate(-118.786 -114.848)" fill="#d9dadb" opacity="0.35"/>
                        <path id="Path_948454" data-name="Path 948454" d="M140.061,151.668l-23.169-16.294v32.588c0-.013.02-.025.051-.036Z" transform="translate(-116.892 -114.667)" fill="#f5f6f7"/>
                        <path id="Path_948455" data-name="Path 948455" d="M116.96,173.436c1.64-.618,46.286.036,46.286.036l-23.169-16.294Z" transform="translate(-116.909 -120.176)" fill="#eaecef"/>
                        <path id="Path_948456" data-name="Path 948456" d="M147.893,151.668l23.169,16.294V135.374Z" transform="translate(-124.724 -114.667)" fill="#d9dadb"/>
                      </g>
                      <rect id="Rectangle_449111" data-name="Rectangle 449111" width="26.308" height="2.207" transform="translate(10.014 4.073)" fill="#3b568c"/>
                      <rect id="Rectangle_449112" data-name="Rectangle 449112" width="17.019" height="1.895" transform="translate(14.659 11.796)" fill="#3b568c"/>
                      <rect id="Rectangle_449113" data-name="Rectangle 449113" width="17.019" height="1.895" transform="translate(14.659 22.567)" fill="#3b568c"/>
                      <rect id="Rectangle_449114" data-name="Rectangle 449114" width="21.898" height="1.895" transform="translate(12.219 17.318)" fill="#3b568c"/>
                    </g>
                    <g id="Group_1173335" data-name="Group 1173335" transform="translate(131.129)">
                      <g id="Group_1173331" data-name="Group 1173331" transform="translate(0 5.146)">
                        <g id="Group_1173329" data-name="Group 1173329" transform="translate(0 0.001)">
                          <path id="Path_948457" data-name="Path 948457" d="M251.378,127.317l-1.247-4.256-2.276.667h0l-1.448.424a18.207,18.207,0,0,0-2.658-4.38l2.675-2.8-3.208-3.062-2.678,2.8a18.434,18.434,0,0,0-4.5-2.459l.916-3.767-4.309-1.048-.915,3.764a18.189,18.189,0,0,0-5.123.126l-1.091-3.723h0l-4.256,1.247,1.091,3.724a18.18,18.18,0,0,0-4.382,2.659l-2.8-2.675-3.062,3.208,2.8,2.678a18.448,18.448,0,0,0-2.459,4.5l-3.767-.916-1.048,4.309,3.764.916a18.183,18.183,0,0,0,.126,5.122l-3.722,1.09h0l1.247,4.256,3.724-1.091a18.21,18.21,0,0,0,2.659,4.382l-2.674,2.8,3.208,3.062,2.677-2.8a18.423,18.423,0,0,0,4.5,2.459l-.916,3.767,4.309,1.048.916-3.764a18.194,18.194,0,0,0,5.124-.126l1.091,3.724,4.256-1.247-.666-2.273h0l-.425-1.451a18.212,18.212,0,0,0,4.381-2.658l2.8,2.675,3.062-3.208-2.8-2.677a18.448,18.448,0,0,0,2.459-4.5l3.767.916,1.048-4.309-3.764-.915a18.194,18.194,0,0,0-.126-5.124Zm-9.733-1.771-8.48,2.485a4.943,4.943,0,0,0-2.675-1.458L228,118.087A13.407,13.407,0,0,1,241.645,125.546Zm-24.111,11.687,8.482-2.485a4.9,4.9,0,0,0,2.676,1.463l2.486,8.482A13.407,13.407,0,0,1,217.534,137.233Zm13.927-4.081a2.531,2.531,0,0,1-2.5.732,2.542,2.542,0,0,1-1.132-.62,2.58,2.58,0,0,1,1.035-4.344,2.507,2.507,0,0,1,1.344-.024,2.552,2.552,0,0,1,1.877,3.121A2.525,2.525,0,0,1,231.461,133.152Zm-7.713-13.818,2.486,8.485a4.94,4.94,0,0,0-1.465,2.67l-8.482,2.485A13.4,13.4,0,0,1,223.748,119.334Zm9.2,15.629a4.929,4.929,0,0,0,1.463-2.676l8.48-2.485a13.4,13.4,0,0,1-7.459,13.643Z" transform="translate(-207.638 -109.438)" fill="#3b568c"/>
                        </g>
                        <g id="Group_1173330" data-name="Group 1173330" transform="translate(16.067)">
                          <path id="Path_948458" data-name="Path 948458" d="M253.086,128.407l3.724-1.091-1.247-4.256-2.276.667h0l-1.448.424a18.192,18.192,0,0,0-2.658-4.38l2.675-2.8-3.208-3.062-2.678,2.8a18.423,18.423,0,0,0-4.5-2.459l.916-3.767-4.309-1.048-.916,3.764a18.189,18.189,0,0,0-5.123.126l-1.091-3.723h0l-1.812.531,4.969,18.859c.064-.025.126-.051.191-.07a2.515,2.515,0,0,1,1.344-.025,2.552,2.552,0,0,1,1.877,3.121,2.612,2.612,0,0,1-1.773,1.847,2.584,2.584,0,0,1-.336.075l4.97,18.863,2.973-.871-.666-2.273h0l-.425-1.451a18.212,18.212,0,0,0,4.381-2.658l2.8,2.675,3.062-3.208-2.8-2.677a18.449,18.449,0,0,0,2.459-4.5l3.767.916,1.048-4.309-3.764-.916A18.218,18.218,0,0,0,253.086,128.407Zm-17.164-1.834-2.486-8.485a13.4,13.4,0,0,1,13.641,7.459l-8.48,2.485A4.931,4.931,0,0,0,235.922,126.573Zm4.944,16.871-2.486-8.482a4.929,4.929,0,0,0,1.463-2.676l8.48-2.485A13.4,13.4,0,0,1,240.866,143.444Z" transform="translate(-229.136 -109.437)" fill="#1f3255"/>
                        </g>
                      </g>
                      <g id="Group_1173334" data-name="Group 1173334" transform="translate(44.522)">
                        <g id="Group_1173332" data-name="Group 1173332">
                          <path id="Path_948459" data-name="Path 948459" d="M295.034,113.924l-.793-2.707-1.448.424h0l-.921.27a11.576,11.576,0,0,0-1.691-2.786l1.7-1.782-2.04-1.948-1.7,1.784a11.748,11.748,0,0,0-2.86-1.564l.583-2.4-2.741-.667-.582,2.394a11.562,11.562,0,0,0-3.258.08l-.694-2.368h0l-2.707.793.694,2.369a11.565,11.565,0,0,0-2.787,1.691l-1.782-1.7-1.948,2.04,1.784,1.7a11.746,11.746,0,0,0-1.564,2.86l-2.4-.583-.667,2.741,2.394.582a11.59,11.59,0,0,0,.08,3.258l-2.368.694h0l.793,2.707,2.369-.694a11.564,11.564,0,0,0,1.691,2.787l-1.7,1.782,2.04,1.948,1.7-1.784a11.747,11.747,0,0,0,2.86,1.564l-.583,2.4,2.741.667.582-2.394a11.568,11.568,0,0,0,3.259-.08l.694,2.369,2.707-.793-.424-1.445h0l-.271-.923a11.575,11.575,0,0,0,2.786-1.691l1.782,1.7,1.948-2.04-1.784-1.7a11.748,11.748,0,0,0,1.564-2.86l2.4.583.667-2.741-2.394-.582a11.568,11.568,0,0,0-.08-3.259Zm-6.191-1.126-5.394,1.581a3.15,3.15,0,0,0-1.7-.927l-1.581-5.4A8.528,8.528,0,0,1,288.843,112.8Zm-15.336,7.434,5.4-1.581a3.113,3.113,0,0,0,1.7.93l1.581,5.4A8.527,8.527,0,0,1,273.507,120.232Zm8.858-2.6a1.61,1.61,0,0,1-1.59.466,1.615,1.615,0,0,1-.72-.394,1.641,1.641,0,0,1,.658-2.763,1.6,1.6,0,0,1,.855-.016,1.623,1.623,0,0,1,1.194,1.985A1.6,1.6,0,0,1,282.365,117.636Zm-4.906-8.789,1.581,5.4a3.148,3.148,0,0,0-.932,1.7l-5.4,1.581A8.527,8.527,0,0,1,277.459,108.847Zm5.853,9.941a3.13,3.13,0,0,0,.93-1.7l5.394-1.581a8.525,8.525,0,0,1-4.744,8.677Z" transform="translate(-267.211 -102.551)" fill="#ff765f"/>
                        </g>
                        <g id="Group_1173333" data-name="Group 1173333" transform="translate(10.221)">
                          <path id="Path_948460" data-name="Path 948460" d="M296.12,114.618l2.369-.694-.793-2.707-1.448.424h0l-.921.27a11.576,11.576,0,0,0-1.691-2.786l1.7-1.782-2.04-1.948-1.7,1.784a11.748,11.748,0,0,0-2.86-1.564l.583-2.4-2.741-.667-.582,2.394a11.562,11.562,0,0,0-3.258.08l-.694-2.368h0l-1.152.338,3.161,12c.04-.016.08-.032.122-.045a1.6,1.6,0,0,1,.855-.016,1.623,1.623,0,0,1,1.194,1.985,1.662,1.662,0,0,1-1.128,1.174,1.563,1.563,0,0,1-.214.047l3.161,12,1.892-.555-.424-1.445h0l-.271-.923a11.575,11.575,0,0,0,2.786-1.691l1.782,1.7,1.948-2.04-1.784-1.7a11.747,11.747,0,0,0,1.564-2.86l2.4.583.667-2.741-2.394-.582A11.655,11.655,0,0,0,296.12,114.618ZM285.2,113.452l-1.581-5.4A8.527,8.527,0,0,1,292.3,112.8l-5.394,1.581A3.135,3.135,0,0,0,285.2,113.452Zm3.145,10.732-1.581-5.4a3.13,3.13,0,0,0,.93-1.7l5.394-1.581A8.528,8.528,0,0,1,288.348,124.184Z" transform="translate(-280.887 -102.551)" fill="#ef5945"/>
                        </g>
                      </g>
                    </g>
                    <g id="Group_1173336" data-name="Group 1173336" transform="translate(15.579 15.73)">
                      <path id="Path_948461" data-name="Path 948461" d="M76.3,136.094c0,6.9-11.636,18.742-11.636,18.742s-11.636-11.842-11.636-18.742S58.234,123.6,64.66,123.6,76.3,129.194,76.3,136.094Z" transform="translate(-53.024 -123.599)" fill="#ffe473"/>
                      <circle id="Ellipse_13728" data-name="Ellipse 13728" cx="6.174" cy="6.174" r="6.174" transform="translate(2.904 11.011) rotate(-45)" fill="#ffd351"/>
                      <path id="Path_948462" data-name="Path 948462" d="M68.594,123.6v4.838a6.174,6.174,0,1,1,0,12.348v14.052S80.23,143,80.23,136.1,75.02,123.6,68.594,123.6Z" transform="translate(-56.958 -123.599)" fill="#f7b839"/>
                      <path id="Path_948463" data-name="Path 948463" d="M74.768,136.246a6.174,6.174,0,0,0-6.174-6.174v12.347A6.173,6.173,0,0,0,74.768,136.246Z" transform="translate(-56.958 -125.234)" fill="#ffe473"/>
                    </g>
                    <g id="Group_1173337" data-name="Group 1173337" transform="translate(271.169 8.898)">
                      <path id="Path_948464" data-name="Path 948464" d="M419.874,139.31h0Z" transform="translate(-401.299 -120.736)" fill="#ff765f"/>
                      <rect id="Rectangle_449115" data-name="Rectangle 449115" transform="translate(18.568 18.581) rotate(-63.435)" fill="#ff765f"/>
                      <path id="Path_948465" data-name="Path 948465" d="M419.875,139.31h0Z" transform="translate(-401.299 -120.736)" fill="#ff765f"/>
                      <path id="Path_948466" data-name="Path 948466" d="M413.448,157.235a18.543,18.543,0,0,0,22.728-13.122l-17.925-4.8h0Z" transform="translate(-399.676 -120.736)" fill="#3b568c"/>
                      <path id="Path_948467" data-name="Path 948467" d="M426.442,132.415h0l15.868,4.252a16.351,16.351,0,0,0-7.653-18.48Z" transform="translate(-402.959 -115.399)" fill="#fff"/>
                      <path id="Path_948468" data-name="Path 948468" d="M395.02,137.686a18.567,18.567,0,0,0,13.772,17.925l4.8-17.925-17.925-4.8A18.512,18.512,0,0,0,395.02,137.686Z" transform="translate(-395.02 -119.112)" fill="#ffe473"/>
                      <path id="Path_948469" data-name="Path 948469" d="M409.012,115.106a18.438,18.438,0,0,0-4.477,1.851,18.17,18.17,0,0,0-6.793,6.794,18.436,18.436,0,0,0-1.851,4.477l17.925,4.8h0l9.281-16.074a18.35,18.35,0,0,0-14.084-1.852Z" transform="translate(-395.24 -114.457)" fill="#ff765f"/>
                    </g>
                  </g>
                  <g id="Group_1173350" data-name="Group 1173350" transform="translate(55.356 138.574)">
                    <g id="Group_1173342" data-name="Group 1173342" transform="translate(31.179)">
                      <path id="Path_948470" data-name="Path 948470" d="M292.338,384.607H163.681a5.164,5.164,0,0,1-5.164-5.164V293.136a5.164,5.164,0,0,1,5.164-5.164H292.338a5.164,5.164,0,0,1,5.164,5.164v86.306A5.163,5.163,0,0,1,292.338,384.607Z" transform="translate(-150.634 -287.972)" fill="#3b568c"/>
                      <path id="Path_948471" data-name="Path 948471" d="M245.75,413.844l-.907.643a5.173,5.173,0,0,1-3.035.945l-33.728-.276a5.169,5.169,0,0,1-3.018-1l-.324-.238a8.366,8.366,0,0,0-4.952-1.611H147.969v8.642a7.019,7.019,0,0,0,7.178,6.849h139.7a7.019,7.019,0,0,0,7.178-6.849v-8.642H250.594A8.386,8.386,0,0,0,245.75,413.844Z" transform="translate(-147.969 -319.387)" fill="#1f3255"/>
                      <g id="Group_1173341" data-name="Group 1173341" transform="translate(16.525 8.115)">
                        <rect id="Rectangle_449116" data-name="Rectangle 449116" width="80.405" height="121.689" transform="translate(121.696) rotate(90)" fill="#fff"/>
                        <path id="Path_948472" data-name="Path 948472" d="M170.087,379.235,291.776,298.83v80.405S169.047,378.2,170.087,379.235Z" transform="translate(-170.08 -298.83)" fill="#eaecef"/>
                        <rect id="Rectangle_449117" data-name="Rectangle 449117" width="12.973" height="121.689" transform="translate(121.695 0) rotate(90)" fill="#a9e1f7"/>
                        <path id="Path_948473" data-name="Path 948473" d="M179.167,306.836a2.06,2.06,0,1,1-2.06-2.06A2.06,2.06,0,0,1,179.167,306.836Z" transform="translate(-171.335 -300.332)" fill="#fff"/>
                        <circle id="Ellipse_13729" data-name="Ellipse 13729" cx="2.06" cy="2.06" r="2.06" transform="translate(12.207 4.444)" fill="#fff"/>
                        <path id="Path_948474" data-name="Path 948474" d="M202.545,306.836a2.06,2.06,0,1,1-2.06-2.06A2.06,2.06,0,0,1,202.545,306.836Z" transform="translate(-177.242 -300.332)" fill="#fff"/>
                        <g id="Group_1173340" data-name="Group 1173340" transform="translate(17.143 19.011)">
                          <rect id="Rectangle_449118" data-name="Rectangle 449118" width="29.394" height="33.496" fill="#a9e1f7"/>
                          <g id="Group_1173339" data-name="Group 1173339" transform="translate(3.859 4.146)">
                            <circle id="Ellipse_13730" data-name="Ellipse 13730" cx="6.054" cy="6.054" r="6.054" transform="translate(4.785)" fill="#fff"/>
                            <path id="Path_948475" data-name="Path 948475" d="M219.859,359.687c-1.27-6.56-5.64-11.4-10.838-11.4s-9.568,4.836-10.838,11.4Z" transform="translate(-198.183 -334.483)" fill="#fff"/>
                          </g>
                        </g>
                        <rect id="Rectangle_449119" data-name="Rectangle 449119" width="43.412" height="4.055" transform="translate(53.886 19.011)" fill="#69ceed"/>
                        <rect id="Rectangle_449120" data-name="Rectangle 449120" width="27.279" height="4.055" transform="translate(53.886 26.819)" fill="#69ceed"/>
                        <rect id="Rectangle_449121" data-name="Rectangle 449121" width="19.986" height="4.055" transform="translate(53.886 34.893)" fill="#69ceed"/>
                        <rect id="Rectangle_449122" data-name="Rectangle 449122" width="45.824" height="18.628" transform="translate(17.143 57.857)" fill="#69ceed"/>
                        <rect id="Rectangle_449123" data-name="Rectangle 449123" width="45.824" height="3.971" transform="translate(68.761 57.857)" fill="#a9e1f7"/>
                        <rect id="Rectangle_449124" data-name="Rectangle 449124" width="25.393" height="3.971" transform="translate(68.761 65.401)" fill="#a9e1f7"/>
                      </g>
                    </g>
                    <g id="Group_1173344" data-name="Group 1173344" transform="translate(174.247 35.927)">
                      <g id="Group_1173343" data-name="Group 1173343">
                        <path id="Path_948476" data-name="Path 948476" d="M374.7,409.414H344.8a5.4,5.4,0,0,1-5.4-5.4V341.446a5.4,5.4,0,0,1,5.4-5.4h29.9a5.4,5.4,0,0,1,5.4,5.4v62.566A5.4,5.4,0,0,1,374.7,409.414Z" transform="translate(-339.402 -336.044)" fill="#fff"/>
                        <path id="Path_948477" data-name="Path 948477" d="M377.81,401.274V343.232a.134.134,0,0,0-.135-.135h-33.5a.135.135,0,0,0-.135.135v58.042Z" transform="translate(-340.573 -337.826)" fill="#3b568c"/>
                        <path id="Path_948478" data-name="Path 948478" d="M368.647,425.614a3.044,3.044,0,1,0-3.044,3.044A3.044,3.044,0,0,0,368.647,425.614Z" transform="translate(-345.253 -357.905)" fill="#3b568c"/>
                      </g>
                      <path id="Path_948479" data-name="Path 948479" d="M381.581,336.044H366.632v5.27h16.752a.134.134,0,0,1,.135.135v58.042H366.632v1.217a3.044,3.044,0,0,1,0,6.088v2.617h14.949a5.4,5.4,0,0,0,5.4-5.4V341.446A5.4,5.4,0,0,0,381.581,336.044Z" transform="translate(-346.282 -336.044)" fill="#eaecef"/>
                      <path id="Path_948480" data-name="Path 948480" d="M383.518,401.274V343.232a.134.134,0,0,0-.135-.135H366.632v58.177Z" transform="translate(-346.282 -337.826)" fill="#1f3255"/>
                      <path id="Path_948481" data-name="Path 948481" d="M369.676,425.614a3.044,3.044,0,0,0-3.044-3.044v6.088A3.044,3.044,0,0,0,369.676,425.614Z" transform="translate(-346.282 -357.905)" fill="#1f3255"/>
                    </g>
                    <g id="Group_1173349" data-name="Group 1173349" transform="translate(0 19.678)">
                      <path id="Path_948482" data-name="Path 948482" d="M163.63,314.3H108.918a2.677,2.677,0,0,0-2.669,2.669v83.4a2.677,2.677,0,0,0,2.669,2.669H163.63a2.677,2.677,0,0,0,2.669-2.669v-83.4A2.677,2.677,0,0,0,163.63,314.3Z" transform="translate(-106.249 -314.302)" fill="#fff"/>
                      <path id="Path_948483" data-name="Path 948483" d="M173.78,314.3H146.424v8.784h26.8V392.7h-26.8v10.343H173.78a2.677,2.677,0,0,0,2.669-2.669v-83.4A2.677,2.677,0,0,0,173.78,314.3Z" transform="translate(-116.399 -314.302)" fill="#eaecef"/>
                      <rect id="Rectangle_449125" data-name="Rectangle 449125" width="53.596" height="69.613" transform="translate(3.227 8.784)" fill="#3b568c"/>
                      <g id="Group_1173346" data-name="Group 1173346" transform="translate(26.379 80.265)">
                        <g id="Group_1173345" data-name="Group 1173345">
                          <path id="Path_948484" data-name="Path 948484" d="M148.837,425.347a3.646,3.646,0,1,0-3.646,3.646A3.646,3.646,0,0,0,148.837,425.347Z" transform="translate(-141.546 -421.701)" fill="#3b568c"/>
                        </g>
                        <path id="Path_948485" data-name="Path 948485" d="M150.07,425.347a3.646,3.646,0,0,0-3.646-3.646v7.29A3.645,3.645,0,0,0,150.07,425.347Z" transform="translate(-142.778 -421.701)" fill="#1f3255"/>
                      </g>
                      <g id="Group_1173348" data-name="Group 1173348" transform="translate(26.379 80.265)">
                        <g id="Group_1173347" data-name="Group 1173347">
                          <path id="Path_948486" data-name="Path 948486" d="M148.837,425.347a3.646,3.646,0,1,0-3.646,3.646A3.646,3.646,0,0,0,148.837,425.347Z" transform="translate(-141.546 -421.701)" fill="#3b568c"/>
                        </g>
                        <path id="Path_948487" data-name="Path 948487" d="M150.07,425.347a3.646,3.646,0,0,0-3.646-3.646v7.29A3.645,3.645,0,0,0,150.07,425.347Z" transform="translate(-142.778 -421.701)" fill="#1f3255"/>
                      </g>
                      <rect id="Rectangle_449126" data-name="Rectangle 449126" width="26.798" height="69.613" transform="translate(30.025 8.784)" fill="#1f3255"/>
                    </g>
                  </g>
                  <g id="Group_1173352" data-name="Group 1173352" transform="translate(94.79 29.02)">
                    <path id="Path_948488" data-name="Path 948488" d="M173.125,205.071H283.78c12.289,0,18.936-14.872,10.342-23.657a12.38,12.38,0,0,0-3.8-2.678c-2.693-1.2-6.647.62-9.155,1.793-3.524-8.293-10.418-14.192-18.531-15.114-2.787-13.789-13.171-24.034-25.562-24.034-10.8,0-20.069,7.778-24.122,18.9a19.753,19.753,0,0,0-6.424-1.082c-9.788,0-18.159,7.225-21.6,17.454-2.522-1.12-14.959-7.533-23.151,4.871a18.471,18.471,0,0,0-2.692,8.253A14.03,14.03,0,0,0,173.125,205.071Z" transform="translate(-159.014 -141.381)" fill="#fff"/>
                    <g id="Group_1173351" data-name="Group 1173351" transform="translate(47.002 17.113)">
                      <path id="Path_948489" data-name="Path 948489" d="M221.906,197.452v25.193a8.791,8.791,0,0,0,8.791,8.791H258.1a8.791,8.791,0,0,0,8.791-8.791V197.452a5.55,5.55,0,0,0-5.55-5.55H227.457A5.55,5.55,0,0,0,221.906,197.452Z" transform="translate(-221.906 -171.258)" fill="#ffd351"/>
                      <path id="Path_948490" data-name="Path 948490" d="M232.672,227.568a2.952,2.952,0,0,1-2.948-2.948v-24.9h33.3v24.9a2.952,2.952,0,0,1-2.948,2.948Z" transform="translate(-223.881 -173.233)" fill="#ffe473"/>
                      <path id="Path_948491" data-name="Path 948491" d="M237.74,184.825v-12.1a2.508,2.508,0,0,1,2.505-2.505h13.308a2.508,2.508,0,0,1,2.505,2.505v12.1H262v-12.1a8.446,8.446,0,0,0-8.446-8.446H240.245a8.446,8.446,0,0,0-8.446,8.446v12.1Z" transform="translate(-224.405 -164.279)" fill="#3b568c"/>
                      <path id="Path_948492" data-name="Path 948492" d="M255.366,212.095a5.079,5.079,0,1,0-7.469,4.481v5.577a2.39,2.39,0,0,0,4.78,0v-5.577A5.078,5.078,0,0,0,255.366,212.095Z" transform="translate(-227.793 -175.077)" fill="#3b568c"/>
                      <path id="Path_948493" data-name="Path 948493" d="M268.981,191.9H252.136v39.534h13.6a8.792,8.792,0,0,0,8.791-8.791V197.452A5.55,5.55,0,0,0,268.981,191.9Z" transform="translate(-229.544 -171.258)" fill="#f7b839"/>
                      <path id="Path_948494" data-name="Path 948494" d="M252.136,199.719v27.849h13.6a2.952,2.952,0,0,0,2.948-2.948v-24.9H252.136Z" transform="translate(-229.544 -173.233)" fill="#ffd351"/>
                      <path id="Path_948495" data-name="Path 948495" d="M258.692,164.28h-6.556v5.941h6.556a2.508,2.508,0,0,1,2.505,2.505v12.1h5.941v-12.1A8.446,8.446,0,0,0,258.692,164.28Z" transform="translate(-229.544 -164.279)" fill="#1f3255"/>
                      <path id="Path_948496" data-name="Path 948496" d="M252.136,207.022v17.513a2.385,2.385,0,0,0,2.291-2.38v-5.577a5.076,5.076,0,0,0-2.291-9.555Z" transform="translate(-229.544 -175.078)" fill="#1f3255"/>
                    </g>
                  </g>
                </g>
              </g>
            </g>
          </g>
        </g>
      </g>
    </g>
  </g>
</svg>
