<svg xmlns="http://www.w3.org/2000/svg" width="120.289" height="120" viewBox="0 0 120.289 120">
  <g id="Group_1169266" data-name="Group 1169266" transform="translate(-63.711 -6445)">
    <rect id="Rectangle_402033" data-name="Rectangle 402033" width="120" height="120" rx="8" transform="translate(64 6445)" fill="#6003fe"/>
    <g id="Rectangle_412110" data-name="Rectangle 412110" transform="translate(69 6450)" fill="none" stroke="#fff" stroke-width="1">
      <rect width="110" height="110" rx="6" stroke="none"/>
      <rect x="0.5" y="0.5" width="109" height="109" rx="5.5" fill="none"/>
    </g>
    <g id="Group_1155336" data-name="Group 1155336" transform="translate(-325 -2)">
      <path id="Path_927567" data-name="Path 927567" d="M60,0A60,60,0,1,1,0,60,60,60,0,0,1,60,0Z" transform="translate(388.711 6447)" fill="#6003fe"/>
      <g id="Ellipse_13474" data-name="Ellipse 13474" transform="translate(399 6457)" fill="none" stroke="#fff" stroke-width="1">
        <circle cx="50" cy="50" r="50" stroke="none"/>
        <circle cx="50" cy="50" r="49.5" fill="none"/>
      </g>
      <g id="Group_1172462" data-name="Group 1172462" transform="translate(416.71 6476.146)">
        <path id="Path_946989" data-name="Path 946989" d="M204.786,378.559h-9.249S195.463,385,192.291,389a1.3,1.3,0,0,0,1.034,2.1H207a1.3,1.3,0,0,0,1.034-2.1c-3.172-4-3.247-10.44-3.247-10.44Zm0,0" transform="translate(-167.559 -330.346)" fill="#bddff4"/>
        <path id="Path_946990" data-name="Path 946990" d="M271.69,391.1h-3.334a1.3,1.3,0,0,0,1.034-2.1c-3.172-4-3.247-10.439-3.247-10.439h3.332S269.551,385,272.723,389A1.3,1.3,0,0,1,271.69,391.1Zm0,0" transform="translate(-232.249 -330.346)" fill="#adc9e2"/>
        <path id="Path_946991" data-name="Path 946991" d="M70.79,51.882V92.9a1.3,1.3,0,0,1-1.3,1.3H8.792a1.3,1.3,0,0,1-1.3-1.3V51.882a1.95,1.95,0,0,1,1.95-1.948h59.4a1.949,1.949,0,0,1,1.949,1.948Zm0,0" transform="translate(-6.538 -43.574)" fill="#32dfb7"/>
        <path id="Path_946992" data-name="Path 946992" d="M50.527,49.934h52.337V87.977H50.527Zm0,0" transform="translate(-44.093 -43.574)" fill="#21c69c"/>
        <path id="Path_946993" data-name="Path 946993" d="M463.039,51.882V92.9a1.3,1.3,0,0,1-1.3,1.3h-4.1a1.3,1.3,0,0,0,1.3-1.3V51.882a1.949,1.949,0,0,0-1.95-1.948h4.1A1.949,1.949,0,0,1,463.039,51.882Zm0,0" transform="translate(-398.787 -43.574)" fill="#21c69c"/>
        <path id="Path_946994" data-name="Path 946994" d="M70.79,336.57v6.461a1.3,1.3,0,0,1-1.3,1.3H8.792a1.3,1.3,0,0,1-1.3-1.3V336.57Zm0,0" transform="translate(-6.538 -293.705)" fill="#4e7693"/>
        <path id="Path_946995" data-name="Path 946995" d="M467.491,336.57v6.461a1.3,1.3,0,0,1-1.3,1.3h-4.1a1.3,1.3,0,0,0,1.3-1.3V336.57Zm0,0" transform="translate(-403.239 -293.705)" fill="#38627c"/>
        <path id="Path_946996" data-name="Path 946996" d="M62.6,8.782V49.41h49.261V8.782A1.282,1.282,0,0,0,110.581,7.5h-46.7A1.282,1.282,0,0,0,62.6,8.782Zm0,0" transform="translate(-54.629 -6.545)" fill="#e3f4ff"/>
        <path id="Path_946997" data-name="Path 946997" d="M426.3,7.5v41.91h2.941V8.781A1.282,1.282,0,0,0,427.964,7.5Zm0,0" transform="translate(-372.012 -6.544)" fill="#bddff4"/>
        <path id="Path_946998" data-name="Path 946998" d="M62.594,122.5h49.262V138.52H62.594Zm0,0" transform="translate(-54.622 -106.895)" fill="#27e6fc"/>
        <path id="Path_946999" data-name="Path 946999" d="M242.554,187.062a6.161,6.161,0,0,1-.481,2.4H230.645a6.2,6.2,0,1,1,11.91-2.4Zm0,0" transform="translate(-200.851 -157.832)" fill="#fdb659"/>
        <path id="Path_947000" data-name="Path 947000" d="M275.046,187.062a6.158,6.158,0,0,1-.48,2.4h-2.905a6.2,6.2,0,0,0-4.263-8.419,6.2,6.2,0,0,1,7.648,6.023Zm0,0" transform="translate(-233.343 -157.832)" fill="#fede93"/>
        <path id="Path_947001" data-name="Path 947001" d="M90.3,172.919H62.594v-5.46l5.168-5.168a1.282,1.282,0,0,1,1.813,0l6.149,6.149,4.145-4.144a1.282,1.282,0,0,1,1.812,0Zm0,0" transform="translate(-54.622 -141.294)" fill="#12967e"/>
        <path id="Path_947002" data-name="Path 947002" d="M202.728,186.657h-3.545l-7.757-7.758.866-.866a1.282,1.282,0,0,1,1.812,0Zm0,0" transform="translate(-167.046 -155.032)" fill="#21c69c"/>
        <path id="Path_947003" data-name="Path 947003" d="M426.3,122.5h2.941V138.52H426.3Zm0,0" transform="translate(-372.012 -106.895)" fill="#06c7f4"/>
        <path id="Path_947004" data-name="Path 947004" d="M62.6,8.782V13.9H111.86V8.782A1.282,1.282,0,0,0,110.578,7.5H63.88A1.282,1.282,0,0,0,62.6,8.782Zm0,0" transform="translate(-54.626 -6.545)" fill="#618baa"/>
        <path id="Path_947005" data-name="Path 947005" d="M62.6,8.782V13.9H77.058V7.5H63.879A1.282,1.282,0,0,0,62.6,8.782Zm0,0" transform="translate(-54.625 -6.545)" fill="#32dfb7"/>
        <path id="Path_947006" data-name="Path 947006" d="M426.3,7.5v6.4h2.941V8.782A1.282,1.282,0,0,0,427.964,7.5Zm0,0" transform="translate(-372.012 -6.545)" fill="#4e7693"/>
        <path id="Path_947007" data-name="Path 947007" d="M124.933,282.5h-7.69a1.282,1.282,0,0,1-1.282-1.282v-1.11a1.282,1.282,0,0,1,1.282-1.282h7.69a1.282,1.282,0,0,1,1.282,1.282v1.11A1.282,1.282,0,0,1,124.933,282.5Zm0,0" transform="translate(-101.193 -243.314)" fill="#fdb659"/>
        <path id="Path_947008" data-name="Path 947008" d="M324.492,282.5H316.8a1.282,1.282,0,0,1-1.282-1.282v-1.11a1.282,1.282,0,0,1,1.282-1.282h7.691a1.282,1.282,0,0,1,1.282,1.282v1.11A1.282,1.282,0,0,1,324.492,282.5Zm0,0" transform="translate(-275.336 -243.314)" fill="#fc3e81"/>
        <path id="Path_947009" data-name="Path 947009" d="M62.3,5.4H58.189V2.237A2.239,2.239,0,0,0,55.952,0H9.254A2.239,2.239,0,0,0,7.017,2.237V5.4H2.9A2.908,2.908,0,0,0,0,8.309V49.326a2.257,2.257,0,0,0,2.255,2.255H14.991a.955.955,0,0,0,0-1.91H2.254a.345.345,0,0,1-.344-.344V43.82H63.3v5.506a.345.345,0,0,1-.344.344h-43.8a.955.955,0,0,0,0,1.91H26.64a15.17,15.17,0,0,1-2.657,6.478,2.223,2.223,0,0,0-.257,2.366,2.25,2.25,0,0,0,2.04,1.282H39.44a2.251,2.251,0,0,0,2.04-1.282,2.224,2.224,0,0,0-.257-2.366,15.159,15.159,0,0,1-2.657-6.478H62.952a2.257,2.257,0,0,0,2.255-2.255V26.2a.955.955,0,1,0-1.91,0V41.91H58.189V7.314H62.3a1,1,0,0,1,.994.994v5.331a.955.955,0,0,0,1.91,0V8.308a2.908,2.908,0,0,0-2.9-2.9ZM39.726,59.246a.312.312,0,0,1,.035.348.348.348,0,0,1-.32.2H25.766a.349.349,0,0,1-.32-.2.313.313,0,0,1,.035-.348,17.377,17.377,0,0,0,3.1-7.665h8.045A17.373,17.373,0,0,0,39.726,59.246ZM56.278,8.31v6.336H8.928V8.31ZM8.928,26.56l4.887-4.887a.327.327,0,0,1,.462,0l6.149,6.149a.955.955,0,0,0,1.351,0l4.145-4.144a.327.327,0,0,1,.462,0l6.993,6.993H8.928Zm27.15,4.11-4.684-4.684a5.241,5.241,0,0,1,9.154,4.684Zm-.569-8.59a7.1,7.1,0,0,0-5.474,2.547l-2.3-2.3a2.24,2.24,0,0,0-3.164,0L21.1,25.795l-5.473-5.473a2.239,2.239,0,0,0-3.164,0L8.927,23.858v-7.3H56.278V30.67H42.512a7.151,7.151,0,0,0-7-8.59ZM56.278,2.237V6.4H23.388V1.91H55.952a.327.327,0,0,1,.326.326ZM9.254,1.91H21.477V6.4H8.928V2.237a.327.327,0,0,1,.326-.326ZM1.91,8.309A1,1,0,0,1,2.9,7.315H7.017v34.6H1.91Zm7.018,33.6V32.58H56.279V41.91Zm0,0"/>
        <path id="Path_947010" data-name="Path 947010" d="M497.955,132.25a.955.955,0,0,0-.955.955v4.246a.955.955,0,1,0,1.91,0v-4.246A.955.955,0,0,0,497.955,132.25Zm0,0" transform="translate(-433.703 -115.407)"/>
        <path id="Path_947011" data-name="Path 947011" d="M110.094,194.036a.955.955,0,0,0-1.351,1.351l1.912,1.913a.955.955,0,0,0,1.351-1.351Zm0,0" transform="translate(-94.65 -169.079)"/>
        <path id="Path_947012" data-name="Path 947012" d="M94.318,81.692H109.88a.955.955,0,1,0,0-1.91H94.318a.955.955,0,1,0,0,1.91Zm0,0" transform="translate(-81.473 -69.62)"/>
        <path id="Path_947013" data-name="Path 947013" d="M269.17,81.692h2.181a.955.955,0,1,0,0-1.91H269.17a.955.955,0,0,0,0,1.91Zm0,0" transform="translate(-234.056 -69.62)"/>
        <path id="Path_947014" data-name="Path 947014" d="M308.6,81.692h2.181a.955.955,0,1,0,0-1.91H308.6a.955.955,0,1,0,0,1.91Zm0,0" transform="translate(-268.463 -69.62)"/>
        <path id="Path_947015" data-name="Path 947015" d="M348.033,81.692h2.181a.955.955,0,0,0,0-1.91h-2.181a.955.955,0,0,0,0,1.91Zm0,0" transform="translate(-302.875 -69.62)"/>
        <path id="Path_947016" data-name="Path 947016" d="M387.467,81.692h2.181a.955.955,0,0,0,0-1.91h-2.181a.955.955,0,1,0,0,1.91Zm0,0" transform="translate(-337.287 -69.62)"/>
        <path id="Path_947017" data-name="Path 947017" d="M92.181,27.36h.006a.955.955,0,0,0,.005-1.91h-.016a.955.955,0,0,0,0,1.91Zm0,0" transform="translate(-79.608 -22.208)"/>
        <path id="Path_947018" data-name="Path 947018" d="M113.6,27.422a.955.955,0,0,0,0-1.91h-.01a.955.955,0,0,0,.01,1.91Zm0,0" transform="translate(-98.296 -22.263)"/>
        <path id="Path_947019" data-name="Path 947019" d="M135.005,27.485h.006a.955.955,0,0,0,.005-1.91H135a.955.955,0,0,0,0,1.91Zm0,0" transform="translate(-116.979 -22.317)"/>
        <path id="Path_947020" data-name="Path 947020" d="M242.7,361.449a.955.955,0,0,0,0-1.91H240.4a.955.955,0,0,0,0,1.91Zm0,0" transform="translate(-208.947 -313.749)"/>
        <path id="Path_947021" data-name="Path 947021" d="M118.388,271.324H110.7a2.24,2.24,0,0,0-2.237,2.237v1.11a2.24,2.24,0,0,0,2.237,2.237h7.69a2.239,2.239,0,0,0,2.237-2.237v-1.11A2.239,2.239,0,0,0,118.388,271.324Zm.327,3.348a.327.327,0,0,1-.326.327H110.7a.327.327,0,0,1-.326-.327v-1.11a.327.327,0,0,1,.326-.327h7.691a.327.327,0,0,1,.326.327Zm0,0" transform="translate(-94.648 -236.769)"/>
        <path id="Path_947022" data-name="Path 947022" d="M317.947,271.324h-7.691a2.239,2.239,0,0,0-2.237,2.237v1.11a2.239,2.239,0,0,0,2.237,2.237h7.691a2.239,2.239,0,0,0,2.237-2.237v-1.11A2.239,2.239,0,0,0,317.947,271.324Zm.326,3.348a.327.327,0,0,1-.326.327h-7.691a.327.327,0,0,1-.326-.327v-1.11a.327.327,0,0,1,.326-.327h7.691a.327.327,0,0,1,.326.327Zm0,0" transform="translate(-268.791 -236.769)"/>
        <path id="Path_947023" data-name="Path 947023" d="M249.451,266.629a.955.955,0,0,0-.955.955V272.2a.955.955,0,1,0,1.91,0v-4.614A.955.955,0,0,0,249.451,266.629Zm0,0" transform="translate(-216.848 -232.672)"/>
        <path id="Path_947024" data-name="Path 947024" d="M342.381,161.859h7.2a.955.955,0,1,0,0-1.91h-7.2a.955.955,0,1,0,0,1.91Zm0,0" transform="translate(-297.943 -139.578)"/>
        <path id="Path_947025" data-name="Path 947025" d="M388.927,184.773h-1.461a.955.955,0,0,0,0,1.91h1.461a.955.955,0,0,0,0-1.91Zm0,0" transform="translate(-337.286 -161.241)"/>
        <path id="Path_947026" data-name="Path 947026" d="M388.927,201.547h-1.461a.955.955,0,0,0,0,1.91h1.461a.955.955,0,0,0,0-1.91Zm0,0" transform="translate(-337.286 -175.878)"/>
      </g>
    </g>
  </g>
</svg>
