<svg xmlns="http://www.w3.org/2000/svg" width="120" height="120" viewBox="0 0 120 120">
  <g id="Group_1169271" data-name="Group 1169271" transform="translate(-64 -6445)">
    <rect id="Rectangle_402033" data-name="Rectangle 402033" width="120" height="120" rx="8" transform="translate(64 6445)" fill="#6003fe"/>
    <g id="Rectangle_412110" data-name="Rectangle 412110" transform="translate(69 6450)" fill="none" stroke="#fff" stroke-width="1">
      <rect width="110" height="110" rx="6" stroke="none"/>
      <rect x="0.5" y="0.5" width="109" height="109" rx="5.5" fill="none"/>
    </g>
    <g id="Group_1155336" data-name="Group 1155336" transform="translate(-325 -2)">
      <circle id="Ellipse_13473" data-name="Ellipse 13473" cx="60" cy="60" r="60" transform="translate(389 6447)" fill="#6003fe"/>
      <g id="Ellipse_13474" data-name="Ellipse 13474" transform="translate(399 6457)" fill="none" stroke="#fff" stroke-width="1">
        <circle cx="50" cy="50" r="50" stroke="none"/>
        <circle cx="50" cy="50" r="49.5" fill="none"/>
      </g>
      <g id="Group_1172465" data-name="Group 1172465" transform="translate(418.292 6446.371)">
        <path id="Path_947048" data-name="Path 947048" d="M65.677,88.041H8.939A1.439,1.439,0,0,1,7.5,86.6V42.939A1.439,1.439,0,0,1,8.939,41.5H65.677a1.439,1.439,0,0,1,1.439,1.439V86.6A1.439,1.439,0,0,1,65.677,88.041Z" transform="translate(-6.6 -6.6)" fill="#ecf4ff"/>
        <path id="Path_947049" data-name="Path 947049" d="M466.1,41.5h-3.6a1.439,1.439,0,0,1,1.439,1.439V86.6a1.439,1.439,0,0,1-1.439,1.439h3.6a1.439,1.439,0,0,0,1.439-1.439V42.939A1.439,1.439,0,0,0,466.1,41.5Z" transform="translate(-407.022 -6.6)" fill="#ddeafb"/>
        <path id="Path_947050" data-name="Path 947050" d="M67.116,51.974H7.5V42.939A1.439,1.439,0,0,1,8.939,41.5H65.677a1.439,1.439,0,0,1,1.439,1.439Z" transform="translate(-6.6 -6.6)" fill="#756e78"/>
        <path id="Path_947051" data-name="Path 947051" d="M466.1,41.5h-3.6a1.439,1.439,0,0,1,1.439,1.439v9.034h3.6V42.939A1.439,1.439,0,0,0,466.1,41.5Z" transform="translate(-407.022 -6.6)" fill="#665e66"/>
        <path id="Path_947052" data-name="Path 947052" d="M281.545,73.756h-2.157a.721.721,0,0,1-.721-.721V70.878a.721.721,0,0,1,.721-.721h2.157a.721.721,0,0,1,.721.721v2.157A.721.721,0,0,1,281.545,73.756Z" transform="translate(-245.24 -31.82)" fill="#ffe07d"/>
        <path id="Path_947053" data-name="Path 947053" d="M341.545,73.756h-2.157a.721.721,0,0,1-.721-.721V70.878a.721.721,0,0,1,.721-.721h2.157a.721.721,0,0,1,.721.721v2.157A.721.721,0,0,1,341.545,73.756Z" transform="translate(-298.043 -31.82)" fill="#86f1a7"/>
        <path id="Path_947054" data-name="Path 947054" d="M401.545,73.756h-2.157a.721.721,0,0,1-.721-.721V70.878a.721.721,0,0,1,.721-.721h2.157a.721.721,0,0,1,.721.721v2.157A.721.721,0,0,1,401.545,73.756Z" transform="translate(-350.846 -31.82)" fill="#dd4fb1"/>
        <path id="Path_947055" data-name="Path 947055" d="M345.73,311.784h7.2v7.538h-7.2Z" transform="translate(-304.259 -244.463)" fill="#756e78"/>
        <path id="Path_947056" data-name="Path 947056" d="M375.73,311.784h3.6v7.538h-3.6Z" transform="translate(-330.661 -244.463)" fill="#665e66"/>
        <path id="Path_947057" data-name="Path 947057" d="M319.763,186.565a7.628,7.628,0,0,1-7.628-7.628v-4.719a7.628,7.628,0,1,1,15.257,0v4.719A7.628,7.628,0,0,1,319.763,186.565Z" transform="translate(-274.694 -116.686)" fill="#61a2f9"/>
        <path id="Path_947058" data-name="Path 947058" d="M362.529,166.59a7.641,7.641,0,0,0-1.8.215,7.63,7.63,0,0,1,5.829,7.413v4.719a7.63,7.63,0,0,1-5.829,7.413,7.628,7.628,0,0,0,9.428-7.413v-4.719A7.628,7.628,0,0,0,362.529,166.59Z" transform="translate(-317.46 -116.686)" fill="#5490f9"/>
        <path id="Path_947059" data-name="Path 947059" d="M309.259,372.3H292.594a1.863,1.863,0,0,1-1.863-1.863v-2.126a3.807,3.807,0,0,1,3.807-3.807h12.777a3.807,3.807,0,0,1,3.807,3.807v2.126A1.864,1.864,0,0,1,309.259,372.3Z" transform="translate(-255.857 -290.856)" fill="#61a2f9"/>
        <path id="Path_947060" data-name="Path 947060" d="M402.589,364.5h-3.6a3.807,3.807,0,0,1,3.807,3.807v2.126a1.863,1.863,0,0,1-1.863,1.863h3.6a1.863,1.863,0,0,0,1.863-1.863v-2.126A3.807,3.807,0,0,0,402.589,364.5Z" transform="translate(-351.13 -290.856)" fill="#5490f9"/>
        <path id="Path_947061" data-name="Path 947061" d="M308.723,226.29H293.129a2.4,2.4,0,0,1-2.4-2.4v-2.639a2.4,2.4,0,0,1,2.4-2.4h15.594a2.4,2.4,0,0,1,2.4,2.4v2.639A2.4,2.4,0,0,1,308.723,226.29Z" transform="translate(-255.856 -162.68)" fill="#dd4fb1"/>
        <path id="Path_947062" data-name="Path 947062" d="M414.329,218.854h-3.6a2.4,2.4,0,0,1,2.4,2.4v2.639a2.4,2.4,0,0,1-2.4,2.4h3.6a2.4,2.4,0,0,0,2.4-2.4v-2.639A2.4,2.4,0,0,0,414.329,218.854Z" transform="translate(-361.462 -162.68)" fill="#da2ea2"/>
        <path id="Path_947063" data-name="Path 947063" d="M72.52,186.094H51.78a.96.96,0,0,1-.96-.96V171.46a.96.96,0,0,1,.96-.96H72.52a.96.96,0,0,1,.96.96v13.674A.96.96,0,0,1,72.52,186.094Z" transform="translate(-44.724 -120.127)" fill="#ffe07d"/>
        <path id="Path_947064" data-name="Path 947064" d="M205.321,170.5h-3.6a.96.96,0,0,1,.96.96v13.674a.96.96,0,0,1-.96.96h3.6a.96.96,0,0,0,.96-.96V171.46A.96.96,0,0,0,205.321,170.5Z" transform="translate(-177.525 -120.127)" fill="#ffd064"/>
        <path id="Path_947065" data-name="Path 947065" d="M72.482,356.094H51.731a.96.96,0,0,1-.96-.96V341.46a.96.96,0,0,1,.96-.96H72.482a.96.96,0,0,1,.96.96v13.674A.96.96,0,0,1,72.482,356.094Z" transform="translate(-44.681 -269.735)" fill="#86f1a7"/>
        <path id="Path_947066" data-name="Path 947066" d="M205.351,340.5h-3.6a.96.96,0,0,1,.96.96v13.674a.96.96,0,0,1-.96.96h3.6a.96.96,0,0,0,.96-.96V341.46A.96.96,0,0,0,205.351,340.5Z" transform="translate(-177.551 -269.735)" fill="#80e29d"/>
        <g id="Group_1172464" data-name="Group 1172464" transform="translate(0 34)">
          <path id="Path_947067" data-name="Path 947067" d="M60.516,69.045a.9.9,0,0,0,.9-.9V36.339A2.342,2.342,0,0,0,59.076,34H15.918a.9.9,0,0,0,0,1.8H59.076a.54.54,0,0,1,.54.54v8.135H1.8V36.339a.54.54,0,0,1,.54-.54h9.116a.9.9,0,0,0,0-1.8H2.339A2.342,2.342,0,0,0,0,36.339V80a2.342,2.342,0,0,0,2.339,2.339H5.19V85.4A1.862,1.862,0,0,0,7.05,87.259H27.8A1.862,1.862,0,0,0,29.661,85.4V82.341H59.076A2.342,2.342,0,0,0,61.415,80V72.408a.9.9,0,0,0-1.8,0V80a.54.54,0,0,1-.54.54H55.991a2.748,2.748,0,0,0,.174-.964V77.451a4.712,4.712,0,0,0-4.707-4.707h-1.89V69.5a8.444,8.444,0,0,0,.884-.63,8.566,8.566,0,0,0,2.85-4.386,3.3,3.3,0,0,0,2.863-3.269V58.573A3.3,3.3,0,0,0,53.3,55.3a8.529,8.529,0,0,0-16.464,0,3.3,3.3,0,0,0-2.863,3.269v2.639a3.3,3.3,0,0,0,2.864,3.269,8.544,8.544,0,0,0,3.733,5v3.259h-1.89a4.712,4.712,0,0,0-4.707,4.707v2.126a2.751,2.751,0,0,0,.174.964H29.66V71.725A1.862,1.862,0,0,0,27.8,69.866H7.05A1.862,1.862,0,0,0,5.19,71.725v8.816H2.339A.54.54,0,0,1,1.8,80V46.273H59.616V68.145a.9.9,0,0,0,.9.9ZM45.069,50.8a6.774,6.774,0,0,1,6.339,4.47H38.729A6.694,6.694,0,0,1,45.069,50.8Zm-9.3,10.407V58.573a1.5,1.5,0,0,1,1.5-1.5H52.866a1.5,1.5,0,0,1,1.5,1.5v2.639a1.5,1.5,0,0,1-1.5,1.5H37.273A1.5,1.5,0,0,1,35.773,61.212Zm2.957,3.3H51.409a6.731,6.731,0,0,1-12.679,0Zm3.641,5.824a8.441,8.441,0,0,0,2.7.445,8.531,8.531,0,0,0,2.7-.441v2.407h-5.4Zm-6.6,9.243V77.451a2.911,2.911,0,0,1,2.908-2.908H51.458a2.911,2.911,0,0,1,2.908,2.908v2.126a.965.965,0,0,1-.964.964H36.737a.965.965,0,0,1-.964-.964ZM6.99,71.725a.06.06,0,0,1,.06-.06H27.8a.06.06,0,0,1,.06.06V85.4a.06.06,0,0,1-.06.06H7.05a.06.06,0,0,1-.06-.06Z" transform="translate(0 -34)"/>
          <path id="Path_947068" data-name="Path 947068" d="M274.944,68.056a1.622,1.622,0,0,0,1.62-1.62V64.278a1.622,1.622,0,0,0-1.62-1.62h-2.157a1.622,1.622,0,0,0-1.62,1.62v2.157a1.622,1.622,0,0,0,1.62,1.62Zm-1.978-3.6h1.8v1.8h-1.8Z" transform="translate(-238.64 -59.22)"/>
          <path id="Path_947069" data-name="Path 947069" d="M334.944,68.056a1.622,1.622,0,0,0,1.62-1.62V64.278a1.622,1.622,0,0,0-1.62-1.62h-2.157a1.622,1.622,0,0,0-1.62,1.62v2.157a1.622,1.622,0,0,0,1.62,1.62Zm-1.978-3.6h1.8v1.8h-1.8Z" transform="translate(-291.443 -59.22)"/>
          <path id="Path_947070" data-name="Path 947070" d="M394.944,68.056a1.622,1.622,0,0,0,1.62-1.62V64.278a1.622,1.622,0,0,0-1.62-1.62h-2.157a1.622,1.622,0,0,0-1.62,1.62v2.157a1.622,1.622,0,0,0,1.62,1.62Zm-1.978-3.6h1.8v1.8h-1.8Z" transform="translate(-344.246 -59.22)"/>
          <path id="Path_947071" data-name="Path 947071" d="M325.972,389.5h-1.924a.9.9,0,1,0,0,1.8h1.924a.9.9,0,1,0,0-1.8Z" transform="translate(-284.387 -346.857)"/>
          <path id="Path_947072" data-name="Path 947072" d="M45.179,163a1.861,1.861,0,0,0-1.859,1.859v13.674a1.861,1.861,0,0,0,1.859,1.859h20.74a1.861,1.861,0,0,0,1.859-1.859V164.859A1.861,1.861,0,0,0,65.919,163Zm20.8,1.859v13.674a.06.06,0,0,1-.06.06H45.179a.06.06,0,0,1-.06-.06V164.859a.06.06,0,0,1,.06-.06h20.74A.06.06,0,0,1,65.979,164.859Z" transform="translate(-38.124 -147.526)"/>
          <path id="Path_947073" data-name="Path 947073" d="M79.22,197.8h3.905a.9.9,0,1,0,0-1.8H79.22a.9.9,0,1,0,0,1.8Z" transform="translate(-68.925 -176.568)"/>
          <path id="Path_947074" data-name="Path 947074" d="M93.482,228H79.22a.9.9,0,1,0,0,1.8H93.482a.9.9,0,1,0,0-1.8Z" transform="translate(-68.925 -204.729)"/>
          <path id="Path_947075" data-name="Path 947075" d="M89.5,260H79.22a.9.9,0,1,0,0,1.8H89.5a.9.9,0,1,0,0-1.8Z" transform="translate(-68.925 -232.891)"/>
          <path id="Path_947076" data-name="Path 947076" d="M79.189,367.8H83.1a.9.9,0,1,0,0-1.8H79.189a.9.9,0,1,0,0,1.8Z" transform="translate(-68.898 -326.176)"/>
          <path id="Path_947077" data-name="Path 947077" d="M79.189,399.8h14.27a.9.9,0,0,0,0-1.8H79.189a.9.9,0,0,0,0,1.8Z" transform="translate(-68.898 -354.338)"/>
          <path id="Path_947078" data-name="Path 947078" d="M79.189,431.8H89.472a.9.9,0,1,0,0-1.8H79.189a.9.9,0,1,0,0,1.8Z" transform="translate(-68.898 -382.499)"/>
          <path id="Path_947079" data-name="Path 947079" d="M313.853,244.153h13.261a.9.9,0,0,0,0-1.8H313.853a.9.9,0,1,0,0,1.8Z" transform="translate(-275.414 -217.362)"/>
        </g>
      </g>
    </g>
  </g>
</svg>
