<svg xmlns="http://www.w3.org/2000/svg" width="100" height="100" viewBox="0 0 100 100">
  <g id="Group_1169261" data-name="Group 1169261" transform="translate(-637 -6992)">
    <g id="Group_1098742" data-name="Group 1098742" transform="translate(637.242 6992)">
      <rect id="Rectangle_400898" data-name="Rectangle 400898" width="100" height="100" rx="50" transform="translate(-0.242)" fill="#fff" opacity="0.859"/>
      <g id="Rectangle_400907" data-name="Rectangle 400907" transform="translate(-0.242)" fill="none" stroke="#00bdff" stroke-linecap="round" stroke-width="3" stroke-dasharray="0 7">
        <rect width="100" height="100" rx="50" stroke="none"/>
        <rect x="1.5" y="1.5" width="97" height="97" rx="48.5" fill="none"/>
      </g>
    </g>
    <g id="Group_1107006" data-name="Group 1107006" transform="translate(645.109 7000.157)">
      <rect id="Rectangle_400898-2" data-name="Rectangle 400898" width="84" height="84" rx="42" transform="translate(-0.399 -0.157)" fill="#6003fe" opacity="0.859"/>
      <rect id="Rectangle_400907-2" data-name="Rectangle 400907" width="84" height="84" rx="42" transform="translate(-0.398 -0.157)" fill="none"/>
    </g>
    <g id="Group_1165324" data-name="Group 1165324" transform="translate(643.646 7016.412)">
      <g id="Group_1165322" data-name="Group 1165322" transform="translate(17.308 0.75)">
        <path id="Path_938626" data-name="Path 938626" d="M106.907,104.334v36.688a3.312,3.312,0,0,0,3.312,3.312h31.463a3.312,3.312,0,0,0,3.312-3.312V104.334Z" transform="translate(-98.625 -94.655)" fill="#f9f5f3"/>
        <path id="Path_938627" data-name="Path 938627" d="M435.12,104.334v36.688a3.312,3.312,0,0,1-3.312,3.312h2.3a3.312,3.312,0,0,0,3.312-3.312V104.334Z" transform="translate(-391.049 -94.655)" fill="#f9eae0"/>
        <g id="Group_1165320" data-name="Group 1165320" transform="translate(0 23.181)">
          <path id="Path_938628" data-name="Path 938628" d="M66.857,277.534,53.933,264.609l-4.684,4.684,12.925,12.925a.8.8,0,0,0,.565.234h.714l3.639-3.639V278.1A.8.8,0,0,0,66.857,277.534Z" transform="translate(-46.73 -262.09)" fill="#a0c8ff"/>
          <path id="Path_938629" data-name="Path 938629" d="M98.7,277.534,85.777,264.609l-1.147,1.147L98,279.131a.8.8,0,0,1,.216.4l.715-.715V278.1A.8.8,0,0,0,98.7,277.534Z" transform="translate(-78.574 -262.09)" fill="#91b2fa"/>
          <path id="Path_938630" data-name="Path 938630" d="M186.041,400.6v-3.553a.8.8,0,0,0-.051-.28l-4.581,4.581a.8.8,0,0,0,.28.051h3.553A.8.8,0,0,0,186.041,400.6Z" transform="translate(-165.68 -381.04)" fill="#f9eae0"/>
          <path id="Path_938631" data-name="Path 938631" d="M26.874,239.893l-2.342,2.342a1.656,1.656,0,0,0,0,2.342l2.342,2.342,4.684-4.684-2.342-2.342a1.656,1.656,0,0,0-2.342,0Z" transform="translate(-24.047 -239.408)" fill="#fa8ebb"/>
          <path id="Path_938632" data-name="Path 938632" d="M52.567,239.877l.024.021,3.489,3.489,1.147-1.147L54.885,239.9A1.655,1.655,0,0,0,52.567,239.877Z" transform="translate(-49.716 -239.413)" fill="#f57fb0"/>
        </g>
        <path id="Path_938633" data-name="Path 938633" d="M141.681,40.634H110.218a3.312,3.312,0,0,0-3.312,3.312v4.968h38.087V43.946a3.312,3.312,0,0,0-3.312-3.312Z" transform="translate(-98.624 -37.322)" fill="#ffce69"/>
        <path id="Path_938634" data-name="Path 938634" d="M434.107,40.634h-2.3a3.312,3.312,0,0,1,3.312,3.312v4.968h2.3V43.946a3.312,3.312,0,0,0-3.312-3.312Z" transform="translate(-391.049 -37.322)" fill="#ffbd61"/>
        <g id="Group_1165321" data-name="Group 1165321" transform="translate(13.25)">
          <path id="Path_938635" data-name="Path 938635" d="M156.607,12.468a1.656,1.656,0,1,0,3.312,0V9.156a1.656,1.656,0,1,0-3.312,0Z" transform="translate(-156.607 -7.5)" fill="#bdd3dd"/>
          <path id="Path_938636" data-name="Path 938636" d="M405.107,12.468a1.656,1.656,0,1,0,3.312,0V9.156a1.656,1.656,0,1,0-3.312,0Z" transform="translate(-380.268 -7.5)" fill="#bdd3dd"/>
          <path id="Path_938637" data-name="Path 938637" d="M239.44,12.468a1.656,1.656,0,1,0,3.312,0V9.156a1.656,1.656,0,1,0-3.312,0Z" transform="translate(-231.16 -7.5)" fill="#bdd3dd"/>
          <path id="Path_938638" data-name="Path 938638" d="M322.274,12.468a1.656,1.656,0,1,0,3.312,0V9.156a1.656,1.656,0,1,0-3.312,0Z" transform="translate(-305.714 -7.5)" fill="#bdd3dd"/>
        </g>
        <path id="Path_938639" data-name="Path 938639" d="M411.323,7.5a1.65,1.65,0,0,0-1.15.466,1.65,1.65,0,0,1,.506,1.19v3.312a1.65,1.65,0,0,1-.506,1.19,1.655,1.655,0,0,0,2.805-1.19V9.156A1.656,1.656,0,0,0,411.323,7.5Z" transform="translate(-371.578 -7.5)" fill="#abc4d6"/>
        <path id="Path_938640" data-name="Path 938640" d="M328.49,7.5a1.649,1.649,0,0,0-1.149.466,1.65,1.65,0,0,1,.506,1.19v3.312a1.65,1.65,0,0,1-.506,1.19,1.655,1.655,0,0,0,2.806-1.19V9.156A1.656,1.656,0,0,0,328.49,7.5Z" transform="translate(-297.025 -7.5)" fill="#abc4d6"/>
        <path id="Path_938641" data-name="Path 938641" d="M245.657,7.5a1.65,1.65,0,0,0-1.15.466,1.65,1.65,0,0,1,.506,1.19v3.312a1.65,1.65,0,0,1-.506,1.19,1.655,1.655,0,0,0,2.805-1.19V9.156A1.656,1.656,0,0,0,245.657,7.5Z" transform="translate(-222.471 -7.5)" fill="#abc4d6"/>
        <path id="Path_938642" data-name="Path 938642" d="M162.824,7.5a1.649,1.649,0,0,0-1.15.466,1.65,1.65,0,0,1,.506,1.19v3.312a1.65,1.65,0,0,1-.506,1.19,1.655,1.655,0,0,0,2.805-1.19V9.156A1.656,1.656,0,0,0,162.824,7.5Z" transform="translate(-147.917 -7.5)" fill="#abc4d6"/>
      </g>
      <g id="Group_1165323" data-name="Group 1165323" transform="translate(16.559 0)">
        <path id="Path_938643" data-name="Path 938643" d="M60.365,3.312h-.906V2.406a2.406,2.406,0,1,0-4.811,0v.906H51.179V2.406a2.406,2.406,0,1,0-4.811,0v.906H42.9V2.406a2.406,2.406,0,1,0-4.811,0v.906H34.619V2.406a2.406,2.406,0,1,0-4.811,0v.906H28.9A4.066,4.066,0,0,0,24.84,7.373V25.719l-1.834-1.834a2.408,2.408,0,0,0-3.4,0l-2.342,2.342a2.408,2.408,0,0,0,0,3.4l7.578,7.578v9.909A4.066,4.066,0,0,0,28.9,51.178H54.4a.75.75,0,1,0,0-1.5H28.9a2.565,2.565,0,0,1-2.562-2.562v-8.41l6.116,6.116a.731.731,0,0,0,.056.05l.04.03.019.014c.017.011.035.022.053.032l.01.006c.019.01.038.019.058.027l.009,0c.019.008.038.014.057.021l.012,0,.055.014.016,0,.054.008.019,0c.024,0,.049,0,.073,0h4.373l.951.951a.75.75,0,1,0,1.06-1.06l-.951-.951V39.609q0-.037,0-.074c0-.005,0-.011,0-.016s0-.038-.008-.057l0-.014c0-.019-.009-.038-.014-.057l0-.01c-.006-.02-.013-.04-.021-.059l0-.006c-.009-.02-.018-.04-.028-.06l0-.007c-.01-.019-.021-.037-.033-.055l-.012-.016c-.01-.014-.02-.029-.032-.043s-.032-.038-.05-.056l-6.116-6.116h25.8a.75.75,0,0,0,0-1.5h-26.5a.747.747,0,0,0-.555.247L26.34,27.218V13.091H62.927V18.2a.75.75,0,1,0,1.5,0V7.373a4.066,4.066,0,0,0-4.061-4.061ZM36.92,43.543H34.8l2.124-2.124Zm-15.725-12.1,1.282-1.282L34.267,41.95l-1.282,1.282ZM35.327,40.89,23.537,29.1l1.282-1.282L36.609,39.608Zm-17-13.6,2.342-2.342a.907.907,0,0,1,1.282,0l1.812,1.812-1.812,1.812h0l-1.812,1.812-1.812-1.812A.907.907,0,0,1,18.323,27.288ZM57.053,1.5a.907.907,0,0,1,.906.906V5.718a.906.906,0,1,1-1.813,0V4.063h0V2.406a.907.907,0,0,1,.906-.906Zm-8.28,0a.907.907,0,0,1,.906.906V5.718a.906.906,0,1,1-1.813,0V4.063h0V2.406a.907.907,0,0,1,.906-.906Zm-9.186.906a.906.906,0,1,1,1.813,0V4.061h0V5.718a.906.906,0,1,1-1.813,0ZM32.214,1.5a.907.907,0,0,1,.906.906V4.061h0V5.718a.906.906,0,1,1-1.813,0V4.063h0V2.406A.907.907,0,0,1,32.214,1.5ZM26.34,11.592V7.373A2.565,2.565,0,0,1,28.9,4.811h.906v.906a2.406,2.406,0,1,0,4.811,0V4.811h3.469v.906a2.406,2.406,0,0,0,4.811,0V4.811h3.469v.906a2.406,2.406,0,1,0,4.811,0V4.811h3.469v.906a2.406,2.406,0,1,0,4.811,0V4.811h.906a2.565,2.565,0,0,1,2.562,2.562v4.218Z" transform="translate(-16.559 0)"/>
        <path id="Path_938644" data-name="Path 938644" d="M424.7,204.619a.75.75,0,0,0-.75.75v25.914a2.565,2.565,0,0,1-2.562,2.562h-2.962a.75.75,0,0,0,0,1.5h2.962a4.066,4.066,0,0,0,4.062-4.062V205.369A.75.75,0,0,0,424.7,204.619Z" transform="translate(-377.58 -184.166)"/>
        <path id="Path_938645" data-name="Path 938645" d="M158.14,167.166h26.5a.75.75,0,1,0,0-1.5h-26.5a.75.75,0,0,0,0,1.5Z" transform="translate(-143.313 -149.107)"/>
        <path id="Path_938646" data-name="Path 938646" d="M158.14,216.866h26.5a.75.75,0,1,0,0-1.5h-26.5a.75.75,0,1,0,0,1.5Z" transform="translate(-143.313 -193.84)"/>
        <path id="Path_938647" data-name="Path 938647" d="M158.14,266.566h26.5a.75.75,0,1,0,0-1.5h-26.5a.75.75,0,1,0,0,1.5Z" transform="translate(-143.313 -238.572)"/>
        <path id="Path_938648" data-name="Path 938648" d="M267.395,365.217a.75.75,0,0,0-.75-.75H249.258a.75.75,0,1,0,0,1.5h17.388A.75.75,0,0,0,267.395,365.217Z" transform="translate(-225.323 -328.036)"/>
      </g>
    </g>
  </g>
</svg>
