<svg xmlns="http://www.w3.org/2000/svg" width="120" height="120" viewBox="0 0 120 120">
  <g id="Group_1169273" data-name="Group 1169273" transform="translate(-64 -6445)">
    <rect id="Rectangle_402033" data-name="Rectangle 402033" width="120" height="120" rx="8" transform="translate(64 6445)" fill="#6003fe"/>
    <g id="Rectangle_412110" data-name="Rectangle 412110" transform="translate(69 6450)" fill="none" stroke="#fff" stroke-width="1">
      <rect width="110" height="110" rx="6" stroke="none"/>
      <rect x="0.5" y="0.5" width="109" height="109" rx="5.5" fill="none"/>
    </g>
    <g id="Group_1155336" data-name="Group 1155336" transform="translate(-325 -2)">
      <circle id="Ellipse_13473" data-name="Ellipse 13473" cx="60" cy="60" r="60" transform="translate(389 6447)" fill="#6003fe"/>
      <g id="Ellipse_13474" data-name="Ellipse 13474" transform="translate(399 6457)" fill="none" stroke="#fff" stroke-width="1">
        <circle cx="50" cy="50" r="50" stroke="none"/>
        <circle cx="50" cy="50" r="49.5" fill="none"/>
      </g>
      <g id="layer1" transform="translate(418.099 6476.1)">
        <path id="path7833" d="M4.22.265a2.891,2.891,0,0,0-2.9,2.9V35.994a2.891,2.891,0,0,0,2.9,2.9H54.434a2.891,2.891,0,0,0,2.9-2.9V3.162a2.891,2.891,0,0,0-2.9-2.9Z" transform="translate(3.505 0.701)" fill="#549ad4"/>
        <path id="path7863" d="M51.16.265c2.97,36.8-48.611,37.66-48.611,37.66l-.6.9a2.92,2.92,0,0,0,.6.062H52.763a2.891,2.891,0,0,0,2.9-2.9V3.161a2.891,2.891,0,0,0-2.9-2.9Z" transform="translate(5.176 0.701)" fill="#3588cb"/>
        <path id="path7838" d="M4.679,1.359a2.293,2.293,0,0,0-2.3,2.3V29.7a2.293,2.293,0,0,0,2.3,2.3H48.366a2.293,2.293,0,0,0,2.3-2.3V3.657a2.293,2.293,0,0,0-2.3-2.3Z" transform="translate(6.31 3.602)" fill="#e4eff8"/>
        <path id="path7858" d="M47.625,1.36C46.549,24.5,17.046,29.681,2.466,30.829a2.284,2.284,0,0,0,1.99,1.164H48.143a2.292,2.292,0,0,0,2.3-2.3V3.657a2.292,2.292,0,0,0-2.3-2.3Z" transform="translate(6.533 3.603)" fill="#c4dcf0"/>
        <path id="path7816" d="M17.821,34.089,10.7,19.82a2.464,2.464,0,0,1,.884-3.3,2.409,2.409,0,0,1,3.3.884l2.942,5.1V8.017a1.931,1.931,0,1,1,3.863,0v8.691a1.931,1.931,0,1,1,3.863,0v.966a1.931,1.931,0,0,1,3.863,0v.966a1.931,1.931,0,1,1,3.863,0V27.33c0,2.9-1.931,4.828-1.931,6.76Z" transform="translate(27.565 16.125)" fill="#ffd1b5"/>
        <path id="path7828" d="M24.291,9c.361,14.365-9.954,17.095-11.179,17.369H24.161c0-1.931,1.931-3.863,1.931-6.76V10.918A1.921,1.921,0,0,0,24.291,9Z" transform="translate(34.744 23.846)" fill="#ffb98d"/>
        <path id="path7825" d="M12.957,8.862a2.409,2.409,0,0,0-1.377.319,2.464,2.464,0,0,0-.883,3.3l7.124,14.27h1.931l-7.124-14.27a2.464,2.464,0,0,1,.883-3.3,2.387,2.387,0,0,1,.251-.113A2.412,2.412,0,0,0,12.957,8.862Z" transform="translate(27.565 23.465)" fill="#f5f9fb"/>
        <path id="path7790" d="M4.089,5.671A4.838,4.838,0,0,0,.265,10.714V18.93c0,2.738,2.9,8.532,2.9,10.464v3.863H17.818c0-1.926,2.058-4.814,2.069-8.691H12.756c-.481-3.992-3.8-4.965-3.8-6.76V13.664c-.1-3.425-2.484-4.9-3.863-4.434V6.869Z" transform="translate(0.701 15.026)" fill="#ffd1b5"/>
        <path id="path7820" d="M4.089,5.671A4.838,4.838,0,0,0,.265,10.714V18.93c0,2.738,2.9,8.532,2.9,10.464v3.863H5.093V29.394c0-1.931-2.9-7.725-2.9-10.464V10.714a5.093,5.093,0,0,1,2.348-4.5Z" transform="translate(0.701 15.026)" fill="#f5f9fb"/>
        <path id="path7810" d="M15.62,10.848c-3.332,6.7-14.562,8.691-14.562,8.691H15.715c0-1.926,2.058-4.814,2.069-8.691Z" transform="translate(2.804 28.744)" fill="#ffb98d"/>
        <path id="rect7783" d="M13.838,13.758H27.357a1.927,1.927,0,0,1,1.931,1.931v6.76a1.927,1.927,0,0,1-1.931,1.931H13.838a1.927,1.927,0,0,1-1.931-1.931V15.69a1.927,1.927,0,0,1,1.931-1.931Z" transform="translate(31.548 36.456)" fill="#549ad4"/>
        <path id="path7785" d="M28.026,13.8c-1.779,7.129-11.356,9.1-16.1,9.1a1.921,1.921,0,0,0,1.843,1.379H27.292a1.927,1.927,0,0,0,1.931-1.931v-6.76a1.926,1.926,0,0,0-1.2-1.786Z" transform="translate(31.613 36.561)" fill="#3588cb"/>
        <path id="path7787" d="M13.838,13.841a1.927,1.927,0,0,0-1.931,1.931V22.23a1.927,1.927,0,0,0,1.931,1.931h1.931a1.927,1.927,0,0,1-1.931-1.931V15.772a1.927,1.927,0,0,1,1.931-1.931Z" transform="translate(31.548 36.675)" fill="#f5f9fb"/>
        <path id="rect7771" d="M2.725,13.229H16.244a1.927,1.927,0,0,1,1.931,1.931v8.691a1.927,1.927,0,0,1-1.931,1.931H2.725A1.927,1.927,0,0,1,.794,23.851V15.16a1.927,1.927,0,0,1,1.931-1.931Z" transform="translate(2.103 35.054)" fill="#549ad4"/>
        <path id="path7773" d="M16.914,13.269C15.134,20.4,5.087,23.345.818,24.3a1.921,1.921,0,0,0,1.843,1.379H16.18a1.927,1.927,0,0,0,1.931-1.931V15.055a1.926,1.926,0,0,0-1.2-1.786Z" transform="translate(2.168 35.159)" fill="#3588cb"/>
        <path id="rect7780" d="M2.725,13.229A1.927,1.927,0,0,0,.794,15.161v8.691a1.927,1.927,0,0,0,1.931,1.931H4.656a1.927,1.927,0,0,1-1.931-1.931V15.161a1.927,1.927,0,0,1,1.931-1.931Z" transform="translate(2.103 35.054)" fill="#f5f9fb"/>
        <path id="path7803" d="M6.614,10.848c-.011,3.876-2.069,6.765-2.069,8.691H6.476c0-1.926,2.058-4.814,2.069-8.691Z" transform="translate(12.043 28.744)" fill="#ffb98d"/>
        <path id="path7808" d="M4.22,11.14v5.107c0,1.794,3.319,2.768,3.8,6.76H9.952c-.481-3.992-3.8-5.931-3.8-7.725V11.14c-.1-3.425-2.484-4.9-4.828-4.434.413-.462,2.793,1.009,2.9,4.434Z" transform="translate(3.505 17.55)" fill="#ffb98d"/>
        <path id="path7844" d="M3.44,12.832a9.657,9.657,0,1,1,19.313,0v3.863H3.44Z" transform="translate(9.114 8.413)" fill="#ff5151"/>
        <g id="Group_1172466" data-name="Group 1172466" transform="translate(19.313 8.691)">
          <path id="path7856" d="M5.292,9.683V8.718a2.9,2.9,0,1,1,5.794,0v.966Z" transform="translate(-5.292 6.733)" fill="#ffca28"/>
          <path id="rect7840" d="M1.931,5.794A1.927,1.927,0,0,0,3.863,3.863V1.931A1.931,1.931,0,1,0,0,1.931V3.863A1.927,1.927,0,0,0,1.931,5.794Z" transform="translate(29.935 5.794) rotate(180)" fill="#ffca28"/>
          <path id="rect7842" d="M12.25,4.233a1.927,1.927,0,0,1,1.931,1.931V8.1a1.931,1.931,0,1,1-3.863,0V6.165A1.927,1.927,0,0,1,12.25,4.233Z" transform="translate(8.029 2.526)" fill="#ffca28"/>
        </g>
        <path id="path7848" d="M7.488,3.175a9.7,9.7,0,0,0-1.931.194,9.659,9.659,0,0,1,7.725,9.462v3.863h3.863V12.832A9.657,9.657,0,0,0,7.488,3.175Z" transform="translate(14.722 8.413)" fill="#ff2929"/>
        <path id="path7853" d="M13.1,3.175A9.657,9.657,0,0,0,3.44,12.832v3.863H5.371V12.832a9.659,9.659,0,0,1,8.691-9.609q-.477-.047-.966-.047Z" transform="translate(9.114 8.413)" fill="#f5f9fb"/>
        <path id="rect820" d="M7.727,0A3.877,3.877,0,0,0,3.865,3.865V19.949A5.4,5.4,0,0,0,.934,22.261,6.722,6.722,0,0,0,0,25.741v8.217a19.6,19.6,0,0,0,1.5,5.852c.364,1.021.723,2.011.985,2.837a8.247,8.247,0,0,1,.405,1.767v3.649a2.889,2.889,0,0,0-.962,2.146V58.9a2.915,2.915,0,0,0,2.9,2.9H18.349a2.914,2.914,0,0,0,2.893-2.9V50.21a2.907,2.907,0,0,0-1.654-2.61c.165-.66.5-1.567.877-2.622a17.188,17.188,0,0,0,1.049-4.419H39.482L44,49.6a2.9,2.9,0,0,0-1.511,2.539V58.9a2.914,2.914,0,0,0,2.893,2.9H58.9a2.922,2.922,0,0,0,2.9-2.9V52.142A2.913,2.913,0,0,0,60,49.465a16.554,16.554,0,0,1,.756-1.878A9.935,9.935,0,0,0,61.8,43.453V3.864A3.879,3.879,0,0,0,57.937,0Zm0,1.931h50.21a1.908,1.908,0,0,1,1.931,1.933V32.033a2.681,2.681,0,0,0-.969-.17,2.529,2.529,0,0,0-.962.175V6.758a2.906,2.906,0,0,0-2.893-2.893H10.62A2.906,2.906,0,0,0,7.727,6.758V23.53c-.059-.026-.118-.053-.177-.077A3.113,3.113,0,0,0,5.8,23.246V3.865A1.908,1.908,0,0,1,7.727,1.931ZM9.658,25.286V6.758A.937.937,0,0,1,10.62,5.8H55.044a.937.937,0,0,1,.962.962V31.074a2.56,2.56,0,0,0-.962-.174,2.79,2.79,0,0,0-1.432.372,2.871,2.871,0,0,0-2.433-1.341,3.069,3.069,0,0,0-.969.168V26.076H53.1a.967.967,0,0,0,0-1.933H50.21a2.9,2.9,0,1,0-5.8,0H35.726a.967.967,0,0,0,0,1.933h8.689V35.02l-1.139-1.973a3.391,3.391,0,0,0-4.613-1.241,3.348,3.348,0,0,0-1.652,2.957H12.12c-.445-.488-.848-.884-1.113-1.205-.3-.365-.387-.562-.387-.724V28.676a6.657,6.657,0,0,0-.962-3.39ZM47.317,7.727a2.914,2.914,0,0,0-2.9,2.893H35.725a.967.967,0,0,0,0,1.933h8.689a2.9,2.9,0,0,0,5.8,0h2.9a.967.967,0,0,0,0-1.933h-2.9a2.906,2.906,0,0,0-2.893-2.893Zm0,1.931a.937.937,0,0,1,.962.962v1.933a.967.967,0,1,1-1.933,0V10.62A.945.945,0,0,1,47.317,9.658Zm-25.105.962a10.636,10.636,0,0,0-10.62,10.622v3.863a.966.966,0,0,0,.962.971H31.861a.966.966,0,0,0,.971-.971V21.243A10.635,10.635,0,0,0,22.212,10.62Zm-.969,1.986v.917a.966.966,0,0,0,1.931,0v-.917a8.647,8.647,0,0,1,4.464,1.841l-.651.651a.968.968,0,1,0,1.369,1.369l.651-.651a8.643,8.643,0,0,1,1.839,4.464h-.907a.966.966,0,1,0,0,1.931h.96v1.931H26.076a3.845,3.845,0,0,0-.947-2.524L26.753,20a.963.963,0,1,0-1.362-1.362l-1.882,1.873a3.821,3.821,0,0,0-1.3-.226,3.877,3.877,0,0,0-3.863,3.863H13.523V22.212h.962a.966.966,0,0,0,0-1.931h-.909a8.646,8.646,0,0,1,1.841-4.464l.651.651A.966.966,0,0,0,17.429,15.1l-.647-.647a8.645,8.645,0,0,1,4.46-1.845Zm18.346,1.878a2.906,2.906,0,0,0-2.893,2.893h-.969a.967.967,0,0,0,0,1.933h.969a2.9,2.9,0,1,0,5.8,0h10.62a.967.967,0,0,0,0-1.933H42.491a2.914,2.914,0,0,0-2.9-2.893Zm0,1.931a.945.945,0,0,1,.971.962v1.933a.967.967,0,1,1-1.933,0V17.378A.937.937,0,0,1,39.588,16.416ZM3.864,22.029V32.838a.966.966,0,0,0,1.931,0V25.79c0-.464.1-.53.228-.6a1,1,0,0,1,.8.049c.776.315,1.8,1.374,1.867,3.478v4.113a3.1,3.1,0,0,0,.828,1.96c.421.511.9.957,1.347,1.462a5.884,5.884,0,0,1,1.69,4.306.966.966,0,0,0,1.931,0h5.09a15.641,15.641,0,0,1-.928,3.77,19.739,19.739,0,0,0-.826,2.987H4.826v-2.9a7.964,7.964,0,0,0-.492-2.352c-.281-.889-.652-1.882-1.013-2.893a21.549,21.549,0,0,1-1.39-5.211V25.741a4.958,4.958,0,0,1,.649-2.48,3.26,3.26,0,0,1,1.284-1.232Zm18.347.183a1.917,1.917,0,0,1,1.931,1.931H20.281a1.917,1.917,0,0,1,1.931-1.931Zm26.067,1.931V36.695a.966.966,0,0,0,1.931,0V32.832a.966.966,0,1,1,1.931,0v3.863a.966.966,0,0,0,1.931,0v-2.9a.967.967,0,0,1,1.933,0v2.9a.966.966,0,0,0,1.931,0V34.764a.966.966,0,1,1,1.931,0v8.689a8.089,8.089,0,0,1-.883,3.35,12.537,12.537,0,0,0-.943,2.446H45.982L39.126,35.512a1.469,1.469,0,0,1,.5-2.033,1.428,1.428,0,0,1,1.982.528l2.944,5.1a.966.966,0,0,0,1.8-.477c0-4.826,0-9.662,0-14.483a.967.967,0,1,1,1.933,0ZM13.53,36.695H37.553l.964,1.931H14.264a7.77,7.77,0,0,0-.734-1.931Zm-8.7,12.553H18.349a.937.937,0,0,1,.962.962V58.9a.943.943,0,0,1-.962.969H4.826a.943.943,0,0,1-.962-.969V50.21a.937.937,0,0,1,.962-.962ZM45.384,51.18H58.9a.943.943,0,0,1,.969.962V58.9a.949.949,0,0,1-.969.969H45.384a.949.949,0,0,1-.969-.969V52.142a.943.943,0,0,1,.969-.962Z" transform="translate(0 0)" fill="#333"/>
      </g>
    </g>
  </g>
</svg>
