<svg xmlns="http://www.w3.org/2000/svg" width="60" height="62.451" viewBox="0 0 60 62.451">
  <g id="Group_1172486" data-name="Group 1172486" transform="translate(-2.2 -0.988)">
    <g id="Group_1172470" data-name="Group 1172470" transform="translate(19.352 25.469)">
      <g id="Group_1172468" data-name="Group 1172468">
        <g id="Group_1172467" data-name="Group 1172467">
          <path id="Path_947080" data-name="Path 947080" d="M34.824,51.563a.95.95,0,0,1-.976-.78c-.2-.78-.683-1.268-1.171-1.268s-.976.585-1.268,1.366a.95.95,0,0,1-1.073.683,11.134,11.134,0,0,1-5.073-2.146,1.034,1.034,0,0,1-.293-1.268,1.642,1.642,0,0,0,.1-1.756c-.39-.39-1.073-.293-1.756.1a1.064,1.064,0,0,1-1.268-.293A13.1,13.1,0,0,1,19.9,41.124a.9.9,0,0,1,.683-1.073c.78-.2,1.268-.683,1.268-1.171s-.585-.976-1.366-1.171a.95.95,0,0,1-.683-1.073,11.134,11.134,0,0,1,2.146-5.073,1.034,1.034,0,0,1,1.268-.293,1.642,1.642,0,0,0,1.756.1c.39-.39.293-1.073-.1-1.756a1.064,1.064,0,0,1,.293-1.268A13.753,13.753,0,0,1,30.239,26.2a.9.9,0,0,1,1.073.683c.2.78.683,1.268,1.171,1.268s.976-.585,1.268-1.366a.95.95,0,0,1,1.073-.683A11.134,11.134,0,0,1,39.9,28.246a1.034,1.034,0,0,1,.293,1.268,1.642,1.642,0,0,0-.1,1.756,1.642,1.642,0,0,0,1.756-.1,1.064,1.064,0,0,1,1.268.293,13.753,13.753,0,0,1,2.146,5.073.9.9,0,0,1-.683,1.073c-.78.293-1.366.78-1.366,1.268,0,.39.585.878,1.366,1.171a.95.95,0,0,1,.683,1.073A11.134,11.134,0,0,1,43.117,46.2a1.034,1.034,0,0,1-1.268.293,1.641,1.641,0,0,0-1.756-.1,1.642,1.642,0,0,0,.1,1.756,1.064,1.064,0,0,1-.293,1.268,13.753,13.753,0,0,1-5.073,2.146h0Zm-7.8-3.317a7.7,7.7,0,0,0,2.927,1.171,3.26,3.26,0,0,1,2.732-1.951,3.212,3.212,0,0,1,2.732,1.854,14.4,14.4,0,0,0,2.829-1.171,3.1,3.1,0,0,1,.585-3.22,3.147,3.147,0,0,1,3.22-.585,7.7,7.7,0,0,0,1.171-2.927,3.26,3.26,0,0,1-1.951-2.732,3.32,3.32,0,0,1,1.951-2.732,15.277,15.277,0,0,0-1.171-2.927,3.1,3.1,0,0,1-3.22-.585,3.147,3.147,0,0,1-.585-3.22,7.7,7.7,0,0,0-2.927-1.171A3.26,3.26,0,0,1,32.58,30a3.212,3.212,0,0,1-2.732-1.854,14.4,14.4,0,0,0-2.829,1.171,3.1,3.1,0,0,1-.585,3.22,3.147,3.147,0,0,1-3.22.585,7.7,7.7,0,0,0-1.171,2.927,3.26,3.26,0,0,1,1.951,2.732,3.212,3.212,0,0,1-1.854,2.732,14.4,14.4,0,0,0,1.171,2.829,3.1,3.1,0,0,1,3.22.585,3.6,3.6,0,0,1,.488,3.317Z" transform="translate(-19.781 -26.081)" fill="#6003fe"/>
        </g>
      </g>
      <g id="Group_1172469" data-name="Group 1172469" transform="translate(6.653 6.458)">
        <path id="Path_947081" data-name="Path 947081" d="M32.844,45.188a6.244,6.244,0,1,1,6.244-6.244A6.288,6.288,0,0,1,32.844,45.188Zm0-10.537a4.293,4.293,0,1,0,4.293,4.293A4.331,4.331,0,0,0,32.844,34.651Z" transform="translate(-26.6 -32.7)" fill="#6003fe"/>
      </g>
    </g>
    <g id="Group_1172474" data-name="Group 1172474" transform="translate(15.761 5.683)">
      <g id="Group_1172472" data-name="Group 1172472" transform="translate(0 0)">
        <g id="Group_1172471" data-name="Group 1172471">
          <path id="Path_947082" data-name="Path 947082" d="M25.856,24.532a9.289,9.289,0,0,1-3.707-.683.909.909,0,0,1-.585-1.171c.1-.39,0-.78-.2-.878s-.488,0-.878.293a1.026,1.026,0,0,1-1.268,0,8.8,8.8,0,0,1-2.244-3.122,1.067,1.067,0,0,1,.39-1.268c.39-.2.585-.488.488-.683-.1-.293-.488-.39-.878-.488a1.037,1.037,0,0,1-.878-.976,9.289,9.289,0,0,1,.683-3.707,1,1,0,0,1,1.171-.585c.39.1.78,0,.878-.2s0-.488-.293-.878a1.026,1.026,0,0,1,0-1.268,9.151,9.151,0,0,1,3.22-2.244.9.9,0,0,1,1.171.39c.2.39.488.585.683.488.293-.1.39-.488.488-.878a1.037,1.037,0,0,1,.976-.878,9.289,9.289,0,0,1,3.707.683.909.909,0,0,1,.585,1.171c-.1.39,0,.78.2.878s.488,0,.878-.293c.2-.293.78-.293,1.171.1a8.8,8.8,0,0,1,2.244,3.122,1.067,1.067,0,0,1-.39,1.268.786.786,0,0,0-.488.585c.1.293.488.39.976.488a1.037,1.037,0,0,1,.878.976,9.289,9.289,0,0,1-.683,3.707,1,1,0,0,1-1.171.585c-.39-.1-.78,0-.878.2s0,.488.293.878a1.026,1.026,0,0,1,0,1.268,8.8,8.8,0,0,1-3.122,2.244A1.067,1.067,0,0,1,28,23.263c-.2-.39-.488-.585-.683-.488-.293.1-.39.488-.488.878a1.037,1.037,0,0,1-.976.878Zm-2.341-2.244c.488.1,1.073.2,1.561.293a2.367,2.367,0,0,1,1.659-1.659,2.437,2.437,0,0,1,2.341.683,6.263,6.263,0,0,0,1.268-.976,2.375,2.375,0,0,1,2.146-3.512c.1-.488.2-1.073.293-1.561A2.367,2.367,0,0,1,31.124,13.9a2.328,2.328,0,0,1,.683-2.244,6.263,6.263,0,0,0-.976-1.268A2.375,2.375,0,0,1,27.32,8.239a13.3,13.3,0,0,0-1.659-.39A2.367,2.367,0,0,1,24,9.507a2.7,2.7,0,0,1-2.341-.683,3.712,3.712,0,0,0-1.268.878,2.375,2.375,0,0,1-2.146,3.512c-.1.488-.2,1.073-.293,1.561a2.367,2.367,0,0,1,1.659,1.659,2.437,2.437,0,0,1-.683,2.341,6.263,6.263,0,0,0,.976,1.268,2.4,2.4,0,0,1,2.439.1A2.974,2.974,0,0,1,23.515,22.288Z" transform="translate(-16.1 -5.8)" fill="#6003fe"/>
        </g>
      </g>
      <g id="Group_1172473" data-name="Group 1172473" transform="translate(5.329 5.521)">
        <path id="Path_947083" data-name="Path 947083" d="M25.5,19.3a3.921,3.921,0,0,1-3.8-3.024,3.492,3.492,0,0,1,.488-2.927A4.1,4.1,0,0,1,24.623,11.6a3.783,3.783,0,0,1,2.927.39,3.834,3.834,0,0,1,1.756,2.439,3.492,3.492,0,0,1-.488,2.927,4.1,4.1,0,0,1-2.439,1.756A2.849,2.849,0,0,1,25.5,19.3Zm.1-5.854a.88.88,0,0,0-.488.1,1.818,1.818,0,0,0-1.171.878,1.556,1.556,0,0,0-.2,1.463,1.952,1.952,0,1,0,3.8-.878,1.555,1.555,0,0,0-.878-1.171,1.816,1.816,0,0,0-1.073-.39Z" transform="translate(-21.562 -11.459)" fill="#6003fe"/>
      </g>
    </g>
    <g id="Group_1172479" data-name="Group 1172479" transform="translate(2.2 0.988)">
      <g id="Group_1172475" data-name="Group 1172475" transform="translate(35.805 6.061)">
        <path id="Path_947084" data-name="Path 947084" d="M53.339,17.054a.922.922,0,0,1-.976-.976,6.954,6.954,0,0,0-6.927-6.927A7.2,7.2,0,0,0,40.559,11.1a.966.966,0,0,1-1.366-1.366,8.9,8.9,0,0,1,15.122,6.341.922.922,0,0,1-.976.976Z" transform="translate(-38.9 -7.2)" fill="#6003fe"/>
      </g>
      <g id="Group_1172476" data-name="Group 1172476" transform="translate(8.182)">
        <path id="Path_947085" data-name="Path 947085" d="M11.868,19.731a.95.95,0,0,1-.976-.78A15,15,0,0,1,22.5,1.292,15.126,15.126,0,0,1,39.868,11.634a.958.958,0,0,1-1.854.488,13,13,0,0,0-25.171,6.439.988.988,0,0,1-.78,1.171h-.2Z" transform="translate(-10.587 -0.988)" fill="#6003fe"/>
      </g>
      <g id="Group_1172477" data-name="Group 1172477" transform="translate(40.878 13.963)">
        <path id="Path_947086" data-name="Path 947086" d="M53.271,35.2h-8.2a.976.976,0,0,1,0-1.951h8.2a8,8,0,1,0,0-16,.976.976,0,0,1,0-1.951,9.951,9.951,0,1,1,0,19.9Z" transform="translate(-44.1 -15.3)" fill="#6003fe"/>
      </g>
      <g id="Group_1172478" data-name="Group 1172478" transform="translate(0 14.841)">
        <path id="Path_947087" data-name="Path 947087" d="M20.932,35.224l-9.268-.1A9.485,9.485,0,0,1,10.785,16.2a1.143,1.143,0,0,1,1.073.878,1.143,1.143,0,0,1-.878,1.073,7.528,7.528,0,0,0,.683,15.024l9.268.1a.976.976,0,1,1,0,1.951Z" transform="translate(-2.2 -16.2)" fill="#6003fe"/>
      </g>
    </g>
    <g id="Group_1172480" data-name="Group 1172480" transform="translate(42.298 42.073)">
      <path id="Path_947088" data-name="Path 947088" d="M57.056,56.368a.922.922,0,0,1-.976-.976V49.441a4.5,4.5,0,0,0-4.39-4.39H44.276a.976.976,0,0,1,0-1.951H51.69a6.457,6.457,0,0,1,6.341,6.341v5.951A.922.922,0,0,1,57.056,56.368Z" transform="translate(-43.3 -43.1)" fill="#6003fe"/>
    </g>
    <g id="Group_1172481" data-name="Group 1172481" transform="translate(7.371 42.073)">
      <path id="Path_947089" data-name="Path 947089" d="M8.476,56.368a.922.922,0,0,1-.976-.976V49.441A6.457,6.457,0,0,1,13.841,43.1h6.634a.976.976,0,1,1,0,1.951H13.841a4.5,4.5,0,0,0-4.39,4.39v5.951A.922.922,0,0,1,8.476,56.368Z" transform="translate(-7.5 -43.1)" fill="#6003fe"/>
    </g>
    <g id="Group_1172482" data-name="Group 1172482" transform="translate(31.273 47.048)">
      <path id="Path_947090" data-name="Path 947090" d="M32.976,56.493A.922.922,0,0,1,32,55.517V49.176a.976.976,0,1,1,1.951,0v6.341A.922.922,0,0,1,32.976,56.493Z" transform="translate(-32 -48.2)" fill="#6003fe"/>
    </g>
    <g id="Group_1172483" data-name="Group 1172483" transform="translate(26.59 53.39)">
      <path id="Path_947091" data-name="Path 947091" d="M37.639,64.749H28.176a.922.922,0,0,1-.976-.976v-8.1a.922.922,0,0,1,.976-.976h9.463a.922.922,0,0,1,.976.976v8.1A.922.922,0,0,1,37.639,64.749ZM29.151,62.8h7.512V56.651H29.151Z" transform="translate(-27.2 -54.7)" fill="#6003fe"/>
    </g>
    <g id="Group_1172484" data-name="Group 1172484" transform="translate(50.298 53.39)">
      <path id="Path_947092" data-name="Path 947092" d="M61.939,64.749H52.476a.922.922,0,0,1-.976-.976v-8.1a.922.922,0,0,1,.976-.976h9.463a.922.922,0,0,1,.976.976v8.1A.922.922,0,0,1,61.939,64.749ZM53.451,62.8h7.512V56.651H53.451Z" transform="translate(-51.5 -54.7)" fill="#6003fe"/>
    </g>
    <g id="Group_1172485" data-name="Group 1172485" transform="translate(2.59 53.39)">
      <path id="Path_947093" data-name="Path 947093" d="M13.039,64.749H3.576a.922.922,0,0,1-.976-.976v-8.1a.922.922,0,0,1,.976-.976h9.463a.922.922,0,0,1,.976.976v8.1A.922.922,0,0,1,13.039,64.749ZM4.551,62.8h7.512V56.651H4.551Z" transform="translate(-2.6 -54.7)" fill="#6003fe"/>
    </g>
  </g>
</svg>
