<svg xmlns="http://www.w3.org/2000/svg" width="120" height="120" viewBox="0 0 120 120">
  <g id="Group_1169268" data-name="Group 1169268" transform="translate(-64 -6445)">
    <rect id="Rectangle_402033" data-name="Rectangle 402033" width="120" height="120" rx="8" transform="translate(64 6445)" fill="#6003fe"/>
    <g id="Rectangle_412110" data-name="Rectangle 412110" transform="translate(69 6450)" fill="none" stroke="#fff" stroke-width="1">
      <rect width="110" height="110" rx="6" stroke="none"/>
      <rect x="0.5" y="0.5" width="109" height="109" rx="5.5" fill="none"/>
    </g>
    <g id="Group_1155336" data-name="Group 1155336" transform="translate(-325 -2)">
      <circle id="Ellipse_13473" data-name="Ellipse 13473" cx="60" cy="60" r="60" transform="translate(389 6447)" fill="#6003fe"/>
      <g id="Ellipse_13474" data-name="Ellipse 13474" transform="translate(399 6457)" fill="none" stroke="#fff" stroke-width="1">
        <circle cx="50" cy="50" r="50" stroke="none"/>
        <circle cx="50" cy="50" r="49.5" fill="none"/>
      </g>
      <g id="Group_1172514" data-name="Group 1172514" transform="translate(416.711 6474.922)">
        <circle id="Ellipse_13662" data-name="Ellipse 13662" cx="2" cy="2" r="2" transform="translate(12 3)" fill="#46ccff"/>
        <circle id="Ellipse_13663" data-name="Ellipse 13663" cx="2" cy="2" r="2" transform="translate(48 3)" fill="#46ccff"/>
        <path id="Path_947156" data-name="Path 947156" d="M26,48H38V58H26Z" fill="#323232"/>
        <path id="Path_947157" data-name="Path 947157" d="M15,57H49v4H15Z" fill="#b90000"/>
        <path id="Path_947158" data-name="Path 947158" d="M3,11H61V49H3Z" fill="#6090bf"/>
        <path id="Path_947159" data-name="Path 947159" d="M3,45H61v4H3Z" fill="#b90000"/>
        <g id="Group_1172513" data-name="Group 1172513">
          <circle id="Ellipse_13664" data-name="Ellipse 13664" cx="2" cy="2" r="2" transform="translate(7 28)" fill="#efaf22"/>
          <circle id="Ellipse_13665" data-name="Ellipse 13665" cx="2" cy="2" r="2" transform="translate(53 28)" fill="#efaf22"/>
          <path id="Path_947160" data-name="Path 947160" d="M41,32V28H38.71a6.77,6.77,0,0,0-.55-1.33l1.62-1.62L37,22.22l-1.62,1.62A6.77,6.77,0,0,0,34,23.29V21H30v2.29a6.77,6.77,0,0,0-1.33.55l-1.62-1.62-2.83,2.83,1.62,1.62A6.77,6.77,0,0,0,25.29,28H23v4h2.29a6.77,6.77,0,0,0,.55,1.33L24.22,35l2.83,2.83,1.62-1.62a6.77,6.77,0,0,0,1.33.55V39h4V36.71a6.77,6.77,0,0,0,1.33-.55L37,37.78,39.78,35l-1.62-1.62A6.77,6.77,0,0,0,38.71,32Z" fill="#efaf22"/>
        </g>
        <circle id="Ellipse_13666" data-name="Ellipse 13666" cx="3" cy="3" r="3" transform="translate(29 27)" fill="#ffd6ba"/>
        <path id="Path_947161" data-name="Path 947161" d="M61,10H38V6h9.18a3,3,0,1,0,0-2H37a1,1,0,0,0-1,1v5H28V5a1,1,0,0,0-1-1H16.82a3,3,0,1,0,0,2H26v4H3a1,1,0,0,0-1,1V49a1,1,0,0,0,1,1H25v6H15a1,1,0,0,0-1,1v4a1,1,0,0,0,1,1H49a1,1,0,0,0,1-1V57a1,1,0,0,0-1-1H39V50H61a1,1,0,0,0,1-1V11A1,1,0,0,0,61,10ZM50,4a1,1,0,1,1-1,1A1,1,0,0,1,50,4ZM14,6a1,1,0,1,1,1-1A1,1,0,0,1,14,6Zm22,6v9.76l-.88.87L35,22.58V21a1,1,0,0,0-1-1H30a1,1,0,0,0-1,1v1.58l-.12.05L28,21.76V12Zm1.28,15.15a5.8,5.8,0,0,1,.47,1.14,1,1,0,0,0,1,.71H40v2H38.71a1,1,0,0,0-1,.71,5.8,5.8,0,0,1-.47,1.14A1,1,0,0,0,37.45,34l.91.91L37,36.36l-1-.91a1,1,0,0,0-1.19-.17,5.8,5.8,0,0,1-1.14.47,1,1,0,0,0-.71,1V38H31V36.71a1,1,0,0,0-.71-1,5.8,5.8,0,0,1-1.14-.47,1,1,0,0,0-1.19.17l-.91.91L25.64,35l.91-.91a1,1,0,0,0,.17-1.19,5.8,5.8,0,0,1-.47-1.14,1,1,0,0,0-1-.71H24V29h1.29a1,1,0,0,0,1-.71,5.8,5.8,0,0,1,.47-1.14A1,1,0,0,0,26.55,26l-.91-.91,1.41-1.41.91.91a1,1,0,0,0,1.19.17,5.8,5.8,0,0,1,1.14-.47,1,1,0,0,0,.71-1V22h2v1.29a1,1,0,0,0,.71,1,5.8,5.8,0,0,1,1.14.47A1,1,0,0,0,36,24.55l.91-.91,1.41,1.41-.91.91a1,1,0,0,0-.13,1.19ZM26,12v9.86l-2.49,2.48a1,1,0,0,0,0,1.42l1.12,1.12a.61.61,0,0,1-.05.12H23a1,1,0,0,0-1,1v1H11.82a3,3,0,1,0,0,2H22v1a1,1,0,0,0,1,1h1.58a.61.61,0,0,1,.05.12l-1.12,1.12a1,1,0,0,0-.29.71,1.05,1.05,0,0,0,.29.71l2.83,2.83a1,1,0,0,0,1.42,0l1.12-1.12.12.05V39a1,1,0,0,0,1,1h4a1,1,0,0,0,1-1V37.42l.12-.05,1.12,1.12a1,1,0,0,0,1.42,0l2.83-2.83a1.05,1.05,0,0,0,.29-.71,1,1,0,0,0-.29-.71l-1.12-1.12a.61.61,0,0,1,.05-.12H41a1,1,0,0,0,1-1V31H52.18a3,3,0,1,0,0-2H42V28a1,1,0,0,0-1-1H39.42a.61.61,0,0,1-.05-.12l1.12-1.12a1,1,0,0,0,0-1.42L38,21.86V12H60V44H4V12ZM10,30a1,1,0,1,1-1-1A1,1,0,0,1,10,30Zm44,0a1,1,0,1,1,1,1A1,1,0,0,1,54,30ZM48,60H16V58H48ZM37,56H27V50H37ZM4,48V46H60v2Z"/>
        <path id="Path_947162" data-name="Path 947162" d="M32,26a4,4,0,1,0,4,4A4,4,0,0,0,32,26Zm0,6a2,2,0,1,1,2-2A2,2,0,0,1,32,32Z"/>
        <path id="Path_947163" data-name="Path 947163" d="M7,16h5v8a1,1,0,0,0,1,1h6a1,1,0,0,0,0-2H14V15a1,1,0,0,0-1-1H7a1,1,0,0,0,0,2Z"/>
        <path id="Path_947164" data-name="Path 947164" d="M57,14H51a1,1,0,0,0-1,1v8H45a1,1,0,0,0,0,2h6a1,1,0,0,0,1-1V16h5a1,1,0,0,0,0-2Z"/>
      </g>
    </g>
  </g>
</svg>
