<svg xmlns="http://www.w3.org/2000/svg" width="50" height="57.507" viewBox="0 0 50 57.507">
  <g id="Layer_32_copy_11" data-name="Layer 32 copy 11" transform="translate(-9.56 -3.5)">
    <path id="Path_947224" data-name="Path 947224" d="M41.69,3.5H23.077a.977.977,0,0,0-.655.272L9.832,16.349A.977.977,0,0,0,9.56,17V48.2a4.328,4.328,0,0,0,4.328,4.328H32.544v4.706a3.778,3.778,0,0,0,3.778,3.772h19.46a3.778,3.778,0,0,0,3.778-3.772V42.487a3.784,3.784,0,0,0-3-3.71V31.926A10.512,10.512,0,0,0,46.049,21.414V7.81A4.328,4.328,0,0,0,41.69,3.5ZM22.15,6.666V13.6a2.473,2.473,0,0,1-2.473,2.473H12.738Zm33.632,33.9A1.923,1.923,0,0,1,57.7,42.487V57.235a1.917,1.917,0,0,1-1.923,1.917H36.322A1.917,1.917,0,0,1,34.4,57.235V42.487a1.923,1.923,0,0,1,1.923-1.923ZM41.56,38.709V32.451a4.465,4.465,0,1,1,8.923,0v6.258ZM46.024,23.25a8.657,8.657,0,0,1,8.657,8.657v6.8H52.369V32.451a6.32,6.32,0,1,0-12.633,0v6.258H37.4v-6.8a8.657,8.657,0,0,1,8.657-8.638ZM35.512,31.907v6.864a3.784,3.784,0,0,0-3,3.71v8.193H13.9A2.473,2.473,0,0,1,11.427,48.2V17.932h8.249A4.328,4.328,0,0,0,24,13.6V5.355H41.69a2.473,2.473,0,0,1,2.473,2.473V21.593a10.512,10.512,0,0,0-8.62,10.333Zm10.512,11.5a4.8,4.8,0,0,0-.928,9.516v2.418a.928.928,0,0,0,1.855,0v-2.4a4.8,4.8,0,0,0-.928-9.516Zm0,7.754a2.145,2.145,0,1,1,.031.019ZM41,9.294v5.862a.928.928,0,1,1-1.855,0V11.73a.377.377,0,0,1-.08,0,.921.921,0,0,1-.983-1.465l1.268-1.571a.929.929,0,0,1,1.651.6ZM31.58,8.366a2.925,2.925,0,0,0-2.919,2.919v1.886a2.919,2.919,0,0,0,5.831,0V11.285A2.919,2.919,0,0,0,31.58,8.366Zm1.057,4.8a1.064,1.064,0,0,1-2.121,0V11.285a1.064,1.064,0,1,1,2.121,0ZM25.674,20.09v5.862a.928.928,0,0,1-1.855,0V22.52h-.08a.921.921,0,0,1-.983-1.465l1.3-1.552a.928.928,0,0,1,1.645.587Zm0,10.79v5.868a.928.928,0,0,1-1.855,0V33.317a.377.377,0,0,1-.08,0,.909.909,0,0,1-.841-.161.928.928,0,0,1-.142-1.3l1.3-1.552a.928.928,0,0,1,1.645.581Zm7.464,0v5.868a.928.928,0,0,1-1.855,0V33.317a.309.309,0,0,1-.08,0,.909.909,0,0,1-.841-.161.928.928,0,0,1-.124-1.286L31.474,30.3a.928.928,0,0,1,1.645.581Zm-1.558-11.5A2.925,2.925,0,0,0,28.661,22.3v1.911a2.919,2.919,0,1,0,5.831,0V22.3a2.919,2.919,0,0,0-2.912-2.919Zm1.057,4.829a1.064,1.064,0,1,1-2.121,0V22.3a1.064,1.064,0,1,1,2.121,0ZM16.789,19.163a2.912,2.912,0,0,0-2.912,2.912v1.886a2.919,2.919,0,1,0,5.831,0V22.075a2.919,2.919,0,0,0-2.919-2.912Zm1.082,4.8a1.064,1.064,0,1,1-2.121,0V22.075a1.064,1.064,0,0,1,2.121,0Zm-1.5,9.894v-.291h-.08a.921.921,0,0,1-.983-1.465l1.268-1.571a.928.928,0,0,1,1.651.581v5.862a.928.928,0,0,1-1.855,0Zm8.688,8.039v5.862a.928.928,0,1,1-1.855,0V44.336h-.08a.921.921,0,0,1-.983-1.466l1.268-1.577a.928.928,0,0,1,1.651.618Zm-8.255-.928a2.912,2.912,0,0,0-2.912,2.912v1.886a2.919,2.919,0,1,0,5.831,0V43.891a2.919,2.919,0,0,0-2.937-2.912Zm1.064,4.811a1.064,1.064,0,1,1-2.121,0V43.891a1.064,1.064,0,0,1,2.121,0Z" transform="translate(0 0)" fill="#6003fe"/>
  </g>
</svg>
