<svg xmlns="http://www.w3.org/2000/svg" width="120" height="120" viewBox="0 0 120 120">
  <g id="Group_1169269" data-name="Group 1169269" transform="translate(-64 -6445)">
    <rect id="Rectangle_402033" data-name="Rectangle 402033" width="120" height="120" rx="8" transform="translate(64 6445)" fill="#6003fe"/>
    <g id="Rectangle_412110" data-name="Rectangle 412110" transform="translate(69 6450)" fill="none" stroke="#fff" stroke-width="1">
      <rect width="110" height="110" rx="6" stroke="none"/>
      <rect x="0.5" y="0.5" width="109" height="109" rx="5.5" fill="none"/>
    </g>
    <g id="Group_1155336" data-name="Group 1155336" transform="translate(-325 -2)">
      <circle id="Ellipse_13473" data-name="Ellipse 13473" cx="60" cy="60" r="60" transform="translate(389 6447)" fill="#6003fe"/>
      <g id="Ellipse_13474" data-name="Ellipse 13474" transform="translate(399 6457)" fill="none" stroke="#fff" stroke-width="1">
        <circle cx="50" cy="50" r="50" stroke="none"/>
        <circle cx="50" cy="50" r="49.5" fill="none"/>
      </g>
      <g id="Group_1172521" data-name="Group 1172521" transform="translate(412.077 6474.443)">
        <g id="Group_1172520" data-name="Group 1172520" transform="translate(6.02 1.017)">
          <g id="Group_1172515" data-name="Group 1172515" transform="translate(46.3 47.573)">
            <path id="Path_947165" data-name="Path 947165" d="M378.679,382.08h12.3a1.61,1.61,0,0,1,1.605,1.6v12.3a1.61,1.61,0,0,1-1.605,1.6h-12.3a1.61,1.61,0,0,1-1.605-1.6v-12.3A1.61,1.61,0,0,1,378.679,382.08Z" transform="translate(-377.074 -382.08)" fill="#8ac9fe" fill-rule="evenodd"/>
            <path id="Path_947166" data-name="Path 947166" d="M466.373,382.08h2.544a1.61,1.61,0,0,1,1.605,1.6v12.3a1.61,1.61,0,0,1-1.605,1.6h-2.544a1.61,1.61,0,0,0,1.6-1.6v-12.3A1.61,1.61,0,0,0,466.373,382.08Z" transform="translate(-455.017 -382.08)" fill="#60b7ff" fill-rule="evenodd"/>
          </g>
          <g id="Group_1172516" data-name="Group 1172516" transform="translate(8.452 49.416)">
            <path id="Path_947167" data-name="Path 947167" d="M81.642,396.57h25.03a2.185,2.185,0,0,1,2.179,2.179v7.462a2.185,2.185,0,0,1-2.179,2.179H81.642a2.185,2.185,0,0,1-2.179-2.179v-7.462A2.185,2.185,0,0,1,81.642,396.57Z" transform="translate(-79.463 -396.57)" fill="#fe646f" fill-rule="evenodd"/>
            <path id="Path_947168" data-name="Path 947168" d="M108.4,397.673a2.187,2.187,0,0,1,1.412,2.038v7.462a2.185,2.185,0,0,1-2.179,2.179H82.6a2.187,2.187,0,0,1-2.038-1.412,2.158,2.158,0,0,0,.767.14h25.03a2.185,2.185,0,0,0,2.179-2.179V398.44A2.159,2.159,0,0,0,108.4,397.673Z" transform="translate(-80.426 -397.533)" fill="#fd4755" fill-rule="evenodd"/>
          </g>
          <g id="Group_1172517" data-name="Group 1172517" transform="translate(15.053 28.792)">
            <path id="Path_947169" data-name="Path 947169" d="M134.773,234.4h26.791a1.017,1.017,0,0,1,.989,1.258l-2.384,9.785a1.007,1.007,0,0,1-.989.777H132.389a1.017,1.017,0,0,1-.989-1.258l2.384-9.785a1.007,1.007,0,0,1,.989-.777Z" transform="translate(-131.369 -234.399)" fill="#ffe177" fill-rule="evenodd"/>
            <path id="Path_947170" data-name="Path 947170" d="M161.276,234.4h.287a1.017,1.017,0,0,1,.989,1.258l-2.384,9.785a1.007,1.007,0,0,1-.989.777h-26.79a1.017,1.017,0,0,1-.989-1.258l0-.014h26.5a1.007,1.007,0,0,0,.989-.777Z" transform="translate(-131.369 -234.399)" fill="#ffd064" fill-rule="evenodd"/>
          </g>
          <g id="Group_1172518" data-name="Group 1172518" transform="translate(29.476 5.955)">
            <path id="Path_947171" data-name="Path 947171" d="M246.959,54.825h21.78A2.185,2.185,0,0,1,270.917,57v7.462a2.185,2.185,0,0,1-2.179,2.179h-21.78a2.185,2.185,0,0,1-2.179-2.179V57A2.185,2.185,0,0,1,246.959,54.825Z" transform="translate(-244.78 -54.825)" fill="#6cf5c2" fill-rule="evenodd"/>
            <path id="Path_947172" data-name="Path 947172" d="M270.468,55.928a2.187,2.187,0,0,1,1.412,2.038v7.462a2.185,2.185,0,0,1-2.179,2.179h-21.78a2.187,2.187,0,0,1-2.038-1.412,2.159,2.159,0,0,0,.767.14h21.78a2.185,2.185,0,0,0,2.179-2.179V56.695A2.164,2.164,0,0,0,270.468,55.928Z" transform="translate(-245.743 -55.788)" fill="#00e499" fill-rule="evenodd"/>
          </g>
          <g id="Group_1172519" data-name="Group 1172519">
            <path id="Path_947173" data-name="Path 947173" d="M27.023,11.454a8.628,8.628,0,0,1,2.264.939l2.834-2.052,2.268,2.268-2.052,2.834a8.637,8.637,0,0,1,.939,2.264l3.454.553v3.207l-3.454.553a8.628,8.628,0,0,1-.939,2.264L34.39,27.12l-2.268,2.268-2.834-2.052a8.636,8.636,0,0,1-2.264.939l-.553,3.454H23.263l-.553-3.454a8.628,8.628,0,0,1-2.264-.939l-2.834,2.052L15.343,27.12,17.4,24.286a8.637,8.637,0,0,1-.939-2.264L13,21.468V18.261l3.454-.553a8.626,8.626,0,0,1,.939-2.264l-2.052-2.835,2.268-2.268,2.834,2.052a8.626,8.626,0,0,1,2.265-.939L23.263,8H26.47Z" transform="translate(-13.002 -8)" fill="#ffe177" fill-rule="evenodd"/>
            <path id="Path_947174" data-name="Path 947174" d="M157.821,38.089a8.624,8.624,0,0,1-.939,2.264l2.052,2.834L157.1,45.02l.6.436,2.268-2.268-2.052-2.834a8.631,8.631,0,0,0,.939-2.264l3.454-.553V34.329l-3.454-.553a8.633,8.633,0,0,0-.939-2.264l2.052-2.834L157.7,26.409l-.6.436,1.832,1.832-2.052,2.834a8.637,8.637,0,0,1,.939,2.264l3.454.553v3.207Z" transform="translate(-138.584 -24.068)" fill="#ffd064" fill-rule="evenodd"/>
            <circle id="Ellipse_13667" data-name="Ellipse 13667" cx="4.739" cy="4.739" r="4.739" transform="translate(5.501 13.986) rotate(-63.435)" fill="#eceff1"/>
            <path id="Path_947175" data-name="Path 947175" d="M70.069,68.768a4.74,4.74,0,0,0,4.22,4.711,4.8,4.8,0,0,1-.519.028,4.739,4.739,0,1,1,0-9.479,4.8,4.8,0,0,1,.519.028,4.734,4.734,0,0,0-4.22,4.711Z" transform="translate(-61.906 -56.904)" fill="#d1d1d6" fill-rule="evenodd"/>
          </g>
        </g>
        <path id="Path_947176" data-name="Path 947176" d="M17.883,16.6a3.722,3.722,0,1,1,3.725-3.722A3.724,3.724,0,0,1,17.883,16.6Zm0-9.479a5.757,5.757,0,1,0,5.759,5.757,5.761,5.761,0,0,0-5.759-5.757Zm40.541,5.757A1.022,1.022,0,0,1,57.4,13.9H51.717a1.018,1.018,0,0,1,0-2.035H57.4a1.022,1.022,0,0,1,1.02,1.017Zm-9.148,0a1.019,1.019,0,0,1-1.02,1.018h-8.53a1.018,1.018,0,0,1,0-2.035h8.53A1.018,1.018,0,0,1,49.275,12.882ZM29.838,56.343a1.018,1.018,0,0,1-1.02,1.017H19.232a1.017,1.017,0,1,1,0-2.035h9.586A1.018,1.018,0,0,1,29.838,56.343Zm10.282,0A1.018,1.018,0,0,1,39.1,57.36H32.712a1.017,1.017,0,1,1,0-2.035H39.1A1.018,1.018,0,0,1,40.121,56.343ZM25.729,35.719A1.013,1.013,0,0,1,26.743,34.7h6.395a1.017,1.017,0,0,1,0,2.035H26.743A1.013,1.013,0,0,1,25.729,35.719Zm10.282,0A1.017,1.017,0,0,1,37.025,34.7h9.592a1.017,1.017,0,1,1,0,2.035H37.025A1.017,1.017,0,0,1,36.011,35.719ZM64.134,54.606,60.289,59.36a1.015,1.015,0,0,1-.738.376l-.054,0a1.018,1.018,0,0,1-.72-.3l-2.694-2.7a1.018,1.018,0,1,1,1.44-1.439l1.9,1.9,3.131-3.875a1.018,1.018,0,1,1,1.584,1.279Zm2.676,7.885V50.2a.6.6,0,0,0-.588-.587h-12.3a.6.6,0,0,0-.588.587v12.3a.6.6,0,0,0,.588.587h12.3A.6.6,0,0,0,66.81,62.491ZM42.844,60.074V52.612a1.164,1.164,0,0,0-1.164-1.161H16.653a1.164,1.164,0,0,0-1.164,1.161v7.462a1.164,1.164,0,0,0,1.164,1.161H41.68A1.164,1.164,0,0,0,42.844,60.074ZM24.475,30.827l-2.382,9.785H48.885l2.382-9.785ZM60.619,16.613V9.151A1.164,1.164,0,0,0,59.455,7.99H37.673a1.162,1.162,0,0,0-1.158,1.161v7.462a1.163,1.163,0,0,0,1.158,1.161H59.455a1.164,1.164,0,0,0,1.164-1.161ZM28.735,13.619V12.146l-2.6-.416a1.021,1.021,0,0,1-.828-.753,7.572,7.572,0,0,0-.828-2,1.008,1.008,0,0,1,.054-1.116l1.542-2.132L25.033,4.692,22.9,6.235a1.018,1.018,0,0,1-1.116.05,7.581,7.581,0,0,0-2-.828,1.02,1.02,0,0,1-.756-.825l-.414-2.6h-1.47l-.42,2.6a1.013,1.013,0,0,1-.75.825,7.581,7.581,0,0,0-2,.828,1.017,1.017,0,0,1-1.116-.051l-2.13-1.543L9.694,5.733l1.542,2.132A1.019,1.019,0,0,1,11.29,8.98a7.6,7.6,0,0,0-.828,2,1.021,1.021,0,0,1-.828.753l-2.6.416v1.473l2.6.416a1.021,1.021,0,0,1,.828.752,7.572,7.572,0,0,0,.828,2,1.019,1.019,0,0,1-.054,1.116L9.694,20.032l1.044,1.041,2.13-1.544a1.019,1.019,0,0,1,1.116-.051,7.582,7.582,0,0,0,2,.828,1.013,1.013,0,0,1,.75.825l.42,2.6h1.47l.414-2.6a1.02,1.02,0,0,1,.756-.825,7.608,7.608,0,0,0,2-.828,1.018,1.018,0,0,1,1.116.051l2.13,1.544,1.044-1.041L24.536,17.9a1.008,1.008,0,0,1-.054-1.116,7.591,7.591,0,0,0,.828-2,1.022,1.022,0,0,1,.828-.752ZM66.222,47.573h-12.3A2.625,2.625,0,0,0,51.3,50.2v5.13H44.878V52.612a3.2,3.2,0,0,0-3.2-3.2H16.653a3.2,3.2,0,0,0-3.2,3.2v2.713H9.91a2.877,2.877,0,0,1-2.873-2.873V42.2A5.473,5.473,0,0,1,12.5,36.737h8.44l-1.134,4.652a1.028,1.028,0,0,0,.192.869,1.013,1.013,0,0,0,.8.389H49.683a1.022,1.022,0,0,0,.99-.776l1.248-5.133h8.938a7.509,7.509,0,0,0,7.5-7.5V16.772a4.913,4.913,0,0,0-4.907-4.908h-.8V9.151a3.2,3.2,0,0,0-3.2-3.2H37.673a3.2,3.2,0,0,0-3.191,3.2v2.713H30.768v-.586a1.02,1.02,0,0,0-.858-1l-2.819-.451a9.92,9.92,0,0,0-.534-1.285l1.674-2.314a1.016,1.016,0,0,0-.1-1.316L25.861,2.639a1.023,1.023,0,0,0-1.32-.1L22.232,4.21a9.8,9.8,0,0,0-1.29-.533L20.492.857a1.015,1.015,0,0,0-1-.857H16.281a1.016,1.016,0,0,0-1,.857l-.456,2.821a9.726,9.726,0,0,0-1.284.533L11.224,2.535a1.016,1.016,0,0,0-1.314.1L7.642,4.907a1.023,1.023,0,0,0-.108,1.316l1.68,2.314A9.147,9.147,0,0,0,8.68,9.823l-2.819.451a1.02,1.02,0,0,0-.858,1v3.208a1.02,1.02,0,0,0,.858,1l2.819.451a9.184,9.184,0,0,0,.534,1.285l-1.68,2.315a1.023,1.023,0,0,0,.108,1.316L9.91,23.125a1.015,1.015,0,0,0,1.314.1l2.316-1.676a9.726,9.726,0,0,0,1.284.533l.456,2.821a1.015,1.015,0,0,0,1,.856H19.49a1.015,1.015,0,0,0,1-.856l.45-2.821a9.717,9.717,0,0,0,1.29-.533l2.31,1.676a1.022,1.022,0,0,0,1.32-.1l2.268-2.268a1.015,1.015,0,0,0,.1-1.316l-1.674-2.314a9.964,9.964,0,0,0,.534-1.285l2.819-.451a1.021,1.021,0,0,0,.858-1V13.9h3.713v2.713a3.2,3.2,0,0,0,3.191,3.2H59.455a3.2,3.2,0,0,0,3.2-3.2V13.9h.8a2.877,2.877,0,0,1,2.873,2.872V29.236A5.473,5.473,0,0,1,60.859,34.7H52.419l1.134-4.652a1.022,1.022,0,0,0-.99-1.258H23.678a1.023,1.023,0,0,0-.99.776L21.44,34.7H12.5A7.509,7.509,0,0,0,5,42.2v10.25A4.913,4.913,0,0,0,9.91,57.361h3.545v2.714a3.2,3.2,0,0,0,3.2,3.2H41.68a3.2,3.2,0,0,0,3.2-3.2V57.361H51.3v5.13a2.625,2.625,0,0,0,2.622,2.622h12.3a2.625,2.625,0,0,0,2.621-2.622V50.2A2.625,2.625,0,0,0,66.222,47.573Z" fill-rule="evenodd"/>
      </g>
    </g>
  </g>
</svg>
