<svg xmlns="http://www.w3.org/2000/svg" width="50" height="50.006" viewBox="0 0 50 50.006">
  <g id="Group_1172524" data-name="Group 1172524" transform="translate(-8 -7.938)">
    <path id="Path_947242" data-name="Path 947242" d="M54.774,20.041H53.727a7.258,7.258,0,1,0-10.808,0H33V11.976a.806.806,0,0,0-.806-.806H28.968a.806.806,0,0,0-.806.806v8.065h-.806V8.751a.806.806,0,0,0-.806-.806H23.323a.806.806,0,0,0-.806.806v11.29H21.71V14.4a.806.806,0,0,0-.806-.806H17.677a.806.806,0,0,0-.806.806v5.645H11.226A3.229,3.229,0,0,0,8,23.267V47.46a3.229,3.229,0,0,0,3.226,3.226H27.849l-1.076,3.226H24.129a.806.806,0,0,0-.806.806v1.613H15.258a.806.806,0,1,0,0,1.613H50.742a.806.806,0,0,0,0-1.613H42.677V54.718a.806.806,0,0,0-.806-.806H39.227l-1.076-3.226H54.774A3.229,3.229,0,0,0,58,47.46V23.267A3.229,3.229,0,0,0,54.774,20.041ZM49.129,9.616a5.656,5.656,0,0,1,4.78,4.78h-4.78Zm-.473,6.393h5.253a5.641,5.641,0,0,1-8.966,3.713ZM42.677,15.2a5.654,5.654,0,0,1,4.839-5.587v5.253L43.8,18.581A5.616,5.616,0,0,1,42.677,15.2Zm-12.9-2.419h1.613V28.105H29.774Zm-2.419,8.871h.806v6.452h-.806Zm-3.226-12.1h1.613V28.105H24.129Zm-2.419,12.1h.806v6.452H21.71ZM18.484,15.2H20.1v12.9H18.484ZM41.065,55.525v.806H24.935v-.806ZM28.474,53.912l1.076-3.226h6.9l1.076,3.226ZM56.387,47.46a1.615,1.615,0,0,1-1.613,1.613H11.226A1.615,1.615,0,0,1,9.613,47.46V45.847H56.387Zm0-3.226H9.613V23.267a1.615,1.615,0,0,1,1.613-1.613h5.645v6.452h-.806V23.267a.806.806,0,0,0-.806-.806H12.032a.806.806,0,0,0-.806.806v5.645a.806.806,0,0,0,.806.806H37.839a.806.806,0,0,0,.806-.806V23.267a.806.806,0,0,0-.806-.806H34.613a.806.806,0,0,0-.806.806v4.839H33V21.654H45a7.231,7.231,0,0,0,6.637,0h3.133a1.615,1.615,0,0,1,1.613,1.613ZM14.452,24.073v4.032H12.839V24.073Zm20.968,4.032V24.073h1.613v4.032Z" fill="#6003fe"/>
    <path id="Path_947243" data-name="Path 947243" d="M45.645,392H40.806a.806.806,0,0,0,0,1.613h4.839a.806.806,0,0,0,0-1.613Z" transform="translate(-28.774 -345.346)" fill="#6003fe"/>
    <path id="Path_947244" data-name="Path 947244" d="M113.613,392h-.806a.806.806,0,0,0,0,1.613h.806a.806.806,0,1,0,0-1.613Z" transform="translate(-93.516 -345.346)" fill="#6003fe"/>
    <path id="Path_947245" data-name="Path 947245" d="M336.806,164.839a.8.8,0,0,0,.57-.236l2.99-2.99h6.924a.806.806,0,1,0,0-1.613h-7.258a.807.807,0,0,0-.57.236l-3.226,3.226a.806.806,0,0,0,.57,1.377Z" transform="translate(-294.935 -136.733)" fill="#6003fe"/>
    <path id="Path_947246" data-name="Path 947246" d="M81.1,245.645a2.419,2.419,0,0,0-2.092,1.207l-8.443-4.925a2.419,2.419,0,0,0-4.749.06l-8.5,6.372a2.417,2.417,0,0,0-4.181.22l-8.4-3.5a2.42,2.42,0,1,0-.2,1.664l8.4,3.5a2.419,2.419,0,0,0,4.732-.133l8.5-6.372a2.417,2.417,0,0,0,4.119-.106l8.443,4.925a2.419,2.419,0,1,0,2.369-2.912Zm-37.9,0a.808.808,0,1,1-.809-.81.808.808,0,0,1,.809.81Zm12.1,4.835a.808.808,0,0,1-.806-.806v0a.806.806,0,1,1,.806.81Zm12.9-7.258a.806.806,0,1,1,.806-.806.806.806,0,0,1-.806.806Zm12.9,5.645a.806.806,0,1,1,.806-.806A.806.806,0,0,1,81.1,248.871Z" transform="translate(-28.748 -208.669)" fill="#6003fe"/>
    <path id="Path_947247" data-name="Path 947247" d="M326.452,344h-5.645a.806.806,0,1,0,0,1.613h5.645a.806.806,0,0,0,0-1.613Z" transform="translate(-280.548 -302.185)" fill="#6003fe"/>
    <path id="Path_947248" data-name="Path 947248" d="M355.226,320h-2.419a.806.806,0,1,0,0,1.613h2.419a.806.806,0,0,0,0-1.613Z" transform="translate(-309.323 -280.604)" fill="#6003fe"/>
    <path id="Path_947249" data-name="Path 947249" d="M40.806,233.613h8.871a.806.806,0,1,0,0-1.613H40.806a.806.806,0,1,0,0,1.613Z" transform="translate(-28.774 -201.475)" fill="#6003fe"/>
    <path id="Path_947250" data-name="Path 947250" d="M152.806,233.613h.806a.806.806,0,0,0,0-1.613h-.806a.806.806,0,0,0,0,1.613Z" transform="translate(-129.484 -201.475)" fill="#6003fe"/>
  </g>
</svg>
