<svg xmlns="http://www.w3.org/2000/svg" width="120" height="120" viewBox="0 0 120 120">
  <g id="Group_1169291" data-name="Group 1169291" transform="translate(-64 -6445)">
    <rect id="Rectangle_402033" data-name="Rectangle 402033" width="120" height="120" rx="8" transform="translate(64 6445)" fill="#6003fe"/>
    <g id="Rectangle_412110" data-name="Rectangle 412110" transform="translate(69 6450)" fill="none" stroke="#fff" stroke-width="1">
      <rect width="110" height="110" rx="6" stroke="none"/>
      <rect x="0.5" y="0.5" width="109" height="109" rx="5.5" fill="none"/>
    </g>
    <g id="Group_1155336" data-name="Group 1155336" transform="translate(-325 -2)">
      <circle id="Ellipse_13473" data-name="Ellipse 13473" cx="60" cy="60" r="60" transform="translate(389 6447)" fill="#6003fe"/>
      <g id="Ellipse_13474" data-name="Ellipse 13474" transform="translate(399 6457)" fill="none" stroke="#fff" stroke-width="1">
        <circle cx="50" cy="50" r="50" stroke="none"/>
        <circle cx="50" cy="50" r="49.5" fill="none"/>
      </g>
      <g id="Group_1172522" data-name="Group 1172522" transform="translate(417.133 6475.133)">
        <path id="Path_947177" data-name="Path 947177" d="M8,72H69.61v31.867H8Zm0,0" transform="translate(-6.938 -62.44)" fill="#5aaae7"/>
        <path id="Path_947178" data-name="Path 947178" d="M69.61,72v31.867H8C35.877,100.348,57.068,90.359,69.61,72Zm0,0" transform="translate(-6.938 -62.44)" fill="#3d9ae2"/>
        <path id="Path_947179" data-name="Path 947179" d="M161.494,440a2.124,2.124,0,1,1,0,4.249H138.124a2.124,2.124,0,1,1,0-4.249Zm0,0" transform="translate(-117.942 -381.577)" fill="#787680"/>
        <path id="Path_947180" data-name="Path 947180" d="M193,384.5H176l1.062-8.5h14.871Zm0,0" transform="translate(-152.631 -326.075)" fill="#898890"/>
        <path id="Path_947181" data-name="Path 947181" d="M69.61,312v4.249a4.261,4.261,0,0,1-4.249,4.249H12.249A4.261,4.261,0,0,1,8,316.249V312Zm0,0" transform="translate(-6.938 -270.573)" fill="#c6c5ca"/>
        <path id="Path_947182" data-name="Path 947182" d="M69.61,12.249V16.5H8V12.249A4.261,4.261,0,0,1,12.249,8H65.361A4.249,4.249,0,0,1,69.61,12.249Zm0,0" transform="translate(-6.938 -6.938)" fill="#ff5023"/>
        <path id="Path_947183" data-name="Path 947183" d="M197.4,378.124H182l.266-2.124h14.871Zm0,0" transform="translate(-157.834 -326.075)" fill="#787680"/>
        <path id="Path_947184" data-name="Path 947184" d="M140.116,122.027a17.89,17.89,0,0,1-2.741,9.56H106.741a18.058,18.058,0,1,1,33.375-9.56Zm0,0" transform="translate(-90.191 -90.16)" fill="#ffd422"/>
        <path id="Path_947185" data-name="Path 947185" d="M224,226.124a2.124,2.124,0,1,1,2.124,2.124A2.131,2.131,0,0,1,224,226.124Zm0,0" transform="translate(-194.257 -194.257)" fill="#ff5023"/>
        <path id="Path_947186" data-name="Path 947186" d="M232,128h2.124v2.124H232Zm0,0" transform="translate(-201.195 -111.004)"/>
        <path id="Path_947187" data-name="Path 947187" d="M177.074,140.07l1.84-1.062,1.062,1.84-1.84,1.062Zm0,0" transform="translate(-153.562 -120.551)"/>
        <path id="Path_947188" data-name="Path 947188" d="M139,178.917l1.062-1.839,1.839,1.062-1.062,1.839Zm0,0" transform="translate(-120.547 -153.566)"/>
        <path id="Path_947189" data-name="Path 947189" d="M128,232h2.124v2.124H128Zm0,0" transform="translate(-111.004 -201.195)"/>
        <path id="Path_947190" data-name="Path 947190" d="M336,232h2.124v2.124H336Zm0,0" transform="translate(-291.386 -201.195)"/>
        <path id="Path_947191" data-name="Path 947191" d="M319.141,178.132l1.839-1.062,1.062,1.839L320.2,179.97Zm0,0" transform="translate(-276.766 -153.559)"/>
        <path id="Path_947192" data-name="Path 947192" d="M281.074,140.847l1.062-1.84,1.84,1.062-1.062,1.84Zm0,0" transform="translate(-243.753 -120.55)"/>
        <path id="Path_947193" data-name="Path 947193" d="M224.809,186.344l-4.257,4.256a3.146,3.146,0,0,0-1.365-.318,3.187,3.187,0,1,0,3.187,3.187,3.146,3.146,0,0,0-.318-1.365l4.257-4.257Zm-5.622,8.187a1.062,1.062,0,1,1,1.062-1.062A1.062,1.062,0,0,1,219.187,194.531Zm0,0" transform="translate(-187.32 -161.601)"/>
        <path id="Path_947194" data-name="Path 947194" d="M186.318,178.377l.608-2.036A8.5,8.5,0,0,0,176,184.486h2.124a6.373,6.373,0,0,1,8.194-6.109Zm0,0" transform="translate(-152.631 -152.619)"/>
        <path id="Path_947195" data-name="Path 947195" d="M58.423,0H5.311A5.317,5.317,0,0,0,0,5.311V45.676a5.317,5.317,0,0,0,5.311,5.311H23.228l-.8,6.373H20.183a3.187,3.187,0,1,0,0,6.373H43.552a3.187,3.187,0,1,0,0-6.373H41.3l-.8-6.373H58.423a5.317,5.317,0,0,0,5.311-5.311V5.311A5.317,5.317,0,0,0,58.423,0ZM5.311,2.124H58.423A3.187,3.187,0,0,1,61.61,5.311V8.5H2.124V5.311A3.187,3.187,0,0,1,5.311,2.124ZM17.16,40.365a17,17,0,1,1,29.414,0ZM31.867,12.747A19.1,19.1,0,0,0,14.749,40.365H2.125V10.622H61.61V40.365H48.985A19.1,19.1,0,0,0,31.867,12.747Zm12.747,47.8a1.062,1.062,0,0,1-1.062,1.062H20.183a1.062,1.062,0,1,1,0-2.124H43.552A1.062,1.062,0,0,1,44.614,60.548Zm-5.452-3.187H24.573l.8-6.373h13Zm19.261-8.5H5.311a3.187,3.187,0,0,1-3.187-3.187V42.489H61.61v3.187A3.187,3.187,0,0,1,58.423,48.863Zm0,0"/>
        <path id="Path_947196" data-name="Path 947196" d="M416,336h2.124v2.124H416Zm0,0" transform="translate(-360.764 -291.386)"/>
        <path id="Path_947197" data-name="Path 947197" d="M48,32h2.124v2.124H48Zm0,0" transform="translate(-41.627 -27.751)"/>
        <path id="Path_947198" data-name="Path 947198" d="M80,32h2.124v2.124H80Zm0,0" transform="translate(-69.378 -27.751)"/>
        <path id="Path_947199" data-name="Path 947199" d="M112,32h2.124v2.124H112Zm0,0" transform="translate(-97.129 -27.751)"/>
      </g>
    </g>
  </g>
</svg>
