<svg xmlns="http://www.w3.org/2000/svg" width="120" height="120" viewBox="0 0 120 120">
  <g id="Group_1169266" data-name="Group 1169266" transform="translate(-64 -6445)">
    <rect id="Rectangle_402033" data-name="Rectangle 402033" width="120" height="120" rx="8" transform="translate(64 6445)" fill="#6003fe"/>
    <g id="Rectangle_412110" data-name="Rectangle 412110" transform="translate(69 6450)" fill="none" stroke="#fff" stroke-width="1">
      <rect width="110" height="110" rx="6" stroke="none"/>
      <rect x="0.5" y="0.5" width="109" height="109" rx="5.5" fill="none"/>
    </g>
    <g id="Group_1155336" data-name="Group 1155336" transform="translate(-325 -2)">
      <path id="Path_927567" data-name="Path 927567" d="M60,0A60,60,0,1,1,0,60,60,60,0,0,1,60,0Z" transform="translate(389 6447)" fill="#6003fe"/>
      <g id="Ellipse_13474" data-name="Ellipse 13474" transform="translate(399 6457)" fill="none" stroke="#fff" stroke-width="1">
        <circle cx="50" cy="50" r="50" stroke="none"/>
        <circle cx="50" cy="50" r="49.5" fill="none"/>
      </g>
      <g id="Group_1172512" data-name="Group 1172512" transform="translate(415.731 6472.64)">
        <g id="Group_1172495" data-name="Group 1172495" transform="translate(0.975 15.332)">
          <path id="Path_947122" data-name="Path 947122" d="M28.357,143.922a7.632,7.632,0,0,1,7.632-7.632h.025V118.435l-1.538,1.538a.746.746,0,0,1-.986.064,13.254,13.254,0,0,1-2.267-2.267.746.746,0,0,1,.064-.986l1.894-1.894a.751.751,0,0,0,.129-.883,9.292,9.292,0,0,1-.647-1.564.751.751,0,0,0-.715-.532h-2.68a.746.746,0,0,1-.743-.652,13.276,13.276,0,0,1-.1-1.6c0-.025,0-.049,0-.074h-14.6a1.3,1.3,0,0,0-.919.381l-5.026,5.026a1.3,1.3,0,0,0-.381.919V144a1.3,1.3,0,0,0,1.3,1.3H28.482A7.667,7.667,0,0,1,28.357,143.922Z" transform="translate(-7.5 -109.581)" fill="#fef1da"/>
          <g id="Group_1172494" data-name="Group 1172494" transform="translate(0)">
            <path id="Path_947123" data-name="Path 947123" d="M12.893,143.995V115.907a1.3,1.3,0,0,1,.381-.919l5.026-5.026a1.3,1.3,0,0,1,.919-.381H13.826a1.3,1.3,0,0,0-.919.381l-5.026,5.026a1.3,1.3,0,0,0-.381.919v28.088a1.3,1.3,0,0,0,1.3,1.3h5.393A1.3,1.3,0,0,1,12.893,143.995Z" transform="translate(-7.5 -109.581)" fill="#fae2c0"/>
          </g>
        </g>
        <g id="Group_1172498" data-name="Group 1172498" transform="translate(21.832 42.041)">
          <g id="Group_1172496" data-name="Group 1172496">
            <circle id="Ellipse_13659" data-name="Ellipse 13659" cx="7.632" cy="7.632" r="7.632" fill="#05e39c"/>
          </g>
          <g id="Group_1172497" data-name="Group 1172497" transform="translate(0 0)">
            <path id="Path_947124" data-name="Path 947124" d="M172.352,322.735a7.635,7.635,0,0,1,5.453-7.315,7.632,7.632,0,1,0,0,14.63A7.635,7.635,0,0,1,172.352,322.735Z" transform="translate(-167.993 -315.103)" fill="#0ed290"/>
          </g>
        </g>
        <g id="Group_1172504" data-name="Group 1172504" transform="translate(21.903 2.229)">
          <g id="Group_1172499" data-name="Group 1172499" transform="translate(0 0)">
            <path id="Path_947125" data-name="Path 947125" d="M190.145,16.694l1.894-1.894a.746.746,0,0,0,.064-.986,13.254,13.254,0,0,0-2.267-2.267.747.747,0,0,0-.986.064L186.955,13.5a.751.751,0,0,1-.883.129,9.292,9.292,0,0,0-1.564-.647.751.751,0,0,1-.532-.715V9.591a.746.746,0,0,0-.652-.743,13.277,13.277,0,0,0-3.207,0,.746.746,0,0,0-.652.743v2.68a.75.75,0,0,1-.532.715,9.314,9.314,0,0,0-1.564.647.751.751,0,0,1-.883-.129l-1.894-1.894a.746.746,0,0,0-.986-.064,13.254,13.254,0,0,0-2.267,2.267.747.747,0,0,0,.064.986l1.894,1.894a.751.751,0,0,1,.129.883,9.29,9.29,0,0,0-.647,1.564.751.751,0,0,1-.715.532h-2.68a.746.746,0,0,0-.743.652,13.276,13.276,0,0,0,0,3.207.746.746,0,0,0,.743.652h2.68a.75.75,0,0,1,.715.532,9.313,9.313,0,0,0,.647,1.564.751.751,0,0,1-.129.883L171.4,29.057a.746.746,0,0,0-.064.986,13.254,13.254,0,0,0,2.267,2.267.746.746,0,0,0,.986-.064l1.894-1.894a.751.751,0,0,1,.883-.129,9.292,9.292,0,0,0,1.564.647.751.751,0,0,1,.532.715v2.68a.746.746,0,0,0,.652.743,13.277,13.277,0,0,0,3.207,0,.746.746,0,0,0,.652-.743v-2.68a.75.75,0,0,1,.532-.715,9.314,9.314,0,0,0,1.564-.647.751.751,0,0,1,.883.129l1.894,1.894a.746.746,0,0,0,.986.064,13.255,13.255,0,0,0,2.267-2.267.746.746,0,0,0-.064-.986l-1.894-1.894a.751.751,0,0,1-.129-.883,9.292,9.292,0,0,0,.647-1.564.751.751,0,0,1,.715-.532h2.68a.746.746,0,0,0,.743-.652,13.278,13.278,0,0,0,0-3.207.746.746,0,0,0-.743-.652h-2.68a.75.75,0,0,1-.715-.532,9.316,9.316,0,0,0-.647-1.564A.751.751,0,0,1,190.145,16.694Z" transform="translate(-168.544 -8.751)" fill="#7ca1b1"/>
          </g>
          <g id="Group_1172500" data-name="Group 1172500" transform="translate(0 0)">
            <path id="Path_947126" data-name="Path 947126" d="M179.623,28.483a6.882,6.882,0,0,1,0-13.11A10.044,10.044,0,0,1,184,12.43a.735.735,0,0,1-.02-.159V9.591a.746.746,0,0,0-.652-.743,13.277,13.277,0,0,0-3.207,0,.746.746,0,0,0-.652.743v2.68a.75.75,0,0,1-.532.715,9.314,9.314,0,0,0-1.564.647.751.751,0,0,1-.883-.129l-1.894-1.894a.746.746,0,0,0-.986-.064,13.254,13.254,0,0,0-2.267,2.267.746.746,0,0,0,.064.986l1.894,1.894a.751.751,0,0,1,.129.883,9.291,9.291,0,0,0-.647,1.564.751.751,0,0,1-.715.532h-2.68a.746.746,0,0,0-.743.652,13.276,13.276,0,0,0,0,3.207.746.746,0,0,0,.743.652h2.68a.75.75,0,0,1,.715.532,9.314,9.314,0,0,0,.647,1.564.751.751,0,0,1-.129.883L171.4,29.056a.746.746,0,0,0-.064.986,13.254,13.254,0,0,0,2.267,2.267.746.746,0,0,0,.986-.064l1.894-1.894a.751.751,0,0,1,.883-.129,9.293,9.293,0,0,0,1.564.647.75.75,0,0,1,.532.715v2.68a.746.746,0,0,0,.652.743,13.277,13.277,0,0,0,3.207,0,.746.746,0,0,0,.652-.743v-2.68a.735.735,0,0,1,.02-.159A10.04,10.04,0,0,1,179.623,28.483Z" transform="translate(-168.544 -8.751)" fill="#678d98"/>
          </g>
          <g id="Group_1172501" data-name="Group 1172501" transform="translate(7.269 7.269)">
            <circle id="Ellipse_13660" data-name="Ellipse 13660" cx="5.908" cy="5.908" r="5.908" fill="#3e5959"/>
          </g>
          <g id="Group_1172502" data-name="Group 1172502" transform="translate(7.269 7.269)">
            <path id="Path_947127" data-name="Path 947127" d="M227.793,70.593a5.91,5.91,0,0,1,4.25-5.67,5.908,5.908,0,1,0,0,11.341A5.909,5.909,0,0,1,227.793,70.593Z" transform="translate(-224.476 -64.685)" fill="#384949"/>
          </g>
          <g id="Group_1172503" data-name="Group 1172503" transform="translate(11.126 11.126)">
            <circle id="Ellipse_13661" data-name="Ellipse 13661" cx="2.051" cy="2.051" r="2.051" fill="#fff"/>
          </g>
        </g>
        <g id="Group_1172505" data-name="Group 1172505" transform="translate(42.02 33.459)">
          <path id="Path_947128" data-name="Path 947128" d="M346.233,257.474H323.99a.65.65,0,0,1-.65-.65v-7.109a.65.65,0,0,1,.65-.65h22.243a.65.65,0,0,1,.65.65v7.109A.65.65,0,0,1,346.233,257.474Z" transform="translate(-323.34 -249.066)" fill="#01d0fb"/>
        </g>
        <g id="Group_1172506" data-name="Group 1172506" transform="translate(42.02 33.459)">
          <path id="Path_947129" data-name="Path 947129" d="M327.714,256.824v-7.109a.65.65,0,0,1,.65-.65H323.99a.65.65,0,0,0-.65.65v7.109a.65.65,0,0,0,.65.65h4.374A.65.65,0,0,1,327.714,256.824Z" transform="translate(-323.34 -249.066)" fill="#01c0fa"/>
        </g>
        <g id="Group_1172507" data-name="Group 1172507" transform="translate(42.02 45.771)">
          <path id="Path_947130" data-name="Path 947130" d="M346.233,352.214H323.99a.65.65,0,0,1-.65-.65v-7.109a.65.65,0,0,1,.65-.65h22.243a.65.65,0,0,1,.65.65v7.109A.65.65,0,0,1,346.233,352.214Z" transform="translate(-323.34 -343.806)" fill="#fed402"/>
        </g>
        <g id="Group_1172508" data-name="Group 1172508" transform="translate(42.02 45.771)">
          <path id="Path_947131" data-name="Path 947131" d="M327.714,351.564v-7.109a.65.65,0,0,1,.65-.65H323.99a.65.65,0,0,0-.65.65v7.109a.65.65,0,0,0,.65.65h4.374A.65.65,0,0,1,327.714,351.564Z" transform="translate(-323.34 -343.806)" fill="#fac600"/>
        </g>
        <g id="Group_1172509" data-name="Group 1172509" transform="translate(42.02 58.083)">
          <path id="Path_947132" data-name="Path 947132" d="M346.233,446.953H323.99a.65.65,0,0,1-.65-.65v-7.109a.65.65,0,0,1,.65-.65h22.243a.65.65,0,0,1,.65.65V446.3A.65.65,0,0,1,346.233,446.953Z" transform="translate(-323.34 -438.545)" fill="#fd5426"/>
        </g>
        <g id="Group_1172510" data-name="Group 1172510" transform="translate(42.02 58.083)">
          <path id="Path_947133" data-name="Path 947133" d="M327.714,446.3v-7.109a.65.65,0,0,1,.65-.65H323.99a.65.65,0,0,0-.65.65V446.3a.65.65,0,0,0,.65.65h4.374A.65.65,0,0,1,327.714,446.3Z" transform="translate(-323.34 -438.545)" fill="#ef4424"/>
        </g>
        <g id="Group_1172511" data-name="Group 1172511" transform="translate(0 1.255)">
          <path id="Path_947134" data-name="Path 947134" d="M403.359,109.656v.2a.975.975,0,0,0,1.949,0v-.2a2.927,2.927,0,0,0-.686-1.882.975.975,0,1,0-1.491,1.255A.964.964,0,0,1,403.359,109.656Z" transform="translate(-350.543 -93.629)"/>
          <path id="Path_947135" data-name="Path 947135" d="M407.395,180.589a.975.975,0,0,0-.975.975v1.559a.975.975,0,0,0,1.949,0v-1.559A.975.975,0,0,0,407.395,180.589Z" transform="translate(-353.604 -157.284)"/>
          <path id="Path_947136" data-name="Path 947136" d="M408.369,144.564a.975.975,0,0,0-1.949,0v1.559a.975.975,0,1,0,1.949,0Z" transform="translate(-353.604 -125.092)"/>
          <path id="Path_947137" data-name="Path 947137" d="M275.034,463.4h-1.559a.975.975,0,1,0,0,1.949h1.559a.975.975,0,1,0,0-1.949Z" transform="translate(-237.087 -403.337)"/>
          <path id="Path_947138" data-name="Path 947138" d="M238.034,463.4h-1.559a.975.975,0,1,0,0,1.949h1.559a.975.975,0,1,0,0-1.949Z" transform="translate(-204.896 -403.337)"/>
          <path id="Path_947139" data-name="Path 947139" d="M201.034,463.4h-1.559a.975.975,0,1,0,0,1.949h1.559a.975.975,0,1,0,0-1.949Z" transform="translate(-172.704 -403.337)"/>
          <path id="Path_947140" data-name="Path 947140" d="M164.034,463.4h-1.559a.975.975,0,1,0,0,1.949h1.559a.975.975,0,1,0,0-1.949Z" transform="translate(-140.512 -403.337)"/>
          <path id="Path_947141" data-name="Path 947141" d="M130.955,454.97a.982.982,0,0,1-.528-.546.975.975,0,0,0-1.818.7,2.942,2.942,0,0,0,1.582,1.637.975.975,0,1,0,.764-1.793Z" transform="translate(-111.838 -394.989)"/>
          <path id="Path_947142" data-name="Path 947142" d="M128.515,420.436a.975.975,0,0,0,.975-.975V417.9a.975.975,0,1,0-1.949,0v1.559A.975.975,0,0,0,128.515,420.436Z" transform="translate(-110.966 -362.908)"/>
          <path id="Path_947143" data-name="Path 947143" d="M72.191,172.244H58.674a.975.975,0,1,0,0,1.949H72.191a.975.975,0,1,0,0-1.949Z" transform="translate(-50.201 -150.023)"/>
          <path id="Path_947144" data-name="Path 947144" d="M72.191,208.582H58.674a.975.975,0,1,0,0,1.949H72.191a.975.975,0,1,0,0-1.949Z" transform="translate(-50.201 -181.639)"/>
          <path id="Path_947145" data-name="Path 947145" d="M72.191,244.756H58.674a.975.975,0,1,0,0,1.949H72.191a.975.975,0,1,0,0-1.949Z" transform="translate(-50.201 -213.112)"/>
          <path id="Path_947146" data-name="Path 947146" d="M73.166,282.231a.975.975,0,0,0-.975-.975H58.674a.975.975,0,1,0,0,1.949H72.191A.975.975,0,0,0,73.166,282.231Z" transform="translate(-50.201 -244.868)"/>
          <path id="Path_947147" data-name="Path 947147" d="M58.674,317.593a.975.975,0,1,0,0,1.949h6.06a.975.975,0,1,0,0-1.949Z" transform="translate(-50.201 -276.483)"/>
          <path id="Path_947148" data-name="Path 947148" d="M195.929,358.264a.974.974,0,0,0,1.378,0l3.934-3.934a.975.975,0,0,0-1.378-1.378l-3.245,3.245-2.275-2.276a.975.975,0,0,0-1.378,1.378Z" transform="translate(-167.64 -306.998)"/>
          <path id="Path_947149" data-name="Path 947149" d="M43.8,26.555a14.242,14.242,0,0,0,2.434-2.434,1.722,1.722,0,0,0-.142-2.276l-1.777-1.776a10.334,10.334,0,0,0,.593-1.433h2.514a1.721,1.721,0,0,0,1.71-1.509c.033-.272.058-.546.075-.821h1.09a.975.975,0,0,0,0-1.949h-1.1c-.017-.225-.037-.45-.064-.673a1.721,1.721,0,0,0-1.71-1.509H44.9a10.326,10.326,0,0,0-.593-1.433l1.777-1.777A1.722,1.722,0,0,0,46.23,6.69,14.25,14.25,0,0,0,43.8,4.256,1.721,1.721,0,0,0,41.52,4.4L39.743,6.175a10.311,10.311,0,0,0-1.433-.593V3.068A1.721,1.721,0,0,0,36.8,1.358a14.313,14.313,0,0,0-3.443,0,1.721,1.721,0,0,0-1.509,1.71V5.582a10.311,10.311,0,0,0-1.433.593L28.641,4.4a1.722,1.722,0,0,0-2.276-.143A14.236,14.236,0,0,0,23.931,6.69a1.722,1.722,0,0,0,.142,2.276l1.776,1.776a10.333,10.333,0,0,0-.593,1.433H22.743a1.721,1.721,0,0,0-1.71,1.508c-.027.223-.048.448-.064.673H7.3a2.259,2.259,0,0,0-1.608.666L.666,20.05A2.259,2.259,0,0,0,0,21.658V49.746A2.277,2.277,0,0,0,2.274,52.02h14.3V53a.975.975,0,0,0,1.949,0V52.02h2.661a8.606,8.606,0,1,0,9.279-10.894V36.7a.975.975,0,0,0-1.949,0V41.12a8.618,8.618,0,0,0-7.657,8.553c0,.133,0,.266.01.4H2.274a.325.325,0,0,1-.325-.325V21.658a.328.328,0,0,1,.1-.23L7.071,16.4a.323.323,0,0,1,.23-.1H20.957c.017.275.042.549.075.821a1.721,1.721,0,0,0,1.71,1.509h2.513a10.311,10.311,0,0,0,.593,1.433l-1.776,1.776a1.722,1.722,0,0,0-.142,2.276,14.246,14.246,0,0,0,2.434,2.434,1.721,1.721,0,0,0,2.15-.028v5.624a.975.975,0,0,0,1.949,0V24.659a10.309,10.309,0,0,0,1.386.571v2.513a1.722,1.722,0,0,0,1.509,1.71,14.259,14.259,0,0,0,3.443,0,1.721,1.721,0,0,0,1.509-1.71V25.23a10.326,10.326,0,0,0,1.433-.593l1.776,1.776a1.722,1.722,0,0,0,2.277.142ZM29.464,43.015a6.658,6.658,0,1,1-6.658,6.658A6.665,6.665,0,0,1,29.464,43.015Zm9.515-20.178a8.355,8.355,0,0,1-1.4.58,1.719,1.719,0,0,0-1.217,1.646v2.479a12.35,12.35,0,0,1-2.561,0V25.063a1.719,1.719,0,0,0-1.218-1.646,8.342,8.342,0,0,1-1.4-.58,1.719,1.719,0,0,0-2.025.3L27.4,24.892a12.3,12.3,0,0,1-1.811-1.811l1.752-1.752a1.719,1.719,0,0,0,.3-2.025,8.357,8.357,0,0,1-.58-1.4,1.719,1.719,0,0,0-1.646-1.218H22.944a12.308,12.308,0,0,1,0-2.561h2.479a1.719,1.719,0,0,0,1.646-1.218,8.366,8.366,0,0,1,.58-1.4,1.719,1.719,0,0,0-.3-2.025L25.594,7.73A12.293,12.293,0,0,1,27.4,5.919l1.752,1.752a1.719,1.719,0,0,0,2.025.3,8.365,8.365,0,0,1,1.4-.58A1.719,1.719,0,0,0,33.8,5.749V3.27a12.35,12.35,0,0,1,2.561,0V5.749a1.719,1.719,0,0,0,1.217,1.646,8.353,8.353,0,0,1,1.4.58A1.719,1.719,0,0,0,41,7.671L42.755,5.92a12.293,12.293,0,0,1,1.811,1.811L42.815,9.483h0a1.719,1.719,0,0,0-.3,2.025,8.348,8.348,0,0,1,.58,1.4,1.718,1.718,0,0,0,1.646,1.218h2.479a12.285,12.285,0,0,1,0,2.561H44.737A1.718,1.718,0,0,0,43.091,17.9a8.375,8.375,0,0,1-.58,1.4,1.719,1.719,0,0,0,.3,2.025l1.752,1.752a12.3,12.3,0,0,1-1.811,1.811L41,23.141a1.719,1.719,0,0,0-2.025-.3Z" transform="translate(0 -1.255)"/>
          <path id="Path_947150" data-name="Path 947150" d="M228.866,60.784a.975.975,0,0,0-.5,1.286,4.932,4.932,0,1,1-2.758-2.614.975.975,0,0,0,.693-1.822,6.884,6.884,0,1,0,3.847,3.646A.975.975,0,0,0,228.866,60.784Z" transform="translate(-188.78 -49.917)"/>
          <path id="Path_947151" data-name="Path 947151" d="M249.681,86.864a3.026,3.026,0,1,0,3.026,3.026A3.029,3.029,0,0,0,249.681,86.864Zm0,4.1a1.077,1.077,0,1,1,1.077-1.077A1.078,1.078,0,0,1,249.681,90.966Z" transform="translate(-214.601 -75.739)"/>
          <path id="Path_947152" data-name="Path 947152" d="M334.191,231.062a1.626,1.626,0,0,0,1.624-1.624v-7.109a1.626,1.626,0,0,0-1.624-1.624H323.851a.969.969,0,0,0,.194-.582v-1.559a.975.975,0,1,0-1.949,0v1.559a.969.969,0,0,0,.194.582H311.948a1.626,1.626,0,0,0-1.624,1.624v7.109a1.626,1.626,0,0,0,1.624,1.624H322.1v1.954H311.948a1.626,1.626,0,0,0-1.624,1.624v7.109a1.626,1.626,0,0,0,1.624,1.624H322.1v1.955H311.948a1.626,1.626,0,0,0-1.624,1.624v2.592a.973.973,0,0,0,0,1.924v2.592a1.626,1.626,0,0,0,1.624,1.624h22.243a1.626,1.626,0,0,0,1.624-1.624v-7.109a1.626,1.626,0,0,0-1.624-1.624H324.045v-1.955h2.545a.975.975,0,1,0,0-1.949H312.273v-6.459h21.593v6.459h-2.729a.975.975,0,0,0,0,1.949h3.054a1.626,1.626,0,0,0,1.624-1.624v-7.109a1.626,1.626,0,0,0-1.624-1.624H324.045v-1.954Zm-.325,16.216v6.459H312.273v-6.459Zm-21.593-18.165v-6.459h21.593v6.459Z" transform="translate(-269.279 -189.475)"/>
          <path id="Path_947153" data-name="Path 947153" d="M366.694,273.916H352.4a.975.975,0,0,0,0,1.949h14.294a.975.975,0,0,0,0-1.949Z" transform="translate(-305.756 -238.482)"/>
          <path id="Path_947154" data-name="Path 947154" d="M367.668,369.631a.975.975,0,0,0-.975-.975H352.4a.975.975,0,0,0,0,1.949h14.294A.975.975,0,0,0,367.668,369.631Z" transform="translate(-305.756 -320.91)"/>
          <path id="Path_947155" data-name="Path 947155" d="M352.4,465.344h14.294a.975.975,0,1,0,0-1.949H352.4a.975.975,0,1,0,0,1.949Z" transform="translate(-305.755 -403.337)"/>
        </g>
      </g>
    </g>
  </g>
</svg>
