<svg xmlns="http://www.w3.org/2000/svg" width="50" height="53.064" viewBox="0 0 50 53.064">
  <g id="Group_1172528" data-name="Group 1172528" transform="translate(-14.783)">
    <g id="Group_1172527" data-name="Group 1172527" transform="translate(14.783 0)">
      <path id="Path_947268" data-name="Path 947268" d="M267.62,131.692v-4.769l.389-.766a7.028,7.028,0,0,0,.757-3.164v-5.207a4.289,4.289,0,0,0-4.285-4.285h-8.952a3.372,3.372,0,0,0-3.351,3.111,3.291,3.291,0,0,0,.888,2.5,3.462,3.462,0,0,0,1.23.847V122.3l-.861.861a1.551,1.551,0,0,0,0,2.194l.861.861v1.1a2.635,2.635,0,0,0,2.632,2.632h3.06v1.63a8.958,8.958,0,0,0-6.148,8.494v4.123h-5.908a3.208,3.208,0,0,0,0,6.417h5.908v2.379a1.816,1.816,0,0,0,1.814,1.814h13.425a1.816,1.816,0,0,0,1.814-1.814v-16.1A5.769,5.769,0,0,0,267.62,131.692Zm-13.892-14.966a1.811,1.811,0,0,1,1.8-1.671h8.952a2.733,2.733,0,0,1,2.73,2.73v5.207a5.466,5.466,0,0,1-.588,2.461l-.257.506h-1.171l-1.008-4.82a2.843,2.843,0,0,0-2.854-2.473H255.6a1.913,1.913,0,0,1-1.4-.609A1.752,1.752,0,0,1,253.728,116.726Zm6.277,11.665h-3.078a1.078,1.078,0,0,1-1.077-1.077v-1.42a.777.777,0,0,0-.228-.55l-1.089-1.084,1.089-1.089a.777.777,0,0,0,.228-.55v-2.4h5.482a1.307,1.307,0,0,1,1.313,1.125.778.778,0,0,0,.012.077l1.038,4.96a1.429,1.429,0,0,0,1.392,1.131h.978V131.2a5.774,5.774,0,0,0-.934-.077h-2.347a8.97,8.97,0,0,0-1.242.088v-1.286A1.539,1.539,0,0,0,260.006,128.391ZM246.279,147.4a1.656,1.656,0,0,1,1.654-1.654h2.158v3.307h-2.158A1.656,1.656,0,0,1,246.279,147.4Zm23.059,5.587a.259.259,0,0,1-.259.259H255.654a.259.259,0,0,1-.259-.259v-2.379h7.157a3.635,3.635,0,0,0,3.631-3.631V139.2a3.208,3.208,0,1,0-6.417,0v.471a.777.777,0,1,0,1.555,0V139.2a1.654,1.654,0,0,1,3.307,0v7.779a2.079,2.079,0,0,1-2.076,2.077H251.645v-3.307h8.9a.777.777,0,0,0,.777-.777V143.3a.777.777,0,1,0-1.555,0v.895h-4.371V140.07a7.4,7.4,0,0,1,7.389-7.389h2.347a4.211,4.211,0,0,1,4.207,4.207Z" transform="translate(-220.893 -101.738)" fill="#6003fe"/>
      <path id="Path_947269" data-name="Path 947269" d="M370.277,195.6a.777.777,0,0,0-.777.777v.3a.777.777,0,0,0,1.555,0v-.3A.777.777,0,0,0,370.277,195.6Z" transform="translate(-332.737 -175.326)" fill="#6003fe"/>
      <path id="Path_947270" data-name="Path 947270" d="M84.463,425.224a.777.777,0,0,0-.777.777v.829a.777.777,0,1,0,1.555,0V426A.777.777,0,0,0,84.463,425.224Z" transform="translate(-76.545 -381.153)" fill="#6003fe"/>
      <path id="Path_947271" data-name="Path 947271" d="M131.43,8.283H146.2l2.31,2.31a1.125,1.125,0,0,0,1.921-.8V8.283h4.451a1.816,1.816,0,0,0,1.814-1.814V1.814A1.816,1.816,0,0,0,154.88,0H131.43a1.816,1.816,0,0,0-1.814,1.814V6.47A1.816,1.816,0,0,0,131.43,8.283Zm-.259-6.47a.259.259,0,0,1,.259-.259h23.45a.259.259,0,0,1,.259.259V6.47a.259.259,0,0,1-.259.259h-4.917a1.089,1.089,0,0,0-1.088,1.088v.945L147.22,7.108a1.287,1.287,0,0,0-.916-.379H131.43a.259.259,0,0,1-.259-.259Z" transform="translate(-117.715 0)" fill="#6003fe"/>
      <path id="Path_947272" data-name="Path 947272" d="M170.13,34.017h1.363a.777.777,0,1,0,0-1.555H170.13a.777.777,0,1,0,0,1.555Z" transform="translate(-153.333 -29.098)" fill="#6003fe"/>
      <path id="Path_947273" data-name="Path 947273" d="M244.277,34.017h9.6a.777.777,0,0,0,0-1.555h-9.6a.777.777,0,1,0,0,1.555Z" transform="translate(-219.796 -29.098)" fill="#6003fe"/>
      <path id="Path_947274" data-name="Path 947274" d="M174.048,131.4H177.7a.777.777,0,1,0,0-1.555h-3.651a.777.777,0,1,0,0,1.555Z" transform="translate(-156.845 -116.39)" fill="#6003fe"/>
      <path id="Path_947275" data-name="Path 947275" d="M235.654,131.4a.777.777,0,1,0,0-1.555h-1.16a.777.777,0,1,0,0,1.555Z" transform="translate(-211.026 -116.39)" fill="#6003fe"/>
      <path id="Path_947276" data-name="Path 947276" d="M206.931,34.017h1.363a.777.777,0,1,0,0-1.555h-1.363a.777.777,0,1,0,0,1.555Z" transform="translate(-186.32 -29.098)" fill="#6003fe"/>
      <path id="Path_947277" data-name="Path 947277" d="M43.089,103.856V99.2a1.816,1.816,0,0,0-1.814-1.814H34.083a.777.777,0,1,0,0,1.555h7.192a.259.259,0,0,1,.259.259v4.656a.259.259,0,0,1-.259.259H38a1.287,1.287,0,0,0-.916.379l-1.654,1.654V105.2a1.089,1.089,0,0,0-1.088-1.088H30.9a7.771,7.771,0,0,0-1.849-2.861,7.915,7.915,0,0,0-.816-.7V99.2a.259.259,0,0,1,.259-.259h1.957a.777.777,0,0,0,0-1.555H28.5A1.816,1.816,0,0,0,26.684,99.2v.452a7.738,7.738,0,0,0-2.551-.621v-.868a.777.777,0,0,0-1.555,0v.918a8.028,8.028,0,0,0-6.787,7.372,7.765,7.765,0,0,0,1.96,5.532,1.214,1.214,0,0,1,.3.809v4.453a5.768,5.768,0,0,0-3.272,5.2v2.472a.777.777,0,1,0,1.555,0v-2.472a4.211,4.211,0,0,1,4.207-4.207h4.2l.1,0h.047a5.542,5.542,0,0,1,5.386,5.533v3.94a3.743,3.743,0,0,1-3.739,3.739H26.07V128.27a4.519,4.519,0,1,0-6.737,0v3.182h-3v-2.91a.777.777,0,0,0-1.555,0v10a1.816,1.816,0,0,0,1.814,1.814H28.17a1.816,1.816,0,0,0,1.814-1.814v-6.814a5.282,5.282,0,0,0,1.852-4.017v-3.94a7.1,7.1,0,0,0-6.148-7.027V115.5h3.1a2.591,2.591,0,0,0,2.588-2.588v-6.1a7.932,7.932,0,0,0-.082-1.139h2.58v1.515a1.125,1.125,0,0,0,1.921.8l2.31-2.31h3.166a1.816,1.816,0,0,0,1.814-1.814ZM20.888,129.4a4.505,4.505,0,0,0,3.627,0v6.346H20.888Zm1.814-7.1a2.965,2.965,0,1,1-2.965,2.965A2.968,2.968,0,0,1,22.7,122.3Zm-6.364,16.247v-5.537h3v5.8H16.6A.259.259,0,0,1,16.338,138.543Zm4.55.259v-1.5h3.627v1.5Zm7.541-.259a.259.259,0,0,1-.259.259h-2.1v-5.8h.472a5.264,5.264,0,0,0,1.887-.349Zm-.465-36.182a6.19,6.19,0,0,1,1.812,3.67h-3.2a3.536,3.536,0,0,0-2.447-2.017v-3.426a6.188,6.188,0,0,1,3.83,1.772Zm-1.084,6.127v-.9h2.945v1.671H26.794A3.516,3.516,0,0,0,26.88,108.487Zm-3.524-3.006a1.971,1.971,0,0,1,1.969,1.969v1.036a1.969,1.969,0,1,1-3.938,0v-1.036A1.971,1.971,0,0,1,23.356,105.482Zm5.436,8.464H25.67a1.539,1.539,0,0,0-1.537,1.537v1.2H20.544a5.773,5.773,0,0,0-.934.077v-3.964a2.768,2.768,0,0,0-.7-1.841,6.218,6.218,0,0,1-1.569-4.43,6.432,6.432,0,0,1,5.234-5.871v3.363a3.529,3.529,0,0,0-2.746,3.436v1.036A3.521,3.521,0,0,0,26,110.812h3.824v2.1A1.034,1.034,0,0,1,28.792,113.946Z" transform="translate(-14.783 -87.293)" fill="#6003fe"/>
    </g>
  </g>
</svg>
