<svg xmlns="http://www.w3.org/2000/svg" width="120" height="120" viewBox="0 0 120 120">
  <g id="Group_1169222" data-name="Group 1169222" transform="translate(-64 -6445)">
    <rect id="Rectangle_402033" data-name="Rectangle 402033" width="120" height="120" rx="8" transform="translate(64 6445)" fill="#6003fe"/>
    <g id="Rectangle_412110" data-name="Rectangle 412110" transform="translate(69 6450)" fill="none" stroke="#fff" stroke-width="1">
      <rect width="110" height="110" rx="6" stroke="none"/>
      <rect x="0.5" y="0.5" width="109" height="109" rx="5.5" fill="none"/>
    </g>
    <g id="Group_1155336" data-name="Group 1155336" transform="translate(-325 -2)">
      <circle id="Ellipse_13473" data-name="Ellipse 13473" cx="60" cy="60" r="60" transform="translate(389 6447)" fill="#6003fe"/>
      <g id="Ellipse_13474" data-name="Ellipse 13474" transform="translate(399 6457)" fill="none" stroke="#fff" stroke-width="1">
        <circle cx="50" cy="50" r="50" stroke="none"/>
        <circle cx="50" cy="50" r="49.5" fill="none"/>
      </g>
      <g id="Group_1172205" data-name="Group 1172205" transform="translate(418.021 6459.497)">
        <g id="Group_1172204" data-name="Group 1172204" transform="translate(1.941 21.394)">
          <g id="Group_1172202" data-name="Group 1172202" transform="translate(0 3.325)">
            <path id="Path_943542" data-name="Path 943542" d="M155.572,410.628l-20.174.259-4.482,7.691a.471.471,0,0,0,.407.708H159.8a.471.471,0,0,0,.407-.708Z" transform="translate(-116.523 -369.666)" fill="#004960" fill-rule="evenodd"/>
            <path id="Path_943543" data-name="Path 943543" d="M64.035,62.188a3.041,3.041,0,0,1,3.032,3.032v36.5a3.041,3.041,0,0,1-3.032,3.032H12.025a3.041,3.041,0,0,1-3.032-3.032V65.22a3.041,3.041,0,0,1,3.032-3.032H64.035Z" transform="translate(-8.993 -62.188)" fill="#e6f8ff" fill-rule="evenodd"/>
            <path id="Path_943544" data-name="Path 943544" d="M67.067,381.036H8.993v2.045a3.041,3.041,0,0,0,3.032,3.032H64.035a3.041,3.041,0,0,0,3.032-3.032v-2.045Z" transform="translate(-8.993 -343.553)" fill="#007ba1" fill-rule="evenodd"/>
          </g>
          <path id="Path_943545" data-name="Path 943545" d="M127.661,150.546a6.995,6.995,0,0,1-1.116-13.9c0-.03,0-.06,0-.09a7.855,7.855,0,0,1,14.2-4.631,4.228,4.228,0,0,1,6.392,4.828,6.994,6.994,0,0,1-1.647,13.792Z" transform="translate(-107.538 -117.557)" fill="#4294ff" fill-rule="evenodd"/>
          <g id="Group_1172203" data-name="Group 1172203" transform="translate(3.195)">
            <circle id="Ellipse_13605" data-name="Ellipse 13605" cx="8.186" cy="8.186" r="8.186" fill="#4294ff"/>
          </g>
        </g>
        <path id="Path_943546" data-name="Path 943546" d="M8.518,30.044A.94.94,0,1,1,9.829,28.7l2.3,2.246,4.672-4.715a.94.94,0,1,1,1.336,1.323L12.813,32.93a.939.939,0,0,1-1.323.012Zm27.162,6.495a3.288,3.288,0,0,1,4.969,3.754.94.94,0,0,0,.669,1.212,6.054,6.054,0,0,1-1.424,11.939H22.066A6.055,6.055,0,0,1,21.1,41.411a.941.941,0,0,0,.79-.938v-.08a6.914,6.914,0,0,1,12.5-4.075A.941.941,0,0,0,35.679,36.539ZM28.8,31.6a8.809,8.809,0,0,0-8.77,8.121,7.935,7.935,0,0,0,2.033,15.606H39.894a7.935,7.935,0,0,0,2.757-15.376,5.267,5.267,0,0,0,.046-.695,5.166,5.166,0,0,0-7.316-4.7A8.831,8.831,0,0,0,28.8,31.6Zm6.366-1.1a.94.94,0,0,0,1.152.665,7.21,7.21,0,0,1,8.82,5.093.94.94,0,0,0,.909.7.969.969,0,0,0,.243-.032.942.942,0,0,0,.665-1.152,9.081,9.081,0,0,0-11.125-6.422.939.939,0,0,0-.665,1.151Zm-2.408-8.988a.94.94,0,0,0,1.151.665A16.527,16.527,0,0,1,54.131,33.846a.939.939,0,0,0,.908.7.922.922,0,0,0,.243-.032.941.941,0,0,0,.665-1.152,18.411,18.411,0,0,0-22.522-13,.942.942,0,0,0-.664,1.152ZM49.636,35.051a.943.943,0,0,0,.909.7.922.922,0,0,0,.243-.033.94.94,0,0,0,.665-1.151A13.751,13.751,0,0,0,34.631,24.85a.941.941,0,1,0,.487,1.818A11.867,11.867,0,0,1,49.636,35.051Zm7.349,31.288H4.974a2.094,2.094,0,0,1-2.091-2.092v-1.1H59.076v1.1a2.094,2.094,0,0,1-2.091,2.092ZM44.4,73.4H17.559l3.017-5.18H41.382ZM13.323,22.333a7.245,7.245,0,1,0,7.245,7.247A7.254,7.254,0,0,0,13.323,22.333Zm43.661,1.445h-3.9a.94.94,0,0,0,0,1.881h3.9a2.094,2.094,0,0,1,2.091,2.091V61.262H2.883V27.75a2.094,2.094,0,0,1,2.091-2.091h.109a9.126,9.126,0,1,0,16.48,0H31.917a.94.94,0,0,0,0-1.881H20.363a9.115,9.115,0,0,0-14.081,0H4.974A3.977,3.977,0,0,0,1,27.75v36.5a3.977,3.977,0,0,0,3.972,3.973H18.4l-2.878,4.939a1.389,1.389,0,0,0-.009,1.408,1.425,1.425,0,0,0,1.229.714H45.217a1.425,1.425,0,0,0,1.229-.714,1.388,1.388,0,0,0-.009-1.408L43.56,68.219H56.985a3.977,3.977,0,0,0,3.972-3.973V27.75a3.977,3.977,0,0,0-3.972-3.972Z" transform="translate(0 0)" fill-rule="evenodd"/>
      </g>
    </g>
  </g>
</svg>
