<svg xmlns="http://www.w3.org/2000/svg" width="120" height="120" viewBox="0 0 120 120">
  <g id="Group_1169228" data-name="Group 1169228" transform="translate(-64 -6445)">
    <rect id="Rectangle_402033" data-name="Rectangle 402033" width="120" height="120" rx="8" transform="translate(64 6445)" fill="#6003fe"/>
    <g id="Rectangle_412110" data-name="Rectangle 412110" transform="translate(69 6450)" fill="none" stroke="#fff" stroke-width="1">
      <rect width="110" height="110" rx="6" stroke="none"/>
      <rect x="0.5" y="0.5" width="109" height="109" rx="5.5" fill="none"/>
    </g>
    <g id="Group_1155336" data-name="Group 1155336" transform="translate(-325 -2)">
      <circle id="Ellipse_13473" data-name="Ellipse 13473" cx="60" cy="60" r="60" transform="translate(389 6447)" fill="#6003fe"/>
      <g id="Ellipse_13474" data-name="Ellipse 13474" transform="translate(399 6457)" fill="none" stroke="#fff" stroke-width="1">
        <circle cx="50" cy="50" r="50" stroke="none"/>
        <circle cx="50" cy="50" r="49.5" fill="none"/>
      </g>
      <g id="Group_1172198" data-name="Group 1172198" transform="translate(409.351 6467.351)">
        <path id="Path_943487" data-name="Path 943487" d="M61.406,361.63H55.97V343.49l5.436.052Z" transform="translate(-40.43 -293.296)" fill="#fedf30" fill-rule="evenodd"/>
        <path id="Path_943488" data-name="Path 943488" d="M131.68,397.76h5.436v11.6H131.68Z" transform="translate(-107.015 -341.025)" fill="#ff5a5a" fill-rule="evenodd"/>
        <path id="Path_943489" data-name="Path 943489" d="M212.836,371.656H207.4V354.89l.85,1.005a14.012,14.012,0,0,0,4.323,3.43l.263.134Z" transform="translate(-173.609 -303.322)" fill="#05e39c" fill-rule="evenodd"/>
        <path id="Path_943490" data-name="Path 943490" d="M288.536,412.648H283.1V401.643l.544.07a13.95,13.95,0,0,0,4.322-.11l.569-.1v11.148Z" transform="translate(-240.185 -344.315)" fill="#87d4ed" fill-rule="evenodd"/>
        <path id="Path_943491" data-name="Path 943491" d="M390.357,373.6l7.436,6.329a3.023,3.023,0,0,1,1.041,2.212,3.613,3.613,0,0,1-3.756,3.754,3.023,3.023,0,0,1-2.209-1.04l-6.33-7.436Z" transform="translate(-331.158 -319.777)" fill="#fedf30" fill-rule="evenodd"/>
        <path id="Path_943492" data-name="Path 943492" d="M371.744,355.51l2.194,1.867-3.763,3.763-1.885-2.216.411-.307a14.036,14.036,0,0,0,2.735-2.7Z" transform="translate(-315.107 -303.868)" fill="#f1f1f2" fill-rule="evenodd"/>
        <path id="Path_943493" data-name="Path 943493" d="M218.013,190.641A13.441,13.441,0,1,1,204.572,177.2,13.456,13.456,0,0,1,218.013,190.641Z" transform="translate(-159.299 -147.048)" fill="#fedf30" fill-rule="evenodd"/>
        <path id="Path_943494" data-name="Path 943494" d="M451.17,20.82l4.822,4.822H451.17Z" transform="translate(-387.998 -9.516)" fill="#fedf30" fill-rule="evenodd"/>
        <path id="Path_943495" data-name="Path 943495" d="M258.641,21.093a.241.241,0,0,0-.241-.241h-2.29V18h23.027v5.4a.242.242,0,0,0,.241.241h5.4V59.313H274.576l-1.218-1.037.218-.352a13.921,13.921,0,0,0-16.811-20.307l-.654.249V34.179h2.29a.242.242,0,0,0,.241-.241Z" transform="translate(-216.448 -7.036)" fill="#f1f1f2" fill-rule="evenodd"/>
        <path id="Path_943496" data-name="Path 943496" d="M18,45.66H48.747V58.023H18Z" transform="translate(-7.036 -31.362)" fill="#87d4ed" fill-rule="evenodd"/>
        <path id="Path_943497" data-name="Path 943497" d="M230.024,206.14a9.954,9.954,0,1,0,9.954,9.953A9.965,9.965,0,0,0,230.024,206.14Z" transform="translate(-184.751 -172.5)" fill="#f1f1f2" fill-rule="evenodd"/>
        <path id="Path_943498" data-name="Path 943498" d="M234.948,328.66a9.619,9.619,0,0,1-.943-1.165l-.516-.754h2.29v2.8Z" transform="translate(-196.554 -278.565)" fill="#05e39c" fill-rule="evenodd"/>
        <g id="Group_1172197" data-name="Group 1172197" transform="translate(24.406 18.227)">
          <path id="Path_943499" data-name="Path 943499" d="M288.193,273.892a9.452,9.452,0,0,1-4.711.2l-.382-.082V261.55h5.436v12.238Z" transform="translate(-264.591 -239.459)" fill="#87d4ed" fill-rule="evenodd"/>
          <path id="Path_943500" data-name="Path 943500" d="M300.6,78.26a.241.241,0,0,0,0,.482h13.716a.241.241,0,1,0,0-.482Z" transform="translate(-279.771 -78.26)" fill="#87d4ed" fill-rule="evenodd"/>
          <path id="Path_943501" data-name="Path 943501" d="M300.6,125.74a.241.241,0,0,0,0,.482h18.55a.241.241,0,0,0,0-.482Z" transform="translate(-279.771 -120.017)" fill="#87d4ed" fill-rule="evenodd"/>
          <path id="Path_943502" data-name="Path 943502" d="M379.581,173.21a.241.241,0,0,0,0,.482h9.03a.241.241,0,1,0,0-.482Z" transform="translate(-349.232 -161.766)" fill="#87d4ed" fill-rule="evenodd"/>
          <path id="Path_943503" data-name="Path 943503" d="M434.53,268.4a.242.242,0,0,0,.241.241h2.379a.241.241,0,1,0,0-.482h-2.379A.24.24,0,0,0,434.53,268.4Z" transform="translate(-397.77 -245.272)" fill="#87d4ed" fill-rule="evenodd"/>
          <path id="Path_943504" data-name="Path 943504" d="M434.389,315.63h-2.758a.241.241,0,1,0,0,.482h2.758a.241.241,0,1,0,0-.482Z" transform="translate(-395.008 -287.021)" fill="#87d4ed" fill-rule="evenodd"/>
          <path id="Path_943505" data-name="Path 943505" d="M420.481,220.68a.241.241,0,0,0,0,.482h4.1a.241.241,0,0,0,0-.482Z" transform="translate(-385.202 -203.515)" fill="#87d4ed" fill-rule="evenodd"/>
          <path id="Path_943506" data-name="Path 943506" d="M129.771,109.9a.241.241,0,0,0,0,.482H144.1a.241.241,0,1,0,0-.482Z" transform="translate(-129.53 -106.087)" fill="#87d4ed" fill-rule="evenodd"/>
          <path id="Path_943507" data-name="Path 943507" d="M139.961,80.241A.241.241,0,0,0,139.72,80h-9.949a.241.241,0,0,0,0,.482h9.949A.24.24,0,0,0,139.961,80.241Z" transform="translate(-129.53 -79.79)" fill="#87d4ed" fill-rule="evenodd"/>
        </g>
        <path id="Path_943508" data-name="Path 943508" d="M45.44,70.92l1.67-1.24a.241.241,0,0,0-.287-.388L45.44,70.318V69.271a.242.242,0,0,0-.241-.241H38.951a.24.24,0,0,0-.241.241v6.248a.24.24,0,0,0,.241.241H45.2a.242.242,0,0,0,.241-.241Z" transform="translate(-25.25 -51.915)" fill="#f1f1f2" fill-rule="evenodd"/>
        <path id="Path_943509" data-name="Path 943509" d="M48.476,78.8H42.71V73.03h5.766v1.164l-2.82,2.094-1.028-1.345a.241.241,0,0,0-.383.292l1.173,1.537a.242.242,0,0,0,.335.047L48.477,74.8v4Z" transform="translate(-28.768 -55.433)" fill="#05e39c" fill-rule="evenodd"/>
        <path id="Path_943510" data-name="Path 943510" d="M19.226,22.88h-4.8v-4.8h4.8v.44l-2.244,1.666-.74-.968a.723.723,0,0,0-1.15.876l1.173,1.537a.723.723,0,0,0,1.005.142l1.955-1.451v2.56Zm2.061-5.891-.613.456v-.089a.724.724,0,0,0-.723-.723H13.7a.723.723,0,0,0-.723.723V23.6a.723.723,0,0,0,.723.723h6.248a.724.724,0,0,0,.723-.723V19.247l1.475-1.1a.723.723,0,0,0-.861-1.162ZM39.7,22.281a.724.724,0,0,1-.723.723H24.647a.723.723,0,0,1,0-1.446H38.974A.723.723,0,0,1,39.7,22.281Zm-15.773-3.6a.723.723,0,0,1,.723-.723H34.6a.723.723,0,0,1,0,1.446H24.647A.723.723,0,0,1,23.924,18.678ZM45.273,34.6a8.987,8.987,0,0,1,4.042,17.014V40.077a.724.724,0,0,0-.723-.723H42.674a.723.723,0,0,0-.723.723V51.944A8.911,8.911,0,0,1,40.19,51V47.934a.724.724,0,0,0-.723-.723H37.046A8.984,8.984,0,0,1,45.273,34.6ZM43.4,52.385a8.973,8.973,0,0,0,4.471-.187V40.8H43.4Zm-4.652-2.621V48.657h-.894A8.864,8.864,0,0,0,38.745,49.763Zm6.528,4.265A10.436,10.436,0,1,0,34.836,43.593,10.448,10.448,0,0,0,45.273,54.029ZM64.51,47.077a.723.723,0,0,1-.723.723H61.029a.723.723,0,1,1,0-1.446h2.758A.723.723,0,0,1,64.51,47.077Zm0-5.721a.723.723,0,0,1-.723.723H61.407a.723.723,0,0,1,0-1.446h2.379A.722.722,0,0,1,64.51,41.356Zm0-5.722a.722.722,0,0,1-.723.723h-4.1a.723.723,0,0,1,0-1.446h4.1A.723.723,0,0,1,64.51,35.633Zm0-5.721a.723.723,0,0,1-.723.723h-9.03a.723.723,0,1,1,0-1.446h9.03A.723.723,0,0,1,64.51,29.912Zm0-5.721a.723.723,0,0,1-.723.723H45.236a.723.723,0,0,1,0-1.446h18.55A.722.722,0,0,1,64.51,24.191Zm-20-5.722a.724.724,0,0,1,.723-.723H58.952a.723.723,0,1,1,0,1.446H45.236A.722.722,0,0,1,44.513,18.468ZM58.3,51.8h9.547V17.09H62.931a.724.724,0,0,1-.723-.723V11.446H40.144v1.887h1.808a.724.724,0,0,1,.723.723V26.9a.723.723,0,0,1-.723.723H40.144v2.506A14.4,14.4,0,0,1,57.537,51.142Zm8.89,10.587a3.13,3.13,0,0,1-3.254,3.253,2.538,2.538,0,0,1-1.862-.871l-6.041-7.1,3.188-3.188,7.1,6.041A2.543,2.543,0,0,1,67.195,62.382ZM56.712,52.339l1.409,1.2L55.1,56.562l-1.214-1.427A14.525,14.525,0,0,0,56.712,52.339ZM47.869,67.852H43.4V57.877A14.573,14.573,0,0,0,45.273,58a14.4,14.4,0,0,0,2.6-.235ZM16.023,50.681l4.471.042V67.852H16.023Zm9.125,6.536h4.471V67.852H25.147Zm9.125-4.333a14.5,14.5,0,0,0,4.471,3.548v11.42H34.272Zm7.68,4.728v10.24H40.191V57.072A14.387,14.387,0,0,0,41.952,57.612Zm3.32-26.978A12.959,12.959,0,1,0,58.231,43.593,12.974,12.974,0,0,0,45.273,30.634ZM11.446,14.78v11.4H41.229V14.78Zm52.208-2.312,3.176,3.176H63.654Zm5.643,3.9a.721.721,0,0,0-.211-.511l-5.644-5.644A.721.721,0,0,0,62.931,10H39.422a.724.724,0,0,0-.723.723v2.611H10.723a.724.724,0,0,0-.723.723V26.9a.724.724,0,0,0,.723.723H38.7v3.152A14.395,14.395,0,0,0,32.827,50.84V67.852H31.066V56.494a.724.724,0,0,0-.723-.723H24.426a.723.723,0,0,0-.723.723V67.852H21.942V50.006a.723.723,0,0,0-.716-.723l-5.918-.054H15.3a.724.724,0,0,0-.723.723v17.9H11.446V34.9A.723.723,0,1,0,10,34.9V68.575a.723.723,0,0,0,.723.723h44.73a.723.723,0,0,0,0-1.446H49.315V57.42a14.344,14.344,0,0,0,3.359-1.473l8.3,9.754a3.966,3.966,0,0,0,2.906,1.379c.061,0,.122,0,.182,0a4.574,4.574,0,0,0,4.575-4.76,3.97,3.97,0,0,0-1.379-2.906L60,53.242h8.57a.723.723,0,0,0,.723-.723V16.367Z" fill-rule="evenodd"/>
      </g>
    </g>
  </g>
</svg>
