<svg xmlns="http://www.w3.org/2000/svg" width="120" height="120" viewBox="0 0 120 120">
  <g id="Group_1169224" data-name="Group 1169224" transform="translate(-64 -6445)">
    <rect id="Rectangle_402033" data-name="Rectangle 402033" width="120" height="120" rx="8" transform="translate(64 6445)" fill="#6003fe"/>
    <g id="Rectangle_412110" data-name="Rectangle 412110" transform="translate(69 6450)" fill="none" stroke="#fff" stroke-width="1">
      <rect width="110" height="110" rx="6" stroke="none"/>
      <rect x="0.5" y="0.5" width="109" height="109" rx="5.5" fill="none"/>
    </g>
    <g id="Group_1155336" data-name="Group 1155336" transform="translate(-325 -2)">
      <circle id="Ellipse_13473" data-name="Ellipse 13473" cx="60" cy="60" r="60" transform="translate(389 6447)" fill="#6003fe"/>
      <g id="Ellipse_13474" data-name="Ellipse 13474" transform="translate(399 6457)" fill="none" stroke="#fff" stroke-width="1">
        <circle cx="50" cy="50" r="50" stroke="none"/>
        <circle cx="50" cy="50" r="49.5" fill="none"/>
      </g>
      <g id="Group_1172207" data-name="Group 1172207" transform="translate(412.887 6470.208)">
        <g id="Group_1172206" data-name="Group 1172206" transform="translate(4.226 1.226)">
          <circle id="Ellipse_13606" data-name="Ellipse 13606" cx="5" cy="5" r="5" transform="translate(26.886 -0.435)" fill="#f7c037"/>
          <circle id="Ellipse_13607" data-name="Ellipse 13607" cx="5" cy="5" r="5" transform="translate(-0.114 14.565)" fill="#f7c037"/>
          <circle id="Ellipse_13608" data-name="Ellipse 13608" cx="5" cy="5" r="5" transform="translate(-0.114 46.565)" fill="#f7c037"/>
          <circle id="Ellipse_13609" data-name="Ellipse 13609" cx="5" cy="5" r="5" transform="translate(53.886 14.565)" fill="#f7c037"/>
          <circle id="Ellipse_13610" data-name="Ellipse 13610" cx="5" cy="5" r="5" transform="translate(53.886 46.565)" fill="#f7c037"/>
          <circle id="Ellipse_13611" data-name="Ellipse 13611" cx="5" cy="5" r="5" transform="translate(26.886 61.565)" fill="#f7c037"/>
        </g>
        <path id="Path_943547" data-name="Path 943547" d="M28.906,29.49V23.358a2.453,2.453,0,1,1,4.906,0V29.49h4.906V23.358a7.358,7.358,0,1,0-14.717,0V29.49Z" transform="translate(4.754 3.622)" fill="#2e5087"/>
        <rect id="Rectangle_448798" data-name="Rectangle 448798" width="22" height="22" rx="3" transform="translate(25.113 31.792)" fill="#ffcc29"/>
        <ellipse id="Ellipse_13612" data-name="Ellipse 13612" cx="2" cy="2.5" rx="2" ry="2.5" transform="translate(34.113 38.792)" fill="#db972a"/>
        <path id="Path_943548" data-name="Path 943548" d="M3,52.735a6.1,6.1,0,0,0,10.789,3.943l16.49,8.982a6.061,6.061,0,0,0-.3,1.792,6.132,6.132,0,0,0,12.264,0,6.061,6.061,0,0,0-.3-1.792l16.49-8.982a6.119,6.119,0,1,0,5.883-9.951V26.857a6.128,6.128,0,1,0-5.883-9.951L41.947,7.924a6.061,6.061,0,0,0,.3-1.792,6.132,6.132,0,1,0-12.264,0,6.061,6.061,0,0,0,.3,1.792l-16.49,8.982a6.119,6.119,0,1,0-5.883,9.951v19.87A6.142,6.142,0,0,0,3,52.735ZM13.661,24.946l11.824,6.989a4.875,4.875,0,0,0-1.636,3.63v1.226a1.226,1.226,0,1,0,2.453,0V35.566a2.455,2.455,0,0,1,2.453-2.453H43.471a2.455,2.455,0,0,1,2.453,2.453V50.282a2.455,2.455,0,0,1-2.453,2.453H28.754A2.455,2.455,0,0,1,26.3,50.282V41.7a1.226,1.226,0,1,0-2.453,0v.91L13.661,48.637a6.1,6.1,0,0,0-3.3-1.91V26.857a6.114,6.114,0,0,0,3.3-1.911Zm22.452-4.1a6.139,6.139,0,0,1,6.132,6.132V30.66H39.792V26.981a3.679,3.679,0,0,0-7.358,0V30.66H29.981V26.981A6.139,6.139,0,0,1,36.113,20.849Zm25.754,6.008v19.87a6.113,6.113,0,0,0-3.3,1.91L48.377,42.594V35.566a4.873,4.873,0,0,0-1.636-3.63l11.824-6.989a6.114,6.114,0,0,0,3.3,1.911Zm-24.528,3.8H34.886V26.981a1.226,1.226,0,1,1,2.453,0ZM9.132,56.414a3.679,3.679,0,1,1,3.679-3.679A3.684,3.684,0,0,1,9.132,56.414Zm5.834-1.887a5.609,5.609,0,0,0-.06-3.776l8.943-5.292v4.825a4.911,4.911,0,0,0,4.906,4.906h6.132v6.256a6.107,6.107,0,0,0-3.43,2.065l-16.49-8.982Zm21.147,16.6a3.679,3.679,0,1,1,3.679-3.679A3.684,3.684,0,0,1,36.113,71.131Zm4.657-7.622a6.107,6.107,0,0,0-3.43-2.065V55.188h6.132a4.911,4.911,0,0,0,4.906-4.906V45.445l8.943,5.3a5.612,5.612,0,0,0-.06,3.777l-16.49,8.982Zm26-10.774a3.679,3.679,0,1,1-3.679-3.679A3.684,3.684,0,0,1,66.773,52.735ZM63.094,17.17a3.679,3.679,0,1,1-3.679,3.679A3.684,3.684,0,0,1,63.094,17.17ZM57.26,19.057a5.609,5.609,0,0,0,.06,3.776L44.7,30.295V26.981a8.592,8.592,0,0,0-7.358-8.487V12.14a6.107,6.107,0,0,0,3.43-2.065ZM36.113,2.453a3.679,3.679,0,1,1-3.679,3.679A3.684,3.684,0,0,1,36.113,2.453Zm-4.657,7.622a6.107,6.107,0,0,0,3.43,2.065v6.354a8.592,8.592,0,0,0-7.358,8.487v3.314L14.906,22.833a5.609,5.609,0,0,0,.06-3.776Zm-26,10.774a3.679,3.679,0,1,1,3.679,3.679A3.684,3.684,0,0,1,5.453,20.849Z" fill="#262626"/>
        <path id="Path_943549" data-name="Path 943549" d="M29.453,38.133v1.452a1.226,1.226,0,0,0,2.453,0V38.133a3.679,3.679,0,1,0-2.453,0Zm1.226-4.68a1.226,1.226,0,1,1-1.226,1.226A1.227,1.227,0,0,1,30.679,33.453Z" transform="translate(5.434 7.018)" fill="#262626"/>
      </g>
    </g>
  </g>
</svg>
