<svg xmlns="http://www.w3.org/2000/svg" width="120" height="120" viewBox="0 0 120 120">
  <g id="Group_1169230" data-name="Group 1169230" transform="translate(-64 -6445)">
    <rect id="Rectangle_402033" data-name="Rectangle 402033" width="120" height="120" rx="8" transform="translate(64 6445)" fill="#6003fe"/>
    <g id="Rectangle_412110" data-name="Rectangle 412110" transform="translate(69 6450)" fill="none" stroke="#fff" stroke-width="1">
      <rect width="110" height="110" rx="6" stroke="none"/>
      <rect x="0.5" y="0.5" width="109" height="109" rx="5.5" fill="none"/>
    </g>
    <g id="Group_1155336" data-name="Group 1155336" transform="translate(-325 -2)">
      <path id="Path_927567" data-name="Path 927567" d="M60,0A60,60,0,1,1,0,60,60,60,0,0,1,60,0Z" transform="translate(389 6447)" fill="#6003fe"/>
      <g id="Ellipse_13474" data-name="Ellipse 13474" transform="translate(399 6457)" fill="none" stroke="#fff" stroke-width="1">
        <circle cx="50" cy="50" r="50" stroke="none"/>
        <circle cx="50" cy="50" r="49.5" fill="none"/>
      </g>
      <g id="Group_1172196" data-name="Group 1172196" transform="translate(416 6474)">
        <path id="Path_943443" data-name="Path 943443" d="M45.74,1.98H7.13a4.9,4.9,0,0,0-4.9,4.9V45.54a4.9,4.9,0,0,0,4.9,4.9H45.74a4.9,4.9,0,0,0,4.9-4.9V6.88a4.908,4.908,0,0,0-4.9-4.9Z" fill="#fdcd56"/>
        <g id="Group_1172159" data-name="Group 1172159">
          <path id="Path_943444" data-name="Path 943444" d="M50.63,44.67v1.92a3.852,3.852,0,0,1-3.85,3.85H6.08a3.858,3.858,0,0,1-3.85-3.85V44.67a3.852,3.852,0,0,0,3.85,3.85H46.79A3.856,3.856,0,0,0,50.63,44.67Z" fill="#e3b84d"/>
        </g>
        <g id="Group_1172160" data-name="Group 1172160">
          <path id="Path_943445" data-name="Path 943445" d="M46.79,50.91H6.08a4.332,4.332,0,0,1-4.33-4.33V5.83A4.332,4.332,0,0,1,6.08,1.5H46.79a4.332,4.332,0,0,1,4.33,4.33V46.59A4.343,4.343,0,0,1,46.79,50.91ZM6.08,2.46A3.372,3.372,0,0,0,2.71,5.83V46.59a3.372,3.372,0,0,0,3.37,3.37H46.79a3.372,3.372,0,0,0,3.37-3.37V5.83a3.372,3.372,0,0,0-3.37-3.37Z" fill="#000102"/>
        </g>
        <g id="Group_1172161" data-name="Group 1172161">
          <path id="Path_943446" data-name="Path 943446" d="M6.73,40.97V16.84a4.976,4.976,0,0,1,4.97-4.97H41.17a4.976,4.976,0,0,1,4.97,4.97V40.97a4.976,4.976,0,0,1-4.97,4.97H11.7a4.97,4.97,0,0,1-4.97-4.97Z" fill="#fff"/>
          <path id="Path_943447" data-name="Path 943447" d="M43.75,46.42H9.12a2.877,2.877,0,0,1-2.87-2.87V14.25a2.876,2.876,0,0,1,2.87-2.87H43.75a2.876,2.876,0,0,1,2.87,2.87v29.3A2.876,2.876,0,0,1,43.75,46.42ZM9.12,12.35a1.916,1.916,0,0,0-1.91,1.91v29.3a1.916,1.916,0,0,0,1.91,1.91H43.75a1.916,1.916,0,0,0,1.91-1.91V14.26a1.916,1.916,0,0,0-1.91-1.91Z" fill="#000102"/>
        </g>
        <g id="Group_1172168" data-name="Group 1172168">
          <g id="Group_1172162" data-name="Group 1172162">
            <path id="Path_943448" data-name="Path 943448" d="M11.23,8.78H9.33a.918.918,0,0,1-.92-.92V5.96a.918.918,0,0,1,.92-.92h1.9a.918.918,0,0,1,.92.92v1.9A.918.918,0,0,1,11.23,8.78Z" fill="#fff"/>
            <path id="Path_943449" data-name="Path 943449" d="M11.56,9.26H9.01A1.071,1.071,0,0,1,7.94,8.19V5.64A1.071,1.071,0,0,1,9.01,4.57h2.55a1.071,1.071,0,0,1,1.07,1.07V8.19A1.071,1.071,0,0,1,11.56,9.26ZM9.01,5.52a.111.111,0,0,0-.11.11V8.18a.111.111,0,0,0,.11.11h2.55a.111.111,0,0,0,.11-.11V5.64a.111.111,0,0,0-.11-.11H9.01Z" fill="#000102"/>
          </g>
          <g id="Group_1172163" data-name="Group 1172163">
            <path id="Path_943450" data-name="Path 943450" d="M17.77,8.78h-1.9a.918.918,0,0,1-.92-.92V5.96a.918.918,0,0,1,.92-.92h1.9a.918.918,0,0,1,.92.92v1.9A.924.924,0,0,1,17.77,8.78Z" fill="#fff"/>
            <path id="Path_943451" data-name="Path 943451" d="M18.09,9.26H15.54a1.071,1.071,0,0,1-1.07-1.07V5.64a1.071,1.071,0,0,1,1.07-1.07h2.55a1.071,1.071,0,0,1,1.07,1.07V8.19A1.059,1.059,0,0,1,18.09,9.26ZM15.54,5.52a.111.111,0,0,0-.11.11V8.18a.111.111,0,0,0,.11.11h2.55a.111.111,0,0,0,.11-.11V5.64a.111.111,0,0,0-.11-.11H15.54Z" fill="#000102"/>
          </g>
          <g id="Group_1172164" data-name="Group 1172164">
            <path id="Path_943452" data-name="Path 943452" d="M24.31,8.78h-1.9a.918.918,0,0,1-.92-.92V5.96a.918.918,0,0,1,.92-.92h1.9a.918.918,0,0,1,.92.92v1.9A.931.931,0,0,1,24.31,8.78Z" fill="#fff"/>
            <path id="Path_943453" data-name="Path 943453" d="M24.63,9.26H22.08a1.071,1.071,0,0,1-1.07-1.07V5.64a1.071,1.071,0,0,1,1.07-1.07h2.55A1.071,1.071,0,0,1,25.7,5.64V8.19A1.071,1.071,0,0,1,24.63,9.26ZM22.08,5.52a.111.111,0,0,0-.11.11V8.18a.111.111,0,0,0,.11.11h2.55a.111.111,0,0,0,.11-.11V5.64a.111.111,0,0,0-.11-.11H22.08Z" fill="#000102"/>
          </g>
          <g id="Group_1172165" data-name="Group 1172165">
            <path id="Path_943454" data-name="Path 943454" d="M44.45,4.89,41.08,8.26" fill="#fff"/>
            <path id="Path_943455" data-name="Path 943455" d="M41.08,8.74a.494.494,0,0,1-.34-.14.477.477,0,0,1,0-.68l3.37-3.37a.481.481,0,1,1,.68.68L41.42,8.6A.476.476,0,0,1,41.08,8.74Z" fill="#000102"/>
          </g>
          <g id="Group_1172166" data-name="Group 1172166">
            <path id="Path_943456" data-name="Path 943456" d="M41.08,4.89l3.37,3.37" fill="#fff"/>
            <path id="Path_943457" data-name="Path 943457" d="M44.45,8.74a.494.494,0,0,1-.34-.14L40.74,5.23a.481.481,0,0,1,.68-.68l3.37,3.37a.477.477,0,0,1,0,.68A.494.494,0,0,1,44.45,8.74Z" fill="#000102"/>
          </g>
          <g id="Group_1172167" data-name="Group 1172167">
            <path id="Path_943458" data-name="Path 943458" d="M37.26,7.06H33.62a.48.48,0,0,1-.48-.48.487.487,0,0,1,.48-.48h3.64a.48.48,0,0,1,.48.48A.487.487,0,0,1,37.26,7.06Z" fill="#000102"/>
          </g>
        </g>
        <g id="Group_1172169" data-name="Group 1172169">
          <path id="Path_943459" data-name="Path 943459" d="M48.53,46.54h3.4v4.15h-3.4Z" fill="#fff"/>
          <path id="Path_943460" data-name="Path 943460" d="M51.92,51.17h-3.4a.48.48,0,0,1-.48-.48V46.54a.48.48,0,0,1,.48-.48h3.4a.48.48,0,0,1,.48.48v4.15A.474.474,0,0,1,51.92,51.17Zm-2.91-.96h2.44V47.02H49.01Z" fill="#000102"/>
        </g>
        <g id="Group_1172170" data-name="Group 1172170">
          <path id="Path_943461" data-name="Path 943461" d="M51.96,64.02H48.49a1.677,1.677,0,0,1-1.68-1.68V52.38a1.677,1.677,0,0,1,1.68-1.68h3.47a1.677,1.677,0,0,1,1.68,1.68v9.96A1.677,1.677,0,0,1,51.96,64.02Z" fill="#f76c82"/>
          <path id="Path_943462" data-name="Path 943462" d="M52.58,64.5H47.86a1.541,1.541,0,0,1-1.54-1.54V51.75a1.541,1.541,0,0,1,1.54-1.54h4.72a1.541,1.541,0,0,1,1.54,1.54V62.96A1.541,1.541,0,0,1,52.58,64.5ZM47.87,51.17a.58.58,0,0,0-.58.58V62.96a.58.58,0,0,0,.58.58h4.72a.58.58,0,0,0,.58-.58V51.75a.58.58,0,0,0-.58-.58Z" fill="#000102"/>
        </g>
        <g id="Group_1172171" data-name="Group 1172171">
          <circle id="Ellipse_13604" data-name="Ellipse 13604" cx="13.54" cy="13.54" r="13.54" transform="translate(36.69 20.57)" fill="#8c9ffa"/>
        </g>
        <g id="Group_1172172" data-name="Group 1172172">
          <path id="Path_943463" data-name="Path 943463" d="M63.77,34.11a13.54,13.54,0,1,1-27.08,0c0-.32.01-.64.04-.96a13.534,13.534,0,0,0,27,0C63.76,33.47,63.77,33.79,63.77,34.11Z" fill="#6e7fed"/>
        </g>
        <g id="Group_1172173" data-name="Group 1172173">
          <path id="Path_943464" data-name="Path 943464" d="M50.23,48.14A14.02,14.02,0,1,1,64.25,34.12,14.037,14.037,0,0,1,50.23,48.14Zm0-27.09A13.06,13.06,0,1,0,63.29,34.11,13.076,13.076,0,0,0,50.23,21.05Z" fill="#000102"/>
        </g>
        <g id="Group_1172174" data-name="Group 1172174">
          <path id="Path_943465" data-name="Path 943465" d="M50.22,43.67a9.56,9.56,0,1,1,9.56-9.56A9.573,9.573,0,0,1,50.22,43.67Z" fill="#f4f6f8"/>
        </g>
        <g id="Group_1172175" data-name="Group 1172175">
          <path id="Path_943466" data-name="Path 943466" d="M59.78,34.11a9.56,9.56,0,0,1-19.12,0,7.559,7.559,0,0,1,.05-.95,9.56,9.56,0,0,0,19.02,0,7.659,7.659,0,0,1,.05.95Z" fill="#d7dadf"/>
        </g>
        <g id="Group_1172176" data-name="Group 1172176">
          <path id="Path_943467" data-name="Path 943467" d="M50.23,44.15A10.04,10.04,0,1,1,60.27,34.11,10.053,10.053,0,0,1,50.23,44.15Zm0-19.11a9.08,9.08,0,1,0,9.08,9.08,9.093,9.093,0,0,0-9.08-9.08Z" fill="#000102"/>
        </g>
        <g id="Group_1172177" data-name="Group 1172177">
          <path id="Path_943468" data-name="Path 943468" d="M15.89,22.37H12.4a1.694,1.694,0,0,1-1.69-1.69V17.2a1.694,1.694,0,0,1,1.69-1.69h3.49a1.694,1.694,0,0,1,1.69,1.69v3.49a1.686,1.686,0,0,1-1.69,1.68Z" fill="#f76c82"/>
          <path id="Path_943469" data-name="Path 943469" d="M16.62,22.86H11.68a1.44,1.44,0,0,1-1.44-1.44V16.48a1.44,1.44,0,0,1,1.44-1.44h4.94a1.44,1.44,0,0,1,1.44,1.44v4.94A1.447,1.447,0,0,1,16.62,22.86Zm-4.95-6.87a.48.48,0,0,0-.48.48v4.94a.48.48,0,0,0,.48.48h4.94a.48.48,0,0,0,.48-.48V16.47a.48.48,0,0,0-.48-.48Z" fill="#000102"/>
        </g>
        <g id="Group_1172178" data-name="Group 1172178">
          <path id="Path_943470" data-name="Path 943470" d="M15.89,32.33H12.4a1.694,1.694,0,0,1-1.69-1.69V27.15a1.694,1.694,0,0,1,1.69-1.69h3.49a1.694,1.694,0,0,1,1.69,1.69v3.49a1.688,1.688,0,0,1-1.69,1.69Z" fill="#f4f6f8"/>
          <path id="Path_943471" data-name="Path 943471" d="M16.62,32.82H11.68a1.44,1.44,0,0,1-1.44-1.44V26.44A1.44,1.44,0,0,1,11.68,25h4.94a1.44,1.44,0,0,1,1.44,1.44v4.94A1.447,1.447,0,0,1,16.62,32.82Zm-4.95-6.87a.48.48,0,0,0-.48.48v4.94a.48.48,0,0,0,.48.48h4.94a.48.48,0,0,0,.48-.48V26.43a.48.48,0,0,0-.48-.48Z" fill="#000102"/>
        </g>
        <g id="Group_1172179" data-name="Group 1172179">
          <path id="Path_943472" data-name="Path 943472" d="M15.89,42.29H12.4a1.694,1.694,0,0,1-1.69-1.69V37.11a1.694,1.694,0,0,1,1.69-1.69h3.49a1.694,1.694,0,0,1,1.69,1.69V40.6a1.688,1.688,0,0,1-1.69,1.69Z" fill="#8c9ffa"/>
          <path id="Path_943473" data-name="Path 943473" d="M16.62,42.78H11.68a1.44,1.44,0,0,1-1.44-1.44V36.4a1.44,1.44,0,0,1,1.44-1.44h4.94a1.44,1.44,0,0,1,1.44,1.44v4.94A1.447,1.447,0,0,1,16.62,42.78Zm-4.95-6.87a.48.48,0,0,0-.48.48v4.94a.48.48,0,0,0,.48.48h4.94a.48.48,0,0,0,.48-.48V36.39a.48.48,0,0,0-.48-.48Z" fill="#000102"/>
        </g>
        <g id="Group_1172180" data-name="Group 1172180">
          <path id="Path_943474" data-name="Path 943474" d="M13.66,20.4a.476.476,0,0,1-.34-.14l-.97-.97a.481.481,0,0,1,.68-.68l.63.63,1.61-1.61a.481.481,0,0,1,.68.68L14,20.26A.476.476,0,0,1,13.66,20.4Z" fill="#000102"/>
        </g>
        <g id="Group_1172181" data-name="Group 1172181">
          <path id="Path_943475" data-name="Path 943475" d="M13.66,30.36a.494.494,0,0,1-.34-.14l-.97-.97a.481.481,0,0,1,.68-.68l.63.63,1.61-1.61a.481.481,0,0,1,.68.68L14,30.22A.513.513,0,0,1,13.66,30.36Z" fill="#000102"/>
        </g>
        <g id="Group_1172182" data-name="Group 1172182">
          <path id="Path_943476" data-name="Path 943476" d="M13.66,40.32a.476.476,0,0,1-.34-.14l-.97-.97a.481.481,0,0,1,.68-.68l.63.63,1.61-1.61a.481.481,0,0,1,.68.68L14,40.18A.476.476,0,0,1,13.66,40.32Z" fill="#000102"/>
        </g>
        <g id="Group_1172186" data-name="Group 1172186">
          <g id="Group_1172183" data-name="Group 1172183">
            <path id="Path_943477" data-name="Path 943477" d="M34.52,16.65H21.49a.48.48,0,0,1,0-.96H34.52a.48.48,0,1,1,0,.96Z" fill="#000102"/>
          </g>
          <g id="Group_1172184" data-name="Group 1172184">
            <path id="Path_943478" data-name="Path 943478" d="M32.63,19.42H21.49a.48.48,0,0,1-.48-.48.487.487,0,0,1,.48-.48H32.63a.48.48,0,1,1,0,.96Z" fill="#000102"/>
          </g>
          <g id="Group_1172185" data-name="Group 1172185">
            <path id="Path_943479" data-name="Path 943479" d="M29.35,22.19H21.5a.48.48,0,0,1-.48-.48.487.487,0,0,1,.48-.48h7.85a.48.48,0,0,1,.48.48A.487.487,0,0,1,29.35,22.19Z" fill="#000102"/>
          </g>
        </g>
        <g id="Group_1172190" data-name="Group 1172190">
          <g id="Group_1172187" data-name="Group 1172187">
            <path id="Path_943480" data-name="Path 943480" d="M34.52,26.61H21.49a.48.48,0,1,1,0-.96H34.52a.48.48,0,1,1,0,.96Z" fill="#000102"/>
          </g>
          <g id="Group_1172188" data-name="Group 1172188">
            <path id="Path_943481" data-name="Path 943481" d="M32.63,29.38H21.49a.48.48,0,0,1-.48-.48.487.487,0,0,1,.48-.48H32.63a.48.48,0,1,1,0,.96Z" fill="#000102"/>
          </g>
          <g id="Group_1172189" data-name="Group 1172189">
            <path id="Path_943482" data-name="Path 943482" d="M29.35,32.15H21.5a.48.48,0,0,1-.48-.48.487.487,0,0,1,.48-.48h7.85a.48.48,0,0,1,.48.48A.487.487,0,0,1,29.35,32.15Z" fill="#000102"/>
          </g>
        </g>
        <g id="Group_1172194" data-name="Group 1172194">
          <g id="Group_1172191" data-name="Group 1172191">
            <path id="Path_943483" data-name="Path 943483" d="M34.52,36.57H21.49a.48.48,0,0,1-.48-.48.487.487,0,0,1,.48-.48H34.52a.48.48,0,0,1,.48.48A.487.487,0,0,1,34.52,36.57Z" fill="#000102"/>
          </g>
          <g id="Group_1172192" data-name="Group 1172192">
            <path id="Path_943484" data-name="Path 943484" d="M32.63,39.34H21.49a.48.48,0,0,1-.48-.48.487.487,0,0,1,.48-.48H32.63a.48.48,0,0,1,0,.96Z" fill="#000102"/>
          </g>
          <g id="Group_1172193" data-name="Group 1172193">
            <path id="Path_943485" data-name="Path 943485" d="M29.35,42.11H21.5a.48.48,0,0,1,0-.96h7.85a.48.48,0,1,1,0,.96Z" fill="#000102"/>
          </g>
        </g>
        <g id="Group_1172195" data-name="Group 1172195">
          <path id="Path_943486" data-name="Path 943486" d="M48.74,37.31a.494.494,0,0,1-.34-.14l-2.46-2.46a.481.481,0,0,1,.68-.68l2.12,2.12,5.09-5.09a.481.481,0,0,1,.68.68l-5.43,5.43A.476.476,0,0,1,48.74,37.31Z" fill="#000102"/>
        </g>
      </g>
    </g>
  </g>
</svg>
