<svg xmlns="http://www.w3.org/2000/svg" width="85" height="85" viewBox="0 0 85 85">
  <g id="Group_1169241" data-name="Group 1169241" transform="translate(-704.668 -6155)">
    <rect id="Rectangle_402033" data-name="Rectangle 402033" width="85" height="85" rx="8" transform="translate(704.668 6155)" fill="#6003fe"/>
    <g id="Layer_1" data-name="Layer 1" transform="translate(721.144 6168.44)">
      <path id="Path_927079" data-name="Path 927079" d="M50.648,37.062A8.482,8.482,0,1,1,50.505,20.1a8.482,8.482,0,0,1,8.48-8.341c.164,0,.327.006.49.015a11.13,11.13,0,0,1,14.439-.007c.117,0,.233-.009.351-.009a8.482,8.482,0,0,1,8.48,8.337h0a8.484,8.484,0,1,1,0,16.968Z" transform="translate(-40.53 -8.304)" fill="#f5f5f5"/>
      <path id="Path_927080" data-name="Path 927080" d="M66.623,37.076H50.648a8.482,8.482,0,1,1-.143-16.964,8.482,8.482,0,0,1,8.48-8.341c.164,0,.327.006.49.015a11.086,11.086,0,0,1,7.148-2.661Z" transform="translate(-40.53 -8.318)" fill="#e6e6e6"/>
      <path id="Path_927081" data-name="Path 927081" d="M69.229,410.881v8.611a1.047,1.047,0,0,0,1.047,1.047H111a1.047,1.047,0,0,0,1.047-1.047v-8.611A1.047,1.047,0,0,0,111,409.834H70.275A1.047,1.047,0,0,0,69.229,410.881Z" transform="translate(-64.544 -362.935)" fill="#80eaff"/>
      <path id="Path_927082" data-name="Path 927082" d="M314.318,440.572v3.649h-13v-3.649Z" transform="translate(-269.933 -390.138)" fill="#ff5959"/>
      <path id="Path_927083" data-name="Path 927083" d="M69.229,288.634v8.611a1.047,1.047,0,0,0,1.047,1.047H111a1.047,1.047,0,0,0,1.047-1.047v-8.611A1.047,1.047,0,0,0,111,287.587H70.275A1.047,1.047,0,0,0,69.229,288.634Z" transform="translate(-64.544 -254.75)" fill="#80eaff"/>
      <path id="Path_927084" data-name="Path 927084" d="M112.042,351.755v2.277A1.047,1.047,0,0,1,111,355.078H70.272a1.047,1.047,0,0,1-1.047-1.047v-2.277a1.047,1.047,0,0,0,1.047,1.047H111a1.047,1.047,0,0,0,1.046-1.047Z" transform="translate(-64.541 -311.537)" fill="#6cf"/>
      <path id="Path_927085" data-name="Path 927085" d="M112.042,474v2.277A1.047,1.047,0,0,1,111,477.323H70.272a1.047,1.047,0,0,1-1.047-1.047V474a1.047,1.047,0,0,0,1.047,1.046H111A1.047,1.047,0,0,0,112.042,474Z" transform="translate(-64.541 -419.721)" fill="#6cf"/>
      <path id="Path_927086" data-name="Path 927086" d="M314.318,318.325v3.65h-13v-3.65Z" transform="translate(-269.933 -281.952)" fill="#ff5959"/>
      <path id="Path_927087" data-name="Path 927087" d="M172.254,384H147.282v-3.359h24.972Z" transform="translate(-133.619 -337.098)" fill="#f5f5f5"/>
      <path id="Path_927088" data-name="Path 927088" d="M150.631,384h-3.359v-3.359h3.359Z" transform="translate(-133.61 -337.098)" fill="#e6e6e6"/>
      <path id="Path_927089" data-name="Path 927089" d="M181.668,138.962l-2.642-2.642v10.951a2.785,2.785,0,1,1-5.539,0V136.319l-2.642,2.642c-3,3-6.868-.876-3.872-3.872l6.492-6.492a3.982,3.982,0,0,1,5.583,0l6.492,6.492C188.536,138.086,184.664,141.958,181.668,138.962Z" transform="translate(-150.088 -113.037)" fill="#ffdf40"/>
      <path id="Path_927090" data-name="Path 927090" d="M176.181,150.359a2.8,2.8,0,0,1-2.695-3.079V136.328l-2.642,2.642c-3,3-6.868-.876-3.872-3.872l6.492-6.492a3.889,3.889,0,0,1,2.717-1.141Z" transform="translate(-150.088 -113.046)" fill="#ffbe40"/>
      <path id="Path_927091" data-name="Path 927091" d="M72.885,51.735h-13a.805.805,0,0,0-.805.805v3.65A.805.805,0,0,0,59.88,57h13a.805.805,0,0,0,.805-.805V52.54a.805.805,0,0,0-.805-.805Zm-.805,3.65H60.685v-2.04H72.08ZM59.88,42.934h13a.805.805,0,0,0,.805-.805v-3.65a.805.805,0,0,0-.805-.805h-13a.805.805,0,0,0-.805.805v3.65a.805.805,0,0,0,.805.805Zm.805-3.65H72.08v2.04H60.685Zm17.773.206H76.806v-3.5a1.853,1.853,0,0,0-1.852-1.852H58.243V31.669H70.718a9.289,9.289,0,0,0,.758-18.547,9.289,9.289,0,0,0-9.242-8.368h-.071a11.935,11.935,0,0,0-15,0l-.214,0a9.289,9.289,0,0,0-9.243,8.382,9.288,9.288,0,0,0,.906,18.533H51.093v2.469H34.231a1.854,1.854,0,0,0-1.852,1.852v3.5h-1.5A2.283,2.283,0,0,0,28.5,41.659v9.552a2.283,2.283,0,0,0,2.378,2.169h1.5v5.282a1.854,1.854,0,0,0,1.852,1.852H74.955a1.854,1.854,0,0,0,1.852-1.852V53.38h1.652a2.283,2.283,0,0,0,2.378-2.169V41.659A2.284,2.284,0,0,0,78.458,39.49ZM52.206,24.07a.805.805,0,0,0-.878.174l-2.642,2.642c-1.159,1.159-2.364.992-3.045.311a1.8,1.8,0,0,1-.533-1.311,2.556,2.556,0,0,1,.845-1.734l6.492-6.492a3.074,3.074,0,0,1,2.19-.907H54.7a3.074,3.074,0,0,1,2.19.907l6.492,6.492c1.159,1.159.991,2.364.311,3.044a1.8,1.8,0,0,1-1.311.534,2.555,2.555,0,0,1-1.734-.845l-2.642-2.642a.805.805,0,0,0-1.375.569V36.34A2.389,2.389,0,0,1,56,38.088a1.839,1.839,0,0,1-1.3.527h-.042a1.854,1.854,0,0,1-1.328-.527A2.39,2.39,0,0,1,52.7,36.34V24.814a.805.805,0,0,0-.5-.744ZM38.618,30.059a7.677,7.677,0,1,1-.13-15.354.805.805,0,0,0,.792-.791,7.711,7.711,0,0,1,7.675-7.549c.136,0,.281,0,.443.014a.8.8,0,0,0,.569-.191,10.324,10.324,0,0,1,13.394-.006.807.807,0,0,0,.556.192c.105,0,.211-.008.317-.008A7.712,7.712,0,0,1,69.91,13.91a.808.808,0,0,0,.809.791,7.679,7.679,0,1,1,0,15.357H58.243v-3.3l1.268,1.268a3.649,3.649,0,0,0,5.322.311,3.4,3.4,0,0,0,1-2.475,4.082,4.082,0,0,0-1.316-2.847l-6.492-6.492A4.673,4.673,0,0,0,54.7,15.143h-.066a4.673,4.673,0,0,0-3.328,1.378l-6.492,6.493A4.08,4.08,0,0,0,43.5,25.862a3.4,3.4,0,0,0,1,2.475,3.649,3.649,0,0,0,5.322-.311l1.268-1.268v3.3ZM33.99,35.99a.242.242,0,0,1,.242-.242H51.094v.591A3.918,3.918,0,0,0,52.2,39.233a3.437,3.437,0,0,0,2.436.992H54.7a3.437,3.437,0,0,0,2.436-.992,3.918,3.918,0,0,0,1.105-2.894v-.591H74.955a.242.242,0,0,1,.242.242V44.6a.242.242,0,0,1-.242.242H34.231a.242.242,0,0,1-.242-.242ZM42.967,48.2V46.452H66.329V48.2ZM30.878,51.77c-.416,0-.768-.256-.768-.559V41.659c0-.3.352-.559.768-.559h1.5v3.5a1.854,1.854,0,0,0,1.852,1.852h7.126V48.2H34.231a1.854,1.854,0,0,0-1.852,1.852v1.719ZM75.2,58.662a.242.242,0,0,1-.242.242H34.231a.242.242,0,0,1-.242-.242V50.051a.242.242,0,0,1,.242-.242H74.955a.242.242,0,0,1,.242.242Zm4.029-7.451c0,.3-.352.559-.768.559H76.806V50.051A1.854,1.854,0,0,0,74.954,48.2H67.94V46.451h7.015A1.854,1.854,0,0,0,76.807,44.6V41.1h1.652c.416,0,.768.256.768.559ZM36.088,38.479a.805.805,0,0,1,.805-.805h2.686a.805.805,0,1,1,0,1.61H36.893A.805.805,0,0,1,36.088,38.479Zm5.269,0a.805.805,0,0,1,.805-.805h2.686a.805.805,0,0,1,0,1.61H42.162A.805.805,0,0,1,41.357,38.479Zm5.269,0a.805.805,0,0,1,.805-.805h2.686a.805.805,0,1,1,0,1.61H47.431A.805.805,0,0,1,46.626,38.479ZM36.088,42.063a.805.805,0,0,1,.805-.805h2.686a.805.805,0,1,1,0,1.61H36.893A.805.805,0,0,1,36.088,42.063Zm5.269,0a.805.805,0,0,1,.805-.805h2.686a.805.805,0,0,1,0,1.61H42.162A.805.805,0,0,1,41.357,42.063Zm5.269,0a.805.805,0,0,1,.805-.805h2.686a.805.805,0,1,1,0,1.61H47.431A.805.805,0,0,1,46.626,42.063Zm-6.242,10.51a.805.805,0,0,1-.805.805H36.893a.805.805,0,1,1,0-1.61h2.686A.805.805,0,0,1,40.384,52.573Zm5.269,0a.805.805,0,0,1-.805.805H42.162a.805.805,0,1,1,0-1.61h2.686A.805.805,0,0,1,45.653,52.573Zm5.269,0a.805.805,0,0,1-.805.805H47.431a.805.805,0,1,1,0-1.61h2.686a.805.805,0,0,1,.805.805ZM40.384,56.157a.805.805,0,0,1-.805.805H36.893a.805.805,0,1,1,0-1.61h2.686A.805.805,0,0,1,40.384,56.157Zm5.269,0a.805.805,0,0,1-.805.805H42.162a.805.805,0,1,1,0-1.61h2.686A.805.805,0,0,1,45.653,56.157Zm5.269,0a.805.805,0,0,1-.805.805H47.431a.805.805,0,0,1,0-1.61h2.686a.805.805,0,0,1,.805.805Z" transform="translate(-28.5 -2.106)"/>
    </g>
  </g>
</svg>
