<svg xmlns="http://www.w3.org/2000/svg" width="50" height="50" viewBox="0 0 50 50">
  <g id="Group_1172222" data-name="Group 1172222" transform="translate(-1146.711 -2863)">
    <rect id="Rectangle_448805" data-name="Rectangle 448805" width="50" height="50" transform="translate(1146.711 2863)" fill="none"/>
    <g id="Scalable" transform="translate(1146.67 2863)">
      <path id="Path_943572" data-name="Path 943572" d="M28.829,24H4.064A2.064,2.064,0,0,0,2,26.064v6.191a2.064,2.064,0,0,0,2.064,2.064v2.064A2.064,2.064,0,0,0,2,38.446v6.191A2.064,2.064,0,0,0,4.064,46.7H28.829a2.064,2.064,0,0,0,2.064-2.064V38.446a2.064,2.064,0,0,0-2.064-2.064V34.319a2.064,2.064,0,0,0,2.064-2.064V26.064A2.064,2.064,0,0,0,28.829,24Zm0,20.638H4.064V38.446H28.829Zm-22.7-8.255V34.319H26.765v2.064ZM4.064,32.255V26.064H28.829v6.191Z" transform="translate(0.062 0.765)" fill="#6003fe"/>
      <path id="Path_943573" data-name="Path 943573" d="M9.1,28H7.032a1.032,1.032,0,0,0,0,2.064H9.1A1.032,1.032,0,0,0,9.1,28Z" transform="translate(0.19 0.893)" fill="#6003fe"/>
      <path id="Path_943574" data-name="Path 943574" d="M9.1,40H7.032a1.032,1.032,0,0,0,0,2.064H9.1A1.032,1.032,0,0,0,9.1,40Z" transform="translate(0.19 1.275)" fill="#6003fe"/>
      <path id="Path_943575" data-name="Path 943575" d="M25.032,28a1.032,1.032,0,1,0,1.032,1.032A1.032,1.032,0,0,0,25.032,28Z" transform="translate(0.764 0.893)" fill="#6003fe"/>
      <path id="Path_943576" data-name="Path 943576" d="M25.032,40a1.032,1.032,0,1,0,1.032,1.032A1.032,1.032,0,0,0,25.032,40Z" transform="translate(0.764 1.275)" fill="#6003fe"/>
      <path id="Path_943577" data-name="Path 943577" d="M2.062,21.668A1.032,1.032,0,0,0,3.094,22.7H7.222a1.032,1.032,0,0,0,1.032-1.032V7.221c.691,0,1.6.175,1.961-.588s.186-.7-4.251-6.191a1.032,1.032,0,0,0-1.61,0L.226,5.6a1.032,1.032,0,0,0,.8,1.62H2.062Zm3.1-18.987L7.139,5.158A1.032,1.032,0,0,0,6.19,6.19V20.636H4.126V6.19a1.032,1.032,0,0,0-.949-1.032Z" transform="translate(0 0.002)" fill="#6003fe"/>
      <path id="Path_943578" data-name="Path 943578" d="M42.969,38.227a1.032,1.032,0,0,0-1.682.8v1.032H33.032A1.032,1.032,0,0,0,32,41.1v4.128a1.032,1.032,0,0,0,1.032,1.032h8.255c0,.712-.175,1.6.588,1.961a1.032,1.032,0,0,0,1.094-.124c5.6-4.489,5.541-4.262,5.541-4.932s.124-.392-5.541-4.932Zm.382,6.914a1.032,1.032,0,0,0-1.032-.949H34.064V42.128h8.255a1.032,1.032,0,0,0,1.032-.949l2.477,1.981Z" transform="translate(1.019 1.211)" fill="#6003fe"/>
      <path id="Path_943579" data-name="Path 943579" d="M11.032,11a1.032,1.032,0,1,0,0,2.064H13.1A1.032,1.032,0,1,0,13.1,11Z" transform="translate(0.318 0.351)" fill="#6003fe"/>
      <path id="Path_943580" data-name="Path 943580" d="M17.032,11a1.032,1.032,0,0,0,0,2.064H19.1A1.032,1.032,0,1,0,19.1,11Z" transform="translate(0.509 0.351)" fill="#6003fe"/>
      <path id="Path_943581" data-name="Path 943581" d="M23.032,11a1.032,1.032,0,0,0,0,2.064H25.1A1.032,1.032,0,1,0,25.1,11Z" transform="translate(0.7 0.351)" fill="#6003fe"/>
      <path id="Path_943582" data-name="Path 943582" d="M31.1,11H29.032a1.032,1.032,0,1,0,0,2.064H31.1A1.032,1.032,0,1,0,31.1,11Z" transform="translate(0.891 0.351)" fill="#6003fe"/>
      <path id="Path_943583" data-name="Path 943583" d="M35,35.032V37.1a1.032,1.032,0,1,0,2.064,0V35.032a1.032,1.032,0,1,0-2.064,0Z" transform="translate(1.115 1.084)" fill="#6003fe"/>
      <path id="Path_943584" data-name="Path 943584" d="M37.064,29.032a1.032,1.032,0,1,0-2.064,0V31.1a1.032,1.032,0,1,0,2.064,0Z" transform="translate(1.115 0.893)" fill="#6003fe"/>
      <path id="Path_943585" data-name="Path 943585" d="M37.064,23.032a1.032,1.032,0,1,0-2.064,0V25.1a1.032,1.032,0,1,0,2.064,0Z" transform="translate(1.115 0.701)" fill="#6003fe"/>
      <path id="Path_943586" data-name="Path 943586" d="M37.064,17.032a1.032,1.032,0,1,0-2.064,0V19.1a1.032,1.032,0,1,0,2.064,0Z" transform="translate(1.115 0.51)" fill="#6003fe"/>
      <path id="Path_943587" data-name="Path 943587" d="M37.1,12.032A1.032,1.032,0,0,0,36.064,11H35.032a1.032,1.032,0,1,0,0,2.064,1.032,1.032,0,1,0,2.064,0Z" transform="translate(1.083 0.351)" fill="#6003fe"/>
      <path id="Path_943588" data-name="Path 943588" d="M22.032,2.064H24.1A1.032,1.032,0,1,0,24.1,0H22.032a1.032,1.032,0,1,0,0,2.064Z" transform="translate(0.668)" fill="#6003fe"/>
      <path id="Path_943589" data-name="Path 943589" d="M28.032,2.064H30.1A1.032,1.032,0,1,0,30.1,0H28.032a1.032,1.032,0,0,0,0,2.064Z" transform="translate(0.86)" fill="#6003fe"/>
      <path id="Path_943590" data-name="Path 943590" d="M34.032,2.064H36.1A1.032,1.032,0,1,0,36.1,0H34.032a1.032,1.032,0,1,0,0,2.064Z" transform="translate(1.051)" fill="#6003fe"/>
      <path id="Path_943591" data-name="Path 943591" d="M40.032,2.064H42.1A1.032,1.032,0,0,0,42.1,0H40.032a1.032,1.032,0,1,0,0,2.064Z" transform="translate(1.242)" fill="#6003fe"/>
      <path id="Path_943592" data-name="Path 943592" d="M46,24.032V26.1a1.032,1.032,0,1,0,2.064,0V24.032a1.032,1.032,0,1,0-2.064,0Z" transform="translate(1.465 0.733)" fill="#6003fe"/>
      <path id="Path_943593" data-name="Path 943593" d="M46,18.032V20.1a1.032,1.032,0,1,0,2.064,0V18.032a1.032,1.032,0,1,0-2.064,0Z" transform="translate(1.465 0.542)" fill="#6003fe"/>
      <path id="Path_943594" data-name="Path 943594" d="M46,12.032V14.1a1.032,1.032,0,1,0,2.064,0V12.032a1.032,1.032,0,1,0-2.064,0Z" transform="translate(1.465 0.351)" fill="#6003fe"/>
      <path id="Path_943595" data-name="Path 943595" d="M46,6.032V8.1a1.032,1.032,0,1,0,2.064,0V6.032a1.032,1.032,0,1,0-2.064,0Z" transform="translate(1.465 0.159)" fill="#6003fe"/>
      <path id="Path_943596" data-name="Path 943596" d="M47.064,0H46.032a1.032,1.032,0,1,0,0,2.064,1.032,1.032,0,1,0,2.064,0V1.032A1.032,1.032,0,0,0,47.064,0Z" transform="translate(1.433)" fill="#6003fe"/>
      <path id="Path_943597" data-name="Path 943597" d="M46,30.032V32.1a1.032,1.032,0,1,0,2.064,0V30.032a1.032,1.032,0,1,0-2.064,0Z" transform="translate(1.465 0.925)" fill="#6003fe"/>
      <path id="Path_943598" data-name="Path 943598" d="M46,36.032V38.1a1.032,1.032,0,1,0,2.064,0V36.032a1.032,1.032,0,0,0-2.064,0Z" transform="translate(1.465 1.116)" fill="#6003fe"/>
      <path id="Path_943599" data-name="Path 943599" d="M16.032,2.064H18.1A1.032,1.032,0,0,0,18.1,0H16.032a1.032,1.032,0,0,0,0,2.064Z" transform="translate(0.477)" fill="#6003fe"/>
      <path id="Path_943600" data-name="Path 943600" d="M10.032,2.064H12.1A1.032,1.032,0,1,0,12.1,0H10.032a1.032,1.032,0,1,0,0,2.064Z" transform="translate(0.286)" fill="#6003fe"/>
    </g>
  </g>
</svg>
