<svg xmlns="http://www.w3.org/2000/svg" width="50" height="50" viewBox="0 0 50 50">
  <g id="Group_1172228" data-name="Group 1172228" transform="translate(-578.711 -3125)">
    <rect id="Rectangle_448807" data-name="Rectangle 448807" width="50" height="50" transform="translate(578.711 3125)" fill="none"/>
    <g id="Group_1172227" data-name="Group 1172227" transform="translate(578.711 3101.787)">
      <g id="Group_1172215" data-name="Group 1172215" transform="translate(0 26.214)">
        <path id="Path_943610" data-name="Path 943610" d="M42.46,244.807H40.038a1.222,1.222,0,0,0-1.221,1.221v2.422a1.222,1.222,0,0,0,1.221,1.221h.479v4.238a.244.244,0,0,1-.244.244H36.2a9.651,9.651,0,0,0-7.906-4.12H21.71a9.651,9.651,0,0,0-7.906,4.12H9.727a.244.244,0,0,1-.244-.244V249.67h.479a1.222,1.222,0,0,0,1.221-1.221v-2.422a1.222,1.222,0,0,0-1.221-1.221H7.54a1.222,1.222,0,0,0-1.221,1.221v2.422A1.222,1.222,0,0,0,7.54,249.67h.479v4.238a1.711,1.711,0,0,0,1.709,1.709h3.228a9.6,9.6,0,0,0-.9,4.071v1.261H3.408a.244.244,0,0,1-.244-.244v-5.725h.479a1.222,1.222,0,0,0,1.221-1.221v-2.422a1.222,1.222,0,0,0-1.221-1.221H1.221A1.222,1.222,0,0,0,0,251.338v2.422a1.222,1.222,0,0,0,1.221,1.221H1.7v5.725a1.711,1.711,0,0,0,1.709,1.709h8.646v4.216a1.711,1.711,0,0,0,1.709,1.709H36.237a1.711,1.711,0,0,0,1.709-1.709v-4.216h3.363a.732.732,0,1,0,0-1.465H37.946v-1.261a9.6,9.6,0,0,0-.9-4.071h3.228a1.711,1.711,0,0,0,1.709-1.709V249.67h.479a1.222,1.222,0,0,0,1.221-1.221v-2.422a1.222,1.222,0,0,0-1.221-1.221Zm-34.676,3.4v-1.934H9.718v1.934Zm-6.319,5.31v-1.934H3.4v1.934Zm12.3,13.36a.244.244,0,0,1-.244-.244v-4.436a8.186,8.186,0,0,1,4.644,4.681Zm22.718-.244a.244.244,0,0,1-.244.244h-4.4a8.186,8.186,0,0,1,4.644-4.681Zm0-5.992a9.65,9.65,0,0,0-6.2,6.237H19.715a9.65,9.65,0,0,0-6.2-6.237v-.95a8.181,8.181,0,0,1,3.22-6.5V254.3a.732.732,0,0,0,1.465,0v-2.011a8.141,8.141,0,0,1,3.506-.79H28.29a8.139,8.139,0,0,1,3.506.79v5.526a2.689,2.689,0,0,1-2.686,2.686H20.889a2.689,2.689,0,0,1-2.686-2.686v-.1a.732.732,0,0,0-1.465,0v.1a4.155,4.155,0,0,0,4.15,4.15h8.222a4.155,4.155,0,0,0,4.15-4.15v-4.629a8.181,8.181,0,0,1,3.22,6.5v.95Zm5.735-12.433H40.282v-1.934h1.934Z" transform="translate(0 -223.46)" fill="#6003fe"/>
        <path id="Path_943611" data-name="Path 943611" d="M134.464,44.236a.732.732,0,0,0,0,1.465h1.712a2.7,2.7,0,0,0,1.942,1.942v1.712a.732.732,0,0,0,1.465,0v-1.63h3.08v1.63a.732.732,0,0,0,1.465,0v-1.63h3.08v1.63a.732.732,0,0,0,1.465,0v-1.63h3.08v1.63a.732.732,0,0,0,1.465,0V47.643a2.7,2.7,0,0,0,1.942-1.942h1.712a.732.732,0,0,0,0-1.465h-1.63v-3.08h1.63a.732.732,0,0,0,0-1.465h-1.63v-3.08h1.63a.732.732,0,0,0,0-1.465h-1.63v-3.08h1.63a.732.732,0,0,0,0-1.465h-1.712a2.7,2.7,0,0,0-1.942-1.942V26.946a.732.732,0,0,0-1.465,0v1.63h-3.08v-1.63a.732.732,0,0,0-1.465,0v1.63h-3.08v-1.63a.732.732,0,0,0-1.465,0v1.63h-3.08v-1.63a.732.732,0,0,0-1.465,0v1.712a2.7,2.7,0,0,0-1.942,1.942h-1.712a.732.732,0,0,0,0,1.465h1.661a.732.732,0,0,0,1.434-.209v-.6a1.222,1.222,0,0,1,1.221-1.221h13.778a1.222,1.222,0,0,1,1.221,1.221V45.04a1.222,1.222,0,0,1-1.221,1.221H138.78a1.222,1.222,0,0,1-1.221-1.221V35.275a.732.732,0,0,0-1.453-.129h-1.642a.732.732,0,0,0,0,1.465h1.63v3.08h-1.63a.732.732,0,0,0,0,1.465h1.63v3.08Z" transform="translate(-120.672 -26.214)" fill="#6003fe"/>
        <path id="Path_943612" data-name="Path 943612" d="M206.086,341.978H207.9a1.222,1.222,0,0,0,1.221-1.221v-1.812a1.222,1.222,0,0,0-1.221-1.221h-1.812a1.222,1.222,0,0,0-1.221,1.221v1.812A1.222,1.222,0,0,0,206.086,341.978Zm.244-2.788h1.324v1.324H206.33Z" transform="translate(-184.859 -307.304)" fill="#6003fe"/>
        <path id="Path_943613" data-name="Path 943613" d="M264.8,341.978h1.812a1.222,1.222,0,0,0,1.221-1.221v-1.812a1.222,1.222,0,0,0-1.221-1.221H264.8a1.222,1.222,0,0,0-1.221,1.221v1.812A1.222,1.222,0,0,0,264.8,341.978Zm.244-2.788h1.324v1.324h-1.324Z" transform="translate(-237.842 -307.304)" fill="#6003fe"/>
        <path id="Path_943614" data-name="Path 943614" d="M201.3,109.256l.562-1.476h3.775l.556,1.474a.732.732,0,1,0,1.37-.517l-2.952-7.822-.008-.02a.909.909,0,0,0-.844-.565h0a.909.909,0,0,0-.843.567l-.007.017-2.979,7.821a.732.732,0,0,0,1.369.521Zm2.458-6.455,1.326,3.514h-2.664Z" transform="translate(-180.359 -93.092)" fill="#6003fe"/>
        <path id="Path_943615" data-name="Path 943615" d="M292.965,109v-7.933a.732.732,0,1,0-1.465,0V109a.732.732,0,0,0,1.465,0Z" transform="translate(-263.033 -93.092)" fill="#6003fe"/>
        <path id="Path_943616" data-name="Path 943616" d="M401.134,72.978h-2.422a1.222,1.222,0,0,0-1.221,1.221v2.422a1.222,1.222,0,0,0,1.221,1.221h2.422a1.222,1.222,0,0,0,1.221-1.221V74.2A1.222,1.222,0,0,0,401.134,72.978Zm-.244,3.4h-1.934V74.443h1.934Z" transform="translate(-358.674 -68.411)" fill="#6003fe"/>
        <path id="Path_943617" data-name="Path 943617" d="M65.929,77.841h2.422a1.222,1.222,0,0,0,1.221-1.221V74.2a1.222,1.222,0,0,0-1.221-1.221H65.929A1.222,1.222,0,0,0,64.708,74.2v2.422A1.222,1.222,0,0,0,65.929,77.841Zm.244-3.4h1.934v1.934H66.173Z" transform="translate(-58.389 -68.411)" fill="#6003fe"/>
        <path id="Path_943618" data-name="Path 943618" d="M401.134,158.892h-2.422a1.222,1.222,0,0,0-1.221,1.221v2.422a1.222,1.222,0,0,0,1.221,1.221h2.422a1.222,1.222,0,0,0,1.221-1.221v-2.422A1.222,1.222,0,0,0,401.134,158.892Zm-.244,3.4h-1.934v-1.934h1.934Z" transform="translate(-358.674 -145.935)" fill="#6003fe"/>
        <path id="Path_943619" data-name="Path 943619" d="M65.929,163.755h2.422a1.222,1.222,0,0,0,1.221-1.221v-2.422a1.222,1.222,0,0,0-1.221-1.221H65.929a1.222,1.222,0,0,0-1.221,1.221v2.422A1.222,1.222,0,0,0,65.929,163.755Zm.244-3.4h1.934v1.934H66.173Z" transform="translate(-58.389 -145.935)" fill="#6003fe"/>
        <path id="Path_943620" data-name="Path 943620" d="M455.285,299.183h-2.422a1.222,1.222,0,0,0-1.221,1.221v2.422a1.222,1.222,0,0,0,1.221,1.221h.479v5.725a.244.244,0,0,1-.244.244h-1.865a.732.732,0,0,0,0,1.465H453.1a1.711,1.711,0,0,0,1.709-1.709v-5.725h.479a1.222,1.222,0,0,0,1.221-1.221V300.4A1.222,1.222,0,0,0,455.285,299.183Zm-.244,3.4h-1.934v-1.934h1.934Z" transform="translate(-406.506 -272.526)" fill="#6003fe"/>
      </g>
    </g>
  </g>
</svg>
