<svg xmlns="http://www.w3.org/2000/svg" width="100" height="100" viewBox="0 0 100 100">
  <g id="Group_1169250" data-name="Group 1169250" transform="translate(-637 -6992)">
    <g id="Group_1098742" data-name="Group 1098742" transform="translate(637.242 6992)">
      <rect id="Rectangle_400898" data-name="Rectangle 400898" width="100" height="100" rx="50" transform="translate(-0.242)" fill="#fff" opacity="0.859"/>
      <g id="Rectangle_400907" data-name="Rectangle 400907" transform="translate(-0.242)" fill="none" stroke="#00bdff" stroke-linecap="round" stroke-width="3" stroke-dasharray="0 7">
        <rect width="100" height="100" rx="50" stroke="none"/>
        <rect x="1.5" y="1.5" width="97" height="97" rx="48.5" fill="none"/>
      </g>
    </g>
    <g id="Group_1107006" data-name="Group 1107006" transform="translate(645.109 6999.844)">
      <rect id="Rectangle_400898-2" data-name="Rectangle 400898" width="84" height="84" rx="42" transform="translate(-0.399 -0.157)" fill="#6003fe" opacity="0.859"/>
      <rect id="Rectangle_400907-2" data-name="Rectangle 400907" width="84" height="84" rx="42" transform="translate(-0.398 -0.157)" fill="none"/>
    </g>
    <g id="Group_1172274" data-name="Group 1172274" transform="translate(658.711 7013.688)">
      <g id="Group_1172272" data-name="Group 1172272" transform="translate(0.906 0.906)">
        <g id="Group_1172265" data-name="Group 1172265">
          <path id="Path_943677" data-name="Path 943677" d="M38.248,11.622a13.946,13.946,0,0,1-8.713-3.056,2.579,2.579,0,0,0-3.226,0,13.96,13.96,0,0,1-4.1,2.271,13.955,13.955,0,0,1-4.616.786H8V43.008a7.246,7.246,0,0,0,3.3,6.074l13.3,8.642a6.114,6.114,0,0,0,3.33.987H30.06a1.527,1.527,0,0,1-.326-.906V47.845H25.206l-.765-2.3a12.536,12.536,0,0,1-2.676-1.11L19.6,45.522,15.756,41.68l1.083-2.167a12.537,12.537,0,0,1-1.11-2.676l-2.3-.765V30.639l2.3-.765a12.537,12.537,0,0,1,1.11-2.676l-1.083-2.167L19.6,21.19l2.167,1.083a12.537,12.537,0,0,1,2.676-1.11l.765-2.3h5.433l.765,2.3a12.537,12.537,0,0,1,2.676,1.11l2.167-1.083,3.842,3.842L39.005,27.2a12.536,12.536,0,0,1,1.11,2.676l2.3.765V37.09c1.165-.074,2.377-.112,3.622-.112q.919,0,1.811.028h0V11.622Z" transform="translate(-8 -8)" fill="#aab2bd"/>
        </g>
        <g id="Group_1172266" data-name="Group 1172266" transform="translate(5.433 10.867)">
          <path id="Path_943678" data-name="Path 943678" d="M84.978,115.772v6.451a42.914,42.914,0,0,0-6.717.916,9.039,9.039,0,1,0-5.961,4.224v5.615H67.772l-.765-2.3a12.537,12.537,0,0,1-2.676-1.11l-2.167,1.083-3.842-3.842,1.083-2.167a12.536,12.536,0,0,1-1.11-2.676l-2.3-.765v-5.433l2.3-.765a12.536,12.536,0,0,1,1.11-2.676l-1.083-2.167,3.842-3.842,2.167,1.083a12.536,12.536,0,0,1,2.676-1.11l.765-2.3h5.433l.765,2.3a12.536,12.536,0,0,1,2.676,1.11l2.167-1.083,3.842,3.842-1.083,2.167a12.536,12.536,0,0,1,1.11,2.676Z" transform="translate(-56 -104)" fill="#5cd6b3"/>
        </g>
        <g id="Group_1172267" data-name="Group 1172267" transform="translate(10.867 16.3)">
          <path id="Path_943679" data-name="Path 943679" d="M122.111,161.056a9.014,9.014,0,0,1-1.284,4.65c-3.639.83-5.961,2.09-5.961,3.5v.724a9.057,9.057,0,1,1,7.245-8.875Z" transform="translate(-104 -152)" fill="#e6e9ed"/>
        </g>
        <g id="Group_1172268" data-name="Group 1172268" transform="translate(21.734 44.373)">
          <path id="Path_943680" data-name="Path 943680" d="M232.6,400v5.433c0,2.5-7.3,4.528-16.3,4.528-7.885,0-14.463-1.555-15.974-3.622a1.527,1.527,0,0,1-.326-.906V400c0,2.5,7.3,4.528,16.3,4.528S232.6,402.5,232.6,400Z" transform="translate(-200 -400)" fill="#fcd770"/>
        </g>
        <g id="Group_1172269" data-name="Group 1172269" transform="translate(21.734 33.506)">
          <path id="Path_943681" data-name="Path 943681" d="M200,304.724V304c0,2.5,7.3,4.528,16.3,4.528S232.6,306.5,232.6,304v5.433c0,2.5-7.3,4.528-16.3,4.528s-16.3-2.027-16.3-4.528Z" transform="translate(-200 -304)" fill="#fcd770"/>
        </g>
        <g id="Group_1172270" data-name="Group 1172270" transform="translate(21.734 38.939)">
          <path id="Path_943682" data-name="Path 943682" d="M200,352.906V352c0,2.5,7.3,4.528,16.3,4.528S232.6,354.5,232.6,352v5.433c0,2.5-7.3,4.528-16.3,4.528s-16.3-2.027-16.3-4.528Z" transform="translate(-200 -352)" fill="#ffeaa7"/>
        </g>
        <g id="Group_1172271" data-name="Group 1172271" transform="translate(21.734 28.978)">
          <path id="Path_943683" data-name="Path 943683" d="M232.6,268.528c0,2.5-7.3,4.528-16.3,4.528s-16.3-2.027-16.3-4.528c0-1.41,2.322-2.67,5.961-3.5a42.913,42.913,0,0,1,6.717-.916c1.165-.074,2.377-.112,3.622-.112q.919,0,1.811.028C226.261,264.278,232.6,266.2,232.6,268.528Z" transform="translate(-200 -264)" fill="#ffeaa7"/>
        </g>
      </g>
      <g id="Group_1172273" data-name="Group 1172273" transform="translate(0 0)">
        <path id="Path_943684" data-name="Path 943684" d="M50.708,30.337a42.05,42.05,0,0,0-9.052-1.3V3.622h-10.5A13.09,13.09,0,0,1,23.006.764a3.487,3.487,0,0,0-4.357,0A13.089,13.089,0,0,1,10.5,3.622H0V35.913a8.122,8.122,0,0,0,3.708,6.833L17,51.39a7,7,0,0,0,3.823,1.133h1.713a10.417,10.417,0,0,0,4.63,2.263,45.925,45.925,0,0,0,11.768,1.359,45.923,45.923,0,0,0,11.768-1.359c3.608-1,5.437-2.373,5.437-4.074v-16.3c0-1.7-1.829-3.072-5.437-4.074Zm3.626,4.074c0,.411-.859,1.426-4.111,2.329a44.1,44.1,0,0,1-11.284,1.293,44.1,44.1,0,0,1-11.284-1.293c-3.252-.9-4.111-1.918-4.111-2.329s.859-1.426,4.111-2.329a44.1,44.1,0,0,1,11.284-1.293,44.1,44.1,0,0,1,11.284,1.293C53.475,32.986,54.334,34,54.334,34.411Zm-43.8-2.432A11.707,11.707,0,0,1,9.505,29.5l-.131-.46-2.13-.71V24.2l2.13-.71.131-.46a11.721,11.721,0,0,1,1.031-2.484l.233-.418-1-2.01L12.683,15.2l2.01,1,.418-.233a11.714,11.714,0,0,1,2.484-1.031l.46-.131.71-2.13h4.128l.71,2.13.46.131a11.713,11.713,0,0,1,2.484,1.031l.418.233,2.01-1,2.919,2.919-1,2.01.233.418a11.719,11.719,0,0,1,1.031,2.484l.131.46,2.13.71v4.956c-1.487.117-2.906.291-4.224.519a9.961,9.961,0,1,0-9.359,6.55c.3,0,.6-.016.906-.043v3.665h-2.97l-.71-2.13-.46-.131a11.723,11.723,0,0,1-2.484-1.031l-.418-.233-2.01,1L9.764,34.407l1-2.01Zm11.2,2.381a8.276,8.276,0,0,1-.907.052,8.148,8.148,0,1,1,7.178-4.29c-.285.069-.565.14-.835.215-3.571.992-5.4,2.345-5.436,4.023ZM31.154,5.433h8.691V28.985q-.451-.007-.906-.007c-.919,0-1.826.022-2.717.063V22.892l-2.471-.824a13.541,13.541,0,0,0-.821-1.979L34.1,17.758l-4.765-4.765L27,14.159a13.546,13.546,0,0,0-1.979-.821L24.2,10.867H21.734V2.078a1.674,1.674,0,0,1,.141.1,14.907,14.907,0,0,0,9.279,3.255ZM20.828,50.712a5.191,5.191,0,0,1-2.836-.841L4.7,41.228a6.317,6.317,0,0,1-2.884-5.315V5.433H10.5a14.907,14.907,0,0,0,9.279-3.255,1.683,1.683,0,0,1,.141-.1v8.789H17.459l-.824,2.471a13.541,13.541,0,0,0-1.979.821l-2.331-1.166L7.56,17.758,8.726,20.09A13.53,13.53,0,0,0,7.9,22.068l-2.471.824v6.739l2.471.824a13.525,13.525,0,0,0,.821,1.979L7.56,34.764l4.765,4.765,2.331-1.166a13.541,13.541,0,0,0,1.979.821l.824,2.471h4.275v9.056Zm29.395,2.329a44.1,44.1,0,0,1-11.284,1.293,44.1,44.1,0,0,1-11.284-1.293c-3.252-.9-4.111-1.918-4.111-2.329V47.881a14,14,0,0,0,3.626,1.472,45.929,45.929,0,0,0,11.768,1.359,45.923,45.923,0,0,0,11.768-1.359,14,14,0,0,0,3.626-1.472v2.831C54.334,51.122,53.475,52.138,50.223,53.041Zm0-5.433A44.1,44.1,0,0,1,38.939,48.9a44.1,44.1,0,0,1-11.284-1.293c-3.252-.9-4.111-1.918-4.111-2.329V42.447a14,14,0,0,0,3.626,1.472,45.929,45.929,0,0,0,11.768,1.359,45.923,45.923,0,0,0,11.768-1.359,14,14,0,0,0,3.626-1.472v2.831C54.334,45.689,53.475,46.7,50.223,47.607Zm0-5.433a44.1,44.1,0,0,1-11.284,1.293,44.1,44.1,0,0,1-11.284-1.293c-3.252-.9-4.111-1.918-4.111-2.329V37.014a14,14,0,0,0,3.626,1.472,45.929,45.929,0,0,0,11.768,1.359,45.923,45.923,0,0,0,11.768-1.359,14,14,0,0,0,3.626-1.472v2.831C54.334,40.256,53.475,41.271,50.223,42.174Z" transform="translate(0 0)"/>
        <path id="Path_943685" data-name="Path 943685" d="M344,289.811a44.453,44.453,0,0,1,8.848.808l.369-1.773A46.278,46.278,0,0,0,344,288Z" transform="translate(-305.061 -255.4)"/>
        <path id="Path_943686" data-name="Path 943686" d="M153.588,202.343l-4.793,4.793-1.171-1.171-1.281,1.281,2.451,2.451,6.074-6.074Z" transform="translate(-129.778 -179.439)"/>
        <path id="Path_943687" data-name="Path 943687" d="M33.811,65.811h3.622V64H32v9.056h1.811Z" transform="translate(-28.378 -56.755)"/>
        <path id="Path_943688" data-name="Path 943688" d="M32,160h1.811v1.811H32Z" transform="translate(-28.378 -141.889)"/>
      </g>
    </g>
  </g>
</svg>
