<svg xmlns="http://www.w3.org/2000/svg" width="100" height="100" viewBox="0 0 100 100">
  <g id="Group_1169249" data-name="Group 1169249" transform="translate(-637 -6992)">
    <g id="Group_1098742" data-name="Group 1098742" transform="translate(637.242 6992)">
      <rect id="Rectangle_400898" data-name="Rectangle 400898" width="100" height="100" rx="50" transform="translate(-0.242)" fill="#fff" opacity="0.859"/>
      <g id="Rectangle_400907" data-name="Rectangle 400907" transform="translate(-0.242)" fill="none" stroke="#00bdff" stroke-linecap="round" stroke-width="3" stroke-dasharray="0 7">
        <rect width="100" height="100" rx="50" stroke="none"/>
        <rect x="1.5" y="1.5" width="97" height="97" rx="48.5" fill="none"/>
      </g>
    </g>
    <g id="Group_1107006" data-name="Group 1107006" transform="translate(645.398 7000.157)">
      <rect id="Rectangle_400898-2" data-name="Rectangle 400898" width="84" height="84" rx="42" transform="translate(-0.399 -0.157)" fill="#6003fe" opacity="0.859"/>
      <rect id="Rectangle_400907-2" data-name="Rectangle 400907" width="84" height="84" rx="42" transform="translate(-0.398 -0.157)" fill="none"/>
    </g>
    <g id="Group_1172286" data-name="Group 1172286" transform="translate(647.804 7016.091)">
      <g id="Group_1172284" data-name="Group 1172284" transform="translate(15.542 0.759)">
        <g id="Group_1172283" data-name="Group 1172283" transform="translate(0)">
          <path id="Path_943698" data-name="Path 943698" d="M150.605,104.885H138.128a1.012,1.012,0,0,0-1.012,1.012v1.841a6.78,6.78,0,0,1,2.7,3.718h4.02a.3.3,0,0,1,.3.3v1.935a.34.34,0,0,0,.58.24l2.33-2.33a.506.506,0,0,1,.358-.148h3.2a1.012,1.012,0,0,0,1.012-1.012V105.9a1.012,1.012,0,0,0-1.012-1.012Z" transform="translate(-125.494 -95.029)" fill="#26a6fe"/>
          <path id="Path_943699" data-name="Path 943699" d="M168.857,104.885h-1.226v4.052a1.012,1.012,0,0,1-1.012,1.012h-9.2a6.729,6.729,0,0,1,.645,1.507h4.02a.3.3,0,0,1,.3.3v1.935a.34.34,0,0,0,.58.24l2.33-2.33a.506.506,0,0,1,.358-.148h3.2a1.012,1.012,0,0,0,1.012-1.012V105.9a1.012,1.012,0,0,0-1.012-1.012Z" transform="translate(-143.746 -95.029)" fill="#0593fc"/>
          <g id="Group_1172281" data-name="Group 1172281" transform="translate(23.272 11.487)">
            <path id="Path_943700" data-name="Path 943700" d="M342.95,176.491a.531.531,0,0,1-.518-.421l-1.012-4.839a2.119,2.119,0,0,0-2.137-1.862h-5.6a2.508,2.508,0,0,1-.516-.054v3.257l-1.064,1.063a.756.756,0,0,0,0,1.069l1.064,1.064v1.387a1.811,1.811,0,0,0,1.811,1.811h3.006a.742.742,0,0,1,.742.742v2.306a7.837,7.837,0,0,1,1.971-.251h2.292a4.717,4.717,0,0,1,1.671.305v-5.476l-.029-.1Z" transform="translate(-323.824 -164.425)" fill="#ffdfcf"/>
            <g id="Group_1172278" data-name="Group 1172278" transform="translate(17.805 7.8)">
              <path id="Path_943701" data-name="Path 943701" d="M431.151,202.335h-1.685a.531.531,0,0,1-.518-.421l-.8-3.845.011,5.379v4.159h1.353a4.717,4.717,0,0,1,1.672.305v-5.476Z" transform="translate(-428.144 -198.07)" fill="#ffcebf"/>
            </g>
            <path id="Path_943702" data-name="Path 943702" d="M326.583,121h8.742a3.425,3.425,0,0,1,3.425,3.425v5.085a6.072,6.072,0,0,1-.657,2.747l-.462.91h-1.714a.63.63,0,0,1-.617-.5l-1.013-4.844a2.03,2.03,0,0,0-2.037-1.777h-5.6a2.567,2.567,0,0,1-2.586-2.71A2.522,2.522,0,0,1,326.583,121Z" transform="translate(-316.79 -121.001)" fill="#d88a55"/>
            <g id="Group_1172279" data-name="Group 1172279" transform="translate(17.197 0)">
              <path id="Path_943703" data-name="Path 943703" d="M423.479,121h-1.337a1.684,1.684,0,0,1,.593,1.28l.015,7.019.7,3.366a.63.63,0,0,0,.617.5h1.714l.462-.91a6.072,6.072,0,0,0,.657-2.747v-5.085A3.425,3.425,0,0,0,423.479,121Z" transform="translate(-422.142 -121.001)" fill="#c57a44"/>
            </g>
            <path id="Path_943704" data-name="Path 943704" d="M355.318,295.925v15.723a1.012,1.012,0,0,1-1.012,1.012H341.2a1.012,1.012,0,0,1-1.012-1.012V299.033a7.975,7.975,0,0,1,7.975-7.975h2.292A4.867,4.867,0,0,1,355.318,295.925Z" transform="translate(-331.282 -273.847)" fill="#fe5694"/>
            <path id="Path_943705" data-name="Path 943705" d="M352.123,293.969v17.31a1.012,1.012,0,0,1-1.012,1.012H340.184v1.974a1.012,1.012,0,0,0,1.012,1.012h13.11a1.012,1.012,0,0,0,1.012-1.012V298.541A4.869,4.869,0,0,0,352.123,293.969Z" transform="translate(-331.282 -276.463)" fill="#fd3581"/>
            <g id="Group_1172280" data-name="Group 1172280" transform="translate(0 29.971)">
              <path id="Path_943706" data-name="Path 943706" d="M257.565,417.135H254.6a2.374,2.374,0,0,0,0,4.748h2.967Z" transform="translate(-252.224 -417.135)" fill="#ffdfcf"/>
            </g>
            <path id="Path_943707" data-name="Path 943707" d="M315.823,338a2.374,2.374,0,0,0-2.374,2.374v5.635H304v4.748h11.41a2.787,2.787,0,0,0,2.787-2.787v-7.6A2.374,2.374,0,0,0,315.823,338Z" transform="translate(-298.76 -316.038)" fill="#b9acac"/>
          </g>
          <path id="Path_943708" data-name="Path 943708" d="M34.154,133.258v4.959a4.743,4.743,0,0,1,1.671-.3h4.1c.055,0,.108,0,.163,0v-2.034a.742.742,0,0,1,.742-.742H43.88a1.768,1.768,0,0,0,1.768-1.768v-5.962a6.856,6.856,0,0,0-6.959-6.855,7.031,7.031,0,0,0-6.746,6.543,6.832,6.832,0,0,0,1.723,4.864A1.946,1.946,0,0,1,34.154,133.258Z" transform="translate(-30.958 -109.114)" fill="#cdbfba"/>
          <g id="Group_1172282" data-name="Group 1172282" transform="translate(5.898 11.784)">
            <path id="Path_943709" data-name="Path 943709" d="M80.562,265.412v2.03h3.069c.055,0,.108,0,.163,0v-2.034a.742.742,0,0,1,.742-.742H81.3a.742.742,0,0,0-.742.742Z" transform="translate(-80.562 -250.426)" fill="#b9acac"/>
            <path id="Path_943710" data-name="Path 943710" d="M125.512,136.411v-5.962a6.857,6.857,0,0,0-4.719-6.514A6.836,6.836,0,0,1,123,128.976v9.2h.74A1.768,1.768,0,0,0,125.512,136.411Z" transform="translate(-116.721 -123.935)" fill="#b9acac"/>
          </g>
          <path id="Path_943711" data-name="Path 943711" d="M33.007,424.783H22.589l-.306.1v6.166a1.012,1.012,0,0,0,1.012,1.012H34.6a1.012,1.012,0,0,0,1.012-1.012v-7.145A4.286,4.286,0,0,1,33.007,424.783Z" transform="translate(-22.283 -381.762)" fill="#b9acac"/>
          <path id="Path_943712" data-name="Path 943712" d="M35.609,476.974V475H22.283v1.974a1.012,1.012,0,0,0,1.012,1.012H34.6A1.012,1.012,0,0,0,35.609,476.974Z" transform="translate(-22.283 -427.685)" fill="#9e9797"/>
          <path id="Path_943713" data-name="Path 943713" d="M22.283,295.926v9.557H33.007a4.41,4.41,0,0,0,4.41-4.41v-3.847a6.166,6.166,0,0,0-6.166-6.166h-4.1A4.867,4.867,0,0,0,22.283,295.926Z" transform="translate(-22.283 -262.36)" fill="#e1d3ce"/>
          <path id="Path_943714" data-name="Path 943714" d="M68.716,392.018a3.542,3.542,0,0,1-2.53-1.062v11.492h5.06V390.956A3.542,3.542,0,0,1,68.716,392.018Z" transform="translate(-61.743 -352.147)" fill="#cdbfba"/>
          <path id="Path_943715" data-name="Path 943715" d="M66.186,475h5.06v2.986h-5.06Z" transform="translate(-61.743 -427.685)" fill="#b9acac"/>
          <circle id="Ellipse_13644" data-name="Ellipse 13644" cx="3.654" cy="3.654" r="3.654" transform="translate(3.319 32.664)" fill="#b9acac"/>
          <path id="Path_943716" data-name="Path 943716" d="M65.214,330.235h-.04a3.654,3.654,0,0,1-2.885,5.844,3.654,3.654,0,1,0,2.925-5.845Z" transform="translate(-58.24 -297.571)" fill="#9e9797"/>
          <path id="Path_943717" data-name="Path 943717" d="M118.568,188.3a2.575,2.575,0,0,1,.078.627v1.012a2.566,2.566,0,0,1-.49,1.511h4.986V188.3Z" transform="translate(-108.452 -170.002)" fill="#00f2a6"/>
          <path id="Path_943718" data-name="Path 943718" d="M142.638,188.3h2.508v3.15h-2.508Z" transform="translate(-130.457 -170.002)" fill="#05e39c"/>
          <path id="Path_943719" data-name="Path 943719" d="M73.682,174.376A2.69,2.69,0,0,1,71,171.694v-1.012a2.682,2.682,0,0,1,5.364,0v1.012A2.69,2.69,0,0,1,73.682,174.376Z" transform="translate(-66.069 -151.756)" fill="#e1d3ce"/>
          <path id="Path_943720" data-name="Path 943720" d="M161.028,7.5h-22.9a1.012,1.012,0,0,0-1.012,1.012v4.547a1.012,1.012,0,0,0,1.012,1.012h14.526a.506.506,0,0,1,.358.148l2.33,2.33a.34.34,0,0,0,.58-.24V14.374a.3.3,0,0,1,.3-.3h4.8a1.012,1.012,0,0,0,1.012-1.012V8.512A1.012,1.012,0,0,0,161.028,7.5Z" transform="translate(-125.494 -7.5)" fill="#ffe177"/>
          <path id="Path_943721" data-name="Path 943721" d="M161.028,7.5H159.8v4a1.012,1.012,0,0,1-1.012,1.012H137.116v.549a1.012,1.012,0,0,0,1.012,1.012h14.526a.506.506,0,0,1,.358.148l2.33,2.33a.34.34,0,0,0,.58-.24V14.374a.3.3,0,0,1,.3-.3h4.8a1.012,1.012,0,0,0,1.012-1.012V8.512A1.012,1.012,0,0,0,161.028,7.5Z" transform="translate(-125.494 -7.5)" fill="#ffd15b"/>
        </g>
      </g>
      <g id="Group_1172285" data-name="Group 1172285" transform="translate(14.783 0)">
        <path id="Path_943722" data-name="Path 943722" d="M267.083,131.265v-4.657l.38-.748a6.863,6.863,0,0,0,.739-3.09v-5.085a4.189,4.189,0,0,0-4.184-4.184h-8.742A3.293,3.293,0,0,0,252,116.539a3.213,3.213,0,0,0,.867,2.445,3.381,3.381,0,0,0,1.2.827v2.28l-.841.841a1.515,1.515,0,0,0,0,2.142l.841.841v1.073a2.573,2.573,0,0,0,2.57,2.57h2.988v1.592a8.748,8.748,0,0,0-6,8.295v4.026h-5.769a3.133,3.133,0,0,0,0,6.266h5.769v2.323a1.773,1.773,0,0,0,1.771,1.771h13.11a1.773,1.773,0,0,0,1.771-1.771V136.338A5.633,5.633,0,0,0,267.083,131.265Zm-13.566-14.614a1.769,1.769,0,0,1,1.758-1.631h8.742a2.669,2.669,0,0,1,2.666,2.666v5.085a5.338,5.338,0,0,1-.575,2.4l-.251.494h-1.143l-.985-4.707a2.776,2.776,0,0,0-2.787-2.415h-5.6a1.868,1.868,0,0,1-1.364-.595A1.711,1.711,0,0,1,253.517,116.651Zm6.13,11.391h-3.006a1.053,1.053,0,0,1-1.052-1.052V125.6a.759.759,0,0,0-.222-.537l-1.064-1.059,1.064-1.063a.759.759,0,0,0,.222-.537v-2.343h5.354a1.276,1.276,0,0,1,1.282,1.1.743.743,0,0,0,.012.075l1.013,4.844a1.4,1.4,0,0,0,1.36,1.1h.955v3.6a5.637,5.637,0,0,0-.912-.075H262.36a8.758,8.758,0,0,0-1.212.086v-1.256A1.5,1.5,0,0,0,259.647,128.042Zm-13.4,18.564a1.617,1.617,0,0,1,1.615-1.615h2.107v3.23h-2.107A1.617,1.617,0,0,1,246.242,146.605Zm22.518,5.456a.253.253,0,0,1-.253.253H255.4a.253.253,0,0,1-.253-.253v-2.323h6.989a3.55,3.55,0,0,0,3.546-3.546v-7.6a3.133,3.133,0,1,0-6.266,0v.46a.759.759,0,1,0,1.518,0v-.46a1.615,1.615,0,1,1,3.23,0v7.6a2.03,2.03,0,0,1-2.028,2.028H251.482v-3.23h8.69a.759.759,0,0,0,.759-.759V142.6a.759.759,0,1,0-1.518,0v.874h-4.268v-4.026a7.224,7.224,0,0,1,7.216-7.216h2.292a4.113,4.113,0,0,1,4.108,4.108Z" transform="translate(-221.452 -102.014)"/>
        <path id="Path_943723" data-name="Path 943723" d="M370.259,195.6a.759.759,0,0,0-.759.759v.3a.759.759,0,1,0,1.518,0v-.3A.759.759,0,0,0,370.259,195.6Z" transform="translate(-333.599 -175.802)"/>
        <path id="Path_943724" data-name="Path 943724" d="M84.445,425.224a.759.759,0,0,0-.759.759v.81a.759.759,0,1,0,1.518,0v-.81A.759.759,0,0,0,84.445,425.224Z" transform="translate(-76.712 -382.188)"/>
        <path id="Path_943725" data-name="Path 943725" d="M131.387,8.089h14.421l2.256,2.256a1.1,1.1,0,0,0,1.876-.777V8.089h4.347a1.773,1.773,0,0,0,1.771-1.771V1.771A1.773,1.773,0,0,0,154.287,0h-22.9a1.773,1.773,0,0,0-1.771,1.771V6.318A1.773,1.773,0,0,0,131.387,8.089Zm-.253-6.318a.253.253,0,0,1,.253-.253h22.9a.253.253,0,0,1,.253.253V6.318a.253.253,0,0,1-.253.253h-4.8a1.064,1.064,0,0,0-1.063,1.063v.923l-1.615-1.615a1.257,1.257,0,0,0-.895-.371H131.387a.253.253,0,0,1-.253-.253Z" transform="translate(-117.994 0)"/>
        <path id="Path_943726" data-name="Path 943726" d="M170.112,33.98h1.331a.759.759,0,0,0,0-1.518h-1.331a.759.759,0,0,0,0,1.518Z" transform="translate(-153.709 -29.177)"/>
        <path id="Path_943727" data-name="Path 943727" d="M244.259,33.98h9.376a.759.759,0,0,0,0-1.518h-9.376a.759.759,0,0,0,0,1.518Z" transform="translate(-220.352 -29.177)"/>
        <path id="Path_943728" data-name="Path 943728" d="M174.03,131.365H177.6a.759.759,0,0,0,0-1.518H174.03a.759.759,0,0,0,0,1.518Z" transform="translate(-157.231 -116.705)"/>
        <path id="Path_943729" data-name="Path 943729" d="M235.609,131.365a.759.759,0,0,0,0-1.518h-1.133a.759.759,0,0,0,0,1.518Z" transform="translate(-211.559 -116.705)"/>
        <path id="Path_943730" data-name="Path 943730" d="M206.913,33.98h1.331a.759.759,0,0,0,0-1.518h-1.331a.759.759,0,1,0,0,1.518Z" transform="translate(-186.786 -29.177)"/>
        <path id="Path_943731" data-name="Path 943731" d="M42.424,103.7V99.157a1.773,1.773,0,0,0-1.771-1.771H33.63a.759.759,0,0,0,0,1.518h7.023a.253.253,0,0,1,.253.253V103.7a.253.253,0,0,1-.253.253h-3.2a1.257,1.257,0,0,0-.895.371l-1.615,1.615v-.923a1.064,1.064,0,0,0-1.063-1.063H30.525a7.589,7.589,0,0,0-1.805-2.794,7.729,7.729,0,0,0-.8-.683V99.157a.253.253,0,0,1,.253-.253h1.911a.759.759,0,1,0,0-1.518H28.176a1.773,1.773,0,0,0-1.771,1.771V99.6a7.557,7.557,0,0,0-2.491-.606v-.847a.759.759,0,1,0-1.518,0v.9a7.84,7.84,0,0,0-6.628,7.2,7.582,7.582,0,0,0,1.914,5.4,1.186,1.186,0,0,1,.3.79v4.349a5.633,5.633,0,0,0-3.2,5.073v2.414a.759.759,0,1,0,1.518,0v-2.414a4.113,4.113,0,0,1,4.108-4.108h4.1l.1,0h.046a5.412,5.412,0,0,1,5.26,5.4V127a3.655,3.655,0,0,1-3.651,3.651H25.8v-3.107a4.413,4.413,0,1,0-6.579,0v3.107H16.3v-2.841a.759.759,0,1,0-1.518,0v9.767a1.773,1.773,0,0,0,1.771,1.771h11.3a1.773,1.773,0,0,0,1.771-1.771v-6.654A5.158,5.158,0,0,0,31.435,127v-3.847a6.934,6.934,0,0,0-6-6.862v-1.216h3.032a2.53,2.53,0,0,0,2.527-2.527v-5.962a7.747,7.747,0,0,0-.081-1.112h2.52v1.479a1.1,1.1,0,0,0,1.876.777l2.256-2.256h3.092a1.773,1.773,0,0,0,1.771-1.771Zm-21.68,24.944a4.4,4.4,0,0,0,3.542,0v6.2H20.744Zm1.771-6.936a2.9,2.9,0,1,1-2.9,2.9A2.9,2.9,0,0,1,22.516,121.711ZM16.3,137.578V132.17h2.925v5.66H16.554A.253.253,0,0,1,16.3,137.578Zm4.443.253v-1.468h3.542v1.468Zm7.364-.253a.253.253,0,0,1-.253.253H25.8v-5.66h.461a5.141,5.141,0,0,0,1.843-.341Zm-.455-35.333a6.045,6.045,0,0,1,1.77,3.584H26.3a3.453,3.453,0,0,0-2.389-1.969v-3.345a6.043,6.043,0,0,1,3.74,1.73ZM26.6,108.227v-.88h2.876v1.632h-2.96A3.433,3.433,0,0,0,26.6,108.227Zm-3.441-2.935a1.925,1.925,0,0,1,1.923,1.923v1.012a1.923,1.923,0,0,1-3.846,0v-1.012A1.925,1.925,0,0,1,23.155,105.292Zm5.308,8.266H25.414a1.5,1.5,0,0,0-1.5,1.5v1.17h-3.5a5.638,5.638,0,0,0-.912.075v-3.871a2.7,2.7,0,0,0-.681-1.8,6.072,6.072,0,0,1-1.532-4.326,6.281,6.281,0,0,1,5.111-5.733v3.284a3.446,3.446,0,0,0-2.682,3.356v1.012a3.439,3.439,0,0,0,6.024,2.27h3.734v2.052A1.01,1.01,0,0,1,28.463,113.558Z" transform="translate(-14.783 -87.53)"/>
      </g>
    </g>
  </g>
</svg>
