<svg xmlns="http://www.w3.org/2000/svg" width="100" height="100" viewBox="0 0 100 100">
  <g id="Group_1169252" data-name="Group 1169252" transform="translate(-637 -6992)">
    <g id="Group_1098742" data-name="Group 1098742" transform="translate(637.242 6992)">
      <rect id="Rectangle_400898" data-name="Rectangle 400898" width="100" height="100" rx="50" transform="translate(-0.242)" fill="#fff" opacity="0.859"/>
      <g id="Rectangle_400907" data-name="Rectangle 400907" transform="translate(-0.242)" fill="none" stroke="#00bdff" stroke-linecap="round" stroke-width="3" stroke-dasharray="0 7">
        <rect width="100" height="100" rx="50" stroke="none"/>
        <rect x="1.5" y="1.5" width="97" height="97" rx="48.5" fill="none"/>
      </g>
    </g>
    <g id="Group_1107006" data-name="Group 1107006" transform="translate(645.398 7000.157)">
      <rect id="Rectangle_400898-2" data-name="Rectangle 400898" width="84" height="84" rx="42" transform="translate(-0.399 -0.157)" fill="#6003fe" opacity="0.859"/>
      <rect id="Rectangle_400907-2" data-name="Rectangle 400907" width="84" height="84" rx="42" transform="translate(-0.398 -0.157)" fill="none"/>
    </g>
    <g id="Group_1172312" data-name="Group 1172312" transform="translate(655.982 6990.173)">
      <g id="Group_1172311" data-name="Group 1172311" transform="translate(0.847 24.53)">
        <path id="Path_943749" data-name="Path 943749" d="M7.057,50.149,23.8,30.79a.248.248,0,0,1,.344-.024L48.936,52.21a.242.242,0,0,1,.024.344L32.22,71.912a.244.244,0,0,1-.341.024L7.081,50.493a.248.248,0,0,1-.024-.344Z" transform="translate(-6.999 -30.708)" fill="#006694" fill-rule="evenodd"/>
        <path id="Path_943750" data-name="Path 943750" d="M94.934,77.292l11.687-5.329,19.083,16.5a.242.242,0,0,1,.024.344l-16.741,19.359a.244.244,0,0,1-.341.024l-1.19-1.029L94.441,78.617a1,1,0,0,1,.492-1.324Z" transform="translate(-83.767 -66.964)" fill="#005c85" fill-rule="evenodd"/>
        <path id="Path_943751" data-name="Path 943751" d="M100.741,44.461l23.284-10.617a.246.246,0,0,1,.323.12l13.6,29.828a.248.248,0,0,1-.12.323L114.54,74.732a.243.243,0,0,1-.32-.12l-13.6-29.828a.243.243,0,0,1,.12-.323Z" transform="translate(-89.257 -33.445)" fill="#60b7ff" fill-rule="evenodd"/>
        <path id="Path_943752" data-name="Path 943752" d="M208.6,91.47h12.9l10.479,22.985a.248.248,0,0,1-.12.323L208.577,125.4a.243.243,0,0,1-.32-.12l-.657-1.438V92.471a1,1,0,0,1,1-1Z" transform="translate(-183.294 -84.108)" fill="#56a5e6" fill-rule="evenodd"/>
        <path id="Path_943753" data-name="Path 943753" d="M214.092,97.717h19.056l6.777,6.777v26.246a.242.242,0,0,1-.241.244H214.092a.245.245,0,0,1-.244-.244V97.961A.245.245,0,0,1,214.092,97.717Z" transform="translate(-188.785 -89.598)" fill="#eaf6ff" fill-rule="evenodd"/>
        <path id="Path_943754" data-name="Path 943754" d="M373.138,97.717v5.256a1.526,1.526,0,0,0,1.521,1.521h5.257Z" transform="translate(-328.775 -89.598)" fill="#bec7cf" fill-rule="evenodd"/>
        <path id="Path_943755" data-name="Path 943755" d="M124.379,237.937h20a3.84,3.84,0,0,1,3.826,3.826v15.712a3.837,3.837,0,0,1-3.826,3.826H108.925a3.835,3.835,0,0,1-3.826-3.826V234.111a3.147,3.147,0,0,1,3.141-3.141h6.681a3.834,3.834,0,0,1,2.649,1.452l4.159,4.063a3.834,3.834,0,0,0,2.649,1.452Z" transform="translate(-93.214 -206.705)" fill="#ffba57" fill-rule="evenodd"/>
        <path id="Path_943756" data-name="Path 943756" d="M200.072,238.58a3.823,3.823,0,0,1,1.713,3.182v15.712a3.837,3.837,0,0,1-3.826,3.826h2.14a3.837,3.837,0,0,0,3.826-3.826V241.762a3.832,3.832,0,0,0-3.826-3.826h-2.14A3.78,3.78,0,0,1,200.072,238.58Zm-22.623-2.1-3.454-3.372-.705-.691a3.834,3.834,0,0,0-2.649-1.452H168.5a3.834,3.834,0,0,1,2.649,1.452l2.845,2.78,1.315,1.283a3.834,3.834,0,0,0,2.649,1.452h2.14a3.834,3.834,0,0,1-2.649-1.452Z" transform="translate(-148.932 -206.705)" fill="#e6a74e" fill-rule="evenodd"/>
        <path id="Path_943757" data-name="Path 943757" d="M392.7,276.629a7.242,7.242,0,1,0-7.242-7.242A7.242,7.242,0,0,0,392.7,276.629Z" transform="translate(-339.605 -234.103)" fill="#25c73b" fill-rule="evenodd"/>
        <path id="Path_943758" data-name="Path 943758" d="M440.177,262.17a7.243,7.243,0,0,1,.368,14.394c-.124.017-.244.031-.368.041.12.01.244.017.368.021.079,0,.162,0,.244,0a7.242,7.242,0,1,0,0-14.484c-.206,0-.413.007-.612.024Z" transform="translate(-387.691 -234.104)" fill="#21b335" fill-rule="evenodd"/>
        <path id="Path_943759" data-name="Path 943759" d="M416.3,153.653V167.7a7.178,7.178,0,0,1,1.548-.633V153.653Z" transform="translate(-366.707 -138.756)" fill="#d3dde6" fill-rule="evenodd"/>
      </g>
      <path id="Path_943760" data-name="Path 943760" d="M29.281,38.556a.848.848,0,0,1,.848-.848H41.346a.848.848,0,1,1,0,1.7H30.129a.848.848,0,0,1-.848-.848Zm.848,4.977H47.844a.848.848,0,1,0,0-1.7H30.129a.848.848,0,0,0,0,1.7Zm17.715,2.428H30.129a.848.848,0,0,0,0,1.7H47.844a.848.848,0,1,0,0-1.7Zm0,4.125H30.129a.848.848,0,0,0,0,1.7H47.844a.848.848,0,0,0,0-1.7Zm8.851,17.364v7.859a4.673,4.673,0,0,1-4.667,4.667H16.632a4.673,4.673,0,0,1-4.667-4.667V54.956L.292,44.861a.848.848,0,0,1-.087-1.2L17.237,23.971a.848.848,0,0,1,1.2-.087l6.1,5.278,10.991-5.01a.848.848,0,0,1,1.124.42l3.332,7.31h5.255a.849.849,0,0,1,.6.248L52.6,38.9a.848.848,0,0,1,.249.6V51.85a8.077,8.077,0,0,1,3.843,15.6Zm-5.54-15.175V40.346h-4.4a2.369,2.369,0,0,1-2.366-2.366v-4.4H26.819V50.63l3.189,3.118c.723.707,1.293,1.208,2.051,1.208H47.537a8.114,8.114,0,0,1,3.618-2.682ZM46.086,37.979a.67.67,0,0,0,.67.67h3.2l-3.869-3.87ZM35.458,26.049,24.79,30.912a.856.856,0,0,1-.1.045L13.315,36.143,18.719,48h3.9a3.859,3.859,0,0,1,2.5,1.013V32.732a.848.848,0,0,1,.848-.848H38.117ZM11.965,52.712v-.727A3.99,3.99,0,0,1,15.952,48h.9L11.419,36.075a.848.848,0,0,1,.42-1.124l11-5.013-4.872-4.215L2.044,44.133ZM55,67.858a8.074,8.074,0,0,1-8.457-11.206H32.059a4.641,4.641,0,0,1-3.238-1.691L25.4,51.615c-.016-.014-.031-.029-.045-.044l-.681-.666c-.749-.729-1.3-1.208-2.055-1.208H15.952a2.292,2.292,0,0,0-2.291,2.288V75.309a2.974,2.974,0,0,0,2.971,2.971H52.027A2.974,2.974,0,0,0,55,75.309Zm5.341-8.008a6.381,6.381,0,1,0-6.381,6.381A6.381,6.381,0,0,0,60.339,59.85Zm-2.062-3.207a.848.848,0,0,0-1.2,0l-4.614,4.614-1.626-1.626a.848.848,0,0,0-1.2,1.2l2.226,2.225a.848.848,0,0,0,1.2,0l5.214-5.213A.848.848,0,0,0,58.277,56.643Zm-7.819,16.34H18.2a.848.848,0,0,0,0,1.7H50.458a.848.848,0,1,0,0-1.7ZM18.2,68.886h8.274a.848.848,0,1,0,0-1.7H18.2a.848.848,0,0,0,0,1.7Z" transform="translate(0)"/>
    </g>
  </g>
</svg>
