<svg xmlns="http://www.w3.org/2000/svg" width="120" height="120" viewBox="0 0 120 120">
  <g id="Group_1169229" data-name="Group 1169229" transform="translate(-64 -6445)">
    <rect id="Rectangle_402033" data-name="Rectangle 402033" width="120" height="120" rx="8" transform="translate(64 6445)" fill="#6003fe"/>
    <g id="Rectangle_412110" data-name="Rectangle 412110" transform="translate(69 6450)" fill="none" stroke="#fff" stroke-width="1">
      <rect width="110" height="110" rx="6" stroke="none"/>
      <rect x="0.5" y="0.5" width="109" height="109" rx="5.5" fill="none"/>
    </g>
    <g id="Group_1155336" data-name="Group 1155336" transform="translate(-325 -2)">
      <circle id="Ellipse_13473" data-name="Ellipse 13473" cx="60" cy="60" r="60" transform="translate(389 6447)" fill="#6003fe"/>
      <g id="Ellipse_13474" data-name="Ellipse 13474" transform="translate(399 6457)" fill="none" stroke="#fff" stroke-width="1">
        <circle cx="50" cy="50" r="50" stroke="none"/>
        <circle cx="50" cy="50" r="49.5" fill="none"/>
      </g>
      <g id="Cloud_Computing" data-name="Cloud Computing" transform="translate(414.856 6472.854)">
        <path id="Path_943511" data-name="Path 943511" d="M51.528,57.071V56H45.1v1.071L43.728,59.8a1.071,1.071,0,0,0,.964,1.554h7.243A1.071,1.071,0,0,0,52.9,59.8Z" transform="translate(2.973 3.858)" fill="#535386"/>
        <rect id="Rectangle_448796" data-name="Rectangle 448796" width="28" height="22" rx="2" transform="translate(37.144 39.145)" fill="#f0eefe"/>
        <path id="Path_943512" data-name="Path 943512" d="M35,52H62.858v3.214a2.143,2.143,0,0,1-2.143,2.143H37.143A2.143,2.143,0,0,1,35,55.214Z" transform="translate(2.358 3.572)" fill="#8684c2"/>
        <path id="Path_943513" data-name="Path 943513" d="M19.528,57.071V56H13.1v1.071L11.728,59.8a1.071,1.071,0,0,0,.964,1.554h7.243A1.071,1.071,0,0,0,20.9,59.8Z" transform="translate(0.687 3.858)" fill="#535386"/>
        <rect id="Rectangle_448797" data-name="Rectangle 448797" width="28" height="22" rx="2" transform="translate(3.144 39.145)" fill="#f0eefe"/>
        <path id="Path_943514" data-name="Path 943514" d="M3,52H30.858v3.214a2.143,2.143,0,0,1-2.143,2.143H5.143A2.143,2.143,0,0,1,3,55.214Z" transform="translate(0.071 3.572)" fill="#8684c2"/>
        <path id="Path_943515" data-name="Path 943515" d="M43.786,11.571h-.161a4.007,4.007,0,0,0,.161-1.071A4.286,4.286,0,0,0,36.1,7.917,6.429,6.429,0,0,0,23.429,9.428a6.429,6.429,0,1,0,0,12.857l21.429-.107a5.357,5.357,0,0,0-1.071-10.607Z" transform="translate(1.072 0.072)" fill="#a4dcff"/>
        <g id="Group_1172199" data-name="Group 1172199" transform="translate(2 2.004)">
          <path id="Path_943516" data-name="Path 943516" d="M50.429,28.786a2.143,2.143,0,0,0-1.843,1.071H35.129a2.047,2.047,0,0,0-.771-.771V23.375l10.715-.054h.214a6.429,6.429,0,0,0-.214-12.643v-.107a5.357,5.357,0,0,0-8.314-4.457A7.5,7.5,0,0,0,22.636,8.493a7.5,7.5,0,0,0,1.007,14.936h8.572v5.657a2.047,2.047,0,0,0-.771.771H17.986a2.135,2.135,0,1,0-2.914,2.914v2.443a1.071,1.071,0,0,0,2.143,0V32.772A2.046,2.046,0,0,0,17.986,32H31.443a2.143,2.143,0,0,0,3.686,0H48.586a2.046,2.046,0,0,0,.771.771v2.443a1.071,1.071,0,0,0,2.143,0V32.772a2.135,2.135,0,0,0-1.071-3.986Zm-26.786-7.5a5.357,5.357,0,1,1,0-10.715A1.071,1.071,0,0,0,24.715,9.5,5.357,5.357,0,0,1,35.268,8.236a1.071,1.071,0,0,0,1.9.407,3.214,3.214,0,0,1,5.764,1.929,3.471,3.471,0,0,1-.118.814,1.071,1.071,0,0,0,1.071,1.339H44a4.286,4.286,0,0,1,.911,8.464Z" transform="translate(-1.143 -2.004)" fill="#333"/>
          <path id="Path_943517" data-name="Path 943517" d="M28.786,36H5.214A3.214,3.214,0,0,0,2,39.214V56.358a3.214,3.214,0,0,0,3.214,3.214H12.05L10.689,62.3a1.071,1.071,0,0,0,.954,1.554H22.358a1.071,1.071,0,0,0,.954-1.554L21.95,59.572h6.836A3.214,3.214,0,0,0,32,56.358V39.214A3.214,3.214,0,0,0,28.786,36ZM5.214,38.143H28.786a1.071,1.071,0,0,1,1.071,1.071V52.072H4.143V39.214A1.071,1.071,0,0,1,5.214,38.143ZM20.622,61.715H13.379l1.071-2.143h5.1Zm8.164-4.286H5.214a1.071,1.071,0,0,1-1.071-1.071V54.215H29.858v2.143A1.071,1.071,0,0,1,28.786,57.429Z" transform="translate(-2 0.425)" fill="#333"/>
          <path id="Path_943518" data-name="Path 943518" d="M60.786,36H37.214A3.214,3.214,0,0,0,34,39.214V56.358a3.214,3.214,0,0,0,3.214,3.214H44.05L42.689,62.3a1.071,1.071,0,0,0,.954,1.554H54.358a1.071,1.071,0,0,0,.954-1.554L53.95,59.572h6.836A3.214,3.214,0,0,0,64,56.358V39.214A3.214,3.214,0,0,0,60.786,36ZM37.214,38.143H60.786a1.071,1.071,0,0,1,1.071,1.071V52.072H36.143V39.214A1.071,1.071,0,0,1,37.214,38.143ZM52.622,61.715H45.379l1.071-2.143h5.1Zm8.164-4.286H37.214a1.071,1.071,0,0,1-1.071-1.071V54.215H61.858v2.143A1.071,1.071,0,0,1,60.786,57.429Z" transform="translate(0.286 0.425)" fill="#333"/>
        </g>
      </g>
    </g>
  </g>
</svg>
