<svg xmlns="http://www.w3.org/2000/svg" width="120" height="120" viewBox="0 0 120 120">
  <g id="Group_1169217" data-name="Group 1169217" transform="translate(-64 -6445)">
    <rect id="Rectangle_402033" data-name="Rectangle 402033" width="120" height="120" rx="8" transform="translate(64 6445)" fill="#6003fe"/>
    <g id="Rectangle_412110" data-name="Rectangle 412110" transform="translate(69 6450)" fill="none" stroke="#fff" stroke-width="1">
      <rect width="110" height="110" rx="6" stroke="none"/>
      <rect x="0.5" y="0.5" width="109" height="109" rx="5.5" fill="none"/>
    </g>
    <g id="Group_1155336" data-name="Group 1155336" transform="translate(-325 -2)">
      <circle id="Ellipse_13473" data-name="Ellipse 13473" cx="60" cy="60" r="60" transform="translate(389 6447)" fill="#6003fe"/>
      <g id="Ellipse_13474" data-name="Ellipse 13474" transform="translate(399 6457)" fill="none" stroke="#fff" stroke-width="1">
        <circle cx="50" cy="50" r="50" stroke="none"/>
        <circle cx="50" cy="50" r="49.5" fill="none"/>
      </g>
      <g id="Group_1172201" data-name="Group 1172201" transform="translate(417 6475)">
        <path id="Path_943519" data-name="Path 943519" d="M38,58v4H12V58H38Z" fill="#969faa"/>
        <g id="Group_1172200" data-name="Group 1172200">
          <path id="Path_943520" data-name="Path 943520" d="M36.55,55.11,38,58H30V54h4.76a2,2,0,0,1,1.79,1.11Z" fill="#aab2bd"/>
          <path id="Path_943521" data-name="Path 943521" d="M30,54v4H20V50H30Z" fill="#aab2bd"/>
          <path id="Path_943522" data-name="Path 943522" d="M13.45,55.11A2,2,0,0,1,15.24,54H20v4H12Z" fill="#aab2bd"/>
        </g>
        <path id="Path_943523" data-name="Path 943523" d="M48,42v4a4,4,0,0,1-4,4H6a4,4,0,0,1-4-4V42H16v2a2.006,2.006,0,0,0,2,2H32a2.006,2.006,0,0,0,2-2V42Z" fill="#ccd1d9"/>
        <path id="Path_943524" data-name="Path 943524" d="M16,42v2a2.006,2.006,0,0,0,2,2H32a2.006,2.006,0,0,0,2-2V42Z" fill="#ff826e"/>
        <path id="Path_943525" data-name="Path 943525" d="M44,26a6,6,0,0,1,4-5.651V18H6a4,4,0,0,0-4,4V42H48V31.651A6,6,0,0,1,44,26Z" fill="#69d6f4"/>
        <path id="Path_943526" data-name="Path 943526" d="M59,2V18l-.01.02-2.63-2.63-2.38,1.44c-.1-.05-.2-.08-.3-.12L53,14H47l-.68,2.71c-.1.04-.2.07-.3.12l-2.38-1.44L41.03,18H33V2Z" fill="#e6e9ed"/>
        <path id="Path_943527" data-name="Path 943527" d="M22,26v3a5,5,0,0,1-10,0V26H22Z" fill="#aab2bd"/>
        <path id="Path_943528" data-name="Path 943528" d="M17,2A11.984,11.984,0,0,0,5,14v.03a12.1,12.1,0,0,0,.68,3.98,11.968,11.968,0,0,0,2.83,4.5L12,26H22l3.49-3.49A12.048,12.048,0,0,0,29,14.03V14A12,12,0,0,0,17,2Z" fill="#ffeaa7"/>
        <path id="Path_943529" data-name="Path 943529" d="M15,13v3H12a3,3,0,1,1,3-3Z" fill="#fcd770"/>
        <path id="Path_943530" data-name="Path 943530" d="M24.12,10.88A3,3,0,0,1,22,16H19V13a3,3,0,0,1,5.12-2.12Z" fill="#fcd770"/>
        <path id="Path_943531" data-name="Path 943531" d="M38,28h6.34a6,6,0,1,0,.01-4.03l-6.33.02,2.69-1.67c.04-.1.07-.2.12-.3l-1.44-2.38L41.03,18l2.61-2.61,2.38,1.44c.1-.05.2-.08.3-.12L47,14h6l.68,2.71c.1.04.2.07.3.12l2.38-1.44,2.63,2.63,1.62,1.62-1.44,2.38c.05.1.08.2.12.3L62,23v6l-2.71.68c-.04.1-.07.2-.12.3l1.44,2.38-4.25,4.25-2.38-1.44c-.1.05-.2.08-.3.12L53,38H47l-.68-2.71c-.1-.04-.2-.07-.3-.12l-2.38,1.44-4.25-4.25,1.44-2.38c-.05-.1-.08-.2-.12-.3Z" fill="#ffc729"/>
        <path id="Path_943532" data-name="Path 943532" d="M63,22.219l-2.416-.6,1.281-2.134L60,17.616V1H32V17H29.644A13.211,13.211,0,0,0,30,14,13,13,0,1,0,4.422,17.274,5.019,5.019,0,0,0,1,22V46a5.006,5.006,0,0,0,5,5H19v2H15.236a2.986,2.986,0,0,0-2.684,1.658L11,57.764V63H39V57.764l-1.553-3.1A2.984,2.984,0,0,0,34.764,53H31V51H44a5.006,5.006,0,0,0,5-5V39h4.781l.6-2.415,2.136,1.28,5.346-5.347-1.28-2.135,2.414-.6ZM34,3H58V15.615l-1.48-1.481-2.136,1.281L53.781,13H46.219l-.6,2.416L43.48,14.135,40.616,17H34Zm4.616,16-.481.481,1.426,2.376-1.825,1.13L32,23l0,2,13.053-.028.237-.661a5,5,0,1,1-.007,3.356L45.049,27H35a3,3,0,0,0-3,3v6a1,1,0,0,1-2,0V34a3,3,0,0,0-6,0v2a1,1,0,0,1-1,1H19a1,1,0,0,1-1-1V34.91A6,6,0,0,0,23,29V26.414l3.192-3.192A12.988,12.988,0,0,0,29.018,19ZM13,27h8v2a4,4,0,0,1-8,0Zm1-12H12a2,2,0,1,1,2-2Zm4,10H16V17h2ZM17,3a11.02,11.02,0,0,1,7.778,18.807L21.586,25H20V17h2a4,4,0,1,0-4-4v2H16V13a4,4,0,1,0-4,4h2v8H12.414L9.222,21.808A11.021,11.021,0,0,1,17,3Zm3,12V13a2,2,0,1,1,2,2ZM15.236,55H19v2H13.618l.724-1.447A.993.993,0,0,1,15.236,55ZM13,61V59H37v2Zm21.764-6a.994.994,0,0,1,.9.553L36.382,57H31V55ZM29,57H21V51h8Zm15-8H6a3,3,0,0,1-3-3V43H15v1a3,3,0,0,0,3,3H32a3,3,0,0,0,3-3V43H47v3A3,3,0,0,1,44,49ZM33,43v1a1,1,0,0,1-1,1H29V43Zm-6,2H23V43h4Zm-6,0H18a1,1,0,0,1-1-1V43h4Zm26-4H3V22a3.012,3.012,0,0,1,2.057-2.837,13,13,0,0,0,2.75,4.059L11,26.414V29a6.006,6.006,0,0,0,5,5.91V36a3,3,0,0,0,3,3h4a3,3,0,0,0,3-3V34a1,1,0,0,1,2,0v2a3,3,0,0,0,6,0V30a1,1,0,0,1,1-1h2.716l1.845,1.142-1.426,2.376,5.346,5.347,2.136-1.28.6,2.415H47ZM61,28.219l-1.949.487-.534.2-.465,1.142,1.3,2.16-3.139,3.139-2.159-1.3-1.219.5L52.219,37H47.781l-.486-1.949-.2-.534-1.143-.465-2.159,1.3-3.139-3.139,1.3-2.16L41.517,29l0,0h2.159a7,7,0,1,0,.011-6.025l-2.21,0,.075-.06.4-.97-1.3-2.158,3.139-3.138,2.159,1.3,1.22-.5L47.781,15h4.438l.611,2.446,1.22.5,2.159-1.3,3.139,3.138-1.3,2.158.5,1.22L61,23.781Z"/>
        <path id="Path_943533" data-name="Path 943533" d="M28,23h2v2H28Z"/>
        <path id="Path_943534" data-name="Path 943534" d="M36,5h2V7H36Z"/>
        <path id="Path_943535" data-name="Path 943535" d="M40,5H56V7H40Z"/>
        <path id="Path_943536" data-name="Path 943536" d="M36,9H56v2H36Z"/>
        <path id="Path_943537" data-name="Path 943537" d="M36,13h2v2H36Z"/>
        <path id="Path_943538" data-name="Path 943538" d="M40,13h2v2H40Z"/>
        <path id="Path_943539" data-name="Path 943539" d="M5,33H7v2H5Z"/>
        <path id="Path_943540" data-name="Path 943540" d="M5,37H7v2H5Z"/>
        <path id="Path_943541" data-name="Path 943541" d="M5,29H7v2H5Z"/>
      </g>
    </g>
  </g>
</svg>
