<svg xmlns="http://www.w3.org/2000/svg" width="662" height="300.258" viewBox="0 0 662 300.258">
  <g id="Group_1172535" data-name="Group 1172535" transform="translate(-705.422 -1178)">
    <rect id="Rectangle_448922" data-name="Rectangle 448922" width="662" height="300" transform="translate(705.422 1178)" fill="#bcc3de"/>
    <g id="_39879138_8767131" data-name="39879138_8767131" transform="translate(842.921 1122.631)">
      <g id="OBJECTS" transform="translate(9.5 61.369)">
        <g id="Group_1172538" data-name="Group 1172538" transform="translate(16.241 192.024)">
          <ellipse id="Ellipse_13668" data-name="Ellipse 13668" cx="163.836" cy="32.115" rx="163.836" ry="32.115" transform="translate(0)" fill="#c7c7c7"/>
        </g>
        <g id="Group_1172542" data-name="Group 1172542" transform="translate(288.786 92.528)">
          <g id="Group_1172540" data-name="Group 1172540">
            <g id="Group_1172539" data-name="Group 1172539">
              <path id="Path_947439" data-name="Path 947439" d="M415.927,261.935c-14.182,11.25-33.838-6.143-29.137-20.375,2.43-7.357,8.195-13.207,9.352-20.986,1.195-8.033,4.994-11.428,11.2-16.28,2.434-1.9,3.409-5.4,4.541-8.258,2.138-5.389,5.333-9.925,10.472-12.816,6.334-3.564,18.8,1.243,20.353,9.228,1.885,9.691-10.69,14.278-14.806,20.5-3.533,5.342-.2,12.377-5.377,18.166C414.746,239.811,427.08,253.646,415.927,261.935Z" transform="translate(-386.08 -182.026)" fill="#88c8fc"/>
            </g>
          </g>
          <g id="Group_1172541" data-name="Group 1172541" transform="translate(13.987 18.676)">
            <path id="Path_947440" data-name="Path 947440" d="M405.328,284.034a.575.575,0,0,1-.572-.524,107.585,107.585,0,0,1,23.121-76.917.575.575,0,0,1,.894.725,106.418,106.418,0,0,0-22.87,76.089.576.576,0,0,1-.521.624Z" transform="translate(-404.32 -206.38)" fill="#29275f"/>
          </g>
        </g>
        <g id="Group_1172545" data-name="Group 1172545" transform="translate(276.508 139.841)">
          <g id="Group_1172543" data-name="Group 1172543" transform="translate(1.014)">
            <path id="Path_947441" data-name="Path 947441" d="M405.682,258.128c-3.827,5.413-6.84,11.479-13.33,12.67-9.8,1.8-21.535,11.146-20.937,23.356-.171,24.859,37.748,24.353,40.677,5.889,1.382-8.728,3.6-12.534,12.518-13.814,5.342-.764,6.958-5.264,8.462-9.876a11.735,11.735,0,0,1,5.784-4.621c3.395-1.237,7.226-.7,10.859-.809,3.2-.1,6.407-.756,8.785-2.871a12.891,12.891,0,0,0,4.138-8.071,14.062,14.062,0,0,0-2.262-9.34,15.866,15.866,0,0,0-7.26-5.958,12.545,12.545,0,0,0-9.572-.021c-3.483,1.434-6.187,4.036-8.888,6.572-.018.02-.039.035-.057.054a14.2,14.2,0,0,1-13.344,3.22C415.394,253.046,409.812,252.294,405.682,258.128Z" transform="translate(-371.392 -243.723)" fill="#508dd2"/>
          </g>
          <g id="Group_1172544" data-name="Group 1172544" transform="translate(0 15.153)">
            <path id="Path_947442" data-name="Path 947442" d="M370.644,321.308a.575.575,0,0,1-.494-.868,128.661,128.661,0,0,1,71.227-56.929.575.575,0,0,1,.352,1.094,127.518,127.518,0,0,0-70.59,56.421A.573.573,0,0,1,370.644,321.308Z" transform="translate(-370.07 -263.483)" fill="#29275f"/>
          </g>
        </g>
        <g id="Group_1172549" data-name="Group 1172549" transform="translate(20.87 102.811)">
          <g id="Group_1172547" data-name="Group 1172547">
            <g id="Group_1172546" data-name="Group 1172546">
              <path id="Path_947443" data-name="Path 947443" d="M63.687,275.345c14.182,11.25,33.838-6.143,29.137-20.375-2.43-7.357-8.2-13.207-9.352-20.986-1.195-8.033-4.994-11.428-11.2-16.281-2.434-1.9-3.408-5.4-4.541-8.258-2.138-5.389-5.333-9.925-10.472-12.816-6.334-3.564-18.8,1.242-20.353,9.228-1.885,9.691,10.69,14.278,14.806,20.5,3.533,5.342.2,12.377,5.377,18.166C64.869,253.222,52.535,267.057,63.687,275.345Z" transform="translate(-36.715 -195.435)" fill="#508dd2"/>
            </g>
          </g>
          <g id="Group_1172548" data-name="Group 1172548" transform="translate(18.253 18.676)">
            <path id="Path_947444" data-name="Path 947444" d="M84.088,297.444l-.053,0a.575.575,0,0,1-.521-.625,106.42,106.42,0,0,0-22.87-76.089.575.575,0,0,1,.893-.725A107.582,107.582,0,0,1,84.66,296.92.575.575,0,0,1,84.088,297.444Z" transform="translate(-60.517 -219.789)" fill="#29275f"/>
          </g>
        </g>
        <g id="Group_1172552" data-name="Group 1172552" transform="translate(0 146.835)">
          <g id="Group_1172550" data-name="Group 1172550">
            <path id="Path_947445" data-name="Path 947445" d="M66.55,267.246c3.827,5.413,6.84,11.479,13.33,12.67,9.8,1.8,21.535,11.147,20.937,23.356.171,24.86-37.749,24.353-40.677,5.889-1.382-8.727-3.6-12.534-12.518-13.814-5.342-.764-6.958-5.264-8.462-9.876a11.735,11.735,0,0,0-5.784-4.621c-3.4-1.237-7.227-.7-10.859-.809-3.2-.1-6.407-.756-8.785-2.871A12.891,12.891,0,0,1,9.6,269.1a14.063,14.063,0,0,1,2.262-9.34,15.866,15.866,0,0,1,7.26-5.958,12.545,12.545,0,0,1,9.572-.021c3.483,1.434,6.187,4.036,8.888,6.572.018.02.039.035.057.054a14.2,14.2,0,0,0,13.344,3.22C56.838,262.164,62.42,261.413,66.55,267.246Z" transform="translate(-9.5 -252.842)" fill="#88c8fc"/>
          </g>
          <g id="Group_1172551" data-name="Group 1172551" transform="translate(20.295 15.152)">
            <path id="Path_947446" data-name="Path 947446" d="M107.449,330.426a.574.574,0,0,1-.495-.281,127.516,127.516,0,0,0-70.589-56.421.575.575,0,0,1,.352-1.094,128.658,128.658,0,0,1,71.227,56.929.575.575,0,0,1-.495.868Z" transform="translate(-35.966 -272.601)" fill="#29275f"/>
          </g>
        </g>
        <g id="Group_1172585" data-name="Group 1172585" transform="translate(32.272 39.086)">
          <g id="Group_1172553" data-name="Group 1172553" transform="translate(0.576 197.444)">
            <path id="Path_947447" data-name="Path 947447" d="M347.422,378.108H58.177a5.843,5.843,0,0,1-5.843-5.844V369.8H353.266v2.459A5.844,5.844,0,0,1,347.422,378.108Z" transform="translate(-52.334 -369.805)" fill="#29275f"/>
          </g>
          <g id="Group_1172554" data-name="Group 1172554" transform="translate(0.576 151.628)">
            <path id="Path_947448" data-name="Path 947448" d="M321.87,310.061H83.729L52.334,355.877H353.266Z" transform="translate(-52.334 -310.061)" fill="#fff"/>
          </g>
          <g id="Group_1172555" data-name="Group 1172555" transform="translate(32.091 0.575)">
            <path id="Path_947449" data-name="Path 947449" d="M327.352,113.087H97.409a3.979,3.979,0,0,0-3.979,3.979V264.14h237.9V117.066A3.979,3.979,0,0,0,327.352,113.087Z" transform="translate(-93.43 -113.087)" fill="#29275f"/>
          </g>
          <g id="Group_1172556" data-name="Group 1172556" transform="translate(39.372 13.095)">
            <rect id="Rectangle_448908" data-name="Rectangle 448908" width="223.34" height="126.815" fill="#67a4e9"/>
          </g>
          <g id="Group_1172557" data-name="Group 1172557" transform="translate(0 196.869)">
            <path id="Path_947450" data-name="Path 947450" d="M347.248,378.508H58a6.426,6.426,0,0,1-6.419-6.419v-2.459a.575.575,0,0,1,.575-.575H353.09a.575.575,0,0,1,.575.575v2.459A6.424,6.424,0,0,1,347.248,378.508Zm-294.514-8.3v1.883A5.274,5.274,0,0,0,58,377.358H347.248a5.274,5.274,0,0,0,5.268-5.268v-1.883Z" transform="translate(-51.583 -369.056)" fill="#29275f"/>
          </g>
          <g id="Group_1172558" data-name="Group 1172558" transform="translate(0 151.054)">
            <path id="Path_947451" data-name="Path 947451" d="M353.091,356.278H52.159a.575.575,0,0,1-.475-.9l31.395-45.816a.575.575,0,0,1,.475-.25H321.7a.576.576,0,0,1,.475.25l31.395,45.816a.575.575,0,0,1-.474.9Zm-299.84-1.15H352l-30.607-44.666H83.857Z" transform="translate(-51.584 -309.312)" fill="#29275f"/>
          </g>
          <g id="Group_1172559" data-name="Group 1172559" transform="translate(31.516)">
            <path id="Path_947452" data-name="Path 947452" d="M331.156,264.54H93.255a.575.575,0,0,1-.575-.575V116.891a4.559,4.559,0,0,1,4.554-4.554H327.177a4.56,4.56,0,0,1,4.555,4.554V263.965A.576.576,0,0,1,331.156,264.54ZM93.83,263.39H330.581v-146.5a3.408,3.408,0,0,0-3.4-3.4H97.234a3.408,3.408,0,0,0-3.4,3.4Z" transform="translate(-92.68 -112.337)" fill="#29275f"/>
          </g>
          <g id="Group_1172560" data-name="Group 1172560" transform="translate(38.797 12.52)">
            <path id="Path_947453" data-name="Path 947453" d="M326.089,256.628H102.749a.575.575,0,0,1-.575-.575V129.238a.575.575,0,0,1,.575-.575h223.34a.575.575,0,0,1,.575.575V256.053A.575.575,0,0,1,326.089,256.628Zm-222.765-1.15h222.19V129.813H103.324Z" transform="translate(-102.174 -128.663)" fill="#29275f"/>
          </g>
          <g id="Group_1172561" data-name="Group 1172561" transform="translate(89.855 145.16)">
            <rect id="Rectangle_448909" data-name="Rectangle 448909" width="122.373" height="5.559" transform="translate(0 0)" fill="#fff"/>
          </g>
          <g id="Group_1172562" data-name="Group 1172562" transform="translate(133.169 2.948)">
            <path id="Path_947454" data-name="Path 947454" d="M232.734,119.929a3.748,3.748,0,1,1-3.748-3.748A3.749,3.749,0,0,1,232.734,119.929Z" transform="translate(-225.237 -116.181)" fill="#67a4e9"/>
          </g>
          <g id="Group_1172563" data-name="Group 1172563" transform="translate(107.314 180.026)">
            <path id="Path_947455" data-name="Path 947455" d="M278.4,361.381H192.1a.575.575,0,0,1-.475-.9l9-13.139a.575.575,0,0,1,.475-.25h68.3a.576.576,0,0,1,.475.25l9,13.139a.575.575,0,0,1-.475.9Zm-85.211-1.15H277.31l-8.215-11.989H201.4Z" transform="translate(-191.522 -347.092)" fill="#29275f"/>
          </g>
          <g id="Group_1172573" data-name="Group 1172573" transform="translate(46.693 155.488)">
            <g id="Group_1172572" data-name="Group 1172572">
              <g id="Group_1172564" data-name="Group 1172564" transform="translate(0 0.002)">
                <path id="Path_947456" data-name="Path 947456" d="M128.961,323.516H113.045a.575.575,0,0,1-.5-.857l4.084-7.269a.576.576,0,0,1,.5-.294H132.42a.576.576,0,0,1,.519.823l-3.459,7.269A.574.574,0,0,1,128.961,323.516Zm-14.932-1.15H128.6l2.912-6.119H117.466Z" transform="translate(-112.471 -315.097)" fill="#29275f"/>
              </g>
              <g id="Group_1172565" data-name="Group 1172565" transform="translate(27.478 0.002)">
                <path id="Path_947457" data-name="Path 947457" d="M164.794,323.516H148.878a.575.575,0,0,1-.532-.794l3.006-7.269a.575.575,0,0,1,.531-.356h15.291a.575.575,0,0,1,.546.755l-2.382,7.269A.571.571,0,0,1,164.794,323.516Zm-15.055-1.15h14.639l2-6.119H152.269Z" transform="translate(-148.303 -315.097)" fill="#29275f"/>
              </g>
              <g id="Group_1172566" data-name="Group 1172566" transform="translate(54.958 0.001)">
                <path id="Path_947458" data-name="Path 947458" d="M200.627,323.516H184.711a.576.576,0,0,1-.556-.722l1.929-7.27a.575.575,0,0,1,.556-.428h15.291a.576.576,0,0,1,.566.677l-1.3,7.269A.574.574,0,0,1,200.627,323.516Zm-15.167-1.15h14.686l1.1-6.119H187.083Z" transform="translate(-184.136 -315.096)" fill="#29275f"/>
              </g>
              <g id="Group_1172567" data-name="Group 1172567" transform="translate(82.436 0.001)">
                <path id="Path_947459" data-name="Path 947459" d="M236.459,323.516H220.544a.576.576,0,0,1-.572-.643l.851-7.269a.575.575,0,0,1,.571-.508h15.291a.575.575,0,0,1,.575.593l-.227,7.269A.573.573,0,0,1,236.459,323.516Zm-15.269-1.15H235.9l.191-6.119H221.907Z" transform="translate(-219.968 -315.096)" fill="#29275f"/>
              </g>
              <g id="Group_1172568" data-name="Group 1172568" transform="translate(109.689 0.001)">
                <path id="Path_947460" data-name="Path 947460" d="M272.224,323.516H256.308a.576.576,0,0,1-.575-.557l-.227-7.269a.576.576,0,0,1,.575-.594h15.291a.575.575,0,0,1,.571.508l.85,7.27a.575.575,0,0,1-.571.642Zm-15.358-1.15h14.712l-.716-6.119H256.675Z" transform="translate(-255.506 -315.096)" fill="#29275f"/>
              </g>
              <g id="Group_1172569" data-name="Group 1172569" transform="translate(136.091 0.001)">
                <path id="Path_947461" data-name="Path 947461" d="M307.729,323.516H291.814a.575.575,0,0,1-.566-.474l-1.3-7.269a.576.576,0,0,1,.566-.677H305.8a.575.575,0,0,1,.556.428l1.929,7.27a.575.575,0,0,1-.556.722Zm-15.434-1.15h14.686l-1.623-6.119H291.2Z" transform="translate(-289.934 -315.096)" fill="#29275f"/>
              </g>
              <g id="Group_1172570" data-name="Group 1172570" transform="translate(162.493 0.001)">
                <path id="Path_947462" data-name="Path 947462" d="M343.236,323.516H327.32a.576.576,0,0,1-.547-.4l-2.382-7.269a.576.576,0,0,1,.547-.755h15.29a.575.575,0,0,1,.531.356l3.006,7.269a.576.576,0,0,1-.531.8Zm-15.5-1.15h14.638l-2.53-6.119H325.732Z" transform="translate(-324.363 -315.096)" fill="#29275f"/>
              </g>
              <g id="Group_1172571" data-name="Group 1172571" transform="translate(188.894)">
                <path id="Path_947463" data-name="Path 947463" d="M378.74,323.516H362.824a.575.575,0,0,1-.52-.329l-3.459-7.269a.576.576,0,0,1,.52-.823h15.291a.573.573,0,0,1,.5.294l4.084,7.269a.577.577,0,0,1-.5.858Zm-15.552-1.15h14.57l-3.437-6.119H360.277Z" transform="translate(-358.79 -315.095)" fill="#29275f"/>
              </g>
            </g>
          </g>
          <g id="Group_1172584" data-name="Group 1172584" transform="translate(29.47 165.686)">
            <g id="Group_1172583" data-name="Group 1172583">
              <g id="Group_1172574" data-name="Group 1172574" transform="translate(0 0.002)">
                <path id="Path_947464" data-name="Path 947464" d="M106.5,336.814H90.586a.575.575,0,0,1-.5-.857l4.084-7.269a.576.576,0,0,1,.5-.294h15.291a.576.576,0,0,1,.519.823l-3.459,7.27A.579.579,0,0,1,106.5,336.814Zm-14.932-1.15h14.569l2.912-6.119H95.007Z" transform="translate(-90.012 -328.395)" fill="#29275f"/>
              </g>
              <g id="Group_1172575" data-name="Group 1172575" transform="translate(27.479 0.001)">
                <path id="Path_947465" data-name="Path 947465" d="M142.335,336.814H126.42a.575.575,0,0,1-.532-.794l3.005-7.27a.575.575,0,0,1,.531-.356h15.291a.574.574,0,0,1,.546.754l-2.382,7.269A.571.571,0,0,1,142.335,336.814Zm-15.055-1.15h14.638l2-6.119H129.81Z" transform="translate(-125.845 -328.394)" fill="#29275f"/>
              </g>
              <g id="Group_1172576" data-name="Group 1172576" transform="translate(54.958 0.002)">
                <path id="Path_947466" data-name="Path 947466" d="M178.168,336.814H162.252a.576.576,0,0,1-.556-.722l1.929-7.269a.575.575,0,0,1,.556-.428h15.291a.574.574,0,0,1,.566.676l-1.3,7.269A.573.573,0,0,1,178.168,336.814ZM163,335.664h14.686l1.1-6.119H164.624Z" transform="translate(-161.677 -328.395)" fill="#29275f"/>
              </g>
              <g id="Group_1172577" data-name="Group 1172577" transform="translate(82.436 0.002)">
                <path id="Path_947467" data-name="Path 947467" d="M214,336.814H198.085a.576.576,0,0,1-.572-.642l.85-7.269a.575.575,0,0,1,.571-.508h15.291a.574.574,0,0,1,.575.593l-.226,7.27A.573.573,0,0,1,214,336.814Zm-15.269-1.15h14.712l.191-6.119H199.448Z" transform="translate(-197.509 -328.395)" fill="#29275f"/>
              </g>
              <g id="Group_1172578" data-name="Group 1172578" transform="translate(109.69 0.001)">
                <path id="Path_947468" data-name="Path 947468" d="M249.764,336.814H233.849a.576.576,0,0,1-.575-.557l-.226-7.27a.574.574,0,0,1,.575-.593h15.291a.575.575,0,0,1,.571.508l.85,7.269a.576.576,0,0,1-.571.643Zm-15.357-1.15h14.712l-.716-6.119H234.216Z" transform="translate(-233.048 -328.394)" fill="#29275f"/>
              </g>
              <g id="Group_1172579" data-name="Group 1172579" transform="translate(136.092 0.002)">
                <path id="Path_947469" data-name="Path 947469" d="M285.27,336.814H269.356a.576.576,0,0,1-.566-.474l-1.3-7.269a.574.574,0,0,1,.566-.676h15.291a.575.575,0,0,1,.556.428l1.928,7.27a.573.573,0,0,1-.1.5A.579.579,0,0,1,285.27,336.814Zm-15.435-1.15h14.686l-1.623-6.119H268.738Z" transform="translate(-267.476 -328.395)" fill="#29275f"/>
              </g>
              <g id="Group_1172580" data-name="Group 1172580" transform="translate(162.493 0.002)">
                <path id="Path_947470" data-name="Path 947470" d="M320.775,336.814H304.861a.576.576,0,0,1-.547-.4l-2.383-7.269a.574.574,0,0,1,.546-.754h15.291a.575.575,0,0,1,.531.356l3.005,7.27a.574.574,0,0,1-.531.794Zm-15.5-1.15h14.638l-2.53-6.119H303.272Z" transform="translate(-301.903 -328.395)" fill="#29275f"/>
              </g>
              <g id="Group_1172581" data-name="Group 1172581" transform="translate(188.893)">
                <path id="Path_947471" data-name="Path 947471" d="M356.28,336.814H340.365a.577.577,0,0,1-.52-.328l-3.46-7.27a.576.576,0,0,1,.52-.823H352.2a.575.575,0,0,1,.5.294l4.083,7.269a.577.577,0,0,1-.005.572A.569.569,0,0,1,356.28,336.814Zm-15.551-1.15H355.3l-3.437-6.119H337.816Z" transform="translate(-336.33 -328.393)" fill="#29275f"/>
              </g>
              <g id="Group_1172582" data-name="Group 1172582" transform="translate(215.804)">
                <path id="Path_947472" data-name="Path 947472" d="M391.372,336.814H375.457a.578.578,0,0,1-.52-.328l-3.46-7.27a.576.576,0,0,1,.52-.823h15.291a.575.575,0,0,1,.5.294l4.084,7.269a.577.577,0,0,1-.5.858Zm-15.551-1.15H390.39l-3.437-6.119H372.908Z" transform="translate(-371.422 -328.393)" fill="#29275f"/>
              </g>
            </g>
          </g>
        </g>
        <g id="Group_1172611" data-name="Group 1172611" transform="translate(117.209 13.061)">
          <g id="Group_1172592" data-name="Group 1172592" transform="translate(0 2.9)">
            <g id="Group_1172586" data-name="Group 1172586" transform="translate(0.575 0.575)">
              <path id="Path_947473" data-name="Path 947473" d="M294.15,96.239V219.746a13.31,13.31,0,0,1-13.308,13.308H176.4a13.31,13.31,0,0,1-13.308-13.308V96.239A13.31,13.31,0,0,1,176.4,82.931H280.841A13.31,13.31,0,0,1,294.15,96.239Z" transform="translate(-163.092 -82.931)" fill="#fff"/>
            </g>
            <g id="Group_1172587" data-name="Group 1172587" transform="translate(84.444 4.766)">
              <path id="Path_947474" data-name="Path 947474" d="M279.04,91.687a3.291,3.291,0,1,1-3.291-3.291A3.292,3.292,0,0,1,279.04,91.687Z" transform="translate(-272.457 -88.396)" fill="#88c8fc"/>
            </g>
            <g id="Group_1172588" data-name="Group 1172588" transform="translate(98.906 4.766)">
              <path id="Path_947475" data-name="Path 947475" d="M297.9,91.687a3.291,3.291,0,1,1-3.291-3.291A3.292,3.292,0,0,1,297.9,91.687Z" transform="translate(-291.316 -88.396)" fill="#508dd2"/>
            </g>
            <g id="Group_1172589" data-name="Group 1172589" transform="translate(113.368 4.766)">
              <path id="Path_947476" data-name="Path 947476" d="M316.758,91.687a3.291,3.291,0,1,1-3.291-3.291A3.292,3.292,0,0,1,316.758,91.687Z" transform="translate(-310.175 -88.396)" fill="#29275f"/>
            </g>
            <g id="Group_1172590" data-name="Group 1172590" transform="translate(0.001)">
              <path id="Path_947477" data-name="Path 947477" d="M280.667,233.455H176.226a13.9,13.9,0,0,1-13.883-13.884V96.064a13.9,13.9,0,0,1,13.883-13.883H280.667a13.9,13.9,0,0,1,13.883,13.883V219.571A13.9,13.9,0,0,1,280.667,233.455ZM176.226,83.331a12.747,12.747,0,0,0-12.733,12.733V219.571a12.749,12.749,0,0,0,12.733,12.734H280.667A12.748,12.748,0,0,0,293.4,219.571V96.064a12.748,12.748,0,0,0-12.733-12.733Z" transform="translate(-162.343 -82.181)" fill="#29275f"/>
            </g>
            <g id="Group_1172591" data-name="Group 1172591" transform="translate(0 13.308)">
              <path id="Path_947478" data-name="Path 947478" d="M293.975,100.685H162.917a.575.575,0,0,1,0-1.15H293.975a.575.575,0,0,1,0,1.15Z" transform="translate(-162.342 -99.535)" fill="#29275f"/>
            </g>
          </g>
          <g id="Group_1172593" data-name="Group 1172593" transform="translate(17.286)">
            <path id="Path_947479" data-name="Path 947479" d="M213.351,111.966l-14.235-6.028-14.234,6.028V78.4h28.468Z" transform="translate(-184.883 -78.4)" fill="#508dd2"/>
          </g>
          <g id="Group_1172610" data-name="Group 1172610" transform="translate(10.335 26.6)">
            <g id="Group_1172595" data-name="Group 1172595" transform="translate(0 14.854)">
              <g id="Group_1172594" data-name="Group 1172594">
                <rect id="Rectangle_448910" data-name="Rectangle 448910" width="33.017" height="35.659" fill="#88c8fc"/>
              </g>
            </g>
            <g id="Group_1172607" data-name="Group 1172607" transform="translate(0 14.854)">
              <g id="Group_1172596" data-name="Group 1172596" transform="translate(37.575)">
                <rect id="Rectangle_448911" data-name="Rectangle 448911" width="73.964" height="3.03" fill="#c7c7c7"/>
              </g>
              <g id="Group_1172597" data-name="Group 1172597" transform="translate(37.575 8.113)">
                <rect id="Rectangle_448912" data-name="Rectangle 448912" width="73.964" height="3.03" fill="#c7c7c7"/>
              </g>
              <g id="Group_1172598" data-name="Group 1172598" transform="translate(37.575 16.225)">
                <rect id="Rectangle_448913" data-name="Rectangle 448913" width="73.964" height="3.03" fill="#c7c7c7"/>
              </g>
              <g id="Group_1172599" data-name="Group 1172599" transform="translate(37.575 24.337)">
                <rect id="Rectangle_448914" data-name="Rectangle 448914" width="73.964" height="3.03" fill="#c7c7c7"/>
              </g>
              <g id="Group_1172600" data-name="Group 1172600" transform="translate(37.575 32.449)">
                <rect id="Rectangle_448915" data-name="Rectangle 448915" width="42.746" height="3.03" fill="#c7c7c7"/>
              </g>
              <g id="Group_1172606" data-name="Group 1172606" transform="translate(0 48.201)">
                <g id="Group_1172601" data-name="Group 1172601">
                  <rect id="Rectangle_448916" data-name="Rectangle 448916" width="111.538" height="3.03" fill="#c7c7c7"/>
                </g>
                <g id="Group_1172602" data-name="Group 1172602" transform="translate(0 8.112)">
                  <rect id="Rectangle_448917" data-name="Rectangle 448917" width="111.538" height="3.03" fill="#c7c7c7"/>
                </g>
                <g id="Group_1172603" data-name="Group 1172603" transform="translate(0 16.225)">
                  <rect id="Rectangle_448918" data-name="Rectangle 448918" width="111.538" height="3.03" fill="#c7c7c7"/>
                </g>
                <g id="Group_1172604" data-name="Group 1172604" transform="translate(0 24.337)">
                  <rect id="Rectangle_448919" data-name="Rectangle 448919" width="111.538" height="3.03" fill="#c7c7c7"/>
                </g>
                <g id="Group_1172605" data-name="Group 1172605" transform="translate(0 32.449)">
                  <rect id="Rectangle_448920" data-name="Rectangle 448920" width="80.321" height="3.03" fill="#c7c7c7"/>
                </g>
              </g>
            </g>
            <g id="Group_1172608" data-name="Group 1172608" transform="translate(59.728)">
              <rect id="Rectangle_448921" data-name="Rectangle 448921" width="51.354" height="8.468" fill="#88c8fc"/>
            </g>
            <g id="Group_1172609" data-name="Group 1172609" transform="translate(46.622 112.53)">
              <path id="Path_947480" data-name="Path 947480" d="M248.94,266.582a.573.573,0,0,1-.248-.056l-11.75-5.6a.575.575,0,0,1,.495-1.038l11.5,5.485,11.5-5.485a.575.575,0,0,1,.5,1.038l-11.751,5.6A.576.576,0,0,1,248.94,266.582Z" transform="translate(-236.614 -259.826)" fill="#29275f"/>
            </g>
          </g>
        </g>
        <g id="Group_1172629" data-name="Group 1172629" transform="translate(192.174 70.224)">
          <g id="Group_1172612" data-name="Group 1172612" transform="translate(14.952 30.892)">
            <path id="Path_947481" data-name="Path 947481" d="M420.578,385.791H352.4l-18.449-69.543s-18.757-19.812-27.678-33.99-12.385-18.9-13.152-23.526c-.677-4.142-5.545-34.2-6.581-40.6a2.2,2.2,0,0,1,.577-1.892,1.38,1.38,0,0,1,.278-.258c2.15-1.623,7.387-3.783,13.341,6.492,6.86,11.837,7.855,26.781,8,30.256l2.429,4.1,6.64,11.2,8.3,14a28.177,28.177,0,0,0,14.874-8.821l-8.294-14-6.64-11.2-2.608-4.41-.03-.04-17.841-25.1s-8.781-3.8-17.433-7.885-11.419-18.269-5.117-17.3c2.39.368,7.666,2.3,13.291,4.56,9.159,3.664,19.225,8.174,19.225,8.174,3.942-3.594,10.653-1.523,10.653-1.523s4.709-2.489,9.418-1.8,26.224,20.967,29.609,27.678,11.35,69.841,11.35,69.841Z" transform="translate(-279.594 -193.226)" fill="#fff"/>
          </g>
          <g id="Group_1172613" data-name="Group 1172613" transform="translate(14.967 30.712)">
            <path id="Path_947482" data-name="Path 947482" d="M292.059,198.389a8.443,8.443,0,0,1-1.127,3.409,2.823,2.823,0,0,1-3.454,1.054l-6.1-2.508a2.855,2.855,0,0,1-1.745-2.963,7.311,7.311,0,0,1,1.036-3.145,2.809,2.809,0,0,1,3.291-1.081l6.218,2.173A2.854,2.854,0,0,1,292.059,198.389Z" transform="translate(-279.614 -192.99)" fill="#afd4ef"/>
          </g>
          <g id="Group_1172614" data-name="Group 1172614" transform="translate(21.983 54.086)">
            <path id="Path_947483" data-name="Path 947483" d="M296.739,234.2c-1.623,1.324-4.152,1.4-5.491,1.339a1.117,1.117,0,0,1-1.048-.937l-1.426-8.807a1.14,1.14,0,0,1,.426-1.071,6.789,6.789,0,0,1,4.774-1.213,1.122,1.122,0,0,1,.914.63c1.1,2.356,1.977,7.327,2.253,9.012A1.127,1.127,0,0,1,296.739,234.2Z" transform="translate(-288.762 -223.471)" fill="#afd4ef"/>
          </g>
          <g id="Group_1172615" data-name="Group 1172615" transform="translate(4.616 14.763)">
            <path id="Path_947484" data-name="Path 947484" d="M322.914,243.107a28.228,28.228,0,0,1-14.884,8.821l-2.429-4.1c-.15-3.475-1.145-18.419-8-30.256-5.954-10.274-11.19-8.114-13.341-6.492a1.383,1.383,0,0,0-.278.258l-17.861-30.156a17.207,17.207,0,0,0,2.11,2.549l.169.169a8.085,8.085,0,0,0,.906.747,3.138,3.138,0,0,0,.288.209,4.244,4.244,0,0,0,.548.318,3.426,3.426,0,0,0,.388.179c.13.05.258.1.4.14.12.03.249.06.378.08h.02a2.545,2.545,0,0,0,.388.03,2.474,2.474,0,0,0,1.255-.348c1.6-.946,1.932-2.788,1.872-4.35a.754.754,0,0,0-.01-.15,6.575,6.575,0,0,0-.07-.807c0-.05-.01-.09-.01-.13-.02-.12-.04-.229-.05-.328a.031.031,0,0,1-.01-.02,11.313,11.313,0,0,0-.279-1.225c.02.02.06.06.11.12a.891.891,0,0,1,.09.1c.04.04.08.09.12.13.15.15.338.328.558.528a2.34,2.34,0,0,0,.289.259c.12.1.238.209.368.3a.7.7,0,0,0,.1.08,4.674,4.674,0,0,0,.458.328l.12.09a8.08,8.08,0,0,0,.817.448,4.145,4.145,0,0,0,.438.189,3.854,3.854,0,0,0,.448.14,1.629,1.629,0,0,0,.438.09,2.889,2.889,0,0,0,1.2-.06,2.516,2.516,0,0,0,.358-.12,3.169,3.169,0,0,0,.368-.189,2.207,2.207,0,0,0,.767-.777,1.588,1.588,0,0,0,.13-.219v-.01a3.638,3.638,0,0,0,.179-.458.227.227,0,0,0,.03-.11,1.879,1.879,0,0,0,.1-.408,3.911,3.911,0,0,0,.06-.478.194.194,0,0,0,.01-.08,7.4,7.4,0,0,0,.01-1.055c-.01-.14-.02-.279-.03-.408a11.466,11.466,0,0,0-.189-1.324,2.951,2.951,0,0,0-.09-.428c-.04-.2-.08-.4-.13-.587s-.1-.388-.15-.568c-.229-.827-.448-1.424-.508-1.573l12.3,20.738c-5.625-2.26-10.9-4.192-13.291-4.56-6.3-.965-3.535,13.222,5.117,17.3s17.433,7.885,17.433,7.885l17.841,25.1.03.04Z" transform="translate(-266.115 -172.193)" fill="#e6ac4b"/>
          </g>
          <g id="Group_1172616" data-name="Group 1172616" transform="translate(46.531 85.677)">
            <path id="Path_947485" data-name="Path 947485" d="M342.3,275.866a28.149,28.149,0,0,1-14.884,8.821l-6.64-11.2a28.222,28.222,0,0,0,14.884-8.821Z" transform="translate(-320.773 -264.666)" fill="#c7c7c7"/>
          </g>
          <g id="Group_1172617" data-name="Group 1172617" transform="translate(53.171 96.878)">
            <path id="Path_947486" data-name="Path 947486" d="M352.609,293.269a28.185,28.185,0,0,1-14.874,8.821l-8.3-14a28.144,28.144,0,0,0,14.884-8.821Z" transform="translate(-329.431 -279.271)" fill="#fff"/>
          </g>
          <g id="Group_1172618" data-name="Group 1172618" transform="translate(1.6 3.869)">
            <path id="Path_947487" data-name="Path 947487" d="M281.059,173.768a7.409,7.409,0,0,1-.01,1.055.194.194,0,0,1-.01.08,3.906,3.906,0,0,1-.06.478c-.01.04-.02.09-.03.13a.5.5,0,0,1-.03.13.83.83,0,0,1-.04.15c-.01.04-.02.07-.03.11a3.633,3.633,0,0,1-.179.458v.01a1.588,1.588,0,0,1-.13.219,2.207,2.207,0,0,1-.767.777,3.283,3.283,0,0,1-.368.189,2.485,2.485,0,0,1-.358.12,2.888,2.888,0,0,1-1.2.06,3.8,3.8,0,0,1-.438-.09,3.853,3.853,0,0,1-.448-.14,4.145,4.145,0,0,1-.438-.189,8.167,8.167,0,0,1-.817-.448l-.12-.09a4.946,4.946,0,0,1-.458-.328.7.7,0,0,1-.1-.08c-.13-.09-.248-.2-.368-.3a3.569,3.569,0,0,1-.289-.259c-.219-.2-.408-.378-.557-.528a.768.768,0,0,0-.12-.13.9.9,0,0,0-.09-.1c-.05-.06-.09-.1-.11-.12a11.325,11.325,0,0,1,.279,1.225.031.031,0,0,0,.01.02c.01.1.03.209.05.328,0,.04.01.08.01.13a6.575,6.575,0,0,1,.07.807.754.754,0,0,1,.01.15c.06,1.563-.268,3.4-1.872,4.35a2.464,2.464,0,0,1-1.255.348,2.538,2.538,0,0,1-.388-.03h-.02c-.13-.02-.259-.05-.378-.08-.14-.04-.268-.09-.4-.14a3.308,3.308,0,0,1-.388-.179,4.428,4.428,0,0,1-.548-.318,2.95,2.95,0,0,1-.288-.209,8,8,0,0,1-.906-.747l-.169-.169a17.129,17.129,0,0,1-2.11-2.549c-.08-.13-.13-.2-.13-.2l-2.887-14.824a12.21,12.21,0,0,0,5.177-4.858l12.594,10.862a.077.077,0,0,0,.01.03c.06.15.279.747.508,1.573.05.179.1.368.15.567s.09.388.13.587a2.957,2.957,0,0,1,.09.428,11.441,11.441,0,0,1,.189,1.324C281.039,173.5,281.049,173.638,281.059,173.768Z" transform="translate(-262.183 -157.987)" fill="#fff"/>
          </g>
          <g id="Group_1172619" data-name="Group 1172619" transform="translate(0.574 0.574)">
            <path id="Path_947488" data-name="Path 947488" d="M267.047,156.986a12.205,12.205,0,0,1-5.177,4.858l-1.025-5.277,2.39-2.877Z" transform="translate(-260.845 -153.69)" fill="#29275f"/>
          </g>
          <g id="Group_1172620" data-name="Group 1172620" transform="translate(14.38 30.319)">
            <path id="Path_947489" data-name="Path 947489" d="M352.225,386.191a.575.575,0,0,1-.555-.428l-18.411-69.4c-1.5-1.6-19.135-20.445-27.646-33.971-1.551-2.465-2.938-4.644-4.173-6.586-5.945-9.344-8.406-13.212-9.059-17.153-.677-4.142-5.545-34.2-6.581-40.6a2.77,2.77,0,0,1,.73-2.381,1.823,1.823,0,0,1,.357-.327,6.8,6.8,0,0,1,5.514-1.354c3.017.61,5.931,3.309,8.662,8.022,6.711,11.581,7.876,26,8.075,30.375L326.224,281.2a27.935,27.935,0,0,0,13.886-8.232l-17.333-29.254-17.751-24.968c-1.19-.517-9.35-4.076-17.3-7.828-6.723-3.172-9.855-11.87-8.605-15.961a3.212,3.212,0,0,1,3.819-2.431c2.135.329,6.65,1.875,13.419,4.594,8.134,3.254,17.084,7.22,18.91,8.034,3.777-3.116,9.472-1.8,10.7-1.464a17.811,17.811,0,0,1,9.559-1.756c5.236.777,26.761,21.49,30.04,27.988,3.365,6.65,10.92,66.171,11.394,69.927l43.958,85.5a.575.575,0,0,1-1.023.526L375.884,300.29a.576.576,0,0,1-.059-.191c-.079-.63-7.981-63.108-11.293-69.653-3.4-6.751-24.677-26.7-29.181-27.369-4.473-.65-9.02,1.719-9.064,1.742a.577.577,0,0,1-.438.041c-.064-.02-6.448-1.928-10.1,1.4a.575.575,0,0,1-.623.1c-.1-.045-10.159-4.548-19.2-8.165-6.6-2.65-11.146-4.214-13.166-4.525a2.079,2.079,0,0,0-2.544,1.63c-1.14,3.732,1.988,11.751,8,14.585,8.544,4.031,17.328,7.839,17.416,7.877a.571.571,0,0,1,.24.194l17.841,25.1c.009.014.048.067.056.081l17.542,29.609a.575.575,0,0,1-.054.663,28.475,28.475,0,0,1-15.209,9.017.568.568,0,0,1-.6-.271l-17.373-29.3a.57.57,0,0,1-.08-.268c-.178-4.133-1.273-18.508-7.928-29.992-2.558-4.416-5.215-6.929-7.895-7.472a5.685,5.685,0,0,0-4.6,1.151.868.868,0,0,0-.179.161,1.654,1.654,0,0,0-.458,1.433c1.037,6.408,5.9,36.464,6.582,40.606.613,3.709,3.038,7.518,8.894,16.723,1.236,1.942,2.624,4.123,4.176,6.59,8.788,13.965,27.422,33.7,27.609,33.9a.582.582,0,0,1,.138.248l18.449,69.543a.574.574,0,0,1-.408.7A.705.705,0,0,1,352.225,386.191Z" transform="translate(-278.848 -192.478)" fill="#29275f"/>
          </g>
          <g id="Group_1172621" data-name="Group 1172621" transform="translate(4.039 14.19)">
            <path id="Path_947490" data-name="Path 947490" d="M314.495,263.53a.577.577,0,0,1-.5-.281l-9.07-15.3a.573.573,0,0,1-.08-.268c-.178-4.133-1.273-18.508-7.928-29.992-2.558-4.416-5.215-6.929-7.895-7.472a5.685,5.685,0,0,0-4.6,1.151.867.867,0,0,0-.179.161.576.576,0,0,1-.943-.068L265.444,181.3a.575.575,0,0,1,.97-.617,16.6,16.6,0,0,0,2.035,2.46l.176.176a7.173,7.173,0,0,0,.825.679,1.761,1.761,0,0,0,.2.15l.089.061a3.824,3.824,0,0,0,.464.271,3.06,3.06,0,0,0,.349.163c.113.044.227.088.349.123.078.019.177.043.278.06l.049,0a1.9,1.9,0,0,0,1.265-.247c1.125-.663,1.659-1.953,1.587-3.832-.006-.03-.009-.122-.011-.152a5.941,5.941,0,0,0-.062-.735.515.515,0,0,1-.008-.09c0-.023-.005-.044-.007-.064-.018-.11-.032-.192-.042-.263a.52.52,0,0,1-.013-.058h0a9.488,9.488,0,0,0-.238-1.059c-.018-.065-.03-.112-.035-.136a.575.575,0,0,1,.972-.525c.031.031.079.081.14.153a.593.593,0,0,1,.064.067,1.559,1.559,0,0,1,.154.173c.1.1.283.269.495.461a2.143,2.143,0,0,0,.262.235l.11.092a2.82,2.82,0,0,0,.226.182.554.554,0,0,1,.08.067,5.186,5.186,0,0,0,.456.327l.162.119a7.768,7.768,0,0,0,.712.385l.074.034a2.6,2.6,0,0,0,.3.13,3.515,3.515,0,0,0,.4.127,1.286,1.286,0,0,0,.34.074,2.418,2.418,0,0,0,1.013-.041,2,2,0,0,0,.289-.1,2.535,2.535,0,0,0,.3-.155,1.627,1.627,0,0,0,.563-.574,1.566,1.566,0,0,0,.085-.137c.005-.015.012-.028.017-.041a3.048,3.048,0,0,0,.151-.386c0-.013.038-.136.044-.148a1.051,1.051,0,0,1,.03-.116l.011-.064c0-.005.017-.074.018-.079l.018-.077a3.572,3.572,0,0,0,.045-.379.48.48,0,0,1,.013-.088,7.533,7.533,0,0,0,.006-.977l-.029-.4a11.01,11.01,0,0,0-.178-1.25,2.867,2.867,0,0,0-.08-.387c-.048-.232-.084-.419-.132-.6-.051-.2-.1-.386-.147-.561-.218-.786-.43-1.37-.488-1.512a.575.575,0,0,1,1.029-.507l12.3,20.738a.575.575,0,0,1-.709.827c-6.594-2.649-11.146-4.214-13.165-4.525a2.079,2.079,0,0,0-2.544,1.63c-1.14,3.732,1.988,11.751,8,14.585,8.544,4.031,17.328,7.839,17.416,7.876a.579.579,0,0,1,.24.195l17.841,25.1c.009.014.048.067.056.081l9.248,15.61a.576.576,0,0,1-.054.663,28.442,28.442,0,0,1-15.221,9.017C314.564,263.527,314.529,263.53,314.495,263.53Zm-8.5-16.047,8.784,14.82a27.9,27.9,0,0,0,13.9-8.232l-9.039-15.257-17.751-24.968c-1.19-.517-9.35-4.076-17.3-7.828-6.723-3.172-9.855-11.87-8.605-15.961a3.212,3.212,0,0,1,3.819-2.431c1.965.3,5.948,1.637,11.848,3.969l-9.374-15.814c.028.21.054.434.074.665l.031.416a7.947,7.947,0,0,1-.011,1.149.442.442,0,0,1-.014.128,4.727,4.727,0,0,1-.064.485l-.019.087a1.689,1.689,0,0,1-.052.229,1.412,1.412,0,0,1-.045.161c0,.018-.01.036-.011.04a4.3,4.3,0,0,1-.2.544.733.733,0,0,1-.03.075,2.174,2.174,0,0,1-.176.3,2.685,2.685,0,0,1-.938.936,3.767,3.767,0,0,1-.446.228,2.962,2.962,0,0,1-.44.146,3.45,3.45,0,0,1-1.426.071,2.061,2.061,0,0,1-.549-.117,3.634,3.634,0,0,1-.468-.147,3.558,3.558,0,0,1-.4-.17,8.769,8.769,0,0,1-.942-.511l-.161-.118a4.728,4.728,0,0,1-.475-.341.813.813,0,0,1-.1-.081c-.083-.06-.163-.126-.242-.193a7.435,7.435,0,0,1,.064.766,1.507,1.507,0,0,1,.012.2c.087,2.279-.657,3.962-2.155,4.846a3.042,3.042,0,0,1-1.988.4l-.053-.005c-.148-.022-.3-.056-.431-.09-.174-.049-.319-.1-.465-.16a4.064,4.064,0,0,1-.455-.209,4.709,4.709,0,0,1-.593-.347l-.047-.032,14.9,25.159a6.741,6.741,0,0,1,5.306-1.2c3.017.61,5.931,3.309,8.662,8.022C304.629,228.689,305.795,243.1,305.993,247.483Z" transform="translate(-265.363 -171.446)" fill="#29275f"/>
          </g>
          <g id="Group_1172622" data-name="Group 1172622" transform="translate(52.596 96.302)">
            <path id="Path_947491" data-name="Path 947491" d="M337.561,302.49a.575.575,0,0,1-.495-.281l-8.3-14a.575.575,0,0,1,.391-.859,27.8,27.8,0,0,0,14.548-8.626.576.576,0,0,1,.936.077l8.294,14a.575.575,0,0,1-.054.663,28.476,28.476,0,0,1-15.209,9.017A.522.522,0,0,1,337.561,302.49ZM330.155,288.3l7.687,12.96a27.932,27.932,0,0,0,13.886-8.232l-7.678-12.958A28.657,28.657,0,0,1,330.155,288.3Z" transform="translate(-328.682 -278.52)" fill="#29275f"/>
          </g>
          <g id="Group_1172623" data-name="Group 1172623">
            <path id="Path_947492" data-name="Path 947492" d="M270.308,181.689a3.157,3.157,0,0,1-.442-.031l-.053-.005c-.148-.022-.3-.056-.431-.09-.174-.049-.319-.1-.465-.16a4.064,4.064,0,0,1-.455-.209,4.705,4.705,0,0,1-.593-.347l-.083-.057a2.486,2.486,0,0,1-.271-.2,7.6,7.6,0,0,1-.915-.755l-.183-.183a17.755,17.755,0,0,1-2.179-2.632c-.078-.125-.12-.185-.124-.192a.571.571,0,0,1-.094-.221l-3.913-20.1a.576.576,0,0,1,.122-.477l2.39-2.877a.577.577,0,0,1,.4-.206.6.6,0,0,1,.423.138l16.407,14.157a.572.572,0,0,1,.18.29c.109.278.31.85.516,1.6.051.184.1.378.153.582s.094.4.136.614a3.057,3.057,0,0,1,.1.463,11.959,11.959,0,0,1,.192,1.351l.031.416s0,.008,0,.011a7.907,7.907,0,0,1-.012,1.137.439.439,0,0,1-.014.128,4.745,4.745,0,0,1-.064.485l-.019.087a1.694,1.694,0,0,1-.052.229,1.412,1.412,0,0,1-.045.161l-.011.04a4.308,4.308,0,0,1-.2.544.706.706,0,0,1-.03.074,2.166,2.166,0,0,1-.176.3,2.685,2.685,0,0,1-.938.936,3.773,3.773,0,0,1-.446.228,2.96,2.96,0,0,1-.44.146,3.45,3.45,0,0,1-1.426.071,4.273,4.273,0,0,1-.5-.1,4.631,4.631,0,0,1-.515-.162,3.561,3.561,0,0,1-.4-.17,8.766,8.766,0,0,1-.942-.511l-.161-.118a4.72,4.72,0,0,1-.475-.341.805.805,0,0,1-.1-.081c-.083-.06-.163-.126-.242-.192a7.434,7.434,0,0,1,.064.766,1.512,1.512,0,0,1,.012.2c.087,2.279-.657,3.962-2.155,4.846A3.02,3.02,0,0,1,270.308,181.689Zm-.35-1.178.049,0a1.9,1.9,0,0,0,1.265-.247c1.125-.663,1.659-1.953,1.587-3.832-.006-.03-.009-.122-.011-.152a5.942,5.942,0,0,0-.062-.735.517.517,0,0,1-.008-.09q0-.034-.007-.064c-.018-.11-.032-.192-.042-.263a.52.52,0,0,1-.013-.058h0a9.482,9.482,0,0,0-.238-1.059c-.018-.065-.03-.112-.035-.136a.575.575,0,0,1,.972-.525c.031.031.079.081.14.153a.6.6,0,0,1,.064.067,1.554,1.554,0,0,1,.154.173c.1.1.283.269.495.461a3.08,3.08,0,0,0,.262.235l.11.092a2.816,2.816,0,0,0,.226.182.56.56,0,0,1,.08.067,5.2,5.2,0,0,0,.455.327l.162.119a7.772,7.772,0,0,0,.712.385l.074.034a2.6,2.6,0,0,0,.3.13,3.516,3.516,0,0,0,.4.127,3.264,3.264,0,0,0,.382.078,2.338,2.338,0,0,0,.972-.045,2,2,0,0,0,.289-.1,2.528,2.528,0,0,0,.3-.155,1.628,1.628,0,0,0,.563-.574,1.574,1.574,0,0,0,.085-.137c.005-.015.012-.028.017-.041a3.044,3.044,0,0,0,.151-.386c0-.013.038-.136.044-.148a1.037,1.037,0,0,1,.03-.116l.011-.064c0-.005.017-.074.018-.079l.018-.077a3.573,3.573,0,0,0,.045-.379.485.485,0,0,1,.013-.088,7.733,7.733,0,0,0,.007-.972l-.03-.4a11.011,11.011,0,0,0-.178-1.25,2.877,2.877,0,0,0-.08-.387c-.048-.232-.084-.419-.132-.6-.051-.2-.1-.387-.147-.561-.185-.666-.366-1.186-.451-1.416l-15.853-13.679-1.84,2.217,3.839,19.719c.021.032.048.073.077.12a16.532,16.532,0,0,0,2.022,2.439l.176.176a7.172,7.172,0,0,0,.825.679,1.76,1.76,0,0,0,.2.15l.089.061a3.819,3.819,0,0,0,.464.271,3.058,3.058,0,0,0,.349.163c.113.044.227.088.349.123C269.756,180.47,269.856,180.494,269.957,180.511Z" transform="translate(-260.096 -152.942)" fill="#29275f"/>
          </g>
          <g id="Group_1172624" data-name="Group 1172624" transform="translate(13.209 21.114)">
            <path id="Path_947493" data-name="Path 947493" d="M282.5,190.875a.576.576,0,0,1-.516-.319l-4.6-9.249a.575.575,0,0,1,1.031-.512l4.6,9.249a.574.574,0,0,1-.259.771A.568.568,0,0,1,282.5,190.875Z" transform="translate(-277.321 -180.475)" fill="#29275f"/>
          </g>
          <g id="Group_1172625" data-name="Group 1172625" transform="translate(43.27 71.789)">
            <path id="Path_947494" data-name="Path 947494" d="M328.532,266.25a.575.575,0,0,1-.491-.273l-11.435-18.544a.575.575,0,0,1,.979-.6l11.435,18.544a.575.575,0,0,1-.488.877Z" transform="translate(-316.521 -246.556)" fill="#29275f"/>
          </g>
          <g id="Group_1172626" data-name="Group 1172626" transform="translate(50.326 43.098)">
            <path id="Path_947495" data-name="Path 947495" d="M351.744,238.984a.576.576,0,0,1-.431-.193L325.866,210.1a.576.576,0,0,1,.861-.764l25.448,28.691a.576.576,0,0,1-.431.958Z" transform="translate(-325.721 -209.142)" fill="#29275f"/>
          </g>
          <g id="Group_1172627" data-name="Group 1172627" transform="translate(60.978 41.574)">
            <path id="Path_947496" data-name="Path 947496" d="M364.078,230.033a.572.572,0,0,1-.387-.15L339.8,208.156a.575.575,0,1,1,.775-.85l23.89,21.728a.574.574,0,0,1-.387,1Z" transform="translate(-339.612 -207.155)" fill="#29275f"/>
          </g>
          <g id="Group_1172628" data-name="Group 1172628" transform="translate(68.734 150.207)">
            <path id="Path_947497" data-name="Path 947497" d="M350.3,353.1a.576.576,0,0,1-.117-1.139,90.2,90.2,0,0,0,11.163-3.106.575.575,0,1,1,.419,1.071,89.45,89.45,0,0,1-11.345,3.161A.57.57,0,0,1,350.3,353.1Z" transform="translate(-349.726 -348.813)" fill="#29275f"/>
          </g>
        </g>
        <g id="Group_1172654" data-name="Group 1172654" transform="translate(77.787 57.575)">
          <g id="Group_1172631" data-name="Group 1172631" transform="translate(0 0)">
            <g id="Group_1172630" data-name="Group 1172630">
              <circle id="Ellipse_13669" data-name="Ellipse 13669" cx="2.618" cy="2.618" r="2.618" fill="#afd4ef"/>
            </g>
          </g>
          <g id="Group_1172633" data-name="Group 1172633" transform="translate(12.647)">
            <g id="Group_1172632" data-name="Group 1172632">
              <path id="Path_947498" data-name="Path 947498" d="M130.045,141.683a2.618,2.618,0,1,1,2.618-2.618A2.618,2.618,0,0,1,130.045,141.683Z" transform="translate(-127.427 -136.447)" fill="#afd4ef"/>
            </g>
          </g>
          <g id="Group_1172635" data-name="Group 1172635" transform="translate(0 12.647)">
            <g id="Group_1172634" data-name="Group 1172634">
              <circle id="Ellipse_13670" data-name="Ellipse 13670" cx="2.618" cy="2.618" r="2.618" fill="#afd4ef"/>
            </g>
          </g>
          <g id="Group_1172637" data-name="Group 1172637" transform="translate(0 25.294)">
            <g id="Group_1172636" data-name="Group 1172636">
              <circle id="Ellipse_13671" data-name="Ellipse 13671" cx="2.618" cy="2.618" r="2.618" fill="#afd4ef"/>
            </g>
          </g>
          <g id="Group_1172639" data-name="Group 1172639" transform="translate(0 37.942)">
            <g id="Group_1172638" data-name="Group 1172638">
              <circle id="Ellipse_13672" data-name="Ellipse 13672" cx="2.618" cy="2.618" r="2.618" fill="#afd4ef"/>
            </g>
          </g>
          <g id="Group_1172641" data-name="Group 1172641" transform="translate(0 50.589)">
            <g id="Group_1172640" data-name="Group 1172640">
              <path id="Path_947499" data-name="Path 947499" d="M110.935,205.033a2.618,2.618,0,1,1,2.618,2.618A2.618,2.618,0,0,1,110.935,205.033Z" transform="translate(-110.935 -202.415)" fill="#afd4ef"/>
            </g>
          </g>
          <g id="Group_1172643" data-name="Group 1172643" transform="translate(12.647 12.647)">
            <g id="Group_1172642" data-name="Group 1172642">
              <path id="Path_947500" data-name="Path 947500" d="M130.045,158.175a2.618,2.618,0,1,1,2.618-2.618A2.618,2.618,0,0,1,130.045,158.175Z" transform="translate(-127.427 -152.939)" fill="#afd4ef"/>
            </g>
          </g>
          <g id="Group_1172645" data-name="Group 1172645" transform="translate(12.647 25.294)">
            <g id="Group_1172644" data-name="Group 1172644">
              <path id="Path_947501" data-name="Path 947501" d="M127.427,172.049a2.618,2.618,0,1,1,2.618,2.618A2.618,2.618,0,0,1,127.427,172.049Z" transform="translate(-127.427 -169.431)" fill="#afd4ef"/>
            </g>
          </g>
          <g id="Group_1172647" data-name="Group 1172647" transform="translate(12.647 37.942)">
            <g id="Group_1172646" data-name="Group 1172646">
              <path id="Path_947502" data-name="Path 947502" d="M127.427,188.541a2.618,2.618,0,1,1,2.618,2.618A2.618,2.618,0,0,1,127.427,188.541Z" transform="translate(-127.427 -185.923)" fill="#afd4ef"/>
            </g>
          </g>
          <g id="Group_1172649" data-name="Group 1172649" transform="translate(12.647 50.589)">
            <g id="Group_1172648" data-name="Group 1172648">
              <path id="Path_947503" data-name="Path 947503" d="M127.427,205.033a2.618,2.618,0,1,1,2.618,2.618A2.618,2.618,0,0,1,127.427,205.033Z" transform="translate(-127.427 -202.415)" fill="#afd4ef"/>
            </g>
          </g>
          <g id="Group_1172651" data-name="Group 1172651" transform="translate(0 63.235)">
            <g id="Group_1172650" data-name="Group 1172650">
              <circle id="Ellipse_13673" data-name="Ellipse 13673" cx="2.618" cy="2.618" r="2.618" fill="#afd4ef"/>
            </g>
          </g>
          <g id="Group_1172653" data-name="Group 1172653" transform="translate(12.647 63.235)">
            <g id="Group_1172652" data-name="Group 1172652">
              <path id="Path_947504" data-name="Path 947504" d="M127.427,221.524a2.618,2.618,0,1,1,2.618,2.618A2.618,2.618,0,0,1,127.427,221.524Z" transform="translate(-127.427 -218.906)" fill="#afd4ef"/>
            </g>
          </g>
        </g>
        <g id="Group_1172679" data-name="Group 1172679" transform="translate(258.331 57.263)">
          <g id="Group_1172656" data-name="Group 1172656" transform="translate(13.06 0.437)">
            <g id="Group_1172655" data-name="Group 1172655">
              <path id="Path_947505" data-name="Path 947505" d="M366.014,141.846a2.618,2.618,0,1,1,2.618-2.618A2.619,2.619,0,0,1,366.014,141.846Z" transform="translate(-363.396 -136.61)" fill="#afd4ef"/>
            </g>
          </g>
          <g id="Group_1172658" data-name="Group 1172658" transform="translate(25.707 0.437)">
            <g id="Group_1172657" data-name="Group 1172657">
              <path id="Path_947506" data-name="Path 947506" d="M382.506,141.846a2.618,2.618,0,1,1,2.618-2.618A2.619,2.619,0,0,1,382.506,141.846Z" transform="translate(-379.888 -136.61)" fill="#afd4ef"/>
            </g>
          </g>
          <g id="Group_1172660" data-name="Group 1172660" transform="translate(13.06 13.084)">
            <g id="Group_1172659" data-name="Group 1172659">
              <circle id="Ellipse_13674" data-name="Ellipse 13674" cx="2.618" cy="2.618" r="2.618" fill="#afd4ef"/>
            </g>
          </g>
          <g id="Group_1172662" data-name="Group 1172662" transform="translate(13.06 25.731)">
            <g id="Group_1172661" data-name="Group 1172661">
              <circle id="Ellipse_13675" data-name="Ellipse 13675" cx="2.618" cy="2.618" r="2.618" fill="#afd4ef"/>
            </g>
          </g>
          <g id="Group_1172664" data-name="Group 1172664" transform="translate(13.06 38.378)">
            <g id="Group_1172663" data-name="Group 1172663">
              <circle id="Ellipse_13676" data-name="Ellipse 13676" cx="2.618" cy="2.618" r="2.618" fill="#afd4ef"/>
            </g>
          </g>
          <g id="Group_1172666" data-name="Group 1172666" transform="translate(25.707 13.084)">
            <g id="Group_1172665" data-name="Group 1172665">
              <circle id="Ellipse_13677" data-name="Ellipse 13677" cx="2.618" cy="2.618" r="2.618" fill="#afd4ef"/>
            </g>
          </g>
          <g id="Group_1172668" data-name="Group 1172668" transform="translate(25.707 25.731)">
            <g id="Group_1172667" data-name="Group 1172667">
              <circle id="Ellipse_13678" data-name="Ellipse 13678" cx="2.618" cy="2.618" r="2.618" fill="#afd4ef"/>
            </g>
          </g>
          <g id="Group_1172670" data-name="Group 1172670" transform="translate(25.707 38.378)">
            <g id="Group_1172669" data-name="Group 1172669">
              <circle id="Ellipse_13679" data-name="Ellipse 13679" cx="2.618" cy="2.618" r="2.618" fill="#afd4ef"/>
            </g>
          </g>
          <g id="Group_1172672" data-name="Group 1172672">
            <g id="Group_1172671" data-name="Group 1172671">
              <circle id="Ellipse_13680" data-name="Ellipse 13680" cx="2.618" cy="2.618" r="2.618" fill="#afd4ef"/>
            </g>
          </g>
          <g id="Group_1172674" data-name="Group 1172674" transform="translate(0 12.648)">
            <g id="Group_1172673" data-name="Group 1172673">
              <circle id="Ellipse_13681" data-name="Ellipse 13681" cx="2.618" cy="2.618" r="2.618" fill="#afd4ef"/>
            </g>
          </g>
          <g id="Group_1172676" data-name="Group 1172676" transform="translate(0 25.294)">
            <g id="Group_1172675" data-name="Group 1172675">
              <circle id="Ellipse_13682" data-name="Ellipse 13682" cx="2.618" cy="2.618" r="2.618" fill="#afd4ef"/>
            </g>
          </g>
          <g id="Group_1172678" data-name="Group 1172678" transform="translate(0 37.941)">
            <g id="Group_1172677" data-name="Group 1172677">
              <path id="Path_947507" data-name="Path 947507" d="M346.366,188.134a2.618,2.618,0,1,1,2.618,2.618A2.619,2.619,0,0,1,346.366,188.134Z" transform="translate(-346.366 -185.516)" fill="#afd4ef"/>
            </g>
          </g>
        </g>
        <g id="Group_1172683" data-name="Group 1172683" transform="translate(262.108)">
          <g id="Group_1172680" data-name="Group 1172680">
            <path id="Path_947508" data-name="Path 947508" d="M364.734,68.091a1.458,1.458,0,0,1-1.459,1.459h-3.8v3.8a1.459,1.459,0,1,1-2.918,0v-3.8h-3.8a1.459,1.459,0,1,1,0-2.919h3.8v-3.8a1.459,1.459,0,1,1,2.918,0v3.8h3.8A1.459,1.459,0,0,1,364.734,68.091Z" transform="translate(-351.292 -61.369)" fill="#afd4ef"/>
          </g>
          <g id="Group_1172681" data-name="Group 1172681" transform="translate(8.434 23.102)">
            <path id="Path_947509" data-name="Path 947509" d="M364.193,91.494c-2.534,0-2.538,3.939,0,3.939S366.731,91.494,364.193,91.494Z" transform="translate(-362.29 -91.494)" fill="#afd4ef"/>
          </g>
          <g id="Group_1172682" data-name="Group 1172682" transform="translate(26.51 7.12)">
            <path id="Path_947510" data-name="Path 947510" d="M387.764,70.653c-2.534,0-2.538,3.939,0,3.939S390.3,70.653,387.764,70.653Z" transform="translate(-385.861 -70.653)" fill="#afd4ef"/>
          </g>
        </g>
        <g id="Group_1172687" data-name="Group 1172687" transform="translate(313.157 54.061)">
          <g id="Group_1172684" data-name="Group 1172684" transform="translate(10.036 10.285)">
            <path id="Path_947511" data-name="Path 947511" d="M444.388,152a1.458,1.458,0,0,1-1.459,1.459h-3.8v3.8a1.459,1.459,0,1,1-2.918,0v-3.8h-3.8a1.459,1.459,0,1,1,0-2.918h3.8v-3.8a1.459,1.459,0,1,1,2.918,0v3.8h3.8A1.459,1.459,0,0,1,444.388,152Z" transform="translate(-430.946 -145.277)" fill="#afd4ef"/>
          </g>
          <g id="Group_1172685" data-name="Group 1172685" transform="translate(0 28.829)">
            <path id="Path_947512" data-name="Path 947512" d="M419.762,169.458c-2.534,0-2.539,3.939,0,3.939S422.3,169.458,419.762,169.458Z" transform="translate(-417.859 -169.458)" fill="#afd4ef"/>
          </g>
          <g id="Group_1172686" data-name="Group 1172686" transform="translate(2.138)">
            <path id="Path_947513" data-name="Path 947513" d="M422.549,131.865c-2.534,0-2.538,3.939,0,3.939S425.087,131.865,422.549,131.865Z" transform="translate(-420.646 -131.865)" fill="#afd4ef"/>
          </g>
        </g>
        <g id="Group_1172691" data-name="Group 1172691" transform="translate(76.73 5.363)">
          <g id="Group_1172688" data-name="Group 1172688" transform="translate(12.22 11.933)">
            <path id="Path_947514" data-name="Path 947514" d="M138.933,90.645a1.458,1.458,0,0,1-1.459,1.459h-3.8v3.8a1.459,1.459,0,1,1-2.918,0V92.1h-3.8a1.459,1.459,0,1,1,0-2.919h3.8v-3.8a1.459,1.459,0,1,1,2.919,0v3.8h3.8A1.458,1.458,0,0,1,138.933,90.645Z" transform="translate(-125.491 -83.924)" fill="#afd4ef"/>
          </g>
          <g id="Group_1172689" data-name="Group 1172689" transform="translate(0 13.797)">
            <path id="Path_947515" data-name="Path 947515" d="M111.459,86.354c-2.534,0-2.538,3.939,0,3.939S114,86.354,111.459,86.354Z" transform="translate(-109.556 -86.354)" fill="#afd4ef"/>
          </g>
          <g id="Group_1172690" data-name="Group 1172690" transform="translate(27.594)">
            <path id="Path_947516" data-name="Path 947516" d="M147.442,68.363c-2.534,0-2.539,3.939,0,3.939S149.98,68.363,147.442,68.363Z" transform="translate(-145.539 -68.363)" fill="#afd4ef"/>
          </g>
        </g>
        <g id="Group_1172694" data-name="Group 1172694" transform="translate(16.286 79.368)">
          <g id="Group_1172692" data-name="Group 1172692" transform="translate(12.768)">
            <path id="Path_947517" data-name="Path 947517" d="M60.83,171.587a1.458,1.458,0,0,1-1.459,1.459h-3.8v3.8a1.459,1.459,0,1,1-2.919,0v-3.8h-3.8a1.459,1.459,0,1,1,0-2.918h3.8v-3.8a1.459,1.459,0,1,1,2.919,0v3.8h3.8A1.458,1.458,0,0,1,60.83,171.587Z" transform="translate(-47.388 -164.865)" fill="#afd4ef"/>
          </g>
          <g id="Group_1172693" data-name="Group 1172693" transform="translate(0 2.207)">
            <path id="Path_947518" data-name="Path 947518" d="M32.641,167.743c-2.534,0-2.539,3.939,0,3.939S35.179,167.743,32.641,167.743Z" transform="translate(-30.738 -167.743)" fill="#afd4ef"/>
          </g>
        </g>
      </g>
    </g>
  </g>
</svg>
