<svg xmlns="http://www.w3.org/2000/svg" width="100" height="100" viewBox="0 0 100 100">
  <g id="Group_1158586" data-name="Group 1158586" transform="translate(-637 -6992)">
    <g id="Group_1098742" data-name="Group 1098742" transform="translate(637.242 6992)">
      <rect id="Rectangle_400898" data-name="Rectangle 400898" width="100" height="100" rx="50" transform="translate(-0.242)" fill="#fff" opacity="0.859"/>
      <g id="Rectangle_400907" data-name="Rectangle 400907" transform="translate(-0.242)" fill="none" stroke="#00bdff" stroke-linecap="round" stroke-width="3" stroke-dasharray="0 7">
        <rect width="100" height="100" rx="50" stroke="none"/>
        <rect x="1.5" y="1.5" width="97" height="97" rx="48.5" fill="none"/>
      </g>
    </g>
    <g id="Group_1107006" data-name="Group 1107006" transform="translate(645.109 7000.157)">
      <rect id="Rectangle_400898-2" data-name="Rectangle 400898" width="84" height="84" rx="42" transform="translate(-0.399 -0.157)" fill="#6003fe" opacity="0.859"/>
      <rect id="Rectangle_400907-2" data-name="Rectangle 400907" width="84" height="84" rx="42" transform="translate(-0.398 -0.157)" fill="none"/>
    </g>
    <g id="Group_1169304" data-name="Group 1169304" transform="translate(662.473 7017.762)">
      <g id="Group_1169302" data-name="Group 1169302" transform="translate(0.71 0.71)">
        <path id="Path_942316" data-name="Path 942316" d="M53.8,186.928H31.786a.757.757,0,0,0-.757.757v6.76H8.257a.757.757,0,0,0-.757.757v21.036a.757.757,0,0,0,.757.757H53.8a.757.757,0,0,0,.757-.757V187.685A.757.757,0,0,0,53.8,186.928Z" transform="translate(-7.5 -169.94)" fill="#d1a08f"/>
        <g id="Group_1169301" data-name="Group 1169301" transform="translate(0 16.988)">
          <path id="Path_942317" data-name="Path 942317" d="M258.367,187.685a.757.757,0,0,1,.757-.757h-2.367a.757.757,0,0,0-.757.757v6.76h2.367Z" transform="translate(-232.472 -186.928)" fill="#c68d7a"/>
          <path id="Path_942318" data-name="Path 942318" d="M9.867,288.115V267.078a.757.757,0,0,1,.757-.757H8.257a.757.757,0,0,0-.757.757v21.036a.757.757,0,0,0,.757.757h2.367A.757.757,0,0,1,9.867,288.115Z" transform="translate(-7.5 -258.804)" fill="#c68d7a"/>
        </g>
        <path id="Path_942319" data-name="Path 942319" d="M56.38,246.723H69.1a1.326,1.326,0,0,1,1.326,1.326v.889a1.326,1.326,0,0,1-1.326,1.326,1.326,1.326,0,0,0-1.326,1.326v5.743a1.4,1.4,0,0,1-1.307,1.41,1.369,1.369,0,0,1-1.431-1.367v-5.32a1.792,1.792,0,0,0-1.792-1.792h-.622a1.792,1.792,0,0,0-1.792,1.792,1.4,1.4,0,0,1-1.307,1.41A1.369,1.369,0,0,1,58.1,252.1v-.509a1.326,1.326,0,0,0-1.326-1.326H56.38a1.326,1.326,0,0,1-1.326-1.326v-.889A1.326,1.326,0,0,1,56.38,246.723Z" transform="translate(-50.552 -224.073)" fill="#8d9ca8"/>
        <path id="Path_942320" data-name="Path 942320" d="M60.639,252.772a1.419,1.419,0,0,1-.184.252,1.337,1.337,0,0,1-.931.44,1.369,1.369,0,0,1-1.431-1.367v-.509a1.326,1.326,0,0,0-1.326-1.326h-.391a1.326,1.326,0,0,1-1.326-1.327v-.889a1.326,1.326,0,0,1,1.326-1.326h2.367a1.326,1.326,0,0,0-1.326,1.326v.889a1.326,1.326,0,0,0,1.326,1.327h.391a1.326,1.326,0,0,1,1.326,1.326v.509A1.355,1.355,0,0,0,60.639,252.772Z" transform="translate(-50.548 -224.071)" fill="#7a8c98"/>
        <path id="Path_942321" data-name="Path 942321" d="M282.211,69.143l.131,7.167a1.4,1.4,0,0,0,1.372,1.372l7.167.131a1.4,1.4,0,0,0,1.167-.591l3.636-5.149a1.4,1.4,0,0,0-.153-1.795l-5.785-5.785a1.4,1.4,0,0,0-1.795-.153L282.8,67.976A1.4,1.4,0,0,0,282.211,69.143Z" transform="translate(-256.201 -58.727)" fill="#c5d3dd"/>
        <path id="Path_942322" data-name="Path 942322" d="M286.081,77.682a1.4,1.4,0,0,1-1.372-1.372l-.131-7.167a1.4,1.4,0,0,1,.591-1.167l4.724-3.336-.147-.147a1.4,1.4,0,0,0-1.795-.153L282.8,67.976a1.4,1.4,0,0,0-.591,1.167l.131,7.167a1.4,1.4,0,0,0,1.372,1.372l7.167.131a1.4,1.4,0,0,0,.345-.037Z" transform="translate(-256.201 -58.726)" fill="#b6c4cf"/>
        <path id="Path_942323" data-name="Path 942323" d="M353.138,21.245a1.184,1.184,0,0,1,0-1.674L363,9.71a1.184,1.184,0,0,1,1.674,1.674l-9.861,9.861A1.184,1.184,0,0,1,353.138,21.245Z" transform="translate(-320.099 -9.187)" fill="#8d9ca8"/>
        <path id="Path_942324" data-name="Path 942324" d="M411.662,14.44l-2.075-2.075a.189.189,0,0,1,0-.268l4.11-4.11a1.657,1.657,0,0,1,2.343,2.343l-4.11,4.11A.19.19,0,0,1,411.662,14.44Z" transform="translate(-371.466 -7.502)" fill="#fff0ad"/>
      </g>
      <g id="Group_1169303" data-name="Group 1169303" transform="translate(0 0)">
        <path id="Path_942325" data-name="Path 942325" d="M47.767,28.028a.71.71,0,0,0,.71-.71V18.456a1.469,1.469,0,0,0-1.468-1.468H38.992l1.782-2.523a2.106,2.106,0,0,0-.232-2.707L38.99,10.206l1.822-1.822a.895.895,0,0,0,.864-.233l4.11-4.11A2.367,2.367,0,0,0,42.438.693L38.328,4.8a.9.9,0,0,0-.215.923l-1.8,1.8L34.758,5.975a2.1,2.1,0,0,0-2.707-.231L26.9,9.379a2.1,2.1,0,0,0-.893,1.761l.106,5.835-1.113,0h0a1.467,1.467,0,0,0-1.467,1.465l-.01,6.049-2.234,0a2.039,2.039,0,0,0-2.026-1.834H6.539a2.038,2.038,0,0,0-2.027,1.855H1.467A1.469,1.469,0,0,0,0,25.973V47.009a1.469,1.469,0,0,0,1.468,1.468H47.009a1.469,1.469,0,0,0,1.468-1.468V30.631a.71.71,0,1,0-1.42,0v1.391H32.791v-6.1l14.265.023v1.371a.71.71,0,0,0,.71.71ZM36.808,9.04l.005,0,0-.005L39.05,6.8l.67.67L37.488,9.7l-.005,0,0,.005-2.558,2.557a.474.474,0,0,1-.67-.67ZM43.443,1.7a.947.947,0,0,1,1.339,1.339L41.04,6.779,39.7,5.44ZM27.721,10.54,32.87,6.9a.686.686,0,0,1,.883.076l1.553,1.553-2.06,2.059a1.894,1.894,0,0,0,2.678,2.678l2.06-2.06,1.553,1.553a.688.688,0,0,1,.076.884L35.977,18.8a.685.685,0,0,1-.574.291l-7.167-.131a.686.686,0,0,1-.675-.675l-.131-7.167a.686.686,0,0,1,.291-.574Zm-2.768,7.9a.045.045,0,0,1,.014-.034A.057.057,0,0,1,25,18.394l1.146,0a2.1,2.1,0,0,0,2.063,1.981l7.167.131h.039a2.1,2.1,0,0,0,1.721-.892l.852-1.206h1.225v6.1l-14.27-.024ZM5.923,24.686a.617.617,0,0,1,.616-.616H19.263a.617.617,0,0,1,.616.616v.889a.617.617,0,0,1-.616.616,2.039,2.039,0,0,0-2.036,2.036v5.743a.688.688,0,0,1-.628.7.659.659,0,0,1-.689-.658v-5.32a2.5,2.5,0,0,0-2.5-2.5h-.622a2.5,2.5,0,0,0-2.5,2.5.688.688,0,0,1-.628.7.659.659,0,0,1-.689-.658v-.509A2.039,2.039,0,0,0,6.93,26.191H6.539a.617.617,0,0,1-.616-.616ZM1.467,25.926H4.535a2.038,2.038,0,0,0,2,1.686H6.93a.617.617,0,0,1,.616.616v.509a2.089,2.089,0,0,0,.642,1.5,2.065,2.065,0,0,0,1.531.575,2.1,2.1,0,0,0,1.986-2.12,1.083,1.083,0,0,1,1.082-1.082h.622a1.083,1.083,0,0,1,1.082,1.082v3.329H1.42V25.973a.047.047,0,0,1,.047-.047ZM1.42,39.54v-6.1H7.843v6.1Zm0,7.469V40.96h9.824a.71.71,0,1,0,0-1.42H9.263v-6.1h5.226v.571a2.089,2.089,0,0,0,.642,1.5,2.06,2.06,0,0,0,1.435.577l.095,0a2.1,2.1,0,0,0,1.986-2.12v-.528h4.881v6.1h-8.97a.71.71,0,1,0,0,1.42h1.127v6.1H1.467a.047.047,0,0,1-.047-.047Zm37.794-7.47H24.948v-6.1H39.214ZM17.106,47.057v-6.1H31.371v6.1Zm29.9,0H32.791v-6.1H47.056v6.049A.047.047,0,0,1,47.009,47.057Zm.047-7.517H40.634v-6.1h6.423ZM31.371,32.022H18.647V28.228a.617.617,0,0,1,.616-.616A2.038,2.038,0,0,0,21.27,25.9l10.1.017v6.1Zm9.263-7.506V18.409h6.375a.047.047,0,0,1,.047.047v6.07Z" transform="translate(0 0)"/>
      </g>
    </g>
  </g>
</svg>
