<svg id="Group_1172491" data-name="Group 1172491" xmlns="http://www.w3.org/2000/svg" width="60" height="60" viewBox="0 0 60 60">
  <g id="Group_1172490" data-name="Group 1172490">
    <path id="Path_947118" data-name="Path 947118" d="M115.613,231.1H136.9v-32.9h-21.29Zm1.935-1.935v-5.806h17.419v5.806Zm17.419-13.548v5.806H117.548v-5.806Zm-17.419-1.935v-5.806h17.419v5.806Zm17.419-13.548v5.806H117.548v-5.806Z" transform="translate(-102.065 -174.968)" fill="#6003fe"/>
    <path id="Path_947119" data-name="Path 947119" d="M39.677,32.9h3.871A16.45,16.45,0,1,0,27.734,11.908a12.577,12.577,0,0,0-21.9,7.511A6.775,6.775,0,0,0,6.774,32.9h2.9V38.71h-2.5L5.239,36.774H0V38.71H4.438l1.935,1.935h3.3v1.935H3.871v1.935H9.677v1.935h-3.3L4.438,48.387H0v1.935H5.239l1.935-1.935h2.5V57.1a2.906,2.906,0,0,0,2.9,2.9H35.806a2.906,2.906,0,0,0,2.9-2.9v-8.71h2.5l1.935,1.935h5.239V48.387H43.949l-1.935-1.935h-3.3V44.516h5.806V42.581H38.71V40.645h3.3l1.935-1.935h4.438V36.774H43.148L41.212,38.71h-2.5V32.9h.968ZM43.548,1.935c1.369,0,2.835,2.231,3.79,5.806H39.748A20.191,20.191,0,0,1,40.4,5.7C41.312,3.342,42.488,1.935,43.548,1.935Zm4.23,7.742a35.833,35.833,0,0,1,.6,5.806H38.723a36.184,36.184,0,0,1,.586-5.806h8.469Zm10.253,5.806H50.311a38.96,38.96,0,0,0-.566-5.806h6.639A14.407,14.407,0,0,1,58.031,15.484Zm0,1.935a14.411,14.411,0,0,1-1.648,5.806h-6.63a38.76,38.76,0,0,0,.558-5.806Zm-9.656,0a36.387,36.387,0,0,1-.589,5.806h-.053a6.784,6.784,0,0,0-5.959-3.869,9.634,9.634,0,0,0-1.131-1.937h7.733Zm-1.7,13.209a6.752,6.752,0,0,0,1.646-5.467h6.837A14.546,14.546,0,0,1,46.671,30.628ZM55.154,7.742H49.339A17.258,17.258,0,0,0,47.2,2.4,14.556,14.556,0,0,1,55.154,7.742ZM39.909,2.406A13.155,13.155,0,0,0,38.6,5a22.8,22.8,0,0,0-.847,2.739h-5.8A14.688,14.688,0,0,1,39.909,2.406ZM30.717,9.677h6.627a37.648,37.648,0,0,0-.519,4.7,9.665,9.665,0,0,0-7.441-.172c-.045-.081-.093-.161-.14-.241A14.278,14.278,0,0,1,30.717,9.677ZM6.774,30.968a4.839,4.839,0,0,1,0-9.677h.968v-.968a10.647,10.647,0,0,1,20.319-4.447l.422.916.9-.46a7.656,7.656,0,0,1,3.522-.848,7.751,7.751,0,0,1,7.306,5.181l.248.707.746-.063c.15-.013.284-.019.409-.019a4.839,4.839,0,1,1,0,9.677h-2.9v-8.71a2.906,2.906,0,0,0-2.9-2.9H12.581a2.906,2.906,0,0,0-2.9,2.9v8.71Zm30,26.129a.969.969,0,0,1-.968.968H12.581a.969.969,0,0,1-.968-.968V22.258a.969.969,0,0,1,.968-.968H35.807a.969.969,0,0,1,.968.968V57.1Z" fill="#6003fe"/>
    <circle id="Ellipse_13651" data-name="Ellipse 13651" cx="0.968" cy="0.968" r="0.968" transform="translate(17.419 27.097)" fill="#6003fe"/>
    <circle id="Ellipse_13652" data-name="Ellipse 13652" cx="0.968" cy="0.968" r="0.968" transform="translate(21.29 27.097)" fill="#6003fe"/>
    <rect id="Rectangle_448877" data-name="Rectangle 448877" width="5.806" height="1.935" transform="translate(25.161 27.097)" fill="#6003fe"/>
    <circle id="Ellipse_13653" data-name="Ellipse 13653" cx="0.968" cy="0.968" r="0.968" transform="translate(17.419 34.839)" fill="#6003fe"/>
    <circle id="Ellipse_13654" data-name="Ellipse 13654" cx="0.968" cy="0.968" r="0.968" transform="translate(21.29 34.839)" fill="#6003fe"/>
    <rect id="Rectangle_448878" data-name="Rectangle 448878" width="5.806" height="1.935" transform="translate(25.161 34.839)" fill="#6003fe"/>
    <circle id="Ellipse_13655" data-name="Ellipse 13655" cx="0.968" cy="0.968" r="0.968" transform="translate(17.419 42.581)" fill="#6003fe"/>
    <circle id="Ellipse_13656" data-name="Ellipse 13656" cx="0.968" cy="0.968" r="0.968" transform="translate(21.29 42.581)" fill="#6003fe"/>
    <rect id="Rectangle_448879" data-name="Rectangle 448879" width="5.806" height="1.935" transform="translate(25.161 42.581)" fill="#6003fe"/>
    <circle id="Ellipse_13657" data-name="Ellipse 13657" cx="0.968" cy="0.968" r="0.968" transform="translate(17.419 50.323)" fill="#6003fe"/>
    <circle id="Ellipse_13658" data-name="Ellipse 13658" cx="0.968" cy="0.968" r="0.968" transform="translate(21.29 50.323)" fill="#6003fe"/>
    <rect id="Rectangle_448880" data-name="Rectangle 448880" width="5.806" height="1.935" transform="translate(25.161 50.323)" fill="#6003fe"/>
    <rect id="Rectangle_448881" data-name="Rectangle 448881" width="1.935" height="1.935" transform="translate(0 42.581)" fill="#6003fe"/>
    <rect id="Rectangle_448882" data-name="Rectangle 448882" width="1.935" height="1.935" transform="translate(46.452 42.581)" fill="#6003fe"/>
    <path id="Path_947120" data-name="Path 947120" d="M124.091,101.032a6.746,6.746,0,0,1,5.289,2.541l1.51-1.211a8.713,8.713,0,0,0-11.154-2.1l.969,1.675A6.766,6.766,0,0,1,124.091,101.032Z" transform="translate(-105.704 -87.484)" fill="#6003fe"/>
    <path id="Path_947121" data-name="Path 947121" d="M90.773,128.174l-1.51-1.211a8.7,8.7,0,0,0-1.277,2.178l1.794.726A6.768,6.768,0,0,1,90.773,128.174Z" transform="translate(-77.675 -112.085)" fill="#6003fe"/>
  </g>
</svg>
