<svg xmlns="http://www.w3.org/2000/svg" width="64.968" height="75.298" viewBox="0 0 64.968 75.298">
  <g id="Group_1169403" data-name="Group 1169403" transform="translate(-35.118)">
    <g id="Group_1169366" data-name="Group 1169366" transform="translate(36.19 65.674)">
      <path id="Path_942380" data-name="Path 942380" d="M48.273,452.429H43.141a.735.735,0,0,1-.735-.735v-4.4a.735.735,0,0,1,.735-.735h5.132Z" transform="translate(-42.406 -446.562)" fill="#75cef9"/>
    </g>
    <g id="Group_1169367" data-name="Group 1169367" transform="translate(36.19 65.674)">
      <path id="Path_942381" data-name="Path 942381" d="M44.576,446.562v3.321a.971.971,0,0,1-.971.971h-1.2v.839a.735.735,0,0,0,.735.735h5.132v-5.867h-3.7Z" transform="translate(-42.406 -446.562)" fill="#5ea5ec"/>
    </g>
    <g id="Group_1169368" data-name="Group 1169368" transform="translate(45.234 5.804)">
      <path id="Path_942382" data-name="Path 942382" d="M154.449,107.885h-47.31a3.235,3.235,0,0,1-3.235-3.235V42.55a3.088,3.088,0,0,1,3.088-3.088h47.6a3.088,3.088,0,0,1,3.088,3.088v62.1A3.235,3.235,0,0,1,154.449,107.885Z" transform="translate(-103.904 -39.462)" fill="#78d0b1"/>
    </g>
    <g id="Group_1169369" data-name="Group 1169369" transform="translate(45.234 5.804)">
      <path id="Path_942383" data-name="Path 942383" d="M154.6,39.462h-3.475v58.67a3.19,3.19,0,0,1-3.19,3.19H103.9v3.328a3.235,3.235,0,0,0,3.235,3.235h47.31a3.235,3.235,0,0,0,3.235-3.235V42.55A3.089,3.089,0,0,0,154.6,39.462Z" transform="translate(-103.905 -39.462)" fill="#66b49d"/>
    </g>
    <g id="Group_1169370" data-name="Group 1169370" transform="translate(40.266 1.072)">
      <path id="Path_942384" data-name="Path 942384" d="M84.541,18.524H71.3a1.177,1.177,0,0,1-1.177-1.177V8.464A1.177,1.177,0,0,1,71.3,7.287H84.541a1.177,1.177,0,0,1,1.177,1.177v8.884A1.177,1.177,0,0,1,84.541,18.524Z" transform="translate(-70.125 -7.287)" fill="#efecef"/>
    </g>
    <g id="Group_1169371" data-name="Group 1169371" transform="translate(40.266 45.611)">
      <path id="Path_942385" data-name="Path 942385" d="M84.541,321.378H71.3a1.177,1.177,0,0,1-1.177-1.176v-8.884a1.177,1.177,0,0,1,1.177-1.177H84.541a1.177,1.177,0,0,1,1.177,1.177V320.2A1.177,1.177,0,0,1,84.541,321.378Z" transform="translate(-70.125 -310.141)" fill="#efecef"/>
    </g>
    <g id="Group_1169372" data-name="Group 1169372" transform="translate(40.266 62.989)">
      <path id="Path_942386" data-name="Path 942386" d="M84.541,439.541H71.3a1.177,1.177,0,0,1-1.177-1.177v-8.884A1.177,1.177,0,0,1,71.3,428.3H84.541a1.177,1.177,0,0,1,1.177,1.177v8.884A1.177,1.177,0,0,1,84.541,439.541Z" transform="translate(-70.125 -428.304)" fill="#efecef"/>
    </g>
    <g id="Group_1169373" data-name="Group 1169373" transform="translate(44.124 16.324)">
      <path id="Path_942387" data-name="Path 942387" d="M96.357,116.867v-5.132a.735.735,0,0,1,.735-.735H103.5a.735.735,0,0,1,.735.735v5.132Z" transform="translate(-96.357 -111)" fill="#efecef"/>
    </g>
    <g id="Group_1169374" data-name="Group 1169374" transform="translate(44.124 35.917)">
      <path id="Path_942388" data-name="Path 942388" d="M104.234,244.227v5.132a.735.735,0,0,1-.735.735H97.092a.735.735,0,0,1-.735-.735v-5.132Z" transform="translate(-96.357 -244.227)" fill="#efecef"/>
    </g>
    <g id="Group_1169375" data-name="Group 1169375" transform="translate(49.172 16.324)">
      <path id="Path_942389" data-name="Path 942389" d="M132.8,111h-2.114a.714.714,0,0,1,.714.714v5.153h2.114v-5.153A.714.714,0,0,0,132.8,111Z" transform="translate(-130.683 -111)" fill="#dddaec"/>
    </g>
    <g id="Group_1169376" data-name="Group 1169376" transform="translate(44.124 35.917)">
      <path id="Path_942390" data-name="Path 942390" d="M102.12,244.226v3.167a.714.714,0,0,1-.714.714H96.357v1.271a.714.714,0,0,0,.714.714h6.448a.714.714,0,0,0,.714-.714v-5.153H102.12Z" transform="translate(-96.357 -244.226)" fill="#dddaec"/>
    </g>
    <g id="Group_1169377" data-name="Group 1169377" transform="translate(40.266 20.081)">
      <path id="Path_942391" data-name="Path 942391" d="M84.541,154.492H71.3a1.177,1.177,0,0,1-1.177-1.177V137.723a1.177,1.177,0,0,1,1.177-1.177H84.541a1.177,1.177,0,0,1,1.177,1.177v15.593A1.177,1.177,0,0,1,84.541,154.492Z" transform="translate(-70.125 -136.546)" fill="#407093"/>
    </g>
    <g id="Group_1169378" data-name="Group 1169378" transform="translate(40.266 1.072)">
      <path id="Path_942392" data-name="Path 942392" d="M84.541,7.287h-1.4V14.8a1.286,1.286,0,0,1-1.286,1.286H70.125v1.261A1.177,1.177,0,0,0,71.3,18.524H84.541a1.177,1.177,0,0,0,1.177-1.177V8.464A1.176,1.176,0,0,0,84.541,7.287Z" transform="translate(-70.125 -7.287)" fill="#dddaec"/>
    </g>
    <g id="Group_1169379" data-name="Group 1169379" transform="translate(40.266 45.611)">
      <path id="Path_942393" data-name="Path 942393" d="M84.541,310.141h-1.4v7.514a1.286,1.286,0,0,1-1.286,1.286H70.125V320.2a1.177,1.177,0,0,0,1.177,1.176H84.541a1.177,1.177,0,0,0,1.177-1.176v-8.884A1.177,1.177,0,0,0,84.541,310.141Z" transform="translate(-70.125 -310.141)" fill="#dddaec"/>
    </g>
    <g id="Group_1169380" data-name="Group 1169380" transform="translate(40.266 62.989)">
      <path id="Path_942394" data-name="Path 942394" d="M84.541,428.3h-1.4v7.514a1.286,1.286,0,0,1-1.286,1.286H70.125v1.261a1.177,1.177,0,0,0,1.177,1.177H84.541a1.177,1.177,0,0,0,1.177-1.177V429.48A1.177,1.177,0,0,0,84.541,428.3Z" transform="translate(-70.125 -428.304)" fill="#dddaec"/>
    </g>
    <g id="Group_1169381" data-name="Group 1169381" transform="translate(40.266 20.081)">
      <path id="Path_942395" data-name="Path 942395" d="M84.541,136.546h-1.4v14.223a1.286,1.286,0,0,1-1.286,1.286H70.125v1.261a1.177,1.177,0,0,0,1.177,1.177H84.541a1.177,1.177,0,0,0,1.177-1.177V137.723A1.177,1.177,0,0,0,84.541,136.546Z" transform="translate(-70.125 -136.546)" fill="#365e7d"/>
    </g>
    <g id="Group_1169382" data-name="Group 1169382" transform="translate(60.44 20.081)">
      <path id="Path_942396" data-name="Path 942396" d="M236.141,162.038H208.475a1.177,1.177,0,0,1-1.177-1.177V137.723a1.177,1.177,0,0,1,1.177-1.177h27.666a1.177,1.177,0,0,1,1.177,1.177v23.139A1.176,1.176,0,0,1,236.141,162.038Z" transform="translate(-207.298 -136.546)" fill="#efecef"/>
    </g>
    <g id="Group_1169383" data-name="Group 1169383" transform="translate(60.44 20.081)">
      <path id="Path_942397" data-name="Path 942397" d="M236.141,136.546h-1.656v21.374a1.286,1.286,0,0,1-1.286,1.286H207.3v1.656a1.177,1.177,0,0,0,1.177,1.177h27.666a1.177,1.177,0,0,0,1.177-1.177V137.723A1.177,1.177,0,0,0,236.141,136.546Z" transform="translate(-207.298 -136.546)" fill="#dddaec"/>
    </g>
    <g id="Group_1169384" data-name="Group 1169384" transform="translate(67.168 24.546)">
      <path id="Path_942398" data-name="Path 942398" d="M268.286,183.466H254.37a1.324,1.324,0,0,1-1.324-1.324V168.227a1.324,1.324,0,0,1,1.324-1.324h13.916a1.324,1.324,0,0,1,1.324,1.324v13.916A1.324,1.324,0,0,1,268.286,183.466Z" transform="translate(-253.046 -166.903)" fill="#f4dd45"/>
    </g>
    <g id="Group_1169385" data-name="Group 1169385" transform="translate(67.168 24.546)">
      <path id="Path_942399" data-name="Path 942399" d="M268.286,166.9h-1.445v12.613a1.182,1.182,0,0,1-1.182,1.182H253.046v1.445a1.324,1.324,0,0,0,1.324,1.324h13.916a1.324,1.324,0,0,0,1.324-1.324V168.227A1.324,1.324,0,0,0,268.286,166.9Z" transform="translate(-253.046 -166.903)" fill="#ecc32e"/>
    </g>
    <g id="Group_1169386" data-name="Group 1169386" transform="translate(67.168 49.065)">
      <path id="Path_942400" data-name="Path 942400" d="M268.286,347.551H254.37a1.324,1.324,0,0,1-1.324-1.324V334.951a1.324,1.324,0,0,1,1.324-1.324h13.916a1.324,1.324,0,0,1,1.324,1.324v11.277A1.324,1.324,0,0,1,268.286,347.551Z" transform="translate(-253.046 -333.627)" fill="#ecb780"/>
    </g>
    <g id="Group_1169387" data-name="Group 1169387" transform="translate(67.168 49.065)">
      <path id="Path_942401" data-name="Path 942401" d="M268.286,333.627H267.14V343.9a1.182,1.182,0,0,1-1.182,1.182H253.046v1.146a1.324,1.324,0,0,0,1.324,1.324h13.916a1.324,1.324,0,0,0,1.324-1.324V334.95A1.324,1.324,0,0,0,268.286,333.627Z" transform="translate(-253.046 -333.627)" fill="#e7a561"/>
    </g>
    <g id="Group_1169388" data-name="Group 1169388" transform="translate(71.676 29.054)">
      <path id="Path_942402" data-name="Path 942402" d="M290.072,205.106h-5.193a1.177,1.177,0,0,1-1.177-1.177v-5.193a1.177,1.177,0,0,1,1.177-1.177h5.193a1.177,1.177,0,0,1,1.177,1.177v5.193A1.176,1.176,0,0,1,290.072,205.106Z" transform="translate(-283.702 -197.56)" fill="#78d0b1"/>
    </g>
    <g id="Group_1169389" data-name="Group 1169389" transform="translate(71.676 29.054)">
      <path id="Path_942403" data-name="Path 942403" d="M290.072,197.56h-1.012v4.175a1.182,1.182,0,0,1-1.182,1.182H283.7v1.012a1.177,1.177,0,0,0,1.177,1.177h5.193a1.177,1.177,0,0,0,1.177-1.177v-5.193A1.176,1.176,0,0,0,290.072,197.56Z" transform="translate(-283.702 -197.56)" fill="#66b49d"/>
    </g>
    <g id="Group_1169390" data-name="Group 1169390" transform="translate(91.468 4.763)">
      <path id="Path_942404" data-name="Path 942404" d="M424.653,39.93H419.46a1.177,1.177,0,0,1-1.176-1.177V33.561a1.177,1.177,0,0,1,1.176-1.177h5.193a1.177,1.177,0,0,1,1.177,1.177v5.193A1.177,1.177,0,0,1,424.653,39.93Z" transform="translate(-418.283 -32.384)" fill="#efecef"/>
    </g>
    <g id="Group_1169391" data-name="Group 1169391" transform="translate(91.468 55.467)">
      <path id="Path_942405" data-name="Path 942405" d="M424.653,384.705H419.46a1.177,1.177,0,0,1-1.176-1.177v-5.193a1.177,1.177,0,0,1,1.176-1.177h5.193a1.177,1.177,0,0,1,1.177,1.177v5.193A1.176,1.176,0,0,1,424.653,384.705Z" transform="translate(-418.283 -377.159)" fill="#efecef"/>
    </g>
    <g id="Group_1169392" data-name="Group 1169392" transform="translate(91.468 4.763)">
      <path id="Path_942406" data-name="Path 942406" d="M424.653,32.384h-1.319v3.869a1.182,1.182,0,0,1-1.182,1.182h-3.869v1.319a1.177,1.177,0,0,0,1.176,1.177h5.193a1.177,1.177,0,0,0,1.177-1.177V33.561a1.176,1.176,0,0,0-1.177-1.177Z" transform="translate(-418.283 -32.384)" fill="#dddaec"/>
    </g>
    <g id="Group_1169393" data-name="Group 1169393" transform="translate(91.468 55.467)">
      <path id="Path_942407" data-name="Path 942407" d="M424.653,377.158h-1.319v3.869a1.182,1.182,0,0,1-1.182,1.182h-3.869v1.319a1.177,1.177,0,0,0,1.176,1.177h5.193a1.177,1.177,0,0,0,1.177-1.177v-5.193A1.176,1.176,0,0,0,424.653,377.158Z" transform="translate(-418.283 -377.158)" fill="#dddaec"/>
    </g>
    <g id="Group_1169394" data-name="Group 1169394" transform="translate(59.509 55.05)">
      <path id="Path_942408" data-name="Path 942408" d="M204.242,389.1H201.7a.735.735,0,0,1-.735-.735v-13.3a.735.735,0,0,1,.735-.735h2.538a.735.735,0,0,1,.735.735v13.3A.735.735,0,0,1,204.242,389.1Z" transform="translate(-200.969 -374.324)" fill="#efecef"/>
    </g>
    <g id="Group_1169395" data-name="Group 1169395" transform="translate(59.509 55.05)">
      <path id="Path_942409" data-name="Path 942409" d="M204.263,374.324H202.95v12.031a.714.714,0,0,1-.714.714h-1.267v1.313a.714.714,0,0,0,.714.714h2.579a.714.714,0,0,0,.714-.714V375.038A.714.714,0,0,0,204.263,374.324Z" transform="translate(-200.969 -374.324)" fill="#dddaec"/>
    </g>
    <g id="Group_1169396" data-name="Group 1169396" transform="translate(80.935 9.091)">
      <path id="Path_942410" data-name="Path 942410" d="M351.2,69.313h-3.81a.735.735,0,0,1-.735-.735V62.549a.735.735,0,0,1,.735-.735h3.81a.735.735,0,0,1,.735.735v6.028A.735.735,0,0,1,351.2,69.313Z" transform="translate(-346.657 -61.814)" fill="#efecef"/>
    </g>
    <g id="Group_1169397" data-name="Group 1169397" transform="translate(80.935 9.091)">
      <path id="Path_942411" data-name="Path 942411" d="M351.2,61.814h-1.776v4.273a.714.714,0,0,1-.714.714h-2.056v1.776a.735.735,0,0,0,.735.735h3.81a.735.735,0,0,0,.735-.735V62.549A.735.735,0,0,0,351.2,61.814Z" transform="translate(-346.657 -61.814)" fill="#dddaec"/>
    </g>
    <g id="Group_1169398" data-name="Group 1169398" transform="translate(66.163 9.091)">
      <path id="Path_942412" data-name="Path 942412" d="M250.757,69.313h-3.811a.735.735,0,0,1-.735-.735V62.549a.735.735,0,0,1,.735-.735h3.811a.735.735,0,0,1,.735.735v6.028A.735.735,0,0,1,250.757,69.313Z" transform="translate(-246.211 -61.814)" fill="#407093"/>
    </g>
    <g id="Group_1169399" data-name="Group 1169399" transform="translate(66.163 9.091)">
      <path id="Path_942413" data-name="Path 942413" d="M250.757,61.814h-1.776v4.273a.714.714,0,0,1-.714.714h-2.056v1.776a.735.735,0,0,0,.735.735h3.831a.714.714,0,0,0,.714-.714V62.549A.735.735,0,0,0,250.757,61.814Z" transform="translate(-246.211 -61.814)" fill="#365e7d"/>
    </g>
    <g id="Group_1169402" data-name="Group 1169402" transform="translate(35.118)">
      <circle id="Ellipse_13582" data-name="Ellipse 13582" cx="1.368" cy="1.368" r="1.368" transform="translate(24.624 51.982) rotate(-67.486)"/>
      <circle id="Ellipse_13583" data-name="Ellipse 13583" cx="1.368" cy="1.368" r="1.368" transform="translate(56.075 69.58) rotate(-13.3)"/>
      <circle id="Ellipse_13584" data-name="Ellipse 13584" cx="1.368" cy="1.368" r="1.368" transform="translate(50.823 69.581) rotate(-13.3)"/>
      <circle id="Ellipse_13585" data-name="Ellipse 13585" cx="1.368" cy="1.368" r="1.368" transform="translate(45.878 69.262)"/>
      <circle id="Ellipse_13586" data-name="Ellipse 13586" cx="1.368" cy="1.368" r="1.368" transform="translate(51.098 49.862)"/>
      <circle id="Ellipse_13587" data-name="Ellipse 13587" cx="1.368" cy="1.368" r="1.368" transform="translate(24.746 14.194) rotate(-13.3)"/>
      <circle id="Ellipse_13588" data-name="Ellipse 13588" cx="1.368" cy="1.368" r="1.368" transform="translate(52.955 15.227) rotate(-45)"/>
      <circle id="Ellipse_13589" data-name="Ellipse 13589" cx="1.368" cy="1.368" r="1.368" transform="translate(24.619 11.198) rotate(-67.486)"/>
      <circle id="Ellipse_13590" data-name="Ellipse 13590" cx="1.368" cy="1.368" r="1.368" transform="translate(39.203 11.196) rotate(-67.486)"/>
      <circle id="Ellipse_13591" data-name="Ellipse 13591" cx="1.368" cy="1.368" r="1.368" transform="translate(31.656 69.586) rotate(-13.3)"/>
      <path id="Path_942414" data-name="Path 942414" d="M95.625,326.34H92.741a1.072,1.072,0,1,0,0,2.143h2.884a1.072,1.072,0,1,0,0-2.143Z" transform="translate(-83.352 -278.347)"/>
      <path id="Path_942415" data-name="Path 942415" d="M95.625,355.778H92.741a1.072,1.072,0,1,0,0,2.143h2.884a1.072,1.072,0,0,0,0-2.143Z" transform="translate(-83.352 -303.455)"/>
      <path id="Path_942416" data-name="Path 942416" d="M95.625,444.5H92.741a1.072,1.072,0,0,0,0,2.143h2.884a1.072,1.072,0,0,0,0-2.143Z" transform="translate(-83.352 -379.132)"/>
      <path id="Path_942417" data-name="Path 942417" d="M95.625,473.941H92.741a1.072,1.072,0,1,0,0,2.143h2.884a1.072,1.072,0,1,0,0-2.143Z" transform="translate(-83.352 -404.24)"/>
      <path id="Path_942418" data-name="Path 942418" d="M229.816,129.259H202.369a2.36,2.36,0,0,0-2.358,2.358v22.92a2.36,2.36,0,0,0,2.358,2.358h27.447a2.36,2.36,0,0,0,2.358-2.358v-22.92a2.36,2.36,0,0,0-2.358-2.358Zm.214,25.278a.215.215,0,0,1-.214.214H202.369a.215.215,0,0,1-.214-.214v-22.92a.215.215,0,0,1,.214-.214h27.447a.214.214,0,0,1,.214.214Z" transform="translate(-175.761 -110.249)"/>
      <path id="Path_942419" data-name="Path 942419" d="M262.212,159.616h-14.2a2.256,2.256,0,0,0-2.254,2.254v14.2a2.256,2.256,0,0,0,2.254,2.254h14.2a2.256,2.256,0,0,0,2.254-2.254v-14.2a2.256,2.256,0,0,0-2.254-2.254Zm.11,16.453a.111.111,0,0,1-.11.111h-14.2a.111.111,0,0,1-.11-.111v-14.2a.111.111,0,0,1,.11-.11h14.2a.11.11,0,0,1,.11.11Z" transform="translate(-214.781 -136.142)"/>
      <path id="Path_942420" data-name="Path 942420" d="M248.013,342.407h14.2a2.256,2.256,0,0,0,2.254-2.254v-11.56a2.256,2.256,0,0,0-2.254-2.254h-14.2a2.256,2.256,0,0,0-2.254,2.254v11.56A2.256,2.256,0,0,0,248.013,342.407Zm14.309-5.892H247.9v-3.991h14.42Zm-.11,3.749h-14.2a.111.111,0,0,1-.11-.11v-1.495h14.42v1.495A.111.111,0,0,1,262.212,340.264Zm-14.2-11.781h14.2a.111.111,0,0,1,.11.11v1.787H247.9v-1.787a.111.111,0,0,1,.111-.11Z" transform="translate(-214.781 -278.347)"/>
      <path id="Path_942421" data-name="Path 942421" d="M283.851,190.273h-5.182a2.256,2.256,0,0,0-2.254,2.254v5.182a2.256,2.256,0,0,0,2.254,2.254h5.182a2.256,2.256,0,0,0,2.254-2.254v-5.182A2.256,2.256,0,0,0,283.851,190.273Zm.111,7.436a.111.111,0,0,1-.11.11h-5.182a.11.11,0,0,1-.11-.11v-5.182a.111.111,0,0,1,.11-.111h5.182a.111.111,0,0,1,.11.111v5.182Z" transform="translate(-240.928 -162.29)"/>
      <path id="Path_942422" data-name="Path 942422" d="M97.832,3.691H92.651a2.252,2.252,0,0,0-1.9,1.041H56.93V2.358A2.36,2.36,0,0,0,54.573,0H51.608a1.072,1.072,0,0,0,0,2.143h2.965a.215.215,0,0,1,.214.214v8.665a.215.215,0,0,1-.214.214H41.552a.215.215,0,0,1-.214-.214V2.358a.214.214,0,0,1,.214-.214h4.981a1.072,1.072,0,0,0,0-2.143H41.552a2.36,2.36,0,0,0-2.358,2.358v8.665a2.36,2.36,0,0,0,2.358,2.358h2.61v2.006a1.788,1.788,0,0,0-1.11,1.652V19.01h-1.5a2.36,2.36,0,0,0-2.358,2.358v6.724a1.072,1.072,0,1,0,2.143,0V21.367a.215.215,0,0,1,.214-.214h13.02a.215.215,0,0,1,.214.214V36.741a.215.215,0,0,1-.214.214H41.552a.215.215,0,0,1-.214-.214V33.268a1.072,1.072,0,0,0-2.143,0v3.474A2.36,2.36,0,0,0,41.552,39.1h1.5V41.07a1.788,1.788,0,0,0,1.11,1.652v1.817h-2.61A2.36,2.36,0,0,0,39.195,46.9v8.665a2.36,2.36,0,0,0,2.358,2.358h2.61v4h-2.61a2.36,2.36,0,0,0-2.358,2.358V64.6H36.9a1.788,1.788,0,0,0-1.786,1.786v4.438A1.788,1.788,0,0,0,36.9,72.613h2.291v.328A2.36,2.36,0,0,0,41.552,75.3H95.825a4.266,4.266,0,0,0,4.261-4.261V43.322a1.072,1.072,0,1,0-2.143,0V54.4c-.037,0-.073-.006-.11-.006H96.313V13.38h1.519c.037,0,.074,0,.11-.006V38.062a1.072,1.072,0,0,0,2.143,0V5.945a2.256,2.256,0,0,0-2.254-2.254ZM45.2,17.4h5.733V19.01H45.2Zm5.733,21.7v1.614H45.2V39.1ZM41.338,55.562V46.9a.214.214,0,0,1,.214-.214h13.02a.214.214,0,0,1,.214.214v8.665a.214.214,0,0,1-.214.214H41.552A.215.215,0,0,1,41.338,55.562ZM37.261,70.469V66.746h1.933v3.724Zm4.291,2.685a.214.214,0,0,1-.214-.214V64.275a.215.215,0,0,1,.214-.214h13.02a.215.215,0,0,1,.214.214V72.94a.214.214,0,0,1-.214.214ZM97.943,56.649v5.182a.111.111,0,0,1-.11.11H92.651a.11.11,0,0,1-.11-.11V56.649a.111.111,0,0,1,.11-.11h5.182a.11.11,0,0,1,.11.11ZM94.17,54.4H92.651A2.256,2.256,0,0,0,90.4,56.649v5.182a2.256,2.256,0,0,0,2.254,2.254h5.182c.037,0,.074,0,.11-.006v6.957a2.12,2.12,0,0,1-2.118,2.118H56.919c.006-.071.011-.142.011-.214V64.275a2.36,2.36,0,0,0-2.358-2.358H46.306v-4h8.267a2.36,2.36,0,0,0,2.358-2.358V46.9a2.36,2.36,0,0,0-2.358-2.358H46.306V42.856h4.981a1.788,1.788,0,0,0,1.786-1.786V39.1h1.5a2.36,2.36,0,0,0,2.358-2.358V21.367a2.36,2.36,0,0,0-2.358-2.358h-1.5V17.039a1.788,1.788,0,0,0-1.786-1.786H46.306V13.38h8.267a2.36,2.36,0,0,0,2.358-2.358V6.875H90.4v4.251a2.256,2.256,0,0,0,2.254,2.254H94.17V54.4Zm3.663-43.158H92.651a.11.11,0,0,1-.11-.11V5.945a.111.111,0,0,1,.11-.111h5.182a.111.111,0,0,1,.11.111v5.182A.111.111,0,0,1,97.832,11.237Z" transform="translate(-35.118)"/>
      <path id="Path_942423" data-name="Path 942423" d="M198.047,367.037h-2.579a1.788,1.788,0,0,0-1.786,1.786v13.344a1.788,1.788,0,0,0,1.786,1.786h2.579a1.788,1.788,0,0,0,1.786-1.786V368.823A1.788,1.788,0,0,0,198.047,367.037Zm-.357,14.773h-1.865V369.18h1.865Z" transform="translate(-170.363 -313.058)"/>
      <path id="Path_942424" data-name="Path 942424" d="M268.613,444.5H246.83a1.072,1.072,0,1,0,0,2.143h21.784a1.072,1.072,0,0,0,0-2.143Z" transform="translate(-214.78 -379.132)"/>
      <path id="Path_942425" data-name="Path 942425" d="M341.156,64.168h3.852a1.788,1.788,0,0,0,1.786-1.786v-6.07a1.788,1.788,0,0,0-1.786-1.786h-3.852a1.788,1.788,0,0,0-1.786,1.786v6.07A1.788,1.788,0,0,0,341.156,64.168Zm.357-7.5h3.138v5.356h-3.138Z" transform="translate(-294.625 -46.507)"/>
      <g id="Group_1169401" data-name="Group 1169401" transform="translate(29.973 8.019)">
        <g id="Group_1169400" data-name="Group 1169400">
          <path id="Path_942426" data-name="Path 942426" d="M244.561,64.168h-3.852a1.788,1.788,0,0,1-1.786-1.786v-6.07a1.788,1.788,0,0,1,1.786-1.786h3.852a1.788,1.788,0,0,1,1.786,1.786v6.07A1.788,1.788,0,0,1,244.561,64.168Zm-3.5-2.143H244.2V56.669h-3.138Z" transform="translate(-238.923 -54.526)"/>
        </g>
      </g>
    </g>
  </g>
</svg>
