<svg xmlns="http://www.w3.org/2000/svg" width="662" height="300" viewBox="0 0 662 300">
  <g id="Group_1173171" data-name="Group 1173171" transform="translate(-705.422 -1178)">
    <rect id="Rectangle_448922" data-name="Rectangle 448922" width="662" height="300" transform="translate(705.422 1178)" fill="#bcc3de"/>
    <g id="_5702640_2994023" data-name="5702640_2994023" transform="translate(780.574 1176.116)">
      <g id="OBJECTS" transform="translate(57.33 20.707)">
        <path id="Path_948244" data-name="Path 948244" d="M104.662,94.331s-34.714,8.935-44.422,44.456,20.8,59.5,52.7,87.731,47.963,51.19,47.963,51.19H343.5s72.7-17.567,89.577-66.262S410.136,154.78,399.734,140.5s-10.8-44.941-14.963-79.3-59.636-57.479-95.7-24.656-58.249,63.951-95.7,61.794S143.537,86.472,104.662,94.331Z" transform="translate(-57.735 -20.707)" fill="#d7ccff"/>
        <path id="Path_948245" data-name="Path 948245" d="M146.434,296.413s-32.3-24.335-38.493-65.925,46.9-65.925,56.633-82.3,10.618-65.482,57.961-76.1,67.695,30.971,80.525,44.244,48.227,7.521,77.428,6.637,75.216,30.086,56.633,98.665-32.741,74.773-32.741,74.773H146.434Z" transform="translate(-76.157 -39.368)" fill="#f4f3fe"/>
        <g id="Group_1173172" data-name="Group 1173172" transform="translate(46.708 109.752)">
          <path id="Path_948246" data-name="Path 948246" d="M189.551,351.263S120.087,293.892,163,215.579" transform="translate(-138.482 -203.675)" fill="none" stroke="#f2c73c" stroke-linecap="round" stroke-linejoin="round" stroke-miterlimit="10" stroke-width="1"/>
          <path id="Path_948247" data-name="Path 948247" d="M159.228,368.792s-6.463-8.055-11.411-4.464C141.315,369.048,152.364,376.648,159.228,368.792Z" transform="translate(-137.293 -259.215)" fill="#f2c73c"/>
          <path id="Path_948248" data-name="Path 948248" d="M166.683,363.138s-2.657-9.98,3.168-11.836C177.506,348.862,177.078,362.265,166.683,363.138Z" transform="translate(-144.896 -254.556)" fill="#f2c73c"/>
          <path id="Path_948249" data-name="Path 948249" d="M158.442,345.974s-2.657-9.98,3.168-11.837C169.265,331.7,168.838,345.1,158.442,345.974Z" transform="translate(-141.8 -248.107)" fill="#f2c73c"/>
          <path id="Path_948250" data-name="Path 948250" d="M152.265,322.027s-2.657-9.98,3.168-11.836C163.088,307.752,162.661,321.154,152.265,322.027Z" transform="translate(-139.479 -239.11)" fill="#f2c73c"/>
          <path id="Path_948251" data-name="Path 948251" d="M149.009,299.09s-.3-10.323,5.8-10.793C162.819,287.68,159.327,300.627,149.009,299.09Z" transform="translate(-138.482 -230.988)" fill="#f2c73c"/>
          <path id="Path_948252" data-name="Path 948252" d="M150.716,272.251s-.3-10.323,5.8-10.793C164.526,260.841,161.034,273.788,150.716,272.251Z" transform="translate(-139.123 -220.904)" fill="#f2c73c"/>
          <path id="Path_948253" data-name="Path 948253" d="M157.944,238.4s3.007-9.88,8.935-8.384C174.669,231.98,167.236,243.142,157.944,238.4Z" transform="translate(-141.84 -209.041)" fill="#f2c73c"/>
          <path id="Path_948254" data-name="Path 948254" d="M151.463,349.225s-3.3-9.787-9.179-8.116C134.555,343.3,142.315,354.24,151.463,349.225Z" transform="translate(-134.769 -250.766)" fill="#f2c73c"/>
          <path id="Path_948255" data-name="Path 948255" d="M145.177,324.862s-3.3-9.787-9.179-8.116C128.269,318.939,136.029,329.876,145.177,324.862Z" transform="translate(-132.407 -241.612)" fill="#f2c73c"/>
          <path id="Path_948256" data-name="Path 948256" d="M142.672,298.964s-.169-10.326-6.279-10.522C128.363,288.186,132.434,300.963,142.672,298.964Z" transform="translate(-132.148 -231.049)" fill="#f2c73c"/>
          <path id="Path_948257" data-name="Path 948257" d="M144.088,272.125s-.169-10.326-6.279-10.522C129.779,261.346,133.849,274.124,144.088,272.125Z" transform="translate(-132.68 -220.965)" fill="#f2c73c"/>
          <path id="Path_948258" data-name="Path 948258" d="M152.517,237.144s-.169-10.326-6.279-10.522C138.208,226.365,142.279,239.143,152.517,237.144Z" transform="translate(-135.847 -207.822)" fill="#f2c73c"/>
          <path id="Path_948259" data-name="Path 948259" d="M169.386,209.166s9.52-4,7.425-9.747C174.058,191.87,163.717,200.408,169.386,209.166Z" transform="translate(-145.511 -196.51)" fill="#f2c73c"/>
        </g>
        <g id="Group_1173173" data-name="Group 1173173" transform="translate(308.471 97.402)">
          <path id="Path_948260" data-name="Path 948260" d="M578.437,194.317s-7.964,15.928-2.654,38.05,23.007,47.342-24.335,110.612" transform="translate(-551.448 -183.337)" fill="none" stroke="#f2c73c" stroke-linecap="round" stroke-linejoin="round" stroke-miterlimit="10" stroke-width="1"/>
          <path id="Path_948261" data-name="Path 948261" d="M592.136,340.6s1.455-10.225-4.549-11.377C579.7,327.707,581.711,340.965,592.136,340.6Z" transform="translate(-563.218 -233.977)" fill="#f2c73c"/>
          <path id="Path_948262" data-name="Path 948262" d="M595.992,313.189s1.455-10.225-4.55-11.377C583.553,300.3,585.567,313.556,595.992,313.189Z" transform="translate(-564.666 -223.679)" fill="#f2c73c"/>
          <path id="Path_948263" data-name="Path 948263" d="M593.117,287.059s-3.585-9.685-9.414-7.842C576.042,281.638,584.121,292.341,593.117,287.059Z" transform="translate(-562.417 -215.147)" fill="#f2c73c"/>
          <path id="Path_948264" data-name="Path 948264" d="M588.114,265.635s-1.263-10.25-7.36-9.8C572.742,256.434,578.145,268.708,588.114,265.635Z" transform="translate(-561.005 -206.446)" fill="#f2c73c"/>
          <path id="Path_948265" data-name="Path 948265" d="M580.886,236.666s-3.093-9.853-9.008-8.306C564.106,230.393,571.636,241.489,580.886,236.666Z" transform="translate(-557.91 -196.066)" fill="#f2c73c"/>
          <path id="Path_948266" data-name="Path 948266" d="M582.674,208.794s.294-10.323-5.8-10.793C568.863,197.385,572.357,210.331,582.674,208.794Z" transform="translate(-559.345 -184.713)" fill="#f2c73c"/>
          <path id="Path_948267" data-name="Path 948267" d="M590.952,190s8.515-5.845,5.3-11.046C592.033,172.114,583.63,182.565,590.952,190Z" transform="translate(-565.205 -176.729)" fill="#f2c73c"/>
          <path id="Path_948268" data-name="Path 948268" d="M597.619,343.7s5.462-8.764,10.8-5.785C615.435,341.832,605.366,350.689,597.619,343.7Z" transform="translate(-568.795 -237.058)" fill="#f2c73c"/>
          <path id="Path_948269" data-name="Path 948269" d="M601.875,314.116s5.463-8.764,10.8-5.785C619.692,312.246,609.622,321.1,601.875,314.116Z" transform="translate(-570.394 -225.942)" fill="#f2c73c"/>
          <path id="Path_948270" data-name="Path 948270" d="M600.2,286.013s1.579-10.206,7.659-9.563C615.851,277.293,610.07,289.393,600.2,286.013Z" transform="translate(-569.765 -214.184)" fill="#f2c73c"/>
          <path id="Path_948271" data-name="Path 948271" d="M594.871,265.51s1.579-10.206,7.659-9.563C610.521,256.79,604.74,268.89,594.871,265.51Z" transform="translate(-567.763 -206.481)" fill="#f2c73c"/>
          <path id="Path_948272" data-name="Path 948272" d="M588.2,235.607s1.579-10.206,7.659-9.563C603.852,226.888,598.072,238.988,588.2,235.607Z" transform="translate(-565.257 -195.246)" fill="#f2c73c"/>
          <path id="Path_948273" data-name="Path 948273" d="M588.821,209.017s1.579-10.206,7.659-9.563C604.471,200.3,598.69,212.4,588.821,209.017Z" transform="translate(-565.49 -185.256)" fill="#f2c73c"/>
        </g>
        <g id="Group_1173174" data-name="Group 1173174" transform="translate(66.604 145.673)">
          <path id="Path_948274" data-name="Path 948274" d="M203.657,349.088s-15.9-33.593-27.962-51.027-18.709-41.548-.039-43.934S210.643,305.513,203.657,349.088Z" transform="translate(-164.018 -254.05)" fill="#6958fe"/>
          <path id="Path_948275" data-name="Path 948275" d="M180.022,254.127a16.765,16.765,0,0,0-4.381,1.131l10.086,16.649s20.273,39.03,22.3,77.181C215.01,305.512,198.693,251.741,180.022,254.127Z" transform="translate(-168.385 -254.05)" fill="#3500b7"/>
          <path id="Path_948276" data-name="Path 948276" d="M191.8,282.655s20.273,39.03,22.3,77.181" transform="translate(-174.454 -264.797)" fill="none" stroke="#341f78" stroke-miterlimit="10" stroke-width="1"/>
        </g>
        <g id="Group_1173175" data-name="Group 1173175" transform="translate(28.726 175.414)">
          <path id="Path_948277" data-name="Path 948277" d="M154.869,383.321s-26.864,1.147-43.213-21.68-3.54-59.95-3.54-59.95.443,20.587,25.22,29.428S164.012,368.278,154.869,383.321Z" transform="translate(-103.344 -301.691)" fill="#62b1cc"/>
          <path id="Path_948278" data-name="Path 948278" d="M154.869,383.321c-1.033-11.5-8.7-11.5-23.729-24.777s-17.714-33.176-17.714-33.176-5.974-12.834-5.31-23.676c0,0-12.808,37.123,3.54,59.95S154.869,383.321,154.869,383.321Z" transform="translate(-103.344 -301.691)" fill="#77c6e9"/>
          <path id="Path_948279" data-name="Path 948279" d="M119.494,339.617s2.686,19.9,17.714,33.176,22.7,13.274,23.729,24.777" transform="translate(-109.412 -315.94)" fill="none" stroke="#508ba3" stroke-linecap="round" stroke-linejoin="round" stroke-miterlimit="10" stroke-width="1"/>
        </g>
        <g id="Group_1173176" data-name="Group 1173176" transform="translate(289.833 141.831)">
          <path id="Path_948280" data-name="Path 948280" d="M523.241,342.934s15.9-33.593,27.962-51.027,18.709-41.548.039-43.934S516.255,299.359,523.241,342.934Z" transform="translate(-521.592 -247.896)" fill="#6958fe"/>
          <path id="Path_948281" data-name="Path 948281" d="M551.243,247.974a16.765,16.765,0,0,1,4.381,1.131l-10.086,16.649s-20.273,39.03-22.3,77.181C516.255,299.359,532.573,245.588,551.243,247.974Z" transform="translate(-521.592 -247.897)" fill="#3500b7"/>
          <path id="Path_948282" data-name="Path 948282" d="M546.531,276.5s-20.273,39.03-22.3,77.181" transform="translate(-522.585 -258.643)" fill="none" stroke="#341f78" stroke-miterlimit="10" stroke-width="1"/>
        </g>
        <g id="Group_1173177" data-name="Group 1173177" transform="translate(287.838 175.414)">
          <path id="Path_948283" data-name="Path 948283" d="M522.464,383.321s26.864,1.147,43.213-21.68,3.54-59.95,3.54-59.95-.443,20.587-25.22,29.428S513.32,368.278,522.464,383.321Z" transform="translate(-518.397 -301.691)" fill="#62b1cc"/>
          <path id="Path_948284" data-name="Path 948284" d="M524.911,383.321c1.033-11.5,8.7-11.5,23.729-24.777s17.713-33.176,17.713-33.176,5.974-12.834,5.31-23.676c0,0,12.808,37.123-3.54,59.95S524.911,383.321,524.911,383.321Z" transform="translate(-520.844 -301.691)" fill="#77c6e9"/>
          <path id="Path_948285" data-name="Path 948285" d="M566.353,339.617s-2.686,19.9-17.713,33.176-22.7,13.274-23.729,24.777" transform="translate(-520.844 -315.94)" fill="none" stroke="#508ba3" stroke-linecap="round" stroke-linejoin="round" stroke-miterlimit="10" stroke-width="1"/>
        </g>
        <path id="Path_948286" data-name="Path 948286" d="M428.418,437.758H152.346a2.441,2.441,0,0,1-2.441-2.441v-.428a2.44,2.44,0,0,1,2.441-2.44H428.418a2.441,2.441,0,0,1,2.441,2.44v.428A2.441,2.441,0,0,1,428.418,437.758Z" transform="translate(-92.112 -175.404)" fill="#d7ccff"/>
        <g id="Group_1173178" data-name="Group 1173178" transform="translate(67.051 192.669)">
          <path id="Path_948287" data-name="Path 948287" d="M264.621,393.7h-92.7l-7.146-58.36a5.364,5.364,0,0,1,5.324-6.016h94.523V393.7Z" transform="translate(-164.734 -329.329)" fill="#a8852d"/>
        </g>
        <g id="Group_1173182" data-name="Group 1173182" transform="translate(91.09 122.399)">
          <g id="Group_1173179" data-name="Group 1173179" transform="translate(18.573 23.702)">
            <circle id="Ellipse_13717" data-name="Ellipse 13717" cx="10.925" cy="10.925" r="10.925" transform="translate(0)" fill="#9281ff"/>
            <path id="Path_948288" data-name="Path 948288" d="M250.7,271.694a10.91,10.91,0,0,1-9.432-16.42,10.919,10.919,0,1,0,12.079,16.083A10.92,10.92,0,0,1,250.7,271.694Z" transform="translate(-232.99 -254.938)" fill="#8078ef"/>
          </g>
          <g id="Group_1173180" data-name="Group 1173180" transform="translate(0)">
            <circle id="Ellipse_13718" data-name="Ellipse 13718" cx="7.369" cy="7.369" r="7.369" fill="#9281ff"/>
            <path id="Path_948289" data-name="Path 948289" d="M215.185,228.208a7.36,7.36,0,0,1-6.362-11.075,7.365,7.365,0,1,0,8.148,10.848A7.362,7.362,0,0,1,215.185,228.208Z" transform="translate(-203.24 -216.906)" fill="#8078ef"/>
          </g>
          <g id="Group_1173181" data-name="Group 1173181" transform="translate(25.556 3.192)">
            <path id="Path_948290" data-name="Path 948290" d="M252.059,225.823a3.941,3.941,0,1,1-3.941-3.941A3.941,3.941,0,0,1,252.059,225.823Z" transform="translate(-244.177 -221.882)" fill="#9281ff"/>
            <path id="Path_948291" data-name="Path 948291" d="M250.565,228a3.936,3.936,0,0,1-3.4-5.923,3.939,3.939,0,1,0,4.358,5.8A3.948,3.948,0,0,1,250.565,228Z" transform="translate(-244.177 -221.955)" fill="#8078ef"/>
          </g>
        </g>
        <g id="Group_1173186" data-name="Group 1173186" transform="translate(269.28 121.72)">
          <g id="Group_1173183" data-name="Group 1173183" transform="translate(0 22.101)">
            <circle id="Ellipse_13719" data-name="Ellipse 13719" cx="10.925" cy="10.925" r="10.925" transform="translate(0 3.481) rotate(-9.167)" fill="#9281ff"/>
            <path id="Path_948292" data-name="Path 948292" d="M496.291,270.606a10.91,10.91,0,0,0,9.432-16.42,10.919,10.919,0,1,1-12.079,16.084A10.9,10.9,0,0,0,496.291,270.606Z" transform="translate(-490.539 -252.249)" fill="#8078ef"/>
          </g>
          <g id="Group_1173184" data-name="Group 1173184" transform="translate(27.296)">
            <circle id="Ellipse_13720" data-name="Ellipse 13720" cx="7.369" cy="7.369" r="7.369" fill="#9281ff"/>
            <path id="Path_948293" data-name="Path 948293" d="M535.793,227.12a7.36,7.36,0,0,0,6.362-11.075,7.365,7.365,0,1,1-8.148,10.848A7.356,7.356,0,0,0,535.793,227.12Z" transform="translate(-533 -215.818)" fill="#8078ef"/>
          </g>
          <g id="Group_1173185" data-name="Group 1173185" transform="translate(8.595 3.192)">
            <path id="Path_948294" data-name="Path 948294" d="M502.438,224.735a3.941,3.941,0,1,0,3.941-3.941A3.941,3.941,0,0,0,502.438,224.735Z" transform="translate(-502.438 -220.794)" fill="#9281ff"/>
            <path id="Path_948295" data-name="Path 948295" d="M504.256,226.912a3.936,3.936,0,0,0,3.4-5.923,3.939,3.939,0,1,1-4.357,5.8A3.953,3.953,0,0,0,504.256,226.912Z" transform="translate(-502.762 -220.867)" fill="#8078ef"/>
          </g>
        </g>
        <g id="Group_1173196" data-name="Group 1173196" transform="translate(113.78 137.005)">
          <g id="Group_1173189" data-name="Group 1173189" transform="translate(117.002 41.317)">
            <rect id="Rectangle_449082" data-name="Rectangle 449082" width="72.229" height="68.612" transform="matrix(0.975, 0.22, -0.22, 0.975, 15.095, 0)" fill="#1e1551"/>
            <g id="Group_1173188" data-name="Group 1173188" transform="translate(5.724 1.968)">
              <rect id="Rectangle_449083" data-name="Rectangle 449083" width="69.082" height="47.182" transform="matrix(0.975, 0.22, -0.22, 0.975, 10.38, 0.008)" fill="#fff"/>
              <g id="Group_1173187" data-name="Group 1173187" transform="translate(0.01)">
                <path id="Path_948296" data-name="Path 948296" d="M436.187,355.528l67.39,15.2L446.566,309.5Z" transform="translate(-436.187 -309.501)" fill="#f7f9f9"/>
                <path id="Path_948297" data-name="Path 948297" d="M513.986,372.277l-29.223-6.589s12.095-20.452,19.781-19.632S513.986,372.277,513.986,372.277Z" transform="translate(-454.438 -323.226)" fill="#aca2dd"/>
                <path id="Path_948298" data-name="Path 948298" d="M498.658,358.1a34.088,34.088,0,0,1,5.883-12.042c-7.686-.815-19.778,19.632-19.778,19.632l16.3,3.675C499.381,366.616,497.622,362.459,498.658,358.1Z" transform="translate(-454.438 -323.227)" fill="#8d85c1"/>
                <path id="Path_948299" data-name="Path 948299" d="M452.143,359.826,488.7,368.07s-6.166-18.912-11.409-23.927S463.257,347.365,452.143,359.826Z" transform="translate(-442.182 -321.956)" fill="#d7ccff"/>
                <path id="Path_948300" data-name="Path 948300" d="M504.359,335.973a4.051,4.051,0,1,1-3.06-4.843A4.05,4.05,0,0,1,504.359,335.973Z" transform="translate(-458.793 -317.59)" fill="#d7ccff"/>
                <path id="Path_948301" data-name="Path 948301" d="M465.171,356.517a20.448,20.448,0,0,1,6.236-13.244c-5.052,1.624-11.607,8.2-19.263,16.786l14.03,3.163A13.846,13.846,0,0,1,465.171,356.517Z" transform="translate(-442.182 -322.19)" fill="#aca2dd"/>
              </g>
            </g>
          </g>
          <g id="Group_1173192" data-name="Group 1173192" transform="translate(60.915)">
            <rect id="Rectangle_449084" data-name="Rectangle 449084" width="87.956" height="83.55" transform="translate(16.618 0) rotate(11.473)" fill="#291a68"/>
            <g id="Group_1173191" data-name="Group 1173191" transform="translate(6.47 2.378)">
              <rect id="Rectangle_449085" data-name="Rectangle 449085" width="84.123" height="57.455" transform="translate(11.429 0) rotate(11.473)" fill="#fff"/>
              <g id="Group_1173190" data-name="Group 1173190" transform="translate(0 0.007)">
                <path id="Path_948302" data-name="Path 948302" d="M347.524,300.294l82.442,16.733-71.013-73.04Z" transform="translate(-347.524 -243.987)" fill="#f7f9f9"/>
                <path id="Path_948303" data-name="Path 948303" d="M442.264,318.5l-35.75-7.256s14.189-25.217,23.567-24.419S442.264,318.5,442.264,318.5Z" transform="translate(-369.687 -260.076)" fill="#aca2dd"/>
                <path id="Path_948304" data-name="Path 948304" d="M423.232,301.643a41.51,41.51,0,0,1,6.847-14.815c-9.379-.79-23.564,24.42-23.564,24.42l19.937,4.047C424.335,311.994,422.085,306.979,423.232,301.643Z" transform="translate(-369.688 -260.076)" fill="#8d85c1"/>
                <path id="Path_948305" data-name="Path 948305" d="M366.608,304.931l44.727,9.078s-8-22.863-14.518-28.831S379.812,289.47,366.608,304.931Z" transform="translate(-354.694 -258.816)" fill="#d7ccff"/>
                <path id="Path_948306" data-name="Path 948306" d="M429.345,274.8a4.932,4.932,0,1,1-3.852-5.815A4.932,4.932,0,0,1,429.345,274.8Z" transform="translate(-374.595 -253.341)" fill="#d7ccff"/>
                <path id="Path_948307" data-name="Path 948307" d="M382.375,300.6a24.9,24.9,0,0,1,7.244-16.288c-6.108,2.109-13.915,10.29-23.012,20.941l17.163,3.483A16.878,16.878,0,0,1,382.375,300.6Z" transform="translate(-354.694 -259.137)" fill="#aca2dd"/>
              </g>
            </g>
          </g>
          <g id="Group_1173195" data-name="Group 1173195" transform="translate(0 2.754)">
            <rect id="Rectangle_449086" data-name="Rectangle 449086" width="101.232" height="96.162" transform="matrix(0.979, -0.205, 0.205, 0.979, 0, 20.722)" fill="#341f78"/>
            <g id="Group_1173194" data-name="Group 1173194" transform="translate(2.436 2.835)">
              <rect id="Rectangle_449087" data-name="Rectangle 449087" width="96.821" height="66.128" transform="matrix(0.979, -0.205, 0.205, 0.979, 0.001, 19.819)" fill="#fff"/>
              <g id="Group_1173193" data-name="Group 1173193" transform="translate(0 18.292)">
                <path id="Path_948308" data-name="Path 948308" d="M257.02,345.611l94.772-19.816-108.3-44.912Z" transform="translate(-243.487 -279.344)" fill="#f7f9f9"/>
                <path id="Path_948309" data-name="Path 948309" d="M364.884,318.291l-41.1,8.593s3.528-33.115,13.807-36.538S364.884,318.291,364.884,318.291Z" transform="translate(-273.657 -282.801)" fill="#aca2dd"/>
                <path id="Path_948310" data-name="Path 948310" d="M337.093,309.284a47.774,47.774,0,0,1,.5-18.777c-10.275,3.431-13.8,36.537-13.8,36.537l22.919-4.792C342.968,319.725,338.307,315.447,337.093,309.284Z" transform="translate(-273.658 -282.96)" fill="#8d85c1"/>
                <path id="Path_948311" data-name="Path 948311" d="M277.913,337.513l51.416-10.75s-18.862-20.53-28.465-23.876S284.839,315.16,277.913,337.513Z" transform="translate(-256.421 -287.442)" fill="#d7ccff"/>
                <path id="Path_948312" data-name="Path 948312" d="M325.724,282.934a5.677,5.677,0,1,1-6.719-4.395A5.677,5.677,0,0,1,325.724,282.934Z" transform="translate(-270.164 -278.418)" fill="#d7ccff"/>
                <path id="Path_948313" data-name="Path 948313" d="M292.465,326.906a28.661,28.661,0,0,1,.249-20.516c-5.5,5.009-10.03,17.21-14.8,32.608l19.73-4.125A19.419,19.419,0,0,1,292.465,326.906Z" transform="translate(-256.421 -288.927)" fill="#aca2dd"/>
              </g>
            </g>
          </g>
        </g>
        <g id="Group_1173197" data-name="Group 1173197" transform="translate(173.393 75.913)">
          <path id="Path_948314" data-name="Path 948314" d="M360,142.306l-24.925,25.072h10.914v17.108H374.01V167.378h10.914Z" transform="translate(-335.075 -142.306)" fill="#341f78"/>
          <rect id="Rectangle_449088" data-name="Rectangle 449088" width="28.427" height="2.876" transform="translate(10.803 44.355)" fill="#341f78"/>
          <rect id="Rectangle_449089" data-name="Rectangle 449089" width="28.427" height="1.438" transform="translate(10.803 48.89)" fill="#341f78"/>
          <path id="Path_948315" data-name="Path 948315" d="M360.912,185.483c-11.264-9.271-5.939-30.47-2.559-40.523l-23.277,23.415H345.99v17.108Z" transform="translate(-335.075 -143.303)" fill="#24175b"/>
          <path id="Path_948316" data-name="Path 948316" d="M385.557,163.494c-1.094,1.094-3.8.16-6.049-2.086s-3.18-4.954-2.086-6.049,3.8-.16,6.049,2.086S386.651,162.4,385.557,163.494Z" transform="translate(-350.813 -147.038)" fill="#7364af"/>
        </g>
        <g id="Group_1173302" data-name="Group 1173302" transform="translate(0 9.362)">
          <g id="Group_1173210" data-name="Group 1173210" transform="translate(130.019 58.22)">
            <g id="Group_1173198" data-name="Group 1173198" transform="translate(7.857)">
              <path id="Path_948317" data-name="Path 948317" d="M278.645,132.741a.461.461,0,0,1-.461-.461v-2.855a.461.461,0,0,1,.923,0v2.855A.461.461,0,0,1,278.645,132.741Z" transform="translate(-278.184 -128.963)" fill="#9281ff"/>
            </g>
            <g id="Group_1173199" data-name="Group 1173199" transform="translate(10.33 1.017)">
              <path id="Path_948318" data-name="Path 948318" d="M282.607,134a.461.461,0,0,1-.4-.688l1.4-2.487a.461.461,0,1,1,.8.453l-1.4,2.487A.461.461,0,0,1,282.607,134Z" transform="translate(-282.146 -130.592)" fill="#9281ff"/>
            </g>
            <g id="Group_1173200" data-name="Group 1173200" transform="translate(12.166 3.809)">
              <path id="Path_948319" data-name="Path 948319" d="M285.548,137.463a.461.461,0,0,1-.239-.856l2.443-1.476a.461.461,0,0,1,.477.789l-2.443,1.477A.468.468,0,0,1,285.548,137.463Z" transform="translate(-285.086 -135.064)" fill="#9281ff"/>
            </g>
            <g id="Group_1173201" data-name="Group 1173201" transform="translate(12.889 7.653)">
              <path id="Path_948320" data-name="Path 948320" d="M286.706,142.229a.461.461,0,0,1-.014-.922l2.854-.086a.461.461,0,1,1,.028.922l-2.854.086Z" transform="translate(-286.245 -141.222)" fill="#9281ff"/>
            </g>
            <g id="Group_1173202" data-name="Group 1173202" transform="translate(12.314 10.23)">
              <path id="Path_948321" data-name="Path 948321" d="M288.312,147.6a.458.458,0,0,1-.214-.053l-2.528-1.328A.461.461,0,1,1,286,145.4l2.528,1.328a.461.461,0,0,1-.215.87Z" transform="translate(-285.323 -145.349)" fill="#9281ff"/>
            </g>
            <g id="Group_1173203" data-name="Group 1173203" transform="translate(10.589 12.118)">
              <path id="Path_948322" data-name="Path 948322" d="M284.571,151.694a.46.46,0,0,1-.388-.211l-1.549-2.4a.461.461,0,1,1,.775-.5l1.549,2.4a.461.461,0,0,1-.387.711Z" transform="translate(-282.56 -148.373)" fill="#9281ff"/>
            </g>
            <g id="Group_1173204" data-name="Group 1173204" transform="translate(8.159 12.913)">
              <path id="Path_948323" data-name="Path 948323" d="M279.3,153.421a.461.461,0,0,1-.46-.433l-.171-2.85a.461.461,0,1,1,.921-.056l.171,2.85a.461.461,0,0,1-.433.488Z" transform="translate(-278.668 -149.648)" fill="#9281ff"/>
            </g>
            <g id="Group_1173205" data-name="Group 1173205" transform="translate(4.4 12.413)">
              <path id="Path_948324" data-name="Path 948324" d="M273.107,152.336a.461.461,0,0,1-.415-.664l1.251-2.566a.461.461,0,0,1,.829.4l-1.251,2.566A.461.461,0,0,1,273.107,152.336Z" transform="translate(-272.646 -148.846)" fill="#9281ff"/>
            </g>
            <g id="Group_1173206" data-name="Group 1173206" transform="translate(1.362 10.746)">
              <path id="Path_948325" data-name="Path 948325" d="M268.241,148.719a.461.461,0,0,1-.262-.841l2.351-1.621a.461.461,0,0,1,.523.759l-2.351,1.621A.453.453,0,0,1,268.241,148.719Z" transform="translate(-267.779 -146.176)" fill="#9281ff"/>
            </g>
            <g id="Group_1173207" data-name="Group 1173207" transform="translate(0 8.341)">
              <path id="Path_948326" data-name="Path 948326" d="M266.059,143.5a.461.461,0,0,1-.041-.921l2.844-.257a.461.461,0,1,1,.082.918l-2.844.257A.314.314,0,0,1,266.059,143.5Z" transform="translate(-265.598 -142.324)" fill="#9281ff"/>
            </g>
            <g id="Group_1173208" data-name="Group 1173208" transform="translate(0.666 4.646)">
              <path id="Path_948327" data-name="Path 948327" d="M269.728,138.5a.452.452,0,0,1-.189-.041l-2.6-1.174a.461.461,0,0,1,.379-.841l2.6,1.174a.461.461,0,0,1-.19.882Z" transform="translate(-266.664 -136.405)" fill="#9281ff"/>
            </g>
            <g id="Group_1173209" data-name="Group 1173209" transform="translate(3.187 1.53)">
              <path id="Path_948328" data-name="Path 948328" d="M272.855,134.638a.46.46,0,0,1-.372-.189l-1.691-2.3a.461.461,0,0,1,.744-.546l1.691,2.3a.462.462,0,0,1-.1.645A.455.455,0,0,1,272.855,134.638Z" transform="translate(-270.703 -131.414)" fill="#9281ff"/>
            </g>
          </g>
          <g id="Group_1173223" data-name="Group 1173223" transform="translate(66.037 57.529)">
            <g id="Group_1173211" data-name="Group 1173211" transform="translate(7.857)">
              <path id="Path_948329" data-name="Path 948329" d="M176.157,131.634a.461.461,0,0,1-.461-.461v-2.855a.461.461,0,1,1,.923,0v2.855A.461.461,0,0,1,176.157,131.634Z" transform="translate(-175.696 -127.856)" fill="#9281ff"/>
            </g>
            <g id="Group_1173212" data-name="Group 1173212" transform="translate(10.33 1.017)">
              <path id="Path_948330" data-name="Path 948330" d="M180.119,132.9a.461.461,0,0,1-.4-.688l1.4-2.487a.462.462,0,1,1,.8.453l-1.4,2.487A.462.462,0,0,1,180.119,132.9Z" transform="translate(-179.658 -129.486)" fill="#9281ff"/>
            </g>
            <g id="Group_1173213" data-name="Group 1173213" transform="translate(12.166 3.808)">
              <path id="Path_948331" data-name="Path 948331" d="M183.059,136.356a.461.461,0,0,1-.239-.856l2.443-1.477a.461.461,0,0,1,.477.789l-2.443,1.477A.454.454,0,0,1,183.059,136.356Z" transform="translate(-182.597 -133.956)" fill="#9281ff"/>
            </g>
            <g id="Group_1173214" data-name="Group 1173214" transform="translate(12.889 7.653)">
              <path id="Path_948332" data-name="Path 948332" d="M184.218,141.122a.461.461,0,0,1-.014-.922l2.854-.086a.461.461,0,1,1,.028.921l-2.854.086Z" transform="translate(-183.757 -140.115)" fill="#9281ff"/>
            </g>
            <g id="Group_1173215" data-name="Group 1173215" transform="translate(12.313 10.23)">
              <path id="Path_948333" data-name="Path 948333" d="M185.823,146.493a.458.458,0,0,1-.214-.053l-2.528-1.328a.461.461,0,1,1,.429-.817l2.528,1.328a.461.461,0,0,1-.215.87Z" transform="translate(-182.834 -144.242)" fill="#9281ff"/>
            </g>
            <g id="Group_1173216" data-name="Group 1173216" transform="translate(10.589 12.118)">
              <path id="Path_948334" data-name="Path 948334" d="M182.083,150.588a.46.46,0,0,1-.388-.211l-1.549-2.4a.461.461,0,1,1,.775-.5l1.549,2.4a.461.461,0,0,1-.387.711Z" transform="translate(-180.072 -147.267)" fill="#9281ff"/>
            </g>
            <g id="Group_1173217" data-name="Group 1173217" transform="translate(8.159 12.913)">
              <path id="Path_948335" data-name="Path 948335" d="M176.812,152.314a.461.461,0,0,1-.46-.434l-.171-2.85a.461.461,0,0,1,.921-.056l.171,2.85a.462.462,0,0,1-.433.488Z" transform="translate(-176.18 -148.541)" fill="#9281ff"/>
            </g>
            <g id="Group_1173218" data-name="Group 1173218" transform="translate(4.399 12.414)">
              <path id="Path_948336" data-name="Path 948336" d="M170.618,151.23a.461.461,0,0,1-.415-.664L171.455,148a.461.461,0,1,1,.829.4l-1.251,2.566A.46.46,0,0,1,170.618,151.23Z" transform="translate(-170.157 -147.74)" fill="#9281ff"/>
            </g>
            <g id="Group_1173219" data-name="Group 1173219" transform="translate(1.362 10.746)">
              <path id="Path_948337" data-name="Path 948337" d="M165.753,147.612a.461.461,0,0,1-.262-.841l2.351-1.621a.461.461,0,0,1,.523.759l-2.351,1.621A.453.453,0,0,1,165.753,147.612Z" transform="translate(-165.291 -145.069)" fill="#9281ff"/>
            </g>
            <g id="Group_1173220" data-name="Group 1173220" transform="translate(0 8.343)">
              <path id="Path_948338" data-name="Path 948338" d="M163.571,142.4a.461.461,0,0,1-.041-.92l2.844-.257a.461.461,0,0,1,.082.919l-2.844.257Z" transform="translate(-163.11 -141.219)" fill="#9281ff"/>
            </g>
            <g id="Group_1173221" data-name="Group 1173221" transform="translate(0.666 4.646)">
              <path id="Path_948339" data-name="Path 948339" d="M167.24,137.394a.451.451,0,0,1-.189-.041l-2.6-1.174a.461.461,0,0,1,.379-.841l2.6,1.174a.462.462,0,0,1-.19.882Z" transform="translate(-164.176 -135.298)" fill="#9281ff"/>
            </g>
            <g id="Group_1173222" data-name="Group 1173222" transform="translate(3.187 1.531)">
              <path id="Path_948340" data-name="Path 948340" d="M170.367,133.532a.461.461,0,0,1-.372-.188l-1.691-2.3a.461.461,0,1,1,.744-.546l1.691,2.3a.461.461,0,0,1-.371.734Z" transform="translate(-168.215 -130.309)" fill="#9281ff"/>
            </g>
          </g>
          <g id="Group_1173236" data-name="Group 1173236" transform="translate(362.794 210.362)">
            <g id="Group_1173224" data-name="Group 1173224" transform="translate(7.857)">
              <path id="Path_948341" data-name="Path 948341" d="M651.511,376.446a.462.462,0,0,1-.461-.461v-2.855a.461.461,0,0,1,.923,0v2.855A.462.462,0,0,1,651.511,376.446Z" transform="translate(-651.05 -372.668)" fill="#9281ff"/>
            </g>
            <g id="Group_1173225" data-name="Group 1173225" transform="translate(10.331 1.017)">
              <path id="Path_948342" data-name="Path 948342" d="M655.474,377.707a.461.461,0,0,1-.4-.688l1.4-2.487a.462.462,0,1,1,.8.453l-1.4,2.487A.462.462,0,0,1,655.474,377.707Z" transform="translate(-655.013 -374.296)" fill="#9281ff"/>
            </g>
            <g id="Group_1173226" data-name="Group 1173226" transform="translate(12.166 3.808)">
              <path id="Path_948343" data-name="Path 948343" d="M658.413,381.168a.461.461,0,0,1-.239-.856l2.443-1.477a.461.461,0,0,1,.477.789l-2.443,1.477A.453.453,0,0,1,658.413,381.168Z" transform="translate(-657.951 -378.768)" fill="#9281ff"/>
            </g>
            <g id="Group_1173227" data-name="Group 1173227" transform="translate(12.889 7.653)">
              <path id="Path_948344" data-name="Path 948344" d="M659.572,385.934a.461.461,0,0,1-.013-.922l2.854-.086a.461.461,0,1,1,.028.921l-2.854.086Z" transform="translate(-659.111 -384.926)" fill="#9281ff"/>
            </g>
            <g id="Group_1173228" data-name="Group 1173228" transform="translate(12.314 10.23)">
              <path id="Path_948345" data-name="Path 948345" d="M661.178,391.3a.459.459,0,0,1-.214-.053l-2.528-1.328a.461.461,0,1,1,.429-.817l2.528,1.328a.461.461,0,0,1-.215.87Z" transform="translate(-658.189 -389.054)" fill="#9281ff"/>
            </g>
            <g id="Group_1173229" data-name="Group 1173229" transform="translate(10.589 12.118)">
              <path id="Path_948346" data-name="Path 948346" d="M657.437,395.4a.46.46,0,0,1-.388-.211l-1.549-2.4a.461.461,0,1,1,.775-.5l1.549,2.4a.461.461,0,0,1-.387.711Z" transform="translate(-655.426 -392.079)" fill="#9281ff"/>
            </g>
            <g id="Group_1173230" data-name="Group 1173230" transform="translate(8.159 12.913)">
              <path id="Path_948347" data-name="Path 948347" d="M652.166,397.126a.461.461,0,0,1-.46-.434l-.171-2.85a.461.461,0,0,1,.921-.056l.171,2.85a.461.461,0,0,1-.433.488Z" transform="translate(-651.534 -393.353)" fill="#9281ff"/>
            </g>
            <g id="Group_1173231" data-name="Group 1173231" transform="translate(4.4 12.414)">
              <path id="Path_948348" data-name="Path 948348" d="M645.973,396.042a.461.461,0,0,1-.414-.664l1.251-2.566a.461.461,0,0,1,.829.4l-1.251,2.566A.462.462,0,0,1,645.973,396.042Z" transform="translate(-645.512 -392.552)" fill="#9281ff"/>
            </g>
            <g id="Group_1173232" data-name="Group 1173232" transform="translate(1.362 10.746)">
              <path id="Path_948349" data-name="Path 948349" d="M641.107,392.424a.461.461,0,0,1-.262-.841l2.351-1.621a.461.461,0,0,1,.523.76l-2.351,1.621A.456.456,0,0,1,641.107,392.424Z" transform="translate(-640.645 -389.88)" fill="#9281ff"/>
            </g>
            <g id="Group_1173233" data-name="Group 1173233" transform="translate(0 8.343)">
              <path id="Path_948350" data-name="Path 948350" d="M638.925,387.209a.461.461,0,0,1-.041-.92l2.844-.257a.461.461,0,1,1,.082.919l-2.844.257Z" transform="translate(-638.464 -386.031)" fill="#9281ff"/>
            </g>
            <g id="Group_1173234" data-name="Group 1173234" transform="translate(0.666 4.646)">
              <path id="Path_948351" data-name="Path 948351" d="M642.594,382.206a.452.452,0,0,1-.189-.041l-2.6-1.174a.461.461,0,0,1,.379-.841l2.6,1.174a.462.462,0,0,1-.19.882Z" transform="translate(-639.53 -380.11)" fill="#9281ff"/>
            </g>
            <g id="Group_1173235" data-name="Group 1173235" transform="translate(3.187 1.531)">
              <path id="Path_948352" data-name="Path 948352" d="M645.721,378.344a.46.46,0,0,1-.372-.189l-1.691-2.3a.461.461,0,0,1,.744-.546l1.691,2.3a.462.462,0,0,1-.371.735Z" transform="translate(-643.569 -375.12)" fill="#9281ff"/>
            </g>
          </g>
          <g id="Group_1173249" data-name="Group 1173249" transform="translate(238.71 115.768)">
            <g id="Group_1173237" data-name="Group 1173237" transform="translate(7.857)">
              <path id="Path_948353" data-name="Path 948353" d="M452.75,224.922a.461.461,0,0,1-.461-.461v-2.855a.461.461,0,0,1,.923,0v2.855A.462.462,0,0,1,452.75,224.922Z" transform="translate(-452.289 -221.144)" fill="#9281ff"/>
            </g>
            <g id="Group_1173238" data-name="Group 1173238" transform="translate(10.33 1.017)">
              <path id="Path_948354" data-name="Path 948354" d="M456.712,226.183a.461.461,0,0,1-.4-.688l1.4-2.487a.462.462,0,0,1,.8.453l-1.4,2.487A.462.462,0,0,1,456.712,226.183Z" transform="translate(-456.251 -222.773)" fill="#9281ff"/>
            </g>
            <g id="Group_1173239" data-name="Group 1173239" transform="translate(12.166 3.808)">
              <path id="Path_948355" data-name="Path 948355" d="M459.652,229.644a.461.461,0,0,1-.239-.856l2.443-1.477a.461.461,0,1,1,.478.79l-2.443,1.476A.463.463,0,0,1,459.652,229.644Z" transform="translate(-459.19 -227.244)" fill="#9281ff"/>
            </g>
            <g id="Group_1173240" data-name="Group 1173240" transform="translate(12.889 7.653)">
              <path id="Path_948356" data-name="Path 948356" d="M460.81,234.41a.461.461,0,0,1-.014-.922l2.854-.086a.461.461,0,0,1,.028.922l-2.854.086Z" transform="translate(-460.349 -233.403)" fill="#9281ff"/>
            </g>
            <g id="Group_1173241" data-name="Group 1173241" transform="translate(12.313 10.23)">
              <path id="Path_948357" data-name="Path 948357" d="M462.416,239.781a.458.458,0,0,1-.214-.053l-2.528-1.328a.461.461,0,1,1,.429-.817l2.528,1.328a.461.461,0,0,1-.215.87Z" transform="translate(-459.427 -237.53)" fill="#9281ff"/>
            </g>
            <g id="Group_1173242" data-name="Group 1173242" transform="translate(10.589 12.118)">
              <path id="Path_948358" data-name="Path 948358" d="M458.676,243.875a.46.46,0,0,1-.388-.211l-1.549-2.4a.461.461,0,1,1,.775-.5l1.549,2.4a.461.461,0,0,1-.387.711Z" transform="translate(-456.665 -240.554)" fill="#9281ff"/>
            </g>
            <g id="Group_1173243" data-name="Group 1173243" transform="translate(8.158 12.913)">
              <path id="Path_948359" data-name="Path 948359" d="M453.4,245.6a.461.461,0,0,1-.46-.433l-.171-2.85a.461.461,0,1,1,.921-.056l.171,2.85a.461.461,0,0,1-.433.488Z" transform="translate(-452.772 -241.829)" fill="#9281ff"/>
            </g>
            <g id="Group_1173244" data-name="Group 1173244" transform="translate(4.399 12.413)">
              <path id="Path_948360" data-name="Path 948360" d="M447.211,244.517a.461.461,0,0,1-.415-.664l1.251-2.566a.461.461,0,1,1,.829.4l-1.251,2.566A.461.461,0,0,1,447.211,244.517Z" transform="translate(-446.75 -241.027)" fill="#9281ff"/>
            </g>
            <g id="Group_1173245" data-name="Group 1173245" transform="translate(1.362 10.746)">
              <path id="Path_948361" data-name="Path 948361" d="M442.346,240.9a.461.461,0,0,1-.262-.841l2.351-1.621a.461.461,0,0,1,.523.759l-2.351,1.621A.455.455,0,0,1,442.346,240.9Z" transform="translate(-441.884 -238.357)" fill="#9281ff"/>
            </g>
            <g id="Group_1173246" data-name="Group 1173246" transform="translate(0 8.341)">
              <path id="Path_948362" data-name="Path 948362" d="M440.164,235.684a.461.461,0,0,1-.041-.921l2.844-.257a.461.461,0,1,1,.082.918l-2.844.257A.319.319,0,0,1,440.164,235.684Z" transform="translate(-439.703 -234.505)" fill="#9281ff"/>
            </g>
            <g id="Group_1173247" data-name="Group 1173247" transform="translate(0.665 4.646)">
              <path id="Path_948363" data-name="Path 948363" d="M443.832,230.682a.452.452,0,0,1-.189-.041l-2.6-1.174a.461.461,0,1,1,.379-.841l2.6,1.174a.462.462,0,0,1-.19.882Z" transform="translate(-440.768 -228.586)" fill="#9281ff"/>
            </g>
            <g id="Group_1173248" data-name="Group 1173248" transform="translate(3.187 1.53)">
              <path id="Path_948364" data-name="Path 948364" d="M446.96,226.819a.46.46,0,0,1-.372-.189l-1.69-2.3a.461.461,0,1,1,.743-.546l1.691,2.3a.462.462,0,0,1-.372.735Z" transform="translate(-444.809 -223.595)" fill="#9281ff"/>
            </g>
          </g>
          <g id="Group_1173262" data-name="Group 1173262" transform="translate(355.824 79.696)">
            <g id="Group_1173250" data-name="Group 1173250" transform="translate(7.857)">
              <path id="Path_948365" data-name="Path 948365" d="M640.345,167.142a.461.461,0,0,1-.461-.461v-2.855a.461.461,0,1,1,.923,0v2.855A.461.461,0,0,1,640.345,167.142Z" transform="translate(-639.884 -163.364)" fill="#9281ff"/>
            </g>
            <g id="Group_1173251" data-name="Group 1173251" transform="translate(10.33 1.018)">
              <path id="Path_948366" data-name="Path 948366" d="M644.307,168.4a.461.461,0,0,1-.4-.688l1.4-2.487a.462.462,0,1,1,.8.453l-1.4,2.487A.462.462,0,0,1,644.307,168.4Z" transform="translate(-643.846 -164.994)" fill="#9281ff"/>
            </g>
            <g id="Group_1173252" data-name="Group 1173252" transform="translate(12.166 3.809)">
              <path id="Path_948367" data-name="Path 948367" d="M647.247,171.865a.462.462,0,0,1-.239-.857l2.443-1.476a.461.461,0,1,1,.477.789l-2.443,1.476A.454.454,0,0,1,647.247,171.865Z" transform="translate(-646.785 -169.465)" fill="#9281ff"/>
            </g>
            <g id="Group_1173253" data-name="Group 1173253" transform="translate(12.889 7.653)">
              <path id="Path_948368" data-name="Path 948368" d="M648.4,176.631a.461.461,0,0,1-.014-.923l2.854-.086a.461.461,0,0,1,.028.922l-2.854.086Z" transform="translate(-647.944 -175.622)" fill="#9281ff"/>
            </g>
            <g id="Group_1173254" data-name="Group 1173254" transform="translate(12.313 10.229)">
              <path id="Path_948369" data-name="Path 948369" d="M650.011,182a.459.459,0,0,1-.214-.053l-2.528-1.328a.461.461,0,0,1,.429-.817l2.528,1.328a.462.462,0,0,1-.215.87Z" transform="translate(-647.022 -179.749)" fill="#9281ff"/>
            </g>
            <g id="Group_1173255" data-name="Group 1173255" transform="translate(10.589 12.118)">
              <path id="Path_948370" data-name="Path 948370" d="M646.271,186.1a.46.46,0,0,1-.388-.211l-1.549-2.4a.461.461,0,1,1,.775-.5l1.549,2.4a.461.461,0,0,1-.387.711Z" transform="translate(-644.26 -182.775)" fill="#9281ff"/>
            </g>
            <g id="Group_1173256" data-name="Group 1173256" transform="translate(8.159 12.913)">
              <path id="Path_948371" data-name="Path 948371" d="M641,187.823a.461.461,0,0,1-.46-.434l-.171-2.85a.461.461,0,0,1,.921-.056l.171,2.85a.461.461,0,0,1-.433.488Z" transform="translate(-640.367 -184.049)" fill="#9281ff"/>
            </g>
            <g id="Group_1173257" data-name="Group 1173257" transform="translate(4.399 12.414)">
              <path id="Path_948372" data-name="Path 948372" d="M634.806,186.738a.461.461,0,0,1-.414-.664l1.251-2.566a.461.461,0,0,1,.829.4l-1.251,2.566A.459.459,0,0,1,634.806,186.738Z" transform="translate(-634.345 -183.248)" fill="#9281ff"/>
            </g>
            <g id="Group_1173258" data-name="Group 1173258" transform="translate(1.362 10.746)">
              <path id="Path_948373" data-name="Path 948373" d="M629.941,183.121a.461.461,0,0,1-.262-.841l2.351-1.621a.461.461,0,1,1,.524.759l-2.351,1.621A.462.462,0,0,1,629.941,183.121Z" transform="translate(-629.479 -180.577)" fill="#9281ff"/>
            </g>
            <g id="Group_1173259" data-name="Group 1173259" transform="translate(0 8.342)">
              <path id="Path_948374" data-name="Path 948374" d="M627.759,177.9a.461.461,0,0,1-.04-.921l2.844-.257a.461.461,0,0,1,.082.919l-2.844.257Z" transform="translate(-627.298 -176.726)" fill="#9281ff"/>
            </g>
            <g id="Group_1173260" data-name="Group 1173260" transform="translate(0.666 4.646)">
              <path id="Path_948375" data-name="Path 948375" d="M631.428,172.9a.451.451,0,0,1-.189-.041l-2.6-1.174a.461.461,0,0,1,.379-.841l2.6,1.174a.461.461,0,0,1-.19.882Z" transform="translate(-628.364 -170.807)" fill="#9281ff"/>
            </g>
            <g id="Group_1173261" data-name="Group 1173261" transform="translate(3.187 1.531)">
              <path id="Path_948376" data-name="Path 948376" d="M634.555,169.04a.46.46,0,0,1-.372-.189l-1.69-2.3a.461.461,0,1,1,.744-.546l1.691,2.3a.462.462,0,0,1-.372.735Z" transform="translate(-632.404 -165.816)" fill="#9281ff"/>
            </g>
          </g>
          <g id="Group_1173275" data-name="Group 1173275" transform="translate(289.25 36.222)">
            <g id="Group_1173263" data-name="Group 1173263" transform="translate(7.857)">
              <path id="Path_948377" data-name="Path 948377" d="M533.706,97.5a.461.461,0,0,1-.461-.461V94.187a.461.461,0,1,1,.923,0v2.855A.461.461,0,0,1,533.706,97.5Z" transform="translate(-533.245 -93.726)" fill="#9281ff"/>
            </g>
            <g id="Group_1173264" data-name="Group 1173264" transform="translate(10.33 1.017)">
              <path id="Path_948378" data-name="Path 948378" d="M537.668,98.765a.461.461,0,0,1-.4-.688l1.4-2.487a.462.462,0,0,1,.8.453l-1.4,2.487A.461.461,0,0,1,537.668,98.765Z" transform="translate(-537.207 -95.356)" fill="#9281ff"/>
            </g>
            <g id="Group_1173265" data-name="Group 1173265" transform="translate(12.166 3.808)">
              <path id="Path_948379" data-name="Path 948379" d="M540.608,102.226a.462.462,0,0,1-.239-.857l2.443-1.477a.461.461,0,1,1,.477.789l-2.443,1.477A.448.448,0,0,1,540.608,102.226Z" transform="translate(-540.146 -99.825)" fill="#9281ff"/>
            </g>
            <g id="Group_1173266" data-name="Group 1173266" transform="translate(12.889 7.652)">
              <path id="Path_948380" data-name="Path 948380" d="M541.767,106.992a.461.461,0,0,1-.014-.923l2.854-.086a.461.461,0,0,1,.028.922l-2.854.086Z" transform="translate(-541.306 -105.983)" fill="#9281ff"/>
            </g>
            <g id="Group_1173267" data-name="Group 1173267" transform="translate(12.314 10.229)">
              <path id="Path_948381" data-name="Path 948381" d="M543.373,112.362a.459.459,0,0,1-.214-.053l-2.528-1.328a.461.461,0,1,1,.429-.817l2.528,1.328a.462.462,0,0,1-.215.87Z" transform="translate(-540.384 -110.111)" fill="#9281ff"/>
            </g>
            <g id="Group_1173268" data-name="Group 1173268" transform="translate(10.589 12.118)">
              <path id="Path_948382" data-name="Path 948382" d="M539.632,116.457a.46.46,0,0,1-.388-.211l-1.549-2.4a.461.461,0,1,1,.775-.5l1.549,2.4a.461.461,0,0,1-.387.711Z" transform="translate(-537.621 -113.136)" fill="#9281ff"/>
            </g>
            <g id="Group_1173269" data-name="Group 1173269" transform="translate(8.159 12.913)">
              <path id="Path_948383" data-name="Path 948383" d="M534.361,118.184a.461.461,0,0,1-.46-.434l-.171-2.85a.461.461,0,0,1,.921-.056l.171,2.85a.461.461,0,0,1-.433.488Z" transform="translate(-533.729 -114.411)" fill="#9281ff"/>
            </g>
            <g id="Group_1173270" data-name="Group 1173270" transform="translate(4.399 12.414)">
              <path id="Path_948384" data-name="Path 948384" d="M528.167,117.1a.461.461,0,0,1-.415-.664L529,113.87a.461.461,0,0,1,.829.4l-1.251,2.566A.46.46,0,0,1,528.167,117.1Z" transform="translate(-527.706 -113.61)" fill="#9281ff"/>
            </g>
            <g id="Group_1173271" data-name="Group 1173271" transform="translate(1.362 10.746)">
              <path id="Path_948385" data-name="Path 948385" d="M523.3,113.482a.461.461,0,0,1-.262-.841l2.351-1.621a.461.461,0,1,1,.523.759l-2.351,1.621A.453.453,0,0,1,523.3,113.482Z" transform="translate(-522.84 -110.939)" fill="#9281ff"/>
            </g>
            <g id="Group_1173272" data-name="Group 1173272" transform="translate(0 8.342)">
              <path id="Path_948386" data-name="Path 948386" d="M521.12,108.267a.461.461,0,0,1-.041-.921l2.844-.257a.461.461,0,1,1,.082.919l-2.844.257Z" transform="translate(-520.659 -107.088)" fill="#9281ff"/>
            </g>
            <g id="Group_1173273" data-name="Group 1173273" transform="translate(0.666 4.646)">
              <path id="Path_948387" data-name="Path 948387" d="M524.789,103.264a.452.452,0,0,1-.189-.041l-2.6-1.174a.461.461,0,0,1,.379-.841l2.6,1.174a.461.461,0,0,1-.19.882Z" transform="translate(-521.725 -101.168)" fill="#9281ff"/>
            </g>
            <g id="Group_1173274" data-name="Group 1173274" transform="translate(3.187 1.53)">
              <path id="Path_948388" data-name="Path 948388" d="M527.916,99.4a.46.46,0,0,1-.372-.189l-1.691-2.3a.461.461,0,0,1,.744-.546l1.69,2.3a.462.462,0,0,1-.1.645A.452.452,0,0,1,527.916,99.4Z" transform="translate(-525.764 -96.177)" fill="#9281ff"/>
            </g>
          </g>
          <g id="Group_1173288" data-name="Group 1173288" transform="translate(179.982)">
            <g id="Group_1173276" data-name="Group 1173276" transform="translate(7.858)">
              <path id="Path_948389" data-name="Path 948389" d="M358.678,39.482a.461.461,0,0,1-.461-.461V36.165a.461.461,0,0,1,.923,0V39.02A.462.462,0,0,1,358.678,39.482Z" transform="translate(-358.217 -35.704)" fill="#9281ff"/>
            </g>
            <g id="Group_1173277" data-name="Group 1173277" transform="translate(10.331 1.017)">
              <path id="Path_948390" data-name="Path 948390" d="M362.64,40.744a.461.461,0,0,1-.4-.688l1.4-2.487a.462.462,0,0,1,.8.453l-1.4,2.487A.464.464,0,0,1,362.64,40.744Z" transform="translate(-362.179 -37.334)" fill="#9281ff"/>
            </g>
            <g id="Group_1173278" data-name="Group 1173278" transform="translate(12.166 3.808)">
              <path id="Path_948391" data-name="Path 948391" d="M365.58,44.2a.461.461,0,0,1-.239-.856l2.443-1.477a.461.461,0,0,1,.477.789l-2.443,1.476A.452.452,0,0,1,365.58,44.2Z" transform="translate(-365.118 -41.804)" fill="#9281ff"/>
            </g>
            <g id="Group_1173279" data-name="Group 1173279" transform="translate(12.889 7.652)">
              <path id="Path_948392" data-name="Path 948392" d="M366.738,48.97a.461.461,0,0,1-.014-.923l2.854-.086a.461.461,0,0,1,.028.922l-2.854.086Z" transform="translate(-366.277 -47.961)" fill="#9281ff"/>
            </g>
            <g id="Group_1173280" data-name="Group 1173280" transform="translate(12.314 10.229)">
              <path id="Path_948393" data-name="Path 948393" d="M368.344,54.34a.459.459,0,0,1-.214-.053L365.6,52.959a.461.461,0,0,1,.429-.817l2.528,1.328a.462.462,0,0,1-.215.87Z" transform="translate(-365.355 -52.089)" fill="#9281ff"/>
            </g>
            <g id="Group_1173281" data-name="Group 1173281" transform="translate(10.59 12.118)">
              <path id="Path_948394" data-name="Path 948394" d="M364.6,58.436a.46.46,0,0,1-.388-.211l-1.549-2.4a.461.461,0,1,1,.775-.5l1.549,2.4a.461.461,0,0,1-.137.637A.468.468,0,0,1,364.6,58.436Z" transform="translate(-362.593 -55.115)" fill="#9281ff"/>
            </g>
            <g id="Group_1173282" data-name="Group 1173282" transform="translate(8.159 12.914)">
              <path id="Path_948395" data-name="Path 948395" d="M359.332,60.162a.461.461,0,0,1-.46-.433l-.171-2.85a.461.461,0,1,1,.921-.056l.171,2.85a.461.461,0,0,1-.433.488Z" transform="translate(-358.7 -56.39)" fill="#9281ff"/>
            </g>
            <g id="Group_1173283" data-name="Group 1173283" transform="translate(4.4 12.414)">
              <path id="Path_948396" data-name="Path 948396" d="M353.139,59.078a.461.461,0,0,1-.415-.664l1.251-2.566a.461.461,0,1,1,.829.4l-1.251,2.566A.462.462,0,0,1,353.139,59.078Z" transform="translate(-352.678 -55.588)" fill="#9281ff"/>
            </g>
            <g id="Group_1173284" data-name="Group 1173284" transform="translate(1.362 10.746)">
              <path id="Path_948397" data-name="Path 948397" d="M348.273,55.46a.461.461,0,0,1-.262-.841L350.362,53a.461.461,0,0,1,.523.76l-2.351,1.621A.456.456,0,0,1,348.273,55.46Z" transform="translate(-347.811 -52.917)" fill="#9281ff"/>
            </g>
            <g id="Group_1173285" data-name="Group 1173285" transform="translate(0 8.342)">
              <path id="Path_948398" data-name="Path 948398" d="M346.091,50.245a.461.461,0,0,1-.041-.921l2.844-.257a.461.461,0,1,1,.082.919l-2.844.257Z" transform="translate(-345.63 -49.066)" fill="#9281ff"/>
            </g>
            <g id="Group_1173286" data-name="Group 1173286" transform="translate(0.666 4.646)">
              <path id="Path_948399" data-name="Path 948399" d="M349.76,45.242a.452.452,0,0,1-.189-.041l-2.6-1.174a.461.461,0,1,1,.379-.841l2.6,1.174a.462.462,0,0,1-.19.882Z" transform="translate(-346.696 -43.146)" fill="#9281ff"/>
            </g>
            <g id="Group_1173287" data-name="Group 1173287" transform="translate(3.187 1.531)">
              <path id="Path_948400" data-name="Path 948400" d="M352.888,41.38a.46.46,0,0,1-.372-.189l-1.691-2.3a.461.461,0,0,1,.744-.546l1.69,2.3a.462.462,0,0,1-.371.735Z" transform="translate(-350.736 -38.156)" fill="#9281ff"/>
            </g>
          </g>
          <g id="Group_1173301" data-name="Group 1173301" transform="translate(7.046 166.987)">
            <g id="Group_1173289" data-name="Group 1173289" transform="translate(7.857)">
              <path id="Path_948401" data-name="Path 948401" d="M81.663,306.966a.461.461,0,0,1-.461-.461v-2.855a.461.461,0,1,1,.923,0V306.5A.461.461,0,0,1,81.663,306.966Z" transform="translate(-81.202 -303.188)" fill="#9281ff"/>
            </g>
            <g id="Group_1173290" data-name="Group 1173290" transform="translate(10.331 1.017)">
              <path id="Path_948402" data-name="Path 948402" d="M85.625,308.228a.461.461,0,0,1-.4-.688l1.4-2.487a.462.462,0,1,1,.8.453l-1.4,2.487A.461.461,0,0,1,85.625,308.228Z" transform="translate(-85.164 -304.817)" fill="#9281ff"/>
            </g>
            <g id="Group_1173291" data-name="Group 1173291" transform="translate(12.166 3.808)">
              <path id="Path_948403" data-name="Path 948403" d="M88.565,311.688a.461.461,0,0,1-.239-.856l2.443-1.477a.461.461,0,1,1,.477.789L88.8,311.621A.453.453,0,0,1,88.565,311.688Z" transform="translate(-88.103 -309.288)" fill="#9281ff"/>
            </g>
            <g id="Group_1173292" data-name="Group 1173292" transform="translate(12.889 7.653)">
              <path id="Path_948404" data-name="Path 948404" d="M89.724,316.454a.461.461,0,0,1-.014-.922l2.854-.086a.461.461,0,0,1,.028.922l-2.854.086Z" transform="translate(-89.263 -315.446)" fill="#9281ff"/>
            </g>
            <g id="Group_1173293" data-name="Group 1173293" transform="translate(12.314 10.23)">
              <path id="Path_948405" data-name="Path 948405" d="M91.33,321.825a.459.459,0,0,1-.214-.053l-2.528-1.328a.461.461,0,1,1,.429-.817l2.528,1.328a.461.461,0,0,1-.215.87Z" transform="translate(-88.341 -319.574)" fill="#9281ff"/>
            </g>
            <g id="Group_1173294" data-name="Group 1173294" transform="translate(10.589 12.118)">
              <path id="Path_948406" data-name="Path 948406" d="M87.589,325.92a.459.459,0,0,1-.388-.211l-1.549-2.4a.461.461,0,1,1,.775-.5l1.549,2.4a.461.461,0,0,1-.387.711Z" transform="translate(-85.578 -322.599)" fill="#9281ff"/>
            </g>
            <g id="Group_1173295" data-name="Group 1173295" transform="translate(8.159 12.914)">
              <path id="Path_948407" data-name="Path 948407" d="M82.318,327.647a.461.461,0,0,1-.46-.433l-.171-2.85a.461.461,0,1,1,.921-.056l.171,2.85a.461.461,0,0,1-.433.488Z" transform="translate(-81.686 -323.874)" fill="#9281ff"/>
            </g>
            <g id="Group_1173296" data-name="Group 1173296" transform="translate(4.4 12.414)">
              <path id="Path_948408" data-name="Path 948408" d="M76.125,326.562a.461.461,0,0,1-.415-.664l1.251-2.566a.461.461,0,0,1,.829.4L76.54,326.3A.462.462,0,0,1,76.125,326.562Z" transform="translate(-75.664 -323.072)" fill="#9281ff"/>
            </g>
            <g id="Group_1173297" data-name="Group 1173297" transform="translate(1.362 10.746)">
              <path id="Path_948409" data-name="Path 948409" d="M71.259,322.944A.461.461,0,0,1,71,322.1l2.351-1.621a.461.461,0,1,1,.523.759l-2.351,1.621A.453.453,0,0,1,71.259,322.944Z" transform="translate(-70.797 -320.4)" fill="#9281ff"/>
            </g>
            <g id="Group_1173298" data-name="Group 1173298" transform="translate(0 8.342)">
              <path id="Path_948410" data-name="Path 948410" d="M69.077,317.729a.461.461,0,0,1-.041-.921l2.844-.257a.461.461,0,1,1,.082.918l-2.844.257A.31.31,0,0,1,69.077,317.729Z" transform="translate(-68.616 -316.55)" fill="#9281ff"/>
            </g>
            <g id="Group_1173299" data-name="Group 1173299" transform="translate(0.666 4.646)">
              <path id="Path_948411" data-name="Path 948411" d="M72.746,312.726a.452.452,0,0,1-.189-.041l-2.6-1.174a.461.461,0,0,1,.379-.841l2.6,1.174a.461.461,0,0,1-.19.882Z" transform="translate(-69.683 -310.63)" fill="#9281ff"/>
            </g>
            <g id="Group_1173300" data-name="Group 1173300" transform="translate(3.188 1.531)">
              <path id="Path_948412" data-name="Path 948412" d="M75.874,308.864a.46.46,0,0,1-.372-.189l-1.69-2.3a.461.461,0,0,1,.744-.546l1.691,2.3a.462.462,0,0,1-.372.735Z" transform="translate(-73.723 -305.64)" fill="#9281ff"/>
            </g>
          </g>
          <circle id="Ellipse_13721" data-name="Ellipse 13721" cx="8.141" cy="8.141" r="8.141" transform="translate(11.446 102.208)" fill="none" stroke="#9281ff" stroke-miterlimit="10" stroke-width="1"/>
          <ellipse id="Ellipse_13722" data-name="Ellipse 13722" cx="4.592" cy="4.592" rx="4.592" ry="4.592" transform="translate(0 215.265) rotate(-80.782)" fill="none" stroke="#9281ff" stroke-miterlimit="10" stroke-width="1"/>
          <circle id="Ellipse_13723" data-name="Ellipse 13723" cx="5.356" cy="5.356" r="5.356" transform="translate(136.579 17.374) rotate(-45)" fill="none" stroke="#9281ff" stroke-miterlimit="10" stroke-width="1"/>
          <circle id="Ellipse_13724" data-name="Ellipse 13724" cx="4.58" cy="4.58" r="4.58" transform="translate(243.345 42.965)" fill="none" stroke="#9281ff" stroke-miterlimit="10" stroke-width="1"/>
          <circle id="Ellipse_13725" data-name="Ellipse 13725" cx="8.276" cy="8.276" r="8.276" transform="translate(339.953 40.977)" fill="none" stroke="#9281ff" stroke-miterlimit="10" stroke-width="1"/>
          <circle id="Ellipse_13726" data-name="Ellipse 13726" cx="7.008" cy="7.008" r="7.008" transform="translate(383.02 161.903)" fill="none" stroke="#9281ff" stroke-miterlimit="10" stroke-width="1"/>
          <path id="Path_948413" data-name="Path 948413" d="M97.92,424.87a3.407,3.407,0,1,1-3.407-3.407A3.408,3.408,0,0,1,97.92,424.87Z" transform="translate(-70.02 -180.639)" fill="none" stroke="#9281ff" stroke-miterlimit="10" stroke-width="1"/>
          <path id="Path_948414" data-name="Path 948414" d="M108.8,112.962a3.407,3.407,0,1,1-3.407-3.407A3.408,3.408,0,0,1,108.8,112.962Z" transform="translate(-74.106 -63.451)" fill="none" stroke="#9281ff" stroke-miterlimit="10" stroke-width="1"/>
        </g>
        <g id="Group_1173303" data-name="Group 1173303" transform="translate(74.236 189.35)">
          <path id="Path_948415" data-name="Path 948415" d="M195.945,330.181l-1.539-3.877a3.627,3.627,0,0,0-3.372-2.289H176.245v67.695H276.828V330.181Z" transform="translate(-176.244 -324.014)" fill="#f2c73c"/>
          <path id="Path_948416" data-name="Path 948416" d="M248.805,384.2c-38.681-13.943-63.127-44.469-72.561-58.187V392.46h95.473Z" transform="translate(-176.244 -324.765)" fill="#d8ae36"/>
        </g>
        <g id="Group_1173304" data-name="Group 1173304" transform="translate(154.17 18.293)">
          <path id="Path_948417" data-name="Path 948417" d="M380.492,86.746l-.007,0a11.337,11.337,0,0,0-8.426-15.934,21.933,21.933,0,0,0-43.837,1.134c0,.484.021.963.052,1.439l-.052,0a11.579,11.579,0,0,0-11.579,11.579c0,.263.022.519.039.778-12.492,3-12.4,14.279-12.4,14.279l88.295-1.022C391.769,85.827,380.492,86.746,380.492,86.746Z" transform="translate(-304.283 -50.01)" fill="#9281ff"/>
          <path id="Path_948418" data-name="Path 948418" d="M347.817,99.3c-8.136-.118-13.818-5.767-13.061-13.337s10.589-8.661,10.589-8.661-6.465-4.514-4.307-14.577c1.139-5.315,5.24-9.727,8.855-12.707a21.93,21.93,0,0,0-21.67,21.926c0,.484.021.963.052,1.439l-.052,0a11.579,11.579,0,0,0-11.579,11.579c0,.263.022.519.039.778-12.492,3-12.4,14.279-12.4,14.279l46.084-.534C349.379,99.378,348.516,99.313,347.817,99.3Z" transform="translate(-304.283 -50.014)" fill="#8078ef"/>
        </g>
      </g>
    </g>
  </g>
</svg>
