<svg xmlns="http://www.w3.org/2000/svg" xmlns:xlink="http://www.w3.org/1999/xlink" width="662" height="300" viewBox="0 0 662 300">
  <defs>
    <clipPath id="clip-path">
      <path id="Path_947963" data-name="Path 947963" d="M142.46,225.057a5.026,5.026,0,0,1-4.635,5.443l-2.934.255a5.026,5.026,0,0,1-5.5-4.563l-.86-9.915a5.107,5.107,0,0,1,4.626-5.538l2.934-.255a5.107,5.107,0,0,1,5.511,4.659Z" transform="translate(-128.509 -210.465)"/>
    </clipPath>
    <clipPath id="clip-path-2">
      <path id="Path_948043" data-name="Path 948043" d="M337,246.18l-.151-.038c-4.409,1.423-6.8-.433-9.147-1.686a2.869,2.869,0,0,0-.774-.156c-3.124-.18-5.541,5.043-5.789,5.6-2.213,3.744-4.226,3.414-5.081,6.567a11.562,11.562,0,0,0,.476,6.8c1.258,3.946.688,11.043-7.663,24.869l29.279,4.1a63.229,63.229,0,0,1,.443-17.81c1.248-7.439,2.211-13.76,4.2-17.813C345.037,248.655,337.06,246.195,337,246.18Z" transform="translate(-308.873 -244.296)"/>
    </clipPath>
    <clipPath id="clip-path-3">
      <rect id="Rectangle_449020" data-name="Rectangle 449020" width="26.765" height="38.421" transform="translate(26.765 38.421) rotate(180)"/>
    </clipPath>
  </defs>
  <g id="Group_1172899" data-name="Group 1172899" transform="translate(-705.422 -1178)">
    <rect id="Rectangle_448922" data-name="Rectangle 448922" width="662" height="300" transform="translate(705.422 1178)" fill="#bcc3de"/>
    <g id="_5683373_2955198" data-name="5683373_2955198" transform="translate(854.115 1157.492)">
      <g id="OBJECTS" transform="translate(33 30.895)">
        <g id="Group_1173079" data-name="Group 1173079">
          <g id="Group_1172922" data-name="Group 1172922" transform="translate(92.175)">
            <g id="Group_1172919" data-name="Group 1172919" transform="translate(0 22.156)">
              <path id="Path_947929" data-name="Path 947929" d="M189.043,96.385h69.3a15.949,15.949,0,0,0,15.9-15.9h0a15.949,15.949,0,0,0-15.9-15.9h-69.3a15.949,15.949,0,0,0-15.9,15.9h0A15.95,15.95,0,0,0,189.043,96.385Z" transform="translate(-173.14 -64.58)" fill="#6003fe"/>
            </g>
            <g id="Group_1172920" data-name="Group 1172920" transform="translate(35.622)">
              <circle id="Ellipse_13686" data-name="Ellipse 13686" cx="25.952" cy="25.952" r="25.952" fill="#6003fe"/>
            </g>
            <g id="Group_1172921" data-name="Group 1172921" transform="translate(13.582 7.707)">
              <circle id="Ellipse_13687" data-name="Ellipse 13687" cx="18.971" cy="18.971" r="18.971" fill="#6003fe"/>
            </g>
          </g>
          <g id="Group_1172924" data-name="Group 1172924" transform="translate(71.788 141.065)">
            <path id="Path_947930" data-name="Path 947930" d="M205.189,312.635" transform="translate(-163.722 -268.389)" fill="#e1b89f"/>
            <g id="Group_1172923" data-name="Group 1172923">
              <path id="Path_947931" data-name="Path 947931" d="M153.781,246.955c-3.311-1.2-9.051-2.747-11.637-.266l11.971,15.924a75.585,75.585,0,0,0,8.635-5.818l-4.963-7.038A9.5,9.5,0,0,0,153.781,246.955Z" transform="translate(-142.144 -245.365)" fill="#fd505a"/>
            </g>
            <path id="Path_947932" data-name="Path 947932" d="M168.981,262.742a75.527,75.527,0,0,1-8.635,5.818l1.448,1.926c2.208,2.937,23.063,29.286,23.063,29.286l6.072-3.977Z" transform="translate(-148.374 -251.313)" fill="#e1b89f"/>
          </g>
          <g id="Group_1172928" data-name="Group 1172928" transform="translate(35.814 265.189)">
            <path id="Path_947933" data-name="Path 947933" d="M91.494,434.08l-2.808,4.335,17.257,8.343s-.241-2.564-4.569-5.739l.6-1.7Z" transform="translate(-87.873 -434.08)" fill="#76768a"/>
            <rect id="Rectangle_448983" data-name="Rectangle 448983" width="19.271" height="1.64" transform="translate(0.714 4.293) rotate(25.804)" fill="#b2b2d3"/>
            <g id="Group_1172925" data-name="Group 1172925" transform="translate(2.123 2.275)">
              <path id="Path_947934" data-name="Path 947934" d="M90.678,437.539a2.542,2.542,0,0,1,.439.308,2.692,2.692,0,0,1,.7.959,2.034,2.034,0,0,1,.136.632,1.012,1.012,0,0,1-.013.3,1.065,1.065,0,0,1-.053.259,2.356,2.356,0,0,1-.219.491,3.118,3.118,0,0,0,.116-.512,2.1,2.1,0,0,0-.141-1.1,3.452,3.452,0,0,0-.6-.955A4.378,4.378,0,0,0,90.678,437.539Z" transform="translate(-90.678 -437.539)" fill="#002e5c"/>
            </g>
            <g id="Group_1172926" data-name="Group 1172926" transform="translate(11.309 4.221)">
              <path id="Path_947935" data-name="Path 947935" d="M106.158,440.5q-.642,1.51-1.35,2.991l-.042-.116a16.1,16.1,0,0,1,2.19,1.231,8.923,8.923,0,0,1,1.884,1.65,11.643,11.643,0,0,0-1.972-1.517,22.556,22.556,0,0,0-2.174-1.208.088.088,0,0,1-.042-.116Q105.371,441.939,106.158,440.5Z" transform="translate(-104.644 -440.498)" fill="#002e5c"/>
            </g>
            <g id="Group_1172927" data-name="Group 1172927" transform="translate(14.699 9.417)">
              <path id="Path_947936" data-name="Path 947936" d="M111.505,448.4s-.12.076-.29.2-.4.277-.605.455a6.793,6.793,0,0,0-.564.5c-.152.143-.249.248-.249.248l.043-.087a1.525,1.525,0,0,1,.125-.227,2.144,2.144,0,0,1,.224-.29,3.658,3.658,0,0,1,.3-.29,2.922,2.922,0,0,1,.672-.4A1.97,1.97,0,0,1,111.505,448.4Z" transform="translate(-109.798 -448.398)" fill="#002e5c"/>
            </g>
          </g>
          <g id="Group_1172932" data-name="Group 1172932" transform="translate(109.537 265.856)">
            <path id="Path_947937" data-name="Path 947937" d="M199.537,438.617l1,5.068,18.2-6.005s-1.956-1.675-7.274-.946l-.756-1.639Z" transform="translate(-199.537 -435.094)" fill="#76768a"/>
            <rect id="Rectangle_448984" data-name="Rectangle 448984" width="19.271" height="1.64" transform="translate(0.91 8.632) rotate(-18.257)" fill="#b2b2d3"/>
            <g id="Group_1172929" data-name="Group 1172929" transform="translate(0.506 6.112)">
              <path id="Path_947938" data-name="Path 947938" d="M200.307,444.474a2.526,2.526,0,0,1,.529-.084,2.683,2.683,0,0,1,1.172.2,2.037,2.037,0,0,1,.537.359,1.007,1.007,0,0,1,.2.222,1.077,1.077,0,0,1,.143.223,2.3,2.3,0,0,1,.184.505,3.121,3.121,0,0,0-.272-.449,2.1,2.1,0,0,0-.864-.691,3.453,3.453,0,0,0-1.1-.266A4.267,4.267,0,0,0,200.307,444.474Z" transform="translate(-200.307 -444.387)" fill="#002e5c"/>
            </g>
            <g id="Group_1172930" data-name="Group 1172930" transform="translate(9.548 0.157)">
              <path id="Path_947939" data-name="Path 947939" d="M214.054,435.332q.589,1.533,1.11,3.088l-.111-.054a16.125,16.125,0,0,1,2.43-.638,8.95,8.95,0,0,1,2.5-.124,11.635,11.635,0,0,0-2.472.281,22.478,22.478,0,0,0-2.4.643.088.088,0,0,1-.111-.054Q214.49,436.915,214.054,435.332Z" transform="translate(-214.054 -435.332)" fill="#002e5c"/>
            </g>
            <g id="Group_1172931" data-name="Group 1172931" transform="translate(15.346 1.399)">
              <path id="Path_947940" data-name="Path 947940" d="M223.26,437.221s-.034.139-.07.344-.093.475-.118.748a6.738,6.738,0,0,0-.056.753c-.009.208-.007.351-.007.351l-.03-.093a1.492,1.492,0,0,1-.068-.25,2.144,2.144,0,0,1-.041-.364,3.668,3.668,0,0,1,.016-.42,2.891,2.891,0,0,1,.2-.756A1.909,1.909,0,0,1,223.26,437.221Z" transform="translate(-222.869 -437.221)" fill="#002e5c"/>
            </g>
          </g>
          <path id="Path_947941" data-name="Path 947941" d="M116.828,308.007l-4.375,43.334L89.13,391.292,105,398.966l20.577-39.948a34.72,34.72,0,0,0,4.807-14.166l2.782-15.977,27.187,67.65,14.9-5.23-32.987-83.332Z" transform="translate(-52.211 -125.726)" fill="#6471c0"/>
          <path id="Path_947942" data-name="Path 947942" d="M130.422,318.648l12.106,1.3v-2.095Z" transform="translate(-66.344 -129.112)" fill="#002e5c"/>
          <g id="Group_1172933" data-name="Group 1172933" transform="translate(40.321 259.469)">
            <path id="Path_947943" data-name="Path 947943" d="M94.3,425.384l2.444,1.126,5.348,2.538,5.311,2.615,2.4,1.216-2.444-1.126-5.348-2.538L96.7,426.6Z" transform="translate(-94.303 -425.384)" fill="#002e5c"/>
          </g>
          <g id="Group_1172934" data-name="Group 1172934" transform="translate(106.255 259.536)">
            <path id="Path_947944" data-name="Path 947944" d="M194.546,430.366l2.3-.812c1.379-.481,3.226-1.1,5.074-1.717s3.7-1.206,5.1-1.639l2.328-.713-2.3.812c-1.379.482-3.226,1.1-5.074,1.717s-3.7,1.206-5.1,1.639Z" transform="translate(-194.546 -425.485)" fill="#002e5c"/>
          </g>
          <g id="Group_1172935" data-name="Group 1172935" transform="translate(43.366 185.904)">
            <path id="Path_947945" data-name="Path 947945" d="M123.1,313.537l-1.944,19.246-1.995,19.241a.085.085,0,0,1-.01.032L98.933,388.576l20.07-36.6-.01.032,2.027-19.237Z" transform="translate(-98.933 -313.537)" fill="#002e5c"/>
          </g>
          <g id="Group_1172936" data-name="Group 1172936" transform="translate(66.61 186.646)">
            <path id="Path_947946" data-name="Path 947946" d="M134.272,322.15a8.329,8.329,0,0,0,1.988-.007,7.277,7.277,0,0,0,.947-.159,9.244,9.244,0,0,0,1.025-.3,6.272,6.272,0,0,0,1.017-.509c.161-.107.331-.205.489-.321l.439-.393a2.211,2.211,0,0,0,.4-.426l.369-.454c.2-.332.387-.666.556-.994l.369-1c.086-.329.14-.648.2-.939l.089-.419c.012-.135.024-.264.035-.385l.055-.628c.03-.349.048-.548.048-.548s-.006.2-.016.549c-.005.175-.012.388-.019.632,0,.122-.009.253-.013.389q-.035.2-.074.426c-.056.3-.1.621-.178.958l-.352,1.033c-.169.338-.359.683-.56,1.027l-.376.472a2.319,2.319,0,0,1-.412.445l-.458.4c-.164.118-.339.218-.507.326a6.417,6.417,0,0,1-1.05.512,8.212,8.212,0,0,1-2.019.412,8.291,8.291,0,0,1-1.453-.023A5.114,5.114,0,0,1,134.272,322.15Z" transform="translate(-134.272 -314.666)" fill="#002e5c"/>
          </g>
          <g id="Group_1172937" data-name="Group 1172937" transform="translate(80.282 187.159)">
            <path id="Path_947947" data-name="Path 947947" d="M155.058,315.446c.51,3.613.936,7.236,1.4,10.855l-.087-.077h2.05l-.087.1c-.41-3.625-.862-7.246-1.228-10.876.511,3.613.936,7.236,1.4,10.855a.087.087,0,0,1-.076.1h-2.062a.087.087,0,0,1-.087-.077C155.876,322.7,155.424,319.077,155.058,315.446Z" transform="translate(-155.058 -315.446)" fill="#002e5c"/>
          </g>
          <g id="Group_1172938" data-name="Group 1172938" transform="translate(88.462 187.527)">
            <path id="Path_947948" data-name="Path 947948" d="M167.495,316.005s.018.116.07.313.14.476.254.8c.07.159.128.339.222.514a5.706,5.706,0,0,0,.679,1.087,3.893,3.893,0,0,0,.489.471l.267.211c.1.059.2.109.295.164a2.686,2.686,0,0,0,.608.244,3.658,3.658,0,0,0,.605.118,2.584,2.584,0,0,0,.556.02,2.876,2.876,0,0,0,.473-.023l.363-.053.318-.047-.312.078-.36.089a2.1,2.1,0,0,1-.478.061,2.692,2.692,0,0,1-.572.011,3.173,3.173,0,0,1-1.281-.342c-.1-.056-.212-.108-.314-.168l-.286-.218a4.054,4.054,0,0,1-.5-.5,5.185,5.185,0,0,1-.385-.569,3.8,3.8,0,0,1-.283-.574c-.086-.185-.135-.371-.2-.536A5.656,5.656,0,0,1,167.495,316.005Z" transform="translate(-167.495 -316.005)" fill="#002e5c"/>
          </g>
          <g id="Group_1172939" data-name="Group 1172939" transform="translate(80.957 201.101)">
            <path id="Path_947949" data-name="Path 947949" d="M156.084,338.691s.367-.154.923-.37,1.3-.481,2.054-.743,1.508-.5,2.08-.666.956-.27.956-.27-.367.154-.923.37-1.3.481-2.054.743-1.508.5-2.08.666S156.084,338.691,156.084,338.691Z" transform="translate(-156.084 -336.642)" fill="#002e5c"/>
          </g>
          <path id="Path_947950" data-name="Path 947950" d="M139.192,242.089l-2.522,6.653-6.056-5.909-1.346-15.523,8.578-.744Z" transform="translate(-65.949 -97.866)" fill="#e1b89f"/>
          <path id="Path_947951" data-name="Path 947951" d="M141.064,240.992l1.634-.142.114,1.314Z" transform="translate(-69.986 -102.755)" fill="#002e5c"/>
          <path id="Path_947952" data-name="Path 947952" d="M142.46,225.057a5.026,5.026,0,0,1-4.635,5.443l-2.934.255a5.026,5.026,0,0,1-5.5-4.563l-.86-9.915a5.107,5.107,0,0,1,4.626-5.538l2.934-.255a5.107,5.107,0,0,1,5.511,4.659Z" transform="translate(-65.69 -92.355)" fill="#e1b89f"/>
          <path id="Path_947953" data-name="Path 947953" d="M138.763,225.362c.034.4-.112.733-.328.751s-.418-.287-.452-.683.112-.733.328-.751S138.729,224.965,138.763,225.362Z" transform="translate(-68.93 -97.22)" fill="#002e5c"/>
          <path id="Path_947954" data-name="Path 947954" d="M148.35,224.53c.034.4-.112.733-.328.751s-.418-.287-.452-.683.112-.733.328-.751S148.315,224.134,148.35,224.53Z" transform="translate(-72.212 -96.935)" fill="#002e5c"/>
          <g id="Group_1172940" data-name="Group 1172940" transform="translate(73.438 127.324)">
            <path id="Path_947955" data-name="Path 947955" d="M144.664,224.475s.028.338.093.839c.028.251.069.543.128.851a2.935,2.935,0,0,0,.278.913.362.362,0,0,0,.136.14.126.126,0,0,0,.072.012l.126-.012a.6.6,0,0,1,.514.195.555.555,0,0,1,.1.5.859.859,0,0,1-.218.379,1.271,1.271,0,0,1-.539.317l-.228.055a1.529,1.529,0,0,0,.683-.445.567.567,0,0,0,.077-.7.423.423,0,0,0-.366-.123l-.123.015a.3.3,0,0,1-.172-.025.5.5,0,0,1-.214-.214,3.056,3.056,0,0,1-.279-.982c-.043-.318-.059-.614-.071-.868C144.644,224.813,144.664,224.475,144.664,224.475Z" transform="translate(-144.653 -224.475)" fill="#002e5c"/>
          </g>
          <g id="Group_1172941" data-name="Group 1172941" transform="translate(68.238 126.897)">
            <path id="Path_947956" data-name="Path 947956" d="M136.747,224.368a.812.812,0,0,1,.138-.214,1.015,1.015,0,0,1,.483-.3.908.908,0,0,1,.57.042,1.2,1.2,0,0,1,.218.132,2.006,2.006,0,0,0-.245-.031,1.29,1.29,0,0,0-.5.037A2.076,2.076,0,0,0,136.747,224.368Z" transform="translate(-136.747 -223.825)" fill="#002e5c"/>
          </g>
          <g id="Group_1172942" data-name="Group 1172942" transform="translate(74.774 126.33)">
            <path id="Path_947957" data-name="Path 947957" d="M146.684,223.506a.812.812,0,0,1,.138-.214,1.015,1.015,0,0,1,.483-.3.908.908,0,0,1,.57.042,1.2,1.2,0,0,1,.218.132,2.009,2.009,0,0,0-.244-.031,1.29,1.29,0,0,0-.5.037A2.08,2.08,0,0,0,146.684,223.506Z" transform="translate(-146.684 -222.963)" fill="#002e5c"/>
          </g>
          <g id="Group_1172943" data-name="Group 1172943" transform="translate(71.262 133.111)">
            <path id="Path_947958" data-name="Path 947958" d="M143.448,233.638a1.342,1.342,0,0,1-.236.333.772.772,0,0,1-.389.207,1,1,0,0,1-.5-.045,1.886,1.886,0,0,1-.735-.53,2.088,2.088,0,0,1-.238-.33s.121.109.31.253a2.612,2.612,0,0,0,.725.431.821.821,0,0,0,.418.061.767.767,0,0,0,.348-.128A1.777,1.777,0,0,0,143.448,233.638Z" transform="translate(-141.345 -233.273)" fill="#002e5c"/>
          </g>
          <g id="Group_1172944" data-name="Group 1172944" transform="translate(54.169 141.576)">
            <path id="Path_947959" data-name="Path 947959" d="M116.265,251.321a63.1,63.1,0,0,1,9.5-3.931c2.887.564,8.014,0,8.633-1.247a44.3,44.3,0,0,1,9.707,1.194l10.856,44.23-30.735,3.049L115.4,253.427A1.986,1.986,0,0,1,116.265,251.321Z" transform="translate(-115.356 -246.143)" fill="#fd505a"/>
          </g>
          <g id="Group_1172945" data-name="Group 1172945" transform="translate(84.51 148.974)">
            <path id="Path_947960" data-name="Path 947960" d="M161.486,257.39l.452,1.628c.265.979.6,2.289.922,3.6s.627,2.628.843,3.619l.35,1.653-.452-1.628c-.266-.979-.6-2.289-.922-3.6s-.627-2.629-.843-3.619Z" transform="translate(-161.486 -257.39)" fill="#002e5c"/>
          </g>
          <path id="Path_947961" data-name="Path 947961" d="M138.444,230.73c.036.412-.447.791-1.079.845s-1.173-.235-1.209-.647.447-.791,1.079-.845S138.408,230.317,138.444,230.73Z" transform="translate(-68.306 -99.068)" fill="#e19d9f"/>
          <g id="Group_1172947" data-name="Group 1172947" transform="translate(62.82 118.109)">
            <g id="Group_1172946" data-name="Group 1172946" clip-path="url(#clip-path)">
              <path id="Path_947962" data-name="Path 947962" d="M149.77,229.747c.036.412-.447.791-1.079.845s-1.173-.235-1.209-.647.447-.791,1.079-.845S149.734,229.335,149.77,229.747Z" transform="translate(-135.002 -216.841)" fill="#e19d9f"/>
            </g>
          </g>
          <g id="Group_1172948" data-name="Group 1172948" transform="translate(86.018 151.203)">
            <path id="Path_947964" data-name="Path 947964" d="M163.779,264.719s.314-.268.795-.657,1.135-.889,1.792-1.387,1.33-.972,1.84-1.321.857-.574.857-.574-.314.268-.794.657-1.135.889-1.792,1.387-1.33.972-1.84,1.321S163.779,264.719,163.779,264.719Z" transform="translate(-163.779 -260.78)" fill="#002e5c"/>
          </g>
          <g id="Group_1172949" data-name="Group 1172949" transform="translate(64.078 141.293)">
            <path id="Path_947965" data-name="Path 947965" d="M130.422,247.625s.67.071,1.675.139,2.347.147,3.686.1a13.484,13.484,0,0,0,1.953-.172,6.952,6.952,0,0,0,.871-.212,2.92,2.92,0,0,0,.722-.334,1.37,1.37,0,0,0,.449-.482.736.736,0,0,0,.1-.26.691.691,0,0,0,.027-.237,1.143,1.143,0,0,0-.036-.336l-.023-.119.031.117a1.2,1.2,0,0,1,.059.337.719.719,0,0,1-.011.246.793.793,0,0,1-.083.281,1.335,1.335,0,0,1-.449.538,3.023,3.023,0,0,1-.737.377,5.674,5.674,0,0,1-.887.243,13.552,13.552,0,0,1-1.976.2,27.208,27.208,0,0,1-3.7-.183C131.084,247.75,130.422,247.625,130.422,247.625Z" transform="translate(-130.422 -245.712)" fill="#002e5c"/>
          </g>
          <g id="Group_1172950" data-name="Group 1172950" transform="translate(60.587 151.88)">
            <path id="Path_947966" data-name="Path 947966" d="M125.115,261.808l.922,1.079c.549.651,1.261,1.535,1.971,2.42s1.4,1.788,1.907,2.471l.84,1.144-.922-1.079c-.549-.651-1.261-1.535-1.971-2.42s-1.4-1.788-1.907-2.471Z" transform="translate(-125.115 -261.808)" fill="#002e5c"/>
          </g>
          <g id="Group_1172954" data-name="Group 1172954" transform="translate(106.822 185.207)">
            <path id="Path_947967" data-name="Path 947967" d="M204.658,316.475" transform="translate(-198.575 -313.846)" fill="#e1b89f"/>
            <path id="Path_947968" data-name="Path 947968" d="M195.431,318.311c-.111,1.742.205,5.281.716,5.337s1.006-1.615,1.006-1.615.036,2.32.749,2.413,1.068-2.3,1.068-2.3.167,2.98.848,2.858.771-3.16.771-3.16.367,3.109.9,3.164c1.033.105,1.629-5.02,1.921-8.508,0,0-.508,3.447.873,3.655s.873-6.792-1.485-7.678" transform="translate(-195.409 -312.478)" fill="#e1b89f"/>
            <path id="Path_947969" data-name="Path 947969" d="M196.087,313.972s-1.744,6.874.4,7.672,7.2,3.042,6.351-5.268C202.394,311.961,196.087,313.972,196.087,313.972Z" transform="translate(-195.413 -312.833)" fill="#e1b89f"/>
            <g id="Group_1172951" data-name="Group 1172951" transform="translate(5.104 7.469)">
              <path id="Path_947970" data-name="Path 947970" d="M203.3,323.834s.016.178.03.445.014.62.021.972,0,.705,0,.969.009.443.009.443a2.781,2.781,0,0,1-.113-.434,6.237,6.237,0,0,1-.08-.979,8.583,8.583,0,0,1,.061-.977C203.266,324.01,203.3,323.834,203.3,323.834Z" transform="translate(-203.169 -323.834)" fill="#002e5c"/>
            </g>
            <g id="Group_1172952" data-name="Group 1172952" transform="translate(3.454 7.867)">
              <path id="Path_947971" data-name="Path 947971" d="M200.778,324.439s.011.195.027.487.029.677.045,1.065c.028.776.057,1.552.057,1.552a4.8,4.8,0,0,1-.119-.476,7.534,7.534,0,0,1-.124-1.069,8,8,0,0,1,.037-1.075C200.735,324.63,200.778,324.439,200.778,324.439Z" transform="translate(-200.661 -324.439)" fill="#002e5c"/>
            </g>
            <g id="Group_1172953" data-name="Group 1172953" transform="translate(1.669 8.261)">
              <path id="Path_947972" data-name="Path 947972" d="M198.044,325.038s.022.183.043.456.03.637.047,1,.014.725.019,1,.022.455.022.455a2.461,2.461,0,0,1-.126-.443,6.761,6.761,0,0,1-.1-1,9.667,9.667,0,0,1,.035-1.006C198.011,325.22,198.044,325.038,198.044,325.038Z" transform="translate(-197.947 -325.038)" fill="#002e5c"/>
            </g>
          </g>
          <path id="Path_947973" data-name="Path 947973" d="M127.138,220.7s2.034,3.226,1.623-2.2c1.973-2.713.884-4.686.308-5.591,5.015.493,6.622.74,6.97-.493,5.527.658,7.375-3.042,1.148-4.686,1.091-1.891-4.608-3.852-7.021-1.35s-4.677-.376-5.024,1.926-5.28,2.23-3.472,4.856-1.428,4.887.4,5.565S124.518,222.608,127.138,220.7Z" transform="translate(-63.213 -90.553)" fill="#6471c0"/>
          <g id="Group_1172955" data-name="Group 1172955" transform="translate(66.247 114.087)">
            <path id="Path_947974" data-name="Path 947974" d="M133.72,207.309a2.858,2.858,0,0,1,.393-.9,3.92,3.92,0,0,1,.288-.385,3.074,3.074,0,0,1,.374-.387,4.649,4.649,0,0,1,.964-.659,4.925,4.925,0,0,1,.545-.234,5.132,5.132,0,0,1,.545-.175,6.234,6.234,0,0,1,1-.179,5.9,5.9,0,0,1,.712-.035l.27-.005s-.392.041-.966.143a8.072,8.072,0,0,0-.966.23,4.857,4.857,0,0,0-.527.182,4.766,4.766,0,0,0-.523.237,4.548,4.548,0,0,0-.943.615,4.5,4.5,0,0,0-.379.355,3.849,3.849,0,0,0-.3.355A3.28,3.28,0,0,0,133.72,207.309Z" transform="translate(-133.72 -204.349)" fill="#6471c0"/>
          </g>
          <g id="Group_1172956" data-name="Group 1172956" transform="translate(73.234 117.11)">
            <path id="Path_947975" data-name="Path 947975" d="M144.343,209.266a1.221,1.221,0,0,1,.212-.122,1.965,1.965,0,0,1,.625-.175,3.017,3.017,0,0,1,.921.026,4.933,4.933,0,0,1,1.014.292c.17.061.325.152.484.227s.307.167.451.251a8.242,8.242,0,0,1,.754.515c.214.159.373.317.493.415l.184.16-.737-.489c-.226-.137-.483-.308-.774-.46-.144-.08-.289-.168-.448-.236s-.311-.155-.477-.21a4.758,4.758,0,0,0-.973-.306,3.338,3.338,0,0,0-.883-.08A1.926,1.926,0,0,0,144.343,209.266Z" transform="translate(-144.343 -208.945)" fill="#6471c0"/>
          </g>
          <g id="Group_1172957" data-name="Group 1172957" transform="translate(68.535 117.021)">
            <path id="Path_947976" data-name="Path 947976" d="M137.2,209.494l.147.059a.709.709,0,0,0,.174.027,1.97,1.97,0,0,0,.224-.009,5.343,5.343,0,0,0,1.172-.4c.214-.083.429-.169.638-.236a2.557,2.557,0,0,1,.59-.12.867.867,0,0,1,.562.149l-.149-.049a1.159,1.159,0,0,0-.4,0,6.547,6.547,0,0,0-1.169.424c-.216.082-.43.168-.641.232a2.3,2.3,0,0,1-.595.1.935.935,0,0,1-.42-.094Z" transform="translate(-137.199 -208.81)" fill="#002e5c"/>
          </g>
          <path id="Path_947977" data-name="Path 947977" d="M128.848,229.8a2.249,2.249,0,1,1-2.428-1.975A2.213,2.213,0,0,1,128.848,229.8Z" transform="translate(-64.27 -98.294)" fill="#e1b89f"/>
          <g id="Group_1172958" data-name="Group 1172958" transform="translate(61.02 130.38)">
            <path id="Path_947978" data-name="Path 947978" d="M127.016,231.837a.789.789,0,0,1-.372-.445.993.993,0,0,1,.019-.6,1.14,1.14,0,0,1,.914-.747l-.078.117a1.5,1.5,0,0,0-.233-.487,1.182,1.182,0,0,0-1.493-.309,1.113,1.113,0,0,1,1.133-.159,1.34,1.34,0,0,1,.773.905.091.091,0,0,1-.061.114l-.017,0a1.01,1.01,0,0,0-.8.614.887.887,0,0,0-.064.528A.742.742,0,0,0,127.016,231.837Z" transform="translate(-125.773 -229.121)" fill="#002e5c"/>
          </g>
          <g id="Group_1172959" data-name="Group 1172959" transform="translate(65.609 122.057)">
            <path id="Path_947979" data-name="Path 947979" d="M132.75,216.467a7.519,7.519,0,0,0,1.129.629c.174.085.366.169.572.248s.429.149.654.234a7.829,7.829,0,0,0,1.471.316,5.118,5.118,0,0,0,.761.059,5.179,5.179,0,0,0,.739-.022,5.648,5.648,0,0,0,.687-.089,3.454,3.454,0,0,0,.606-.136c.184-.057.36-.089.507-.145l.38-.147.333-.129-.32.158a4.763,4.763,0,0,1-.871.364,3.583,3.583,0,0,1-.61.169,4.182,4.182,0,0,1-.7.116,5.31,5.31,0,0,1-.757.036,5.121,5.121,0,0,1-.781-.049,7.994,7.994,0,0,1-1.5-.347,8.352,8.352,0,0,1-1.223-.543A6.254,6.254,0,0,1,132.75,216.467Z" transform="translate(-132.75 -216.467)" fill="#6471c0"/>
          </g>
          <g id="Group_1172960" data-name="Group 1172960" transform="translate(61.512 121.235)">
            <path id="Path_947980" data-name="Path 947980" d="M128.107,215.217l-.1.28a1.677,1.677,0,0,0-.085.751,2.505,2.505,0,0,0,.185.478,1.344,1.344,0,0,1,.107.6,3.917,3.917,0,0,1-.323,1.253,7.11,7.11,0,0,1-.606,1.133,9.741,9.741,0,0,0-.6.918.785.785,0,0,0-.076.407.9.9,0,0,0,.1.316,1.927,1.927,0,0,0,.149.257,1.974,1.974,0,0,1-.176-.241.954.954,0,0,1-.135-.321.774.774,0,0,1,.045-.457,7.353,7.353,0,0,1,.562-.966,7.007,7.007,0,0,0,.57-1.117,3.775,3.775,0,0,0,.334-1.189,1.351,1.351,0,0,0-.072-.546,2.594,2.594,0,0,1-.161-.509,1.585,1.585,0,0,1,.159-.78Z" transform="translate(-126.521 -215.217)" fill="#002e5c"/>
          </g>
          <g id="Group_1172961" data-name="Group 1172961" transform="translate(64.787 118.407)">
            <path id="Path_947981" data-name="Path 947981" d="M131.5,212.485s.118-.1.339-.27a3.453,3.453,0,0,1,.418-.274,1.775,1.775,0,0,1,.616-.225,3.17,3.17,0,0,1,1.594.322,3.128,3.128,0,0,0,.852.243,3.709,3.709,0,0,0,.916,0,7.6,7.6,0,0,0,1.773-.424,2.605,2.605,0,0,0,.749-.343,5.049,5.049,0,0,1,.633-.437,1.15,1.15,0,0,1,.64-.153,1.1,1.1,0,0,1,.479.152,2.11,2.11,0,0,1,.347.261,2.223,2.223,0,0,0-.361-.233,1.049,1.049,0,0,0-.467-.112,1.168,1.168,0,0,0-.587.178,5,5,0,0,0-.6.453,2.45,2.45,0,0,1-.777.387,7.77,7.77,0,0,1-1.809.457,3.86,3.86,0,0,1-.958-.01,3.33,3.33,0,0,1-.889-.265,3.2,3.2,0,0,0-1.519-.369,2.577,2.577,0,0,0-1.031.422C131.626,212.389,131.5,212.485,131.5,212.485Z" transform="translate(-131.5 -210.918)" fill="#002e5c"/>
          </g>
          <g id="Group_1172967" data-name="Group 1172967" transform="translate(74.658 133.877)">
            <rect id="Rectangle_448985" data-name="Rectangle 448985" width="37.126" height="41.072" transform="translate(0 14.784) rotate(-23.466)" fill="#e2e0f4"/>
            <rect id="Rectangle_448986" data-name="Rectangle 448986" width="29.01" height="29.01" transform="translate(5.338 16.89) rotate(-23.466)" fill="#6471c0"/>
            <path id="Path_947982" data-name="Path 947982" d="M197.046,278.949,170.435,290.5l-3.378-7.782c.536-4.746,2.3-6.842,3.87-7.872,3.359-2.209,7.043-.338,14.644-1.5a38.486,38.486,0,0,0,8.1-2.178Q195.357,275.058,197.046,278.949Z" transform="translate(-153.541 -247.008)" fill="#5464c0"/>
            <path id="Path_947983" data-name="Path 947983" d="M170.941,290.934l26.611-11.552-2.405-5.541a10.016,10.016,0,0,0-7.743-1.047c-3.829,1.128-5.342,4.256-11.608,8.5a53.16,53.16,0,0,1-7.259,4.1Z" transform="translate(-154.047 -247.44)" fill="#6471c0"/>
            <g id="Group_1172962" data-name="Group 1172962" transform="translate(20.292 15.932)">
              <path id="Path_947984" data-name="Path 947984" d="M177.358,258.659l1.634,14.041,7.344-3.189Z" transform="translate(-177.358 -258.659)" fill="#ff757e"/>
            </g>
            <g id="Group_1172963" data-name="Group 1172963" transform="translate(24.525 27.338)">
              <rect id="Rectangle_448987" data-name="Rectangle 448987" width="1.644" height="4.056" transform="translate(0 0.655) rotate(-23.466)" fill="#ff757e"/>
            </g>
            <g id="Group_1172964" data-name="Group 1172964" transform="translate(29.571 12.539)">
              <path id="Path_947985" data-name="Path 947985" d="M191.466,253.5l1.577,13.554,7.09-3.078Z" transform="translate(-191.466 -253.5)" fill="#ff757e"/>
            </g>
            <g id="Group_1172965" data-name="Group 1172965" transform="translate(33.673 23.541)">
              <rect id="Rectangle_448988" data-name="Rectangle 448988" width="1.587" height="3.915" transform="matrix(0.917, -0.398, 0.398, 0.917, 0, 0.632)" fill="#ff757e"/>
            </g>
            <g id="Group_1172966" data-name="Group 1172966" transform="translate(26.678 18.179)">
              <path id="Path_947986" data-name="Path 947986" d="M187.067,262.076l1.186,10.193,5.331-2.315Z" transform="translate(-187.067 -262.076)" fill="#fd505a"/>
            </g>
            <rect id="Rectangle_448989" data-name="Rectangle 448989" width="1.194" height="2.944" transform="translate(29.752 26.934) rotate(-23.466)" fill="#fd505a"/>
          </g>
          <g id="Group_1172970" data-name="Group 1172970" transform="translate(76.228 105.066)">
            <rect id="Rectangle_448990" data-name="Rectangle 448990" width="37.126" height="41.072" transform="translate(16.355 0) rotate(23.466)" fill="#e2e0f4"/>
            <g id="Group_1172968" data-name="Group 1172968" transform="translate(6.911 5.338)">
              <rect id="Rectangle_448991" data-name="Rectangle 448991" width="29.01" height="29.01" transform="translate(0 26.611) rotate(-66.534)" fill="#ff757e"/>
            </g>
            <g id="Group_1172969" data-name="Group 1172969" transform="translate(6.91 17.307)">
              <path id="Path_947987" data-name="Path 947987" d="M159.4,231.588l26.611,11.552,6.356-14.642a19.073,19.073,0,0,0-4.467-6.339c-2.486-2.213-4.85-2.746-13.618-4.026-3.3-.481-6.183-.877-8.526-1.187Q162.579,224.267,159.4,231.588Z" transform="translate(-159.4 -216.946)" fill="#fff"/>
            </g>
            <rect id="Rectangle_448992" data-name="Rectangle 448992" width="13.812" height="15.962" transform="translate(18.737 12.956) rotate(23.466)" fill="#6471c0"/>
            <rect id="Rectangle_448993" data-name="Rectangle 448993" width="3.289" height="15.962" transform="translate(28.069 34.406) rotate(-156.534)" fill="#5464c0"/>
          </g>
          <g id="Group_1172977" data-name="Group 1172977" transform="translate(90.134 131.292)">
            <rect id="Rectangle_448994" data-name="Rectangle 448994" width="37.126" height="41.072" transform="translate(37.126 41.347) rotate(-179.576)" fill="#e2e0f4"/>
            <g id="Group_1172971" data-name="Group 1172971" transform="translate(4.124 4.1)">
              <rect id="Rectangle_448995" data-name="Rectangle 448995" width="29.01" height="29.01" transform="translate(0 29.01) rotate(-89.576)" fill="#fd505a"/>
            </g>
            <path id="Path_947988" data-name="Path 947988" d="M176.294,273.506l29.009.214.062-8.483c-2.351-4.158-4.8-5.394-6.643-5.729-3.956-.717-6.614,2.446-14.064,4.35a38.447,38.447,0,0,1-8.3,1.165Q176.325,269.263,176.294,273.506Z" transform="translate(-172.178 -240.398)" fill="#5464c0"/>
            <path id="Path_947989" data-name="Path 947989" d="M205.3,275.8l-29.009-.214.045-6.04a10.014,10.014,0,0,1,6.715-3.994c3.964-.46,6.582,1.825,14.008,3.274a53.155,53.155,0,0,0,8.286.934Q205.325,272.785,205.3,275.8Z" transform="translate(-172.178 -242.483)" fill="#6471c0"/>
            <g id="Group_1172972" data-name="Group 1172972" transform="translate(15.196 9.289)">
              <path id="Path_947990" data-name="Path 947990" d="M197.154,244.631l3.992,13.56-8.006-.059Z" transform="translate(-193.14 -244.631)" fill="#ff757e"/>
            </g>
            <g id="Group_1172973" data-name="Group 1172973" transform="translate(18.363 22.03)">
              <rect id="Rectangle_448996" data-name="Rectangle 448996" width="4.056" height="1.644" transform="translate(0 4.056) rotate(-89.576)" fill="#ff757e"/>
            </g>
            <g id="Group_1172974" data-name="Group 1172974" transform="translate(5.468 9.799)">
              <path id="Path_947991" data-name="Path 947991" d="M182.224,245.406l3.854,13.09-7.728-.057Z" transform="translate(-178.35 -245.406)" fill="#ff757e"/>
            </g>
            <g id="Group_1172975" data-name="Group 1172975" transform="translate(8.523 22.096)">
              <rect id="Rectangle_448997" data-name="Rectangle 448997" width="3.915" height="1.587" transform="translate(0 3.916) rotate(-89.576)" fill="#ff757e"/>
            </g>
            <g id="Group_1172976" data-name="Group 1172976" transform="translate(11.3 13.857)">
              <path id="Path_947992" data-name="Path 947992" d="M190.13,251.576l2.9,9.843-5.812-.043Z" transform="translate(-187.216 -251.576)" fill="#fd505a"/>
            </g>
            <rect id="Rectangle_448998" data-name="Rectangle 448998" width="1.194" height="2.945" transform="translate(14.785 26.05) rotate(-179.576)" fill="#fd505a"/>
          </g>
          <g id="Group_1172984" data-name="Group 1172984" transform="translate(90.758 135.131)">
            <rect id="Rectangle_448999" data-name="Rectangle 448999" width="37.125" height="41.072" transform="translate(16.93) rotate(24.343)" fill="#e2e0f4"/>
            <g id="Group_1172978" data-name="Group 1172978" transform="translate(6.988 5.363)">
              <rect id="Rectangle_449000" data-name="Rectangle 449000" width="29.01" height="29.01" transform="translate(0 26.431) rotate(-65.657)" fill="#fff"/>
            </g>
            <path id="Path_947993" data-name="Path 947993" d="M208.041,291.259,181.611,279.3l3.5-7.729c3.877-2.79,6.617-2.888,8.432-2.418,3.892,1.006,4.98,4.992,10.948,9.842a38.485,38.485,0,0,0,7.05,4.536Z" transform="translate(-174.622 -247.5)" fill="#5464c0"/>
            <path id="Path_947994" data-name="Path 947994" d="M181.611,281.829l26.43,11.959,2.49-5.5a10.019,10.019,0,0,0-4.424-6.441c-3.407-2.079-6.741-1.1-14.091-2.9a53.1,53.1,0,0,1-7.915-2.623Z" transform="translate(-174.622 -250.029)" fill="#6471c0"/>
            <g id="Group_1172979" data-name="Group 1172979" transform="translate(20.386 15.809)">
              <path id="Path_947995" data-name="Path 947995" d="M211.285,260.379l-9.306,10.64,7.294,3.3Z" transform="translate(-201.979 -260.379)" fill="#ff757e"/>
            </g>
            <g id="Group_1172980" data-name="Group 1172980" transform="translate(21.936 27.033)">
              <rect id="Rectangle_449001" data-name="Rectangle 449001" width="4.056" height="1.644" transform="translate(0 3.696) rotate(-65.657)" fill="#ff757e"/>
            </g>
            <g id="Group_1172981" data-name="Group 1172981" transform="translate(29.454 20.405)">
              <path id="Path_947996" data-name="Path 947996" d="M224.75,267.367l-8.983,10.271,7.041,3.186Z" transform="translate(-215.767 -267.367)" fill="#ff757e"/>
            </g>
            <g id="Group_1172982" data-name="Group 1172982" transform="translate(30.963 31.254)">
              <rect id="Rectangle_449002" data-name="Rectangle 449002" width="3.915" height="1.587" transform="matrix(0.412, -0.911, 0.911, 0.412, 0, 3.567)" fill="#ff757e"/>
            </g>
            <g id="Group_1172983" data-name="Group 1172983" transform="translate(25.559 22.048)">
              <path id="Path_947997" data-name="Path 947997" d="M216.6,269.866l-6.756,7.724,5.295,2.4Z" transform="translate(-209.845 -269.866)" fill="#fd505a"/>
            </g>
            <rect id="Rectangle_449003" data-name="Rectangle 449003" width="1.194" height="2.945" transform="translate(27.907 30.204) rotate(24.343)" fill="#fd505a"/>
          </g>
          <rect id="Rectangle_449004" data-name="Rectangle 449004" width="26.765" height="38.421" transform="translate(136.809 200.457) rotate(180)" fill="#e2e0f4"/>
          <rect id="Rectangle_449005" data-name="Rectangle 449005" width="33.859" height="38.421" transform="translate(76.184 162.036)" fill="#c0bed3"/>
          <g id="Group_1172993" data-name="Group 1172993" transform="translate(51.849 146.466)">
            <g id="Group_1172985" data-name="Group 1172985" transform="translate(5.596 12.435)">
              <path id="Path_947998" data-name="Path 947998" d="M152.172,312.046,120.338,280.6c2.983-2.337,5.73-5.675,8.724-8.116l25.988,31.86" transform="translate(-120.338 -272.483)" fill="#e1b89f"/>
            </g>
            <g id="Group_1172986" data-name="Group 1172986">
              <path id="Path_947999" data-name="Path 947999" d="M114.91,271.349c-3.574-4.6-4.678-14.723.2-17.566,1.565-.913,2.7,1.436,3.779,2.891l7.323,9.433c-2.994,2.441-5.741,5.779-8.724,8.116A32.741,32.741,0,0,1,114.91,271.349Z" transform="translate(-111.83 -253.578)" fill="#fd505a"/>
            </g>
            <g id="Group_1172987" data-name="Group 1172987" transform="translate(4.452 11.057)">
              <path id="Path_948000" data-name="Path 948000" d="M127.422,270.388l-1.343,1.32c-.81.788-1.907,1.82-3.005,2.85s-2.216,2.04-3.06,2.79l-1.414,1.243,1.342-1.32c.81-.788,1.907-1.82,3.005-2.85s2.216-2.04,3.06-2.79Z" transform="translate(-118.599 -270.388)" fill="#002e5c"/>
            </g>
            <g id="Group_1172991" data-name="Group 1172991" transform="translate(32.095 43.692)">
              <path id="Path_948001" data-name="Path 948001" d="M169.876,324" transform="translate(-163.793 -321.373)" fill="#e1b89f"/>
              <path id="Path_948002" data-name="Path 948002" d="M160.649,325.838c-.111,1.742.205,5.281.716,5.337s1.006-1.615,1.006-1.615.036,2.32.749,2.413,1.068-2.3,1.068-2.3.167,2.98.848,2.858.771-3.16.771-3.16.367,3.109.9,3.164c1.033.105,1.629-5.02,1.921-8.508,0,0-.508,3.447.873,3.655s.873-6.792-1.485-7.678" transform="translate(-160.627 -320.005)" fill="#e1b89f"/>
              <path id="Path_948003" data-name="Path 948003" d="M161.3,321.5s-1.744,6.874.4,7.672,7.2,3.042,6.351-5.268C167.611,319.488,161.3,321.5,161.3,321.5Z" transform="translate(-160.63 -320.36)" fill="#e1b89f"/>
              <g id="Group_1172988" data-name="Group 1172988" transform="translate(5.103 7.47)">
                <path id="Path_948004" data-name="Path 948004" d="M168.521,331.362s.016.178.03.445.014.62.021.972,0,.705,0,.97.009.443.009.443a2.78,2.78,0,0,1-.113-.434,6.317,6.317,0,0,1-.08-.979,8.578,8.578,0,0,1,.061-.977C168.483,331.537,168.521,331.362,168.521,331.362Z" transform="translate(-168.386 -331.362)" fill="#002e5c"/>
              </g>
              <g id="Group_1172989" data-name="Group 1172989" transform="translate(3.454 7.867)">
                <path id="Path_948005" data-name="Path 948005" d="M166,331.966s.011.195.027.487.029.677.045,1.065c.028.776.057,1.552.057,1.552a4.793,4.793,0,0,1-.119-.476,7.536,7.536,0,0,1-.124-1.069,8,8,0,0,1,.037-1.075C165.953,332.158,166,331.966,166,331.966Z" transform="translate(-165.878 -331.966)" fill="#002e5c"/>
              </g>
              <g id="Group_1172990" data-name="Group 1172990" transform="translate(1.67 8.261)">
                <path id="Path_948006" data-name="Path 948006" d="M163.263,332.565s.022.183.043.456.03.637.047,1,.014.725.019,1,.022.455.022.455a2.461,2.461,0,0,1-.126-.443,6.763,6.763,0,0,1-.1-1,9.67,9.67,0,0,1,.035-1.006C163.23,332.747,163.263,332.565,163.263,332.565Z" transform="translate(-163.166 -332.565)" fill="#002e5c"/>
              </g>
            </g>
            <g id="Group_1172992" data-name="Group 1172992" transform="translate(39.834 47.715)">
              <path id="Path_948007" data-name="Path 948007" d="M172.658,326.122s.011.164.012.41-.021.57-.046.894-.078.646-.127.886-.091.4-.091.4-.011-.164-.013-.41.021-.57.046-.894.078-.646.127-.886S172.658,326.122,172.658,326.122Z" transform="translate(-172.393 -326.122)" fill="#002e5c"/>
            </g>
          </g>
          <g id="Group_1173001" data-name="Group 1173001" transform="translate(123.205 43.047)">
            <rect id="Rectangle_449006" data-name="Rectangle 449006" width="37.126" height="41.072" transform="translate(0 8.843) rotate(-13.781)" fill="#e2e0f4"/>
            <rect id="Rectangle_449007" data-name="Rectangle 449007" width="29.01" height="29.01" transform="translate(4.908 11.818) rotate(-13.781)" fill="#6471c0"/>
            <g id="Group_1172994" data-name="Group 1172994" transform="translate(10.38 27.093)">
              <path id="Path_948008" data-name="Path 948008" d="M237.537,150.44l28.175-6.91-1.438-5.866a33.259,33.259,0,0,0-6.794.093c-3.164.37-5.436,1.1-13.534,3.993-3.046,1.087-5.7,2.044-7.847,2.823Z" transform="translate(-236.099 -137.534)" fill="#fff"/>
            </g>
            <g id="Group_1172995" data-name="Group 1172995" transform="translate(10.513 15.769)">
              <rect id="Rectangle_449008" data-name="Rectangle 449008" width="7.37" height="16.729" transform="translate(0 1.756) rotate(-13.781)" fill="#ff757e"/>
            </g>
            <g id="Group_1172996" data-name="Group 1172996" transform="translate(17.67 15.045)">
              <rect id="Rectangle_449009" data-name="Rectangle 449009" width="3.051" height="16.729" transform="translate(0 0.727) rotate(-13.781)" fill="#fd505a"/>
            </g>
            <g id="Group_1172997" data-name="Group 1172997" transform="translate(21.048 20.391)">
              <rect id="Rectangle_449010" data-name="Rectangle 449010" width="4.573" height="10.379" transform="translate(0 1.089) rotate(-13.781)" fill="#ff757e"/>
            </g>
            <g id="Group_1172998" data-name="Group 1172998" transform="translate(25.488 19.94)">
              <rect id="Rectangle_449011" data-name="Rectangle 449011" width="1.893" height="10.379" transform="translate(0 0.451) rotate(-13.781)" fill="#fd505a"/>
            </g>
            <g id="Group_1172999" data-name="Group 1172999" transform="translate(25.954 15.538)">
              <rect id="Rectangle_449012" data-name="Rectangle 449012" width="4.573" height="13.922" transform="translate(0 1.089) rotate(-13.781)" fill="#ff757e"/>
            </g>
            <g id="Group_1173000" data-name="Group 1173000" transform="translate(30.393 15.09)">
              <rect id="Rectangle_449013" data-name="Rectangle 449013" width="1.893" height="13.922" transform="translate(0 0.451) rotate(-13.781)" fill="#fd505a"/>
            </g>
          </g>
          <g id="Group_1173067" data-name="Group 1173067" transform="translate(122.503 74.832)">
            <g id="Group_1173012" data-name="Group 1173012" transform="translate(46.312 30.256)">
              <g id="Group_1173009" data-name="Group 1173009">
                <g id="Group_1173008" data-name="Group 1173008">
                  <g id="Group_1173007" data-name="Group 1173007">
                    <path id="Path_948009" data-name="Path 948009" d="M297.485,195.459c-2.019-2.771-3.987-5-4.469-4.776s.658,2.536.658,2.536-.9-1.18-1.53-.916.036,1.533.036,1.533-.872-1.009-1.415-.549-.029,1.622-.029,1.622-.6-.32-.994,0,.743,2.488,1.467,4.048c2.4,5.162,7.605,7.614,9.11,2.8" transform="translate(-289.661 -190.668)" fill="#e1b89f"/>
                    <path id="Path_948010" data-name="Path 948010" d="M330.721,228.229l11.6,9.722c3.4,2.979-1.678,7.507-2.551,11.587-.187.873-4.759-2.045-15.856-13.759C324.839,232.014,326.785,230.048,330.721,228.229Z" transform="translate(-301.385 -203.524)" fill="#d3d1e8"/>
                    <g id="Group_1173002" data-name="Group 1173002" transform="translate(25.692 35.514)">
                      <path id="Path_948011" data-name="Path 948011" d="M328.722,244.662l.922.789c.549.478,1.265,1.133,1.978,1.79s1.408,1.335,1.923,1.85l.851.866-.922-.789c-.549-.478-1.265-1.133-1.978-1.79s-1.408-1.335-1.923-1.85S328.722,244.662,328.722,244.662Z" transform="translate(-328.722 -244.662)" fill="#002e5c"/>
                    </g>
                    <path id="Path_948012" data-name="Path 948012" d="M300.924,205.715l19.6,14.808c-3.936,1.819-5.881,3.785-6.8,7.55l-.053-.056c-2.417-2.565-19.543-21.628-19.543-21.628Z" transform="translate(-291.188 -195.818)" fill="#e1b89f"/>
                    <g id="Group_1173003" data-name="Group 1173003" transform="translate(3.636 1.705)">
                      <path id="Path_948013" data-name="Path 948013" d="M296.584,195.667s-.122-.128-.288-.331a8.344,8.344,0,0,1-.55-.789,6.041,6.041,0,0,1-.431-.864,2.765,2.765,0,0,1-.126-.423s.084.155.22.377l.5.813c.174.3.354.6.478.827S296.584,195.667,296.584,195.667Z" transform="translate(-295.19 -193.26)" fill="#002e5c"/>
                    </g>
                    <g id="Group_1173004" data-name="Group 1173004" transform="translate(2.278 2.554)">
                      <path id="Path_948014" data-name="Path 948014" d="M294.734,197.469s-.142-.155-.333-.406a9.677,9.677,0,0,1-.627-.967,8.524,8.524,0,0,1-.489-1.044,5.159,5.159,0,0,1-.16-.5l.812,1.454.553,1Z" transform="translate(-293.124 -194.551)" fill="#002e5c"/>
                    </g>
                    <g id="Group_1173005" data-name="Group 1173005" transform="translate(0.879 3.553)">
                      <path id="Path_948015" data-name="Path 948015" d="M293.054,199.3s-.164-.177-.394-.455-.513-.666-.786-1.062a10.22,10.22,0,0,1-.667-1.144,2.605,2.605,0,0,1-.209-.567,3.844,3.844,0,0,0,.3.516l.73,1.091c.26.4.528.8.716,1.1S293.054,199.3,293.054,199.3Z" transform="translate(-290.998 -196.069)" fill="#002e5c"/>
                    </g>
                    <g id="Group_1173006" data-name="Group 1173006" transform="translate(23.995 26.206)">
                      <path id="Path_948016" data-name="Path 948016" d="M332.925,230.511a3.731,3.731,0,0,0-.447.06,6.713,6.713,0,0,0-1.132.348,6.186,6.186,0,0,0-.708.347,6.715,6.715,0,0,0-.739.476,9.211,9.211,0,0,0-.726.6c-.216.237-.463.451-.659.712a7.75,7.75,0,0,0-.587.773,8.078,8.078,0,0,0-.5.8c-.138.273-.29.529-.412.782l-.313.729c-.2.448-.309.847-.414,1.116s-.149.428-.149.428l.119-.437a10.629,10.629,0,0,1,.346-1.144l.287-.747c.113-.26.254-.526.393-.8a8.25,8.25,0,0,1,.493-.822,7.817,7.817,0,0,1,.589-.8c.2-.263.46-.481.683-.719a9.433,9.433,0,0,1,.75-.6,5.43,5.43,0,0,1,.77-.464,6.415,6.415,0,0,1,.735-.325A4.859,4.859,0,0,1,332.925,230.511Z" transform="translate(-326.142 -230.51)" fill="#002e5c"/>
                    </g>
                  </g>
                </g>
              </g>
              <path id="Path_948017" data-name="Path 948017" d="M303.433,201.676c.674-4.651-.576-6.689-1.384-6.765s-.335,4.013-.335,4.013" transform="translate(-293.739 -192.12)" fill="#e1b89f"/>
              <g id="Group_1173010" data-name="Group 1173010" transform="translate(6.291 4.791)">
                <path id="Path_948018" data-name="Path 948018" d="M300.759,197.952c.069.458.122.918.167,1.377a.076.076,0,0,1-.066.082h-.007a2.089,2.089,0,0,0-.793.257,2.029,2.029,0,0,0-.326.251,1.378,1.378,0,0,0-.233.335c-.028.062-.046.13-.07.194a1.148,1.148,0,0,0-.043.2,1.957,1.957,0,0,0-.028.422c.012.142.034.285.049.429l.1.428a3.338,3.338,0,0,1-.26-.846,2.077,2.077,0,0,1-.009-.453,1.5,1.5,0,0,1,.111-.447,1.422,1.422,0,0,1,.623-.674,2.22,2.22,0,0,1,.873-.255l-.074.083C300.757,198.877,300.749,198.416,300.759,197.952Z" transform="translate(-299.225 -197.952)" fill="#002e5c"/>
              </g>
              <g id="Group_1173011" data-name="Group 1173011" transform="translate(2.935 3.553)">
                <path id="Path_948019" data-name="Path 948019" d="M296.728,196.07a5.5,5.5,0,0,0-.557.469,7.205,7.205,0,0,0-1.042,1.193,5.581,5.581,0,0,0-.445.718,6.314,6.314,0,0,0-.312.67c-.084.2-.146.372-.183.494l-.064.191s.012-.072.034-.2a3.318,3.318,0,0,1,.114-.522,3,3,0,0,1,.112-.339,3.053,3.053,0,0,1,.155-.369,5.684,5.684,0,0,1,.437-.752,5.352,5.352,0,0,1,1.127-1.166A3.831,3.831,0,0,1,296.728,196.07Z" transform="translate(-294.123 -196.07)" fill="#002e5c"/>
              </g>
            </g>
            <g id="Group_1173014" data-name="Group 1173014">
              <rect id="Rectangle_449014" data-name="Rectangle 449014" width="37.125" height="41.072" transform="translate(0 14.687) rotate(-23.304)" fill="#e2e0f4"/>
              <g id="Group_1173013" data-name="Group 1173013" transform="translate(5.332 5.332)">
                <rect id="Rectangle_449015" data-name="Rectangle 449015" width="29.01" height="29.01" transform="translate(0 11.476) rotate(-23.304)" fill="#fd505a"/>
              </g>
              <path id="Path_948020" data-name="Path 948020" d="M269.474,188.7l-26.644,11.476-3.8-8.822c.333-5.248,2.043-7.486,3.6-8.551,3.329-2.282,7.175-.015,14.882-.919a34.312,34.312,0,0,0,8.166-2.005Q267.575,184.287,269.474,188.7Z" transform="translate(-226.02 -156.719)" fill="#6471c0"/>
              <path id="Path_948021" data-name="Path 948021" d="M261.633,166.794a4.8,4.8,0,1,1-6.3-2.507A4.8,4.8,0,0,1,261.633,166.794Z" transform="translate(-230.606 -151.248)" fill="#fff"/>
            </g>
            <path id="Path_948022" data-name="Path 948022" d="M275.417,219.1c-.713-4.646-2.5-6.229-3.3-6.067s.85,3.937.85,3.937" transform="translate(-237.271 -168.062)" fill="#e1b89f"/>
            <g id="Group_1173018" data-name="Group 1173018" transform="translate(76.37 197.935)">
              <g id="Group_1173015" data-name="Group 1173015">
                <path id="Path_948023" data-name="Path 948023" d="M353.888,445.6l.641,5.125H335.36s1.333-2.2,6.612-3.178l.205-1.794Z" transform="translate(-335.36 -445.601)" fill="#fd505a"/>
              </g>
              <rect id="Rectangle_449016" data-name="Rectangle 449016" width="19.271" height="1.64" transform="translate(19.272 6.766) rotate(180)" fill="#b2b2d3"/>
              <g id="Group_1173016" data-name="Group 1173016" transform="translate(12.033 2.7)">
                <path id="Path_948024" data-name="Path 948024" d="M360.507,449.707s-.471.049-1.173.143-1.638.216-2.558.41a8.541,8.541,0,0,0-2.439.789,1.48,1.48,0,0,0-.6.569.957.957,0,0,0-.084.309.965.965,0,0,1,.055-.322,1.437,1.437,0,0,1,.572-.645,7.391,7.391,0,0,1,2.458-.883,20.546,20.546,0,0,1,2.586-.332C360.033,449.7,360.507,449.707,360.507,449.707Z" transform="translate(-353.654 -449.707)" fill="#fff"/>
              </g>
              <g id="Group_1173017" data-name="Group 1173017" transform="translate(0.892 3.584)">
                <path id="Path_948025" data-name="Path 948025" d="M337.642,451.05s-.07.091-.167.227-.232.307-.343.493a4.354,4.354,0,0,0-.3.517,2.767,2.767,0,0,0-.12.254,1.523,1.523,0,0,1,.02-.287,1.769,1.769,0,0,1,.24-.585,2.07,2.07,0,0,1,.424-.465A1.482,1.482,0,0,1,337.642,451.05Z" transform="translate(-336.716 -451.05)" fill="#fff"/>
              </g>
            </g>
            <g id="Group_1173022" data-name="Group 1173022" transform="translate(44.389 197.796)">
              <g id="Group_1173019" data-name="Group 1173019" transform="translate(0)">
                <path id="Path_948026" data-name="Path 948026" d="M305.265,445.39l.641,5.125H286.737s1.333-2.2,6.612-3.177l.205-1.794Z" transform="translate(-286.737 -445.39)" fill="#fd505a"/>
              </g>
              <rect id="Rectangle_449017" data-name="Rectangle 449017" width="19.271" height="1.64" transform="translate(19.271 6.766) rotate(180)" fill="#b2b2d3"/>
              <g id="Group_1173020" data-name="Group 1173020" transform="translate(12.032 2.7)">
                <path id="Path_948027" data-name="Path 948027" d="M311.883,449.495s-.471.049-1.173.143-1.638.216-2.558.41a8.54,8.54,0,0,0-2.439.789,1.477,1.477,0,0,0-.6.57.956.956,0,0,0-.084.309.965.965,0,0,1,.055-.322,1.44,1.44,0,0,1,.572-.645,7.39,7.39,0,0,1,2.458-.883,20.546,20.546,0,0,1,2.586-.332C311.409,449.49,311.883,449.495,311.883,449.495Z" transform="translate(-305.03 -449.495)" fill="#fff"/>
              </g>
              <g id="Group_1173021" data-name="Group 1173021" transform="translate(0.891 3.62)">
                <path id="Path_948028" data-name="Path 948028" d="M289.018,450.894s-.07.091-.167.227-.232.307-.343.493a4.308,4.308,0,0,0-.3.517,2.765,2.765,0,0,0-.12.254,1.594,1.594,0,0,1,.02-.287,1.769,1.769,0,0,1,.24-.585,2.069,2.069,0,0,1,.424-.465A1.444,1.444,0,0,1,289.018,450.894Z" transform="translate(-288.091 -450.894)" fill="#fff"/>
              </g>
            </g>
            <path id="Path_948029" data-name="Path 948029" d="M326.66,299.245c.773,3.037,4.937,7.609,5.668,13.234a111.894,111.894,0,0,1,.822,19.883c-.37,8.773,1,26.479,7.784,64.581h-15l-7.671-76.322-8.348,31.873.147,43.789-14.47-.3.349-43.505c-.022-3,3.683-27.608,5.883-34.54,2.217-6.988,3.727-12.549,7.454-18.694Z" transform="translate(-245.379 -197.574)" fill="#002e5c"/>
            <g id="Group_1173023" data-name="Group 1173023" transform="translate(80.556 192.306)">
              <path id="Path_948030" data-name="Path 948030" d="M355.5,437.136l-2.153.053c-1.292.025-3.014.034-4.737.041s-3.445-.015-4.737-.041l-2.153-.053,2.153-.053c1.292-.026,3.014-.034,4.737-.041s3.445.015,4.737.041Z" transform="translate(-341.724 -437.043)" fill="#006bdc"/>
            </g>
            <g id="Group_1173024" data-name="Group 1173024" transform="translate(50.214 191.962)">
              <path id="Path_948031" data-name="Path 948031" d="M309.859,436.614l-2.229.052c-1.337.026-3.12.034-4.9.041s-3.566-.015-4.9-.041l-2.229-.053,2.229-.053c1.337-.026,3.12-.034,4.9-.041s3.566.016,4.9.041Z" transform="translate(-295.593 -436.52)" fill="#006bdc"/>
            </g>
            <g id="Group_1173025" data-name="Group 1173025" transform="translate(65.581 122.638)">
              <path id="Path_948032" data-name="Path 948032" d="M338.068,331.122l-2.985.134-6.568.227-6.57.141-2.987.034,2.985-.134,6.568-.227,6.57-.141Z" transform="translate(-318.957 -331.122)" fill="#006bdc"/>
            </g>
            <g id="Group_1173026" data-name="Group 1173026" transform="translate(53.889 110.435)">
              <path id="Path_948033" data-name="Path 948033" d="M309.634,312.569s-1.079,5.035-2.6,12.607c-.762,3.786-1.634,8.206-2.509,12.953s-1.767,9.819-2.465,14.918a68.252,68.252,0,0,0-.714,7.634c0,2.534,0,5.028,0,7.442,0,4.827,0,9.333,0,13.194-.019,7.724-.032,12.873-.032,12.873s-.028-5.149-.071-12.873c-.013-3.862-.026-8.367-.041-13.194-.008-2.414-.015-4.908-.024-7.442a64.361,64.361,0,0,1,.7-7.658c.714-5.1,1.626-10.173,2.51-14.918s1.774-9.164,2.547-12.948C308.5,317.593,309.634,312.569,309.634,312.569Z" transform="translate(-301.18 -312.569)" fill="#006bdc"/>
            </g>
            <g id="Group_1173027" data-name="Group 1173027" transform="translate(76.37 122.938)">
              <path id="Path_948034" data-name="Path 948034" d="M335.36,331.579s.452,4.339,1.131,10.848c.66,6.511,1.54,15.192,2.42,23.873.849,8.684,1.7,17.368,2.334,23.882l1.031,10.859s-.452-4.339-1.131-10.848c-.66-6.511-1.54-15.192-2.42-23.873-.849-8.684-1.7-17.368-2.334-23.882C335.772,335.922,335.36,331.579,335.36,331.579Z" transform="translate(-335.36 -331.579)" fill="#006bdc"/>
            </g>
            <rect id="Rectangle_449018" data-name="Rectangle 449018" width="8.61" height="15.581" transform="translate(86.411 70.459) rotate(-170.241)" fill="#e1b89f"/>
            <path id="Path_948035" data-name="Path 948035" d="M337,246.18l-.151-.038c-4.409,1.423-6.8-.433-9.147-1.686a2.869,2.869,0,0,0-.774-.156c-3.124-.18-5.541,5.043-5.789,5.6-2.213,3.744-4.226,3.414-5.081,6.567a11.562,11.562,0,0,0,.476,6.8c1.258,3.946.688,11.043-7.663,24.869l29.279,4.1a63.229,63.229,0,0,1,.443-17.81c1.248-7.439,2.211-13.76,4.2-17.813C345.037,248.655,337.06,246.195,337,246.18Z" transform="translate(-249.924 -178.767)" fill="#d3d1e8"/>
            <g id="Group_1173036" data-name="Group 1173036" transform="translate(58.949 65.529)">
              <g id="Group_1173035" data-name="Group 1173035" clip-path="url(#clip-path-2)">
                <g id="Group_1173028" data-name="Group 1173028" transform="translate(1.275 35.677)">
                  <path id="Path_948036" data-name="Path 948036" d="M310.811,299.005a8.3,8.3,0,0,1,1.386-.331,10.26,10.26,0,0,1,3.746.078,9.646,9.646,0,0,1,2.365.863,9.512,9.512,0,0,1,2.246,1.686,6.773,6.773,0,0,0,2.336,1.784,6.643,6.643,0,0,0,2.993.443c2.061-.1,4.054-.756,5.988-1.014a5.869,5.869,0,0,1,2.8.172,3.466,3.466,0,0,1,1.1.7c.313.28.622.54.93.773a10.592,10.592,0,0,0,3.276,1.773,4.818,4.818,0,0,0,1.4.253,4.8,4.8,0,0,1-1.4-.222,10.231,10.231,0,0,1-3.328-1.723,9.586,9.586,0,0,0-2.015-1.444,5.738,5.738,0,0,0-2.737-.144c-1.914.269-3.9.943-6,1.061a6.813,6.813,0,0,1-3.066-.479,5.031,5.031,0,0,1-1.308-.8c-.4-.316-.712-.7-1.064-1.035a9.358,9.358,0,0,0-2.2-1.681,9.544,9.544,0,0,0-2.33-.87,10.7,10.7,0,0,0-3.72-.145A8.242,8.242,0,0,0,310.811,299.005Z" transform="translate(-310.811 -298.538)" fill="#fff"/>
                </g>
                <g id="Group_1173029" data-name="Group 1173029" transform="translate(2.636 30.985)">
                  <path id="Path_948037" data-name="Path 948037" d="M312.881,292.187a8.393,8.393,0,0,1,1.349-.453,10.285,10.285,0,0,1,3.735-.261,9.607,9.607,0,0,1,2.43.647,9.418,9.418,0,0,1,2.382,1.481c.385.3.733.658,1.146.921a4.86,4.86,0,0,0,1.335.649,6.642,6.642,0,0,0,3.018.17c2.042-.286,3.966-1.114,5.868-1.546a5.907,5.907,0,0,1,2.8-.086A9.41,9.41,0,0,1,339.1,295a10.5,10.5,0,0,0,3.416,1.475,4.792,4.792,0,0,0,1.411.126,4.788,4.788,0,0,1-1.417-.1,10.135,10.135,0,0,1-3.464-1.421,9.355,9.355,0,0,0-2.132-1.258,5.776,5.776,0,0,0-2.737.107c-1.88.44-3.8,1.287-5.873,1.592a6.819,6.819,0,0,1-3.094-.2,5.01,5.01,0,0,1-1.373-.679c-.428-.28-.77-.639-1.149-.938a9.291,9.291,0,0,0-2.339-1.479,9.476,9.476,0,0,0-2.4-.656,10.721,10.721,0,0,0-3.715.192A8.369,8.369,0,0,0,312.881,292.187Z" transform="translate(-312.881 -291.405)" fill="#fff"/>
                </g>
                <g id="Group_1173030" data-name="Group 1173030" transform="translate(4.285 22.544)">
                  <path id="Path_948038" data-name="Path 948038" d="M315.388,279.042a8.313,8.313,0,0,1,1.385-.333,10.27,10.27,0,0,1,3.746.072,9.664,9.664,0,0,1,2.365.86,9.49,9.49,0,0,1,2.247,1.684,6.771,6.771,0,0,0,2.338,1.782,6.644,6.644,0,0,0,2.994.439c2.061-.1,4.052-.761,5.987-1.023a5.87,5.87,0,0,1,2.8.168,3.476,3.476,0,0,1,1.106.7c.313.28.622.539.931.772a10.585,10.585,0,0,0,3.278,1.768,4.823,4.823,0,0,0,1.4.251,4.807,4.807,0,0,1-1.4-.22,10.221,10.221,0,0,1-3.33-1.719,9.587,9.587,0,0,0-2.017-1.441,5.74,5.74,0,0,0-2.737-.14c-1.914.272-3.9.948-6,1.069a6.807,6.807,0,0,1-3.067-.475,5.033,5.033,0,0,1-1.309-.8c-.4-.316-.713-.7-1.066-1.034a9.386,9.386,0,0,0-2.2-1.678,9.564,9.564,0,0,0-2.33-.867,10.68,10.68,0,0,0-3.721-.139A8.3,8.3,0,0,0,315.388,279.042Z" transform="translate(-315.388 -278.571)" fill="#fff"/>
                </g>
                <g id="Group_1173031" data-name="Group 1173031" transform="translate(5.144 16.095)">
                  <path id="Path_948039" data-name="Path 948039" d="M316.693,269.238a8.313,8.313,0,0,1,1.385-.333,10.27,10.27,0,0,1,3.746.072,9.655,9.655,0,0,1,2.365.86,9.49,9.49,0,0,1,2.247,1.684,6.771,6.771,0,0,0,2.338,1.782,6.644,6.644,0,0,0,2.994.439c2.061-.1,4.052-.761,5.987-1.023a5.87,5.87,0,0,1,2.8.168,3.465,3.465,0,0,1,1.1.7c.313.28.623.539.931.772a10.578,10.578,0,0,0,3.278,1.768,4.822,4.822,0,0,0,1.4.251,4.806,4.806,0,0,1-1.4-.22,10.221,10.221,0,0,1-3.33-1.719A9.586,9.586,0,0,0,340.512,273a5.74,5.74,0,0,0-2.737-.14c-1.914.272-3.9.948-6,1.069a6.817,6.817,0,0,1-3.067-.475,5.043,5.043,0,0,1-1.309-.8c-.4-.316-.713-.7-1.066-1.034a9.369,9.369,0,0,0-2.2-1.678,9.574,9.574,0,0,0-2.33-.867,10.68,10.68,0,0,0-3.721-.139A8.38,8.38,0,0,0,316.693,269.238Z" transform="translate(-316.693 -268.767)" fill="#fff"/>
                </g>
                <g id="Group_1173032" data-name="Group 1173032" transform="translate(6.233 10.701)">
                  <path id="Path_948040" data-name="Path 948040" d="M318.349,260.566a6.789,6.789,0,0,1,1.435.242,12.306,12.306,0,0,1,3.5,1.556,16.334,16.334,0,0,1,2.053,1.545c.332.314.69.617,1.013.972a13.882,13.882,0,0,0,1.031,1.023,4.54,4.54,0,0,0,2.789.981,10.5,10.5,0,0,0,3.087-.456c2.036-.555,3.978-1.426,5.9-1.952a6.347,6.347,0,0,1,2.855-.249,2.53,2.53,0,0,1,1.2.6c.323.281.631.557.947.793a10.647,10.647,0,0,0,3.337,1.828,4.846,4.846,0,0,0,1.425.26,4.844,4.844,0,0,1-1.435-.229,10.236,10.236,0,0,1-3.39-1.779c-.657-.443-1.194-1.212-2.106-1.354a6.235,6.235,0,0,0-2.793.268c-1.9.534-3.84,1.423-5.891,1.994a10.662,10.662,0,0,1-3.143.44,4.687,4.687,0,0,1-2.871-1.035,13.782,13.782,0,0,1-1.035-1.042c-.318-.355-.672-.659-1-.973a16.3,16.3,0,0,0-2.028-1.55,12.826,12.826,0,0,0-3.456-1.61A6.784,6.784,0,0,0,318.349,260.566Z" transform="translate(-318.349 -260.566)" fill="#fff"/>
                </g>
                <g id="Group_1173033" data-name="Group 1173033" transform="translate(4.907 8.224)">
                  <path id="Path_948041" data-name="Path 948041" d="M316.333,256.8a14.778,14.778,0,0,1,1.5.287,27.054,27.054,0,0,1,3.845,1.217c.779.3,1.6.677,2.467,1.09.426.22.87.432,1.308.677s.884.514,1.352.71a5.617,5.617,0,0,0,3.112.332,12.123,12.123,0,0,0,3.118-1.027c1.006-.464,1.977-1.006,2.941-1.526a18.014,18.014,0,0,1,2.926-1.354,4.211,4.211,0,0,1,1.533-.23,2.3,2.3,0,0,1,1.375.549,5.018,5.018,0,0,0,2.324,1.245,5.7,5.7,0,0,0,2.246.022,8.075,8.075,0,0,0,1.675-.5,7.649,7.649,0,0,0,1.355-.7,7.676,7.676,0,0,1-1.344.727,8.143,8.143,0,0,1-1.675.529,5.7,5.7,0,0,1-2.276.013,5.119,5.119,0,0,1-2.376-1.253,2.181,2.181,0,0,0-1.311-.512,4.1,4.1,0,0,0-1.485.235,17.9,17.9,0,0,0-2.891,1.364c-.959.527-1.928,1.077-2.939,1.552a11.584,11.584,0,0,1-3.169,1.031,5.777,5.777,0,0,1-3.195-.364c-.492-.212-.918-.49-1.36-.727s-.876-.463-1.3-.685c-.858-.418-1.677-.8-2.451-1.105a30.821,30.821,0,0,0-3.815-1.281A15.132,15.132,0,0,0,316.333,256.8Z" transform="translate(-316.333 -256.799)" fill="#fff"/>
                </g>
                <g id="Group_1173034" data-name="Group 1173034" transform="translate(9.171 0.375)">
                  <path id="Path_948042" data-name="Path 948042" d="M322.817,245.337A8.313,8.313,0,0,1,324.2,245a10.285,10.285,0,0,1,3.746.072,9.665,9.665,0,0,1,2.365.86,9.49,9.49,0,0,1,2.247,1.684A6.772,6.772,0,0,0,334.9,249.4a6.644,6.644,0,0,0,2.994.439c2.061-.1,4.052-.761,5.987-1.023a5.87,5.87,0,0,1,2.8.168,3.466,3.466,0,0,1,1.1.7c.313.28.623.539.931.772a10.577,10.577,0,0,0,3.278,1.768,4.823,4.823,0,0,0,1.4.251,4.807,4.807,0,0,1-1.4-.22,10.221,10.221,0,0,1-3.33-1.719,9.584,9.584,0,0,0-2.017-1.441,5.739,5.739,0,0,0-2.737-.14c-1.914.272-3.9.948-6,1.069a6.807,6.807,0,0,1-3.067-.475,5.031,5.031,0,0,1-1.309-.8c-.4-.316-.713-.7-1.066-1.034a9.386,9.386,0,0,0-2.2-1.678,9.567,9.567,0,0,0-2.331-.867,10.68,10.68,0,0,0-3.721-.139A8.3,8.3,0,0,0,322.817,245.337Z" transform="translate(-322.817 -244.866)" fill="#002e5c"/>
                </g>
              </g>
            </g>
            <g id="Group_1173044" data-name="Group 1173044" transform="translate(27.2 43.511)">
              <g id="Group_1173043" data-name="Group 1173043">
                <g id="Group_1173042" data-name="Group 1173042">
                  <path id="Path_948044" data-name="Path 948044" d="M268.176,214.063c-2.766-2.026-5.318-3.548-5.71-3.19s1.4,2.215,1.4,2.215-1.22-.849-1.736-.406.5,1.45.5,1.45-1.138-.7-1.515-.092.466,1.554.466,1.554-.67-.122-.947.305,1.465,2.144,2.63,3.41c3.852,4.189,9.561,4.94,9.529-.1" transform="translate(-260.603 -210.82)" fill="#e1b89f"/>
                  <g id="Group_1173037" data-name="Group 1173037" transform="translate(7.91 3.666)">
                    <path id="Path_948045" data-name="Path 948045" d="M272.63,216.394s.093.07.22.184a5.8,5.8,0,0,1,.428.453,5.586,5.586,0,0,1,.365.5c.089.147.14.251.14.251s-.093-.07-.22-.184a5.8,5.8,0,0,1-.428-.453,5.623,5.623,0,0,1-.365-.505C272.681,216.5,272.63,216.394,272.63,216.394Z" transform="translate(-272.63 -216.394)" fill="#002e5c"/>
                  </g>
                  <path id="Path_948046" data-name="Path 948046" d="M316.263,236.936l14.008,5.734c4.144,1.8-.579,5.229-.169,9.381.087.889-3.892,1.931-18.026-5.853C311.81,242.331,313.067,239.866,316.263,236.936Z" transform="translate(-278.209 -219.759)" fill="#d3d1e8"/>
                  <path id="Path_948047" data-name="Path 948047" d="M273.981,222.261l27.107,9.652c-3.2,2.93-4.452,5.395-4.186,9.262l-.068-.038c-3.083-1.708-29.127-16.166-29.127-16.166Z" transform="translate(-263.035 -214.736)" fill="#e1b89f"/>
                  <g id="Group_1173038" data-name="Group 1173038" transform="translate(2.644 1.576)">
                    <path id="Path_948048" data-name="Path 948048" d="M266.684,215.086s-.155-.084-.376-.228a8.515,8.515,0,0,1-.764-.585,5.969,5.969,0,0,1-.673-.691,2.775,2.775,0,0,1-.248-.364s.127.122.324.292l.72.624c.257.233.519.461.706.643S266.684,215.086,266.684,215.086Z" transform="translate(-264.623 -213.217)" fill="#002e5c"/>
                  </g>
                  <g id="Group_1173039" data-name="Group 1173039" transform="translate(1.609 2.798)">
                    <path id="Path_948049" data-name="Path 948049" d="M264.809,216.739a2.322,2.322,0,0,1-.341-.179,4.462,4.462,0,0,1-.66-.526,5.15,5.15,0,0,1-.55-.638c-.133-.189-.208-.323-.208-.323s.118.1.287.253l.6.574c.21.215.433.418.6.577S264.809,216.739,264.809,216.739Z" transform="translate(-263.05 -215.074)" fill="#002e5c"/>
                  </g>
                  <g id="Group_1173040" data-name="Group 1173040" transform="translate(0.58 4.175)">
                    <path id="Path_948050" data-name="Path 948050" d="M262.854,218.582a3.074,3.074,0,0,1-.268-.163,4.46,4.46,0,0,1-.524-.439,3.528,3.528,0,0,1-.431-.533,2.087,2.087,0,0,1-.146-.279s.366.336.71.68c.168.178.341.351.461.493S262.854,218.582,262.854,218.582Z" transform="translate(-261.485 -217.168)" fill="#002e5c"/>
                  </g>
                  <g id="Group_1173041" data-name="Group 1173041" transform="translate(35.55 18.168)">
                    <path id="Path_948051" data-name="Path 948051" d="M318.986,238.443a3.641,3.641,0,0,0-.408.193,6.718,6.718,0,0,0-.973.676,6.317,6.317,0,0,0-.57.546,6.6,6.6,0,0,0-.56.678,8.977,8.977,0,0,0-.51.789c-.134.291-.3.571-.411.879a7.744,7.744,0,0,0-.324.916,8.071,8.071,0,0,0-.228.914c-.049.3-.115.592-.154.87s-.053.545-.077.79c-.059.489-.037.9-.055,1.189s-.012.453-.012.453-.007-.164-.019-.452a10.5,10.5,0,0,1-.018-1.2c.014-.247.03-.516.047-.8s.082-.579.131-.885a8.228,8.228,0,0,1,.22-.933,7.81,7.81,0,0,1,.32-.938c.114-.312.291-.6.432-.893a9.283,9.283,0,0,1,.533-.8,5.436,5.436,0,0,1,.592-.675,6.364,6.364,0,0,1,.6-.533A4.849,4.849,0,0,1,318.986,238.443Z" transform="translate(-314.652 -238.443)" fill="#002e5c"/>
                  </g>
                </g>
              </g>
            </g>
            <g id="Group_1173045" data-name="Group 1173045" transform="translate(60.223 107.938)">
              <path id="Path_948052" data-name="Path 948052" d="M339.011,312.543,334.6,312l-9.7-1.254-9.688-1.339-4.4-.639,4.413.539,9.7,1.254,9.688,1.339Z" transform="translate(-310.811 -308.773)" fill="#002e5c"/>
            </g>
            <g id="Group_1173054" data-name="Group 1173054" transform="translate(76.889 40.316)">
              <path id="Path_948053" data-name="Path 948053" d="M340.807,237.97l-1.263-.909-.6,3.472Z" transform="translate(-337.106 -216.607)" fill="#002e5c"/>
              <path id="Path_948054" data-name="Path 948054" d="M336.843,221.952a5.026,5.026,0,0,0,1.845,6.907l2.54,1.491a5.025,5.025,0,0,0,6.93-1.755l5.038-8.582a5.107,5.107,0,0,0-1.8-6.989l-2.54-1.491a5.107,5.107,0,0,0-6.979,1.837Z" transform="translate(-336.149 -207.631)" fill="#e1b89f"/>
              <g id="Group_1173047" data-name="Group 1173047" transform="translate(6.467 13.37)">
                <path id="Path_948055" data-name="Path 948055" d="M346.371,227.532a1.662,1.662,0,1,0,2.465-1.078A1.951,1.951,0,0,0,346.371,227.532Z" transform="translate(-345.98 -226.29)" fill="#e1b89f"/>
                <g id="Group_1173046" data-name="Group 1173046" transform="translate(0.767 0.757)">
                  <path id="Path_948056" data-name="Path 948056" d="M347.146,229.752a1.084,1.084,0,0,0,.558-.768,1.162,1.162,0,0,0,.014-.468.562.562,0,0,0-.224-.362l0,0a.089.089,0,0,1-.024-.124l.005-.007a1.511,1.511,0,0,1,.808-.564.763.763,0,0,1,.5.061.558.558,0,0,1,.29.381.607.607,0,0,0-.756-.306,1.485,1.485,0,0,0-.7.541l-.022-.134a.712.712,0,0,1,.29.483,1.141,1.141,0,0,1-.041.538,1.34,1.34,0,0,1-.257.463A.874.874,0,0,1,347.146,229.752Z" transform="translate(-347.146 -227.441)" fill="#002e5c"/>
                </g>
              </g>
              <path id="Path_948057" data-name="Path 948057" d="M343.052,220.37c-.266.453-.349.9-.185,1s.512-.193.778-.647.349-.9.186-1S343.318,219.916,343.052,220.37Z" transform="translate(-338.419 -210.666)" fill="#002e5c"/>
              <path id="Path_948058" data-name="Path 948058" d="M340.456,220.267s-1.02,1.88-1.741,2.068-.524,1.526.4,1.454S340.456,220.267,340.456,220.267Z" transform="translate(-336.877 -210.859)" fill="#e1b89f"/>
              <g id="Group_1173049" data-name="Group 1173049" transform="translate(1.053 15.146)">
                <path id="Path_948059" data-name="Path 948059" d="M337.76,229.02a1.722,1.722,0,0,0,.1.25.361.361,0,0,0,.141.174.148.148,0,0,0,.1.024.372.372,0,0,0,.124-.032,2.274,2.274,0,0,0,.479-.289l.223-.157a1.486,1.486,0,0,1-.151.233,1.294,1.294,0,0,1-.487.387.527.527,0,0,1-.19.031.321.321,0,0,1-.189-.063.418.418,0,0,1-.153-.28.635.635,0,0,1-.006-.2C337.758,229.048,337.76,229.02,337.76,229.02Z" transform="translate(-337.749 -228.991)" fill="#002e5c"/>
              </g>
              <path id="Path_948060" data-name="Path 948060" d="M342.213,227.045c-.209.357-.823.385-1.369.064s-.821-.871-.611-1.227.823-.385,1.369-.064S342.423,226.689,342.213,227.045Z" transform="translate(-337.522 -212.682)" fill="#e19d9f"/>
              <g id="Group_1173050" data-name="Group 1173050" transform="translate(2.708)">
                <path id="Path_948061" data-name="Path 948061" d="M360.27,220.119c.248.883,1.168,1.5,1.279,2.407.12.987-.763,1.853-.775,2.847-.014,1.148,1.116,2.036,1.222,3.179.092.993-.608,1.893-.706,2.886-.135,1.373.829,2.521.922,3.852A4.461,4.461,0,0,1,360.438,239c-3.209,2.4-5.874.68-7.638-.031a11.1,11.1,0,0,0-4.946-.905c-2.24.172-5.109,1.527-6.6-.319-1.345-1.667-1.2-5.8-.276-7.744.4-.838,1-1.564,1.456-2.37a3.79,3.79,0,0,0,.63-2.194c-.1-.72-.67-1.2-.4-2,.31-.911,1.272-1.478,1.354-2.5.08-.984-.436-1.927-.293-2.922.33-2.3,3.214-1.7,3.787-3.622.163-.548-.225-2.5-.968-2.651a3.588,3.588,0,0,1-1.969-.925,3.03,3.03,0,0,1-.448-.743,3.613,3.613,0,0,1-.36-1.09c-.316-2.643,3.844-3.195,5.59-2.987,2.689.318,5.072,3.589,7.595,4.577C367.465,214.7,359.527,217.472,360.27,220.119Z" transform="translate(-340.266 -205.963)" fill="#fd505a"/>
              </g>
              <g id="Group_1173051" data-name="Group 1173051" transform="translate(4.679 10.118)">
                <path id="Path_948062" data-name="Path 948062" d="M343.263,227.723l.306-.17a1.017,1.017,0,0,0,.3-.255,1.545,1.545,0,0,0,.278-.421,2.546,2.546,0,0,0,.16-.581,5.288,5.288,0,0,0,.063-.677c.024-.474,0-.983.045-1.5a4.914,4.914,0,0,1,.116-.76l.1-.366.16-.337a2.433,2.433,0,0,1,.422-.56,3.234,3.234,0,0,1,.511-.362l.479-.218.393-.094.341-.082-.334.105-.381.12-.456.239a3.2,3.2,0,0,0-.477.367,2.277,2.277,0,0,0-.2.257,1.119,1.119,0,0,0-.182.287l-.148.321-.094.353a4.8,4.8,0,0,0-.1.74c-.045.5-.034,1.012-.064,1.491a4.256,4.256,0,0,1-.084.69,2.682,2.682,0,0,1-.19.6,1.408,1.408,0,0,1-.316.424,1.06,1.06,0,0,1-.325.238Z" transform="translate(-343.263 -221.346)" fill="#fd505a"/>
              </g>
              <g id="Group_1173052" data-name="Group 1173052" transform="translate(22.66 11.511)">
                <path id="Path_948063" data-name="Path 948063" d="M370.914,223.464l-.145.319a1.007,1.007,0,0,0-.089.383,1.539,1.539,0,0,0,.027.5,2.559,2.559,0,0,0,.217.562,5.343,5.343,0,0,0,.353.581c.263.395.581.793.855,1.229a4.909,4.909,0,0,1,.359.68l.135.355c.024.124.048.246.072.366a2.426,2.426,0,0,1-.006.7,3.277,3.277,0,0,1-.195.6l-.256.46-.26.31-.225.268.206-.283.235-.324.224-.464a3.125,3.125,0,0,0,.164-.579,2.233,2.233,0,0,0,.011-.327,1.116,1.116,0,0,0-.025-.339l-.072-.346-.134-.339a4.9,4.9,0,0,0-.357-.656c-.262-.43-.576-.833-.837-1.236a4.21,4.21,0,0,1-.343-.6,2.661,2.661,0,0,1-.2-.592,1.4,1.4,0,0,1,0-.529,1.048,1.048,0,0,1,.12-.385C370.853,223.576,370.914,223.464,370.914,223.464Z" transform="translate(-370.6 -223.464)" fill="#fd505a"/>
              </g>
              <g id="Group_1173053" data-name="Group 1173053" transform="translate(16.801 1.298)">
                <path id="Path_948064" data-name="Path 948064" d="M361.693,208.533l.277.214a1.017,1.017,0,0,0,.352.176,1.523,1.523,0,0,0,.5.09,2.564,2.564,0,0,0,.6-.081,5.447,5.447,0,0,0,.647-.209c.445-.164.906-.381,1.393-.547a4.91,4.91,0,0,1,.745-.191l.377-.049.372.015a2.4,2.4,0,0,1,.681.168,3.2,3.2,0,0,1,.534.328l.389.355.241.324.208.281-.228-.266-.26-.3-.4-.326a3.17,3.17,0,0,0-.525-.295,2.312,2.312,0,0,0-.316-.086,1.12,1.12,0,0,0-.335-.055l-.354-.01-.361.052a4.789,4.789,0,0,0-.722.2c-.479.155-.945.367-1.4.527a4.225,4.225,0,0,1-.668.193,2.673,2.673,0,0,1-.623.059,1.4,1.4,0,0,1-.514-.124,1.065,1.065,0,0,1-.347-.205Z" transform="translate(-361.693 -207.937)" fill="#fd505a"/>
              </g>
            </g>
            <g id="Group_1173055" data-name="Group 1173055" transform="translate(85.01 42.465)">
              <path id="Path_948065" data-name="Path 948065" d="M352.4,209.23c-.015.006.045.085.178.2s.326.3.557.543a5.546,5.546,0,0,1,.739.957,3.19,3.19,0,0,1,.477,1.487,2.984,2.984,0,0,1-.52,1.769,8.4,8.4,0,0,1-1.41,1.519,2.237,2.237,0,0,0-.618.858,1.834,1.834,0,0,0,.074,1.067c.107.358.258.7.4,1.062a5.143,5.143,0,0,1,.266,1.13,6.576,6.576,0,0,1-.139,2.294,4.108,4.108,0,0,1-1.012,1.974,2.4,2.4,0,0,1-.927.532,3.428,3.428,0,0,0-.844.522,2.9,2.9,0,0,0-.953,1.521,3.724,3.724,0,0,0-.019,1.539,4.11,4.11,0,0,0,.159.63,3.629,3.629,0,0,0,.189.519,6.213,6.213,0,0,0,.332.7l.127.244-.133-.241a6.375,6.375,0,0,1-.349-.695,3.639,3.639,0,0,1-.2-.517,4.093,4.093,0,0,1-.176-.631,3.572,3.572,0,0,1,0-1.569,2.987,2.987,0,0,1,.969-1.575,3.517,3.517,0,0,1,.867-.545,2.3,2.3,0,0,0,.887-.517,3.99,3.99,0,0,0,.963-1.923,6.7,6.7,0,0,0,.124-2.246,5.018,5.018,0,0,0-.249-1.1c-.132-.355-.281-.709-.385-1.075a1.942,1.942,0,0,1-.059-1.133,2.324,2.324,0,0,1,.654-.891,7.955,7.955,0,0,0,1.41-1.5,2.965,2.965,0,0,0,.53-1.725,3.158,3.158,0,0,0-.451-1.473,5.552,5.552,0,0,0-.722-.963c-.227-.246-.42-.426-.549-.551S352.381,209.235,352.4,209.23Z" transform="translate(-348.497 -209.23)" fill="#002e5c"/>
            </g>
            <g id="Group_1173056" data-name="Group 1173056" transform="translate(89.347 46.56)">
              <path id="Path_948066" data-name="Path 948066" d="M358.493,215.456a1.743,1.743,0,0,0,.067.222,2.786,2.786,0,0,0,.292.583c.149.24.37.5.6.825a1.463,1.463,0,0,1,.264.579.937.937,0,0,1-.174.685c-.29.41-.739.7-1.025,1.175a2.291,2.291,0,0,0-.412,1.616,3.665,3.665,0,0,0,.235.871,5.322,5.322,0,0,0,.469.806,3.366,3.366,0,0,1,.436.874,1.422,1.422,0,0,1-.059.992,4.064,4.064,0,0,1-1.375,1.361,7.311,7.311,0,0,0-1.245,1.365,7.826,7.826,0,0,0-1.307,2.994,5.263,5.263,0,0,0,.014,2.313,4.238,4.238,0,0,0,.2.622l.094.212-.1-.21a4.345,4.345,0,0,1-.218-.619,5.3,5.3,0,0,1-.066-2.331,7.91,7.91,0,0,1,1.3-3.037,7.418,7.418,0,0,1,1.253-1.4,3.953,3.953,0,0,0,1.326-1.327,1.84,1.84,0,0,0-.372-1.738,5.449,5.449,0,0,1-.47-.831,3.792,3.792,0,0,1-.235-.907,2.4,2.4,0,0,1,.447-1.686c.3-.483.767-.785,1.039-1.166a.853.853,0,0,0,.168-.626,1.487,1.487,0,0,0-.239-.558c-.214-.327-.43-.6-.572-.844a2.81,2.81,0,0,1-.276-.6A1.823,1.823,0,0,1,358.493,215.456Z" transform="translate(-355.09 -215.456)" fill="#002e5c"/>
            </g>
            <g id="Group_1173057" data-name="Group 1173057" transform="translate(92.373 53.556)">
              <path id="Path_948067" data-name="Path 948067" d="M362.936,226.093a1.892,1.892,0,0,0,.088.2,2.539,2.539,0,0,0,.335.5,7.18,7.18,0,0,0,.656.671,4.233,4.233,0,0,1,.819.916.94.94,0,0,1,.107.7,1.56,1.56,0,0,1-.4.647,8.877,8.877,0,0,1-1.275,1,3.549,3.549,0,0,0-1.252,1.1,2.093,2.093,0,0,0,.234,1.65c.122.267.273.528.4.8a4.217,4.217,0,0,1,.269.86,4.978,4.978,0,0,1,0,1.736,7.917,7.917,0,0,1-1.124,2.843,7.007,7.007,0,0,1-1.406,1.642,2.623,2.623,0,0,1-.692.439,2.634,2.634,0,0,0,.678-.455,7.045,7.045,0,0,0,1.357-1.665,7.813,7.813,0,0,0,1.087-2.819,4.874,4.874,0,0,0-.014-1.7,4.12,4.12,0,0,0-.266-.827c-.13-.268-.281-.521-.411-.8a2.134,2.134,0,0,1-.238-1.766,3.633,3.633,0,0,1,1.311-1.144,8.8,8.8,0,0,0,1.269-.973,1.465,1.465,0,0,0,.388-.6.854.854,0,0,0-.092-.641,4.688,4.688,0,0,0-.787-.913,7.141,7.141,0,0,1-.637-.7,2.593,2.593,0,0,1-.32-.516A2.093,2.093,0,0,1,362.936,226.093Z" transform="translate(-359.691 -226.093)" fill="#002e5c"/>
            </g>
            <g id="Group_1173058" data-name="Group 1173058" transform="translate(89.961 58.382)">
              <path id="Path_948068" data-name="Path 948068" d="M359.071,233.429s-.062.164-.151.458a5.07,5.07,0,0,0-.112.539,6.5,6.5,0,0,0-.072.71c-.03.524-.007,1.135.022,1.792a8.627,8.627,0,0,1-.081,2.067,3.066,3.066,0,0,1-.38.99,8.76,8.76,0,0,1-.552.856c-.383.538-.778,1.01-1.1,1.426a2.571,2.571,0,0,0-.592,1.091.657.657,0,0,0,.122.45.67.67,0,0,1-.155-.452,2.285,2.285,0,0,1,.552-1.142c.31-.426.693-.906,1.06-1.448.184-.27.362-.558.541-.85a2.878,2.878,0,0,0,.38-.947,8.532,8.532,0,0,0,.106-2.037,16.606,16.606,0,0,1,.005-1.8,6.536,6.536,0,0,1,.1-.713,5.389,5.389,0,0,1,.134-.539C359,233.591,359.071,233.429,359.071,233.429Z" transform="translate(-356.023 -233.429)" fill="#002e5c"/>
            </g>
            <g id="Group_1173059" data-name="Group 1173059" transform="translate(85.403 38.784)">
              <path id="Path_948069" data-name="Path 948069" d="M365.2,215.475c2.87-4.665-1.434-8.6-4.33-8.043s-4.023-3.511-6.491-3.35-4.267-1.827-5.29,1.469" transform="translate(-349.093 -203.633)" fill="#fd505a"/>
            </g>
            <g id="Group_1173060" data-name="Group 1173060" transform="translate(65.692 63.07)">
              <path id="Path_948070" data-name="Path 948070" d="M324.611,240.557a9.074,9.074,0,0,0-1.7.574,3.556,3.556,0,0,0-1.443,1.046,1.353,1.353,0,0,0-.2.941,4.12,4.12,0,0,1-.082,1.089,19.736,19.736,0,0,1-1.287,3.752c-.441.987-.778,1.623-.778,1.623s.288-.66.681-1.663a23.694,23.694,0,0,0,1.2-3.746,3.909,3.909,0,0,0,.092-1.044,1.538,1.538,0,0,1,.239-1.043,3.538,3.538,0,0,1,1.535-1.05,8.235,8.235,0,0,1,1.252-.381C324.433,240.584,324.611,240.557,324.611,240.557Z" transform="translate(-319.126 -240.557)" fill="#fff"/>
            </g>
            <g id="Group_1173061" data-name="Group 1173061" transform="translate(68.434 64.034)">
              <path id="Path_948071" data-name="Path 948071" d="M328.288,242.023a1.684,1.684,0,0,0-.092.477,8.419,8.419,0,0,0,.021,1.283c.019.265.05.551.086.854.02.154.04.312.061.474a3.117,3.117,0,0,1-.01.493,2.2,2.2,0,0,1-.437.971,2.617,2.617,0,0,1-.353.408,4.173,4.173,0,0,1-.4.367c-.554.46-1.15.85-1.685,1.244-.27.194-.521.392-.76.58a6.246,6.246,0,0,0-.614.589,5,5,0,0,0-.443.566c-.1.188-.185.356-.246.5l-.127.471.1-.481c.051-.147.128-.322.217-.522a3.9,3.9,0,0,1,.422-.6,6.5,6.5,0,0,1,.605-.624c.234-.2.481-.41.752-.606.534-.4,1.125-.8,1.661-1.256a4.043,4.043,0,0,0,.389-.352,2.479,2.479,0,0,0,.341-.385,2.07,2.07,0,0,0,.414-.875,3.825,3.825,0,0,0,.019-.485c-.015-.157-.03-.31-.043-.46-.026-.306-.047-.595-.056-.862a7.2,7.2,0,0,1,.053-1.292A1.723,1.723,0,0,1,328.288,242.023Z" transform="translate(-323.294 -242.023)" fill="#fff"/>
            </g>
            <g id="Group_1173062" data-name="Group 1173062" transform="translate(70.329 65.534)">
              <path id="Path_948072" data-name="Path 948072" d="M332.852,244.3s.134.186.345.528a11.194,11.194,0,0,1,.775,1.474,6.6,6.6,0,0,1,.362,1.058,3.247,3.247,0,0,1,.1,1.254,1.554,1.554,0,0,1-.681,1.16,4.16,4.16,0,0,1-1.28.545c-.9.239-1.813.337-2.647.522a9.495,9.495,0,0,0-1.182.33c-.18.074-.355.148-.52.225-.158.092-.316.173-.458.265l-.392.29-.32.3a6.782,6.782,0,0,0-.459.553l-.326.539.3-.556a6.733,6.733,0,0,1,.435-.581l.31-.326.392-.309c.143-.1.3-.186.462-.285.168-.084.344-.165.526-.245a8,8,0,0,1,1.2-.36c.843-.194,1.758-.3,2.632-.544a4.035,4.035,0,0,0,1.229-.507,1.385,1.385,0,0,0,.622-1.041,3.32,3.32,0,0,0-.077-1.2,6.51,6.51,0,0,0-.328-1.05,13.1,13.1,0,0,0-.706-1.5C332.977,244.5,332.852,244.3,332.852,244.3Z" transform="translate(-326.175 -244.303)" fill="#fff"/>
            </g>
            <g id="Group_1173063" data-name="Group 1173063" transform="translate(72.74 59.859)">
              <path id="Path_948073" data-name="Path 948073" d="M329.841,239.569a3.735,3.735,0,0,1,.36-.989,2.61,2.61,0,0,1,.687-.852,1.6,1.6,0,0,1,.57-.275,2.587,2.587,0,0,1,.642-.05,1.835,1.835,0,0,0,.586-.095,2.887,2.887,0,0,0,.535-.24,4.706,4.706,0,0,0,.845-.632,6.408,6.408,0,0,0,.714-.76,5,5,0,0,1-.64.835,4.178,4.178,0,0,1-.836.7,3.031,3.031,0,0,1-.562.266,2.034,2.034,0,0,1-.64.116,2.487,2.487,0,0,0-.6.032,1.44,1.44,0,0,0-.516.237,2.7,2.7,0,0,0-.692.773A4.393,4.393,0,0,0,329.841,239.569Z" transform="translate(-329.841 -235.676)" fill="#fff"/>
            </g>
            <g id="Group_1173064" data-name="Group 1173064" transform="translate(75.284 61.543)">
              <path id="Path_948074" data-name="Path 948074" d="M334.073,241.511a1.975,1.975,0,0,1-.147-.208,1.15,1.15,0,0,1-.216-.648.424.424,0,0,1,.312-.366,1.3,1.3,0,0,1,.515-.047l.263,0,.246-.046a2.915,2.915,0,0,0,.5-.188,7.509,7.509,0,0,0,1.636-1.142c.416-.361.676-.626.676-.626a7.531,7.531,0,0,1-.6.7,6.132,6.132,0,0,1-1.63,1.235,3.014,3.014,0,0,1-.536.189l-.286.045-.263,0a1.425,1.425,0,0,0-.473.014.3.3,0,0,0-.25.251,1.218,1.218,0,0,0,.14.62A2,2,0,0,0,334.073,241.511Z" transform="translate(-333.709 -238.236)" fill="#fff"/>
            </g>
            <g id="Group_1173065" data-name="Group 1173065" transform="translate(65.069 72.093)">
              <path id="Path_948075" data-name="Path 948075" d="M318.179,254.276l1.119.472c.669.288,1.55.7,2.43,1.1s1.748.843,2.395,1.177l1.074.566-1.119-.471c-.669-.288-1.55-.7-2.429-1.1s-1.748-.844-2.394-1.178Z" transform="translate(-318.179 -254.276)" fill="#002e5c"/>
            </g>
            <g id="Group_1173066" data-name="Group 1173066" transform="translate(68.843 62.157)">
              <path id="Path_948076" data-name="Path 948076" d="M323.916,239.169l1.519.538c.909.328,2.113.789,3.314,1.252s2.394.952,3.285,1.329l1.481.635-1.519-.538c-.909-.328-2.112-.789-3.314-1.252s-2.394-.953-3.285-1.329Z" transform="translate(-323.916 -239.169)" fill="#002e5c"/>
            </g>
          </g>
          <g id="Group_1173069" data-name="Group 1173069" transform="translate(187.199 189.107)">
            <g id="Group_1173068" data-name="Group 1173068">
              <path id="Path_948077" data-name="Path 948077" d="M317.66,318.468c2.713-.041,5.426-.053,8.139-.061a.061.061,0,0,1,.061.061l.02,4.958a.081.081,0,0,1-.042.071l-3.514,1.938a.071.071,0,0,1-.058,0l-4.625-1.7a.05.05,0,0,1-.032-.046C317.612,321.951,317.641,320.209,317.66,318.468Zm0,0c.02,1.741.048,3.483.049,5.224l-.032-.046,4.639,1.663-.057,0,3.5-1.958-.042.071.02-4.958.061.061C323.087,318.521,320.373,318.509,317.66,318.468Z" transform="translate(-317.611 -318.407)" fill="#006bdc"/>
            </g>
          </g>
          <g id="Group_1173071" data-name="Group 1173071" transform="translate(199.765 189.111)">
            <g id="Group_1173070" data-name="Group 1173070">
              <path id="Path_948078" data-name="Path 948078" d="M344.146,318.471c-2.451.037-4.9.051-7.353.057l.057-.057.02,4.958-.037-.066L340,325.32l-.06-.005,4.191-1.665-.03.044C344.1,321.953,344.125,320.212,344.146,318.471Zm0,0c.021,1.741.047,3.483.048,5.224a.049.049,0,0,1-.03.045l-4.177,1.7a.068.068,0,0,1-.06-.005l-3.174-1.939a.077.077,0,0,1-.037-.066l.02-4.958a.057.057,0,0,1,.057-.057C339.244,318.42,341.7,318.434,344.146,318.471Z" transform="translate(-336.716 -318.414)" fill="#006bdc"/>
            </g>
          </g>
          <g id="Group_1173072" data-name="Group 1173072" transform="translate(0 279.128)">
            <path id="Path_948079" data-name="Path 948079" d="M33,455.551l46.658-.15,102.648-.129,102.648.128,46.658.151-46.658.151-102.649.128L79.658,455.7Z" transform="translate(-33 -455.272)" fill="#002e5c"/>
          </g>
          <g id="Group_1173075" data-name="Group 1173075" transform="translate(113.286 23.7)">
            <g id="Group_1173073" data-name="Group 1173073">
              <rect id="Rectangle_449019" data-name="Rectangle 449019" width="60.512" height="24.007" fill="#6003fe"/>
            </g>
            <g id="Group_1173074" data-name="Group 1173074" transform="translate(2.96 23.728)">
              <path id="Path_948080" data-name="Path 948080" d="M209.736,103.283l2.6-.047,6.855-.11,9.691-.086,11.11-.037,11.11.037,9.691.086,6.855.11,2.6.047-2.6.047-6.855.111-9.691.086-11.11.037-11.11-.037-9.691-.085-6.855-.11Z" transform="translate(-209.736 -103.003)" fill="#002e5c"/>
            </g>
          </g>
          <g id="Group_1173077" data-name="Group 1173077" transform="translate(110.044 162.036)">
            <g id="Group_1173076" data-name="Group 1173076" clip-path="url(#clip-path-3)">
              <path id="Path_948081" data-name="Path 948081" d="M241.166,318.128h-4.311l-10.743,13.507h4.311Z" transform="translate(-209.139 -291.241)" fill="#fd505a"/>
            </g>
          </g>
          <g id="Group_1173078" data-name="Group 1173078" transform="translate(76.184 163.757)">
            <path id="Path_948082" data-name="Path 948082" d="M148.828,279.959l9.473-.05,20.84-.043,20.84.043,9.473.05-9.473.05-20.84.043-20.84-.043Z" transform="translate(-148.828 -279.866)" fill="#002e5c"/>
          </g>
          <path id="Path_948083" data-name="Path 948083" d="M222.172,289.69h-7.3a2.225,2.225,0,0,1-2.219-2.219h0a2.225,2.225,0,0,1,2.219-2.219h7.3a2.225,2.225,0,0,1,2.219,2.219h0A2.225,2.225,0,0,1,222.172,289.69Z" transform="translate(-94.488 -117.952)" fill="#c0bed3"/>
          <path id="Path_948084" data-name="Path 948084" d="M127.5,264.649l14.029,15.578v2.257Z" transform="translate(-65.343 -110.901)" fill="#002e5c"/>
        </g>
      </g>
    </g>
  </g>
</svg>
