<svg xmlns="http://www.w3.org/2000/svg" width="60" height="60" viewBox="0 0 60 60">
  <g id="Group_1172487" data-name="Group 1172487" transform="translate(-1 -1)">
    <path id="Path_947094" data-name="Path 947094" d="M32.935,35H3.9A2.907,2.907,0,0,0,1,37.9V55.323a2.907,2.907,0,0,0,2.9,2.9h8.71v1.935H9.71V62.1H27.129V60.161h-2.9V58.226h8.71a2.907,2.907,0,0,0,2.9-2.9V37.9A2.907,2.907,0,0,0,32.935,35ZM3.9,36.935H32.935a.969.969,0,0,1,.968.968V50.484H2.935V37.9A.969.969,0,0,1,3.9,36.935ZM22.29,60.161H14.548V58.226H22.29ZM32.935,56.29H3.9a.969.969,0,0,1-.968-.968v-2.9H33.9v2.9A.969.969,0,0,1,32.935,56.29Z" transform="translate(0 -1.097)" fill="#6003fe"/>
    <path id="Path_947095" data-name="Path 947095" d="M32.613,39H21v9.677H32.613Zm-1.935,7.742H22.935V40.935h7.742Z" transform="translate(-0.645 -1.226)" fill="#6003fe"/>
    <path id="Path_947096" data-name="Path 947096" d="M5,39H6.935v1.935H5Z" transform="translate(-0.129 -1.226)" fill="#6003fe"/>
    <path id="Path_947097" data-name="Path 947097" d="M9,39h9.677v1.935H9Z" transform="translate(-0.258 -1.226)" fill="#6003fe"/>
    <path id="Path_947098" data-name="Path 947098" d="M5,43H18.548v1.935H5Z" transform="translate(-0.129 -1.355)" fill="#6003fe"/>
    <path id="Path_947099" data-name="Path 947099" d="M5,47H18.548v1.935H5Z" transform="translate(-0.129 -1.484)" fill="#6003fe"/>
    <path id="Path_947100" data-name="Path 947100" d="M47,51h1.935v1.935H47Z" transform="translate(-1.484 -1.613)" fill="#6003fe"/>
    <path id="Path_947101" data-name="Path 947101" d="M43,51h1.935v1.935H43Z" transform="translate(-1.355 -1.613)" fill="#6003fe"/>
    <path id="Path_947102" data-name="Path 947102" d="M47,39h1.935v1.935H47Z" transform="translate(-1.484 -1.226)" fill="#6003fe"/>
    <path id="Path_947103" data-name="Path 947103" d="M43,39h1.935v1.935H43Z" transform="translate(-1.355 -1.226)" fill="#6003fe"/>
    <path id="Path_947104" data-name="Path 947104" d="M61.161,29.065V25.194a2.907,2.907,0,0,0-2.9-2.9H50.516V11.645a2.907,2.907,0,0,0-2.9-2.9H29.125a4.793,4.793,0,0,0-5.367-3.825,6.779,6.779,0,0,0-12.29,0,4.836,4.836,0,1,0-.629,9.631h5.806v3.941a6.729,6.729,0,0,0-5.177,3.848,4.836,4.836,0,1,0-.629,9.631H24.387a4.836,4.836,0,1,0-.629-9.631,6.724,6.724,0,0,0-5.177-3.848V14.548h5.806a4.848,4.848,0,0,0,4.741-3.871H47.613a.969.969,0,0,1,.968.968V22.29H40.839a2.907,2.907,0,0,0-2.9,2.9v3.871a2.907,2.907,0,0,0,2.9,2.9V33.9a2.907,2.907,0,0,0-2.9,2.9v3.871a2.907,2.907,0,0,0,2.9,2.9v1.935a2.907,2.907,0,0,0-2.9,2.9V52.29a2.907,2.907,0,0,0,2.9,2.9H58.258a2.907,2.907,0,0,0,2.9-2.9V48.419a2.907,2.907,0,0,0-2.9-2.9V43.581a2.907,2.907,0,0,0,2.9-2.9V36.806a2.907,2.907,0,0,0-2.9-2.9V31.968A2.907,2.907,0,0,0,61.161,29.065Zm-38.925-5.3.293.948.941-.316a2.834,2.834,0,0,1,.917-.167,2.9,2.9,0,0,1,0,5.806H10.839a2.9,2.9,0,1,1,0-5.806,2.857,2.857,0,0,1,.917.166l.941.317.293-.947a4.84,4.84,0,0,1,9.246,0Zm2.151-11.148H10.839a2.9,2.9,0,0,1,0-5.806,2.857,2.857,0,0,1,.917.166l.941.317.293-.947a4.84,4.84,0,0,1,9.246,0l.293.948.941-.316a2.834,2.834,0,0,1,.917-.167,2.9,2.9,0,0,1,0,5.806ZM39.871,29.065V25.194a.969.969,0,0,1,.968-.968H58.258a.969.969,0,0,1,.968.968v3.871a.969.969,0,0,1-.968.968H40.839A.969.969,0,0,1,39.871,29.065ZM59.226,48.419V52.29a.969.969,0,0,1-.968.968H40.839a.969.969,0,0,1-.968-.968V48.419a.969.969,0,0,1,.968-.968H58.258A.969.969,0,0,1,59.226,48.419Zm-2.9-2.9H42.774V43.581H56.323Zm2.9-8.71v3.871a.969.969,0,0,1-.968.968H40.839a.969.969,0,0,1-.968-.968V36.806a.969.969,0,0,1,.968-.968H58.258A.969.969,0,0,1,59.226,36.806Zm-2.9-2.9H42.774V31.968H56.323Z" transform="translate(-0.161)" fill="#6003fe"/>
    <path id="Path_947105" data-name="Path 947105" d="M43,27h1.935v1.935H43Z" transform="translate(-1.355 -0.839)" fill="#6003fe"/>
    <path id="Path_947106" data-name="Path 947106" d="M47,27h1.935v1.935H47Z" transform="translate(-1.484 -0.839)" fill="#6003fe"/>
  </g>
</svg>
