<svg xmlns="http://www.w3.org/2000/svg" width="60" height="60" viewBox="0 0 60 60">
  <g id="Group_1172489" data-name="Group 1172489" transform="translate(0)">
    <g id="Group_1172488" data-name="Group 1172488" transform="translate(0)">
      <path id="Path_947107" data-name="Path 947107" d="M412.9,363.355h7.742v1.935H412.9Z" transform="translate(-364.516 -320.774)" fill="#6003fe"/>
      <path id="Path_947108" data-name="Path 947108" d="M33.032,396.387h5.806v1.935H33.032Z" transform="translate(-29.161 -349.935)" fill="#6003fe"/>
      <path id="Path_947109" data-name="Path 947109" d="M33.032,429.419h5.806v1.935H33.032Z" transform="translate(-29.161 -379.096)" fill="#6003fe"/>
      <path id="Path_947110" data-name="Path 947110" d="M33.032,462.452h5.806v1.935H33.032Z" transform="translate(-29.161 -408.258)" fill="#6003fe"/>
      <path id="Path_947111" data-name="Path 947111" d="M165.161,33.032H172.9v1.935h-7.742Z" transform="translate(-145.806 -29.161)" fill="#6003fe"/>
      <path id="Path_947112" data-name="Path 947112" d="M60,21.29V3.871H46.452v7.742H42.581V7.742H34.839v3.871H30.968V0H17.789L15.854,3.871H0V21.29H22.625l-2.151,1.921,1.178,2.356a11.535,11.535,0,0,0-.808,1.948l-2.458.819V33.6l2.458.819a11.558,11.558,0,0,0,.808,1.948l-1.159,2.319,3.724,3.724,2.319-1.159a11.535,11.535,0,0,0,1.948.808l.549,1.647v6.617H25.161V46.451H17.419v3.871H13.548V42.58H0V60H13.548V52.258h3.871v3.871h7.742V52.258h3.871V60H60V38.71H46.821l-1.935,3.871H35.214l.174-.522a11.558,11.558,0,0,0,1.948-.808l2.319,1.159,3.724-3.724-1.159-2.319a11.534,11.534,0,0,0,.808-1.948l2.458-.819V28.335l-2.458-.819a11.558,11.558,0,0,0-.808-1.948l1.159-2.319-3.724-3.724-2.319,1.159a11.535,11.535,0,0,0-1.948-.808l-.819-2.458h-3.6V13.549h3.871V17.42h7.742V13.549h3.871v7.742H60ZM11.613,58.065H1.935V44.516h9.677Zm11.613-3.871H19.355V48.387h3.871ZM17.05,5.806l1.935-3.871H29.032V7.742H1.935V5.806ZM1.935,9.677h27.1v9.677H1.935ZM30.968,58.065V48.387h27.1v9.677ZM46.082,44.516l1.935-3.871H58.064v5.806h-27.1V44.516H46.082ZM33.173,19.355l.705,2.116.508.133a9.605,9.605,0,0,1,2.435,1.01l.453.265,2-1,1.751,1.751-1,2,.265.453a9.611,9.611,0,0,1,1.01,2.435l.133.508,2.116.705v2.476l-2.116.705-.133.508a9.605,9.605,0,0,1-1.01,2.435l-.265.453,1,2-1.751,1.751-2-1-.453.265a9.611,9.611,0,0,1-2.435,1.01l-.508.133-.705,2.116H30.7l-.705-2.116-.508-.133a9.605,9.605,0,0,1-2.435-1.01l-.453-.265-2,1L22.849,38.3l1-2-.265-.453a9.611,9.611,0,0,1-1.01-2.435l-.133-.508-2.116-.705V29.729l2.116-.705.133-.508a9.605,9.605,0,0,1,1.01-2.435l.265-.453-.979-1.959,2.663-2.379h5.437V19.355Zm7.472-3.871H36.774V9.677h3.871Zm7.742-9.677h9.677V19.355H48.387Z" transform="translate(0)" fill="#6003fe"/>
      <path id="Path_947113" data-name="Path 947113" d="M429.419,66.065h5.806V68h-5.806Z" transform="translate(-379.096 -58.323)" fill="#6003fe"/>
      <path id="Path_947114" data-name="Path 947114" d="M429.419,99.1h5.806v1.935h-5.806Z" transform="translate(-379.096 -87.484)" fill="#6003fe"/>
      <path id="Path_947115" data-name="Path 947115" d="M429.419,132.129h5.806v1.935h-5.806Z" transform="translate(-379.096 -116.645)" fill="#6003fe"/>
      <path id="Path_947116" data-name="Path 947116" d="M206.452,205.935a7.742,7.742,0,1,0,7.742-7.742A7.751,7.751,0,0,0,206.452,205.935Zm7.742-5.806a5.806,5.806,0,1,1-5.806,5.806A5.813,5.813,0,0,1,214.194,200.129Z" transform="translate(-182.258 -174.967)" fill="#6003fe"/>
      <path id="Path_947117" data-name="Path 947117" d="M243.355,238.968a3.871,3.871,0,1,0-3.871-3.871A3.875,3.875,0,0,0,243.355,238.968Zm0-5.806a1.935,1.935,0,1,1-1.935,1.935A1.938,1.938,0,0,1,243.355,233.161Z" transform="translate(-211.419 -204.129)" fill="#6003fe"/>
    </g>
  </g>
</svg>
