<svg xmlns="http://www.w3.org/2000/svg" width="120" height="120" viewBox="0 0 120 120">
  <g id="Group_1169269" data-name="Group 1169269" transform="translate(-64 -6445)">
    <rect id="Rectangle_402033" data-name="Rectangle 402033" width="120" height="120" rx="8" transform="translate(64 6445)" fill="#6003fe"/>
    <g id="Rectangle_412110" data-name="Rectangle 412110" transform="translate(69 6450)" fill="none" stroke="#fff" stroke-width="1">
      <rect width="110" height="110" rx="6" stroke="none"/>
      <rect x="0.5" y="0.5" width="109" height="109" rx="5.5" fill="none"/>
    </g>
    <g id="Group_1155336" data-name="Group 1155336" transform="translate(-325 -2)">
      <circle id="Ellipse_13473" data-name="Ellipse 13473" cx="60" cy="60" r="60" transform="translate(389 6447)" fill="#6003fe"/>
      <g id="Group_1155326" data-name="Group 1155326" transform="translate(417 6475)">
        <g id="Group_1155333" data-name="Group 1155333">
          <g id="Group_1155326-2" data-name="Group 1155326">
            <path id="Path_925937" data-name="Path 925937" d="M62,6V49.5a2.084,2.084,0,0,0-1.43-1.97,2.046,2.046,0,0,1-1.26-1.18l-.15-.36a2.031,2.031,0,0,1,.06-1.72,2.1,2.1,0,0,0,.23-.94,2.069,2.069,0,0,0-.61-1.46l-.71-.71a.486.486,0,0,0-.14-.11l.01-.01V7a1,1,0,0,0-1-1H35a1,1,0,0,0-1,1V34.69A11.755,11.755,0,0,0,30,34V6a4,4,0,0,1,4-4H58A4,4,0,0,1,62,6Z" fill="#fcd770"/>
          </g>
          <g id="Group_1155327" data-name="Group 1155327">
            <path id="Path_925938" data-name="Path 925938" d="M44.27,40.78a2.1,2.1,0,0,0-.94-.23,2.069,2.069,0,0,0-1.46.61l-.63.63A11.994,11.994,0,0,0,34,34.69V7a1,1,0,0,1,1-1H57a1,1,0,0,1,1,1V41.04l-.01.01a2.033,2.033,0,0,0-2.26-.27,2.02,2.02,0,0,1-.93.22,1.958,1.958,0,0,1-.79-.16l-.36-.15a2.046,2.046,0,0,1-1.18-1.26A2.084,2.084,0,0,0,50.5,38h-1a2.084,2.084,0,0,0-1.97,1.43,2.046,2.046,0,0,1-1.18,1.26l-.36.15a2.031,2.031,0,0,1-1.72-.06Z" fill="#ffeaa7"/>
          </g>
          <g id="Group_1155328" data-name="Group 1155328">
            <path id="Path_925939" data-name="Path 925939" d="M40.69,53.65l.15.36a2.031,2.031,0,0,1-.06,1.72,2.1,2.1,0,0,0-.23.94,2.014,2.014,0,0,0,.5,1.32l-.01.01H8a6,6,0,1,1,2.36-11.52A9,9,0,0,1,19,40c.2,0,.4.01.59.02A12.007,12.007,0,0,1,30,34a11.755,11.755,0,0,1,4,.69,11.994,11.994,0,0,1,7.24,7.1l-.08.08a2.065,2.065,0,0,0-.38,2.4,2.02,2.02,0,0,1,.22.93,1.958,1.958,0,0,1-.16.79l-.15.36a2.046,2.046,0,0,1-1.26,1.18A2.084,2.084,0,0,0,38,49.5v1a2.084,2.084,0,0,0,1.43,1.97,2.046,2.046,0,0,1,1.26,1.18Z" fill="#e6e9ed"/>
          </g>
          <g id="Group_1155329" data-name="Group 1155329">
            <path id="Path_925940" data-name="Path 925940" d="M62,50v.5a2.084,2.084,0,0,1-1.43,1.97,2.046,2.046,0,0,0-1.26,1.18l-.15.36a1.958,1.958,0,0,0-.16.79,2.02,2.02,0,0,0,.22.93,2.065,2.065,0,0,1-.38,2.4l-.71.71a2.069,2.069,0,0,1-1.46.61,2.1,2.1,0,0,1-.94-.23,2.031,2.031,0,0,0-1.72-.06l-.36.15a2.046,2.046,0,0,0-1.18,1.26A2.084,2.084,0,0,1,50.5,62h-1a2.084,2.084,0,0,1-1.97-1.43,2.046,2.046,0,0,0-1.18-1.26l-.36-.15A1.958,1.958,0,0,0,45.2,59a2.02,2.02,0,0,0-.93.22,2.065,2.065,0,0,1-2.4-.38l-.71-.71a.486.486,0,0,1-.11-.14,2.014,2.014,0,0,1-.5-1.32,2.1,2.1,0,0,1,.23-.94,2.031,2.031,0,0,0,.06-1.72l-.15-.36a2.046,2.046,0,0,0-1.26-1.18A2.084,2.084,0,0,1,38,50.5v-1a2.084,2.084,0,0,1,1.43-1.97,2.046,2.046,0,0,0,1.26-1.18l.15-.36A1.958,1.958,0,0,0,41,45.2a2.02,2.02,0,0,0-.22-.93,2.065,2.065,0,0,1,.38-2.4l.08-.08.63-.63a2.069,2.069,0,0,1,1.46-.61,2.1,2.1,0,0,1,.94.23,2.031,2.031,0,0,0,1.72.06l.36-.15a2.046,2.046,0,0,0,1.18-1.26A2.084,2.084,0,0,1,49.5,38h1a2.084,2.084,0,0,1,1.97,1.43,2.046,2.046,0,0,0,1.18,1.26l.36.15a1.958,1.958,0,0,0,.79.16,2.02,2.02,0,0,0,.93-.22,2.033,2.033,0,0,1,2.26.27.486.486,0,0,1,.14.11l.71.71a2.069,2.069,0,0,1,.61,1.46,2.1,2.1,0,0,1-.23.94,2.031,2.031,0,0,0-.06,1.72l.15.36a2.046,2.046,0,0,0,1.26,1.18A2.084,2.084,0,0,1,62,49.5Zm-6,0a6,6,0,1,0-6,6A6,6,0,0,0,56,50Z" fill="#fc6e51"/>
          </g>
          <g id="Group_1155330" data-name="Group 1155330">
            <path id="Path_925941" data-name="Path 925941" d="M50,44a6,6,0,1,1-6,6A6,6,0,0,1,50,44Zm2,6a2,2,0,1,0-2,2A2.006,2.006,0,0,0,52,50Z" fill="#ff826e"/>
          </g>
          <g id="Group_1155331" data-name="Group 1155331">
            <path id="Path_925942" data-name="Path 925942" d="M26,20.62a1.622,1.622,0,0,1-.17.72l-3.38,6.77a1.626,1.626,0,0,1-2.9,0l-3.38-6.77A1.618,1.618,0,0,1,17.62,19H19V3h4V19h1.38A1.613,1.613,0,0,1,26,20.62Z" fill="#ccd1d9"/>
          </g>
          <g id="Group_1155332" data-name="Group 1155332">
            <path id="Path_925943" data-name="Path 925943" d="M11.83,22.66A1.618,1.618,0,0,1,10.38,25H9V41H5V25H3.62a1.618,1.618,0,0,1-1.45-2.34l3.38-6.77a1.626,1.626,0,0,1,2.9,0Z" fill="#ccd1d9"/>
          </g>
        </g>
        <g id="Group_1155334" data-name="Group 1155334">
          <path id="Path_925944" data-name="Path 925944" d="M50,43a7,7,0,1,0,7,7A7.008,7.008,0,0,0,50,43Zm0,12a5,5,0,1,1,5-5A5.006,5.006,0,0,1,50,55Z"/>
          <path id="Path_925945" data-name="Path 925945" d="M50,47a3,3,0,1,0,3,3A3,3,0,0,0,50,47Zm0,4a1,1,0,1,1,1-1A1,1,0,0,1,50,51Z"/>
          <path id="Path_925946" data-name="Path 925946" d="M3.618,26H4V41H6V24H3.618a.618.618,0,0,1-.553-.894l3.382-6.764a.641.641,0,0,1,1.105,0l3.382,6.764a.6.6,0,0,1,.066.276.618.618,0,0,1-.618.618H8V41h2V26h.382a2.619,2.619,0,0,0,2.342-3.789L9.342,15.448a2.618,2.618,0,0,0-4.684,0L1.276,22.211A2.619,2.619,0,0,0,3.618,26Z"/>
          <path id="Path_925947" data-name="Path 925947" d="M18.658,28.552a2.618,2.618,0,0,0,4.684,0l3.382-6.764A2.619,2.619,0,0,0,24.382,18H24V3H22V20h2.382a.618.618,0,0,1,.553.894l-3.382,6.764a.641.641,0,0,1-1.1,0l-3.382-6.764A.6.6,0,0,1,17,20.618.618.618,0,0,1,17.618,20H20V3H18V18h-.382a2.619,2.619,0,0,0-2.342,3.789Z"/>
          <path id="Path_925948" data-name="Path 925948" d="M58,1H34a5.006,5.006,0,0,0-5,5V33.043A13.049,13.049,0,0,0,19.049,39c-.016,0-.032,0-.049,0a10.053,10.053,0,0,0-9.253,6.221A7,7,0,1,0,8,59H40.616l.544.544a3.069,3.069,0,0,0,3.561.57,1.021,1.021,0,0,1,.874-.038c.129.056.26.11.39.161a1.024,1.024,0,0,1,.6.648A3.069,3.069,0,0,0,49.5,63h1a3.069,3.069,0,0,0,2.921-2.116,1.025,1.025,0,0,1,.594-.646c.132-.051.263-.1.393-.161a1.026,1.026,0,0,1,.873.038,3.069,3.069,0,0,0,3.561-.57l.705-.7a3.067,3.067,0,0,0,.57-3.561,1.028,1.028,0,0,1-.038-.874c.056-.129.11-.26.161-.39a1.024,1.024,0,0,1,.648-.6A3.072,3.072,0,0,0,63,50.5V6a5.006,5.006,0,0,0-5-5ZM39.885,55.279A3.064,3.064,0,0,0,39.579,57H8a5,5,0,1,1,1.969-9.6l1.039.445.316-1.085a8,8,0,0,1,14.329-2.208l1.662-1.112A9.989,9.989,0,0,0,21.3,39.275a10.994,10.994,0,0,1,18.787,2.343,3.06,3.06,0,0,0-.2,3.1,1.028,1.028,0,0,1,.038.874c-.056.129-.11.26-.161.39a1.024,1.024,0,0,1-.648.6A3.072,3.072,0,0,0,37,49.5v1a3.069,3.069,0,0,0,2.116,2.921,1.025,1.025,0,0,1,.646.594c.051.132.1.263.161.393a1.023,1.023,0,0,1-.038.873ZM57,15v6H35V15ZM35,13V7H57v6ZM57,23v6H35V23Zm0,8v8.579a3.066,3.066,0,0,0-1.721.306,1.024,1.024,0,0,1-.874.038c-.128-.056-.259-.109-.39-.161a1.026,1.026,0,0,1-.6-.648A3.07,3.07,0,0,0,50.5,37h-1a3.069,3.069,0,0,0-2.921,2.116,1.023,1.023,0,0,1-.6.646c-.131.051-.261.1-.391.161a1.026,1.026,0,0,1-.873-.038,3.065,3.065,0,0,0-3.141.223A13.079,13.079,0,0,0,35,34.015V31Zm4,19v.5a1.073,1.073,0,0,1-.74,1.021,3.016,3.016,0,0,0-1.886,1.772c-.042.107-.086.214-.131.318a3.019,3.019,0,0,0,.087,2.572,1.072,1.072,0,0,1-.2,1.244l-.705.705a1.072,1.072,0,0,1-1.244.2,3.017,3.017,0,0,0-2.571-.087q-.157.067-.321.132a3.019,3.019,0,0,0-1.771,1.887A1.073,1.073,0,0,1,50.5,61h-1a1.073,1.073,0,0,1-1.021-.74,3.016,3.016,0,0,0-1.772-1.886c-.107-.042-.214-.086-.318-.131A2.96,2.96,0,0,0,45.2,58a3.081,3.081,0,0,0-1.386.333,1.073,1.073,0,0,1-1.244-.2l-.705-.705a1.072,1.072,0,0,1-.2-1.244,3.017,3.017,0,0,0,.087-2.571q-.067-.157-.132-.321a3.019,3.019,0,0,0-1.887-1.771A1.071,1.071,0,0,1,39,50.5v-1a1.074,1.074,0,0,1,.739-1.021,3.016,3.016,0,0,0,1.887-1.772c.042-.107.086-.214.131-.318a3.019,3.019,0,0,0-.087-2.572,1.073,1.073,0,0,1,.2-1.245l.7-.7a1.068,1.068,0,0,1,1.245-.2,3.017,3.017,0,0,0,2.571.087c.106-.046.213-.09.32-.131a3.026,3.026,0,0,0,1.772-1.887A1.072,1.072,0,0,1,49.5,39h1a1.073,1.073,0,0,1,1.021.74,3.02,3.02,0,0,0,1.771,1.886c.107.042.214.086.319.131a3.023,3.023,0,0,0,2.572-.087,1.072,1.072,0,0,1,1.245.2l.7.7a1.073,1.073,0,0,1,.2,1.245,3.017,3.017,0,0,0-.087,2.571q.067.157.132.321a3.019,3.019,0,0,0,1.887,1.771A1.073,1.073,0,0,1,61,49.5Zm0-3.371c-.04-.015-.076-.035-.116-.049a1.025,1.025,0,0,1-.646-.594c-.051-.132-.1-.263-.161-.393a1.03,1.03,0,0,1,.038-.873,3.067,3.067,0,0,0-.57-3.561L59,40.615V7a2,2,0,0,0-2-2H35a2,2,0,0,0-2,2V33.356a12.939,12.939,0,0,0-2-.317V6a3,3,0,0,1,3-3H58a3,3,0,0,1,3,3Z"/>
          <path id="Path_925949" data-name="Path 925949" d="M41,9h2v2H41Z"/>
          <path id="Path_925950" data-name="Path 925950" d="M37,9h2v2H37Z"/>
          <path id="Path_925951" data-name="Path 925951" d="M37,25h2v2H37Z"/>
          <path id="Path_925952" data-name="Path 925952" d="M41,25h2v2H41Z"/>
          <path id="Path_925953" data-name="Path 925953" d="M53,17h2v2H53Z"/>
          <path id="Path_925954" data-name="Path 925954" d="M49,17h2v2H49Z"/>
          <path id="Path_925955" data-name="Path 925955" d="M49,33h2v2H49Z"/>
          <path id="Path_925956" data-name="Path 925956" d="M53,33h2v2H53Z"/>
          <path id="Path_925957" data-name="Path 925957" d="M30,37a8.993,8.993,0,0,0-2.25.284l.5,1.937A7.009,7.009,0,0,1,36.78,44.25l1.937-.5A9,9,0,0,0,30,37Z"/>
          <path id="Path_925958" data-name="Path 925958" d="M19,43a6.017,6.017,0,0,0-5.88,4.8l1.96.4A4.011,4.011,0,0,1,19,45a3.969,3.969,0,0,1,3.2,1.6l1.6-1.2A5.955,5.955,0,0,0,19,43Z"/>
        </g>
      </g>
      <g id="Ellipse_13474" data-name="Ellipse 13474" transform="translate(399 6457)" fill="none" stroke="#fff" stroke-width="1">
        <circle cx="50" cy="50" r="50" stroke="none"/>
        <circle cx="50" cy="50" r="49.5" fill="none"/>
      </g>
    </g>
  </g>
</svg>
