<svg xmlns="http://www.w3.org/2000/svg" xmlns:xlink="http://www.w3.org/1999/xlink" width="295" height="139" viewBox="0 0 295 139">
  <defs>
    <clipPath id="clip-path">
      <rect id="Rectangle_448097" data-name="Rectangle 448097" width="185.328" height="130.052" fill="none"/>
    </clipPath>
  </defs>
  <g id="Group_1169263" data-name="Group 1169263" transform="translate(-1019.711 -1678.898)">
    <path id="Rectangle_447435" data-name="Rectangle 447435" d="M10,0H285a10,10,0,0,1,10,10V113.539a0,0,0,0,1,0,0H0a0,0,0,0,1,0,0V10A10,10,0,0,1,10,0Z" transform="translate(1019.711 1704.359)" fill="#6003fe"/>
    <g id="Group_1165241" data-name="Group 1165241" transform="translate(1074.547 1678.898)">
      <g id="Group_1165240" data-name="Group 1165240" clip-path="url(#clip-path)">
        <path id="Path_938442" data-name="Path 938442" d="M454.967,64.464c2.915-12.44-5.439-24.354-13.694-29.482a21.663,21.663,0,0,0-12.82-3.1c-.152-2.087-1.267-14.837-11.047-23.284a25.846,25.846,0,0,0-18.5-6.343c-12.78.795-20.268,11.244-21.455,12.957-.881-.364-12.086-4.751-21.681,3.354-7.3,6.163-10.671,17.025-8.522,27.53A16.068,16.068,0,0,0,335.4,51.915c-.825.984-5.825,7.167-4.359,15.554A16.828,16.828,0,0,0,342.2,80.739H441.23c1.43-.653,11.164-5.3,13.737-16.276" transform="translate(-308.436 -2.047)" fill="#fff"/>
        <path id="Path_938443" data-name="Path 938443" d="M439.152,78.849H340.124a.143.143,0,0,1-.043-.007,16.1,16.1,0,0,1-7.375-5,17.773,17.773,0,0,1-3.888-8.394c-1.4-8.019,3.008-14.033,4.393-15.685a16.132,16.132,0,0,1,11.776-5.871c-2.09-10.529,1.279-21.307,8.611-27.5A20.389,20.389,0,0,1,367.8,11.5a23.178,23.178,0,0,1,7.516,1.466C377.4,10,384.785.8,396.818.047a25.893,25.893,0,0,1,18.6,6.378c9.174,7.924,10.8,19.6,11.09,23.242A21.852,21.852,0,0,1,439.27,32.8a32.492,32.492,0,0,1,11.09,12.057,25.214,25.214,0,0,1,2.673,17.6l-.144-.037.144.037a23.043,23.043,0,0,1-7.345,12.092,26.976,26.976,0,0,1-6.477,4.29.142.142,0,0,1-.059.013m-99.005-.313h98.974c1.909-.877,11.154-5.619,13.623-16.157,2.77-11.82-4.953-23.923-13.625-29.31a21.6,21.6,0,0,0-12.737-3.082.152.152,0,0,1-.155-.144c-.249-3.424-1.779-15.216-10.993-23.175A25.6,25.6,0,0,0,396.836.36c-12.036.748-19.38,10.058-21.344,12.893a.144.144,0,0,1-.175.054,23.019,23.019,0,0,0-7.523-1.488,20.107,20.107,0,0,0-14.01,4.819c-7.288,6.157-10.612,16.9-8.47,27.375a.163.163,0,0,1-.029.13.146.146,0,0,1-.114.059,15.827,15.827,0,0,0-11.738,5.77c-1.363,1.625-5.7,7.541-4.324,15.422a16.573,16.573,0,0,0,11.037,13.143" transform="translate(-306.358 0)"/>
        <path id="Path_938444" data-name="Path 938444" d="M301.292,966.329l-.742-6.1s4.4-4.372,1.372-7.672c-2.185-2.382-5.537,1.333-8.3,1.682s-5.135,1-7.075,6.964-6.077,15.305-7,18.118l20.83-1.334Z" transform="translate(-260.67 -884.123)"/>
        <path id="Path_938445" data-name="Path 938445" d="M105.656,1300.6s-5.47-6.563-7.694-9.631a11.11,11.11,0,0,0-7.584-4.559c-1.737-.22-3.9-1.014-6.379-1.048a54.635,54.635,0,0,0-10.655,1.048,17.346,17.346,0,0,0-11.167,7.681l-6.222,9.574,7.055,3.624-1.954,16.619,37.985,0Z" transform="translate(-52.176 -1194.016)" fill="#5479f7"/>
        <path id="Path_938446" data-name="Path 938446" d="M17.913,1482.875l-7.267-2.587s-8.807,12.769-3.313,18.283S27.5,1486.884,30.169,1483c0,0,1.719.421,1.473-.776,0,0,2.087.808,2.087-.841,0,0,2.149.586,1.719-1.55,0,0,2.064,2.545,2.7,2.206.973-.521-.212-2.66-1.1-4.277s-3.987-5.615-10.8-1.227a54.826,54.826,0,0,0-8.327,6.336" transform="translate(-5.156 -1369.757)" fill="#fff"/>
        <path id="Path_938447" data-name="Path 938447" d="M8.114,1572.8a3.8,3.8,0,0,1-2.8-1.123c-2.295-2.3-2.446-6.239-.439-11.382a39.563,39.563,0,0,1,3.734-7.106.144.144,0,0,1,.208-.035.162.162,0,0,1,.033.219c-.087.126-8.668,12.721-3.331,18.078,1.431,1.436,3.648,1.378,6.589-.175a.145.145,0,0,1,.2.07.16.16,0,0,1-.066.21,9.13,9.13,0,0,1-4.128,1.245" transform="translate(-3.239 -1442.751)"/>
        <path id="Path_938448" data-name="Path 938448" d="M65.066,1602.337a.145.145,0,0,1-.115-.057.162.162,0,0,1,.02-.22l7.849-6.787a.143.143,0,0,1,.209.022.162.162,0,0,1-.02.22L65.16,1602.3a.144.144,0,0,1-.094.036" transform="translate(-60.533 -1481.87)"/>
        <path id="Path_938449" data-name="Path 938449" d="M331.932,1578.353h-.018a4.935,4.935,0,0,1-2.455-1.047.162.162,0,0,1-.029-.219.144.144,0,0,1,.208-.03,4.641,4.641,0,0,0,2.311.985.155.155,0,0,1,.13.174.151.151,0,0,1-.147.138" transform="translate(-307.154 -1464.95)"/>
        <path id="Path_938450" data-name="Path 938450" d="M379.408,1571.5a.143.143,0,0,1-.075-.021,4.628,4.628,0,0,1-.919-.745.162.162,0,0,1,0-.221.144.144,0,0,1,.21,0,4.315,4.315,0,0,0,.859.7.161.161,0,0,1,.053.214.147.147,0,0,1-.129.077" transform="translate(-352.818 -1458.86)"/>
        <path id="Path_938451" data-name="Path 938451" d="M411.692,1556.929a.146.146,0,0,1-.11-.051l-.753-.863a.162.162,0,0,1,.009-.221.144.144,0,0,1,.21.01l.754.863a.162.162,0,0,1-.009.221.143.143,0,0,1-.1.041" transform="translate(-383.048 -1445.191)"/>
        <path id="Path_938452" data-name="Path 938452" d="M437.956,1536.525a.145.145,0,0,1-.113-.055c-.106-.13-.189-.245-.27-.355-.1-.135-.2-.275-.348-.451a.162.162,0,0,1,.013-.221.144.144,0,0,1,.21.013c.156.185.26.329.362.469.082.112.159.219.259.342a.162.162,0,0,1-.016.221.143.143,0,0,1-.1.038" transform="translate(-407.663 -1426.288)"/>
        <path id="Path_938453" data-name="Path 938453" d="M642.34,1284.039,663,1265.083s3.287-3.842,5.513-3.145c2.651.83-1.919,2.766-2.227,5.629a61,61,0,0,0-.205,6.7s-10.644,16.1-18.893,16.286c-3.08.07-4.846-6.512-4.846-6.512" transform="translate(-598.96 -1172.179)" fill="#fff"/>
        <path id="Path_938454" data-name="Path 938454" d="M891.452,1460.97a.143.143,0,0,1-.1-.04.162.162,0,0,1-.011-.221c1.567-1.828,5.686-6.693,5.918-7.247a.146.146,0,0,1,.2-.08.16.16,0,0,1,.076.207c-.293.7-5.389,6.654-5.969,7.33a.145.145,0,0,1-.111.052" transform="translate(-831.111 -1350.082)"/>
        <rect id="Rectangle_448094" data-name="Rectangle 448094" width="45.817" height="36.421" transform="translate(61.794 62.768)" fill="#e2eaff"/>
        <path id="Path_938455" data-name="Path 938455" d="M1005.4,944.71v-1.936a1.745,1.745,0,0,0-1.7-1.787H993.637a1.745,1.745,0,0,0-1.7,1.787v1.936H964.6v30.126a3.278,3.278,0,0,0,3.192,3.359h42.349V944.71Z" transform="translate(-899.453 -874.113)" fill="#fff"/>
        <path id="Path_938456" data-name="Path 938456" d="M1008.084,1024.979H965.736a3.435,3.435,0,0,1-3.341-3.515V1017.8a.149.149,0,1,1,.3,0v3.659a3.129,3.129,0,0,0,3.043,3.2h42.2V991.494h-3.224a.157.157,0,0,1,0-.313h3.373a.153.153,0,0,1,.149.156v33.484a.153.153,0,0,1-.149.156" transform="translate(-897.401 -920.741)"/>
        <path id="Path_938457" data-name="Path 938457" d="M1638.938,1051.087v29.384l4.269-29.384Z" transform="translate(-1528.254 -976.39)" fill="#fff"/>
        <path id="Path_938458" data-name="Path 938458" d="M1637.031,1078.449l-.3-.024v-29.54h4.591Zm0-29.251v27.167l3.947-27.167Z" transform="translate(-1526.2 -974.344)"/>
        <path id="Path_938459" data-name="Path 938459" d="M869.267,1271.075a14.122,14.122,0,0,0,2.541.374,6.309,6.309,0,0,0,2.974-.651,3.076,3.076,0,0,0,1.141-1.348c.034-.751.482-1.177.557-1.882.308-2.864,4.884-4.818,2.227-5.629-2.283-.7-5.513,3.145-5.513,3.145l-5.435,4.987c.061.356,1.173.922,1.507,1" transform="translate(-809.157 -1172.179)" fill="#fff"/>
        <path id="Path_938460" data-name="Path 938460" d="M942.446,1269.714a1.845,1.845,0,0,1-.228-.012.155.155,0,0,1-.127-.176.15.15,0,0,1,.167-.134c.114.016,2.8.351,3.385-3.585a6.986,6.986,0,0,1,2.121-3.6c.7-.75,1.081-1.189.81-1.483-.361-.392-1.064-.8-2.985.192a.146.146,0,0,1-.2-.072.16.16,0,0,1,.068-.209c1.594-.822,2.652-.863,3.329-.129.486.527-.086,1.142-.811,1.92a6.637,6.637,0,0,0-2.04,3.43c-.531,3.563-2.767,3.858-3.492,3.858" transform="translate(-878.467 -1170.442)"/>
        <path id="Path_938461" data-name="Path 938461" d="M762.061,1283.2a.145.145,0,0,1-.112-.054.162.162,0,0,1,.014-.221l12.427-11.4a13.3,13.3,0,0,1,3.052-2.6.145.145,0,0,1,.2.059.16.16,0,0,1-.056.213,13.232,13.232,0,0,0-2.981,2.539l-.014.015-12.435,11.409a.144.144,0,0,1-.1.038" transform="translate(-710.457 -1178.726)"/>
        <path id="Path_938462" data-name="Path 938462" d="M363.7,1163.6l2.877.482s-.475,3.524-2.447,4.521c-3.356,1.7-12.873-5.1-12.873-5.1l4.7-.626a3.216,3.216,0,0,0,2.092-2.251l1.907-7.1,5.3,2.806Z" transform="translate(-327.539 -1071.548)" fill="#fff"/>
        <path id="Path_938463" data-name="Path 938463" d="M428.13,1051.818s-1.285-2.288-2.693-1.826c-2.145.7-2.007,4.742,1.529,4.548,0,0,4.183,5.629,8.2,4.067s1.07-11.082.292-12.714c0,0-5.084.487-5.729,2.638-.568,1.892.218,3.287-1.594,3.287" transform="translate(-395.389 -971.565)" fill="#fff"/>
        <path id="Path_938464" data-name="Path 938464" d="M431.618,1057c-3.328,0-6.347-3.774-6.782-4.342a2.622,2.622,0,0,1-2.983-2.127,2.4,2.4,0,0,1,1.479-2.731c1.366-.448,2.57,1.4,2.82,1.818,1-.025,1.034-.516,1.1-1.47a7.6,7.6,0,0,1,.268-1.706c.668-2.226,5.646-2.727,5.858-2.747a.149.149,0,0,1,.146.086c.628,1.317,2.641,7.661,1.379,11.028a3.065,3.065,0,0,1-1.752,1.9,4.2,4.2,0,0,1-1.535.288m-6.713-4.658a.146.146,0,0,1,.117.06c.041.055,4.163,5.521,8.027,4.016a2.773,2.773,0,0,0,1.578-1.725c1.2-3.2-.663-9.2-1.323-10.676-.714.083-4.939.653-5.5,2.518a7.216,7.216,0,0,0-.255,1.636c-.07.984-.126,1.761-1.481,1.761a.147.147,0,0,1-.128-.077c-.012-.022-1.242-2.176-2.521-1.756a2.1,2.1,0,0,0-1.274,2.377,2.356,2.356,0,0,0,2.751,1.865h.008" transform="translate(-393.328 -969.519)"/>
        <path id="Path_938465" data-name="Path 938465" d="M444.206,1137.412a.145.145,0,0,1-.1-.043,2.064,2.064,0,0,0-1.86-.566.149.149,0,0,1-.175-.123.156.156,0,0,1,.117-.184,2.354,2.354,0,0,1,2.123.645.163.163,0,0,1,.006.221.145.145,0,0,1-.108.049" transform="translate(-412.211 -1055.686)"/>
        <path id="Path_938466" data-name="Path 938466" d="M292.582,1558.7l-6.076,17.272H267.844a.627.627,0,0,0-.586.43.655.655,0,0,0,.586.887h36.817a1.1,1.1,0,0,0,1.023-.75l6.061-17.229a.873.873,0,0,0-.781-1.182h-17.6a.836.836,0,0,0-.781.573" transform="translate(-249.172 -1447.398)"/>
        <path id="Path_938467" data-name="Path 938467" d="M1303.057,915.217V902.082H1295.1v13.134h-4.754l8.735,10.017,8.735-10.017Z" transform="translate(-1203.199 -837.974)" fill="#5479f7"/>
        <path id="Path_938468" data-name="Path 938468" d="M1137.6,730.142V743.33h-7.962V730.142h-4.755l8.735-9.964,8.735,9.964Z" transform="translate(-1048.92 -668.998)" fill="#5479f7"/>
        <rect id="Rectangle_448095" data-name="Rectangle 448095" width="71.894" height="32.343" transform="translate(113.36 36.877)" fill="#e2eaff"/>
        <path id="Path_938469" data-name="Path 938469" d="M2177.725,280.231,2180.9,290l2.184.447s-3.333,7.613-8.949,6.338-4.381-6.338-4.381-6.338l1.188-.1a1.2,1.2,0,0,0,1.021-1.508l-1.335-5.443s5.442-4.616,7.1-3.166" transform="translate(-2023.115 -260.054)" fill="#fff"/>
        <path id="Path_938470" data-name="Path 938470" d="M2173.293,295.129a5.454,5.454,0,0,1-5.773-6.676.151.151,0,0,1,.132-.117l1.188-.1a.988.988,0,0,0,.735-.439,1.1,1.1,0,0,0,.154-.874l-1.335-5.443a.161.161,0,0,1,.051-.161c.226-.192,5.558-4.678,7.285-3.165a.158.158,0,0,1,.046.07l3.148,9.686,2.1.43a.149.149,0,0,1,.1.082.164.164,0,0,1,0,.137c-.031.071-2.938,6.571-7.836,6.571m-5.508-6.49a5.534,5.534,0,0,0,.575,3.62,5.459,5.459,0,0,0,3.715,2.418c4.955,1.126,8.148-4.935,8.7-6.07l-1.992-.408a.151.151,0,0,1-.112-.1l-3.162-9.728c-1.293-1.029-5.268,1.846-6.8,3.131l1.311,5.345a1.421,1.421,0,0,1-.2,1.134,1.284,1.284,0,0,1-.954.569Z" transform="translate(-2021.024 -258.096)"/>
        <path id="Path_938471" data-name="Path 938471" d="M2076.558,109.99a4.618,4.618,0,0,1,2.866,2.776c.252.676.352,1.405.591,2.086a2.505,2.505,0,0,0,1.314,1.593,10.1,10.1,0,0,0,1.014.219,2.015,2.015,0,0,1,1.435,1.437,1.66,1.66,0,0,1-.789,1.839,1.892,1.892,0,0,1-.309,1.852,1.675,1.675,0,0,1-1.717.525,4,4,0,0,1-2.214,3.32,7.964,7.964,0,0,1-3.954.717,16.124,16.124,0,0,1-7.4-1.879,5.231,5.231,0,0,1-1.589-1.23,2.549,2.549,0,0,1-.6-1.924,6.373,6.373,0,0,1-2.287-2.31,2.9,2.9,0,0,1,.23-3.149c.6-.657,1.545-.853,2.148-1.5a6.031,6.031,0,0,0,.972-2.115,5.163,5.163,0,0,1,1.624-2.372,3.6,3.6,0,0,1,3.26-.5,5.4,5.4,0,0,1,1.473.9c.48.338,1.085-.2,1.6-.334a4.281,4.281,0,0,1,2.333.056" transform="translate(-1923.276 -101.428)"/>
        <path id="Path_938472" data-name="Path 938472" d="M2128.084,197.745a6.833,6.833,0,0,1-1.969,2.832,4.266,4.266,0,0,1-3.15,1c-1.869-.228-3.332-1.936-3.928-3.814a16.083,16.083,0,0,1-.368-5.885s.8-2.967,2.9-3.945c.4,4.316,7.455,1.133,5.59,7.2,0,0,1.29-1.646,2.106-1.553a2.005,2.005,0,0,1,1.672,1.871,2.3,2.3,0,0,1-1.381,2.182,1.869,1.869,0,0,1-1.469.113" transform="translate(-1975.496 -174.574)" fill="#fff"/>
        <path id="Path_938473" data-name="Path 938473" d="M2121.33,199.71a3.682,3.682,0,0,1-.446-.027,5.3,5.3,0,0,1-4.052-3.92,16.428,16.428,0,0,1-.375-5.945.161.161,0,0,1,.005-.032c.034-.124.846-3.05,2.981-4.045a.141.141,0,0,1,.135.008.156.156,0,0,1,.073.12c.167,1.806,1.538,2.212,2.99,2.642,1.065.315,2.167.642,2.654,1.6a3.5,3.5,0,0,1,.113,2.38c.468-.5,1.22-1.177,1.807-1.11a2.172,2.172,0,0,1,1.8,2.018,2.455,2.455,0,0,1-1.475,2.336,2.081,2.081,0,0,1-1.439.159,6.923,6.923,0,0,1-1.963,2.763,4.521,4.521,0,0,1-2.813,1.055m-4.577-9.854a16.111,16.111,0,0,0,.361,5.808c.533,1.68,1.917,3.477,3.8,3.708a4.111,4.111,0,0,0,3.042-.965,6.679,6.679,0,0,0,1.923-2.767.146.146,0,0,1,.188-.088,1.727,1.727,0,0,0,1.365-.111,2.134,2.134,0,0,0,1.287-2.028,1.855,1.855,0,0,0-1.54-1.724c-.6-.068-1.631,1.057-1.976,1.5a.144.144,0,0,1-.186.038.16.16,0,0,1-.07-.185,3.794,3.794,0,0,0,.081-2.782c-.427-.839-1.42-1.133-2.472-1.445-1.362-.4-2.9-.859-3.178-2.694-1.8.979-2.566,3.518-2.629,3.738" transform="translate(-1973.433 -172.528)"/>
        <path id="Path_938474" data-name="Path 938474" d="M2260.056,292.786a.145.145,0,0,1-.114-.056.162.162,0,0,1,.019-.22,4.108,4.108,0,0,0,.823-1,.144.144,0,0,1,.205-.051.161.161,0,0,1,.048.215,4.421,4.421,0,0,1-.885,1.075.145.145,0,0,1-.1.037" transform="translate(-2107.288 -270.725)"/>
        <path id="Path_938475" data-name="Path 938475" d="M1854,424.612a9.7,9.7,0,0,1,6.981-4.133c1.584-.154,3.569-.317,5.784-.436a5.468,5.468,0,0,0,.514,1.209,6.306,6.306,0,0,0,2.768,2.5,6.532,6.532,0,0,0,3.6.616,5.032,5.032,0,0,0,3.17-1.63,6.559,6.559,0,0,0,1.694-2.7,49.778,49.778,0,0,1,5.478.606,12.693,12.693,0,0,1,8.664,6.115c4.289,7.042,9.057,14.475,9.057,23.051,0,9.75-22.243,8.9-22.243,8.9h-21.685l-13.867-12.4s4.316-13.507,10.084-21.705" transform="translate(-1719.393 -390.19)" fill="#5479f7"/>
        <path id="Path_938476" data-name="Path 938476" d="M2144.19,789.452c.164,1.163-1.977,1.585-1.977,1.585h-6.635L2125.7,789.7s-.771-13.4,13.2-11.778c0,0,4.215,3.859,5.3,11.53" transform="translate(-1982.133 -722.512)" fill="#fff"/>
        <path id="Path_938477" data-name="Path 938477" d="M2140.178,789.15h-6.654l-9.881-1.337a.153.153,0,0,1-.13-.146c0-.056-.284-5.683,3.242-9.215,2.316-2.32,5.721-3.237,10.121-2.728a.155.155,0,0,1,.132.173.151.151,0,0,1-.164.138c-4.307-.5-7.632.39-9.881,2.642-3.132,3.136-3.174,7.992-3.156,8.842l9.746,1.318h6.625a.157.157,0,0,1,0,.313" transform="translate(-1980.099 -720.468)"/>
        <path id="Path_938478" data-name="Path 938478" d="M2231.081,884.158a.152.152,0,0,1-.147-.134,4.182,4.182,0,0,1,.5-2.507,6.741,6.741,0,0,1,1.6-1.914,2.161,2.161,0,0,1,.494-.343.146.146,0,0,1,.2.081.16.16,0,0,1-.077.206,1.883,1.883,0,0,0-.424.3,6.438,6.438,0,0,0-1.529,1.825,3.856,3.856,0,0,0-.464,2.309.155.155,0,0,1-.125.177l-.022,0" transform="translate(-2080.24 -816.761)"/>
        <path id="Path_938479" data-name="Path 938479" d="M2184.216,871.648l-.021,0a.156.156,0,0,1-.127-.177,13.47,13.47,0,0,1,.677-2.963,5.82,5.82,0,0,1,1.7-2.487.144.144,0,0,1,.208.029.162.162,0,0,1-.028.219,5.506,5.506,0,0,0-1.6,2.356,13.1,13.1,0,0,0-.658,2.891.151.151,0,0,1-.147.135" transform="translate(-2036.568 -804.444)"/>
        <path id="Path_938480" data-name="Path 938480" d="M2145.6,859.522a.151.151,0,0,1-.147-.138,8.188,8.188,0,0,1,2.034-6.41.144.144,0,0,1,.21.008.162.162,0,0,1-.008.221,7.86,7.86,0,0,0-1.941,6.144.155.155,0,0,1-.13.174h-.018" transform="translate(-2000.512 -792.317)"/>
        <path id="Path_938481" data-name="Path 938481" d="M1735.871,938.159h36.041a1.024,1.024,0,0,0,.6-.185,1.128,1.128,0,0,0,.392-1.29c-.425-.938-1.3-1.268-2.6-1.268h-36.8l.477,1.366a2.022,2.022,0,0,0,1.887,1.378" transform="translate(-1616.436 -868.938)"/>
        <path id="Path_938482" data-name="Path 938482" d="M1651.952,711.555l-6.443-17.015a1.576,1.576,0,0,1-.025-1.087,1.385,1.385,0,0,1,1.292-.941h22.15a3.165,3.165,0,0,1,2.97,2.209l5.989,17.8H1653.3a1.455,1.455,0,0,1-1.349-.963" transform="translate(-1534.279 -643.298)"/>
        <path id="Path_938483" data-name="Path 938483" d="M2346,777.019h0l-16.114-.322a.157.157,0,0,1,0-.313h0l16.114.322a.157.157,0,0,1,0,.313" transform="translate(-2172.403 -721.209)"/>
        <path id="Path_938484" data-name="Path 938484" d="M2442.675,680.1a.15.15,0,0,1-.142-.111,29.112,29.112,0,0,0-2.383-5.852c-.277-.513-.536-.747-.812-.737a.151.151,0,0,1-.154-.151.153.153,0,0,1,.144-.162c.527-.015.868.5,1.08.895a29.375,29.375,0,0,1,2.409,5.917.158.158,0,0,1-.1.2.149.149,0,0,1-.043.007" transform="translate(-2274.457 -625.255)"/>
        <path id="Path_938485" data-name="Path 938485" d="M14.821,126.908a3.34,3.34,0,0,0,.048.382A12.041,12.041,0,0,0,11.586,129a3.089,3.089,0,0,0-.258-.272,2.9,2.9,0,0,0-4.244.3,3.286,3.286,0,0,0,.28,4.47,3.044,3.044,0,0,0,.29.234,13.4,13.4,0,0,0-1.175,3.651,2.891,2.891,0,0,0-.366,0,3.116,3.116,0,0,0-2.8,3.369,3.065,3.065,0,0,0,3.2,2.952,2.893,2.893,0,0,0,.363-.051A13.218,13.218,0,0,0,8.493,147.1a3.118,3.118,0,0,0-.259.272,3.286,3.286,0,0,0,.28,4.47,2.9,2.9,0,0,0,4.244-.3,3.157,3.157,0,0,0,.222-.306,11.858,11.858,0,0,0,3.467,1.237,3.376,3.376,0,0,0,0,.385,3.065,3.065,0,0,0,3.2,2.952,3.117,3.117,0,0,0,2.8-3.369,3.339,3.339,0,0,0-.048-.382,12.037,12.037,0,0,0,3.283-1.707,3.1,3.1,0,0,0,.258.272,2.9,2.9,0,0,0,4.244-.3,3.286,3.286,0,0,0-.28-4.47,3.05,3.05,0,0,0-.29-.234,13.4,13.4,0,0,0,1.175-3.651,2.858,2.858,0,0,0,.366,0,3.117,3.117,0,0,0,2.8-3.369,3.065,3.065,0,0,0-3.2-2.952,2.893,2.893,0,0,0-.363.051,13.214,13.214,0,0,0-1.621-3.457,3.117,3.117,0,0,0,.259-.272,3.286,3.286,0,0,0-.28-4.47,2.9,2.9,0,0,0-4.244.3,3.194,3.194,0,0,0-.222.306,11.856,11.856,0,0,0-3.467-1.237,3.345,3.345,0,0,0,0-.385,3.065,3.065,0,0,0-3.2-2.952,3.117,3.117,0,0,0-2.8,3.369m9.388,12.381A5.788,5.788,0,0,1,19,145.546a5.692,5.692,0,0,1-5.941-5.481,5.788,5.788,0,0,1,5.206-6.257,5.692,5.692,0,0,1,5.941,5.481" transform="translate(-3.081 -114.752)" fill="#00bdff"/>
        <path id="Path_938486" data-name="Path 938486" d="M418.151,3.972a1.753,1.753,0,0,0,.025.2,6.3,6.3,0,0,0-1.719.894,1.641,1.641,0,0,0-.135-.143,1.521,1.521,0,0,0-2.223.155,1.721,1.721,0,0,0,.147,2.341,1.57,1.57,0,0,0,.152.123,7.021,7.021,0,0,0-.615,1.912,1.525,1.525,0,0,0-.192,0,1.632,1.632,0,0,0-1.468,1.765,1.605,1.605,0,0,0,1.676,1.546,1.528,1.528,0,0,0,.19-.027,6.923,6.923,0,0,0,.849,1.81,1.637,1.637,0,0,0-.136.143,1.721,1.721,0,0,0,.147,2.341,1.521,1.521,0,0,0,2.223-.155,1.665,1.665,0,0,0,.116-.16,6.215,6.215,0,0,0,1.816.648,1.752,1.752,0,0,0,0,.2,1.605,1.605,0,0,0,1.676,1.546,1.632,1.632,0,0,0,1.468-1.765,1.756,1.756,0,0,0-.025-.2,6.3,6.3,0,0,0,1.719-.894,1.638,1.638,0,0,0,.135.143,1.521,1.521,0,0,0,2.223-.155,1.721,1.721,0,0,0-.147-2.341,1.587,1.587,0,0,0-.152-.123,7.016,7.016,0,0,0,.616-1.912,1.5,1.5,0,0,0,.192,0,1.632,1.632,0,0,0,1.468-1.765A1.605,1.605,0,0,0,426.5,8.555a1.529,1.529,0,0,0-.19.027,6.92,6.92,0,0,0-.849-1.81,1.62,1.62,0,0,0,.136-.143,1.721,1.721,0,0,0-.147-2.341,1.521,1.521,0,0,0-2.223.155,1.619,1.619,0,0,0-.116.16,6.208,6.208,0,0,0-1.816-.648,1.766,1.766,0,0,0,0-.2,1.606,1.606,0,0,0-1.676-1.546,1.632,1.632,0,0,0-1.468,1.765m4.917,6.485a3.031,3.031,0,0,1-2.727,3.277,2.981,2.981,0,0,1-3.112-2.871,3.031,3.031,0,0,1,2.727-3.277,2.981,2.981,0,0,1,3.112,2.871" transform="translate(-384.287 -2.047)" fill="#00bdff"/>
        <path id="Path_938487" data-name="Path 938487" d="M2462.631,1170.379a2.035,2.035,0,1,0,2.033-2.139,2.088,2.088,0,0,0-2.033,2.139" transform="translate(-2296.32 -1085.217)" fill="#fff"/>
        <path id="Path_938488" data-name="Path 938488" d="M2462.608,1170.629a2.3,2.3,0,1,1,2.181-2.3,2.243,2.243,0,0,1-2.181,2.3m0-4.278a1.985,1.985,0,1,0,1.884,1.983,1.937,1.937,0,0,0-1.884-1.983" transform="translate(-2294.265 -1083.172)"/>
        <path id="Path_938489" data-name="Path 938489" d="M2374.8,1170.379a2.035,2.035,0,1,0,2.033-2.139,2.088,2.088,0,0,0-2.033,2.139" transform="translate(-2214.417 -1085.217)" fill="#fff"/>
        <path id="Path_938490" data-name="Path 938490" d="M2374.775,1170.629a2.3,2.3,0,1,1,2.181-2.3,2.243,2.243,0,0,1-2.181,2.3m0-4.278a1.985,1.985,0,1,0,1.884,1.983,1.937,1.937,0,0,0-1.884-1.983" transform="translate(-2212.363 -1083.172)"/>
        <path id="Path_938491" data-name="Path 938491" d="M2286.962,1170.379a2.035,2.035,0,1,0,2.033-2.139,2.088,2.088,0,0,0-2.033,2.139" transform="translate(-2132.514 -1085.217)" fill="#fff"/>
        <path id="Path_938492" data-name="Path 938492" d="M2286.942,1170.629a2.3,2.3,0,1,1,2.181-2.3,2.243,2.243,0,0,1-2.181,2.3m0-4.278a1.985,1.985,0,1,0,1.884,1.983,1.937,1.937,0,0,0-1.884-1.983" transform="translate(-2130.461 -1083.172)"/>
        <path id="Path_938493" data-name="Path 938493" d="M2565.276,1027.315H2558.1a.157.157,0,0,1,0-.313h7.03V1014.22a.149.149,0,1,1,.3,0v12.939a.152.152,0,0,1-.148.156" transform="translate(-2385.2 -941.997)"/>
        <path id="Path_938494" data-name="Path 938494" d="M1941.982,1195.8h-11.114a.157.157,0,0,1,0-.313h11.114a.157.157,0,0,1,0,.313" transform="translate(-1800.33 -1110.528)"/>
        <path id="Path_938495" data-name="Path 938495" d="M2135.265,1195.8h-5.784a.157.157,0,0,1,0-.313h5.784a.157.157,0,0,1,0,.313" transform="translate(-1985.531 -1110.528)"/>
        <path id="Path_938496" data-name="Path 938496" d="M1937.039,1254.7h-6.171a.157.157,0,0,1,0-.313h6.171a.157.157,0,0,1,0,.313" transform="translate(-1800.33 -1165.239)"/>
        <path id="Path_938497" data-name="Path 938497" d="M2067.493,1254.7H2056.8a.157.157,0,0,1,0-.313h10.692a.157.157,0,0,1,0,.313" transform="translate(-1917.759 -1165.239)"/>
        <path id="Path_938498" data-name="Path 938498" d="M1727.563,1313.662h0l-35.311-.084a.157.157,0,0,1,0-.313h0l35.311.084a.157.157,0,0,1,0,.313" transform="translate(-1577.829 -1219.936)"/>
        <path id="Path_938499" data-name="Path 938499" d="M11.087,655.348H.149A.153.153,0,0,1,0,655.192V608.858a.153.153,0,0,1,.149-.157H16.716v-7.646a.149.149,0,1,1,.3,0v7.8a.153.153,0,0,1-.149.156H.3v46.021h10.79a.157.157,0,0,1,0,.313" transform="translate(0 -558.195)"/>
        <path id="Path_938500" data-name="Path 938500" d="M1004.493,1629.67H967.639a.157.157,0,0,1,0-.313h36.706v-14.7H954.831v14.856a.161.161,0,0,1-.044.111.146.146,0,0,1-.105.046l-72.353,0a.157.157,0,0,1,0-.313l72.2,0V1614.5a.153.153,0,0,1,.149-.156h49.811a.153.153,0,0,1,.149.156v15.013a.153.153,0,0,1-.149.156" transform="translate(-822.604 -1499.618)"/>
        <rect id="Rectangle_448096" data-name="Rectangle 448096" width="49.811" height="18.205" transform="translate(135.518 108.263)" fill="#e2eaff"/>
        <path id="Path_938501" data-name="Path 938501" d="M1727.563,1450a.153.153,0,0,1-.149-.156v-4.039l-35.163-.083a.157.157,0,0,1,0-.313h0l35.311.084a.153.153,0,0,1,.148.156v4.2a.153.153,0,0,1-.149.156" transform="translate(-1577.829 -1342.69)"/>
      </g>
    </g>
  </g>
</svg>
