<svg xmlns="http://www.w3.org/2000/svg" width="82.578" height="82.578" viewBox="0 0 82.578 82.578">
  <g id="Group_1165409" data-name="Group 1165409" transform="translate(-1 -1)">
    <path id="Path_939006" data-name="Path 939006" d="M16.651,61.987a3.99,3.99,0,0,0,4,4H2V50H15.319a1.336,1.336,0,0,1,1.332,1.332Z" transform="translate(0.332 16.263)" fill="#ccd1d9"/>
    <path id="Path_939007" data-name="Path 939007" d="M24.642,49.328V63.979a4,4,0,0,1-7.991,0V53.323a1.336,1.336,0,0,0-1.332-1.332H9.991A8,8,0,0,1,2,44H19.315A5.326,5.326,0,0,1,24.642,49.328Z" transform="translate(0.332 14.272)" fill="#cf9e76"/>
    <path id="Path_939008" data-name="Path 939008" d="M36.337,43.319a3.77,3.77,0,0,1,0,2.85,3.994,3.994,0,0,1-3.7,2.477,4.17,4.17,0,0,1-1.785-.413l-14.2-7.112v7.525H2V37.991A8,8,0,0,1,9.991,30h1.332a4.17,4.17,0,0,1,1.785.413L34.219,40.975a4.328,4.328,0,0,1,2.118,2.344Z" transform="translate(0.332 9.625)" fill="#fcd770"/>
    <circle id="Ellipse_13548" data-name="Ellipse 13548" cx="6.5" cy="6.5" r="6.5" transform="translate(5.289 26.289)" fill="#f0d0b4"/>
    <path id="Path_939009" data-name="Path 939009" d="M28.983,45.875H13V38.35l14.2,7.112A4.17,4.17,0,0,0,28.983,45.875Z" transform="translate(3.983 12.397)" fill="#969faa"/>
    <circle id="Ellipse_13549" data-name="Ellipse 13549" cx="18.5" cy="18.5" r="18.5" transform="translate(45.289 2.289)" fill="#69d6f4"/>
    <path id="Path_939010" data-name="Path 939010" d="M28.7,47.5a3.77,3.77,0,0,0,0-2.85H31.66a1.336,1.336,0,0,0,1.332-1.332V26a5.326,5.326,0,0,1,5.328,5.328V44.647a5.326,5.326,0,0,1-5.328,5.328H25A3.994,3.994,0,0,0,28.7,47.5Z" transform="translate(7.966 8.298)" fill="#969faa"/>
    <path id="Path_939011" data-name="Path 939011" d="M67.3,58h2.664a5.32,5.32,0,0,1-5.328,5.328H43.328A5.326,5.326,0,0,1,38,58H67.3Z" transform="translate(12.28 18.919)" fill="#969faa"/>
    <path id="Path_939012" data-name="Path 939012" d="M66.638,49.328V62.647H40V49.328A5.326,5.326,0,0,1,45.328,44H61.31A5.326,5.326,0,0,1,66.638,49.328Z" transform="translate(12.944 14.272)" fill="#ccd1d9"/>
    <circle id="Ellipse_13550" data-name="Ellipse 13550" cx="3" cy="3" r="3" transform="translate(63.289 63.289)" fill="#69d6f4"/>
    <path id="Path_939013" data-name="Path 939013" d="M40.957,26.991H39.625V45.638H37.5a5.69,5.69,0,0,0-2.352-2.2L15.844,33.784a7.987,7.987,0,1,0-9.3-.657A9.332,9.332,0,0,0,1,41.642V52.3a9.288,9.288,0,0,0,2.812,6.66H1V77.6H20.979a5.333,5.333,0,0,0,5.328-5.328V57.625a6.591,6.591,0,0,0-1.367-4H40.957a6.667,6.667,0,0,0,6.66-6.66V33.651A6.667,6.667,0,0,0,40.957,26.991Zm-29.3-5.328a5.328,5.328,0,1,1-5.328,5.328A5.333,5.333,0,0,1,11.655,21.664ZM10.323,34.983h1.332a2.664,2.664,0,0,1,1.185.278l21.12,10.559a2.829,2.829,0,0,1,1.47,3.491,2.631,2.631,0,0,1-2.467,1.654,2.663,2.663,0,0,1-1.184-.278L10.463,40.029,9.271,42.412l6.38,3.19v5.364H3.664V41.642a6.667,6.667,0,0,1,6.66-6.66ZM26.379,50.966H18.315V46.934ZM3.664,61.621H15.651V72.276a5.273,5.273,0,0,0,.741,2.664H3.664Zm19.979-4V72.276a2.664,2.664,0,0,1-5.328,0V61.621a2.666,2.666,0,0,0-2.664-2.664H10.323A6.672,6.672,0,0,1,3.8,53.63H19.647A4,4,0,0,1,23.642,57.625ZM44.953,46.97a4,4,0,0,1-4,4H37.573a5.427,5.427,0,0,0,.32-.634,5.052,5.052,0,0,0,.38-2.03h1.353a2.666,2.666,0,0,0,2.664-2.664V29.883a4,4,0,0,1,2.664,3.768Z" transform="translate(0 5.974)"/>
    <path id="Path_939014" data-name="Path 939014" d="M52.979,40.957A19.979,19.979,0,1,0,33,20.979,20,20,0,0,0,52.979,40.957Zm0-36.77a24.192,24.192,0,0,1,3.512,4.8H49.465a24.24,24.24,0,0,1,3.514-4.8Zm4.8,7.468a24.245,24.245,0,0,1,1.8,7.991H46.374a24.211,24.211,0,0,1,1.8-7.991Zm12.444,7.991H62.247a27,27,0,0,0-1.589-7.991h6.887A17.176,17.176,0,0,1,70.225,19.647ZM52.979,37.77a24.245,24.245,0,0,1-3.512-4.8h7.026A24.252,24.252,0,0,1,52.979,37.77Zm-4.8-7.468a24.245,24.245,0,0,1-1.8-7.991h13.21a24.211,24.211,0,0,1-1.8,7.991ZM62.249,22.31h7.978a17.191,17.191,0,0,1-2.68,7.991H60.66A27,27,0,0,0,62.249,22.31Zm-18.54-2.664H35.73a17.191,17.191,0,0,1,2.68-7.991H45.3a27,27,0,0,0-1.589,7.991Zm0,2.664A27,27,0,0,0,45.3,30.3H38.41a17.176,17.176,0,0,1-2.68-7.991Zm-3.2,10.655h5.915a27.114,27.114,0,0,0,3.165,4.991,17.286,17.286,0,0,1-9.08-4.991Zm15.851,4.991a27.114,27.114,0,0,0,3.165-4.991h5.915a17.286,17.286,0,0,1-9.08,4.991Zm9.08-28.965H59.529A27.114,27.114,0,0,0,56.364,4a17.286,17.286,0,0,1,9.08,4.991ZM49.593,4a27.185,27.185,0,0,0-3.165,4.991H40.513A17.286,17.286,0,0,1,49.593,4Z" transform="translate(10.621)"/>
    <path id="Path_939015" data-name="Path 939015" d="M45,11h2.664v2.664H45Z" transform="translate(14.604 3.319)"/>
    <path id="Path_939016" data-name="Path 939016" d="M49,11h2.664v2.664H49Z" transform="translate(15.931 3.319)"/>
    <path id="Path_939017" data-name="Path 939017" d="M45,19h2.664v2.664H45Z" transform="translate(14.604 5.974)"/>
    <path id="Path_939018" data-name="Path 939018" d="M49,19h2.664v2.664H49Z" transform="translate(15.931 5.974)"/>
    <path id="Path_939019" data-name="Path 939019" d="M29.322,29.707l-2.131-1.6-1.6,2.131V15.589a4,4,0,0,1,4-4h1.332l-2.131,1.6,1.6,2.131,6.749-5.061L30.388,5.2l-1.6,2.131,2.131,1.6H29.589a6.667,6.667,0,0,0-6.66,6.66V30.24l-1.6-2.131-2.131,1.6,5.061,6.749Z" transform="translate(6.041 1.394)"/>
    <path id="Path_939020" data-name="Path 939020" d="M32.122,56.278l2.131,1.6H28.925a1.333,1.333,0,0,1-1.332-1.332v-4l1.6,2.131,2.131-1.6-5.061-6.75L21.2,53.082l2.131,1.6,1.6-2.13v4a4,4,0,0,0,4,4h5.328l-2.131,1.6,1.6,2.131,6.747-5.061L33.72,54.147Z" transform="translate(6.704 15.046)"/>
    <path id="Path_939021" data-name="Path 939021" d="M68.966,49.66A6.667,6.667,0,0,0,62.306,43H46.323a6.667,6.667,0,0,0-6.66,6.66V61.647H37v1.332a6.667,6.667,0,0,0,6.66,6.66H64.97a6.667,6.667,0,0,0,6.66-6.66V61.647H68.966Zm-26.638,0a4,4,0,0,1,4-4H62.306a4,4,0,0,1,4,4V61.647H42.328ZM64.97,66.974H43.66a4,4,0,0,1-3.768-2.664H68.737a4,4,0,0,1-3.767,2.664Z" transform="translate(11.949 13.94)"/>
    <path id="Path_939022" data-name="Path 939022" d="M51,47a4,4,0,1,0,4,4A4,4,0,0,0,51,47Zm0,5.328A1.332,1.332,0,1,1,52.328,51,1.333,1.333,0,0,1,51,52.328Z" transform="translate(15.268 15.268)"/>
  </g>
</svg>
