<svg xmlns="http://www.w3.org/2000/svg" width="50" height="50" viewBox="0 0 50 50">
  <g id="Group_1172230" data-name="Group 1172230" transform="translate(-830.711 -3122)">
    <rect id="Rectangle_448808" data-name="Rectangle 448808" width="50" height="50" transform="translate(830.711 3122)" fill="none"/>
    <g id="Group_1172229" data-name="Group 1172229" transform="translate(829.711 3121)">
      <path id="path545" d="M39.317,17.539a.5.5,0,0,0-.31.222,1.457,1.457,0,0,1-2.472,0,.5.5,0,0,0-.685-.156l-9.925,6.233a.5.5,0,0,0-.158.683,1.469,1.469,0,0,1,0,1.557.5.5,0,0,0,.158.683l9.856,6.188a.5.5,0,0,0,.7-.189,1.458,1.458,0,0,1,2.574,0,.5.5,0,0,0,.7.189l9.7-6.084a.5.5,0,0,0,.142-.709,1.466,1.466,0,0,1-.277-.855,1.432,1.432,0,0,1,.274-.852.5.5,0,0,0-.138-.713L39.693,17.6a.5.5,0,0,0-.377-.063Zm-3.253,1.1a2.226,2.226,0,0,0,3.415,0l9.146,5.743a2.344,2.344,0,0,0-.3.915,2.313,2.313,0,0,0,.293.914L39.565,31.9a2.228,2.228,0,0,0-3.588,0l-9.225-5.791a2.346,2.346,0,0,0,.231-.806,2.355,2.355,0,0,0-.232-.811Z" transform="translate(-11.916 -7.809)" fill="#6003fe"/>
      <path id="path547" d="M24.773,34.333a.5.5,0,0,0-.684.155,1.457,1.457,0,0,1-1.24.688.5.5,0,0,0-.5.5V47.164a.5.5,0,0,0,.5.5,1.45,1.45,0,0,1,1.461,1.462,1.466,1.466,0,0,1-.171.687.5.5,0,0,0,.175.652l9.856,6.188a.5.5,0,0,0,.685-.156,1.457,1.457,0,0,1,2.472,0,.5.5,0,0,0,.686.159l9.92-6.222a.5.5,0,0,0,.156-.687,1.388,1.388,0,0,1-.216-.758,1.459,1.459,0,0,1,1.461-1.461.5.5,0,0,0,.5-.5V35.658a.5.5,0,0,0-.562-.492,1.2,1.2,0,0,1-.163.011,1.461,1.461,0,0,1-1.189-.611.5.5,0,0,0-.666-.129l-9.7,6.084a.5.5,0,0,0-.172.659,1.412,1.412,0,0,1,.173.681,1.461,1.461,0,1,1-2.751-.687.5.5,0,0,0-.176-.653Zm-.214,1.039,9.249,5.808a2.325,2.325,0,0,0-.17.681,2.455,2.455,0,0,0,4.911,0,2.311,2.311,0,0,0-.174-.682l9.1-5.711a2.385,2.385,0,0,0,1.358.637V46.63a2.431,2.431,0,0,0-1.958,2.354,2.329,2.329,0,0,0,.226.79L37.8,55.612a2.226,2.226,0,0,0-3.415,0L25.134,49.8a2.325,2.325,0,0,0,.17-.681,2.428,2.428,0,0,0-1.958-2.355V36.04a2.36,2.36,0,0,0,1.213-.668Z" transform="translate(-10.236 -16.225)" fill="#6003fe"/>
      <path id="path549" d="M24.773,34.333a.5.5,0,0,0-.684.155,1.457,1.457,0,0,1-1.24.688.5.5,0,0,0-.5.5V47.164a.5.5,0,0,0,.5.5,1.45,1.45,0,0,1,1.461,1.462,1.466,1.466,0,0,1-.171.687.5.5,0,0,0,.175.652l9.856,6.188a.5.5,0,0,0,.685-.156,1.457,1.457,0,0,1,2.472,0,.5.5,0,0,0,.686.159l9.92-6.222a.5.5,0,0,0,.156-.687,1.388,1.388,0,0,1-.216-.758,1.459,1.459,0,0,1,1.461-1.461.5.5,0,0,0,.5-.5V35.658a.5.5,0,0,0-.562-.492,1.2,1.2,0,0,1-.163.011,1.461,1.461,0,0,1-1.189-.611.5.5,0,0,0-.666-.129l-9.7,6.084a.5.5,0,0,0-.172.659,1.412,1.412,0,0,1,.173.681,1.461,1.461,0,1,1-2.751-.687.5.5,0,0,0-.176-.653Zm-.214,1.039,9.249,5.808a2.325,2.325,0,0,0-.17.681,2.455,2.455,0,0,0,4.911,0,2.311,2.311,0,0,0-.174-.682l9.1-5.711a2.385,2.385,0,0,0,1.358.637V46.63a2.431,2.431,0,0,0-1.958,2.354,2.329,2.329,0,0,0,.226.79L37.8,55.612a2.226,2.226,0,0,0-3.415,0L25.134,49.8a2.325,2.325,0,0,0,.17-.681,2.428,2.428,0,0,0-1.958-2.355V36.04a2.36,2.36,0,0,0,1.213-.668Z" transform="translate(-10.236 -16.225)" fill="#6003fe"/>
      <path id="path551" d="M39.317,17.539a.5.5,0,0,0-.31.222,1.457,1.457,0,0,1-2.472,0,.5.5,0,0,0-.685-.156l-9.925,6.233a.5.5,0,0,0-.158.683,1.469,1.469,0,0,1,0,1.557.5.5,0,0,0,.158.683l9.856,6.188a.5.5,0,0,0,.7-.189,1.458,1.458,0,0,1,2.574,0,.5.5,0,0,0,.7.189l9.7-6.084a.5.5,0,0,0,.142-.709,1.466,1.466,0,0,1-.277-.855,1.432,1.432,0,0,1,.274-.852.5.5,0,0,0-.138-.713L39.693,17.6a.5.5,0,0,0-.377-.063Zm-3.253,1.1a2.226,2.226,0,0,0,3.415,0l9.146,5.743a2.344,2.344,0,0,0-.3.915,2.313,2.313,0,0,0,.293.914L39.565,31.9a2.228,2.228,0,0,0-3.588,0l-9.225-5.791a2.346,2.346,0,0,0,.231-.806,2.355,2.355,0,0,0-.232-.811Z" transform="translate(-11.916 -7.809)" fill="#6003fe"/>
      <path id="polyline553" d="M65.139,38.722a.5.5,0,0,0-.53.842l-.006,0a.49.49,0,0,0,.979-.037v-.249a.5.5,0,0,0-.233-.42Z" transform="translate(-31.375 -18.432)" fill="#6003fe"/>
      <path id="line555" d="M65.3,44.17a.5.5,0,0,0-.5.5v.473a.5.5,0,1,0,.994,0v-.473A.5.5,0,0,0,65.3,44.17Zm0,2.837a.5.5,0,0,0-.5.5v.473a.5.5,0,1,0,.994,0V47.5A.5.5,0,0,0,65.3,47.007Z" transform="translate(-31.588 -21.211)" fill="#6003fe"/>
      <path id="polyline557" d="M65.085,55.59a.5.5,0,0,0-.481.46l.006,0a.5.5,0,0,0,.53.842l.21-.132a.5.5,0,0,0,.233-.42v-.249a.5.5,0,0,0-.5-.5Z" transform="translate(-31.374 -26.955)" fill="#6003fe"/>
      <path id="line559" d="M57.489,59.128a.5.5,0,0,0-.375.064l-.437.274a.5.5,0,1,0,.528.843l.437-.275a.5.5,0,0,0-.153-.906Zm-3,1.71-.437.274a.5.5,0,1,0,.528.843l.437-.275a.5.5,0,1,0-.528-.842Z" transform="translate(-26.065 -28.728)" fill="#6003fe"/>
      <path id="polyline561" d="M48.964,65.761a.5.5,0,0,0-.154.906l.21.132a.5.5,0,0,0,.53,0l.21-.132a.483.483,0,0,0-.444-.856l.023.015a.157.157,0,0,0-.109,0l.023-.015A.5.5,0,0,0,48.964,65.761Z" transform="translate(-23.427 -32.069)" fill="#6003fe"/>
      <path id="line563" d="M38.408,59.128a.5.5,0,0,0-.153.906l.437.275a.5.5,0,0,0,.529-.843l-.438-.274A.5.5,0,0,0,38.408,59.128Zm3,1.71a.5.5,0,1,0-.529.842l.437.275a.5.5,0,0,0,.529-.842Z" transform="translate(-18.118 -28.728)" fill="#6003fe"/>
      <path id="polyline565" d="M33.7,55.59a.5.5,0,0,0-.5.5v.249a.5.5,0,0,0,.233.42l.21.132a.494.494,0,0,0,.551-.818v.017l0-.022-.016-.018.016.011a.5.5,0,0,0-.491-.467Z" transform="translate(-15.693 -26.955)" fill="#6003fe"/>
      <path id="line567" d="M33.7,44.17a.5.5,0,0,0-.5.5v.473a.5.5,0,0,0,.994,0v-.473A.5.5,0,0,0,33.7,44.17Zm0,2.837a.5.5,0,0,0-.5.5v.473a.5.5,0,1,0,.994,0V47.5A.5.5,0,0,0,33.7,47.007Z" transform="translate(-15.693 -21.211)" fill="#6003fe"/>
      <path id="polyline569" d="M34.018,38.657a.5.5,0,0,0-.376.064l-.21.132a.5.5,0,0,0-.233.42v.249a.49.49,0,0,0,.979.037l-.006,0,.008-.009q.007-.016.014-.032v.017a.492.492,0,0,0-.176-.882Z" transform="translate(-15.693 -18.432)" fill="#6003fe"/>
      <path id="line571" d="M41.69,32.032a.5.5,0,0,0-.376.063l-.437.275a.5.5,0,1,0,.528.842l.437-.274a.5.5,0,0,0-.152-.906Zm-2.624,1.646a.5.5,0,0,0-.375.063l-.437.275a.5.5,0,1,0,.528.842l.437-.274a.5.5,0,0,0-.153-.906Z" transform="translate(-18.118 -15.099)" fill="#6003fe"/>
      <path id="polyline573" d="M49.019,29.069l-.21.132a.667.667,0,1,0,.949,0l-.21-.132a.5.5,0,0,0-.53,0Z" transform="translate(-23.427 -13.577)" fill="#6003fe"/>
      <path id="line575" d="M54.208,32.032a.5.5,0,0,0-.153.9l.437.275a.5.5,0,1,0,.529-.842l-.437-.275a.5.5,0,0,0-.376-.063Zm2.623,1.646a.5.5,0,0,0-.153.906l.438.274a.5.5,0,0,0,.528-.842l-.437-.275A.5.5,0,0,0,56.83,33.678Z" transform="translate(-26.065 -15.099)" fill="#6003fe"/>
      <g id="Group_1172225" data-name="Group 1172225" transform="translate(2 2)">
        <path id="line581" d="M49.5,52.5a.5.5,0,0,0-.5.5V64.485a.5.5,0,0,0,.994,0V52.993A.5.5,0,0,0,49.5,52.5Z" transform="translate(-25.641 -27.399)" fill="#6003fe"/>
        <path id="circle583" d="M47.516,11.5a2.455,2.455,0,1,0,2.455,2.455A2.462,2.462,0,0,0,47.516,11.5Zm0,.994a1.461,1.461,0,1,1-1.461,1.461A1.453,1.453,0,0,1,47.516,12.494Z" transform="translate(-23.659 -6.778)" fill="#6003fe"/>
        <path id="circle585" d="M20.869,28.227a2.455,2.455,0,1,0,2.456,2.455A2.462,2.462,0,0,0,20.869,28.227Zm0,.994a1.461,1.461,0,1,1-1.461,1.461A1.454,1.454,0,0,1,20.869,29.221Z" transform="translate(-10.256 -15.191)" fill="#6003fe"/>
        <path id="circle587" d="M47.516,44.617a2.455,2.455,0,1,0,2.455,2.455A2.462,2.462,0,0,0,47.516,44.617Zm0,.994a1.461,1.461,0,1,1-1.461,1.461A1.453,1.453,0,0,1,47.516,45.611Z" transform="translate(-23.659 -23.436)" fill="#6003fe"/>
        <path id="circle589" d="M73.7,28.227a2.455,2.455,0,1,0,2.455,2.455A2.462,2.462,0,0,0,73.7,28.227Zm0,.994a1.461,1.461,0,1,1-1.461,1.461A1.453,1.453,0,0,1,73.7,29.221Z" transform="translate(-36.827 -15.191)" fill="#6003fe"/>
        <path id="circle591" d="M20.869,59.229a2.455,2.455,0,1,0,2.456,2.455A2.462,2.462,0,0,0,20.869,59.229Zm0,.994a1.461,1.461,0,1,1-1.461,1.461A1.454,1.454,0,0,1,20.869,60.223Z" transform="translate(-10.256 -30.785)" fill="#6003fe"/>
        <path id="circle593" d="M47.516,75.619a2.455,2.455,0,1,0,2.455,2.456A2.463,2.463,0,0,0,47.516,75.619Zm0,.994a1.461,1.461,0,1,1-1.461,1.462A1.454,1.454,0,0,1,47.516,76.613Z" transform="translate(-23.659 -39.029)" fill="#6003fe"/>
        <path id="circle595" d="M74.161,58.951a2.455,2.455,0,1,0,2.455,2.456,2.464,2.464,0,0,0-2.455-2.456Zm0,.994A1.461,1.461,0,1,1,72.7,61.407a1.454,1.454,0,0,1,1.462-1.462Z" transform="translate(-37.06 -30.645)" fill="#6003fe"/>
        <path id="line599" d="M81.309,15.911l-1.058,1.058a.5.5,0,1,0,.7.7l1.058-1.058a.5.5,0,0,0-.7-.7Z" transform="translate(-41.286 -8.924)" fill="#6003fe"/>
        <path id="line601" d="M17.321,80.105a.5.5,0,0,0-.351.146l-1.058,1.058a.5.5,0,0,0,.7.7l1.058-1.058a.5.5,0,0,0-.351-.848Z" transform="translate(-8.924 -41.286)" fill="#6003fe"/>
        <path id="line603" d="M93.487,49a.5.5,0,0,0,0,.994h1.5a.5.5,0,0,0,0-.994Z" transform="translate(-47.766 -25.64)" fill="#6003fe"/>
        <path id="line605" d="M2.5,49a.5.5,0,0,0,0,.994h1.5a.5.5,0,0,0,0-.994Z" transform="translate(-2 -25.64)" fill="#6003fe"/>
        <path id="line607" d="M49.5,2a.5.5,0,0,0-.5.5v1.5a.5.5,0,0,0,.994,0V2.5A.5.5,0,0,0,49.5,2Z" transform="translate(-25.64 -2)" fill="#6003fe"/>
        <path id="line609" d="M49.5,92.99a.5.5,0,0,0-.5.5v1.5a.5.5,0,0,0,.994,0v-1.5A.5.5,0,0,0,49.5,92.99Z" transform="translate(-25.64 -47.766)" fill="#6003fe"/>
        <path id="line611" d="M80.251,80.251a.5.5,0,0,0,0,.7l1.058,1.058a.5.5,0,0,0,.7-.7l-1.058-1.058a.5.5,0,0,0-.7,0Z" transform="translate(-41.286 -41.286)" fill="#6003fe"/>
        <path id="line613" d="M16.263,15.766a.5.5,0,0,0-.351.848l1.058,1.058a.5.5,0,0,0,.7-.7l-1.058-1.058a.5.5,0,0,0-.351-.146Z" transform="translate(-8.924 -8.924)" fill="#6003fe"/>
      </g>
    </g>
  </g>
</svg>
