<svg xmlns="http://www.w3.org/2000/svg" width="120" height="120" viewBox="0 0 120 120">
  <g id="Group_1169294" data-name="Group 1169294" transform="translate(-64 -6445)">
    <rect id="Rectangle_402033" data-name="Rectangle 402033" width="120" height="120" rx="8" transform="translate(64 6445)" fill="#6003fe"/>
    <g id="Rectangle_412110" data-name="Rectangle 412110" transform="translate(69 6450)" fill="none" stroke="#fff" stroke-width="1">
      <rect width="110" height="110" rx="6" stroke="none"/>
      <rect x="0.5" y="0.5" width="109" height="109" rx="5.5" fill="none"/>
    </g>
    <g id="Group_1155336" data-name="Group 1155336" transform="translate(-325 -2)">
      <circle id="Ellipse_13473" data-name="Ellipse 13473" cx="60" cy="60" r="60" transform="translate(389 6447)" fill="#6003fe"/>
      <g id="Ellipse_13474" data-name="Ellipse 13474" transform="translate(399 6457)" fill="none" stroke="#fff" stroke-width="1">
        <circle cx="50" cy="50" r="50" stroke="none"/>
        <circle cx="50" cy="50" r="49.5" fill="none"/>
      </g>
      <g id="Monitoring" transform="translate(413.316 6471.321)">
        <rect id="Rectangle_448883" data-name="Rectangle 448883" width="60.631" height="42.666" rx="4" transform="translate(5.368 16.597)" fill="#57a4ff"/>
        <path id="Path_947200" data-name="Path 947200" d="M9,19H60.648V52.684H9Z" transform="translate(0.86 2.089)" fill="#ffdaaa"/>
        <path id="Path_947201" data-name="Path 947201" d="M26,52.684H58.561V19C58.561,37.618,44,52.684,26,52.684Z" transform="translate(2.947 2.089)" fill="#ffc477"/>
        <path id="Path_947202" data-name="Path 947202" d="M3,53H68.122v4.491a4.491,4.491,0,0,1-4.491,4.491H7.491A4.491,4.491,0,0,1,3,57.491Z" transform="translate(0.123 6.263)" fill="#006df0"/>
        <path id="Path_947203" data-name="Path 947203" d="M55.246,15H53a4.491,4.491,0,0,1,4.491,4.491V53.175A4.491,4.491,0,0,1,53,57.666h2.246a4.491,4.491,0,0,0,4.491-4.491V19.491A4.491,4.491,0,0,0,55.246,15Z" transform="translate(6.262 1.597)" fill="#2488ff"/>
        <path id="Path_947204" data-name="Path 947204" d="M59.491,53v4.491A4.491,4.491,0,0,1,55,61.982h2.246a4.491,4.491,0,0,0,4.491-4.491V53Z" transform="translate(6.508 6.263)" fill="#005ece"/>
        <path id="Path_947205" data-name="Path 947205" d="M29.246,57.491h6.737a2.246,2.246,0,0,0,2.246-2.246V53H27v2.246A2.246,2.246,0,0,0,29.246,57.491Z" transform="translate(3.07 6.263)" fill="#ffcd00"/>
        <path id="Path_947206" data-name="Path 947206" d="M42.947,36.527a17.965,17.965,0,1,1,6.58-24.544A17.965,17.965,0,0,1,42.947,36.527Z" transform="translate(1.719 0.124)" fill="#ff9811"/>
        <path id="Path_947207" data-name="Path 947207" d="M40.211,32.14a13.473,13.473,0,1,1,4.929-18.4,13.473,13.473,0,0,1-4.929,18.4Z" transform="translate(2.21 0.615)" fill="#ffcd00"/>
        <path id="Path_947208" data-name="Path 947208" d="M45.87,38.042l-3.889,2.246L40.036,41.41,47.8,54.856a4.491,4.491,0,0,0,7.779-4.491L47.815,36.919Z" transform="translate(4.67 4.289)" fill="#004fac"/>
        <path id="Path_947209" data-name="Path 947209" d="M36,14h3.368V25.228H36Z" transform="translate(4.175 1.475)" fill="#5eac24"/>
        <path id="Path_947210" data-name="Path 947210" d="M30,17h3.368v7.86H30Z" transform="translate(3.438 1.843)" fill="#006df0"/>
        <path id="Path_947211" data-name="Path 947211" d="M24,20h3.368v4.491H24Z" transform="translate(2.701 2.211)" fill="#ed1c24"/>
        <path id="Path_947212" data-name="Path 947212" d="M41.981,31.819a16.67,16.67,0,0,1-3.658,2.112L38.211,34l4,6.924L46.1,38.676l-4-6.924Z" transform="translate(4.446 3.654)" fill="#ff5023"/>
        <path id="Path_947213" data-name="Path 947213" d="M20.955,27.895A14.6,14.6,0,1,0,26.3,7.956a14.6,14.6,0,0,0-5.343,19.938ZM27.421,9.9a12.272,12.272,0,1,1-5.786,7.491A12.351,12.351,0,0,1,27.421,9.9Z" transform="translate(2.087 0.492)"/>
        <path id="Path_947214" data-name="Path 947214" d="M68.245,58.141H65.97a5.556,5.556,0,0,0,1.152-3.368V21.089a5.621,5.621,0,0,0-5.614-5.614h-7.6a19.051,19.051,0,0,0-36.44,0H9.86a5.621,5.621,0,0,0-5.614,5.614V54.772A5.556,5.556,0,0,0,5.4,58.141H3.123A1.123,1.123,0,0,0,2,59.263v4.491a5.621,5.621,0,0,0,5.614,5.614H63.753a5.621,5.621,0,0,0,5.614-5.614V59.263A1.123,1.123,0,0,0,68.245,58.141ZM61.508,17.72a3.368,3.368,0,0,1,3.368,3.368V54.772a3.362,3.362,0,0,1-3.056,3.337,5.6,5.6,0,0,0,.025-2.282,1.11,1.11,0,0,0,.786-1.055V21.089a1.123,1.123,0,0,0-1.123-1.123H54.716a19.042,19.042,0,0,0-.266-2.246ZM16.651,22.211A19.011,19.011,0,0,0,30.743,39.526a19.21,19.21,0,0,0,4.971.658,18.863,18.863,0,0,0,6.445-1.143l2.956,5.124-.971.561a1.123,1.123,0,0,0-.411,1.534L48,53.65H10.982V22.211Zm29.52,14.8,2.835,4.91-1.945,1.123-2.825-4.893c.337-.167.665-.337.99-.529s.631-.405.944-.611Zm.068,9.1,2.919-1.684L51.1,43.3l.97-.561,7.2,12.463v.006a3.37,3.37,0,1,1-5.839,3.368Zm7.217-5.465a1.123,1.123,0,0,0-1.534-.411l-.972.561-2.965-5.135a19.115,19.115,0,0,0,6.737-13.45h5.662V52.646ZM27.263,6.5a16.74,16.74,0,0,1,8.394-2.265A16.854,16.854,0,1,1,27.263,6.5ZM6.491,21.089A3.368,3.368,0,0,1,9.86,17.72h7.054a19.3,19.3,0,0,0-.271,2.246H9.86a1.123,1.123,0,0,0-1.123,1.123V54.772A1.123,1.123,0,0,0,9.86,55.9H49.3l1.3,2.246H9.86a3.368,3.368,0,0,1-3.368-3.368Zm33.684,39.3v1.123a1.123,1.123,0,0,1-1.123,1.123H32.315a1.123,1.123,0,0,1-1.123-1.123V60.386Zm26.947,3.368a3.368,3.368,0,0,1-3.368,3.368H7.614a3.368,3.368,0,0,1-3.368-3.368V60.386h24.7v1.123a3.368,3.368,0,0,0,3.368,3.368h6.737a3.368,3.368,0,0,0,3.368-3.368V60.386h9.544a5.581,5.581,0,0,0,8.781,0h6.376Z" transform="translate(0 0)"/>
        <path id="Path_947215" data-name="Path 947215" d="M36.123,26.473h3.368a1.123,1.123,0,0,0,1.123-1.123V14.123A1.123,1.123,0,0,0,39.491,13H36.123A1.123,1.123,0,0,0,35,14.123V25.351A1.123,1.123,0,0,0,36.123,26.473Zm1.123-11.228h1.123v8.982H37.246Z" transform="translate(4.052 1.352)"/>
        <path id="Path_947216" data-name="Path 947216" d="M30.123,26.105h3.368a1.123,1.123,0,0,0,1.123-1.123v-7.86A1.123,1.123,0,0,0,33.491,16H30.123A1.123,1.123,0,0,0,29,17.123v7.86A1.123,1.123,0,0,0,30.123,26.105Zm1.123-7.86h1.123V23.86H31.246Z" transform="translate(3.315 1.72)"/>
        <path id="Path_947217" data-name="Path 947217" d="M24.123,25.737h3.368a1.123,1.123,0,0,0,1.123-1.123V20.123A1.123,1.123,0,0,0,27.491,19H24.123A1.123,1.123,0,0,0,23,20.123v4.491A1.123,1.123,0,0,0,24.123,25.737Zm1.123-4.491h1.123v2.246H25.246Z" transform="translate(2.579 2.089)"/>
        <path id="Path_947218" data-name="Path 947218" d="M15.123,42.246h2.246a1.123,1.123,0,0,0,0-2.246H15.123a1.123,1.123,0,0,0,0,2.246Z" transform="translate(1.473 4.667)"/>
        <path id="Path_947219" data-name="Path 947219" d="M21.123,42.246H37.965a1.123,1.123,0,1,0,0-2.246H21.123a1.123,1.123,0,1,0,0,2.246Z" transform="translate(2.21 4.667)"/>
        <path id="Path_947220" data-name="Path 947220" d="M15.123,38.246h2.246a1.123,1.123,0,0,0,0-2.246H15.123a1.123,1.123,0,0,0,0,2.246Z" transform="translate(1.473 4.176)"/>
        <path id="Path_947221" data-name="Path 947221" d="M21.123,38.246h4.491a1.123,1.123,0,0,0,0-2.246H21.123a1.123,1.123,0,1,0,0,2.246Z" transform="translate(2.21 4.176)"/>
        <path id="Path_947222" data-name="Path 947222" d="M15.123,46.246h2.246a1.123,1.123,0,0,0,0-2.246H15.123a1.123,1.123,0,0,0,0,2.246Z" transform="translate(1.473 5.158)"/>
        <path id="Path_947223" data-name="Path 947223" d="M21.123,46.246H37.965a1.123,1.123,0,1,0,0-2.246H21.123a1.123,1.123,0,1,0,0,2.246Z" transform="translate(2.21 5.158)"/>
      </g>
    </g>
  </g>
</svg>
