<svg xmlns="http://www.w3.org/2000/svg" width="50" height="50" viewBox="0 0 50 50">
  <g id="Group_1172219" data-name="Group 1172219" transform="translate(-522.711 -2857)">
    <rect id="Rectangle_448803" data-name="Rectangle 448803" width="50" height="50" transform="translate(522.711 2857)" fill="none"/>
    <g id="Layer_35" transform="translate(517.611 2851.9)">
      <g id="Group_1172212" data-name="Group 1172212" transform="translate(5.1 5.1)">
        <g id="Group_1172211" data-name="Group 1172211">
          <path id="Path_943557" data-name="Path 943557" d="M55.1,16.891a11.847,11.847,0,0,0-23.693,0,6.731,6.731,0,0,0,.056,1.057A13.7,13.7,0,0,0,18.615,35.356a10.592,10.592,0,0,0-3.5-.667A10.011,10.011,0,1,0,25.122,44.7a7.091,7.091,0,0,0-.056-1.112,14.159,14.159,0,0,0,6.841,1.835,13.079,13.079,0,0,0,3.838-.556l1.669,5.506a.909.909,0,0,0,.779.612h.056a.942.942,0,0,0,.779-.5l2-4.672,3.059,3.059a.806.806,0,0,0,1.168,0l3.893-3.838a.836.836,0,0,0,.222-.612,1.166,1.166,0,0,0-.222-.612L46.09,40.751l4.672-2a.814.814,0,0,0,.5-.834.892.892,0,0,0-.612-.779l-5.562-1.669a13.408,13.408,0,0,0,.167-6.952A11.742,11.742,0,0,0,55.1,16.891ZM38.137,27.569a7.352,7.352,0,0,1,.945,6.174l-2.725-.834A4.53,4.53,0,0,0,35.133,28.4a4.733,4.733,0,0,0-6.674,0,4.7,4.7,0,0,0,0,6.674,4.765,4.765,0,0,0,3.337,1.39A4.96,4.96,0,0,0,33.02,36.3l.834,2.725a7.6,7.6,0,0,1-7.4-1.947,7.519,7.519,0,0,1,0-10.679,7.647,7.647,0,0,1,7.731-1.835,13.058,13.058,0,0,0,3.949,3Zm-5.061,4.283a.8.8,0,0,0-.834.222.931.931,0,0,0-.222.834l.5,1.724a3.111,3.111,0,0,1-2.836-.779,3.07,3.07,0,0,1-.89-2.169,2.941,2.941,0,0,1,.89-2.113,3.055,3.055,0,0,1,4.283,0,2.877,2.877,0,0,1,.779,2.836Zm-18.02,21.19A8.343,8.343,0,1,1,23.4,44.7,8.331,8.331,0,0,1,15.056,53.042Zm9.4-11.846a10.256,10.256,0,0,0-3.671-4.727,12.133,12.133,0,0,1,2.5-13.348,12,12,0,0,1,8.454-3.5,10.743,10.743,0,0,0,1.112,2.892,9.566,9.566,0,0,0-7.564,2.614,9.224,9.224,0,0,0-2.725,6.507,9,9,0,0,0,2.725,6.507A9.185,9.185,0,0,0,31.8,40.862a9.677,9.677,0,0,0,2.5-.334l.834,2.725A11.914,11.914,0,0,1,24.455,41.2ZM44.2,39.75a.8.8,0,0,0-.5.612.822.822,0,0,0,.222.723l3.337,3.337-2.67,2.67-3.337-3.337a.763.763,0,0,0-.723-.222.8.8,0,0,0-.612.5L38.3,47.7l-1.279-4.171L34.077,33.91l1,.278L43.7,36.8l4.171,1.279Zm-.779-4.727L40.7,34.188a9.12,9.12,0,0,0-.278-5.84,11.535,11.535,0,0,0,2.781.334h.278A11.178,11.178,0,0,1,43.42,35.022Zm-.167-7.953A10.123,10.123,0,1,1,53.431,16.891,10.171,10.171,0,0,1,43.254,27.069Z" transform="translate(-5.1 -5.1)" fill="#6003fe"/>
          <path id="Path_943558" data-name="Path 943558" d="M71.348,19.652H70.9a1.353,1.353,0,0,1-1.335-1.335,1.578,1.578,0,0,1,.389-.945,1.3,1.3,0,0,1,.945-.389h2.558a.855.855,0,0,0,.834-.834.868.868,0,0,0-.89-.834h-1.39V14.034a.834.834,0,1,0-1.669,0v1.335a2.86,2.86,0,0,0-1.557.834,3.039,3.039,0,0,0-.89,2.113,2.991,2.991,0,0,0,3,3h.445a1.335,1.335,0,0,1,0,2.67H68.734a.834.834,0,0,0,0,1.669h1.613v1.335a.834.834,0,0,0,1.669,0V25.658a2.993,2.993,0,0,0,2.336-2.948A3.039,3.039,0,0,0,71.348,19.652Z" transform="translate(-32.972 -8.695)" fill="#6003fe"/>
          <path id="Path_943559" data-name="Path 943559" d="M32.806,16.911A5.006,5.006,0,1,0,27.8,11.906,4.985,4.985,0,0,0,32.806,16.911Zm0-8.343a3.337,3.337,0,1,1-3.337,3.337A3.311,3.311,0,0,1,32.806,8.569Z" transform="translate(-15.175 -5.899)" fill="#6003fe"/>
          <path id="Path_943560" data-name="Path 943560" d="M12.926,40.753A3.726,3.726,0,1,0,9.2,37.026a3.727,3.727,0,0,0,3.726,3.726Zm0-5.784a2.058,2.058,0,1,1,0,4.116,2.006,2.006,0,0,1-2-2.058,2.042,2.042,0,0,1,2-2.058Z" transform="translate(-6.92 -17.616)" fill="#6003fe"/>
          <path id="Path_943561" data-name="Path 943561" d="M20.959,70.451H20.57a1,1,0,0,1,0-2h2.113a.834.834,0,1,0,0-1.669H21.626v-.945a.834.834,0,0,0-1.669,0v1a2.647,2.647,0,0,0,.612,5.228h.389a1,1,0,0,1,0,2H18.79a.834.834,0,0,0,0,1.669h1.224v.945a.834.834,0,0,0,1.669,0v-1a2.686,2.686,0,0,0,1.947-2.558A2.745,2.745,0,0,0,20.959,70.451Z" transform="translate(-10.781 -31.685)" fill="#6003fe"/>
          <path id="Path_943562" data-name="Path 943562" d="M48.2,82.4a3.5,3.5,0,1,0,3.5,3.5A3.525,3.525,0,0,0,48.2,82.4Zm0,5.284a1.835,1.835,0,1,1,1.835-1.835A1.852,1.852,0,0,1,48.2,87.684Z" transform="translate(-22.676 -39.408)" fill="#6003fe"/>
        </g>
      </g>
    </g>
  </g>
</svg>
