<svg xmlns="http://www.w3.org/2000/svg" width="50" height="50" viewBox="0 0 50 50">
  <g id="Group_1172221" data-name="Group 1172221" transform="translate(-840.711 -2860)">
    <rect id="Rectangle_448804" data-name="Rectangle 448804" width="50" height="50" transform="translate(840.711 2860)" fill="none"/>
    <g id="Group_1172220" data-name="Group 1172220" transform="translate(836.711 2860)">
      <path id="Path_943563" data-name="Path 943563" d="M59.562,45.434a2.342,2.342,0,1,0,2.988,2.988h2.87a.781.781,0,0,0,0-1.563H62.55a2.351,2.351,0,0,0-1.425-1.426V41.782a.781.781,0,1,0-1.562,0Zm.781,1.426a.781.781,0,1,1-.781.781A.781.781,0,0,1,60.343,46.86Z" transform="translate(-31.687 -24.985)" fill="#6003fe"/>
      <path id="Path_943564" data-name="Path 943564" d="M55,37.246A11.719,11.719,0,0,1,39.808,48.438a3.68,3.68,0,0,1,.352,1.58c0,.044,0,.089-.006.133a13.293,13.293,0,1,0-8.774-7.03,3.606,3.606,0,0,1,1.45-.4l.1,0A11.715,11.715,0,1,1,55,37.246Z" transform="translate(-14.629 -14.59)" fill="#6003fe"/>
      <path id="Path_943565" data-name="Path 943565" d="M54.815,32.392A16.4,16.4,0,1,0,24.5,41.064a3.749,3.749,0,0,1,.775-1.783,14.852,14.852,0,1,1,9.761,7.562,3.811,3.811,0,0,1-.241.968,3.8,3.8,0,0,1-.069.564A16.389,16.389,0,0,0,54.815,32.392Z" transform="translate(-9.757 -9.735)" fill="#6003fe"/>
      <path id="Path_943566" data-name="Path 943566" d="M51.057,7.445a.781.781,0,0,0-.538-.631L29.04.036a.774.774,0,0,0-.384-.022.775.775,0,0,0-.384.022L6.793,6.813a.781.781,0,0,0-.538.631A44.941,44.941,0,0,0,7.417,23.412a42.694,42.694,0,0,0,3.165,8.619h1.711a41.451,41.451,0,0,1-3.345-8.94,45.309,45.309,0,0,1-1.2-14.94l20.911-6.6,20.911,6.6a45.309,45.309,0,0,1-1.2,14.94,38.566,38.566,0,0,1-19.709,25.32,42.6,42.6,0,0,1-7.869-5.479H19.444q-.052,0-.1,0-.1,0-.209,0h-.6a42.972,42.972,0,0,0,9.6,6.974.78.78,0,0,0,.37.093h.3a.78.78,0,0,0,.37-.093A40.628,40.628,0,0,0,49.895,23.412,44.941,44.941,0,0,0,51.057,7.445Z" transform="translate(0 0)" fill="#6003fe"/>
      <path id="Path_943567" data-name="Path 943567" d="M14.012,80.688a.781.781,0,0,0,.781.781h4.3v4.687H17.137a.781.781,0,1,0,0,1.562H19.87a.779.779,0,0,0,.66-.367H20.6l.337-.005a2.37,2.37,0,0,0,.56.264,1.562,1.562,0,0,0,.465.071h2.285l.085,0h1.556a2.162,2.162,0,0,0,2.129-2.189c0-.017,0-.033,0-.05a2.223,2.223,0,0,0,.351-1.2q0-.092-.007-.183a2.238,2.238,0,0,0,.258-1.311,2.214,2.214,0,0,0,.24-1,2.065,2.065,0,0,0-2.13-2.093h-.972a2.633,2.633,0,0,0,.015-.5c-.063-.675-.212-2.252-1.481-2.9A2.144,2.144,0,0,0,23.29,76q-.057,0-.114,0a2.125,2.125,0,0,0-1.328.582,2.53,2.53,0,0,0-.713,2.1c0,.053.005.107.005.159v.19c-.112.266-.381.773-.583,1.146h-.1a.776.776,0,0,0-.59-.274H14.793a.781.781,0,0,0-.781.781Zm6.639,1.055.626,0h0a.364.364,0,0,0,.31-.188A12.894,12.894,0,0,0,22.7,79.24v-.4c0-.391-.092-.833.207-1.112a.582.582,0,0,1,.354-.169h.026a.614.614,0,0,1,.281.075c.483.248.591,1.144.639,1.658a9.765,9.765,0,0,1-.313,1.656c-.068.254.265.256.265.256l2.561,0a.517.517,0,0,1,.567.53.606.606,0,0,1-.54.626c-.034,0-.055.029-.01.054a.646.646,0,0,1,.324.566.6.6,0,0,1-.568.627s-.082.026-.014.063a.633.633,0,0,1,.318.563.6.6,0,0,1-.566.628h-.055c-.022,0-.046.007-.05.035a.04.04,0,0,0,.017.037.652.652,0,0,1,.3.554.6.6,0,0,1-.567.627H21.958c-.2-.062-.346-.225-.535-.3A1.579,1.579,0,0,0,21,85.783c-.106,0-.225,0-.348,0Z" transform="translate(-4.883 -46.313)" fill="#6003fe"/>
      <circle id="Ellipse_13613" data-name="Ellipse 13613" cx="0.781" cy="0.781" r="0.781" transform="translate(27.875 12.5)" fill="#6003fe"/>
      <circle id="Ellipse_13614" data-name="Ellipse 13614" cx="0.781" cy="0.781" r="0.781" transform="translate(27.875 31.25)" fill="#6003fe"/>
      <path id="Path_943568" data-name="Path 943568" d="M79.747,72.971a.781.781,0,1,0,.552.229A.781.781,0,0,0,79.747,72.971Z" transform="translate(-44.464 -44.467)" fill="#6003fe"/>
      <path id="Path_943569" data-name="Path 943569" d="M46.367,39.259a.778.778,0,1,0,.23.552A.781.781,0,0,0,46.367,39.259Z" transform="translate(-23.786 -23.784)" fill="#6003fe"/>
      <circle id="Ellipse_13615" data-name="Ellipse 13615" cx="0.781" cy="0.781" r="0.781" transform="translate(37.248 21.875)" fill="#6003fe"/>
      <circle id="Ellipse_13616" data-name="Ellipse 13616" cx="0.781" cy="0.781" r="0.781" transform="translate(18.502 21.875)" fill="#6003fe"/>
      <path id="Path_943570" data-name="Path 943570" d="M80.3,39.259a.778.778,0,1,0,.23.552.781.781,0,0,0-.23-.552Z" transform="translate(-44.464 -23.784)" fill="#6003fe"/>
      <path id="Path_943571" data-name="Path 943571" d="M45.815,72.971a.781.781,0,1,0,.552.229A.781.781,0,0,0,45.815,72.971Z" transform="translate(-23.786 -44.467)" fill="#6003fe"/>
    </g>
  </g>
</svg>
