<svg xmlns="http://www.w3.org/2000/svg" width="50" height="50" viewBox="0 0 50 50">
  <g id="Group_1172224" data-name="Group 1172224" transform="translate(-266.711 -3119)">
    <rect id="Rectangle_448806" data-name="Rectangle 448806" width="50" height="50" transform="translate(266.711 3119)" fill="none"/>
    <g id="Group_1172223" data-name="Group 1172223" transform="translate(267.711 3053.5)">
      <path id="Path_943601" data-name="Path 943601" d="M47.736,102.832H46.695V77.048a.71.71,0,0,0-.71-.71H41.491V74.21a.71.71,0,0,0-.71-.71H7.664a.71.71,0,0,0-.71.71v2.129H2.46a.71.71,0,0,0-.71.71v25.784H.71a.71.71,0,0,0-.71.71v3.785a.71.71,0,0,0,.71.71H47.736a.71.71,0,0,0,.71-.71v-3.785a.71.71,0,0,0-.71-.71ZM8.374,79.65h31.7V98.1H8.374Zm31.7-4.731v3.312H8.374V74.919ZM3.17,77.758H6.955V98.811a.71.71,0,0,0,.71.71H40.781a.71.71,0,0,0,.71-.71V77.758h3.785v25.074H3.17Zm43.856,28.859H1.419v-2.366H47.026Z" transform="translate(0)" fill="#6003fe"/>
      <path id="Path_943602" data-name="Path 943602" d="M201.274,161.408a.71.71,0,0,0-.452-.662l-5.677-2.207a.711.711,0,0,0-.515,0l-5.677,2.207a.71.71,0,0,0-.452.662v2.744a9.612,9.612,0,0,0,6.128,8.957.711.711,0,0,0,.516,0,9.612,9.612,0,0,0,6.13-8.96Zm-1.419,2.744a8.137,8.137,0,0,1-4.968,7.529,8.137,8.137,0,0,1-4.968-7.533v-2.255l4.968-1.931,4.968,1.931Z" transform="translate(-170.664 -76.948)" fill="#6003fe"/>
      <path id="Path_943603" data-name="Path 943603" d="M349.21,99.919h.473a.71.71,0,1,0,0-1.419h-.473a.71.71,0,0,0,0,1.419Z" transform="translate(-315.525 -22.635)" fill="#6003fe"/>
      <path id="Path_943604" data-name="Path 943604" d="M389.21,99.919h.473a.71.71,0,0,0,0-1.419h-.473a.71.71,0,0,0,0,1.419Z" transform="translate(-351.74 -22.635)" fill="#6003fe"/>
      <path id="Path_943605" data-name="Path 943605" d="M232.213,217.586a.71.71,0,0,0-1.011,1l.976.988a.71.71,0,0,0,1.01,0l2.336-2.365a.71.71,0,1,0-1.011-1l-1.831,1.855Z" transform="translate(-209.141 -129.014)" fill="#6003fe"/>
      <path id="Path_943606" data-name="Path 943606" d="M326.1,303.5H324.21a.71.71,0,0,0,0,1.419H326.1a.71.71,0,1,0,0-1.419Z" transform="translate(-292.891 -208.237)" fill="#6003fe"/>
      <path id="Path_943607" data-name="Path 943607" d="M376.1,303.5H374.21a.71.71,0,1,0,0,1.419H376.1a.71.71,0,1,0,0-1.419Z" transform="translate(-338.16 -208.237)" fill="#6003fe"/>
      <path id="Path_943608" data-name="Path 943608" d="M106.1,303.5H104.21a.71.71,0,0,0,0,1.419H106.1a.71.71,0,0,0,0-1.419Z" transform="translate(-93.707 -208.237)" fill="#6003fe"/>
      <path id="Path_943609" data-name="Path 943609" d="M156.1,303.5H154.21a.71.71,0,0,0,0,1.419H156.1a.71.71,0,0,0,0-1.419Z" transform="translate(-138.976 -208.237)" fill="#6003fe"/>
    </g>
  </g>
</svg>
