<svg xmlns="http://www.w3.org/2000/svg" width="50" height="50" viewBox="0 0 50 50">
  <g id="Group_1172526" data-name="Group 1172526" transform="translate(0)">
    <g id="Group_1172525" data-name="Group 1172525" transform="translate(0 0)">
      <path id="Path_947251" data-name="Path 947251" d="M162.358,40.861h.586a.732.732,0,1,0,0-1.465h-.586a.732.732,0,1,0,0,1.465Z" transform="translate(-145.842 -35.549)" fill="#6003fe"/>
      <path id="Path_947252" data-name="Path 947252" d="M236.5,40.861h.974a.732.732,0,1,0,0-1.465H236.5a.732.732,0,1,0,0,1.465Z" transform="translate(-212.744 -35.549)" fill="#6003fe"/>
      <path id="Path_947253" data-name="Path 947253" d="M197.443,40.861h.974a.732.732,0,0,0,0-1.465h-.974a.732.732,0,1,0,0,1.465Z" transform="translate(-177.501 -35.549)" fill="#6003fe"/>
      <path id="Path_947254" data-name="Path 947254" d="M275.557,40.861h.586a.732.732,0,1,0,0-1.465h-.586a.732.732,0,1,0,0,1.465Z" transform="translate(-247.987 -35.549)" fill="#6003fe"/>
      <path id="Path_947255" data-name="Path 947255" d="M275.557,73.187h.586a.732.732,0,0,0,0-1.465h-.586a.732.732,0,0,0,0,1.465Z" transform="translate(-247.987 -64.718)" fill="#6003fe"/>
      <path id="Path_947256" data-name="Path 947256" d="M236.5,73.187h.974a.732.732,0,0,0,0-1.465H236.5a.732.732,0,0,0,0,1.465Z" transform="translate(-212.744 -64.718)" fill="#6003fe"/>
      <path id="Path_947257" data-name="Path 947257" d="M197.443,73.187h.974a.732.732,0,0,0,0-1.465h-.974a.732.732,0,0,0,0,1.465Z" transform="translate(-177.501 -64.718)" fill="#6003fe"/>
      <path id="Path_947258" data-name="Path 947258" d="M162.358,73.187h.586a.732.732,0,0,0,0-1.465h-.586a.732.732,0,0,0,0,1.465Z" transform="translate(-145.842 -64.718)" fill="#6003fe"/>
      <path id="Path_947259" data-name="Path 947259" d="M32.325,41.708A2.311,2.311,0,1,0,34.636,39.4,2.313,2.313,0,0,0,32.325,41.708Zm2.311-.846a.846.846,0,1,1-.846.846A.847.847,0,0,1,34.636,40.862Z" transform="translate(-29.168 -35.55)" fill="#6003fe"/>
      <path id="Path_947260" data-name="Path 947260" d="M101.6,41.708a2.311,2.311,0,1,0-2.311,2.311A2.313,2.313,0,0,0,101.6,41.708Zm-3.157,0a.846.846,0,1,1,.846.846A.847.847,0,0,1,98.441,41.708Z" transform="translate(-87.506 -35.55)" fill="#6003fe"/>
      <path id="Path_947261" data-name="Path 947261" d="M34.636,187.462a2.311,2.311,0,1,0-2.311-2.311A2.313,2.313,0,0,0,34.636,187.462Zm0-3.157a.846.846,0,1,1-.846.846A.847.847,0,0,1,34.636,184.3Z" transform="translate(-29.168 -164.985)" fill="#6003fe"/>
      <path id="Path_947262" data-name="Path 947262" d="M99.286,187.462a2.311,2.311,0,1,0-2.311-2.311,2.313,2.313,0,0,0,2.311,2.311Zm0-3.157a.846.846,0,1,1-.846.846.847.847,0,0,1,.846-.846Z" transform="translate(-87.505 -164.985)" fill="#6003fe"/>
      <path id="Path_947263" data-name="Path 947263" d="M34.636,326.282a2.311,2.311,0,1,0,2.311,2.311A2.313,2.313,0,0,0,34.636,326.282Zm0,3.157a.846.846,0,1,1,.846-.846A.847.847,0,0,1,34.636,329.439Z" transform="translate(-29.168 -294.419)" fill="#6003fe"/>
      <path id="Path_947264" data-name="Path 947264" d="M99.286,326.282a2.311,2.311,0,1,0,2.311,2.311A2.313,2.313,0,0,0,99.286,326.282Zm0,3.157a.846.846,0,1,1,.846-.846A.847.847,0,0,1,99.286,329.439Z" transform="translate(-87.505 -294.419)" fill="#6003fe"/>
      <path id="Path_947265" data-name="Path 947265" d="M48.281,19.927h-.254V18.489a1.721,1.721,0,0,0-1.719-1.719h-1.69a.732.732,0,1,0,0,1.465h1.69a.254.254,0,0,1,.254.254v1.438H32.444l-.529-1.692H41.2a.732.732,0,0,0,0-1.465H32.046v-.452a2.314,2.314,0,0,0-2.072-2.3V12.3a2.314,2.314,0,0,0,2.072-2.3v-7.7A2.313,2.313,0,0,0,29.735,0H8.024a.732.732,0,0,0,0,1.465H29.735a.847.847,0,0,1,.846.846v7.7a.847.847,0,0,1-.846.846H2.311a.847.847,0,0,1-.846-.846v-7.7a.847.847,0,0,1,.846-.846h2.3A.732.732,0,0,0,4.607,0h-2.3A2.313,2.313,0,0,0,0,2.311v7.7a2.314,2.314,0,0,0,2.072,2.3V14.02A2.314,2.314,0,0,0,0,16.319v7.695a2.314,2.314,0,0,0,2.072,2.3v1.717A2.314,2.314,0,0,0,0,30.327v7.695a2.313,2.313,0,0,0,2.311,2.311H15.59q0,.127,0,.254a9.4,9.4,0,0,0,.144,1.646.732.732,0,1,0,1.442-.257,7.948,7.948,0,1,1,1.134,2.9.732.732,0,0,0-1.233.791,9.414,9.414,0,0,0,17.339-5.079q0-.128,0-.254H48.281A1.721,1.721,0,0,0,50,38.613V21.646a1.721,1.721,0,0,0-1.719-1.719ZM3.536,14.008V12.316H28.509v1.692ZM1.465,24.013V16.319a.847.847,0,0,1,.846-.846H29.735a.847.847,0,0,1,.846.846v.452H23.752a1.709,1.709,0,0,0-1.64,1.206l-.61,1.95h-.448a1.721,1.721,0,0,0-1.719,1.719v3.213H2.311a.847.847,0,0,1-.846-.846Zm17.87,2.311v1.692H3.536V26.324Zm-3.59,12.543H2.311a.847.847,0,0,1-.846-.846V30.327a.847.847,0,0,1,.846-.846H19.335v3.592A9.427,9.427,0,0,0,15.745,38.867Zm32.79-.254a.254.254,0,0,1-.254.254H34.255a9.41,9.41,0,0,0-13.455-6.7V21.646a.254.254,0,0,1,.254-.254h.987a.732.732,0,0,0,.7-.514l.771-2.465a.252.252,0,0,1,.242-.178H30.2a.252.252,0,0,1,.238.178l.77,2.464a.732.732,0,0,0,.7.514H48.281a.254.254,0,0,1,.254.254V38.613Z" transform="translate(0 0)" fill="#6003fe"/>
      <path id="Path_947266" data-name="Path 947266" d="M249.232,417.333a.732.732,0,0,0,0,1.465,4.989,4.989,0,0,0,4.6-3.082.732.732,0,0,0,1.21-.823l-.949-1.473a.733.733,0,0,0-1.012-.219l-1.473.949a.732.732,0,0,0,.759,1.251A3.52,3.52,0,0,1,249.232,417.333Z" transform="translate(-224.232 -372.744)" fill="#6003fe"/>
      <path id="Path_947267" data-name="Path 947267" d="M201.2,359.618a4.988,4.988,0,0,0-4.6,3.081.732.732,0,0,0-1.21.823l.949,1.474a.733.733,0,0,0,1.012.219l1.473-.949a.732.732,0,0,0-.759-1.251,3.52,3.52,0,0,1,3.138-1.932.732.732,0,1,0,0-1.465Z" transform="translate(-176.202 -324.499)" fill="#6003fe"/>
    </g>
  </g>
</svg>
