<svg xmlns="http://www.w3.org/2000/svg" width="50" height="50" viewBox="0 0 50 50">
  <g id="Group_1172523" data-name="Group 1172523" transform="translate(0)">
    <path id="Path_947225" data-name="Path 947225" d="M17.667,46.167a2.5,2.5,0,0,1,1.667-2.357V57H21V36.167a2.5,2.5,0,0,1,2.5-2.5H46V32H23.5a4.171,4.171,0,0,0-4.167,4.167v5.917A4.173,4.173,0,0,0,16,46.167v10h1.667Z" transform="translate(-14.333 -28.667)" fill="#6003fe"/>
    <path id="Path_947226" data-name="Path 947226" d="M49.167,265.5h-.833V248H46.667v17.5H32.012a3.654,3.654,0,0,0-2.6,1.077,2,2,0,0,1-1.423.589H22.012a2,2,0,0,1-1.423-.589,3.654,3.654,0,0,0-2.6-1.077H3.333v-3.333H1.667V265.5H.833a.833.833,0,0,0-.833.833v2.5a3.337,3.337,0,0,0,3.333,3.333H46.667A3.337,3.337,0,0,0,50,268.833v-2.5A.833.833,0,0,0,49.167,265.5Zm-.833,3.333a1.669,1.669,0,0,1-1.667,1.667H3.333a1.669,1.669,0,0,1-1.667-1.667v-1.667H17.988a2,2,0,0,1,1.423.589,3.654,3.654,0,0,0,2.6,1.077h5.983a3.654,3.654,0,0,0,2.6-1.077,2,2,0,0,1,1.422-.589H48.333Z" transform="translate(0 -222.167)" fill="#6003fe"/>
    <path id="Path_947227" data-name="Path 947227" d="M416,248h1.667v15.833H416Z" transform="translate(-372.667 -222.167)" fill="#6003fe"/>
    <path id="Path_947228" data-name="Path 947228" d="M48,384h1.667v1.667H48Z" transform="translate(-43 -344)" fill="#6003fe"/>
    <path id="Path_947229" data-name="Path 947229" d="M88,64h1.667v1.667H88Z" transform="translate(-78.829 -57.333)" fill="#6003fe"/>
    <path id="Path_947230" data-name="Path 947230" d="M120,64h1.667v1.667h-1.667Z" transform="translate(-107.496 -57.333)" fill="#6003fe"/>
    <path id="Path_947231" data-name="Path 947231" d="M151.995,64h1.667v1.667h-1.667Z" transform="translate(-136.162 -57.333)" fill="#6003fe"/>
    <path id="Path_947232" data-name="Path 947232" d="M88,96h20.833v1.667H88Z" transform="translate(-78.833 -86)" fill="#6003fe"/>
    <path id="Path_947233" data-name="Path 947233" d="M191.554,131.352a8.345,8.345,0,0,1,8.268.757l.96-1.363a9.988,9.988,0,0,0-11.5,0l.959,1.363A8.343,8.343,0,0,1,191.554,131.352Z" transform="translate(-169.562 -115.495)" fill="#6003fe"/>
    <path id="Path_947234" data-name="Path 947234" d="M282.407,341.207a20.742,20.742,0,0,0,4.3-6.623l-1.545-.626a19.085,19.085,0,0,1-3.956,6.093Z" transform="translate(-251.914 -299.171)" fill="#6003fe"/>
    <path id="Path_947235" data-name="Path 947235" d="M183.472,10h-.833V7.5a7.5,7.5,0,0,0-15,0,.833.833,0,0,0,.833.833h3.333a.833.833,0,0,0,.833-.833,2.5,2.5,0,0,1,5,0V10H166.805a.833.833,0,0,0-.833.833v7.578a14.685,14.685,0,0,0-6.8-1.644h-.117a13.814,13.814,0,0,0-7.793,2.4l.937,1.378a12.153,12.153,0,0,1,6.857-2.115h.117a12.959,12.959,0,0,1,6.8,1.891v2.009a11.291,11.291,0,0,0-6.8-2.233h-.117a10.676,10.676,0,0,0-8.734,4.6l-.4.575,1.368.952.4-.574a9.008,9.008,0,0,1,7.366-3.885h.117a9.328,9.328,0,0,1,7.661,3.814,8.874,8.874,0,0,1,1.3,2.75,8.686,8.686,0,0,1,0,4.76l1.6.453a10.345,10.345,0,0,0,0-5.666,10.53,10.53,0,0,0-1.548-3.258c-.109-.154-.223-.3-.34-.452h15.617a.833.833,0,0,0,.833-.833v-12.5a.833.833,0,0,0-.833-.833Zm-8.333-6.667a4.174,4.174,0,0,0-4.083,3.333h-1.691a5.833,5.833,0,0,1,11.607.833V10h-1.667V7.5A4.171,4.171,0,0,0,175.138,3.333Zm7.5,19.167h-15V11.667h15Z" transform="translate(-134.305)" fill="#6003fe"/>
    <path id="Path_947236" data-name="Path 947236" d="M358.548,131.25a2.447,2.447,0,0,0,.118-.75,2.5,2.5,0,0,0-5,0,2.448,2.448,0,0,0,.118.75A4.146,4.146,0,0,0,352,134.667a.833.833,0,0,0,.833.833H359.5a.833.833,0,0,0,.833-.833A4.146,4.146,0,0,0,358.548,131.25Zm-4.74,2.583a2.494,2.494,0,0,1,1.415-1.479.833.833,0,0,0,.316-1.316.823.823,0,0,1-.207-.539.833.833,0,1,1,1.667,0,.823.823,0,0,1-.207.539.833.833,0,0,0,.316,1.316,2.494,2.494,0,0,1,1.415,1.479Z" transform="translate(-315.333 -114.667)" fill="#6003fe"/>
    <path id="Path_947237" data-name="Path 947237" d="M.833,239.861H17.721l-.1.1,1.179,1.179,1.281-1.281H22.43L20.094,242.2l1.179,1.179,4.19-4.19a14.222,14.222,0,0,0,3.515-5.764,3.874,3.874,0,0,0-.581-3.491,3.955,3.955,0,0,0-3.222-1.635H24.75a4.035,4.035,0,0,0-3.772,2.756c-.056.165-.118.323-.186.477H18.885a4.176,4.176,0,0,0,.519-1.02,5.692,5.692,0,0,1,5.346-3.88h.425a5.676,5.676,0,0,1,4.561,2.309,5.525,5.525,0,0,1,.828,4.983,15.915,15.915,0,0,1-3.919,6.444l-3.075,3.075,1.179,1.179,3.075-3.075a17.585,17.585,0,0,0,4.33-7.12,7.175,7.175,0,0,0-1.072-6.47,7.349,7.349,0,0,0-5.905-2.99H24.75a7.359,7.359,0,0,0-6.921,5,2.613,2.613,0,0,1-.61.974l-.589.589H.833a.833.833,0,0,0-.833.833v6.667a.833.833,0,0,0,.833.833Zm23.917-9.9h.425a2.3,2.3,0,0,1,1.877.954,2.224,2.224,0,0,1,.336,2A12.356,12.356,0,0,1,25,237.233v-2.952a10.725,10.725,0,0,0,.9-2.229.208.208,0,0,0-.148-.255l-.019,0-1.566-.266H22.579A2.329,2.329,0,0,1,24.75,229.961ZM1.667,233.194H23.333v5H1.667Z" transform="translate(0 -201.528)" fill="#6003fe"/>
    <path id="Path_947238" data-name="Path 947238" d="M32,320h1.667v1.667H32Z" transform="translate(-28.667 -286.667)" fill="#6003fe"/>
    <path id="Path_947239" data-name="Path 947239" d="M64,320h1.667v1.667H64Z" transform="translate(-57.333 -286.667)" fill="#6003fe"/>
    <path id="Path_947240" data-name="Path 947240" d="M96,320h1.667v1.667H96Z" transform="translate(-86 -286.667)" fill="#6003fe"/>
    <path id="Path_947241" data-name="Path 947241" d="M128,320h1.667v1.667H128Z" transform="translate(-114.667 -286.667)" fill="#6003fe"/>
  </g>
</svg>
