<svg xmlns="http://www.w3.org/2000/svg" xmlns:xlink="http://www.w3.org/1999/xlink" width="295" height="220" viewBox="0 0 295 220">
  <defs>
    <clipPath id="clip-path">
      <rect id="Rectangle_448904" data-name="Rectangle 448904" width="269.108" height="179.549" fill="none"/>
    </clipPath>
  </defs>
  <g id="Group_1169300" data-name="Group 1169300" transform="translate(-1124.711 -3116)">
    <rect id="Rectangle_448638" data-name="Rectangle 448638" width="295" height="220" rx="10" transform="translate(1124.711 3116)" fill="#efe5ff"/>
    <g id="Group_1172531" data-name="Group 1172531" transform="translate(1137.657 3136.225)">
      <rect id="Rectangle_448884" data-name="Rectangle 448884" width="44.582" height="134.241" transform="translate(131.862 0.216)" fill="#fff"/>
      <g id="Group_1172532" data-name="Group 1172532">
        <g id="Group_1172531-2" data-name="Group 1172531" clip-path="url(#clip-path)">
          <path id="Path_947292" data-name="Path 947292" d="M1386.562,134.672H1341.98a.216.216,0,0,1-.216-.216V.216A.216.216,0,0,1,1341.98,0h44.582a.216.216,0,0,1,.216.216V134.457a.216.216,0,0,1-.216.216m-44.366-.432h44.15V.432H1342.2Z" transform="translate(-1210.118)"/>
          <rect id="Rectangle_448885" data-name="Rectangle 448885" width="54.521" height="134.241" transform="translate(108.469 0.216)" fill="#fff"/>
          <path id="Path_947293" data-name="Path 947293" d="M1158.077,134.672h-54.521a.216.216,0,0,1-.216-.216V.216a.216.216,0,0,1,.216-.216h54.521a.216.216,0,0,1,.216.216V134.457a.216.216,0,0,1-.216.216m-54.305-.432h54.089V.432h-54.089Z" transform="translate(-995.087)"/>
          <rect id="Rectangle_448886" data-name="Rectangle 448886" width="45.604" height="7.409" transform="translate(112.927 8.772)" fill="#fff"/>
          <path id="Path_947294" data-name="Path 947294" d="M1194.6,95.051H1149a.216.216,0,0,1-.216-.216V87.426a.216.216,0,0,1,.216-.216h45.6a.216.216,0,0,1,.216.216v7.409a.216.216,0,0,1-.216.216m-45.388-.432h45.172V87.642h-45.172Z" transform="translate(-1036.068 -78.653)"/>
          <path id="Path_947295" data-name="Path 947295" d="M1542.966,108.877a1.96,1.96,0,1,1,1.96,1.99,1.975,1.975,0,0,1-1.96-1.99" transform="translate(-1391.579 -96.4)" fill="#e2eaff"/>
          <path id="Path_947296" data-name="Path 947296" d="M1484.685,108.877a1.96,1.96,0,1,1,1.96,1.99,1.975,1.975,0,0,1-1.96-1.99" transform="translate(-1339.016 -96.4)" fill="#e2eaff"/>
          <path id="Path_947297" data-name="Path 947297" d="M1426.405,108.877a1.96,1.96,0,1,1,1.959,1.99,1.975,1.975,0,0,1-1.959-1.99" transform="translate(-1286.454 -96.4)" fill="#e2eaff"/>
          <rect id="Rectangle_448887" data-name="Rectangle 448887" width="45.604" height="7.409" transform="translate(112.927 21.55)" fill="#fff"/>
          <path id="Path_947298" data-name="Path 947298" d="M1194.6,225.28H1149a.216.216,0,0,1-.216-.216v-7.409a.216.216,0,0,1,.216-.216h45.6a.216.216,0,0,1,.216.216v7.409a.216.216,0,0,1-.216.216m-45.388-.432h45.172v-6.978h-45.172Z" transform="translate(-1036.068 -196.105)"/>
          <path id="Path_947299" data-name="Path 947299" d="M1542.966,239.107a1.96,1.96,0,1,1,1.96,1.99,1.975,1.975,0,0,1-1.96-1.99" transform="translate(-1391.579 -213.852)" fill="#e2eaff"/>
          <path id="Path_947300" data-name="Path 947300" d="M1484.685,239.107a1.96,1.96,0,1,1,1.96,1.99,1.975,1.975,0,0,1-1.96-1.99" transform="translate(-1339.016 -213.852)" fill="#e2eaff"/>
          <path id="Path_947301" data-name="Path 947301" d="M1426.405,239.107a1.96,1.96,0,1,1,1.959,1.99,1.975,1.975,0,0,1-1.959-1.99" transform="translate(-1286.454 -213.852)" fill="#e2eaff"/>
          <rect id="Rectangle_448888" data-name="Rectangle 448888" width="45.604" height="7.409" transform="translate(112.927 81.786)" fill="#fff"/>
          <path id="Path_947302" data-name="Path 947302" d="M1194.6,839.223H1149a.216.216,0,0,1-.216-.216V831.6a.216.216,0,0,1,.216-.216h45.6a.216.216,0,0,1,.216.216v7.409a.216.216,0,0,1-.216.216m-45.388-.432h45.172v-6.977h-45.172Z" transform="translate(-1036.068 -749.812)"/>
          <path id="Path_947303" data-name="Path 947303" d="M1542.966,853.049a1.96,1.96,0,1,1,1.96,1.99,1.975,1.975,0,0,1-1.96-1.99" transform="translate(-1391.579 -767.558)" fill="#e2eaff"/>
          <path id="Path_947304" data-name="Path 947304" d="M1484.685,853.049a1.96,1.96,0,1,1,1.96,1.99,1.975,1.975,0,0,1-1.96-1.99" transform="translate(-1339.016 -767.558)" fill="#e2eaff"/>
          <path id="Path_947305" data-name="Path 947305" d="M1426.405,853.049a1.96,1.96,0,1,1,1.959,1.99,1.975,1.975,0,0,1-1.959-1.99" transform="translate(-1286.454 -767.558)" fill="#e2eaff"/>
          <rect id="Rectangle_448889" data-name="Rectangle 448889" width="45.604" height="7.409" transform="translate(112.927 94.563)" fill="#fff"/>
          <path id="Path_947306" data-name="Path 947306" d="M1194.6,969.452H1149a.216.216,0,0,1-.216-.216v-7.409a.216.216,0,0,1,.216-.216h45.6a.216.216,0,0,1,.216.216v7.409a.216.216,0,0,1-.216.216m-45.388-.432h45.172v-6.978h-45.172Z" transform="translate(-1036.068 -867.263)"/>
          <path id="Path_947307" data-name="Path 947307" d="M1542.966,983.279a1.96,1.96,0,1,1,1.96,1.99,1.975,1.975,0,0,1-1.96-1.99" transform="translate(-1391.579 -885.011)" fill="#e2eaff"/>
          <path id="Path_947308" data-name="Path 947308" d="M1484.685,983.279a1.96,1.96,0,1,1,1.96,1.99,1.975,1.975,0,0,1-1.96-1.99" transform="translate(-1339.016 -885.011)" fill="#e2eaff"/>
          <path id="Path_947309" data-name="Path 947309" d="M1426.405,983.279a1.96,1.96,0,1,1,1.959,1.99,1.975,1.975,0,0,1-1.959-1.99" transform="translate(-1286.454 -885.011)" fill="#e2eaff"/>
          <rect id="Rectangle_448890" data-name="Rectangle 448890" width="45.604" height="7.409" transform="translate(112.927 45.279)" fill="#fff"/>
          <path id="Path_947310" data-name="Path 947310" d="M1194.6,467.137H1149a.216.216,0,0,1-.216-.216v-7.409a.216.216,0,0,1,.216-.216h45.6a.216.216,0,0,1,.216.216v7.409a.216.216,0,0,1-.216.216m-45.388-.432h45.172v-6.977h-45.172Z" transform="translate(-1036.068 -414.233)"/>
          <path id="Path_947311" data-name="Path 947311" d="M1542.966,480.963a1.96,1.96,0,1,1,1.96,1.99,1.975,1.975,0,0,1-1.96-1.99" transform="translate(-1391.579 -431.979)" fill="#e2eaff"/>
          <path id="Path_947312" data-name="Path 947312" d="M1484.685,480.963a1.96,1.96,0,1,1,1.96,1.99,1.975,1.975,0,0,1-1.96-1.99" transform="translate(-1339.016 -431.979)" fill="#e2eaff"/>
          <path id="Path_947313" data-name="Path 947313" d="M1426.405,480.963a1.96,1.96,0,1,1,1.959,1.99,1.975,1.975,0,0,1-1.959-1.99" transform="translate(-1286.454 -431.979)" fill="#e2eaff"/>
          <rect id="Rectangle_448891" data-name="Rectangle 448891" width="45.604" height="7.409" transform="translate(112.927 58.057)" fill="#fff"/>
          <path id="Path_947314" data-name="Path 947314" d="M1194.6,597.366H1149a.216.216,0,0,1-.216-.216v-7.409a.216.216,0,0,1,.216-.216h45.6a.216.216,0,0,1,.216.216v7.409a.216.216,0,0,1-.216.216m-45.388-.432h45.172v-6.977h-45.172Z" transform="translate(-1036.068 -531.684)"/>
          <path id="Path_947315" data-name="Path 947315" d="M1542.966,611.193a1.96,1.96,0,1,1,1.96,1.989,1.975,1.975,0,0,1-1.96-1.989" transform="translate(-1391.579 -549.432)" fill="#e2eaff"/>
          <path id="Path_947316" data-name="Path 947316" d="M1484.685,611.193a1.96,1.96,0,1,1,1.96,1.989,1.975,1.975,0,0,1-1.96-1.989" transform="translate(-1339.016 -549.432)" fill="#e2eaff"/>
          <path id="Path_947317" data-name="Path 947317" d="M1426.405,611.193a1.96,1.96,0,1,1,1.959,1.989,1.975,1.975,0,0,1-1.959-1.989" transform="translate(-1286.454 -549.432)" fill="#e2eaff"/>
          <rect id="Rectangle_448892" data-name="Rectangle 448892" width="44.582" height="134.241" transform="translate(196.75 0.216)" fill="#fff"/>
          <path id="Path_947318" data-name="Path 947318" d="M2047.917,134.672h-44.581a.216.216,0,0,1-.216-.216V.216a.216.216,0,0,1,.216-.216h44.581a.216.216,0,0,1,.216.216V134.457a.216.216,0,0,1-.216.216m-44.365-.432h44.15V.432h-44.15Z" transform="translate(-1806.586)"/>
          <rect id="Rectangle_448893" data-name="Rectangle 448893" width="54.521" height="134.241" transform="translate(173.357 0.216)" fill="#fff"/>
          <path id="Path_947319" data-name="Path 947319" d="M1819.432,134.672h-54.521a.216.216,0,0,1-.216-.216V.216a.216.216,0,0,1,.216-.216h54.521a.216.216,0,0,1,.216.216V134.457a.216.216,0,0,1-.216.216m-54.305-.432h54.089V.432h-54.089Z" transform="translate(-1591.553)"/>
          <rect id="Rectangle_448894" data-name="Rectangle 448894" width="45.604" height="7.409" transform="translate(177.816 8.772)" fill="#fff"/>
          <path id="Path_947320" data-name="Path 947320" d="M1855.953,95.051h-45.6a.216.216,0,0,1-.216-.216V87.426a.216.216,0,0,1,.216-.216h45.6a.216.216,0,0,1,.216.216v7.409a.216.216,0,0,1-.216.216m-45.389-.432h45.173V87.642h-45.173Z" transform="translate(-1632.533 -78.653)"/>
          <path id="Path_947321" data-name="Path 947321" d="M2204.32,108.877a1.96,1.96,0,1,1,1.959,1.99,1.975,1.975,0,0,1-1.959-1.99" transform="translate(-1988.045 -96.4)" fill="#e2eaff"/>
          <path id="Path_947322" data-name="Path 947322" d="M2146.04,108.877a1.96,1.96,0,1,1,1.959,1.99,1.975,1.975,0,0,1-1.959-1.99" transform="translate(-1935.483 -96.4)" fill="#e2eaff"/>
          <path id="Path_947323" data-name="Path 947323" d="M2087.759,108.877a1.96,1.96,0,1,1,1.959,1.99,1.975,1.975,0,0,1-1.959-1.99" transform="translate(-1882.92 -96.4)" fill="#5479f7"/>
          <rect id="Rectangle_448895" data-name="Rectangle 448895" width="45.604" height="7.409" transform="translate(177.816 21.55)" fill="#fff"/>
          <path id="Path_947324" data-name="Path 947324" d="M1855.953,225.28h-45.6a.216.216,0,0,1-.216-.216v-7.409a.216.216,0,0,1,.216-.216h45.6a.216.216,0,0,1,.216.216v7.409a.216.216,0,0,1-.216.216m-45.389-.432h45.173v-6.978h-45.173Z" transform="translate(-1632.533 -196.105)"/>
          <path id="Path_947325" data-name="Path 947325" d="M2204.32,239.107a1.96,1.96,0,1,1,1.959,1.99,1.975,1.975,0,0,1-1.959-1.99" transform="translate(-1988.045 -213.852)" fill="#e2eaff"/>
          <path id="Path_947326" data-name="Path 947326" d="M2146.04,239.107A1.96,1.96,0,1,1,2148,241.1a1.975,1.975,0,0,1-1.959-1.99" transform="translate(-1935.483 -213.852)" fill="#5479f7"/>
          <path id="Path_947327" data-name="Path 947327" d="M2087.759,239.107a1.96,1.96,0,1,1,1.959,1.99,1.975,1.975,0,0,1-1.959-1.99" transform="translate(-1882.92 -213.852)" fill="#e2eaff"/>
          <rect id="Rectangle_448896" data-name="Rectangle 448896" width="45.604" height="7.409" transform="translate(177.816 81.786)" fill="#fff"/>
          <path id="Path_947328" data-name="Path 947328" d="M1855.953,839.223h-45.6a.216.216,0,0,1-.216-.216V831.6a.216.216,0,0,1,.216-.216h45.6a.216.216,0,0,1,.216.216v7.409a.216.216,0,0,1-.216.216m-45.389-.432h45.173v-6.977h-45.173Z" transform="translate(-1632.533 -749.812)"/>
          <path id="Path_947329" data-name="Path 947329" d="M2204.32,853.049a1.96,1.96,0,1,1,1.959,1.99,1.975,1.975,0,0,1-1.959-1.99" transform="translate(-1988.045 -767.558)" fill="#e2eaff"/>
          <path id="Path_947330" data-name="Path 947330" d="M2146.04,853.049a1.96,1.96,0,1,1,1.959,1.99,1.975,1.975,0,0,1-1.959-1.99" transform="translate(-1935.483 -767.558)" fill="#e2eaff"/>
          <path id="Path_947331" data-name="Path 947331" d="M2087.759,853.049a1.96,1.96,0,1,1,1.959,1.99,1.975,1.975,0,0,1-1.959-1.99" transform="translate(-1882.92 -767.558)" fill="#e2eaff"/>
          <rect id="Rectangle_448897" data-name="Rectangle 448897" width="45.604" height="7.409" transform="translate(177.816 94.563)" fill="#fff"/>
          <path id="Path_947332" data-name="Path 947332" d="M1855.953,969.452h-45.6a.216.216,0,0,1-.216-.216v-7.409a.216.216,0,0,1,.216-.216h45.6a.216.216,0,0,1,.216.216v7.409a.216.216,0,0,1-.216.216m-45.389-.432h45.173v-6.978h-45.173Z" transform="translate(-1632.533 -867.263)"/>
          <path id="Path_947333" data-name="Path 947333" d="M2204.32,983.279a1.96,1.96,0,1,1,1.959,1.99,1.975,1.975,0,0,1-1.959-1.99" transform="translate(-1988.045 -885.011)" fill="#e2eaff"/>
          <path id="Path_947334" data-name="Path 947334" d="M2146.04,983.279a1.96,1.96,0,1,1,1.959,1.99,1.975,1.975,0,0,1-1.959-1.99" transform="translate(-1935.483 -885.011)" fill="#e2eaff"/>
          <path id="Path_947335" data-name="Path 947335" d="M2087.759,983.279a1.96,1.96,0,1,1,1.959,1.99,1.975,1.975,0,0,1-1.959-1.99" transform="translate(-1882.92 -885.011)" fill="#e2eaff"/>
          <rect id="Rectangle_448898" data-name="Rectangle 448898" width="45.604" height="7.409" transform="translate(177.816 45.279)" fill="#fff"/>
          <path id="Path_947336" data-name="Path 947336" d="M1855.953,467.137h-45.6a.216.216,0,0,1-.216-.216v-7.409a.216.216,0,0,1,.216-.216h45.6a.216.216,0,0,1,.216.216v7.409a.216.216,0,0,1-.216.216m-45.389-.432h45.173v-6.977h-45.173Z" transform="translate(-1632.533 -414.233)"/>
          <path id="Path_947337" data-name="Path 947337" d="M2204.32,480.963a1.96,1.96,0,1,1,1.959,1.99,1.975,1.975,0,0,1-1.959-1.99" transform="translate(-1988.045 -431.979)" fill="#e2eaff"/>
          <path id="Path_947338" data-name="Path 947338" d="M2146.04,480.963a1.96,1.96,0,1,1,1.959,1.99,1.975,1.975,0,0,1-1.959-1.99" transform="translate(-1935.483 -431.979)" fill="#e2eaff"/>
          <path id="Path_947339" data-name="Path 947339" d="M2087.759,480.963a1.96,1.96,0,1,1,1.959,1.99,1.975,1.975,0,0,1-1.959-1.99" transform="translate(-1882.92 -431.979)" fill="#e2eaff"/>
          <rect id="Rectangle_448899" data-name="Rectangle 448899" width="45.604" height="7.409" transform="translate(177.816 58.057)" fill="#fff"/>
          <path id="Path_947340" data-name="Path 947340" d="M1855.953,597.366h-45.6a.216.216,0,0,1-.216-.216v-7.409a.216.216,0,0,1,.216-.216h45.6a.216.216,0,0,1,.216.216v7.409a.216.216,0,0,1-.216.216m-45.389-.432h45.173v-6.977h-45.173Z" transform="translate(-1632.533 -531.684)"/>
          <path id="Path_947341" data-name="Path 947341" d="M2204.32,611.193a1.96,1.96,0,1,1,1.959,1.989,1.975,1.975,0,0,1-1.959-1.989" transform="translate(-1988.045 -549.432)" fill="#e2eaff"/>
          <path id="Path_947342" data-name="Path 947342" d="M2146.04,611.193a1.96,1.96,0,1,1,1.959,1.989,1.975,1.975,0,0,1-1.959-1.989" transform="translate(-1935.483 -549.432)" fill="#e2eaff"/>
          <path id="Path_947343" data-name="Path 947343" d="M2087.759,611.193a1.96,1.96,0,1,1,1.959,1.989,1.975,1.975,0,0,1-1.959-1.989" transform="translate(-1882.92 -549.432)" fill="#5479f7"/>
          <path id="Path_947344" data-name="Path 947344" d="M370.115,589.336,365.1,700.027a5.865,5.865,0,0,1-1.28,3.33l-4.21,5.188a1.4,1.4,0,0,0,.971,2.3h27.737a3.959,3.959,0,0,0,3.793-4.21l-2.335-82.555,24.4,83.9a3.837,3.837,0,0,0,3.622,2.865h28.981a1.408,1.408,0,0,0,.711-2.547l-7.854-5.587a5.582,5.582,0,0,1-2.021-2.742l-34.4-106.815Z" transform="translate(-324.038 -531.514)" fill="#5479f7"/>
          <path id="Path_947345" data-name="Path 947345" d="M668.044,805.824h0a.216.216,0,0,1-.215-.217l.052-14.783a.216.216,0,0,1,.216-.215h0a.216.216,0,0,1,.215.217l-.052,14.783a.216.216,0,0,1-.216.215" transform="translate(-602.305 -713.04)"/>
          <path id="Path_947346" data-name="Path 947346" d="M458.551,1748.156h-.009c-8.095-.313-16.293-.832-24.366-1.54a.216.216,0,1,1,.037-.43c8.066.708,16.257,1.225,24.346,1.538a.216.216,0,0,1-.008.431" transform="translate(-391.4 -1574.86)"/>
          <path id="Path_947347" data-name="Path 947347" d="M918.263,1738.408a.216.216,0,0,1,0-.432,149.879,149.879,0,0,0,22.758-2.1.216.216,0,1,1,.073.426,150.341,150.341,0,0,1-22.824,2.106Z" transform="translate(-827.974 -1565.56)"/>
          <path id="Path_947348" data-name="Path 947348" d="M532.819,242.948s-12.966-11.8-17.489-13.338c-9.315-3.17-20.729-1.848-29.643,2.665s-9.3,19.633-7.954,27.77l-2.116,8.008a2.279,2.279,0,0,0,2.2,2.861H509.1l7.712-21.985s6.51,8.212,13.752,8.546c7.192.332,9.107-1.9,13.955-8.268,1.549-2.035-5.236-11.1-5.236-11.1Z" transform="translate(-428.884 -205.513)" fill="#fff"/>
          <path id="Path_947349" data-name="Path 947349" d="M507.117,269.127a.216.216,0,0,1-.2-.287l7.712-21.985a.216.216,0,0,1,.372-.063c.065.081,6.534,8.139,13.593,8.465,6.957.321,8.848-1.711,13.774-8.183,1.163-1.528-3.175-8.053-5.108-10.666l-6.293,4.71a.216.216,0,0,1-.275-.013c-.129-.118-12.984-11.786-17.414-13.293-8.941-3.043-20.235-2.026-29.476,2.653-9.054,4.584-9.086,20.021-7.838,27.543a.213.213,0,0,1,0,.09l-2.115,8.008a2.063,2.063,0,0,0,1.995,2.59.216.216,0,0,1,0,.432,2.495,2.495,0,0,1-2.412-3.132l2.1-7.963c-1.258-7.647-1.183-23.264,8.076-27.952,9.341-4.729,20.763-5.755,29.81-2.677,4.321,1.47,15.979,11.947,17.433,13.263l6.324-4.733a.216.216,0,0,1,.3.043c.7.941,6.836,9.255,5.234,11.359-5.03,6.609-6.964,8.684-14.137,8.353-6.465-.3-12.4-6.848-13.664-8.331l-7.586,21.626a.216.216,0,0,1-.2.145" transform="translate(-426.899 -203.51)"/>
          <path id="Path_947350" data-name="Path 947350" d="M668.642,261.83a.216.216,0,0,1-.188-.11L657.2,241.809a.216.216,0,1,1,.376-.212l10.96,19.385,3.591-20.852a.216.216,0,0,1,.425.073l-3.694,21.449a.215.215,0,0,1-.176.176.221.221,0,0,1-.037,0" transform="translate(-592.691 -216.407)"/>
          <rect id="Rectangle_448900" data-name="Rectangle 448900" width="10.073" height="7.178" transform="translate(70.951 45.207)" fill="#fff"/>
          <path id="Path_947351" data-name="Path 947351" d="M731.239,466.168H721.166a.216.216,0,0,1-.216-.216v-7.178a.216.216,0,0,1,.216-.216h10.073a.216.216,0,0,1,.216.216v7.178a.216.216,0,0,1-.216.216m-9.857-.432h9.641v-6.746h-9.641Z" transform="translate(-650.215 -413.568)"/>
          <rect id="Rectangle_448901" data-name="Rectangle 448901" width="2.641" height="3.917" transform="translate(77.003 46.185)" fill="#e2eaff"/>
          <path id="Path_947352" data-name="Path 947352" d="M1136.937,252.818c-.424-.681-5.238-2.115-15.839,6.456-.559.452-1.1.883-1.633,1.3.42,3.214,1.762,7.725,5.8,10.652,2.666-3.048,6.509-7.587,7.878-8.5a2.014,2.014,0,0,0,.848-2.629c.945-1.048-.154-2.246-.154-2.246.878-2.057-2.207-1.7-2.207-1.7.244-1.173,5.73-2.648,5.306-3.329" transform="translate(-1009.63 -227.532)" fill="#fff"/>
          <path id="Path_947353" data-name="Path 947353" d="M1123.283,269.454a.214.214,0,0,1-.126-.041c-4.088-2.962-5.459-7.508-5.889-10.8a.216.216,0,0,1,.081-.2c.587-.461,1.12-.885,1.63-1.3,8.767-7.088,13.378-7.234,14.955-6.969a1.817,1.817,0,0,1,1.2.566h0a.369.369,0,0,1,.038.307c-.122.4-.924.768-2.333,1.394a12.268,12.268,0,0,0-2.8,1.5,2.529,2.529,0,0,1,1.979.635,1.28,1.28,0,0,1,.081,1.266,1.864,1.864,0,0,1,.156,2.325,2.231,2.231,0,0,1-.979,2.772c-1.14.76-4.151,4.226-6.57,7.01-.44.506-.866,1-1.265,1.453a.215.215,0,0,1-.163.074m-5.571-10.775c.431,3.153,1.748,7.43,5.539,10.267.361-.413.742-.851,1.134-1.3,2.563-2.95,5.468-6.293,6.656-7.086a1.8,1.8,0,0,0,.776-2.35.216.216,0,0,1,.031-.244c.8-.887-.114-1.913-.153-1.956a.217.217,0,0,1-.039-.23.957.957,0,0,0,.021-.964c-.378-.506-1.576-.489-2-.44a.216.216,0,0,1-.236-.258c.14-.674,1.37-1.267,3.231-2.093a8.6,8.6,0,0,0,2.084-1.1,1.666,1.666,0,0,0-.89-.344c-1.184-.2-5.739-.295-14.611,6.879-.484.391-.988.793-1.538,1.225" transform="translate(-1007.647 -225.543)"/>
          <path id="Path_947354" data-name="Path 947354" d="M1177.959,315.269a.216.216,0,0,1-.17-.348,3.378,3.378,0,0,1,2.406-1.035l.191-.021a4.1,4.1,0,0,0,2.1-.607.871.871,0,0,0,.4-.789c-.068-.294-.4-.508-.979-.636a11.572,11.572,0,0,0-2.694-.27.218.218,0,0,1-.22-.212.216.216,0,0,1,.212-.219,12.08,12.08,0,0,1,2.794.28c.759.167,1.2.49,1.306.961a1.273,1.273,0,0,1-.551,1.226,4.407,4.407,0,0,1-2.313.7l-.19.021a3.015,3.015,0,0,0-2.113.871.215.215,0,0,1-.171.084" transform="translate(-1062.19 -280.604)"/>
          <path id="Path_947355" data-name="Path 947355" d="M1227.574,302.237a.216.216,0,0,1-.191-.316,5.544,5.544,0,0,1,1.166-1.514.216.216,0,1,1,.292.318,5.121,5.121,0,0,0-1.075,1.4.216.216,0,0,1-.191.116" transform="translate(-1106.937 -270.881)"/>
          <path id="Path_947356" data-name="Path 947356" d="M1231.49,313.5a.216.216,0,0,1-.005-.431,3.463,3.463,0,0,0,2.609-1.306.216.216,0,0,1,.339.267,3.9,3.9,0,0,1-2.938,1.471h-.005" transform="translate(-1110.469 -281.102)"/>
          <path id="Path_947357" data-name="Path 947357" d="M1224.909,335.43a1.937,1.937,0,0,1-.7-.125,1.553,1.553,0,0,1-1.024-1.448.216.216,0,1,1,.431.015,1.133,1.133,0,0,0,.749,1.031,1.829,1.829,0,0,0,1.41-.1,4.227,4.227,0,0,0,1.214-.941.216.216,0,0,1,.312.3,4.628,4.628,0,0,1-1.344,1.034,2.5,2.5,0,0,1-1.047.241" transform="translate(-1103.173 -300.912)"/>
          <path id="Path_947358" data-name="Path 947358" d="M1232.369,348.232a1.364,1.364,0,0,1-.152-.008,1.026,1.026,0,0,1-.877-.653,1.434,1.434,0,0,1,.082-.891.216.216,0,0,1,.41.135,1.066,1.066,0,0,0-.082.623.6.6,0,0,0,.514.357,1.7,1.7,0,0,0,.781-.154.216.216,0,1,1,.158.4,2.321,2.321,0,0,1-.835.189" transform="translate(-1110.489 -312.532)"/>
          <path id="Path_947359" data-name="Path 947359" d="M1021.005,382.358a.216.216,0,0,1-.127-.391l3.565-2.578a.216.216,0,1,1,.253.35l-3.565,2.578a.214.214,0,0,1-.126.041" transform="translate(-920.635 -342.129)"/>
          <path id="Path_947360" data-name="Path 947360" d="M692.19,133.578l-.721,4.609s3.259,1.125,1.112,3.632c-2.554,2.984-8.291,1.192-9.093-.694-.654-1.54,1.341-2.353,1.341-2.353l1.465-10.342Z" transform="translate(-616.31 -115.829)" fill="#fff"/>
          <path id="Path_947361" data-name="Path 947361" d="M686.695,141.64a8.039,8.039,0,0,1-1.23-.1c-1.969-.3-3.719-1.279-4.161-2.32a1.613,1.613,0,0,1-.03-1.286,2.835,2.835,0,0,1,1.372-1.3l1.448-10.224a.216.216,0,0,1,.356-.132l5.9,5.148a.217.217,0,0,1,.071.2l-.694,4.438a3,3,0,0,1,1.76,1.7,2.42,2.42,0,0,1-.724,2.206,5.2,5.2,0,0,1-4.064,1.666m-2.229-14.771-1.409,9.948a.216.216,0,0,1-.132.17,2.558,2.558,0,0,0-1.252,1.117,1.181,1.181,0,0,0,.028.952c.381.9,2.028,1.784,3.83,2.062a5.218,5.218,0,0,0,4.9-1.423,2.028,2.028,0,0,0,.635-1.813c-.268-.987-1.64-1.471-1.654-1.475a.216.216,0,0,1-.143-.237l.7-4.491Z" transform="translate(-614.323 -113.844)"/>
          <path id="Path_947362" data-name="Path 947362" d="M760.147,230.542a.221.221,0,0,1-.038,0,.216.216,0,0,1-.174-.25l.312-1.739a.216.216,0,0,1,.425.076l-.312,1.739a.216.216,0,0,1-.212.178" transform="translate(-685.371 -205.965)"/>
          <path id="Path_947363" data-name="Path 947363" d="M701.186,12.512a4.422,4.422,0,0,0,.164-4.6,4.422,4.422,0,0,0-4.079-2.137A2.678,2.678,0,0,0,695.95,2.7a4.936,4.936,0,0,0-3.535-.328,7.086,7.086,0,0,0-4.059,2.475,5.126,5.126,0,0,0-.91,4.575,1.838,1.838,0,0,0-2.311.1,2.743,2.743,0,0,0-.834,2.281,5.617,5.617,0,0,0,.836,2.354,9.362,9.362,0,0,0,3.715,3.684,6.469,6.469,0,0,0,5.135.415,5.143,5.143,0,0,0,2.806-2.529c.206-.426.231-1.179.743-1.324a10.972,10.972,0,0,0,1.923-.44,4.322,4.322,0,0,0,1.727-1.457" transform="translate(-617.153 -1.984)"/>
          <path id="Path_947364" data-name="Path 947364" d="M716.668,86.383a1.333,1.333,0,0,1,.745.947c.443,2.243,1.655,10.663-2.9,11.283-4.6.626-6.04-4.416-6.04-4.416s-2.676-1-2.272-3.367,3-1.33,3.446.8c0,0,1.709.231,1.553-1.741-.15-1.891.938-5.639,5.473-3.509" transform="translate(-636.871 -77.334)" fill="#fff"/>
          <path id="Path_947365" data-name="Path 947365" d="M711.754,96.869c-3.766,0-5.217-3.846-5.443-4.525-.5-.22-2.692-1.322-2.31-3.564.164-.961.695-1.52,1.457-1.534h.029a2.748,2.748,0,0,1,2.346,2.166,1.24,1.24,0,0,0,.835-.3A1.462,1.462,0,0,0,709,87.9a4.454,4.454,0,0,1,1.539-3.869c1.053-.729,2.48-.68,4.241.148a1.556,1.556,0,0,1,.865,1.1c.234,1.187,1.3,7.256-.734,10.106a3.353,3.353,0,0,1-2.353,1.433,5.926,5.926,0,0,1-.8.056m-6.269-9.191h-.019c-.542.01-.911.427-1.039,1.175-.37,2.166,2.11,3.119,2.135,3.129a.216.216,0,0,1,.132.143c.053.187,1.28,4.313,5.052,4.313a5.566,5.566,0,0,0,.751-.052,2.936,2.936,0,0,0,2.06-1.256c1.974-2.763.8-9.062.661-9.771a1.121,1.121,0,0,0-.624-.793c-1.611-.757-2.894-.819-3.812-.183a4.01,4.01,0,0,0-1.354,3.48,1.858,1.858,0,0,1-.467,1.571,1.751,1.751,0,0,1-1.33.4.216.216,0,0,1-.182-.17,2.365,2.365,0,0,0-1.964-1.987" transform="translate(-634.888 -75.322)"/>
          <path id="Path_947366" data-name="Path 947366" d="M715.707,143.349a.216.216,0,0,1-.209-.164,1.44,1.44,0,0,0-1.156-1.054.216.216,0,0,1,.065-.427,1.882,1.882,0,0,1,1.51,1.377.216.216,0,0,1-.21.268" transform="translate(-644.089 -127.799)"/>
          <path id="Path_947367" data-name="Path 947367" d="M49.536,598.351S62.808,640.9,45,671.835l4.828,39.615,5.07,5.07a1.44,1.44,0,0,1-1.018,2.459H23.705a17.2,17.2,0,0,1-11.286-4.2,44.821,44.821,0,0,1-9.534-11.5,5.192,5.192,0,0,1,.093-5.3c3.638-5.882,12.671-20.841,16.109-29.783,0,0-5.416-59.453,3.118-69.247Z" transform="translate(-1.987 -539.644)" fill="#fff"/>
          <path id="Path_947368" data-name="Path 947368" d="M51.9,717.209H21.718a17.417,17.417,0,0,1-11.427-4.255,44.592,44.592,0,0,1-9.579-11.56,5.406,5.406,0,0,1,.1-5.522c3.692-5.968,12.638-20.794,16.073-29.7-.087-.969-1.362-15.469-1.637-30.916-.382-21.4,1.237-34.338,4.813-38.442a.214.214,0,0,1,.158-.074l27.33-.589a.222.222,0,0,1,.211.152c.008.025.781,2.517,1.69,6.647a.216.216,0,1,1-.421.093c-.777-3.529-1.453-5.854-1.634-6.456l-27.07.583c-8.29,9.829-3.059,68.422-3,69.014a.218.218,0,0,1-.013.1C13.867,675.215,4.88,690.109,1.175,696.1a4.974,4.974,0,0,0-.089,5.081,44.157,44.157,0,0,0,9.488,11.448,16.984,16.984,0,0,0,11.144,4.149H51.9a.216.216,0,1,1,0,.432" transform="translate(0 -537.66)"/>
          <path id="Path_947369" data-name="Path 947369" d="M406.96,812.751a.216.216,0,0,1-.215-.2l-3.208-54.88a.214.214,0,0,1,.024-.112l1.6-3.081a.216.216,0,0,1,.383.2l-1.576,3.028,3.2,54.821a.216.216,0,0,1-.2.228h-.013" transform="translate(-363.944 -680.345)"/>
          <path id="Path_947370" data-name="Path 947370" d="M184.375,1360.255h-3.484a2.581,2.581,0,0,1-2.512-2.025c-3.371-15.671-6.257-48.513-6.285-48.843a.216.216,0,1,1,.43-.037c.029.33,2.912,33.145,6.277,48.79a2.147,2.147,0,0,0,2.09,1.684h3.484a.216.216,0,1,1,0,.432" transform="translate(-155.209 -1180.706)"/>
          <path id="Path_947371" data-name="Path 947371" d="M245.441,1751.5a.216.216,0,0,1-.02-.431l23.568-2.2a.216.216,0,1,1,.04.43l-23.568,2.2h-.02" transform="translate(-221.166 -1577.283)"/>
          <path id="Path_947372" data-name="Path 947372" d="M47.612,1617.392l-.031,0a24.735,24.735,0,0,1-15.249-8.475A26.893,26.893,0,0,1,27.923,1602a.216.216,0,0,1,.4-.157,26.448,26.448,0,0,0,4.343,6.8,24.31,24.31,0,0,0,14.973,8.319.216.216,0,0,1-.031.429" transform="translate(-25.17 -1444.554)"/>
          <path id="Path_947373" data-name="Path 947373" d="M278.571,78.97l-.685-5.355s4.061-3.836,1.267-6.731c-2.017-2.09-5.112,1.169-7.664,1.475s-4.741.875-6.532,6.11-5.61,13.428-6.459,15.9l19.231-1.17Z" transform="translate(-233.136 -59.695)"/>
          <path id="Path_947374" data-name="Path 947374" d="M474.513,486.285c.315.157,5.982,11.1,12.044,13.46s10.55-5.594,10.55-5.594L484,483.687Z" transform="translate(-427.957 -436.23)" fill="#fff"/>
          <path id="Path_947375" data-name="Path 947375" d="M486.819,498.411a6.354,6.354,0,0,1-2.324-.449c-5.046-1.966-9.732-9.649-11.5-12.542-.283-.464-.528-.866-.6-.947a.216.216,0,0,1,.073-.38l9.487-2.6a.215.215,0,0,1,.192.039L495.259,492a.216.216,0,0,1,.053.275c-.04.071-3.529,6.138-8.493,6.138m-13.927-13.986c.1.157.249.4.476.77,1.743,2.859,6.374,10.451,11.284,12.364,5.353,2.085,9.52-4.249,10.19-5.341L481.969,481.94Zm-.458.068h0" transform="translate(-425.974 -434.246)"/>
          <path id="Path_947376" data-name="Path 947376" d="M162.3,291.555s-5.05-5.758-7.1-8.45a10.36,10.36,0,0,0-7-4,44.1,44.1,0,0,0-5.889-.92,53,53,0,0,0-9.837.919,16.047,16.047,0,0,0-10.309,6.739l-5.744,8.4,6.513,3.179-1.686,13.633h35.005V300.618Z" transform="translate(-104.989 -250.889)" fill="#5479f7"/>
          <path id="Path_947377" data-name="Path 947377" d="M95.8,405.712l-6.709-2.269s-8.131,11.2-3.059,16.041,18.618-10.254,21.083-13.658c0,0,1.587.369,1.36-.681,0,0,1.927.709,1.927-.738,0,0,1.984.514,1.587-1.36,0,0,1.906,2.233,2.491,1.935.9-.457-.2-2.334-1.017-3.752s-3.681-4.926-9.975-1.077a50.343,50.343,0,0,0-7.688,5.559" transform="translate(-76.088 -359.317)" fill="#fff"/>
          <path id="Path_947378" data-name="Path 947378" d="M86.406,464.96a3.675,3.675,0,0,1-2.638-1.008c-5.15-4.912,2.7-15.86,3.033-16.324a.216.216,0,0,1,.349.254c-.08.111-7.963,11.105-3.085,15.758,1.3,1.235,3.312,1.179,5.994-.167a.216.216,0,0,1,.193.386,8.839,8.839,0,0,1-3.848,1.1" transform="translate(-73.975 -403.629)"/>
          <path id="Path_947379" data-name="Path 947379" d="M121.521,480.688a.216.216,0,0,1-.137-.383l7.247-5.954a.216.216,0,1,1,.274.333l-7.247,5.954a.215.215,0,0,1-.137.049" transform="translate(-109.403 -427.766)"/>
          <path id="Path_947380" data-name="Path 947380" d="M291.792,464.05l-.026,0a4.76,4.76,0,0,1-2.3-.934.216.216,0,1,1,.261-.344,4.329,4.329,0,0,0,2.1.849.216.216,0,0,1-.026.43" transform="translate(-260.984 -417.327)"/>
          <path id="Path_947381" data-name="Path 947381" d="M321.533,459.624a.214.214,0,0,1-.109-.03,4.315,4.315,0,0,1-.864-.665.216.216,0,1,1,.3-.306,3.88,3.88,0,0,0,.778.6.216.216,0,0,1-.109.4" transform="translate(-289.051 -413.569)"/>
          <path id="Path_947382" data-name="Path 947382" d="M342.008,450.4a.215.215,0,0,1-.159-.07l-.7-.757a.216.216,0,1,1,.318-.292l.7.758a.216.216,0,0,1-.159.362" transform="translate(-307.63 -405.137)"/>
          <path id="Path_947383" data-name="Path 947383" d="M358.66,437.417a.215.215,0,0,1-.164-.075c-.1-.114-.174-.214-.252-.315-.09-.117-.182-.239-.318-.392a.216.216,0,1,1,.323-.286c.145.164.243.292.337.415.073.1.144.189.236.3a.216.216,0,0,1-.164.356" transform="translate(-322.76 -393.472)"/>
          <path id="Path_947384" data-name="Path 947384" d="M352.817,391.434,346.091,409.6H331.754a.693.693,0,0,0,0,1.385h34.434a1.208,1.208,0,0,0,1.133-.789l6.709-18.123a.923.923,0,0,0-.865-1.244H353.682a.922.922,0,0,0-.865.6" transform="translate(-298.579 -352.486)"/>
          <path id="Path_947385" data-name="Path 947385" d="M623.113,541.1s8.476,2.053,9.8-2.149.368-6.622-1-3.852c0,0-.443-2.5-1.85.19,0,0-.435-2.642-2-.229,0,0-.8-1.237-1.764.341a9.594,9.594,0,0,0-.936,3.44,2.563,2.563,0,0,1-1.91,2.171Z" transform="translate(-561.977 -481.53)" fill="#fff"/>
          <path id="Path_947386" data-name="Path 947386" d="M643.869,539.824a18.931,18.931,0,0,1-2.323-.153.216.216,0,0,1,.053-.428c2.451.307,6.693.41,7.561-2.347.893-2.839.671-4.6.3-4.748-.129-.051-.47.189-.9,1.056a.216.216,0,1,1-.387-.191c.627-1.273,1.131-1.392,1.445-1.266.816.327.794,2.6-.05,5.279-.71,2.255-3.336,2.8-5.7,2.8" transform="translate(-578.431 -479.54)"/>
          <path id="Path_947387" data-name="Path 947387" d="M702.81,547.985a.223.223,0,0,1-.044,0,.216.216,0,0,1-.167-.255l.789-3.773a.216.216,0,1,1,.422.088l-.789,3.773a.216.216,0,0,1-.211.172" transform="translate(-633.659 -490.427)"/>
          <path id="Path_947388" data-name="Path 947388" d="M683.763,549.894a.233.233,0,0,1-.045,0,.216.216,0,0,1-.167-.255l.79-3.778a.216.216,0,1,1,.422.088l-.79,3.778a.216.216,0,0,1-.211.172" transform="translate(-616.481 -492.144)"/>
          <path id="Path_947389" data-name="Path 947389" d="M663.225,547.454a.222.222,0,0,1-.045,0,.216.216,0,0,1-.167-.255l.79-3.778a.216.216,0,1,1,.422.088l-.79,3.778a.216.216,0,0,1-.211.172" transform="translate(-597.958 -489.944)"/>
          <rect id="Rectangle_448902" data-name="Rectangle 448902" width="10.073" height="7.178" transform="translate(22.673 61.812)" fill="#fff"/>
          <path id="Path_947390" data-name="Path 947390" d="M239.178,635.413H229.1a.216.216,0,0,1-.216-.216V628.02a.216.216,0,0,1,.216-.216h10.073a.216.216,0,0,1,.216.216V635.2a.216.216,0,0,1-.216.216m-9.857-.432h9.641v-6.746h-9.641Z" transform="translate(-206.432 -566.208)"/>
          <rect id="Rectangle_448903" data-name="Rectangle 448903" width="2.641" height="3.917" transform="translate(28.725 62.79)" fill="#e2eaff"/>
          <path id="Path_947391" data-name="Path 947391" d="M274.346,598.99h-1.487a.216.216,0,0,1-.216-.216v-2.407a.216.216,0,0,1,.216-.216h1.487a.216.216,0,0,1,.216.216v2.407a.216.216,0,0,1-.216.216m-1.271-.432h1.056v-1.976h-1.056Z" transform="translate(-245.893 -537.66)"/>
          <path id="Path_947392" data-name="Path 947392" d="M315.556,203.247l2.656.423s-.439,3.092-2.259,3.966c-3.1,1.488-11.885-4.475-11.885-4.475l4.337-.549a2.885,2.885,0,0,0,1.931-1.975L312.1,194.4l4.9,2.461Z" transform="translate(-274.235 -175.33)" fill="#fff"/>
          <path id="Path_947393" data-name="Path 947393" d="M354.1,131.205s-1.187-2.007-2.486-1.6c-1.981.617-1.853,4.161,1.411,3.99,0,0,3.862,4.939,7.567,3.568s.988-9.723.269-11.155c0,0-4.693.427-5.289,2.314-.524,1.66.2,2.884-1.472,2.884" transform="translate(-315.938 -113.644)" fill="#fff"/>
          <path id="Path_947394" data-name="Path 947394" d="M357.236,135.638c-3.052,0-5.815-3.213-6.3-3.807a2.489,2.489,0,0,1-2.794-1.932,2.168,2.168,0,0,1,1.419-2.484c1.274-.4,2.386,1.154,2.669,1.59.808-.031.835-.393.9-1.216a6.412,6.412,0,0,1,.251-1.515c.632-2,5.278-2.446,5.475-2.464a.217.217,0,0,1,.212.118c.583,1.162,2.45,6.76,1.276,9.739a2.825,2.825,0,0,1-1.663,1.715,4.128,4.128,0,0,1-1.442.257m-6.2-4.243a.216.216,0,0,1,.17.083c.038.048,3.809,4.8,7.322,3.5a2.412,2.412,0,0,0,1.411-1.469c1.029-2.61-.492-7.728-1.2-9.254-1.363.147-4.518.768-4.955,2.15a5.987,5.987,0,0,0-.232,1.417c-.065.868-.122,1.618-1.446,1.618a.216.216,0,0,1-.186-.106c-.011-.019-1.118-1.856-2.236-1.506a1.742,1.742,0,0,0-1.122,2c.146.815.868,1.656,2.459,1.572h.011" transform="translate(-313.951 -111.661)"/>
          <path id="Path_947395" data-name="Path 947395" d="M363.027,183.757a.215.215,0,0,1-.149-.059,1.892,1.892,0,0,0-1.648-.476.216.216,0,1,1-.084-.423,2.33,2.33,0,0,1,2.029.587.216.216,0,0,1-.149.372" transform="translate(-325.556 -164.825)"/>
          <path id="Path_947396" data-name="Path 947396" d="M1375.479,1522.607h-14.07a.216.216,0,0,1-.152-.063l-10.017-10.018a.216.216,0,0,1,.3-.3l9.954,9.954h13.98a.216.216,0,1,1,0,.431" transform="translate(-1218.607 -1363.794)"/>
          <path id="Path_947397" data-name="Path 947397" d="M1333.729,1492.312a2.4,2.4,0,1,1-2.4-2.4,2.4,2.4,0,0,1,2.4,2.4" transform="translate(-1198.545 -1343.732)" fill="#fff"/>
          <path id="Path_947398" data-name="Path 947398" d="M1329.347,1492.943a2.614,2.614,0,1,1,2.614-2.614,2.617,2.617,0,0,1-2.614,2.614m0-4.8a2.182,2.182,0,1,0,2.183,2.182,2.185,2.185,0,0,0-2.183-2.182" transform="translate(-1196.562 -1341.749)"/>
          <path id="Path_947399" data-name="Path 947399" d="M1262.022,1682.74h-36.43a.216.216,0,1,1,0-.432h36.43a.216.216,0,1,1,0,.432" transform="translate(-1105.149 -1517.25)"/>
          <path id="Path_947400" data-name="Path 947400" d="M1207.928,1662.462a2.4,2.4,0,1,1-2.4-2.4,2.4,2.4,0,0,1,2.4,2.4" transform="translate(-1085.088 -1497.188)" fill="#fff"/>
          <path id="Path_947401" data-name="Path 947401" d="M1203.547,1663.092a2.614,2.614,0,1,1,2.614-2.614,2.617,2.617,0,0,1-2.614,2.614m0-4.8a2.182,2.182,0,1,0,2.182,2.183,2.185,2.185,0,0,0-2.182-2.183" transform="translate(-1083.104 -1495.204)"/>
          <path id="Path_947402" data-name="Path 947402" d="M1676.82,986.016a15.2,15.2,0,0,0-1.843.112,36.31,36.31,0,1,0-71.773-10.9,20.707,20.707,0,1,0-4.733,40.865h78.349a15.037,15.037,0,0,0,0-30.074" transform="translate(-1422.965 -850.91)" fill="#fff"/>
          <path id="Path_947403" data-name="Path 947403" d="M1674.836,1014.322h-7.266a.216.216,0,0,1,0-.432h7.266a14.821,14.821,0,1,0,0-29.642,15,15,0,0,0-1.817.111.217.217,0,0,1-.183-.066.214.214,0,0,1-.056-.186,36.094,36.094,0,1,0-71.347-10.84.216.216,0,0,1-.263.183,20.491,20.491,0,1,0-4.684,40.439h30.494a.216.216,0,1,1,0,.432h-30.494a20.921,20.921,0,1,1,4.549-41.344,36.525,36.525,0,1,1,72.219,10.92,15.458,15.458,0,0,1,1.581-.082,15.253,15.253,0,1,1,0,30.506" transform="translate(-1420.98 -848.926)"/>
          <path id="Path_947404" data-name="Path 947404" d="M2223.408,1508.721v-18.807h-12v18.807h-7.164l13.162,14.344,13.162-14.344Z" transform="translate(-1987.979 -1343.732)" fill="#e2eaff"/>
          <path id="Path_947405" data-name="Path 947405" d="M2051.8,1315.515V1334.4h-12v-18.884h-7.164l13.162-14.267,13.162,14.267Z" transform="translate(-1833.213 -1173.577)" fill="#e2eaff"/>
          <path id="Path_947406" data-name="Path 947406" d="M2541.135,884.165a.216.216,0,0,1-.216-.216V846.324l-11.5-11.5a.216.216,0,0,1,.305-.305l11.565,11.565a.216.216,0,0,1,.063.153v37.714a.216.216,0,0,1-.216.216" transform="translate(-2281.189 -752.582)"/>
          <path id="Path_947407" data-name="Path 947407" d="M2511.907,814.608a2.4,2.4,0,1,1-2.4-2.4,2.4,2.4,0,0,1,2.4,2.4" transform="translate(-2261.127 -732.521)" fill="#fff"/>
          <path id="Path_947408" data-name="Path 947408" d="M2507.525,815.24a2.614,2.614,0,1,1,2.614-2.614,2.617,2.617,0,0,1-2.614,2.614m0-4.8a2.182,2.182,0,1,0,2.183,2.182,2.185,2.185,0,0,0-2.183-2.182" transform="translate(-2259.144 -730.538)"/>
          <path id="Path_947409" data-name="Path 947409" d="M2714.177,744.818a.215.215,0,0,1-.216-.216V677.907a.216.216,0,1,1,.432,0V744.6a.216.216,0,0,1-.216.216" transform="translate(-2447.684 -611.2)"/>
          <path id="Path_947410" data-name="Path 947410" d="M2696.514,657.845a2.4,2.4,0,1,1-2.4-2.4,2.4,2.4,0,0,1,2.4,2.4" transform="translate(-2427.621 -591.138)" fill="#fff"/>
          <path id="Path_947411" data-name="Path 947411" d="M2692.131,658.476a2.614,2.614,0,1,1,2.614-2.614,2.617,2.617,0,0,1-2.614,2.614m0-4.8a2.182,2.182,0,1,0,2.182,2.183,2.185,2.185,0,0,0-2.182-2.183" transform="translate(-2425.637 -589.155)"/>
        </g>
      </g>
    </g>
  </g>
</svg>
