<svg xmlns="http://www.w3.org/2000/svg" width="70" height="70" viewBox="0 0 70 70">
  <g id="Group_1169106" data-name="Group 1169106" transform="translate(-269 -958)">
    <circle id="Ellipse_5614" data-name="Ellipse 5614" cx="35" cy="35" r="35" transform="translate(269 958)" fill="#fff"/>
    <g id="Group_1172046" data-name="Group 1172046" transform="translate(230.868 965.575)">
      <g id="Group_1172025" data-name="Group 1172025" transform="translate(61.423 10.231)">
        <g id="Group_1172024" data-name="Group 1172024">
          <path id="Path_943324" data-name="Path 943324" d="M168.977,104.644h-2.433a8.463,8.463,0,0,0-.566-1.366l1.72-1.721a1.139,1.139,0,0,0,0-1.61l-2.025-2.025a1.14,1.14,0,0,0-1.61,0l-1.721,1.721a8.458,8.458,0,0,0-1.366-.566V96.644a1.14,1.14,0,0,0-1.139-1.139h-2.864a1.14,1.14,0,0,0-1.139,1.139v2.433a8.468,8.468,0,0,0-1.366.566l-1.721-1.721a1.14,1.14,0,0,0-1.61,0l-2.025,2.025a1.139,1.139,0,0,0,0,1.61l1.721,1.721a8.459,8.459,0,0,0-.566,1.366h-2.433a1.14,1.14,0,0,0-1.139,1.139v2.864a1.14,1.14,0,0,0,1.139,1.139h2.433a8.465,8.465,0,0,0,.566,1.366l-1.721,1.721a1.14,1.14,0,0,0,0,1.61l2.025,2.025a1.14,1.14,0,0,0,1.61,0l1.721-1.721a8.46,8.46,0,0,0,1.366.566v2.433a1.14,1.14,0,0,0,1.139,1.139h2.864a1.14,1.14,0,0,0,1.139-1.139v-2.433a8.462,8.462,0,0,0,1.366-.566l1.721,1.721a1.14,1.14,0,0,0,1.61,0l2.025-2.025a1.139,1.139,0,0,0,0-1.61l-1.721-1.721a8.459,8.459,0,0,0,.566-1.366h2.433a1.14,1.14,0,0,0,1.139-1.139v-2.864A1.14,1.14,0,0,0,168.977,104.644Zm-.468,3.534h-2.577a.8.8,0,0,0-.782.62,6.87,6.87,0,0,1-.855,2.064.8.8,0,0,0,.114.992l1.822,1.822-1.362,1.362-1.822-1.822a.8.8,0,0,0-.992-.114,6.876,6.876,0,0,1-2.064.855.8.8,0,0,0-.62.782v2.577h-1.927V114.74a.8.8,0,0,0-.62-.782,6.866,6.866,0,0,1-2.064-.855.8.8,0,0,0-.992.114l-1.822,1.822-1.362-1.362,1.822-1.822a.8.8,0,0,0,.114-.992,6.873,6.873,0,0,1-.855-2.064.8.8,0,0,0-.782-.62H148.3v-1.927h2.577a.8.8,0,0,0,.782-.62,6.873,6.873,0,0,1,.855-2.064.8.8,0,0,0-.114-.992l-1.822-1.822,1.362-1.362,1.822,1.822a.8.8,0,0,0,.992.114,6.87,6.87,0,0,1,2.064-.855.8.8,0,0,0,.62-.782V97.112h1.927v2.577a.8.8,0,0,0,.62.782,6.874,6.874,0,0,1,2.064.855.8.8,0,0,0,.992-.114l1.822-1.822,1.362,1.362-1.822,1.822a.8.8,0,0,0-.114.992,6.873,6.873,0,0,1,.855,2.064.8.8,0,0,0,.782.62h2.577Z" transform="translate(-146.697 -95.505)" fill="#233993" stroke="#233993" stroke-width="1"/>
        </g>
      </g>
      <g id="Group_1172027" data-name="Group 1172027" transform="translate(68.828 17.636)">
        <g id="Group_1172026" data-name="Group 1172026" transform="translate(0)">
          <path id="Path_943325" data-name="Path 943325" d="M220.124,164.628a4.3,4.3,0,1,0,4.3,4.3A4.309,4.309,0,0,0,220.124,164.628Zm0,7a2.7,2.7,0,1,1,2.7-2.7A2.7,2.7,0,0,1,220.124,171.63Z" transform="translate(-215.82 -164.628)" fill="#233993" stroke="#233993" stroke-width="1"/>
        </g>
      </g>
      <g id="Group_1172029" data-name="Group 1172029" transform="translate(51.192 21.137)">
        <g id="Group_1172028" data-name="Group 1172028" transform="translate(0)">
          <path id="Path_943326" data-name="Path 943326" d="M54.661,197.308H52a.8.8,0,1,0,0,1.607h2.666a.8.8,0,1,0,0-1.607Z" transform="translate(-51.192 -197.308)" fill="#233993" stroke="#233993" stroke-width="1"/>
        </g>
      </g>
      <g id="Group_1172031" data-name="Group 1172031" transform="translate(90.801 21.137)">
        <g id="Group_1172030" data-name="Group 1172030">
          <path id="Path_943327" data-name="Path 943327" d="M424.4,197.308H421.73a.8.8,0,0,0,0,1.607H424.4a.8.8,0,0,0,0-1.607Z" transform="translate(-420.927 -197.308)" fill="#233993" stroke="#233993" stroke-width="1"/>
        </g>
      </g>
      <g id="Group_1172033" data-name="Group 1172033" transform="translate(57.383 34.199)">
        <g id="Group_1172032" data-name="Group 1172032" transform="translate(0)">
          <path id="Path_943328" data-name="Path 943328" d="M112.238,319.468a.8.8,0,0,0-1.136,0l-1.885,1.885a.8.8,0,1,0,1.136,1.136l1.885-1.885A.8.8,0,0,0,112.238,319.468Z" transform="translate(-108.981 -319.232)" fill="#233993" stroke="#233993" stroke-width="1"/>
        </g>
      </g>
      <g id="Group_1172035" data-name="Group 1172035" transform="translate(85.391 6.191)">
        <g id="Group_1172034" data-name="Group 1172034">
          <path id="Path_943329" data-name="Path 943329" d="M373.68,58.027a.8.8,0,0,0-1.136,0l-1.885,1.885a.8.8,0,0,0,1.136,1.136l1.885-1.885A.8.8,0,0,0,373.68,58.027Z" transform="translate(-370.423 -57.791)" fill="#233993" stroke="#233993" stroke-width="1"/>
        </g>
      </g>
      <g id="Group_1172037" data-name="Group 1172037" transform="translate(72.329)">
        <g id="Group_1172036" data-name="Group 1172036" transform="translate(0)">
          <path id="Path_943330" data-name="Path 943330" d="M249.3,0a.8.8,0,0,0-.8.8V3.469a.8.8,0,1,0,1.607,0V.8A.8.8,0,0,0,249.3,0Z" transform="translate(-248.501)" fill="#233993" stroke="#233993" stroke-width="1"/>
        </g>
      </g>
      <g id="Group_1172039" data-name="Group 1172039" transform="translate(85.391 34.199)">
        <g id="Group_1172038" data-name="Group 1172038">
          <path id="Path_943331" data-name="Path 943331" d="M373.68,321.352l-1.885-1.885a.8.8,0,0,0-1.136,1.136l1.885,1.885a.8.8,0,0,0,1.136-1.136Z" transform="translate(-370.423 -319.232)" fill="#233993" stroke="#233993" stroke-width="1"/>
        </g>
      </g>
      <g id="Group_1172041" data-name="Group 1172041" transform="translate(57.383 6.191)">
        <g id="Group_1172040" data-name="Group 1172040" transform="translate(0)">
          <path id="Path_943332" data-name="Path 943332" d="M112.238,59.911l-1.885-1.885a.8.8,0,1,0-1.136,1.136l1.885,1.885a.8.8,0,1,0,1.136-1.136Z" transform="translate(-108.981 -57.791)" fill="#233993" stroke="#233993" stroke-width="1"/>
        </g>
      </g>
      <g id="Group_1172043" data-name="Group 1172043" transform="translate(74.204 5.843)">
        <g id="Group_1172042" data-name="Group 1172042" transform="translate(0)">
          <path id="Path_943333" data-name="Path 943333" d="M280.957,68.674A16.159,16.159,0,0,0,266.9,54.551a.8.8,0,1,0-.195,1.6,14.472,14.472,0,0,1,12.656,12.715.8.8,0,0,0,.8.71.832.832,0,0,0,.095-.005A.8.8,0,0,0,280.957,68.674Z" transform="translate(-265.999 -54.545)" fill="#233993" stroke="#233993" stroke-width="1"/>
        </g>
      </g>
      <g id="Group_1172045" data-name="Group 1172045" transform="translate(56.991 5.844)">
        <g id="Group_1172044" data-name="Group 1172044" transform="translate(0)">
          <path id="Path_943334" data-name="Path 943334" d="M136.784,71.73a.8.8,0,0,0-.9.7,14.479,14.479,0,0,1-6.7,10.474,5.405,5.405,0,0,0-2.554,4.6V90.8H116.307v-3.38a5.291,5.291,0,0,0-2.476-4.475,14.535,14.535,0,0,1,5.862-26.792.8.8,0,0,0-.2-1.595,16.141,16.141,0,0,0-6.51,29.753,3.673,3.673,0,0,1,1.714,3.109v3.5a2.091,2.091,0,0,0-1.406,1.972v1.145a2.077,2.077,0,0,0,.446,1.286,2.076,2.076,0,0,0-.446,1.286v1.145a2.092,2.092,0,0,0,2.089,2.089h2.526v1.816a1.9,1.9,0,0,0,1.9,1.9h3.321a1.9,1.9,0,0,0,1.9-1.9V99.844h2.526a2.092,2.092,0,0,0,2.089-2.089V96.61a2.077,2.077,0,0,0-.446-1.286,2.077,2.077,0,0,0,.446-1.286V92.893a2.091,2.091,0,0,0-1.406-1.972V87.5a3.807,3.807,0,0,1,1.8-3.237,16.08,16.08,0,0,0,7.44-11.633A.8.8,0,0,0,136.784,71.73Zm-13.362,29.931a.3.3,0,0,1-.293.293h-3.321a.3.3,0,0,1-.293-.293V99.844h3.907Zm4.615-3.905a.489.489,0,0,1-.482.482H115.383a.489.489,0,0,1-.482-.482V96.61a.489.489,0,0,1,.482-.482h12.173a.489.489,0,0,1,.482.482Zm0-3.717a.489.489,0,0,1-.482.482H115.383a.489.489,0,0,1-.482-.482V92.893a.489.489,0,0,1,.482-.482h12.173a.489.489,0,0,1,.482.482Z" transform="translate(-105.328 -54.556)" fill="#233993" stroke="#233993" stroke-width="1"/>
        </g>
      </g>
    </g>
  </g>
</svg>
