<svg xmlns="http://www.w3.org/2000/svg" xmlns:xlink="http://www.w3.org/1999/xlink" width="295" height="170" viewBox="0 0 295 170">
  <defs>
    <clipPath id="clip-path">
      <rect id="Rectangle_448097" data-name="Rectangle 448097" width="237.707" height="158.516" fill="none"/>
    </clipPath>
  </defs>
  <g id="Group_1169108" data-name="Group 1169108" transform="translate(-1019.711 -1661.434)">
    <path id="Rectangle_447435" data-name="Rectangle 447435" d="M10,0H285a10,10,0,0,1,10,10v97.074a0,0,0,0,1,0,0H0a0,0,0,0,1,0,0V10A10,10,0,0,1,10,0Z" transform="translate(1019.711 1724.359)" fill="#6003fe"/>
    <g id="Group_1165241" data-name="Group 1165241" transform="translate(1048.357 1661.434)">
      <g id="Group_1165240" data-name="Group 1165240" clip-path="url(#clip-path)">
        <path id="Path_938442" data-name="Path 938442" d="M490.067,78.09c3.739-15.163-6.976-29.684-17.564-35.935a28.931,28.931,0,0,0-16.443-3.783c-.195-2.544-1.625-18.084-14.169-28.381a34.341,34.341,0,0,0-23.729-7.732c-16.392.969-26,13.7-27.519,15.793-1.13-.444-15.5-5.791-27.808,4.089-9.357,7.512-13.687,20.752-10.93,33.556a21.11,21.11,0,0,0-15.195,7.1c-1.058,1.2-7.472,8.736-5.59,18.958a20.835,20.835,0,0,0,14.315,16.176H472.448c1.834-.8,14.319-6.456,17.619-19.838" transform="translate(-302.123 -2.013)" fill="#fff"/>
        <path id="Path_938443" data-name="Path 938443" d="M470.412,96.106H343.4a.192.192,0,0,1-.056-.008A20.727,20.727,0,0,1,333.882,90a21.2,21.2,0,0,1-4.987-10.231c-1.8-9.774,3.858-17.1,5.635-19.118a21.157,21.157,0,0,1,15.1-7.155c-2.681-12.834,1.641-25.97,11.045-33.52a27.02,27.02,0,0,1,18.22-5.957,31.069,31.069,0,0,1,9.64,1.787C391.206,12.187,400.68.969,416.114.057a34.38,34.38,0,0,1,23.862,7.774c11.767,9.659,13.858,23.893,14.224,28.329a29.187,29.187,0,0,1,16.364,3.818,40.456,40.456,0,0,1,14.224,14.7c2.762,4.927,5.6,12.648,3.428,21.449l-.185-.046.185.046a27.881,27.881,0,0,1-9.421,14.739,34.857,34.857,0,0,1-8.307,5.228.19.19,0,0,1-.076.016m-126.986-.382H470.372c2.449-1.068,14.306-6.848,17.473-19.693,3.553-14.407-6.353-29.159-17.476-35.724a28.855,28.855,0,0,0-16.337-3.757.191.191,0,0,1-.2-.176c-.32-4.174-2.282-18.547-14.1-28.248a34,34,0,0,0-23.6-7.689C400.7,1.35,391.279,12.7,388.76,16.153a.19.19,0,0,1-.224.065,30.843,30.843,0,0,0-9.649-1.814,26.647,26.647,0,0,0-17.97,5.874c-9.347,7.5-13.612,20.6-10.863,33.367a.191.191,0,0,1-.183.231,20.772,20.772,0,0,0-15.056,7.032c-1.748,1.981-7.314,9.192-5.546,18.8a20.517,20.517,0,0,0,14.156,16.02" transform="translate(-300.087 0)"/>
        <path id="Path_938444" data-name="Path 938444" d="M307.437,969.517l-.952-7.44s5.642-5.329,1.76-9.351c-2.8-2.9-7.1,1.624-10.648,2.05s-6.587,1.216-9.075,8.488-7.794,18.655-8.974,22.084l26.717-1.626Z" transform="translate(-255.334 -869.319)"/>
        <path id="Path_938445" data-name="Path 938445" d="M119.7,1303.94s-7.016-8-9.869-11.739a14.392,14.392,0,0,0-9.727-5.556c-2.228-.268-5-1.236-8.182-1.278a73.624,73.624,0,0,0-13.666,1.277,22.294,22.294,0,0,0-14.323,9.362l-7.981,11.669L65,1312.092,62.5,1332.349l48.72,0Z" transform="translate(-51.108 -1174.024)" fill="#5479f7"/>
        <path id="Path_938446" data-name="Path 938446" d="M21.413,1484.7l-9.321-3.153s-11.3,15.564-4.25,22.285,25.865-14.245,29.29-18.975c0,0,2.2.512,1.89-.946,0,0,2.677.985,2.677-1.025,0,0,2.756.714,2.2-1.89,0,0,2.647,3.1,3.46,2.689,1.248-.635-.271-3.243-1.413-5.213s-5.114-6.844-13.858-1.5a69.933,69.933,0,0,0-10.681,7.723" transform="translate(-5.05 -1346.821)" fill="#fff"/>
        <path id="Path_938447" data-name="Path 938447" d="M9.425,1577.109a5,5,0,0,1-3.591-1.369c-2.943-2.807-3.138-7.6-.563-13.874a47.515,47.515,0,0,1,4.79-8.662.191.191,0,1,1,.309.224c-.112.154-11.118,15.506-4.272,22.035,1.836,1.751,4.679,1.679,8.452-.213a.191.191,0,1,1,.171.341,12.168,12.168,0,0,1-5.3,1.518" transform="translate(-3.173 -1418.594)"/>
        <path id="Path_938448" data-name="Path 938448" d="M65.108,1603.891a.191.191,0,0,1-.121-.338l10.068-8.272a.191.191,0,0,1,.242.295l-10.068,8.272a.19.19,0,0,1-.121.043" transform="translate(-59.294 -1457.057)"/>
        <path id="Path_938449" data-name="Path 938449" d="M332.648,1578.644h-.023a6.5,6.5,0,0,1-3.149-1.276.191.191,0,1,1,.231-.3,6.119,6.119,0,0,0,2.964,1.2.191.191,0,0,1-.023.38" transform="translate(-300.867 -1440.421)"/>
        <path id="Path_938450" data-name="Path 938450" d="M379.7,1571.726a.191.191,0,0,1-.1-.026,5.893,5.893,0,0,1-1.179-.908.191.191,0,1,1,.269-.271,5.5,5.5,0,0,0,1.1.849.191.191,0,0,1-.1.356" transform="translate(-345.596 -1434.432)"/>
        <path id="Path_938451" data-name="Path 938451" d="M411.947,1557.186a.191.191,0,0,1-.141-.062l-.966-1.052a.191.191,0,0,1,.281-.258l.966,1.052a.191.191,0,0,1-.141.32" transform="translate(-375.207 -1420.992)"/>
        <path id="Path_938452" data-name="Path 938452" d="M438.173,1536.771a.19.19,0,0,1-.145-.067c-.136-.158-.243-.3-.346-.433-.126-.165-.256-.335-.446-.55a.191.191,0,0,1,.286-.253c.2.226.334.4.464.571.1.137.2.267.333.417a.191.191,0,0,1-.145.315" transform="translate(-399.318 -1402.406)"/>
        <path id="Path_938453" data-name="Path 938453" d="M642.34,1288.894l26.5-23.1s4.216-4.683,7.071-3.833c3.4,1.012-2.461,3.371-2.856,6.861a70.676,70.676,0,0,0-.263,8.162s-13.653,19.621-24.232,19.85c-3.951.086-6.216-7.937-6.216-7.937" transform="translate(-586.7 -1152.552)" fill="#fff"/>
        <path id="Path_938454" data-name="Path 938454" d="M891.494,1462.633a.191.191,0,0,1-.141-.318c2.01-2.228,7.293-8.157,7.59-8.833a.191.191,0,1,1,.349.154c-.376.855-6.912,8.11-7.656,8.934a.19.19,0,0,1-.142.063" transform="translate(-814.098 -1327.477)"/>
        <rect id="Rectangle_448094" data-name="Rectangle 448094" width="58.767" height="44.392" transform="translate(79.259 76.506)" fill="#e2eaff"/>
        <path id="Path_938455" data-name="Path 938455" d="M1016.93,945.525v-2.36a2.179,2.179,0,0,0-2.178-2.179h-12.907a2.178,2.178,0,0,0-2.178,2.178v2.36H964.6v36.719a4.094,4.094,0,0,0,4.094,4.094h54.318V945.525Z" transform="translate(-881.042 -859.477)" fill="#fff"/>
        <path id="Path_938456" data-name="Path 938456" d="M1021,1032.376H966.68a4.289,4.289,0,0,1-4.285-4.285v-4.46a.191.191,0,1,1,.381,0v4.46a3.908,3.908,0,0,0,3.9,3.9h54.127V991.563h-4.135a.191.191,0,0,1,0-.382H1021a.191.191,0,0,1,.191.191v40.813a.191.191,0,0,1-.191.191" transform="translate(-879.032 -905.324)"/>
        <path id="Path_938457" data-name="Path 938457" d="M1638.938,1051.087V1086.9l5.475-35.815Z" transform="translate(-1496.972 -960.041)" fill="#fff"/>
        <path id="Path_938458" data-name="Path 938458" d="M1637.114,1084.919l-.379-.029v-36.005h5.888Zm0-35.653v33.113l5.062-33.113Z" transform="translate(-1494.96 -958.03)"/>
        <path id="Path_938459" data-name="Path 938459" d="M869.693,1273.093a19,19,0,0,0,3.26.456,8.448,8.448,0,0,0,3.814-.793c.715-.318,1.041-1,1.464-1.643.043-.915.618-1.435.715-2.294.4-3.49,6.264-5.873,2.856-6.861-2.928-.849-7.07,3.833-7.07,3.833l-6.971,6.078c.079.434,1.5,1.123,1.933,1.225" transform="translate(-792.594 -1152.552)" fill="#fff"/>
        <path id="Path_938460" data-name="Path 938460" d="M942.547,1271.843a2.515,2.515,0,0,1-.292-.014.191.191,0,0,1,.052-.378c.146.019,3.59.428,4.342-4.369a8.444,8.444,0,0,1,2.72-4.389c.9-.915,1.387-1.449,1.039-1.808-.464-.477-1.365-.973-3.828.234a.191.191,0,1,1-.168-.343c2.045-1,3.4-1.052,4.27-.157.624.643-.111,1.392-1.041,2.34a8.025,8.025,0,0,0-2.616,4.181c-.681,4.342-3.549,4.7-4.479,4.7" transform="translate(-860.486 -1150.844)"/>
        <path id="Path_938461" data-name="Path 938461" d="M762.1,1286.325a.191.191,0,0,1-.125-.335l15.939-13.9a16.81,16.81,0,0,1,3.915-3.166.191.191,0,0,1,.188.332,16.731,16.731,0,0,0-3.824,3.095l-.018.018-15.949,13.906a.19.19,0,0,1-.125.047" transform="translate(-695.915 -1158.989)"/>
        <path id="Path_938462" data-name="Path 938462" d="M367.221,1165.81l3.69.588s-.61,4.3-3.139,5.51c-4.305,2.068-16.512-6.216-16.512-6.216l6.026-.763a4.009,4.009,0,0,0,2.683-2.744l2.446-8.66,6.8,3.42Z" transform="translate(-320.835 -1053.606)" fill="#fff"/>
        <path id="Path_938463" data-name="Path 938463" d="M429.29,1053.115s-1.649-2.788-3.454-2.225c-2.752.858-2.574,5.781,1.961,5.544,0,0,5.365,6.861,10.513,4.957s1.372-13.508.374-15.5c0,0-6.52.593-7.348,3.215-.728,2.307.28,4.007-2.045,4.007" transform="translate(-387.295 -955.297)" fill="#fff"/>
        <path id="Path_938464" data-name="Path 938464" d="M434.389,1059.908c-4.268,0-8.141-4.6-8.7-5.292-2.459.092-3.589-1.272-3.826-2.592a2.9,2.9,0,0,1,1.9-3.328c1.752-.546,3.3,1.709,3.617,2.215,1.281-.03,1.326-.629,1.413-1.792a8.843,8.843,0,0,1,.344-2.08c.857-2.713,7.242-3.323,7.513-3.348a.192.192,0,0,1,.188.1c.806,1.605,3.387,9.337,1.768,13.441a3.819,3.819,0,0,1-2.247,2.321,5.63,5.63,0,0,1-1.968.351m-8.61-5.677a.191.191,0,0,1,.15.073c.053.068,5.34,6.729,10.3,4.9a3.455,3.455,0,0,0,2.024-2.1c1.536-3.9-.85-11.209-1.7-13.012-.915.1-6.335.8-7.053,3.069a8.388,8.388,0,0,0-.327,1.994c-.09,1.2-.161,2.146-1.9,2.146a.191.191,0,0,1-.164-.094c-.016-.026-1.593-2.653-3.233-2.14a2.53,2.53,0,0,0-1.634,2.9c.211,1.177,1.249,2.394,3.529,2.274h.01" transform="translate(-385.276 -953.285)"/>
        <path id="Path_938465" data-name="Path 938465" d="M444.811,1137.622a.19.19,0,0,1-.131-.052,2.738,2.738,0,0,0-2.385-.69.191.191,0,1,1-.075-.374,3.123,3.123,0,0,1,2.723.787.191.191,0,0,1-.131.329" transform="translate(-403.774 -1038.009)"/>
        <path id="Path_938466" data-name="Path 938466" d="M299.751,1558.827l-7.793,21.052H268.021a.8.8,0,0,0,0,1.605h47.223a1.4,1.4,0,0,0,1.313-.914l7.774-21a1.069,1.069,0,0,0-1-1.441H300.753a1.069,1.069,0,0,0-1,.7" transform="translate(-244.071 -1423.163)"/>
        <path id="Path_938467" data-name="Path 938467" d="M1306.651,918.091V902.082h-10.212v16.009h-6.1l11.2,12.21,11.2-12.21Z" transform="translate(-1178.571 -823.943)" fill="#5479f7"/>
        <path id="Path_938468" data-name="Path 938468" d="M1141.2,732.323V748.4h-10.212V732.323h-6.1l11.2-12.144,11.2,12.144Z" transform="translate(-1027.449 -657.796)" fill="#5479f7"/>
        <rect id="Rectangle_448095" data-name="Rectangle 448095" width="92.214" height="39.422" transform="translate(145.398 44.948)" fill="#e2eaff"/>
        <path id="Path_938469" data-name="Path 938469" d="M2180.01,280.293l4.074,11.911,2.8.545s-4.275,9.279-11.478,7.725-5.62-7.725-5.62-7.725l1.524-.123a1.475,1.475,0,0,0,1.309-1.839l-1.713-6.634s6.98-5.626,9.1-3.859" transform="translate(-1981.704 -255.7)" fill="#fff"/>
        <path id="Path_938470" data-name="Path 938470" d="M2174.959,298.912a7.762,7.762,0,0,1-1.641-.178,7.389,7.389,0,0,1-5.012-3.124,6.743,6.743,0,0,1-.752-4.835.191.191,0,0,1,.169-.143l1.524-.123a1.284,1.284,0,0,0,1.14-1.6l-1.713-6.634a.191.191,0,0,1,.065-.2c.29-.234,7.129-5.7,9.344-3.857a.19.19,0,0,1,.059.085l4.038,11.806,2.693.524a.191.191,0,0,1,.137.267c-.04.087-3.768,8.009-10.051,8.009M2167.9,291a6.444,6.444,0,0,0,.738,4.412,7.028,7.028,0,0,0,4.765,2.948c6.355,1.373,10.451-6.015,11.156-7.4l-2.556-.5a.191.191,0,0,1-.144-.126l-4.056-11.858c-1.658-1.254-6.757,2.25-8.725,3.816l1.682,6.515a1.665,1.665,0,0,1-1.479,2.076Z" transform="translate(-1979.655 -253.775)"/>
        <path id="Path_938471" data-name="Path 938471" d="M2080.511,110.166a5.8,5.8,0,0,1,3.677,3.383c.323.824.451,1.713.758,2.543a3.1,3.1,0,0,0,1.685,1.942c.417.15.871.159,1.3.267a2.523,2.523,0,0,1,1.84,1.752,1.986,1.986,0,0,1-1.012,2.242,2.168,2.168,0,0,1-2.6,2.9,4.88,4.88,0,0,1-2.84,4.047,10.682,10.682,0,0,1-5.071.874,21.544,21.544,0,0,1-9.49-2.291,6.678,6.678,0,0,1-2.038-1.5,3.006,3.006,0,0,1-.767-2.345,7.98,7.98,0,0,1-2.934-2.816,3.387,3.387,0,0,1,.295-3.839c.766-.8,1.982-1.039,2.755-1.833a7.189,7.189,0,0,0,1.247-2.577,6.3,6.3,0,0,1,2.083-2.891,4.82,4.82,0,0,1,4.181-.612,7,7,0,0,1,1.889,1.095c.615.412,1.392-.248,2.048-.407a5.768,5.768,0,0,1,2.992.068" transform="translate(-1883.908 -99.73)"/>
        <path id="Path_938472" data-name="Path 938472" d="M2130.773,199.894a8.341,8.341,0,0,1-2.526,3.451,5.664,5.664,0,0,1-4.041,1.215c-2.4-.278-4.274-2.36-5.039-4.648a18.657,18.657,0,0,1-.472-7.174s1.029-3.617,3.717-4.809c.511,5.26,9.562,1.381,7.17,8.78,0,0,1.654-2.006,2.7-1.892a2.494,2.494,0,0,1,2.145,2.281,2.8,2.8,0,0,1-1.771,2.659,2.51,2.51,0,0,1-1.885.137" transform="translate(-1935.06 -171.65)" fill="#fff"/>
        <path id="Path_938473" data-name="Path 938473" d="M2122.735,202.771a4.961,4.961,0,0,1-.572-.033,6.659,6.659,0,0,1-5.2-4.777,19.05,19.05,0,0,1-.481-7.247.18.18,0,0,1,.007-.04c.043-.151,1.086-3.717,3.823-4.931a.191.191,0,0,1,.267.156c.214,2.2,1.973,2.7,3.835,3.221,1.366.385,2.78.782,3.4,1.948a4.072,4.072,0,0,1,.145,2.9c.6-.61,1.564-1.434,2.318-1.353a2.7,2.7,0,0,1,2.314,2.46,2.986,2.986,0,0,1-1.892,2.848,2.8,2.8,0,0,1-1.846.194,8.464,8.464,0,0,1-2.517,3.368,5.982,5.982,0,0,1-3.608,1.286m-5.871-12.01a18.69,18.69,0,0,0,.464,7.079c.684,2.047,2.458,4.238,4.879,4.52a5.459,5.459,0,0,0,3.9-1.176,8.154,8.154,0,0,0,2.466-3.373.19.19,0,0,1,.24-.107,2.32,2.32,0,0,0,1.751-.135,2.6,2.6,0,0,0,1.65-2.471,2.307,2.307,0,0,0-1.975-2.1c-.774-.082-2.092,1.288-2.534,1.824a.191.191,0,0,1-.328-.18,4.411,4.411,0,0,0,.1-3.39c-.548-1.023-1.822-1.381-3.171-1.761-1.747-.492-3.719-1.046-4.077-3.283-2.309,1.194-3.291,4.289-3.373,4.557" transform="translate(-1933.039 -169.639)"/>
        <path id="Path_938474" data-name="Path 938474" d="M2260.1,293.082a.191.191,0,0,1-.122-.337,5.067,5.067,0,0,0,1.056-1.218.191.191,0,1,1,.325.2,5.45,5.45,0,0,1-1.136,1.31.191.191,0,0,1-.123.045" transform="translate(-2064.153 -266.192)"/>
        <path id="Path_938475" data-name="Path 938475" d="M1856.854,425.612a12.573,12.573,0,0,1,8.954-5.037c2.031-.187,4.578-.386,7.419-.531a6.49,6.49,0,0,0,.659,1.473,7.959,7.959,0,0,0,3.55,3.045,8.763,8.763,0,0,0,4.618.751,6.573,6.573,0,0,0,4.065-1.987,7.948,7.948,0,0,0,2.173-3.286,67.072,67.072,0,0,1,7.026.738,16.286,16.286,0,0,1,11.113,7.453c5.5,8.583,11.617,17.644,11.617,28.1,0,11.884-28.529,10.852-28.529,10.852h-27.814l-17.786-15.111s5.536-16.464,12.935-26.456" transform="translate(-1684.198 -383.657)" fill="#5479f7"/>
        <path id="Path_938476" data-name="Path 938476" d="M2149.418,792.005c.21,1.418-2.536,1.932-2.536,1.932h-8.51l-12.673-1.629s-.99-16.329,16.928-14.356c0,0,5.406,4.7,6.792,14.053" transform="translate(-1941.561 -710.415)" fill="#fff"/>
        <path id="Path_938477" data-name="Path 938477" d="M2144.89,792.118h-8.534l-12.673-1.629a.191.191,0,0,1-.166-.178c0-.069-.364-6.927,4.158-11.232,2.97-2.828,7.338-3.946,12.981-3.325a.191.191,0,1,1-.042.379c-5.525-.608-9.789.475-12.674,3.22-4.018,3.823-4.071,9.741-4.048,10.778l12.5,1.607h8.5a.191.191,0,0,1,0,.382" transform="translate(-1939.568 -708.405)"/>
        <path id="Path_938478" data-name="Path 938478" d="M2231.131,885.233a.191.191,0,0,1-.189-.163,4.886,4.886,0,0,1,.64-3.056,8.33,8.33,0,0,1,2.052-2.333,2.776,2.776,0,0,1,.634-.418.191.191,0,1,1,.152.35,2.421,2.421,0,0,0-.544.364,7.954,7.954,0,0,0-1.961,2.225,4.5,4.5,0,0,0-.595,2.815.191.191,0,0,1-.161.216l-.028,0" transform="translate(-2037.659 -803.085)"/>
        <path id="Path_938479" data-name="Path 938479" d="M2184.258,872.887l-.027,0a.191.191,0,0,1-.163-.216,15.742,15.742,0,0,1,.868-3.612,7.1,7.1,0,0,1,2.181-3.032.191.191,0,1,1,.232.3,6.717,6.717,0,0,0-2.059,2.871,15.311,15.311,0,0,0-.844,3.524.191.191,0,0,1-.189.164" transform="translate(-1994.882 -790.974)"/>
        <path id="Path_938480" data-name="Path 938480" d="M2145.658,860.964a.191.191,0,0,1-.189-.168,9.71,9.71,0,0,1,2.609-7.813.191.191,0,1,1,.26.279,9.318,9.318,0,0,0-2.49,7.488.191.191,0,0,1-.167.212h-.023" transform="translate(-1959.563 -779.051)"/>
        <path id="Path_938481" data-name="Path 938481" d="M1736.539,938.759h46.227a1.361,1.361,0,0,0,.773-.225,1.335,1.335,0,0,0,.5-1.573c-.545-1.143-1.672-1.546-3.338-1.546h-47.2l.612,1.665a2.585,2.585,0,0,0,2.421,1.679" transform="translate(-1583.349 -854.389)"/>
        <path id="Path_938482" data-name="Path 938482" d="M1653.8,715.723l-8.264-20.74a1.832,1.832,0,0,1-.032-1.325,1.771,1.771,0,0,1,1.657-1.147h28.411a4.042,4.042,0,0,1,3.81,2.692l7.682,21.692h-31.532a1.863,1.863,0,0,1-1.73-1.173" transform="translate(-1502.874 -632.526)"/>
        <path id="Path_938483" data-name="Path 938483" d="M2350.6,777.158h0l-20.669-.392a.191.191,0,0,1,0-.382h0l20.668.392a.191.191,0,0,1,0,.382" transform="translate(-2127.936 -709.133)"/>
        <path id="Path_938484" data-name="Path 938484" d="M2443.661,681.637a.191.191,0,0,1-.182-.136,34.477,34.477,0,0,0-3.056-7.133c-.355-.625-.687-.911-1.041-.9a.191.191,0,1,1-.013-.381c.677-.018,1.113.612,1.385,1.091a34.825,34.825,0,0,1,3.09,7.212.191.191,0,0,1-.128.238.2.2,0,0,1-.055.008" transform="translate(-2227.901 -614.785)"/>
        <path id="Path_938485" data-name="Path 938485" d="M18.076,127.647a3.878,3.878,0,0,0,.062.465,15.747,15.747,0,0,0-4.211,2.081,3.859,3.859,0,1,0-5.043,5.761,15.766,15.766,0,0,0-1.507,4.45,3.906,3.906,0,0,0-.469,0,3.861,3.861,0,1,0,.973,7.642,15.762,15.762,0,0,0,2.079,4.213,3.859,3.859,0,1,0,5.756,5.047,15.735,15.735,0,0,0,4.447,1.508,3.911,3.911,0,0,0,0,.469,3.858,3.858,0,1,0,7.637-.975,15.74,15.74,0,0,0,4.211-2.081,3.859,3.859,0,1,0,5.044-5.761,15.764,15.764,0,0,0,1.507-4.451,3.859,3.859,0,1,0-.039-7.7,3.9,3.9,0,0,0-.465.062,15.758,15.758,0,0,0-2.079-4.213,3.859,3.859,0,1,0-5.756-5.047,15.733,15.733,0,0,0-4.447-1.508,3.857,3.857,0,1,0-7.7.04m12.041,15.091a7.164,7.164,0,1,1-7.62-6.681,7.169,7.169,0,0,1,7.62,6.681" transform="translate(-3.017 -112.831)" fill="#00bdff"/>
        <path id="Path_938486" data-name="Path 938486" d="M419.856,4.359a2.042,2.042,0,0,0,.032.244,8.244,8.244,0,0,0-2.205,1.09,2.045,2.045,0,0,0-.174-.174,2.022,2.022,0,1,0-2.468,3.191,8.262,8.262,0,0,0-.789,2.331,2.058,2.058,0,0,0-.246,0,2.022,2.022,0,0,0,.266,4.035,2.058,2.058,0,0,0,.244-.032,8.255,8.255,0,0,0,1.089,2.207,2.051,2.051,0,0,0-.174.174,2.021,2.021,0,1,0,3.04,2.665,2.05,2.05,0,0,0,.149-.2,8.246,8.246,0,0,0,2.329.79,2.02,2.02,0,1,0,4.032-.021,2.045,2.045,0,0,0-.032-.244,8.239,8.239,0,0,0,2.205-1.09,2.021,2.021,0,1,0,2.642-3.018,8.253,8.253,0,0,0,.789-2.331,2.021,2.021,0,1,0-.02-4.035,2.056,2.056,0,0,0-.244.032,8.254,8.254,0,0,0-1.089-2.207,2.021,2.021,0,1,0-2.866-2.839,1.989,1.989,0,0,0-.149.2,8.238,8.238,0,0,0-2.329-.79,2.02,2.02,0,1,0-4.032.021m6.307,7.9a3.752,3.752,0,1,1-3.991-3.5,3.755,3.755,0,0,1,3.991,3.5" transform="translate(-376.421 -2.013)" fill="#00bdff"/>
        <path id="Path_938487" data-name="Path 938487" d="M2462.631,1170.847a2.607,2.607,0,1,0,2.607-2.607,2.607,2.607,0,0,0-2.607,2.607" transform="translate(-2249.317 -1067.046)" fill="#fff"/>
        <path id="Path_938488" data-name="Path 938488" d="M2463.225,1171.634a2.8,2.8,0,1,1,2.8-2.8,2.8,2.8,0,0,1-2.8,2.8m0-5.214a2.416,2.416,0,1,0,2.416,2.416,2.419,2.419,0,0,0-2.416-2.416" transform="translate(-2247.303 -1065.035)"/>
        <path id="Path_938489" data-name="Path 938489" d="M2374.8,1170.847a2.607,2.607,0,1,0,2.607-2.607,2.607,2.607,0,0,0-2.607,2.607" transform="translate(-2169.09 -1067.046)" fill="#fff"/>
        <path id="Path_938490" data-name="Path 938490" d="M2375.392,1171.634a2.8,2.8,0,1,1,2.8-2.8,2.8,2.8,0,0,1-2.8,2.8m0-5.214a2.416,2.416,0,1,0,2.416,2.416,2.419,2.419,0,0,0-2.416-2.416" transform="translate(-2167.078 -1065.035)"/>
        <path id="Path_938491" data-name="Path 938491" d="M2286.962,1170.847a2.607,2.607,0,1,0,2.607-2.607,2.607,2.607,0,0,0-2.607,2.607" transform="translate(-2088.864 -1067.046)" fill="#fff"/>
        <path id="Path_938492" data-name="Path 938492" d="M2287.558,1171.634a2.8,2.8,0,1,1,2.8-2.8,2.8,2.8,0,0,1-2.8,2.8m0-5.214a2.416,2.416,0,1,0,2.416,2.416,2.419,2.419,0,0,0-2.416-2.416" transform="translate(-2086.853 -1065.035)"/>
        <path id="Path_938493" data-name="Path 938493" d="M2567.347,1030.216h-9.208a.191.191,0,0,1,0-.381h9.017v-15.58a.191.191,0,1,1,.381,0v15.771a.191.191,0,0,1-.191.191" transform="translate(-2336.377 -926.224)"/>
        <path id="Path_938494" data-name="Path 938494" d="M1945.165,1195.869H1930.91a.191.191,0,0,1,0-.381h14.255a.191.191,0,1,1,0,.381" transform="translate(-1763.479 -1091.933)"/>
        <path id="Path_938495" data-name="Path 938495" d="M2136.942,1195.869h-7.418a.191.191,0,0,1,0-.381h7.418a.191.191,0,1,1,0,.381" transform="translate(-1944.889 -1091.933)"/>
        <path id="Path_938496" data-name="Path 938496" d="M1938.825,1254.765h-7.915a.191.191,0,0,1,0-.381h7.915a.191.191,0,0,1,0,.381" transform="translate(-1763.479 -1145.729)"/>
        <path id="Path_938497" data-name="Path 938497" d="M2070.557,1254.765h-13.714a.191.191,0,1,1,0-.381h13.714a.191.191,0,1,1,0,.381" transform="translate(-1878.504 -1145.729)"/>
        <path id="Path_938498" data-name="Path 938498" d="M1737.585,1313.749h0l-45.291-.1a.191.191,0,0,1,0-.382h0l45.291.1a.191.191,0,0,1,0,.382" transform="translate(-1545.532 -1199.509)"/>
        <path id="Path_938499" data-name="Path 938499" d="M14.221,667.265H.191A.191.191,0,0,1,0,667.074V610.6a.191.191,0,0,1,.191-.191H21.44V601.09a.191.191,0,0,1,.382,0v9.51a.191.191,0,0,1-.191.191H.382v56.093H14.221a.191.191,0,0,1,0,.382" transform="translate(0 -548.849)"/>
        <path id="Path_938500" data-name="Path 938500" d="M1039.062,1633.024h-47.27a.191.191,0,0,1,0-.382h47.08v-17.917H975.364v18.108a.191.191,0,0,1-.191.191l-92.8,0a.191.191,0,1,1,0-.381l92.611,0v-18.108a.191.191,0,0,1,.191-.191h63.889a.191.191,0,0,1,.191.191v18.3a.191.191,0,0,1-.191.191" transform="translate(-805.766 -1474.509)"/>
        <rect id="Rectangle_448096" data-name="Rectangle 448096" width="63.889" height="22.19" transform="translate(173.818 131.958)" fill="#e2eaff"/>
        <path id="Path_938501" data-name="Path 938501" d="M1737.585,1451.008a.191.191,0,0,1-.191-.191v-4.923l-45.1-.1a.191.191,0,0,1,0-.382h0l45.291.1a.191.191,0,0,1,.19.191v5.114a.191.191,0,0,1-.191.191" transform="translate(-1545.532 -1320.208)"/>
      </g>
    </g>
  </g>
</svg>
