<svg xmlns="http://www.w3.org/2000/svg" width="50" height="50.343" viewBox="0 0 50 50.343">
  <g id="Group_1172530" data-name="Group 1172530" transform="translate(-1.744)">
    <path id="Path_947284" data-name="Path 947284" d="M48.753,8.781a3.856,3.856,0,0,0-2.9-2.9,3.855,3.855,0,0,0-2.894-2.9A3.851,3.851,0,0,0,39.216,0H21.944a4.588,4.588,0,0,0-3.266,1.353l-.022.023-6.3,6.3A4.6,4.6,0,0,0,11,10.946V25.5a11.708,11.708,0,0,0,.623,11.312L10.4,38.038a2.444,2.444,0,0,0-2.521.579l-5.42,5.421a2.442,2.442,0,0,0,0,3.454L4.6,49.629a2.445,2.445,0,0,0,3.454,0L10.6,47.076a.737.737,0,0,0-1.043-1.043L7.007,48.586a.969.969,0,0,1-1.368,0L3.5,46.449a.967.967,0,0,1,0-1.368l5.42-5.421a.97.97,0,0,1,1.369,0L12.428,41.8a.97.97,0,0,1,0,1.369l-.782.782a.737.737,0,1,0,1.043,1.043l.782-.782a2.444,2.444,0,0,0,.579-2.521l1.223-1.223A11.6,11.6,0,0,0,19.045,42a3.813,3.813,0,0,0,.736.249,3.852,3.852,0,0,0,3.747,2.99H47.9a3.848,3.848,0,0,0,3.843-3.844V12.528a3.851,3.851,0,0,0-2.991-3.747ZM43.059,32.707V4.57a2.375,2.375,0,0,1,1.415,2.018c0,.046,0,.095,0,.15V35.6a2.37,2.37,0,0,1-2.368,2.368H30.527a11.593,11.593,0,0,0,.993-1.42h7.7A3.848,3.848,0,0,0,43.059,32.707ZM19.649,2.469a3.014,3.014,0,0,0-.049.54V6.232A2.37,2.37,0,0,1,17.232,8.6H14.009a3.012,3.012,0,0,0-.542.05Zm-7.175,9.156c0-.006,0-.011,0-.017a1.535,1.535,0,0,1,1.534-1.534h3.223a3.847,3.847,0,0,0,3.843-3.843V3.009a1.535,1.535,0,0,1,1.534-1.534H39.216a2.372,2.372,0,0,1,2.363,2.218c0,.045,0,.094,0,.15V32.707a2.371,2.371,0,0,1-2.368,2.369H32.258A11.662,11.662,0,0,0,13.244,22.351q-.41.41-.77.849Zm1.813,11.769a10.188,10.188,0,1,1,0,14.407,10.155,10.155,0,0,1,0-14.407Zm-1.1,17.074L11.62,38.9l.879-.879q.35.423.745.819t.819.745Zm37.085.925A2.371,2.371,0,0,1,47.9,43.761H23.529a2.374,2.374,0,0,1-2.171-1.421H45.006A3.847,3.847,0,0,0,48.849,38.5V17.181a.737.737,0,1,0-1.475,0V38.5a2.371,2.371,0,0,1-2.369,2.368H27.022a11.59,11.59,0,0,0,2.067-1.42H42.111A3.847,3.847,0,0,0,45.953,35.6V7.463a2.373,2.373,0,0,1,1.421,2.17v4.6a.737.737,0,1,0,1.475,0V10.359a2.374,2.374,0,0,1,1.42,2.169V41.393Z" fill="#6003fe"/>
    <path id="Path_947285" data-name="Path 947285" d="M125.016,242.053a8.461,8.461,0,1,0-5.983-2.478A8.406,8.406,0,0,0,125.016,242.053Zm-4.94-13.4a6.986,6.986,0,1,1,0,9.88A6.94,6.94,0,0,1,120.076,228.652Z" transform="translate(-103.526 -202.994)" fill="#6003fe"/>
    <path id="Path_947286" data-name="Path 947286" d="M135.774,121.471a.738.738,0,0,0,.952-.427l.278-.729h1.941l.274.727a.737.737,0,1,0,1.38-.521l-1.825-4.835-.008-.02a.846.846,0,0,0-.785-.526h0a.846.846,0,0,0-.785.527l-.007.017-1.842,4.835A.737.737,0,0,0,135.774,121.471Zm2.613-2.631h-.822l.413-1.084Z" transform="translate(-120.422 -103.818)" fill="#6003fe"/>
    <path id="Path_947287" data-name="Path 947287" d="M314.243,121.519a.737.737,0,0,0,.737-.737v-4.9a.737.737,0,0,0-1.475,0v4.9A.737.737,0,0,0,314.243,121.519Z" transform="translate(-281.107 -103.818)" fill="#6003fe"/>
    <path id="Path_947288" data-name="Path 947288" d="M255.574,120.784a.738.738,0,0,0,.737.735h0c.042,0,1.033,0,1.43-.011a2.888,2.888,0,0,0,2.664-3.178c0-1.908-1.092-3.189-2.718-3.189H256.3a.737.737,0,0,0-.737.739s0,1.886,0,2.445c0,.682.006,2.46.006,2.46Zm2.116-4.169c1.153,0,1.243,1.312,1.243,1.714,0,.837-.376,1.689-1.215,1.7-.157,0-.417.005-.672.007,0-.57,0-1.324,0-1.716,0-.329,0-1.116,0-1.709Z" transform="translate(-228.862 -103.818)" fill="#6003fe"/>
    <path id="Path_947289" data-name="Path 947289" d="M197.068,121.144a2.382,2.382,0,0,0,1.3.375h0a2.507,2.507,0,0,0,1.139-.264,2.2,2.2,0,0,0,1.33-2.006v-3.371a.737.737,0,0,0-1.475,0v3.371c0,.212-.062.459-.518.689a1.033,1.033,0,0,1-.475.106h0a.918.918,0,0,1-.508-.142c-.357-.228-.429-.418-.429-.649v-3.374a.737.737,0,1,0-1.475,0v3.374A2.166,2.166,0,0,0,197.068,121.144Z" transform="translate(-175.117 -103.818)" fill="#6003fe"/>
    <path id="Path_947290" data-name="Path 947290" d="M340.681,116.615h.611v4.166a.737.737,0,1,0,1.475,0v-4.166h.622a.737.737,0,0,0,0-1.475h-2.708a.737.737,0,0,0,0,1.475Z" transform="translate(-304.945 -103.818)" fill="#6003fe"/>
    <path id="Path_947291" data-name="Path 947291" d="M150.859,273.7c.056,0,.111,0,.167-.006a2.3,2.3,0,0,0,1.836-1.163l3.445-6.1a2.3,2.3,0,1,0-4.006-2.262l-1.744,3.087-.494-.636a2.3,2.3,0,1,0-3.636,2.819l2.613,3.371A2.315,2.315,0,0,0,150.859,273.7Zm-3.118-6.323a.825.825,0,0,1,1.158.147l1.173,1.513a.737.737,0,0,0,1.225-.089l2.289-4.053a.825.825,0,0,1,1.437.812l-3.445,6.1a.825.825,0,0,1-1.371.1l-2.613-3.371A.826.826,0,0,1,147.741,267.373Z" transform="translate(-130.024 -237.137)" fill="#6003fe"/>
  </g>
</svg>
