<svg xmlns="http://www.w3.org/2000/svg" width="100" height="100" viewBox="0 0 100 100">
  <g id="Group_1169248" data-name="Group 1169248" transform="translate(-637 -6992)">
    <g id="Group_1098742" data-name="Group 1098742" transform="translate(637.242 6992)">
      <rect id="Rectangle_400898" data-name="Rectangle 400898" width="100" height="100" rx="50" transform="translate(-0.242)" fill="#fff" opacity="0.859"/>
      <g id="Rectangle_400907" data-name="Rectangle 400907" transform="translate(-0.242)" fill="none" stroke="#00bdff" stroke-linecap="round" stroke-width="3" stroke-dasharray="0 7">
        <rect width="100" height="100" rx="50" stroke="none"/>
        <rect x="1.5" y="1.5" width="97" height="97" rx="48.5" fill="none"/>
      </g>
    </g>
    <g id="Group_1107006" data-name="Group 1107006" transform="translate(645.398 7000.157)">
      <rect id="Rectangle_400898-2" data-name="Rectangle 400898" width="84" height="84" rx="42" transform="translate(-0.399 -0.157)" fill="#6003fe" opacity="0.859"/>
      <rect id="Rectangle_400907-2" data-name="Rectangle 400907" width="84" height="84" rx="42" transform="translate(-0.398 -0.157)" fill="none"/>
    </g>
    <g id="Group_1172277" data-name="Group 1172277" transform="translate(631.841 7006.756)">
      <g id="Group_1172276" data-name="Group 1172276" transform="translate(28.371 5.722)">
        <path id="Path_943689" data-name="Path 943689" d="M61.032,21.031a10.926,10.926,0,0,1,21.8,1.541,10.37,10.37,0,0,1,0,20.741H48.967a7.517,7.517,0,0,1,0-15.034,7.31,7.31,0,0,1,12.065-7.248Z" transform="translate(-40.565 -10.993)" fill="#2a93fc" fill-rule="evenodd"/>
        <path id="Path_943690" data-name="Path 943690" d="M109.105,39.926a10.37,10.37,0,0,1,0,20.741H78.843a7.517,7.517,0,0,1,0-15.034c-1.171-7.524,7.442-9.073,10.206-4.795C90.544,27.119,108.27,27.893,109.105,39.926Z" transform="translate(-66.841 -28.347)" fill="#5caeff" fill-rule="evenodd"/>
        <path id="Path_943691" data-name="Path 943691" d="M108.337,392.709a2.235,2.235,0,1,0-2.235-2.235A2.24,2.24,0,0,0,108.337,392.709Z" transform="translate(-97.375 -342.784)" fill="#2dd62d" fill-rule="evenodd"/>
        <circle id="Ellipse_13640" data-name="Ellipse 13640" cx="1.898" cy="1.898" r="1.898" transform="translate(0 41.743)" fill="#2dd62d"/>
        <path id="Path_943692" data-name="Path 943692" d="M371.1,392.709a2.235,2.235,0,1,0-2.235-2.235A2.24,2.24,0,0,0,371.1,392.709Z" transform="translate(-328.474 -342.784)" fill="#2dd62d" fill-rule="evenodd"/>
        <circle id="Ellipse_13641" data-name="Ellipse 13641" cx="1.898" cy="1.898" r="1.898" transform="translate(49.788 41.743)" fill="#2dd62d"/>
        <g id="Group_1172275" data-name="Group 1172275" transform="translate(14.136 8.179)">
          <path id="Path_943693" data-name="Path 943693" d="M284.24,82.669a1.9,1.9,0,1,0-1.9-1.9A1.9,1.9,0,0,0,284.24,82.669Z" transform="translate(-266.516 -78.873)" fill="#fff" fill-rule="evenodd"/>
          <path id="Path_943694" data-name="Path 943694" d="M239.716,468.338a2.235,2.235,0,1,0-2.235-2.235A2.24,2.24,0,0,0,239.716,468.338Z" transform="translate(-227.06 -417.48)" fill="#2dd62d" fill-rule="evenodd"/>
          <path id="Path_943695" data-name="Path 943695" d="M166.252,177.029l2.693,1.117L171.1,176.7l2.979,2.979-1.445,2.155,1.117,2.693,2.544.5v4.213l-2.544.5-1.117,2.693,1.445,2.155-2.979,2.979-2.155-1.445-2.693,1.117-.5,2.544h-4.213l-.5-2.544-2.693-1.117-2.155,1.445-2.979-2.979,1.445-2.155-1.117-2.693-2.544-.5V185.03l2.544-.5,1.117-2.693-1.445-2.155,2.979-2.979,2.155,1.445,2.693-1.117.5-2.544h4.213Z" transform="translate(-150.992 -162.965)" fill="#e68207" fill-rule="evenodd"/>
          <path id="Path_943696" data-name="Path 943696" d="M173.941,177.029l2.693,1.117,2.155-1.445,2.979,2.979-1.445,2.155,1.117,2.693,2.544.5v4.213l-2.544.5-1.117,2.693,1.445,2.155-2.979,2.979-2.155-1.445-2.693,1.117-.5,2.544h-3.16l-.5-2.544-3.344-1.387-1.484,1-.443.3-2.556-2.556,1.445-2.155-1.117-2.693-2.544-.5V185.03l2.544-.5,1.117-2.693-1.445-2.155,2.556-2.556.443.3,1.484,1,3.344-1.387.5-2.544h3.16Z" transform="translate(-158.682 -162.965)" fill="#fda02f" fill-rule="evenodd"/>
        </g>
        <circle id="Ellipse_13642" data-name="Ellipse 13642" cx="6.622" cy="6.622" r="6.622" transform="translate(20.411 38.473) rotate(-85.755)" fill="#e68207"/>
        <circle id="Ellipse_13643" data-name="Ellipse 13643" cx="6.622" cy="6.622" r="6.622" transform="matrix(0.873, -0.487, 0.487, 0.873, 17.768, 29.783)" fill="#fff"/>
      </g>
      <path id="Path_943697" data-name="Path 943697" d="M55.159,43.931a5.884,5.884,0,1,1,5.884-5.884A5.89,5.89,0,0,1,55.159,43.931Zm0-13.213a7.33,7.33,0,1,0,7.33,7.329,7.338,7.338,0,0,0-7.33-7.329Zm12.877-16.25a.723.723,0,1,1-1.4.374,7.382,7.382,0,0,0-6.839-5.4A.723.723,0,1,1,59.893,8,8.807,8.807,0,0,1,68.035,14.468ZM80.884,50.2a1.176,1.176,0,1,1,.344-.831A1.177,1.177,0,0,1,80.884,50.2ZM72.5,53.415A1.512,1.512,0,1,1,70.989,51.9,1.514,1.514,0,0,1,72.5,53.415ZM59.052,15.8a1.175,1.175,0,1,0,1.175-1.176A1.176,1.176,0,0,0,59.052,15.8Zm8.869,19.433a.723.723,0,0,1,.583.709v1.379h2.132a9.649,9.649,0,1,0,0-19.3.723.723,0,0,1-.721-.766,10.205,10.205,0,0,0-20.358-1.44.723.723,0,0,1-1.206.476,6.858,6.858,0,0,0-6.095-1.615A6.471,6.471,0,0,0,38.3,17.67a6.816,6.816,0,0,0-.827,5.164.723.723,0,0,1-.7.9,6.8,6.8,0,0,0,0,13.591h5.039V35.946a.723.723,0,0,1,.583-.709l2.158-.425.818-1.972-1.226-1.829a.722.722,0,0,1,.089-.914l2.972-2.972a.723.723,0,0,1,.914-.089l1.828,1.226,1.972-.818.426-2.158a.723.723,0,0,1,.709-.583h1.379V20.871a.724.724,0,0,1,.212-.511l3.287-3.287a2.624,2.624,0,1,1,1.022,1.022L55.882,21.17V24.7h1.379a.723.723,0,0,1,.709.583l.426,2.158,1.972.818L62.2,27.036a.723.723,0,0,1,.914.089L66.081,30.1a.723.723,0,0,1,.089.914l-1.226,1.829.818,1.972,2.158.425Zm-.863,4.318V36.54L65.1,36.154a.722.722,0,0,1-.528-.432L63.46,33.035a.724.724,0,0,1,.067-.68L64.638,30.7l-2.131-2.132-1.656,1.111a.722.722,0,0,1-.68.067l-2.687-1.115a.722.722,0,0,1-.433-.528l-.385-1.955H53.652L53.266,28.1a.722.722,0,0,1-.432.528l-2.687,1.115a.722.722,0,0,1-.68-.067l-1.656-1.111L45.679,30.7l1.111,1.656a.723.723,0,0,1,.067.68l-1.115,2.687a.722.722,0,0,1-.528.432l-1.955.386v3.015l1.955.385a.723.723,0,0,1,.528.433l1.115,2.687a.723.723,0,0,1-.067.68L45.679,45.4l2.132,2.131,1.656-1.111a.722.722,0,0,1,.68-.067l2.687,1.115a.721.721,0,0,1,.432.528l.386,1.955h3.014l.385-1.955a.722.722,0,0,1,.433-.528l2.687-1.115a.722.722,0,0,1,.68.067l1.656,1.111L64.638,45.4l-1.111-1.657a.722.722,0,0,1-.067-.68l1.115-2.687a.723.723,0,0,1,.528-.433ZM56.671,62.528a1.512,1.512,0,1,1-1.512-1.513A1.514,1.514,0,0,1,56.671,62.528Zm-15.83-9.113A1.512,1.512,0,1,1,39.329,51.9,1.514,1.514,0,0,1,40.841,53.415Zm-9.4-4.049a1.174,1.174,0,1,1-.344-.831A1.168,1.168,0,0,1,31.44,49.367Zm50.466-1.853a2.6,2.6,0,0,0-1.13-.664V42.2a.721.721,0,0,0-.212-.511l-4.4-4.4a11.093,11.093,0,0,0-4.788-20.686,11.652,11.652,0,0,0-23.09-2.175,8.3,8.3,0,0,0-6.366-1.155,7.923,7.923,0,0,0-4.862,3.645A8.345,8.345,0,0,0,35.9,22.339a8.237,8.237,0,0,0-2.487,15.685l-3.664,3.664a.721.721,0,0,0-.212.511v4.65a2.625,2.625,0,1,0,1.446,0V42.5l3.951-3.951a8.22,8.22,0,0,0,1.83.223h1.837V50.547a2.958,2.958,0,1,0,1.446,0V38.771h1.762v1.379a.723.723,0,0,0,.583.709l2.158.426.818,1.971-1.226,1.828a.722.722,0,0,0,.089.914l2.972,2.973a.723.723,0,0,0,.914.089l1.828-1.226,1.972.818.426,2.159a.723.723,0,0,0,.709.583h1.379V59.66a2.958,2.958,0,1,0,1.446,0V51.393H57.26a.723.723,0,0,0,.709-.583l.426-2.159,1.972-.818L62.2,49.059a.723.723,0,0,0,.914-.089L66.081,46a.723.723,0,0,0,.089-.914l-1.226-1.828.818-1.971,2.158-.426a.723.723,0,0,0,.583-.709V38.771h1.762V50.547a2.958,2.958,0,1,0,1.446,0V38.718a11.022,11.022,0,0,0,3.081-.756L79.33,42.5v4.35a2.619,2.619,0,1,0,2.576.665Z" fill-rule="evenodd"/>
    </g>
  </g>
</svg>
