<svg xmlns="http://www.w3.org/2000/svg" width="100" height="100" viewBox="0 0 100 100">
  <g id="Group_1169251" data-name="Group 1169251" transform="translate(-637 -6992)">
    <g id="Group_1098742" data-name="Group 1098742" transform="translate(637.242 6992)">
      <rect id="Rectangle_400898" data-name="Rectangle 400898" width="100" height="100" rx="50" transform="translate(-0.242)" fill="#fff" opacity="0.859"/>
      <g id="Rectangle_400907" data-name="Rectangle 400907" transform="translate(-0.242)" fill="none" stroke="#00bdff" stroke-linecap="round" stroke-width="3" stroke-dasharray="0 7">
        <rect width="100" height="100" rx="50" stroke="none"/>
        <rect x="1.5" y="1.5" width="97" height="97" rx="48.5" fill="none"/>
      </g>
    </g>
    <g id="Group_1107006" data-name="Group 1107006" transform="translate(645.398 7000.157)">
      <rect id="Rectangle_400898-2" data-name="Rectangle 400898" width="84" height="84" rx="42" transform="translate(-0.399 -0.157)" fill="#6003fe" opacity="0.859"/>
      <rect id="Rectangle_400907-2" data-name="Rectangle 400907" width="84" height="84" rx="42" transform="translate(-0.398 -0.157)" fill="none"/>
    </g>
    <g id="Group_1172310" data-name="Group 1172310" transform="translate(651.267 7006.258)">
      <g id="Group_1172308" data-name="Group 1172308" transform="translate(8.887 8.896)">
        <g id="Group_1172295" data-name="Group 1172295" transform="translate(0 8.923)">
          <g id="Group_1172287" data-name="Group 1172287" transform="translate(16.877 32.029)">
            <path id="Path_943732" data-name="Path 943732" d="M166.872,382.1h15.47v9.155h-15.47Z" transform="translate(-166.872 -382.104)" fill="#a79ba7" fill-rule="evenodd"/>
          </g>
          <g id="Group_1172288" data-name="Group 1172288" transform="translate(31.012 32.029)">
            <path id="Path_943733" data-name="Path 943733" d="M293.243,382.1h1.334v9.155h-1.334Z" transform="translate(-293.243 -382.104)" fill="#837683" fill-rule="evenodd"/>
          </g>
          <g id="Group_1172289" data-name="Group 1172289" transform="translate(7.89 39.613)">
            <path id="Path_943734" data-name="Path 943734" d="M87.044,455.058h32.419a.514.514,0,0,0,.513-.513v-2.066c0-1.418-1.452-2.578-3.227-2.578H89.758c-1.775,0-3.227,1.16-3.227,2.578v2.066A.514.514,0,0,0,87.044,455.058Z" transform="translate(-86.531 -449.901)" fill="#eceff1" fill-rule="evenodd"/>
          </g>
          <g id="Group_1172290" data-name="Group 1172290" transform="translate(7.89 40.126)">
            <path id="Path_943735" data-name="Path 943735" d="M87.044,459.128h32.419a.514.514,0,0,0,.513-.513V456.55a2.456,2.456,0,0,0-1.3-2.066,2.128,2.128,0,0,1,.276,1.04v2.066a.514.514,0,0,1-.513.513H86.531v.513a.514.514,0,0,0,.513.513Z" transform="translate(-86.531 -454.484)" fill="#d1d1d6" fill-rule="evenodd"/>
          </g>
          <g id="Group_1172291" data-name="Group 1172291">
            <path id="Path_943736" data-name="Path 943736" d="M19.784,95.771H61.439a3.8,3.8,0,0,1,3.784,3.784v26.033a3.8,3.8,0,0,1-3.784,3.784H19.784A3.8,3.8,0,0,1,16,125.588V99.555A3.8,3.8,0,0,1,19.784,95.771Z" transform="translate(-16 -95.771)" fill="#eceff1" fill-rule="evenodd"/>
          </g>
          <g id="Group_1172292" data-name="Group 1172292" transform="translate(0.648 0.648)">
            <path id="Path_943737" data-name="Path 943737" d="M68.692,101.562a3.788,3.788,0,0,1,1.673,3.136v26.033a3.8,3.8,0,0,1-3.784,3.784H24.926a3.788,3.788,0,0,1-3.136-1.673,3.756,3.756,0,0,0,2.111.648H65.556a3.8,3.8,0,0,0,3.784-3.784V103.673A3.756,3.756,0,0,0,68.692,101.562Z" transform="translate(-21.79 -101.562)" fill="#d1d1d6" fill-rule="evenodd"/>
          </g>
          <g id="Group_1172293" data-name="Group 1172293" transform="translate(3.164 3.164)">
            <path id="Path_943738" data-name="Path 943738" d="M44.813,124.06H86.658a.526.526,0,0,1,.525.525v23.537H44.288V124.585a.526.526,0,0,1,.525-.525Z" transform="translate(-44.288 -124.06)" fill="#d8ecfe" fill-rule="evenodd"/>
          </g>
          <g id="Group_1172294" data-name="Group 1172294" transform="translate(43.917 3.164)">
            <path id="Path_943739" data-name="Path 943739" d="M408.6,124.06h1.617a.526.526,0,0,1,.525.525v23.538H408.6Z" transform="translate(-408.603 -124.06)" fill="#c4e2ff" fill-rule="evenodd"/>
          </g>
        </g>
        <g id="Group_1172300" data-name="Group 1172300" transform="translate(13.733 0)">
          <g id="Group_1172296" data-name="Group 1172296" transform="translate(0)">
            <path id="Path_943740" data-name="Path 943740" d="M151.679,17.783a9.19,9.19,0,0,1,2.691,1.116l1.749-.777,2.061,2.061L157.4,21.93a9.192,9.192,0,0,1,1.116,2.692l1.784.687v2.914l-1.784.687A9.19,9.19,0,0,1,157.4,31.6l.777,1.749-2.061,2.061-1.748-.776a9.188,9.188,0,0,1-2.692,1.116l-.687,1.784h-2.914l-.687-1.784a9.191,9.191,0,0,1-2.691-1.116l-1.748.777-2.061-2.061.776-1.748a9.191,9.191,0,0,1-1.116-2.692l-1.784-.687V25.309l1.784-.687a9.192,9.192,0,0,1,1.116-2.691l-.776-1.748,2.061-2.061,1.749.777a9.19,9.19,0,0,1,2.691-1.116L148.078,16h2.914Z" transform="translate(-138.767 -15.998)" fill="#ffe177" fill-rule="evenodd"/>
          </g>
          <g id="Group_1172297" data-name="Group 1172297" transform="translate(3.923 0)">
            <path id="Path_943741" data-name="Path 943741" d="M186.681,18.383l.587-.261,2.061,2.061-.776,1.748a9.191,9.191,0,0,1,1.116,2.692l1.784.687v2.914l-1.784.687a9.191,9.191,0,0,1-1.116,2.691l.777,1.748-2.061,2.061-.587-.261,1.8-1.8L187.7,31.6a9.193,9.193,0,0,0,1.116-2.691l1.784-.687V25.309l-1.784-.687a9.194,9.194,0,0,0-1.116-2.692l.776-1.748Zm-12.84,0,.261-.261,1.749.777q-.185.1-.366.214Zm8.988-.6a9.19,9.19,0,0,1,2.691,1.116l-.482.214a12.024,12.024,0,0,0-3.057-1.33L181.294,16h.848Zm-6.979,16.851-1.748.777-.261-.261,1.643-.73Q175.664,34.532,175.849,34.634Zm9.67,0a9.19,9.19,0,0,1-2.692,1.116l-.687,1.784h-.848l.687-1.784a12.019,12.019,0,0,0,3.058-1.33Z" transform="translate(-173.84 -15.999)" fill="#ffd064" fill-rule="evenodd"/>
          </g>
          <g id="Group_1172298" data-name="Group 1172298" transform="translate(4.006 4.01)">
            <circle id="Ellipse_13645" data-name="Ellipse 13645" cx="5.774" cy="5.774" r="5.774" transform="translate(0 2.182) rotate(-10.894)" fill="#eceff1"/>
          </g>
          <g id="Group_1172299" data-name="Group 1172299" transform="translate(4.994 4.994)">
            <path id="Path_943742" data-name="Path 943742" d="M189.185,60.644c.131,0,.262,0,.391.013a5.773,5.773,0,0,0,0,11.52c-.129.009-.26.013-.391.013a5.774,5.774,0,1,1,0-11.547Z" transform="translate(-183.411 -60.644)" fill="#d1d1d6" fill-rule="evenodd"/>
          </g>
        </g>
        <g id="Group_1172303" data-name="Group 1172303" transform="translate(10.006 23.498)">
          <g id="Group_1172301" data-name="Group 1172301" transform="translate(0 0)">
            <path id="Path_943743" data-name="Path 943743" d="M112.514,231.875a4.031,4.031,0,0,1-3.715,2.568,3.98,3.98,0,0,1-3.291-1.773.336.336,0,0,1,.278-.525h3.468l1.05-1.892-1.05-1.892h-3.468a.336.336,0,0,1-.278-.525,3.98,3.98,0,0,1,3.291-1.773,4.031,4.031,0,0,1,3.715,2.568h14.858a4.031,4.031,0,0,1,3.715-2.568,3.98,3.98,0,0,1,3.291,1.773.336.336,0,0,1-.278.525h-3.468l-1.05,1.892,1.05,1.892H134.1a.336.336,0,0,1,.278.525,3.979,3.979,0,0,1-3.291,1.773,4.031,4.031,0,0,1-3.715-2.568H112.514Z" transform="translate(-105.448 -226.064)" fill="#9facba" fill-rule="evenodd"/>
          </g>
          <g id="Group_1172302" data-name="Group 1172302" transform="translate(2.79)">
            <path id="Path_943744" data-name="Path 943744" d="M134.669,231.873a4.031,4.031,0,0,1-3.715,2.568,3.915,3.915,0,0,1-.56-.04,4.061,4.061,0,0,0,3.156-2.528h1.119Zm-4.275-5.771a3.915,3.915,0,0,1,.56-.04,4.031,4.031,0,0,1,3.715,2.568H133.55A4.061,4.061,0,0,0,130.394,226.1Zm22.29,0a3.906,3.906,0,0,1,.559-.04,3.98,3.98,0,0,1,3.291,1.773.336.336,0,0,1-.278.525h-1.118a.336.336,0,0,0,.277-.525A4.008,4.008,0,0,0,152.684,226.1Zm.1,2.257h-1.119l-1.05,1.892,1.05,1.892h1.119l-1.05-1.892Zm2.35,3.784h1.119a.336.336,0,0,1,.278.525,3.979,3.979,0,0,1-3.291,1.773,3.905,3.905,0,0,1-.559-.04,4.007,4.007,0,0,0,2.731-1.732.336.336,0,0,0-.278-.525Z" transform="translate(-130.394 -226.062)" fill="#8d9ca8" fill-rule="evenodd"/>
          </g>
        </g>
        <g id="Group_1172307" data-name="Group 1172307" transform="translate(32.989 25.199)">
          <g id="Group_1172304" data-name="Group 1172304">
            <path id="Path_943745" data-name="Path 943745" d="M319.03,242.519a2.5,2.5,0,0,1,4.329,0l7.776,13.468a2.5,2.5,0,0,1-2.164,3.749H313.419a2.5,2.5,0,0,1-2.164-3.749Z" transform="translate(-310.916 -241.269)" fill="#ffe177" fill-rule="evenodd"/>
          </g>
          <g id="Group_1172305" data-name="Group 1172305" transform="translate(9.088 4.069)">
            <path id="Path_943746" data-name="Path 943746" d="M393.351,288.139a1.191,1.191,0,1,0,1.191,1.191A1.191,1.191,0,0,0,393.351,288.139Zm0-2.126a.93.93,0,0,0,.929-.9l.235-6.507a.93.93,0,0,0-.929-.963h-.47a.93.93,0,0,0-.929.963l.235,6.507A.93.93,0,0,0,393.351,286.013Z" transform="translate(-392.16 -277.647)" fill="#fe646f" fill-rule="evenodd"/>
          </g>
          <g id="Group_1172306" data-name="Group 1172306" transform="translate(9.776 0)">
            <path id="Path_943747" data-name="Path 943747" d="M398.315,241.319a2.553,2.553,0,0,1,.5-.05,2.475,2.475,0,0,1,2.164,1.25l7.776,13.468a2.5,2.5,0,0,1-2.164,3.749h-1a2.5,2.5,0,0,0,2.164-3.749l-7.776-13.468A2.471,2.471,0,0,0,398.315,241.319Z" transform="translate(-398.315 -241.269)" fill="#ffd064" fill-rule="evenodd"/>
          </g>
        </g>
      </g>
      <g id="Group_1172309" data-name="Group 1172309" transform="translate(7.991 8.002)">
        <path id="Path_943748" data-name="Path 943748" d="M51.847,49.527a.2.2,0,1,1,.2-.2A.2.2,0,0,1,51.847,49.527Zm0-2.191a1.99,1.99,0,1,0,1.991,1.99A1.992,1.992,0,0,0,51.847,47.336Zm.176-7.864-.176,4.85-.174-4.85Zm-.176,7.7A1.744,1.744,0,0,0,53.6,45.482l.216-5.987a1.749,1.749,0,0,0-1.75-1.813h-.432A1.751,1.751,0,0,0,49.882,39.5l.216,5.987A1.745,1.745,0,0,0,51.847,47.169Zm9.516,3.541a2.359,2.359,0,0,0,0-2.372L54.208,35.947a2.372,2.372,0,0,0-4.109,0L42.945,48.338A2.372,2.372,0,0,0,45,51.9H59.31A2.355,2.355,0,0,0,61.363,50.711ZM26.657,56.538V52.316h13.68v4.221Zm22.668,3.473v1.684H17.671V60.011c0-.912,1.067-1.683,2.332-1.683H46.992C48.256,58.328,49.325,59.1,49.325,60.011ZM9.781,47.637V21.6a2.892,2.892,0,0,1,2.888-2.89h9.054v1.375H12.574a1.422,1.422,0,0,0-1.42,1.419V45.046a.9.9,0,0,0,.895.895H42.261l-.867,1.5a4.116,4.116,0,0,0-.437,3.083H12.669a2.892,2.892,0,0,1-2.888-2.89ZM24.724,18.355l-1.211.466v1.686l1.21.465a.894.894,0,0,1,.549.628A8.289,8.289,0,0,0,26.28,24.03a.9.9,0,0,1,.056.832l-.527,1.187L27,27.242l1.187-.528a.9.9,0,0,1,.832.056,8.3,8.3,0,0,0,2.429,1.008.9.9,0,0,1,.628.548l.466,1.211h1.685l.466-1.21a.9.9,0,0,1,.628-.549,8.3,8.3,0,0,0,2.429-1.007.893.893,0,0,1,.833-.056l1.186.527,1.192-1.192-.526-1.187a.894.894,0,0,1,.054-.832A8.278,8.278,0,0,0,41.5,21.6a.9.9,0,0,1,.549-.629l1.211-.466V18.822l-1.211-.466a.9.9,0,0,1-.549-.628A8.3,8.3,0,0,0,40.492,15.3a.89.89,0,0,1-.056-.832l.526-1.187L39.77,12.087l-1.187.528a.9.9,0,0,1-.832-.056,8.244,8.244,0,0,0-2.428-1.007.9.9,0,0,1-.629-.55l-.466-1.211H32.543L32.077,11a.9.9,0,0,1-.628.55,8.255,8.255,0,0,0-2.429,1.007.9.9,0,0,1-.832.056L27,12.087l-1.191,1.193.527,1.187a.9.9,0,0,1-.056.832,8.3,8.3,0,0,0-1.008,2.429A.892.892,0,0,1,24.724,18.355ZM48.981,34.437a4.115,4.115,0,0,1,3.172-1.467,4.164,4.164,0,0,1,1.9.451V21.879H44.625a.8.8,0,0,1-.151.077l-1.357.522a10.062,10.062,0,0,1-.86,2.076l.591,1.33a.9.9,0,0,1-.185,1L40.6,28.941a.893.893,0,0,1-1,.185l-1.33-.591a10.03,10.03,0,0,1-2.076.86l-.522,1.357a.894.894,0,0,1-.835.574H31.928a.9.9,0,0,1-.834-.574L30.571,29.4a10.038,10.038,0,0,1-2.075-.86l-1.331.591a.9.9,0,0,1-1-.185l-2.06-2.06a.9.9,0,0,1-.186-1l.591-1.33a10.1,10.1,0,0,1-.86-2.076L22.3,21.956a.838.838,0,0,1-.151-.077h-9.2V44.151H43.3l1.438-2.49c-.068,0-.135.006-.2.006A4.887,4.887,0,0,1,40.25,39.1H26.52a4.854,4.854,0,0,1-8.679-.233.9.9,0,0,1,.8-1.288h3.524l.553-1-.553-1H18.646a.894.894,0,0,1-.8-1.286,4.852,4.852,0,0,1,8.679-.233H40.25a4.853,4.853,0,0,1,8.679.233.892.892,0,0,1,.051.138Zm-1.893,3.143H44.6l-.553-1,.553-1h3.524a.9.9,0,0,0,.119-.007Zm-1.111,1.926a3.008,3.008,0,0,1-1.447.372,3.132,3.132,0,0,1-2.886-2.008.893.893,0,0,0-.829-.559H25.957a.893.893,0,0,0-.83.559,3.132,3.132,0,0,1-2.886,2.008,3.016,3.016,0,0,1-1.675-.508H22.7a.9.9,0,0,0,.783-.46l1.05-1.893a.894.894,0,0,0,0-.868l-1.05-1.893A.9.9,0,0,0,22.7,33.8h-2.13a3.021,3.021,0,0,1,1.675-.508A3.132,3.132,0,0,1,25.127,35.3a.9.9,0,0,0,.83.559H40.815a.9.9,0,0,0,.829-.559,3.133,3.133,0,0,1,2.886-2.009A3.02,3.02,0,0,1,46.2,33.8H44.075a.893.893,0,0,0-.782.461L42.242,36.15a.888.888,0,0,0,0,.868l1.051,1.893a.892.892,0,0,0,.782.46h1.981ZM57.215,21.6V37.573l-1.376-2.38V21.509a1.422,1.422,0,0,0-1.42-1.419H45.048V18.714h9.277a2.894,2.894,0,0,1,2.89,2.89Zm5.7,25.84L59,40.674V21.6a4.686,4.686,0,0,0-4.68-4.679H43.314l-.2-.075a10.065,10.065,0,0,0-.86-2.076l.591-1.33a.9.9,0,0,0-.185-1L40.6,10.388a.9.9,0,0,0-1-.186l-1.33.591a10.061,10.061,0,0,0-2.076-.86l-.522-1.357A.9.9,0,0,0,34.843,8H31.928a.9.9,0,0,0-.834.573l-.522,1.357a10.1,10.1,0,0,0-2.076.86l-1.33-.591a.9.9,0,0,0-1,.186l-2.06,2.06a.9.9,0,0,0-.186,1l.591,1.33a10.151,10.151,0,0,0-.86,2.076l-.2.075H12.669A4.684,4.684,0,0,0,7.991,21.6V47.637a4.684,4.684,0,0,0,4.678,4.679h12.2v4.222H20c-2.273,0-4.122,1.558-4.122,3.473V62.59a.894.894,0,0,0,.895.894H50.22a.9.9,0,0,0,.895-.894V60.011c0-1.915-1.849-3.473-4.122-3.473H42.127v-4A4.115,4.115,0,0,0,45,53.687H59.31a4.162,4.162,0,0,0,3.6-6.243ZM33.386,14.9a4.767,4.767,0,1,0,4.767,4.767A4.773,4.773,0,0,0,33.386,14.9Zm0,11.325a6.557,6.557,0,1,0-6.557-6.557A6.565,6.565,0,0,0,33.386,26.221Z" transform="translate(-7.991 -8.002)" fill="#242222" fill-rule="evenodd"/>
      </g>
    </g>
  </g>
</svg>
