<svg id="Group_1172529" data-name="Group 1172529" xmlns="http://www.w3.org/2000/svg" width="50" height="50" viewBox="0 0 50 50">
  <path id="Path_947278" data-name="Path 947278" d="M210.839,226.924l-1.062-1.146a6.64,6.64,0,0,1,9.026,0l-1.062,1.146A5.078,5.078,0,0,0,210.839,226.924Zm0,0" transform="translate(-189.291 -202.133)" fill="#6003fe"/>
  <path id="Path_947279" data-name="Path 947279" d="M39.062,43.75h7.812V42.187H42.187V0H7.812V42.187H3.125V43.75H18.267l.781,1.563H0v1.562H19.83l.3.6A4.549,4.549,0,0,0,24.219,50H36.328l2.344-3.125H50V45.312H39.063ZM37.5,45.312v.521l-1.953,2.6H24.219a2.993,2.993,0,0,1-2.693-1.664l-3.364-6.728A1.393,1.393,0,0,1,20.6,38.7l2.113,3.487h1.506V27.734a1.172,1.172,0,0,1,2.344,0V37.5h1.562V35.156h1.563a.781.781,0,0,1,.781.781v3.125h1.562V36.719h1.563a.781.781,0,0,1,.781.781v3.125h1.563V38.281h.781a.781.781,0,0,1,.781.781Zm-6.25-25v9.375H28.125V27.734a2.734,2.734,0,0,0-5.469,0v1.953H18.75V20.312ZM20.312,18.75V15.625a4.687,4.687,0,1,1,9.375,0V18.75ZM36.719,36.719H35.8a2.348,2.348,0,0,0-2.21-1.562H31.9a2.348,2.348,0,0,0-2.21-1.562H28.125V31.25h4.687V18.75H31.25V15.625a6.25,6.25,0,1,0-12.5,0V18.75H17.187v12.5h5.469v7.829l-.72-1.188a2.956,2.956,0,0,0-5.172,2.854l.722,1.443H12.5V26.562H10.937V42.187H9.375V1.562h31.25V42.187H39.062V39.062a2.344,2.344,0,0,0-2.344-2.344Zm0,0" fill="#6003fe"/>
  <path id="Path_947280" data-name="Path 947280" d="M114.344,176A2.344,2.344,0,0,0,112,178.344v3.125a2.344,2.344,0,0,0,4.688,0v-3.125A2.344,2.344,0,0,0,114.344,176Zm.781,5.469a.781.781,0,0,1-1.562,0v-3.125a.781.781,0,0,1,1.563,0Zm0,0" transform="translate(-101.063 -158.813)" fill="#6003fe"/>
  <path id="Path_947281" data-name="Path 947281" d="M140.125,32H112V44.5h1.563V33.563h25V64.031h1.563Zm0,0" transform="translate(-101.063 -28.875)" fill="#6003fe"/>
  <path id="Path_947282" data-name="Path 947282" d="M0,432H1.562v1.563H0Zm0,0" transform="translate(0 -389.813)" fill="#6003fe"/>
  <path id="Path_947283" data-name="Path 947283" d="M496,432h1.563v1.563H496Zm0,0" transform="translate(-447.563 -389.813)" fill="#6003fe"/>
</svg>
