<svg xmlns="http://www.w3.org/2000/svg" width="70" height="70" viewBox="0 0 70 70">
  <g id="Group_1169105" data-name="Group 1169105" transform="translate(-269 -958)">
    <circle id="Ellipse_5614" data-name="Ellipse 5614" cx="35" cy="35" r="35" transform="translate(269 958)" fill="#fff"/>
    <path id="Path_943323" data-name="Path 943323" d="M23.429,76.828a.817.817,0,1,0,1.635,0,4.814,4.814,0,0,0-4.316-4.576V70.661a.817.817,0,1,0-1.635,0v1.591A4.814,4.814,0,0,0,14.8,76.828a3.925,3.925,0,0,0,1.715,3.511,7.764,7.764,0,0,0,2.6.967v6.074a3.141,3.141,0,0,1-2.681-2.918.817.817,0,0,0-1.635,0,4.815,4.815,0,0,0,4.316,4.576v1.591a.817.817,0,1,0,1.635,0V89.037a4.815,4.815,0,0,0,4.316-4.576,3.925,3.925,0,0,0-1.715-3.511,7.764,7.764,0,0,0-2.6-.967V73.91a3.142,3.142,0,0,1,2.681,2.918Zm-7,0a3.142,3.142,0,0,1,2.681-2.918v5.713C17.39,79.2,16.434,78.646,16.434,76.828Zm7,7.634a3.142,3.142,0,0,1-2.681,2.918V81.666C22.473,82.092,23.429,82.643,23.429,84.462Zm28.8,1.189a.817.817,0,0,0-.741-.473H46.512V67.753a.817.817,0,0,0-.817-.817H34.414a19.956,19.956,0,1,0-.1,27.518l4.936,5.855a.818.818,0,0,0,1.251,0L52.118,86.521A.815.815,0,0,0,52.234,85.651Zm-24.6.871L30.648,90.1A14.29,14.29,0,1,1,19.931,66.346a14.363,14.363,0,0,1,13.31,9.1v9.73H28.26a.817.817,0,0,0-.624,1.345Zm-7.7,12.442a18.32,18.32,0,1,1,13.31-30.89V71.9A15.938,15.938,0,1,0,31.711,91.36l1.545,1.834a18.279,18.279,0,0,1-13.325,5.771Zm19.945-.451-5.184-6.15-4.675-5.551h4.041A.817.817,0,0,0,34.875,86V68.57h10V86a.817.817,0,0,0,.817.817h4.041Z" transform="translate(277.845 912.355)" fill="#233993" stroke="#233993" stroke-width="0.5"/>
  </g>
</svg>
