<svg xmlns="http://www.w3.org/2000/svg" width="50.214" height="51.867" viewBox="0 0 50.214 51.867">
  <g id="Group_1172051" data-name="Group 1172051" transform="translate(-1.893 -0.9)">
    <path id="Path_943379" data-name="Path 943379" d="M39.333,20.651a.833.833,0,0,0-.833-.833H37.445a7.586,7.586,0,0,0-.472-1.136l.747-.747a.833.833,0,0,0,0-1.178l-2.143-2.143a.833.833,0,0,0-1.178,0l-.748.747a7.6,7.6,0,0,0-1.136-.472V13.833A.833.833,0,0,0,31.682,13H28.651a.833.833,0,0,0-.833.833v1.056a7.586,7.586,0,0,0-1.136.472l-.748-.747a.833.833,0,0,0-1.178,0l-2.143,2.143a.833.833,0,0,0,0,1.178l.748.747a7.6,7.6,0,0,0-.472,1.136H21.833a.833.833,0,0,0-.833.833v3.031a.833.833,0,0,0,.833.833h1.056a7.586,7.586,0,0,0,.472,1.136l-.748.747a.833.833,0,0,0,0,1.178l2.143,2.143a.833.833,0,0,0,1.178,0l.747-.747a7.6,7.6,0,0,0,1.136.472V30.5a.833.833,0,0,0,.833.833h3.031a.833.833,0,0,0,.833-.833V29.444a7.586,7.586,0,0,0,1.136-.472l.748.748a.833.833,0,0,0,1.178,0l2.143-2.143a.833.833,0,0,0,0-1.178l-.748-.747a7.6,7.6,0,0,0,.472-1.136H38.5a.833.833,0,0,0,.833-.833Zm-1.667,2.2h-.29a1.591,1.591,0,0,0-1.51,1.128,5.956,5.956,0,0,1-.389.938,1.591,1.591,0,0,0,.269,1.868l.206.206-.964.964-.206-.206a1.59,1.59,0,0,0-1.868-.269,5.976,5.976,0,0,1-.938.389,1.591,1.591,0,0,0-1.128,1.51v.29H29.485v-.29a1.591,1.591,0,0,0-1.128-1.51,5.956,5.956,0,0,1-.937-.389,1.591,1.591,0,0,0-1.868.269l-.206.206-.964-.964.206-.206a1.59,1.59,0,0,0,.269-1.868,5.976,5.976,0,0,1-.389-.938,1.591,1.591,0,0,0-1.51-1.128h-.29V21.485h.29a1.591,1.591,0,0,0,1.51-1.128,5.956,5.956,0,0,1,.389-.937,1.591,1.591,0,0,0-.269-1.868l-.206-.206.964-.964.206.206a1.589,1.589,0,0,0,1.868.269,5.976,5.976,0,0,1,.938-.389,1.591,1.591,0,0,0,1.128-1.51v-.29h1.364v.29a1.591,1.591,0,0,0,1.128,1.51,5.956,5.956,0,0,1,.938.389,1.59,1.59,0,0,0,1.868-.269l.206-.206.964.964-.206.206a1.59,1.59,0,0,0-.269,1.868,5.976,5.976,0,0,1,.389.938,1.591,1.591,0,0,0,1.51,1.128h.29Z" transform="translate(-3.167 -2)" fill="#6003fe" stroke="#6003fe" stroke-width="0.2"/>
    <path id="Path_943380" data-name="Path 943380" d="M31,18a5,5,0,1,0,5,5A5,5,0,0,0,31,18Zm0,8.333A3.333,3.333,0,1,1,34.333,23,3.333,3.333,0,0,1,31,26.333Z" transform="translate(-4 -2.833)" fill="#6003fe" stroke="#6003fe" stroke-width="0.2"/>
    <path id="Path_943381" data-name="Path 943381" d="M2.833,60.333H51.167a.833.833,0,0,0,.766-1.162l-5-11.667a.833.833,0,0,0-.766-.5h-10v1.667h9.451l4.285,10H4.1l4.285-10h9.451V47h-10a.833.833,0,0,0-.766.5l-5,11.667a.833.833,0,0,0,.766,1.162Z" transform="translate(0 -7.667)" fill="#6003fe" stroke="#6003fe" stroke-width="0.2"/>
    <path id="Path_943382" data-name="Path 943382" d="M29,38h1.667v5H29Z" transform="translate(-4.5 -6.167)" fill="#6003fe" stroke="#6003fe" stroke-width="0.2"/>
    <path id="Path_943383" data-name="Path 943383" d="M29,46h1.667v1.667H29Z" transform="translate(-4.5 -7.5)" fill="#6003fe" stroke="#6003fe" stroke-width="0.2"/>
    <path id="Path_943384" data-name="Path 943384" d="M29,50h1.667v4.167H29Z" transform="translate(-4.5 -8.167)" fill="#6003fe" stroke="#6003fe" stroke-width="0.2"/>
    <path id="Path_943385" data-name="Path 943385" d="M33,38h1.667v5.833H33Z" transform="translate(-5.167 -6.167)" fill="#6003fe" stroke="#6003fe" stroke-width="0.2"/>
    <path id="Path_943386" data-name="Path 943386" d="M33,47h1.667v6.667H33Z" transform="translate(-5.167 -7.667)" fill="#6003fe" stroke="#6003fe" stroke-width="0.2"/>
    <path id="Path_943387" data-name="Path 943387" d="M37,40h1.667v7.5H37Z" transform="translate(-5.833 -6.5)" fill="#6003fe" stroke="#6003fe" stroke-width="0.2"/>
    <path id="Path_943388" data-name="Path 943388" d="M25,51h1.667v1.667H25Z" transform="translate(-3.833 -8.333)" fill="#6003fe" stroke="#6003fe" stroke-width="0.2"/>
    <path id="Path_943389" data-name="Path 943389" d="M25,39h1.667v8.333H25Z" transform="translate(-3.833 -6.333)" fill="#6003fe" stroke="#6003fe" stroke-width="0.2"/>
    <path id="Path_943390" data-name="Path 943390" d="M37,51h1.667v1.667H37Z" transform="translate(-5.833 -8.333)" fill="#6003fe" stroke="#6003fe" stroke-width="0.2"/>
    <path id="Path_943391" data-name="Path 943391" d="M47.833,4A.833.833,0,0,0,47,4.833v5a.833.833,0,0,0,.833.833h2.5v1.667H48.667a.833.833,0,0,0-.833.833v4.167a.833.833,0,0,0,.833.833h4.167a.833.833,0,0,0,.833-.833V15.667h4.167a.833.833,0,0,0,.833-.833V8.167a.833.833,0,0,0-.833-.833H53.667v-2.5A.833.833,0,0,0,52.833,4Zm.833,5V5.667H52V7.333h-.833a.833.833,0,0,0-.833.833V9ZM52,16.5H49.5V14h.833v.833a.833.833,0,0,0,.833.833H52ZM57,9v5H52V9Z" transform="translate(-7.5 -0.5)" fill="#6003fe" stroke="#6003fe" stroke-width="0.2"/>
    <path id="Path_943392" data-name="Path 943392" d="M33.833,7.667a.833.833,0,0,0,.833-.833v-5A.833.833,0,0,0,33.833,1h-5A.833.833,0,0,0,28,1.833v5a.833.833,0,0,0,.833.833Zm-4.167-5H33V6H29.667Z" transform="translate(-4.333)" fill="#6003fe" stroke="#6003fe" stroke-width="0.2"/>
    <path id="Path_943393" data-name="Path 943393" d="M3.833,28.667h5a.833.833,0,0,0,.833-.833v-2.5h4.167a.833.833,0,0,0,.833-.833V17.833A.833.833,0,0,0,13.833,17H7.167a.833.833,0,0,0-.833.833V22h-2.5A.833.833,0,0,0,3,22.833v5A.833.833,0,0,0,3.833,28.667ZM8,18.667h5v5H8Zm-3.333,5H6.333V24.5a.833.833,0,0,0,.833.833H8V27H4.667Z" transform="translate(-0.167 -2.667)" fill="#6003fe" stroke="#6003fe" stroke-width="0.2"/>
    <path id="Path_943394" data-name="Path 943394" d="M9.833,12.833H14A.833.833,0,0,0,14.833,12V7.833A.833.833,0,0,0,14,7H9.833A.833.833,0,0,0,9,7.833V12A.833.833,0,0,0,9.833,12.833Zm.833-4.167h2.5v2.5h-2.5Z" transform="translate(-1.167 -1)" fill="#6003fe" stroke="#6003fe" stroke-width="0.2"/>
    <path id="Path_943395" data-name="Path 943395" d="M46.833,31a.833.833,0,0,0-.833.833v3.333a.833.833,0,0,0,.833.833h3.333A.833.833,0,0,0,51,35.167V31.833A.833.833,0,0,0,50.167,31Zm2.5,3.333H47.667V32.667h1.667Z" transform="translate(-7.333 -5)" fill="#6003fe" stroke="#6003fe" stroke-width="0.2"/>
    <path id="Path_943396" data-name="Path 943396" d="M10.911,51.667H17V50H10.333a.834.834,0,0,0-.78.541l-2.5,6.667a.833.833,0,0,0,.78,1.126h40a.833.833,0,0,0,.78-1.126l-2.5-6.667a.834.834,0,0,0-.78-.541H38.667v1.667h6.089l1.875,5H9.036Z" transform="translate(-0.833 -8.167)" fill="#6003fe" stroke="#6003fe" stroke-width="0.2"/>
  </g>
</svg>
