<svg xmlns="http://www.w3.org/2000/svg" width="100" height="100" viewBox="0 0 100 100">
  <g id="Group_1169120" data-name="Group 1169120" transform="translate(-637 -6992)">
    <g id="Group_1098742" data-name="Group 1098742" transform="translate(637.242 6992)">
      <rect id="Rectangle_400898" data-name="Rectangle 400898" width="100" height="100" rx="50" transform="translate(-0.242)" fill="#fff" opacity="0.859"/>
      <g id="Rectangle_400907" data-name="Rectangle 400907" transform="translate(-0.242)" fill="none" stroke="#00bdff" stroke-linecap="round" stroke-width="3" stroke-dasharray="0 7">
        <rect width="100" height="100" rx="50" stroke="none"/>
        <rect x="1.5" y="1.5" width="97" height="97" rx="48.5" fill="none"/>
      </g>
    </g>
    <g id="Group_1107006" data-name="Group 1107006" transform="translate(645.109 7000.157)">
      <rect id="Rectangle_400898-2" data-name="Rectangle 400898" width="84" height="84" rx="42" transform="translate(-0.399 -0.157)" fill="#6003fe" opacity="0.859"/>
      <rect id="Rectangle_400907-2" data-name="Rectangle 400907" width="84" height="84" rx="42" transform="translate(-0.398 -0.157)" fill="none"/>
    </g>
    <g id="Group_1172155" data-name="Group 1172155" transform="translate(664.439 7011.38)">
      <path id="Path_943424" data-name="Path 943424" d="M36.355,7.5H9.106A1.605,1.605,0,0,0,7.5,9.105V65.341a1.605,1.605,0,0,0,1.605,1.605H48.644a1.605,1.605,0,0,0,1.605-1.605V21.394A13.894,13.894,0,0,0,36.355,7.5Zm0,0" transform="translate(-6.603 -6.603)" fill="#e1ebf0"/>
      <path id="Path_943425" data-name="Path 943425" d="M40.055,11.664a13.871,13.871,0,0,1,5.411,11v33.3a12.25,12.25,0,0,1-12.25,12.25H7.5v.787a1.605,1.605,0,0,0,1.605,1.6H48.644a1.605,1.605,0,0,0,1.605-1.6V25.061a13.9,13.9,0,0,0-10.195-13.4Zm0,0" transform="translate(-6.603 -10.269)" fill="#b4d2d7"/>
      <path id="Path_943426" data-name="Path 943426" d="M7.5,402.16V412.8A1.605,1.605,0,0,0,9.105,414.4H48.644a1.605,1.605,0,0,0,1.605-1.605V402.16Zm0,0" transform="translate(-6.603 -354.057)" fill="#a0cafe"/>
      <path id="Path_943427" data-name="Path 943427" d="M33.215,412.009H7.5v.787A1.605,1.605,0,0,0,9.105,414.4H48.644a1.605,1.605,0,0,0,1.605-1.605V402.16h-5.02a12.254,12.254,0,0,1-12.014,9.849Zm0,0" transform="translate(-6.603 -354.058)" fill="#81b8fd"/>
      <path id="Path_943428" data-name="Path 943428" d="M85.426,55.111h-.913a1.605,1.605,0,0,1-1.6-1.605v-.912a6.092,6.092,0,0,0-.051-.777H55.593A1.234,1.234,0,0,0,54.36,53.05v3.674a1.234,1.234,0,0,0,1.233,1.233H84.666A1.233,1.233,0,0,0,85.9,56.724V55.131c-.156-.012-.314-.02-.473-.02Zm0,0" transform="translate(-47.858 -45.619)" fill="#ea7f87"/>
      <path id="Path_943429" data-name="Path 943429" d="M256.9,21.394A13.894,13.894,0,0,0,243.005,7.5h-.779a6.078,6.078,0,0,1,6.078,6.078v.913a1.605,1.605,0,0,0,1.605,1.605h.912a6.078,6.078,0,0,1,6.078,6.078Zm0,0" transform="translate(-213.254 -6.603)" fill="#9bb9c3"/>
      <path id="Path_943430" data-name="Path 943430" d="M65.7,163.01H55.25a.891.891,0,0,1-.891-.891v-7.784a.891.891,0,0,1,.891-.891H65.7a.891.891,0,0,1,.891.891v7.784A.891.891,0,0,1,65.7,163.01Zm0,0" transform="translate(-47.858 -135.092)" fill="#fff692"/>
      <path id="Path_943431" data-name="Path 943431" d="M231.036,147.739a.9.9,0,0,0,0-1.794H220.112a.9.9,0,1,0,0,1.794Zm0,0" transform="translate(-192.995 -128.489)"/>
      <path id="Path_943432" data-name="Path 943432" d="M179.113,186.827a.9.9,0,0,0,.9.9h15.72a.9.9,0,0,0,0-1.794H180.01A.9.9,0,0,0,179.113,186.827Zm0,0" transform="translate(-157.689 -163.691)"/>
      <path id="Path_943433" data-name="Path 943433" d="M180.01,227.7h12.132a.9.9,0,1,0,0-1.794H180.01a.9.9,0,1,0,0,1.794Zm0,0" transform="translate(-157.689 -198.889)"/>
      <path id="Path_943434" data-name="Path 943434" d="M86.961,266.788a.9.9,0,0,0,.9.9H114.6a.9.9,0,0,0,0-1.794H87.858a.9.9,0,0,0-.9.9Zm0,0" transform="translate(-76.56 -234.088)"/>
      <path id="Path_943435" data-name="Path 943435" d="M47.756,307.665H79.3a.9.9,0,1,0,0-1.794H47.756a.9.9,0,1,0,0,1.794Zm0,0" transform="translate(-41.255 -269.286)"/>
      <path id="Path_943436" data-name="Path 943436" d="M47.756,347.646H75.708a.9.9,0,0,0,0-1.794H47.756a.9.9,0,0,0,0,1.794Zm0,0" transform="translate(-41.255 -304.485)"/>
      <path id="Path_943437" data-name="Path 943437" d="M29.752,0H2.5A2.506,2.506,0,0,0,0,2.5V27.578a.9.9,0,0,0,1.794,0V2.5A.709.709,0,0,1,2.5,1.794h26.47a5.19,5.19,0,0,1,4.9,3.506H13.755a.9.9,0,1,0,0,1.794h20.4v.793a2.505,2.505,0,0,0,2.5,2.5h.488V11.1a.337.337,0,0,1-.336.336H7.735A.337.337,0,0,1,7.4,11.1V7.431a.336.336,0,0,1,.336-.336H9.569a.9.9,0,0,0,0-1.794H7.735A2.133,2.133,0,0,0,5.6,7.431V11.1a2.133,2.133,0,0,0,2.131,2.131H36.808A2.133,2.133,0,0,0,38.938,11.1v-.532a5.19,5.19,0,0,1,3.811,5V47.205h-2.9a.9.9,0,0,0,0,1.794h2.9v9.738a.709.709,0,0,1-.708.708H2.5a.709.709,0,0,1-.708-.708V49H35.66a.9.9,0,1,0,0-1.794H1.794V31.764a.9.9,0,0,0-1.794,0V58.739a2.505,2.505,0,0,0,2.5,2.5H42.041a2.505,2.505,0,0,0,2.5-2.5V14.791A14.808,14.808,0,0,0,29.752,0Zm7.817,8.6h-.913a.709.709,0,0,1-.708-.708V6.975a6.94,6.94,0,0,0-1.484-4.3,13.069,13.069,0,0,1,7.4,7.4,6.94,6.94,0,0,0-4.3-1.485Zm0,0"/>
      <path id="Path_943438" data-name="Path 943438" d="M59.1,145.945H48.647a1.79,1.79,0,0,0-1.788,1.788v7.784a1.789,1.789,0,0,0,1.788,1.787H59.1a1.789,1.789,0,0,0,1.788-1.787v-7.784A1.79,1.79,0,0,0,59.1,145.945Zm-10.443,9.571-.007-7.777,10.443-.007.007,7.777Zm0,0" transform="translate(-41.255 -128.489)"/>
      <path id="Path_943439" data-name="Path 943439" d="M137.5,427.114v2a2.45,2.45,0,0,0,4.9,0v-2a2.45,2.45,0,1,0-4.9,0Zm3.105,0v2a.656.656,0,0,1-1.311,0v-2a.656.656,0,0,1,1.311,0Zm0,0" transform="translate(-121.054 -373.87)"/>
      <path id="Path_943440" data-name="Path 943440" d="M82.6,424.66a1.064,1.064,0,0,0-1.062,1.063V430.5a1.064,1.064,0,0,0,1.062,1.062h1.387a2.452,2.452,0,0,0,2.45-2.449v-2a2.452,2.452,0,0,0-2.45-2.45H82.6Zm2.043,2.45v2a.656.656,0,0,1-.656.655h-.656v-3.315h.656A.657.657,0,0,1,84.644,427.11Zm0,0" transform="translate(-71.786 -373.866)"/>
      <path id="Path_943441" data-name="Path 943441" d="M195.91,426.454a.654.654,0,0,1,.624.454.9.9,0,1,0,1.708-.549,2.45,2.45,0,0,0-4.782.751v2a2.45,2.45,0,0,0,4.782.751.9.9,0,0,0-1.708-.55.656.656,0,0,1-1.28-.2v-2a.657.657,0,0,1,.656-.656Zm0,0" transform="translate(-170.321 -373.866)"/>
      <path id="Path_943442" data-name="Path 943442" d="M252.632,429.769h-.551a.378.378,0,0,1-.312-.163.9.9,0,0,0-1.469,1.029,2.177,2.177,0,0,0,1.782.927h.551a2.174,2.174,0,1,0,0-4.348h-.551a.38.38,0,0,1,0-.76h.551a.38.38,0,0,1,.321.176.9.9,0,1,0,1.51-.969,2.167,2.167,0,0,0-1.831-1h-.551a2.174,2.174,0,0,0,0,4.349h.551a.38.38,0,1,1,0,.76Zm0,0" transform="translate(-220.015 -373.866)"/>
    </g>
  </g>
</svg>
