<svg xmlns="http://www.w3.org/2000/svg" width="50.202" height="50.218" viewBox="0 0 50.202 50.218">
  <g id="Group_1172054" data-name="Group 1172054" transform="translate(0.1 0.1)">
    <path id="Path_943406" data-name="Path 943406" d="M85.5,66.465a.781.781,0,0,0-1.313.57V88.287A.781.781,0,0,0,85.284,89L89.5,87.166,90.671,89.9a.781.781,0,0,0,1.027.391l5.7-2.457a.781.781,0,0,0,.391-1.027l-1.172-2.735,4.215-1.836a.781.781,0,0,0,.219-1.289Zm9.766,16.482a.781.781,0,0,0-.391,1.027l1.172,2.735-4.266,1.856L90.612,85.83a.781.781,0,0,0-1.027-.391l-3.84,1.672V68.848L99.113,81.294Z" transform="translate(-51.301 -40.373)" fill="#6003fe" stroke="#6003fe" stroke-width="0.2"/>
    <path id="Path_943407" data-name="Path 943407" d="M30.471,45.316a.781.781,0,1,0,0-1.563H4.719A3.156,3.156,0,0,1,1.563,40.6V14.064H43.753V32.424a.781.781,0,1,0,1.563,0V4.719A4.723,4.723,0,0,0,40.6,0H4.719A4.723,4.723,0,0,0,0,4.719V40.6a4.723,4.723,0,0,0,4.719,4.715ZM4.719,1.563H40.6a3.156,3.156,0,0,1,3.153,3.156V12.5H1.563V4.719A3.156,3.156,0,0,1,4.719,1.563Z" fill="#6003fe" stroke="#6003fe" stroke-width="0.2"/>
    <path id="Path_943408" data-name="Path 943408" d="M94.344,16.688A2.344,2.344,0,1,0,92,14.344,2.344,2.344,0,0,0,94.344,16.688Zm0-3.125a.781.781,0,1,1-.781.781A.781.781,0,0,1,94.344,13.563Z" transform="translate(-56.06 -7.312)" fill="#6003fe" stroke="#6003fe" stroke-width="0.2"/>
    <path id="Path_943409" data-name="Path 943409" d="M78.344,16.688A2.344,2.344,0,1,0,76,14.344,2.344,2.344,0,0,0,78.344,16.688Zm0-3.125a.781.781,0,1,1-.781.781A.781.781,0,0,1,78.344,13.563Z" transform="translate(-46.31 -7.312)" fill="#6003fe" stroke="#6003fe" stroke-width="0.2"/>
    <path id="Path_943410" data-name="Path 943410" d="M62.344,16.688A2.344,2.344,0,1,0,60,14.344,2.344,2.344,0,0,0,62.344,16.688Zm0-3.125a.781.781,0,1,1-.781.781A.781.781,0,0,1,62.344,13.563Z" transform="translate(-36.561 -7.312)" fill="#6003fe" stroke="#6003fe" stroke-width="0.2"/>
    <path id="Path_943411" data-name="Path 943411" d="M36.221,47.119H21.3a3.907,3.907,0,0,0-7.657,0h-.859a.781.781,0,0,0,0,1.563h.859a3.907,3.907,0,0,0,7.657,0H36.221a.781.781,0,0,0,0-1.563ZM17.469,50.244A2.344,2.344,0,1,1,19.813,47.9,2.344,2.344,0,0,1,17.469,50.244Z" transform="translate(-7.312 -26.805)" fill="#6003fe" stroke="#6003fe" stroke-width="0.2"/>
    <path id="Path_943412" data-name="Path 943412" d="M28.329,87.119a3.907,3.907,0,0,0-7.657,0H12.781a.781.781,0,0,0,0,1.563h7.891a3.907,3.907,0,0,0,7.657,0h7.891a.781.781,0,0,0,0-1.563ZM24.5,90.244A2.344,2.344,0,1,1,26.845,87.9,2.344,2.344,0,0,1,24.5,90.244Z" transform="translate(-7.312 -51.179)" fill="#6003fe" stroke="#6003fe" stroke-width="0.2"/>
    <path id="Path_943413" data-name="Path 943413" d="M33.1,64a3.907,3.907,0,0,0-3.829,3.126H12.781a.781.781,0,0,0,0,1.563H29.267A3.907,3.907,0,1,0,33.1,64Zm0,6.25a2.344,2.344,0,1,1,2.344-2.344A2.344,2.344,0,0,1,33.1,70.25Z" transform="translate(-7.312 -38.998)" fill="#6003fe" stroke="#6003fe" stroke-width="0.2"/>
  </g>
</svg>
