<svg xmlns="http://www.w3.org/2000/svg" width="50.2" height="44.82" viewBox="0 0 50.2 44.82">
  <g id="Group_1172053" data-name="Group 1172053" transform="translate(-1.9 -5.128)">
    <path id="Path_943401" data-name="Path 943401" d="M49.5,5.228H4.5A2.5,2.5,0,0,0,2,7.728v39.62a2.5,2.5,0,0,0,2.5,2.5h45a2.5,2.5,0,0,0,2.5-2.5V7.728a2.5,2.5,0,0,0-2.5-2.5ZM4.5,6.895h45a.834.834,0,0,1,.833.833V16.07H3.667V7.728A.835.835,0,0,1,4.5,6.895Zm45,41.287H4.5a.835.835,0,0,1-.833-.833V17.736H50.333V47.348A.834.834,0,0,1,49.5,48.181Z" transform="translate(0 0)" fill="#6003fe" stroke="#6003fe" stroke-width="0.2"/>
    <path id="Path_943402" data-name="Path 943402" d="M11.348,15.066A2.917,2.917,0,1,0,8.431,12.15,2.92,2.92,0,0,0,11.348,15.066Zm0-4.167a1.25,1.25,0,1,1-1.25,1.25A1.252,1.252,0,0,1,11.348,10.9Z" transform="translate(-1.072 -0.667)" fill="#6003fe" stroke="#6003fe" stroke-width="0.2"/>
    <path id="Path_943403" data-name="Path 943403" d="M21.348,15.066a2.917,2.917,0,1,0-2.917-2.917A2.92,2.92,0,0,0,21.348,15.066Zm0-4.167a1.25,1.25,0,1,1-1.25,1.25A1.252,1.252,0,0,1,21.348,10.9Z" transform="translate(-2.738 -0.667)" fill="#6003fe" stroke="#6003fe" stroke-width="0.2"/>
    <path id="Path_943404" data-name="Path 943404" d="M31.348,15.066a2.917,2.917,0,1,0-2.917-2.917A2.92,2.92,0,0,0,31.348,15.066Zm0-4.167a1.25,1.25,0,1,1-1.25,1.25A1.252,1.252,0,0,1,31.348,10.9Z" transform="translate(-4.405 -0.667)" fill="#6003fe" stroke="#6003fe" stroke-width="0.2"/>
    <path id="Path_943405" data-name="Path 943405" d="M29.333,22.5A13.333,13.333,0,1,0,42.667,35.838,13.349,13.349,0,0,0,29.333,22.5ZM40.958,35H35.5a28.063,28.063,0,0,0-.44-4.377,13.271,13.271,0,0,0,3.264-2.21A11.614,11.614,0,0,1,40.958,35ZM38.328,43.26a13.267,13.267,0,0,0-3.264-2.209,28.074,28.074,0,0,0,.44-4.378h5.453a11.616,11.616,0,0,1-2.629,6.588ZM17.709,36.672h5.453a28.084,28.084,0,0,0,.44,4.379,13.287,13.287,0,0,0-3.264,2.208,11.608,11.608,0,0,1-2.629-6.587Zm2.629-8.254a13.294,13.294,0,0,0,3.264,2.21,28.073,28.073,0,0,0-.44,4.378H17.709a11.605,11.605,0,0,1,2.629-6.587ZM28.5,30.223a11.641,11.641,0,0,1-2.952-.6c.7-2.713,1.811-4.59,2.952-5.219Zm0,1.667v3.116H24.828a26.194,26.194,0,0,1,.363-3.735,13.324,13.324,0,0,0,3.307.62Zm0,4.782v3.116a13.3,13.3,0,0,0-3.307.622,26.226,26.226,0,0,1-.364-3.737Zm0,4.783V47.27c-1.141-.629-2.252-2.506-2.952-5.218A11.607,11.607,0,0,1,28.5,41.455Zm1.667,0a11.6,11.6,0,0,1,2.952.6c-.7,2.713-1.811,4.589-2.952,5.218Zm0-1.667V36.672h3.671a26.218,26.218,0,0,1-.363,3.737,13.325,13.325,0,0,0-3.308-.621Zm0-4.782V31.89a13.323,13.323,0,0,0,3.308-.618,26.182,26.182,0,0,1,.363,3.734Zm0-4.782V24.408c1.141.629,2.252,2.507,2.952,5.22A11.59,11.59,0,0,1,30.167,30.223Zm2.668-5.512a11.65,11.65,0,0,1,4.335,2.511,11.62,11.62,0,0,1-2.487,1.741A13.643,13.643,0,0,0,32.835,24.711Zm-8.852,4.252A11.649,11.649,0,0,1,21.5,27.222a11.65,11.65,0,0,1,4.335-2.511,13.642,13.642,0,0,0-1.848,4.252Zm0,13.752a13.62,13.62,0,0,0,1.848,4.253A11.65,11.65,0,0,1,21.5,44.456,11.648,11.648,0,0,1,23.983,42.714Zm10.7,0a11.6,11.6,0,0,1,2.487,1.742,11.673,11.673,0,0,1-4.335,2.511,13.623,13.623,0,0,0,1.847-4.252Z" transform="translate(-2.333 -2.879)" fill="#6003fe" stroke="#6003fe" stroke-width="0.2"/>
  </g>
</svg>
