<svg xmlns="http://www.w3.org/2000/svg" width="70" height="70" viewBox="0 0 70 70">
  <g id="Group_1172158" data-name="Group 1172158" transform="translate(-619.711 -8971)">
    <rect id="Rectangle_402033" data-name="Rectangle 402033" width="70" height="70" rx="8" transform="translate(619.711 8971)" fill="#6003fe"/>
    <path id="Path_942272" data-name="Path 942272" d="M18.475,20.16a7.115,7.115,0,0,1-2.8-.51,4.129,4.129,0,0,1-1.85-1.46,3.818,3.818,0,0,1-.65-2.21v-.44a.239.239,0,0,1,.24-.24H15.7a.239.239,0,0,1,.24.24v.3a1.634,1.634,0,0,0,.74,1.35,3.281,3.281,0,0,0,2,.55,2.365,2.365,0,0,0,1.58-.45,1.411,1.411,0,0,0,.52-1.11,1.119,1.119,0,0,0-.32-.81,2.826,2.826,0,0,0-.87-.58q-.55-.25-1.75-.69a17.138,17.138,0,0,1-2.27-.94,4.559,4.559,0,0,1-1.56-1.31,3.292,3.292,0,0,1-.63-2.05A3.61,3.61,0,0,1,14,7.7a3.948,3.948,0,0,1,1.72-1.38,6.3,6.3,0,0,1,2.54-.48,6.491,6.491,0,0,1,2.71.54,4.417,4.417,0,0,1,1.86,1.51,3.861,3.861,0,0,1,.67,2.25v.3a.239.239,0,0,1-.24.24h-2.3a.239.239,0,0,1-.24-.24v-.16a1.817,1.817,0,0,0-.69-1.43,2.814,2.814,0,0,0-1.89-.59,2.392,2.392,0,0,0-1.47.4,1.3,1.3,0,0,0-.53,1.1,1.2,1.2,0,0,0,.31.84,2.722,2.722,0,0,0,.92.61q.61.27,1.89.73a23.541,23.541,0,0,1,2.23.92,4.443,4.443,0,0,1,1.46,1.19,3.122,3.122,0,0,1,.65,2.05,3.581,3.581,0,0,1-1.38,2.97A5.874,5.874,0,0,1,18.475,20.16Zm10.9-10.6a5.693,5.693,0,0,1,2.32.45,3.829,3.829,0,0,1,1.59,1.23,2.879,2.879,0,0,1,.57,1.74v6.78a.239.239,0,0,1-.24.24h-2.34a.239.239,0,0,1-.24-.24V19.1a.081.081,0,0,0-.04-.08q-.04-.02-.08.04a3.181,3.181,0,0,1-2.7,1.1,3.941,3.941,0,0,1-2.52-.76,2.685,2.685,0,0,1-.96-2.24,2.867,2.867,0,0,1,1.08-2.39,4.881,4.881,0,0,1,3.08-.85h2.04a.088.088,0,0,0,.1-.1v-.44a1.333,1.333,0,0,0-.4-1.03,1.713,1.713,0,0,0-1.2-.37,2.162,2.162,0,0,0-1.03.22,1.027,1.027,0,0,0-.53.62.229.229,0,0,1-.26.2L25.2,12.7q-.24-.04-.22-.18a2.663,2.663,0,0,1,.67-1.52,3.9,3.9,0,0,1,1.56-1.06A5.906,5.906,0,0,1,29.375,9.56Zm-.4,8.5a2.329,2.329,0,0,0,1.46-.46,1.424,1.424,0,0,0,.6-1.18V15.7a.088.088,0,0,0-.1-.1H29.5a2.52,2.52,0,0,0-1.41.34,1.088,1.088,0,0,0-.51.96,1.038,1.038,0,0,0,.38.85A1.565,1.565,0,0,0,28.975,18.06Zm10.96-8.5a5.693,5.693,0,0,1,2.32.45,3.829,3.829,0,0,1,1.59,1.23,2.879,2.879,0,0,1,.57,1.74v6.78a.239.239,0,0,1-.24.24h-2.34a.239.239,0,0,1-.24-.24V19.1a.081.081,0,0,0-.04-.08q-.04-.02-.08.04a3.181,3.181,0,0,1-2.7,1.1,3.941,3.941,0,0,1-2.52-.76,2.685,2.685,0,0,1-.96-2.24,2.867,2.867,0,0,1,1.08-2.39,4.881,4.881,0,0,1,3.08-.85H41.5a.088.088,0,0,0,.1-.1v-.44a1.333,1.333,0,0,0-.4-1.03,1.713,1.713,0,0,0-1.2-.37,2.162,2.162,0,0,0-1.03.22,1.027,1.027,0,0,0-.53.62.229.229,0,0,1-.26.2l-2.42-.32q-.24-.04-.22-.18a2.663,2.663,0,0,1,.67-1.52,3.9,3.9,0,0,1,1.56-1.06A5.906,5.906,0,0,1,39.935,9.56Zm-.4,8.5A2.329,2.329,0,0,0,41,17.6a1.424,1.424,0,0,0,.6-1.18V15.7a.088.088,0,0,0-.1-.1h-1.44a2.52,2.52,0,0,0-1.41.34,1.088,1.088,0,0,0-.51.96,1.038,1.038,0,0,0,.38.85A1.565,1.565,0,0,0,39.535,18.06Zm11.84,2.1a7.115,7.115,0,0,1-2.8-.51,4.129,4.129,0,0,1-1.85-1.46,3.818,3.818,0,0,1-.65-2.21v-.44a.239.239,0,0,1,.24-.24H48.6a.239.239,0,0,1,.24.24v.3a1.634,1.634,0,0,0,.74,1.35,3.281,3.281,0,0,0,2,.55,2.365,2.365,0,0,0,1.58-.45,1.411,1.411,0,0,0,.52-1.11,1.119,1.119,0,0,0-.32-.81,2.826,2.826,0,0,0-.87-.58q-.55-.25-1.75-.69a17.138,17.138,0,0,1-2.27-.94,4.559,4.559,0,0,1-1.56-1.31,3.292,3.292,0,0,1-.63-2.05,3.61,3.61,0,0,1,.62-2.1,3.948,3.948,0,0,1,1.72-1.38,6.3,6.3,0,0,1,2.54-.48,6.491,6.491,0,0,1,2.71.54,4.417,4.417,0,0,1,1.86,1.51,3.861,3.861,0,0,1,.67,2.25v.3a.239.239,0,0,1-.24.24h-2.3a.239.239,0,0,1-.24-.24v-.16a1.817,1.817,0,0,0-.69-1.43,2.814,2.814,0,0,0-1.89-.59,2.392,2.392,0,0,0-1.47.4,1.3,1.3,0,0,0-.53,1.1,1.2,1.2,0,0,0,.31.84,2.722,2.722,0,0,0,.92.61q.61.27,1.89.73a23.541,23.541,0,0,1,2.23.92,4.443,4.443,0,0,1,1.46,1.19,3.122,3.122,0,0,1,.65,2.05,3.581,3.581,0,0,1-1.38,2.97A5.874,5.874,0,0,1,51.375,20.16Z" transform="translate(619.711 8994)" fill="#fff"/>
  </g>
</svg>
